<svg width="387" height="297" viewBox="0 0 387 297" fill="none" xmlns="http://www.w3.org/2000/svg">
<g filter="url(#filter0_dd)">
<path d="M30 30H357V267L341.077 241.317H30V30Z" fill="#EAF5DD"/>
</g>
<g clip-path="url(#clip0)">
<path d="M58.7336 54.6304C58.6588 53.9737 58.3331 53.3666 57.8189 52.9255C57.3048 52.4844 56.6384 52.2404 55.9478 52.2405H43V46.9141H49.7828C57.6838 47.6514 58.6242 53.2838 58.7336 54.6304Z" fill="url(#paint0_linear)"/>
<path d="M60.8742 61.429L62.1373 63.3875L58.5477 69.012L54.671 62.9482H47.8554V69.012H43V57.6139H55.9478C56.316 57.6139 56.6806 57.5445 57.0208 57.4097C57.3609 57.2748 57.67 57.0772 57.9302 56.828C58.1905 56.5789 58.3968 56.2831 58.5375 55.9576C58.6781 55.6321 58.7504 55.2833 58.75 54.9311C58.75 54.9311 58.75 54.8945 58.75 54.8396C58.75 54.7847 58.75 54.7769 58.75 54.7376C58.75 54.6984 58.75 54.6932 58.75 54.6383C58.6406 53.2838 57.7002 47.6515 49.7992 46.9141H55.9478C57.7211 46.9107 59.4499 47.4453 60.8855 48.4411C62.3212 49.4369 63.3896 50.8425 63.9371 52.4557C64.4847 54.069 64.4832 55.8068 63.9328 57.4192C63.3824 59.0316 62.3116 60.4355 60.8742 61.429Z" fill="url(#paint1_linear)"/>
<path d="M87.9998 69.0105H80.8124L73.2723 57.2437V57.2202C73.2723 57.2202 70.3115 54.6917 65.0405 58.8989L68.2365 53.8654L69.68 51.6114L73.2723 46L76.8619 51.6114L87.9998 69.0105Z" fill="url(#paint2_linear)"/>
<path d="M73.2726 57.2184L65.7271 68.9851H58.5479L62.1375 63.3841L62.8346 62.299L65.0217 58.8735C70.2927 54.6663 73.2535 57.1948 73.2535 57.1948L73.2726 57.2184Z" fill="url(#paint3_linear)"/>
</g>
<path d="M141.486 57.6504V67.8555H133.723V59.7988C133.723 55.209 134.276 51.8073 135.383 49.5938C136.49 47.3802 138.133 45.6549 140.314 44.418L142.121 47.8848C140.754 48.5684 139.696 49.6263 138.947 51.0586C138.199 52.4909 137.775 54.6882 137.678 57.6504H141.486ZM129.035 57.6504V67.8555H121.32V59.7988C121.32 55.209 121.857 51.8073 122.932 49.5938C124.038 47.3802 125.699 45.6549 127.912 44.418L129.719 47.8848C128.352 48.5684 127.294 49.6263 126.545 51.0586C125.796 52.4583 125.373 54.6556 125.275 57.6504H129.035Z" fill="#1C8463"/>
<path d="M162.74 73.595V74.75H159.62V83H158.345V74.75H155.225V73.595H162.74ZM165.189 83H163.959V73.025H165.189V76.19C165.639 75.94 166.084 75.755 166.524 75.635C166.974 75.505 167.419 75.44 167.859 75.44C168.679 75.44 169.294 75.645 169.704 76.055C170.124 76.465 170.334 77.07 170.334 77.87V83H169.104V78.02C169.104 77.51 168.969 77.14 168.699 76.91C168.439 76.67 168.029 76.55 167.469 76.55C167.099 76.55 166.714 76.6 166.314 76.7C165.924 76.8 165.549 76.94 165.189 77.12V83ZM177.815 81.56V82.595C177.555 82.735 177.17 82.86 176.66 82.97C176.16 83.07 175.65 83.12 175.13 83.12C173.97 83.12 173.14 82.82 172.64 82.22C172.14 81.62 171.89 80.63 171.89 79.25C171.89 77.92 172.15 76.955 172.67 76.355C173.19 75.745 174.02 75.44 175.16 75.44C176.22 75.44 176.98 75.68 177.44 76.16C177.9 76.63 178.13 77.42 178.13 78.53C178.13 78.73 178.125 78.915 178.115 79.085C178.105 79.255 178.085 79.46 178.055 79.7H173.135C173.145 80.52 173.31 81.105 173.63 81.455C173.96 81.805 174.525 81.98 175.325 81.98C175.755 81.98 176.205 81.94 176.675 81.86C177.145 81.78 177.525 81.68 177.815 81.56ZM177.005 78.365C176.995 77.705 176.85 77.24 176.57 76.97C176.29 76.69 175.82 76.55 175.16 76.55C174.42 76.55 173.895 76.71 173.585 77.03C173.285 77.34 173.135 77.89 173.135 78.68H176.99C176.99 78.66 176.99 78.615 176.99 78.545C177 78.465 177.005 78.405 177.005 78.365ZM189.752 73.025H190.982V83H189.917L189.827 82.31H189.797C189.507 82.58 189.152 82.785 188.732 82.925C188.322 83.055 187.847 83.12 187.307 83.12C186.297 83.12 185.572 82.82 185.132 82.22C184.702 81.62 184.487 80.64 184.487 79.28C184.487 77.92 184.752 76.94 185.282 76.34C185.812 75.74 186.697 75.44 187.937 75.44C188.287 75.44 188.612 75.47 188.912 75.53C189.222 75.58 189.502 75.655 189.752 75.755V73.025ZM188.087 76.55C187.157 76.55 186.527 76.745 186.197 77.135C185.877 77.525 185.717 78.24 185.717 79.28C185.717 80.29 185.857 80.995 186.137 81.395C186.427 81.785 186.962 81.98 187.742 81.98C188.112 81.98 188.467 81.935 188.807 81.845C189.147 81.745 189.462 81.6 189.752 81.41V76.85C189.512 76.75 189.257 76.675 188.987 76.625C188.717 76.575 188.417 76.55 188.087 76.55ZM198.528 81.56V82.595C198.268 82.735 197.883 82.86 197.373 82.97C196.873 83.07 196.363 83.12 195.843 83.12C194.683 83.12 193.853 82.82 193.353 82.22C192.853 81.62 192.603 80.63 192.603 79.25C192.603 77.92 192.863 76.955 193.383 76.355C193.903 75.745 194.733 75.44 195.873 75.44C196.933 75.44 197.693 75.68 198.153 76.16C198.613 76.63 198.843 77.42 198.843 78.53C198.843 78.73 198.838 78.915 198.828 79.085C198.818 79.255 198.798 79.46 198.768 79.7H193.848C193.858 80.52 194.023 81.105 194.343 81.455C194.673 81.805 195.238 81.98 196.038 81.98C196.468 81.98 196.918 81.94 197.388 81.86C197.858 81.78 198.238 81.68 198.528 81.56ZM197.718 78.365C197.708 77.705 197.563 77.24 197.283 76.97C197.003 76.69 196.533 76.55 195.873 76.55C195.133 76.55 194.608 76.71 194.298 77.03C193.998 77.34 193.848 77.89 193.848 78.68H197.703C197.703 78.66 197.703 78.615 197.703 78.545C197.713 78.465 197.718 78.405 197.718 78.365ZM202.983 76.55C202.343 76.55 201.898 76.625 201.648 76.775C201.408 76.925 201.288 77.23 201.288 77.69C201.288 77.93 201.343 78.115 201.453 78.245C201.573 78.365 201.758 78.445 202.008 78.485L203.913 78.77C204.513 78.86 204.933 79.05 205.173 79.34C205.413 79.62 205.533 80.065 205.533 80.675C205.533 81.535 205.328 82.16 204.918 82.55C204.508 82.93 203.828 83.12 202.878 83.12C202.308 83.12 201.778 83.09 201.288 83.03C200.798 82.97 200.393 82.89 200.073 82.79V81.635C200.393 81.735 200.783 81.82 201.243 81.89C201.713 81.95 202.193 81.98 202.683 81.98C203.303 81.98 203.728 81.89 203.958 81.71C204.188 81.53 204.303 81.21 204.303 80.75C204.303 80.46 204.238 80.25 204.108 80.12C203.978 79.98 203.743 79.885 203.403 79.835L201.498 79.55C201.018 79.48 200.658 79.295 200.418 78.995C200.188 78.695 200.068 78.26 200.058 77.69C200.058 76.91 200.288 76.34 200.748 75.98C201.218 75.62 201.938 75.44 202.908 75.44C203.308 75.44 203.668 75.45 203.988 75.47C204.318 75.49 204.663 75.53 205.023 75.59V76.685C204.763 76.645 204.458 76.615 204.108 76.595C203.758 76.565 203.383 76.55 202.983 76.55ZM208.3 74.3H206.98V73.025H208.3V74.3ZM208.255 83H207.025V75.59H208.255V83ZM213.248 85.43C212.748 85.43 212.278 85.395 211.838 85.325C211.408 85.265 211.053 85.18 210.773 85.07V83.975C211.003 84.065 211.338 84.14 211.778 84.2C212.228 84.26 212.673 84.29 213.113 84.29C213.863 84.29 214.383 84.14 214.673 83.84C214.963 83.55 215.108 83.03 215.108 82.28V81.815C214.738 82.035 214.343 82.205 213.923 82.325C213.503 82.435 213.078 82.49 212.648 82.49C211.658 82.49 210.948 82.215 210.518 81.665C210.098 81.115 209.888 80.215 209.888 78.965C209.888 77.695 210.158 76.79 210.698 76.25C211.248 75.71 212.178 75.44 213.488 75.44C213.958 75.44 214.463 75.47 215.003 75.53C215.543 75.58 215.988 75.645 216.338 75.725V81.935C216.338 83.235 216.108 84.14 215.648 84.65C215.188 85.17 214.388 85.43 213.248 85.43ZM213.488 76.55C212.528 76.55 211.893 76.715 211.583 77.045C211.273 77.375 211.118 78.015 211.118 78.965C211.118 79.865 211.248 80.49 211.508 80.84C211.778 81.18 212.293 81.35 213.053 81.35C213.383 81.35 213.723 81.305 214.073 81.215C214.433 81.115 214.778 80.98 215.108 80.81V76.715C214.868 76.665 214.608 76.625 214.328 76.595C214.058 76.565 213.778 76.55 213.488 76.55ZM219.534 83H218.304V75.59H219.369L219.429 76.31H219.474C219.874 76.01 220.289 75.79 220.719 75.65C221.159 75.51 221.649 75.44 222.189 75.44C223.009 75.44 223.629 75.645 224.049 76.055C224.479 76.465 224.694 77.07 224.694 77.87V83H223.464V78.02C223.464 77.52 223.324 77.15 223.044 76.91C222.764 76.67 222.334 76.55 221.754 76.55C221.394 76.55 221.024 76.61 220.644 76.73C220.274 76.84 219.904 77.005 219.534 77.225V83ZM229.16 76.55C228.52 76.55 228.075 76.625 227.825 76.775C227.585 76.925 227.465 77.23 227.465 77.69C227.465 77.93 227.52 78.115 227.63 78.245C227.75 78.365 227.935 78.445 228.185 78.485L230.09 78.77C230.69 78.86 231.11 79.05 231.35 79.34C231.59 79.62 231.71 80.065 231.71 80.675C231.71 81.535 231.505 82.16 231.095 82.55C230.685 82.93 230.005 83.12 229.055 83.12C228.485 83.12 227.955 83.09 227.465 83.03C226.975 82.97 226.57 82.89 226.25 82.79V81.635C226.57 81.735 226.96 81.82 227.42 81.89C227.89 81.95 228.37 81.98 228.86 81.98C229.48 81.98 229.905 81.89 230.135 81.71C230.365 81.53 230.48 81.21 230.48 80.75C230.48 80.46 230.415 80.25 230.285 80.12C230.155 79.98 229.92 79.885 229.58 79.835L227.675 79.55C227.195 79.48 226.835 79.295 226.595 78.995C226.365 78.695 226.245 78.26 226.235 77.69C226.235 76.91 226.465 76.34 226.925 75.98C227.395 75.62 228.115 75.44 229.085 75.44C229.485 75.44 229.845 75.45 230.165 75.47C230.495 75.49 230.84 75.53 231.2 75.59V76.685C230.94 76.645 230.635 76.615 230.285 76.595C229.935 76.565 229.56 76.55 229.16 76.55ZM237.445 83.12C236.685 83.12 236.125 82.94 235.765 82.58C235.415 82.21 235.24 81.63 235.24 80.84C235.24 80.04 235.455 79.475 235.885 79.145C236.315 78.805 237.045 78.635 238.075 78.635C238.415 78.635 238.75 78.65 239.08 78.68C239.41 78.71 239.72 78.755 240.01 78.815V78.095C240.01 77.545 239.87 77.15 239.59 76.91C239.31 76.67 238.86 76.55 238.24 76.55C237.78 76.55 237.375 76.57 237.025 76.61C236.675 76.64 236.325 76.695 235.975 76.775V75.71C236.375 75.61 236.78 75.54 237.19 75.5C237.61 75.46 238.085 75.44 238.615 75.44C239.505 75.44 240.165 75.65 240.595 76.07C241.025 76.48 241.24 77.12 241.24 77.99V83H240.115L240.055 82.31H240.025C239.725 82.55 239.335 82.745 238.855 82.895C238.385 83.045 237.915 83.12 237.445 83.12ZM238.21 79.64C237.53 79.64 237.055 79.725 236.785 79.895C236.525 80.055 236.395 80.345 236.395 80.765C236.395 81.205 236.505 81.525 236.725 81.725C236.945 81.915 237.305 82.01 237.805 82.01C238.195 82.01 238.595 81.95 239.005 81.83C239.415 81.71 239.75 81.56 240.01 81.38V79.79C239.68 79.74 239.37 79.705 239.08 79.685C238.8 79.655 238.51 79.64 238.21 79.64ZM244.393 83H243.163V75.59H244.288L244.348 76.22H244.408C244.798 75.99 245.188 75.82 245.578 75.71C245.968 75.59 246.353 75.53 246.733 75.53C246.893 75.53 246.998 75.53 247.048 75.53C247.108 75.53 247.153 75.535 247.183 75.545V76.73C247.113 76.71 247.023 76.7 246.913 76.7C246.813 76.69 246.653 76.685 246.433 76.685C246.073 76.685 245.718 76.73 245.368 76.82C245.028 76.9 244.703 77.025 244.393 77.195V83ZM253.826 81.56V82.595C253.566 82.735 253.181 82.86 252.671 82.97C252.171 83.07 251.661 83.12 251.141 83.12C249.981 83.12 249.151 82.82 248.651 82.22C248.151 81.62 247.901 80.63 247.901 79.25C247.901 77.92 248.161 76.955 248.681 76.355C249.201 75.745 250.031 75.44 251.171 75.44C252.231 75.44 252.991 75.68 253.451 76.16C253.911 76.63 254.141 77.42 254.141 78.53C254.141 78.73 254.136 78.915 254.126 79.085C254.116 79.255 254.096 79.46 254.066 79.7H249.146C249.156 80.52 249.321 81.105 249.641 81.455C249.971 81.805 250.536 81.98 251.336 81.98C251.766 81.98 252.216 81.94 252.686 81.86C253.156 81.78 253.536 81.68 253.826 81.56ZM253.016 78.365C253.006 77.705 252.861 77.24 252.581 76.97C252.301 76.69 251.831 76.55 251.171 76.55C250.431 76.55 249.906 76.71 249.596 77.03C249.296 77.34 249.146 77.89 249.146 78.68H253.001C253.001 78.66 253.001 78.615 253.001 78.545C253.011 78.465 253.016 78.405 253.016 78.365ZM259.975 83.12C259.215 83.12 258.655 82.94 258.295 82.58C257.945 82.21 257.77 81.63 257.77 80.84C257.77 80.04 257.985 79.475 258.415 79.145C258.845 78.805 259.575 78.635 260.605 78.635C260.945 78.635 261.28 78.65 261.61 78.68C261.94 78.71 262.25 78.755 262.54 78.815V78.095C262.54 77.545 262.4 77.15 262.12 76.91C261.84 76.67 261.39 76.55 260.77 76.55C260.31 76.55 259.905 76.57 259.555 76.61C259.205 76.64 258.855 76.695 258.505 76.775V75.71C258.905 75.61 259.31 75.54 259.72 75.5C260.14 75.46 260.615 75.44 261.145 75.44C262.035 75.44 262.695 75.65 263.125 76.07C263.555 76.48 263.77 77.12 263.77 77.99V83H262.645L262.585 82.31H262.555C262.255 82.55 261.865 82.745 261.385 82.895C260.915 83.045 260.445 83.12 259.975 83.12ZM260.74 79.64C260.06 79.64 259.585 79.725 259.315 79.895C259.055 80.055 258.925 80.345 258.925 80.765C258.925 81.205 259.035 81.525 259.255 81.725C259.475 81.915 259.835 82.01 260.335 82.01C260.725 82.01 261.125 81.95 261.535 81.83C261.945 81.71 262.28 81.56 262.54 81.38V79.79C262.21 79.74 261.9 79.705 261.61 79.685C261.33 79.655 261.04 79.64 260.74 79.64ZM266.922 83H265.692V75.59H266.817L266.877 76.16H266.922C267.362 75.91 267.762 75.73 268.122 75.62C268.482 75.5 268.842 75.44 269.202 75.44C269.622 75.44 269.982 75.505 270.282 75.635C270.582 75.765 270.817 75.96 270.987 76.22H271.032C271.432 75.97 271.852 75.78 272.292 75.65C272.742 75.51 273.192 75.44 273.642 75.44C274.352 75.44 274.887 75.63 275.247 76.01C275.617 76.38 275.802 76.93 275.802 77.66V83H274.572V77.81C274.572 77.38 274.457 77.065 274.227 76.865C273.997 76.655 273.632 76.55 273.132 76.55C272.852 76.55 272.557 76.595 272.247 76.685C271.937 76.765 271.627 76.885 271.317 77.045C271.337 77.145 271.347 77.245 271.347 77.345C271.357 77.445 271.362 77.55 271.362 77.66V83H270.132V77.81C270.132 77.38 270.017 77.065 269.787 76.865C269.557 76.655 269.192 76.55 268.692 76.55C268.442 76.55 268.177 76.595 267.897 76.685C267.617 76.765 267.292 76.905 266.922 77.105V83ZM279.399 83.12C278.639 83.12 278.079 82.94 277.719 82.58C277.369 82.21 277.194 81.63 277.194 80.84C277.194 80.04 277.409 79.475 277.839 79.145C278.269 78.805 278.999 78.635 280.029 78.635C280.369 78.635 280.704 78.65 281.034 78.68C281.364 78.71 281.674 78.755 281.964 78.815V78.095C281.964 77.545 281.824 77.15 281.544 76.91C281.264 76.67 280.814 76.55 280.194 76.55C279.734 76.55 279.329 76.57 278.979 76.61C278.629 76.64 278.279 76.695 277.929 76.775V75.71C278.329 75.61 278.734 75.54 279.144 75.5C279.564 75.46 280.039 75.44 280.569 75.44C281.459 75.44 282.119 75.65 282.549 76.07C282.979 76.48 283.194 77.12 283.194 77.99V83H282.069L282.009 82.31H281.979C281.679 82.55 281.289 82.745 280.809 82.895C280.339 83.045 279.869 83.12 279.399 83.12ZM280.164 79.64C279.484 79.64 279.009 79.725 278.739 79.895C278.479 80.055 278.349 80.345 278.349 80.765C278.349 81.205 278.459 81.525 278.679 81.725C278.899 81.915 279.259 82.01 279.759 82.01C280.149 82.01 280.549 81.95 280.959 81.83C281.369 81.71 281.704 81.56 281.964 81.38V79.79C281.634 79.74 281.324 79.705 281.034 79.685C280.754 79.655 280.464 79.64 280.164 79.64ZM290.126 81.92V83H284.561V81.92L288.476 76.64H284.831V75.59H289.871V76.64L285.956 81.92H290.126ZM292.778 74.3H291.458V73.025H292.778V74.3ZM292.733 83H291.503V75.59H292.733V83ZM295.941 83H294.711V75.59H295.776L295.836 76.31H295.881C296.281 76.01 296.696 75.79 297.126 75.65C297.566 75.51 298.056 75.44 298.596 75.44C299.416 75.44 300.036 75.645 300.456 76.055C300.886 76.465 301.101 77.07 301.101 77.87V83H299.871V78.02C299.871 77.52 299.731 77.15 299.451 76.91C299.171 76.67 298.741 76.55 298.161 76.55C297.801 76.55 297.431 76.61 297.051 76.73C296.681 76.84 296.311 77.005 295.941 77.225V83ZM306.031 85.43C305.531 85.43 305.061 85.395 304.621 85.325C304.191 85.265 303.836 85.18 303.556 85.07V83.975C303.786 84.065 304.121 84.14 304.561 84.2C305.011 84.26 305.456 84.29 305.896 84.29C306.646 84.29 307.166 84.14 307.456 83.84C307.746 83.55 307.891 83.03 307.891 82.28V81.815C307.521 82.035 307.126 82.205 306.706 82.325C306.286 82.435 305.861 82.49 305.431 82.49C304.441 82.49 303.731 82.215 303.301 81.665C302.881 81.115 302.671 80.215 302.671 78.965C302.671 77.695 302.941 76.79 303.481 76.25C304.031 75.71 304.961 75.44 306.271 75.44C306.741 75.44 307.246 75.47 307.786 75.53C308.326 75.58 308.771 75.645 309.121 75.725V81.935C309.121 83.235 308.891 84.14 308.431 84.65C307.971 85.17 307.171 85.43 306.031 85.43ZM306.271 76.55C305.311 76.55 304.676 76.715 304.366 77.045C304.056 77.375 303.901 78.015 303.901 78.965C303.901 79.865 304.031 80.49 304.291 80.84C304.561 81.18 305.076 81.35 305.836 81.35C306.166 81.35 306.506 81.305 306.856 81.215C307.216 81.115 307.561 80.98 307.891 80.81V76.715C307.651 76.665 307.391 76.625 307.111 76.595C306.841 76.565 306.561 76.55 306.271 76.55ZM157.67 101.12C156.91 101.12 156.35 100.94 155.99 100.58C155.64 100.21 155.465 99.63 155.465 98.84C155.465 98.04 155.68 97.475 156.11 97.145C156.54 96.805 157.27 96.635 158.3 96.635C158.64 96.635 158.975 96.65 159.305 96.68C159.635 96.71 159.945 96.755 160.235 96.815V96.095C160.235 95.545 160.095 95.15 159.815 94.91C159.535 94.67 159.085 94.55 158.465 94.55C158.005 94.55 157.6 94.57 157.25 94.61C156.9 94.64 156.55 94.695 156.2 94.775V93.71C156.6 93.61 157.005 93.54 157.415 93.5C157.835 93.46 158.31 93.44 158.84 93.44C159.73 93.44 160.39 93.65 160.82 94.07C161.25 94.48 161.465 95.12 161.465 95.99V101H160.34L160.28 100.31H160.25C159.95 100.55 159.56 100.745 159.08 100.895C158.61 101.045 158.14 101.12 157.67 101.12ZM158.435 97.64C157.755 97.64 157.28 97.725 157.01 97.895C156.75 98.055 156.62 98.345 156.62 98.765C156.62 99.205 156.73 99.525 156.95 99.725C157.17 99.915 157.53 100.01 158.03 100.01C158.42 100.01 158.82 99.95 159.23 99.83C159.64 99.71 159.975 99.56 160.235 99.38V97.79C159.905 97.74 159.595 97.705 159.305 97.685C159.025 97.655 158.735 97.64 158.435 97.64ZM164.617 101H163.387V93.59H164.452L164.512 94.31H164.557C164.957 94.01 165.372 93.79 165.802 93.65C166.242 93.51 166.732 93.44 167.272 93.44C168.092 93.44 168.712 93.645 169.132 94.055C169.562 94.465 169.777 95.07 169.777 95.87V101H168.547V96.02C168.547 95.52 168.407 95.15 168.127 94.91C167.847 94.67 167.417 94.55 166.837 94.55C166.477 94.55 166.107 94.61 165.727 94.73C165.357 94.84 164.987 95.005 164.617 95.225V101ZM176.598 91.025H177.828V101H176.763L176.673 100.31H176.643C176.353 100.58 175.998 100.785 175.578 100.925C175.168 101.055 174.693 101.12 174.153 101.12C173.143 101.12 172.418 100.82 171.978 100.22C171.548 99.62 171.333 98.64 171.333 97.28C171.333 95.92 171.598 94.94 172.128 94.34C172.658 93.74 173.543 93.44 174.783 93.44C175.133 93.44 175.458 93.47 175.758 93.53C176.068 93.58 176.348 93.655 176.598 93.755V91.025ZM174.933 94.55C174.003 94.55 173.373 94.745 173.043 95.135C172.723 95.525 172.563 96.24 172.563 97.28C172.563 98.29 172.703 98.995 172.983 99.395C173.273 99.785 173.808 99.98 174.588 99.98C174.958 99.98 175.313 99.935 175.653 99.845C175.993 99.745 176.308 99.6 176.598 99.41V94.85C176.358 94.75 176.103 94.675 175.833 94.625C175.563 94.575 175.263 94.55 174.933 94.55ZM186.473 99.845V100.88C186.313 100.95 186.093 101.005 185.813 101.045C185.543 101.095 185.283 101.12 185.033 101.12C184.133 101.12 183.488 100.92 183.098 100.52C182.718 100.12 182.528 99.43 182.528 98.45V94.64H181.418V93.59H182.543L182.738 91.79H183.758V93.59H186.398V94.64H183.758V98.405C183.758 99.015 183.868 99.43 184.088 99.65C184.318 99.87 184.718 99.98 185.288 99.98C185.468 99.98 185.673 99.965 185.903 99.935C186.143 99.905 186.333 99.875 186.473 99.845ZM188.919 101H187.689V91.025H188.919V94.19C189.369 93.94 189.814 93.755 190.254 93.635C190.704 93.505 191.149 93.44 191.589 93.44C192.409 93.44 193.024 93.645 193.434 94.055C193.854 94.465 194.064 95.07 194.064 95.87V101H192.834V96.02C192.834 95.51 192.699 95.14 192.429 94.91C192.169 94.67 191.759 94.55 191.199 94.55C190.829 94.55 190.444 94.6 190.044 94.7C189.654 94.8 189.279 94.94 188.919 95.12V101ZM201.545 99.56V100.595C201.285 100.735 200.9 100.86 200.39 100.97C199.89 101.07 199.38 101.12 198.86 101.12C197.7 101.12 196.87 100.82 196.37 100.22C195.87 99.62 195.62 98.63 195.62 97.25C195.62 95.92 195.88 94.955 196.4 94.355C196.92 93.745 197.75 93.44 198.89 93.44C199.95 93.44 200.71 93.68 201.17 94.16C201.63 94.63 201.86 95.42 201.86 96.53C201.86 96.73 201.855 96.915 201.845 97.085C201.835 97.255 201.815 97.46 201.785 97.7H196.865C196.875 98.52 197.04 99.105 197.36 99.455C197.69 99.805 198.255 99.98 199.055 99.98C199.485 99.98 199.935 99.94 200.405 99.86C200.875 99.78 201.255 99.68 201.545 99.56ZM200.735 96.365C200.725 95.705 200.58 95.24 200.3 94.97C200.02 94.69 199.55 94.55 198.89 94.55C198.15 94.55 197.625 94.71 197.315 95.03C197.015 95.34 196.865 95.89 196.865 96.68H200.72C200.72 96.66 200.72 96.615 200.72 96.545C200.73 96.465 200.735 96.405 200.735 96.365ZM211.579 99.56V100.595C211.319 100.735 210.934 100.86 210.424 100.97C209.924 101.07 209.414 101.12 208.894 101.12C207.734 101.12 206.904 100.82 206.404 100.22C205.904 99.62 205.654 98.63 205.654 97.25C205.654 95.92 205.914 94.955 206.434 94.355C206.954 93.745 207.784 93.44 208.924 93.44C209.984 93.44 210.744 93.68 211.204 94.16C211.664 94.63 211.894 95.42 211.894 96.53C211.894 96.73 211.889 96.915 211.879 97.085C211.869 97.255 211.849 97.46 211.819 97.7H206.899C206.909 98.52 207.074 99.105 207.394 99.455C207.724 99.805 208.289 99.98 209.089 99.98C209.519 99.98 209.969 99.94 210.439 99.86C210.909 99.78 211.289 99.68 211.579 99.56ZM210.769 96.365C210.759 95.705 210.614 95.24 210.334 94.97C210.054 94.69 209.584 94.55 208.924 94.55C208.184 94.55 207.659 94.71 207.349 95.03C207.049 95.34 206.899 95.89 206.899 96.68H210.754C210.754 96.66 210.754 96.615 210.754 96.545C210.764 96.465 210.769 96.405 210.769 96.365ZM214.715 101H213.485V93.59H214.55L214.61 94.31H214.655C215.055 94.01 215.47 93.79 215.9 93.65C216.34 93.51 216.83 93.44 217.37 93.44C218.19 93.44 218.81 93.645 219.23 94.055C219.66 94.465 219.875 95.07 219.875 95.87V101H218.645V96.02C218.645 95.52 218.505 95.15 218.225 94.91C217.945 94.67 217.515 94.55 216.935 94.55C216.575 94.55 216.205 94.61 215.825 94.73C215.455 94.84 215.085 95.005 214.715 95.225V101ZM226.053 99.845V100.88C225.893 100.95 225.673 101.005 225.393 101.045C225.123 101.095 224.863 101.12 224.613 101.12C223.713 101.12 223.068 100.92 222.678 100.52C222.298 100.12 222.108 99.43 222.108 98.45V94.64H220.998V93.59H222.123L222.318 91.79H223.338V93.59H225.978V94.64H223.338V98.405C223.338 99.015 223.448 99.43 223.668 99.65C223.898 99.87 224.298 99.98 224.868 99.98C225.048 99.98 225.253 99.965 225.483 99.935C225.723 99.905 225.913 99.875 226.053 99.845ZM228.544 92.3H227.224V91.025H228.544V92.3ZM228.499 101H227.269V93.59H228.499V101ZM231.707 101H230.477V93.59H231.602L231.662 94.22H231.722C232.112 93.99 232.502 93.82 232.892 93.71C233.282 93.59 233.667 93.53 234.047 93.53C234.207 93.53 234.312 93.53 234.362 93.53C234.422 93.53 234.467 93.535 234.497 93.545V94.73C234.427 94.71 234.337 94.7 234.227 94.7C234.127 94.69 233.967 94.685 233.747 94.685C233.387 94.685 233.032 94.73 232.682 94.82C232.342 94.9 232.017 95.025 231.707 95.195V101ZM241.14 99.56V100.595C240.88 100.735 240.495 100.86 239.985 100.97C239.485 101.07 238.975 101.12 238.455 101.12C237.295 101.12 236.465 100.82 235.965 100.22C235.465 99.62 235.215 98.63 235.215 97.25C235.215 95.92 235.475 94.955 235.995 94.355C236.515 93.745 237.345 93.44 238.485 93.44C239.545 93.44 240.305 93.68 240.765 94.16C241.225 94.63 241.455 95.42 241.455 96.53C241.455 96.73 241.45 96.915 241.44 97.085C241.43 97.255 241.41 97.46 241.38 97.7H236.46C236.47 98.52 236.635 99.105 236.955 99.455C237.285 99.805 237.85 99.98 238.65 99.98C239.08 99.98 239.53 99.94 240 99.86C240.47 99.78 240.85 99.68 241.14 99.56ZM240.33 96.365C240.32 95.705 240.175 95.24 239.895 94.97C239.615 94.69 239.145 94.55 238.485 94.55C237.745 94.55 237.22 94.71 236.91 95.03C236.61 95.34 236.46 95.89 236.46 96.68H240.315C240.315 96.66 240.315 96.615 240.315 96.545C240.325 96.465 240.33 96.405 240.33 96.365ZM251.849 97.25V91.595H253.124V97.25C253.124 98.57 252.814 99.545 252.194 100.175C251.584 100.805 250.634 101.12 249.344 101.12C248.044 101.12 247.094 100.815 246.494 100.205C245.904 99.585 245.609 98.6 245.609 97.25V91.595H246.884V97.25C246.884 98.24 247.064 98.935 247.424 99.335C247.794 99.725 248.434 99.92 249.344 99.92C250.264 99.92 250.909 99.725 251.279 99.335C251.659 98.935 251.849 98.24 251.849 97.25ZM256.466 91.595V101H255.191V91.595H256.466ZM267.603 97.28C267.603 98.68 267.343 99.67 266.823 100.25C266.313 100.83 265.433 101.12 264.183 101.12C262.893 101.12 261.998 100.84 261.498 100.28C260.998 99.72 260.748 98.72 260.748 97.28C260.748 95.87 261.003 94.88 261.513 94.31C262.033 93.73 262.923 93.44 264.183 93.44C265.473 93.44 266.363 93.72 266.853 94.28C267.353 94.84 267.603 95.84 267.603 97.28ZM261.978 97.265C261.978 98.365 262.123 99.095 262.413 99.455C262.703 99.805 263.293 99.98 264.183 99.98C265.043 99.98 265.623 99.795 265.923 99.425C266.223 99.045 266.373 98.325 266.373 97.265C266.373 96.165 266.228 95.44 265.938 95.09C265.658 94.73 265.073 94.55 264.183 94.55C263.313 94.55 262.728 94.735 262.428 95.105C262.128 95.475 261.978 96.195 261.978 97.265ZM269.584 94.64H268.474V93.59H269.584V93.41C269.584 92.55 269.794 91.915 270.214 91.505C270.634 91.085 271.279 90.875 272.149 90.875C272.369 90.875 272.589 90.885 272.809 90.905C273.029 90.925 273.234 90.955 273.424 90.995V92.045C273.304 92.015 273.139 91.995 272.929 91.985C272.729 91.965 272.529 91.955 272.329 91.955C271.759 91.955 271.364 92.06 271.144 92.27C270.924 92.47 270.814 92.84 270.814 93.38V93.59H273.199V94.64H270.814V101H269.584V94.64ZM280.779 99.845V100.88C280.619 100.95 280.399 101.005 280.119 101.045C279.849 101.095 279.589 101.12 279.339 101.12C278.439 101.12 277.794 100.92 277.404 100.52C277.024 100.12 276.834 99.43 276.834 98.45V94.64H275.724V93.59H276.849L277.044 91.79H278.064V93.59H280.704V94.64H278.064V98.405C278.064 99.015 278.174 99.43 278.394 99.65C278.624 99.87 279.024 99.98 279.594 99.98C279.774 99.98 279.979 99.965 280.209 99.935C280.449 99.905 280.639 99.875 280.779 99.845ZM283.226 101H281.996V91.025H283.226V94.19C283.676 93.94 284.121 93.755 284.561 93.635C285.011 93.505 285.456 93.44 285.896 93.44C286.716 93.44 287.331 93.645 287.741 94.055C288.161 94.465 288.371 95.07 288.371 95.87V101H287.141V96.02C287.141 95.51 287.006 95.14 286.736 94.91C286.476 94.67 286.066 94.55 285.506 94.55C285.136 94.55 284.751 94.6 284.351 94.7C283.961 94.8 283.586 94.94 283.226 95.12V101ZM295.852 99.56V100.595C295.592 100.735 295.207 100.86 294.697 100.97C294.197 101.07 293.687 101.12 293.167 101.12C292.007 101.12 291.177 100.82 290.677 100.22C290.177 99.62 289.927 98.63 289.927 97.25C289.927 95.92 290.187 94.955 290.707 94.355C291.227 93.745 292.057 93.44 293.197 93.44C294.257 93.44 295.017 93.68 295.477 94.16C295.937 94.63 296.167 95.42 296.167 96.53C296.167 96.73 296.162 96.915 296.152 97.085C296.142 97.255 296.122 97.46 296.092 97.7H291.172C291.182 98.52 291.347 99.105 291.667 99.455C291.997 99.805 292.562 99.98 293.362 99.98C293.792 99.98 294.242 99.94 294.712 99.86C295.182 99.78 295.562 99.68 295.852 99.56ZM295.042 96.365C295.032 95.705 294.887 95.24 294.607 94.97C294.327 94.69 293.857 94.55 293.197 94.55C292.457 94.55 291.932 94.71 291.622 95.03C291.322 95.34 291.172 95.89 291.172 96.68H295.027C295.027 96.66 295.027 96.615 295.027 96.545C295.037 96.465 295.042 96.405 295.042 96.365ZM164.045 111.59H165.38L163.325 119H161.885L160.265 113.225L158.75 119H157.31L155.255 111.59H156.605L158.045 117.845L159.65 111.59H160.88L162.59 117.845L164.045 111.59ZM172.117 117.56V118.595C171.857 118.735 171.472 118.86 170.962 118.97C170.462 119.07 169.952 119.12 169.432 119.12C168.272 119.12 167.442 118.82 166.942 118.22C166.442 117.62 166.192 116.63 166.192 115.25C166.192 113.92 166.452 112.955 166.972 112.355C167.492 111.745 168.322 111.44 169.462 111.44C170.522 111.44 171.282 111.68 171.742 112.16C172.202 112.63 172.432 113.42 172.432 114.53C172.432 114.73 172.427 114.915 172.417 115.085C172.407 115.255 172.387 115.46 172.357 115.7H167.437C167.447 116.52 167.612 117.105 167.932 117.455C168.262 117.805 168.827 117.98 169.627 117.98C170.057 117.98 170.507 117.94 170.977 117.86C171.447 117.78 171.827 117.68 172.117 117.56ZM171.307 114.365C171.297 113.705 171.152 113.24 170.872 112.97C170.592 112.69 170.122 112.55 169.462 112.55C168.722 112.55 168.197 112.71 167.887 113.03C167.587 113.34 167.437 113.89 167.437 114.68H171.292C171.292 114.66 171.292 114.615 171.292 114.545C171.302 114.465 171.307 114.405 171.307 114.365ZM177.682 111.44C178.692 111.44 179.412 111.74 179.842 112.34C180.282 112.93 180.502 113.9 180.502 115.25C180.502 116.63 180.232 117.62 179.692 118.22C179.152 118.82 178.247 119.12 176.977 119.12C176.407 119.12 175.872 119.085 175.372 119.015C174.872 118.955 174.417 118.86 174.007 118.73V109.025H175.237V112.1C175.587 111.89 175.972 111.73 176.392 111.62C176.812 111.5 177.242 111.44 177.682 111.44ZM179.272 115.25C179.272 114.24 179.127 113.54 178.837 113.15C178.557 112.75 178.027 112.55 177.247 112.55C176.887 112.55 176.532 112.6 176.182 112.7C175.832 112.79 175.517 112.92 175.237 113.09V117.785C175.457 117.845 175.707 117.895 175.987 117.935C176.267 117.965 176.572 117.98 176.902 117.98C177.832 117.98 178.457 117.785 178.777 117.395C179.107 117.005 179.272 116.29 179.272 115.25ZM184.673 112.55C184.033 112.55 183.588 112.625 183.338 112.775C183.098 112.925 182.978 113.23 182.978 113.69C182.978 113.93 183.033 114.115 183.143 114.245C183.263 114.365 183.448 114.445 183.698 114.485L185.603 114.77C186.203 114.86 186.623 115.05 186.863 115.34C187.103 115.62 187.223 116.065 187.223 116.675C187.223 117.535 187.018 118.16 186.608 118.55C186.198 118.93 185.518 119.12 184.568 119.12C183.998 119.12 183.468 119.09 182.978 119.03C182.488 118.97 182.083 118.89 181.763 118.79V117.635C182.083 117.735 182.473 117.82 182.933 117.89C183.403 117.95 183.883 117.98 184.373 117.98C184.993 117.98 185.418 117.89 185.648 117.71C185.878 117.53 185.993 117.21 185.993 116.75C185.993 116.46 185.928 116.25 185.798 116.12C185.668 115.98 185.433 115.885 185.093 115.835L183.188 115.55C182.708 115.48 182.348 115.295 182.108 114.995C181.878 114.695 181.758 114.26 181.748 113.69C181.748 112.91 181.978 112.34 182.438 111.98C182.908 111.62 183.628 111.44 184.598 111.44C184.998 111.44 185.358 111.45 185.678 111.47C186.008 111.49 186.353 111.53 186.713 111.59V112.685C186.453 112.645 186.148 112.615 185.798 112.595C185.448 112.565 185.073 112.55 184.673 112.55ZM189.99 110.3H188.67V109.025H189.99V110.3ZM189.945 119H188.715V111.59H189.945V119ZM196.273 117.845V118.88C196.113 118.95 195.893 119.005 195.613 119.045C195.343 119.095 195.083 119.12 194.833 119.12C193.933 119.12 193.288 118.92 192.898 118.52C192.518 118.12 192.328 117.43 192.328 116.45V112.64H191.218V111.59H192.343L192.538 109.79H193.558V111.59H196.198V112.64H193.558V116.405C193.558 117.015 193.668 117.43 193.888 117.65C194.118 117.87 194.518 117.98 195.088 117.98C195.268 117.98 195.473 117.965 195.703 117.935C195.943 117.905 196.133 117.875 196.273 117.845ZM202.966 117.56V118.595C202.706 118.735 202.321 118.86 201.811 118.97C201.311 119.07 200.801 119.12 200.281 119.12C199.121 119.12 198.291 118.82 197.791 118.22C197.291 117.62 197.041 116.63 197.041 115.25C197.041 113.92 197.301 112.955 197.821 112.355C198.341 111.745 199.171 111.44 200.311 111.44C201.371 111.44 202.131 111.68 202.591 112.16C203.051 112.63 203.281 113.42 203.281 114.53C203.281 114.73 203.276 114.915 203.266 115.085C203.256 115.255 203.236 115.46 203.206 115.7H198.286C198.296 116.52 198.461 117.105 198.781 117.455C199.111 117.805 199.676 117.98 200.476 117.98C200.906 117.98 201.356 117.94 201.826 117.86C202.296 117.78 202.676 117.68 202.966 117.56ZM202.156 114.365C202.146 113.705 202.001 113.24 201.721 112.97C201.441 112.69 200.971 112.55 200.311 112.55C199.571 112.55 199.046 112.71 198.736 113.03C198.436 113.34 198.286 113.89 198.286 114.68H202.141C202.141 114.66 202.141 114.615 202.141 114.545C202.151 114.465 202.156 114.405 202.156 114.365ZM208.71 110.3H207.39V109.025H208.71V110.3ZM208.665 119H207.435V111.59H208.665V119ZM213.193 112.55C212.553 112.55 212.108 112.625 211.858 112.775C211.618 112.925 211.498 113.23 211.498 113.69C211.498 113.93 211.553 114.115 211.663 114.245C211.783 114.365 211.968 114.445 212.218 114.485L214.123 114.77C214.723 114.86 215.143 115.05 215.383 115.34C215.623 115.62 215.743 116.065 215.743 116.675C215.743 117.535 215.538 118.16 215.128 118.55C214.718 118.93 214.038 119.12 213.088 119.12C212.518 119.12 211.988 119.09 211.498 119.03C211.008 118.97 210.603 118.89 210.283 118.79V117.635C210.603 117.735 210.993 117.82 211.453 117.89C211.923 117.95 212.403 117.98 212.893 117.98C213.513 117.98 213.938 117.89 214.168 117.71C214.398 117.53 214.513 117.21 214.513 116.75C214.513 116.46 214.448 116.25 214.318 116.12C214.188 115.98 213.953 115.885 213.613 115.835L211.708 115.55C211.228 115.48 210.868 115.295 210.628 114.995C210.398 114.695 210.278 114.26 210.268 113.69C210.268 112.91 210.498 112.34 210.958 111.98C211.428 111.62 212.148 111.44 213.118 111.44C213.518 111.44 213.878 111.45 214.198 111.47C214.528 111.49 214.873 111.53 215.233 111.59V112.685C214.973 112.645 214.668 112.615 214.318 112.595C213.968 112.565 213.593 112.55 213.193 112.55ZM221.029 119H219.799V111.59H220.864L220.924 112.31H220.969C221.369 112.01 221.784 111.79 222.214 111.65C222.654 111.51 223.144 111.44 223.684 111.44C224.504 111.44 225.124 111.645 225.544 112.055C225.974 112.465 226.189 113.07 226.189 113.87V119H224.959V114.02C224.959 113.52 224.819 113.15 224.539 112.91C224.259 112.67 223.829 112.55 223.249 112.55C222.889 112.55 222.519 112.61 222.139 112.73C221.769 112.84 221.399 113.005 221.029 113.225V119ZM233.669 117.56V118.595C233.409 118.735 233.024 118.86 232.514 118.97C232.014 119.07 231.504 119.12 230.984 119.12C229.824 119.12 228.994 118.82 228.494 118.22C227.994 117.62 227.744 116.63 227.744 115.25C227.744 113.92 228.004 112.955 228.524 112.355C229.044 111.745 229.874 111.44 231.014 111.44C232.074 111.44 232.834 111.68 233.294 112.16C233.754 112.63 233.984 113.42 233.984 114.53C233.984 114.73 233.979 114.915 233.969 115.085C233.959 115.255 233.939 115.46 233.909 115.7H228.989C228.999 116.52 229.164 117.105 229.484 117.455C229.814 117.805 230.379 117.98 231.179 117.98C231.609 117.98 232.059 117.94 232.529 117.86C232.999 117.78 233.379 117.68 233.669 117.56ZM232.859 114.365C232.849 113.705 232.704 113.24 232.424 112.97C232.144 112.69 231.674 112.55 231.014 112.55C230.274 112.55 229.749 112.71 229.439 113.03C229.139 113.34 228.989 113.89 228.989 114.68H232.844C232.844 114.66 232.844 114.615 232.844 114.545C232.854 114.465 232.859 114.405 232.859 114.365ZM243.557 111.59H244.892L242.837 119H241.397L239.777 113.225L238.262 119H236.822L234.767 111.59H236.117L237.557 117.845L239.162 111.59H240.392L242.102 117.845L243.557 111.59ZM249.696 109.025V119H248.466V109.025H249.696ZM257.239 117.56V118.595C256.979 118.735 256.594 118.86 256.084 118.97C255.584 119.07 255.074 119.12 254.554 119.12C253.394 119.12 252.564 118.82 252.064 118.22C251.564 117.62 251.314 116.63 251.314 115.25C251.314 113.92 251.574 112.955 252.094 112.355C252.614 111.745 253.444 111.44 254.584 111.44C255.644 111.44 256.404 111.68 256.864 112.16C257.324 112.63 257.554 113.42 257.554 114.53C257.554 114.73 257.549 114.915 257.539 115.085C257.529 115.255 257.509 115.46 257.479 115.7H252.559C252.569 116.52 252.734 117.105 253.054 117.455C253.384 117.805 253.949 117.98 254.749 117.98C255.179 117.98 255.629 117.94 256.099 117.86C256.569 117.78 256.949 117.68 257.239 117.56ZM256.429 114.365C256.419 113.705 256.274 113.24 255.994 112.97C255.714 112.69 255.244 112.55 254.584 112.55C253.844 112.55 253.319 112.71 253.009 113.03C252.709 113.34 252.559 113.89 252.559 114.68H256.414C256.414 114.66 256.414 114.615 256.414 114.545C256.424 114.465 256.429 114.405 256.429 114.365ZM263.976 111.59H265.326L262.476 119H261.066L258.216 111.59H259.581L261.786 117.875L263.976 111.59ZM271.887 117.56V118.595C271.627 118.735 271.242 118.86 270.732 118.97C270.232 119.07 269.722 119.12 269.202 119.12C268.042 119.12 267.212 118.82 266.712 118.22C266.212 117.62 265.962 116.63 265.962 115.25C265.962 113.92 266.222 112.955 266.742 112.355C267.262 111.745 268.092 111.44 269.232 111.44C270.292 111.44 271.052 111.68 271.512 112.16C271.972 112.63 272.202 113.42 272.202 114.53C272.202 114.73 272.197 114.915 272.187 115.085C272.177 115.255 272.157 115.46 272.127 115.7H267.207C267.217 116.52 267.382 117.105 267.702 117.455C268.032 117.805 268.597 117.98 269.397 117.98C269.827 117.98 270.277 117.94 270.747 117.86C271.217 117.78 271.597 117.68 271.887 117.56ZM271.077 114.365C271.067 113.705 270.922 113.24 270.642 112.97C270.362 112.69 269.892 112.55 269.232 112.55C268.492 112.55 267.967 112.71 267.657 113.03C267.357 113.34 267.207 113.89 267.207 114.68H271.062C271.062 114.66 271.062 114.615 271.062 114.545C271.072 114.465 271.077 114.405 271.077 114.365ZM275.023 109.025V119H273.793V109.025H275.023ZM277.931 119H276.701V117.755H277.931V119ZM157.355 137H156.08V127.595H157.355V131.645H162.275V127.595H163.55V137H162.275V132.815H157.355V137ZM167.294 137.12C166.534 137.12 165.974 136.94 165.614 136.58C165.264 136.21 165.089 135.63 165.089 134.84C165.089 134.04 165.304 133.475 165.734 133.145C166.164 132.805 166.894 132.635 167.924 132.635C168.264 132.635 168.599 132.65 168.929 132.68C169.259 132.71 169.569 132.755 169.859 132.815V132.095C169.859 131.545 169.719 131.15 169.439 130.91C169.159 130.67 168.709 130.55 168.089 130.55C167.629 130.55 167.224 130.57 166.874 130.61C166.524 130.64 166.174 130.695 165.824 130.775V129.71C166.224 129.61 166.629 129.54 167.039 129.5C167.459 129.46 167.934 129.44 168.464 129.44C169.354 129.44 170.014 129.65 170.444 130.07C170.874 130.48 171.089 131.12 171.089 131.99V137H169.964L169.904 136.31H169.874C169.574 136.55 169.184 136.745 168.704 136.895C168.234 137.045 167.764 137.12 167.294 137.12ZM168.059 133.64C167.379 133.64 166.904 133.725 166.634 133.895C166.374 134.055 166.244 134.345 166.244 134.765C166.244 135.205 166.354 135.525 166.574 135.725C166.794 135.915 167.154 136.01 167.654 136.01C168.044 136.01 168.444 135.95 168.854 135.83C169.264 135.71 169.599 135.56 169.859 135.38V133.79C169.529 133.74 169.219 133.705 168.929 133.685C168.649 133.655 168.359 133.64 168.059 133.64ZM174.241 139.28H173.011V129.59H174.076L174.151 130.25H174.196C174.506 129.99 174.876 129.79 175.306 129.65C175.736 129.51 176.196 129.44 176.686 129.44C177.696 129.44 178.416 129.74 178.846 130.34C179.286 130.94 179.506 131.92 179.506 133.28C179.506 134.64 179.241 135.62 178.711 136.22C178.181 136.82 177.296 137.12 176.056 137.12C175.686 137.12 175.346 137.095 175.036 137.045C174.736 136.995 174.471 136.92 174.241 136.82V139.28ZM178.276 133.28C178.276 132.26 178.131 131.55 177.841 131.15C177.561 130.75 177.031 130.55 176.251 130.55C175.881 130.55 175.526 130.605 175.186 130.715C174.856 130.815 174.541 130.965 174.241 131.165V135.68C174.491 135.78 174.746 135.855 175.006 135.905C175.276 135.955 175.576 135.98 175.906 135.98C176.836 135.98 177.461 135.79 177.781 135.41C178.111 135.02 178.276 134.31 178.276 133.28ZM182.357 139.28H181.127V129.59H182.192L182.267 130.25H182.312C182.622 129.99 182.992 129.79 183.422 129.65C183.852 129.51 184.312 129.44 184.802 129.44C185.812 129.44 186.532 129.74 186.962 130.34C187.402 130.94 187.622 131.92 187.622 133.28C187.622 134.64 187.357 135.62 186.827 136.22C186.297 136.82 185.412 137.12 184.172 137.12C183.802 137.12 183.462 137.095 183.152 137.045C182.852 136.995 182.587 136.92 182.357 136.82V139.28ZM186.392 133.28C186.392 132.26 186.247 131.55 185.957 131.15C185.677 130.75 185.147 130.55 184.367 130.55C183.997 130.55 183.642 130.605 183.302 130.715C182.972 130.815 182.657 130.965 182.357 131.165V135.68C182.607 135.78 182.862 135.855 183.122 135.905C183.392 135.955 183.692 135.98 184.022 135.98C184.952 135.98 185.577 135.79 185.897 135.41C186.227 135.02 186.392 134.31 186.392 133.28ZM190.517 128.3H189.197V127.025H190.517V128.3ZM190.472 137H189.242V129.59H190.472V137ZM193.68 127.025V137H192.45V127.025H193.68ZM196.333 138.32C196.713 138.32 196.998 138.235 197.188 138.065C197.388 137.905 197.598 137.515 197.818 136.895L194.788 129.59H196.168L198.448 135.665L200.608 129.59H201.928L198.898 137.495C198.628 138.215 198.313 138.715 197.953 138.995C197.593 139.285 197.128 139.43 196.558 139.43C196.388 139.43 196.208 139.42 196.018 139.4C195.838 139.38 195.658 139.355 195.478 139.325V138.245C195.588 138.275 195.708 138.295 195.838 138.305C195.978 138.315 196.143 138.32 196.333 138.32ZM207.905 130.55C207.265 130.55 206.82 130.625 206.57 130.775C206.33 130.925 206.21 131.23 206.21 131.69C206.21 131.93 206.265 132.115 206.375 132.245C206.495 132.365 206.68 132.445 206.93 132.485L208.835 132.77C209.435 132.86 209.855 133.05 210.095 133.34C210.335 133.62 210.455 134.065 210.455 134.675C210.455 135.535 210.25 136.16 209.84 136.55C209.43 136.93 208.75 137.12 207.8 137.12C207.23 137.12 206.7 137.09 206.21 137.03C205.72 136.97 205.315 136.89 204.995 136.79V135.635C205.315 135.735 205.705 135.82 206.165 135.89C206.635 135.95 207.115 135.98 207.605 135.98C208.225 135.98 208.65 135.89 208.88 135.71C209.11 135.53 209.225 135.21 209.225 134.75C209.225 134.46 209.16 134.25 209.03 134.12C208.9 133.98 208.665 133.885 208.325 133.835L206.42 133.55C205.94 133.48 205.58 133.295 205.34 132.995C205.11 132.695 204.99 132.26 204.98 131.69C204.98 130.91 205.21 130.34 205.67 129.98C206.14 129.62 206.86 129.44 207.83 129.44C208.23 129.44 208.59 129.45 208.91 129.47C209.24 129.49 209.585 129.53 209.945 129.59V130.685C209.685 130.645 209.38 130.615 209.03 130.595C208.68 130.565 208.305 130.55 207.905 130.55ZM213.627 137.12C212.867 137.12 212.307 136.94 211.947 136.58C211.597 136.21 211.422 135.63 211.422 134.84C211.422 134.04 211.637 133.475 212.067 133.145C212.497 132.805 213.227 132.635 214.257 132.635C214.597 132.635 214.932 132.65 215.262 132.68C215.592 132.71 215.902 132.755 216.192 132.815V132.095C216.192 131.545 216.052 131.15 215.772 130.91C215.492 130.67 215.042 130.55 214.422 130.55C213.962 130.55 213.557 130.57 213.207 130.61C212.857 130.64 212.507 130.695 212.157 130.775V129.71C212.557 129.61 212.962 129.54 213.372 129.5C213.792 129.46 214.267 129.44 214.797 129.44C215.687 129.44 216.347 129.65 216.777 130.07C217.207 130.48 217.422 131.12 217.422 131.99V137H216.297L216.237 136.31H216.207C215.907 136.55 215.517 136.745 215.037 136.895C214.567 137.045 214.097 137.12 213.627 137.12ZM214.392 133.64C213.712 133.64 213.237 133.725 212.967 133.895C212.707 134.055 212.577 134.345 212.577 134.765C212.577 135.205 212.687 135.525 212.907 135.725C213.127 135.915 213.487 136.01 213.987 136.01C214.377 136.01 214.777 135.95 215.187 135.83C215.597 135.71 215.932 135.56 216.192 135.38V133.79C215.862 133.74 215.552 133.705 215.262 133.685C214.982 133.655 214.692 133.64 214.392 133.64ZM223.607 135.845V136.88C223.447 136.95 223.227 137.005 222.947 137.045C222.677 137.095 222.417 137.12 222.167 137.12C221.267 137.12 220.622 136.92 220.232 136.52C219.852 136.12 219.662 135.43 219.662 134.45V130.64H218.552V129.59H219.677L219.872 127.79H220.892V129.59H223.532V130.64H220.892V134.405C220.892 135.015 221.002 135.43 221.222 135.65C221.452 135.87 221.852 135.98 222.422 135.98C222.602 135.98 222.807 135.965 223.037 135.935C223.277 135.905 223.467 135.875 223.607 135.845ZM226.098 128.3H224.778V127.025H226.098V128.3ZM226.053 137H224.823V129.59H226.053V137ZM230.581 130.55C229.941 130.55 229.496 130.625 229.246 130.775C229.006 130.925 228.886 131.23 228.886 131.69C228.886 131.93 228.941 132.115 229.051 132.245C229.171 132.365 229.356 132.445 229.606 132.485L231.511 132.77C232.111 132.86 232.531 133.05 232.771 133.34C233.011 133.62 233.131 134.065 233.131 134.675C233.131 135.535 232.926 136.16 232.516 136.55C232.106 136.93 231.426 137.12 230.476 137.12C229.906 137.12 229.376 137.09 228.886 137.03C228.396 136.97 227.991 136.89 227.671 136.79V135.635C227.991 135.735 228.381 135.82 228.841 135.89C229.311 135.95 229.791 135.98 230.281 135.98C230.901 135.98 231.326 135.89 231.556 135.71C231.786 135.53 231.901 135.21 231.901 134.75C231.901 134.46 231.836 134.25 231.706 134.12C231.576 133.98 231.341 133.885 231.001 133.835L229.096 133.55C228.616 133.48 228.256 133.295 228.016 132.995C227.786 132.695 227.666 132.26 227.656 131.69C227.656 130.91 227.886 130.34 228.346 129.98C228.816 129.62 229.536 129.44 230.506 129.44C230.906 129.44 231.266 129.45 231.586 129.47C231.916 129.49 232.261 129.53 232.621 129.59V130.685C232.361 130.645 232.056 130.615 231.706 130.595C231.356 130.565 230.981 130.55 230.581 130.55ZM234.985 130.64H233.875V129.59H234.985V129.41C234.985 128.55 235.175 127.915 235.555 127.505C235.935 127.085 236.51 126.875 237.28 126.875C237.46 126.875 237.63 126.885 237.79 126.905C237.96 126.915 238.15 126.945 238.36 126.995V128.045C238.25 128.015 238.115 127.995 237.955 127.985C237.805 127.965 237.655 127.955 237.505 127.955C237.035 127.955 236.7 128.06 236.5 128.27C236.31 128.48 236.215 128.85 236.215 129.38V129.59H238.135V130.64H236.215V137H234.985V130.64ZM240.985 128.3H239.665V127.025H240.985V128.3ZM240.94 137H239.71V129.59H240.94V137ZM248.479 135.56V136.595C248.219 136.735 247.834 136.86 247.324 136.97C246.824 137.07 246.314 137.12 245.794 137.12C244.634 137.12 243.804 136.82 243.304 136.22C242.804 135.62 242.554 134.63 242.554 133.25C242.554 131.92 242.814 130.955 243.334 130.355C243.854 129.745 244.684 129.44 245.824 129.44C246.884 129.44 247.644 129.68 248.104 130.16C248.564 130.63 248.794 131.42 248.794 132.53C248.794 132.73 248.789 132.915 248.779 133.085C248.769 133.255 248.749 133.46 248.719 133.7H243.799C243.809 134.52 243.974 135.105 244.294 135.455C244.624 135.805 245.189 135.98 245.989 135.98C246.419 135.98 246.869 135.94 247.339 135.86C247.809 135.78 248.189 135.68 248.479 135.56ZM247.669 132.365C247.659 131.705 247.514 131.24 247.234 130.97C246.954 130.69 246.484 130.55 245.824 130.55C245.084 130.55 244.559 130.71 244.249 131.03C243.949 131.34 243.799 131.89 243.799 132.68H247.654C247.654 132.66 247.654 132.615 247.654 132.545C247.664 132.465 247.669 132.405 247.669 132.365ZM255.29 127.025H256.52V137H255.455L255.365 136.31H255.335C255.045 136.58 254.69 136.785 254.27 136.925C253.86 137.055 253.385 137.12 252.845 137.12C251.835 137.12 251.11 136.82 250.67 136.22C250.24 135.62 250.025 134.64 250.025 133.28C250.025 131.92 250.29 130.94 250.82 130.34C251.35 129.74 252.235 129.44 253.475 129.44C253.825 129.44 254.15 129.47 254.45 129.53C254.76 129.58 255.04 129.655 255.29 129.755V127.025ZM253.625 130.55C252.695 130.55 252.065 130.745 251.735 131.135C251.415 131.525 251.255 132.24 251.255 133.28C251.255 134.29 251.395 134.995 251.675 135.395C251.965 135.785 252.5 135.98 253.28 135.98C253.65 135.98 254.005 135.935 254.345 135.845C254.685 135.745 255 135.6 255.29 135.41V130.85C255.05 130.75 254.795 130.675 254.525 130.625C254.255 130.575 253.955 130.55 253.625 130.55ZM268.884 129.59H270.219L268.164 137H266.724L265.104 131.225L263.589 137H262.149L260.094 129.59H261.444L262.884 135.845L264.489 129.59H265.719L267.429 135.845L268.884 129.59ZM272.739 128.3H271.419V127.025H272.739V128.3ZM272.694 137H271.464V129.59H272.694V137ZM279.022 135.845V136.88C278.862 136.95 278.642 137.005 278.362 137.045C278.092 137.095 277.832 137.12 277.582 137.12C276.682 137.12 276.037 136.92 275.647 136.52C275.267 136.12 275.077 135.43 275.077 134.45V130.64H273.967V129.59H275.092L275.287 127.79H276.307V129.59H278.947V130.64H276.307V134.405C276.307 135.015 276.417 135.43 276.637 135.65C276.867 135.87 277.267 135.98 277.837 135.98C278.017 135.98 278.222 135.965 278.452 135.935C278.692 135.905 278.882 135.875 279.022 135.845ZM281.468 137H280.238V127.025H281.468V130.19C281.918 129.94 282.363 129.755 282.803 129.635C283.253 129.505 283.698 129.44 284.138 129.44C284.958 129.44 285.573 129.645 285.983 130.055C286.403 130.465 286.613 131.07 286.613 131.87V137H285.383V132.02C285.383 131.51 285.248 131.14 284.978 130.91C284.718 130.67 284.308 130.55 283.748 130.55C283.378 130.55 282.993 130.6 282.593 130.7C282.203 130.8 281.828 130.94 281.468 131.12V137ZM295.194 135.845V136.88C295.034 136.95 294.814 137.005 294.534 137.045C294.264 137.095 294.004 137.12 293.754 137.12C292.854 137.12 292.209 136.92 291.819 136.52C291.439 136.12 291.249 135.43 291.249 134.45V130.64H290.139V129.59H291.264L291.459 127.79H292.479V129.59H295.119V130.64H292.479V134.405C292.479 135.015 292.589 135.43 292.809 135.65C293.039 135.87 293.439 135.98 294.009 135.98C294.189 135.98 294.394 135.965 294.624 135.935C294.864 135.905 295.054 135.875 295.194 135.845ZM297.64 137H296.41V127.025H297.64V130.19C298.09 129.94 298.535 129.755 298.975 129.635C299.425 129.505 299.87 129.44 300.31 129.44C301.13 129.44 301.745 129.645 302.155 130.055C302.575 130.465 302.785 131.07 302.785 131.87V137H301.555V132.02C301.555 131.51 301.42 131.14 301.15 130.91C300.89 130.67 300.48 130.55 299.92 130.55C299.55 130.55 299.165 130.6 298.765 130.7C298.375 130.8 298 130.94 297.64 131.12V137ZM310.266 135.56V136.595C310.006 136.735 309.621 136.86 309.111 136.97C308.611 137.07 308.101 137.12 307.581 137.12C306.421 137.12 305.591 136.82 305.091 136.22C304.591 135.62 304.341 134.63 304.341 133.25C304.341 131.92 304.601 130.955 305.121 130.355C305.641 129.745 306.471 129.44 307.611 129.44C308.671 129.44 309.431 129.68 309.891 130.16C310.351 130.63 310.581 131.42 310.581 132.53C310.581 132.73 310.576 132.915 310.566 133.085C310.556 133.255 310.536 133.46 310.506 133.7H305.586C305.596 134.52 305.761 135.105 306.081 135.455C306.411 135.805 306.976 135.98 307.776 135.98C308.206 135.98 308.656 135.94 309.126 135.86C309.596 135.78 309.976 135.68 310.266 135.56ZM309.456 132.365C309.446 131.705 309.301 131.24 309.021 130.97C308.741 130.69 308.271 130.55 307.611 130.55C306.871 130.55 306.346 130.71 306.036 131.03C305.736 131.34 305.586 131.89 305.586 132.68H309.441C309.441 132.66 309.441 132.615 309.441 132.545C309.451 132.465 309.456 132.405 309.456 132.365ZM158.54 148.55C157.9 148.55 157.455 148.625 157.205 148.775C156.965 148.925 156.845 149.23 156.845 149.69C156.845 149.93 156.9 150.115 157.01 150.245C157.13 150.365 157.315 150.445 157.565 150.485L159.47 150.77C160.07 150.86 160.49 151.05 160.73 151.34C160.97 151.62 161.09 152.065 161.09 152.675C161.09 153.535 160.885 154.16 160.475 154.55C160.065 154.93 159.385 155.12 158.435 155.12C157.865 155.12 157.335 155.09 156.845 155.03C156.355 154.97 155.95 154.89 155.63 154.79V153.635C155.95 153.735 156.34 153.82 156.8 153.89C157.27 153.95 157.75 153.98 158.24 153.98C158.86 153.98 159.285 153.89 159.515 153.71C159.745 153.53 159.86 153.21 159.86 152.75C159.86 152.46 159.795 152.25 159.665 152.12C159.535 151.98 159.3 151.885 158.96 151.835L157.055 151.55C156.575 151.48 156.215 151.295 155.975 150.995C155.745 150.695 155.625 150.26 155.615 149.69C155.615 148.91 155.845 148.34 156.305 147.98C156.775 147.62 157.495 147.44 158.465 147.44C158.865 147.44 159.225 147.45 159.545 147.47C159.875 147.49 160.22 147.53 160.58 147.59V148.685C160.32 148.645 160.015 148.615 159.665 148.595C159.315 148.565 158.94 148.55 158.54 148.55ZM168.147 153.56V154.595C167.887 154.735 167.502 154.86 166.992 154.97C166.492 155.07 165.982 155.12 165.462 155.12C164.302 155.12 163.472 154.82 162.972 154.22C162.472 153.62 162.222 152.63 162.222 151.25C162.222 149.92 162.482 148.955 163.002 148.355C163.522 147.745 164.352 147.44 165.492 147.44C166.552 147.44 167.312 147.68 167.772 148.16C168.232 148.63 168.462 149.42 168.462 150.53C168.462 150.73 168.457 150.915 168.447 151.085C168.437 151.255 168.417 151.46 168.387 151.7H163.467C163.477 152.52 163.642 153.105 163.962 153.455C164.292 153.805 164.857 153.98 165.657 153.98C166.087 153.98 166.537 153.94 167.007 153.86C167.477 153.78 167.857 153.68 168.147 153.56ZM167.337 150.365C167.327 149.705 167.182 149.24 166.902 148.97C166.622 148.69 166.152 148.55 165.492 148.55C164.752 148.55 164.227 148.71 163.917 149.03C163.617 149.34 163.467 149.89 163.467 150.68H167.322C167.322 150.66 167.322 150.615 167.322 150.545C167.332 150.465 167.337 150.405 167.337 150.365ZM171.283 155H170.052V147.59H171.178L171.238 148.22H171.298C171.688 147.99 172.078 147.82 172.468 147.71C172.858 147.59 173.243 147.53 173.623 147.53C173.783 147.53 173.888 147.53 173.938 147.53C173.998 147.53 174.043 147.535 174.073 147.545V148.73C174.003 148.71 173.913 148.7 173.803 148.7C173.703 148.69 173.543 148.685 173.323 148.685C172.963 148.685 172.608 148.73 172.258 148.82C171.918 148.9 171.593 149.025 171.283 149.195V155ZM180.261 147.59H181.611L178.761 155H177.351L174.501 147.59H175.866L178.071 153.875L180.261 147.59ZM184.028 146.3H182.708V145.025H184.028V146.3ZM183.983 155H182.753V147.59H183.983V155ZM191.136 153.53V154.565C190.886 154.725 190.511 154.86 190.011 154.97C189.521 155.07 189.006 155.12 188.466 155.12C187.416 155.12 186.676 154.835 186.246 154.265C185.826 153.695 185.616 152.7 185.616 151.28C185.616 149.89 185.891 148.905 186.441 148.325C186.991 147.735 187.926 147.44 189.246 147.44C189.536 147.44 189.796 147.45 190.026 147.47C190.266 147.48 190.571 147.51 190.941 147.56V148.655C190.571 148.605 190.266 148.575 190.026 148.565C189.796 148.555 189.536 148.55 189.246 148.55C188.306 148.55 187.671 148.745 187.341 149.135C187.011 149.515 186.846 150.23 186.846 151.28C186.846 152.33 186.976 153.045 187.236 153.425C187.496 153.795 187.996 153.98 188.736 153.98C189.146 153.98 189.571 153.94 190.011 153.86C190.451 153.77 190.826 153.66 191.136 153.53ZM198.059 153.56V154.595C197.799 154.735 197.414 154.86 196.904 154.97C196.404 155.07 195.894 155.12 195.374 155.12C194.214 155.12 193.384 154.82 192.884 154.22C192.384 153.62 192.134 152.63 192.134 151.25C192.134 149.92 192.394 148.955 192.914 148.355C193.434 147.745 194.264 147.44 195.404 147.44C196.464 147.44 197.224 147.68 197.684 148.16C198.144 148.63 198.374 149.42 198.374 150.53C198.374 150.73 198.369 150.915 198.359 151.085C198.349 151.255 198.329 151.46 198.299 151.7H193.379C193.389 152.52 193.554 153.105 193.874 153.455C194.204 153.805 194.769 153.98 195.569 153.98C195.999 153.98 196.449 153.94 196.919 153.86C197.389 153.78 197.769 153.68 198.059 153.56ZM197.249 150.365C197.239 149.705 197.094 149.24 196.814 148.97C196.534 148.69 196.064 148.55 195.404 148.55C194.664 148.55 194.139 148.71 193.829 149.03C193.529 149.34 193.379 149.89 193.379 150.68H197.234C197.234 150.66 197.234 150.615 197.234 150.545C197.244 150.465 197.249 150.405 197.249 150.365ZM200.895 155H199.665V153.755H200.895V155ZM211.256 145.595V146.75H208.136V155H206.861V146.75H203.741V145.595H211.256ZM213.704 155H212.474V145.025H213.704V148.19C214.154 147.94 214.599 147.755 215.039 147.635C215.489 147.505 215.934 147.44 216.374 147.44C217.194 147.44 217.809 147.645 218.219 148.055C218.639 148.465 218.849 149.07 218.849 149.87V155H217.619V150.02C217.619 149.51 217.484 149.14 217.214 148.91C216.954 148.67 216.544 148.55 215.984 148.55C215.614 148.55 215.229 148.6 214.829 148.7C214.439 148.8 214.064 148.94 213.704 149.12V155ZM226.33 153.56V154.595C226.07 154.735 225.685 154.86 225.175 154.97C224.675 155.07 224.165 155.12 223.645 155.12C222.485 155.12 221.655 154.82 221.155 154.22C220.655 153.62 220.405 152.63 220.405 151.25C220.405 149.92 220.665 148.955 221.185 148.355C221.705 147.745 222.535 147.44 223.675 147.44C224.735 147.44 225.495 147.68 225.955 148.16C226.415 148.63 226.645 149.42 226.645 150.53C226.645 150.73 226.64 150.915 226.63 151.085C226.62 151.255 226.6 151.46 226.57 151.7H221.65C221.66 152.52 221.825 153.105 222.145 153.455C222.475 153.805 223.04 153.98 223.84 153.98C224.27 153.98 224.72 153.94 225.19 153.86C225.66 153.78 226.04 153.68 226.33 153.56ZM225.52 150.365C225.51 149.705 225.365 149.24 225.085 148.97C224.805 148.69 224.335 148.55 223.675 148.55C222.935 148.55 222.41 148.71 222.1 149.03C221.8 149.34 221.65 149.89 221.65 150.68H225.505C225.505 150.66 225.505 150.615 225.505 150.545C225.515 150.465 225.52 150.405 225.52 150.365ZM236.65 153.8V155H230.89V145.595H232.165V153.8H236.65ZM244.312 151.28C244.312 152.68 244.052 153.67 243.532 154.25C243.022 154.83 242.142 155.12 240.892 155.12C239.602 155.12 238.707 154.84 238.207 154.28C237.707 153.72 237.457 152.72 237.457 151.28C237.457 149.87 237.712 148.88 238.222 148.31C238.742 147.73 239.632 147.44 240.892 147.44C242.182 147.44 243.072 147.72 243.562 148.28C244.062 148.84 244.312 149.84 244.312 151.28ZM238.687 151.265C238.687 152.365 238.832 153.095 239.122 153.455C239.412 153.805 240.002 153.98 240.892 153.98C241.752 153.98 242.332 153.795 242.632 153.425C242.932 153.045 243.082 152.325 243.082 151.265C243.082 150.165 242.937 149.44 242.647 149.09C242.367 148.73 241.782 148.55 240.892 148.55C240.022 148.55 239.437 148.735 239.137 149.105C238.837 149.475 238.687 150.195 238.687 151.265ZM248.961 157.43C248.461 157.43 247.991 157.395 247.551 157.325C247.121 157.265 246.766 157.18 246.486 157.07V155.975C246.716 156.065 247.051 156.14 247.491 156.2C247.941 156.26 248.386 156.29 248.826 156.29C249.576 156.29 250.096 156.14 250.386 155.84C250.676 155.55 250.821 155.03 250.821 154.28V153.815C250.451 154.035 250.056 154.205 249.636 154.325C249.216 154.435 248.791 154.49 248.361 154.49C247.371 154.49 246.661 154.215 246.231 153.665C245.811 153.115 245.601 152.215 245.601 150.965C245.601 149.695 245.871 148.79 246.411 148.25C246.961 147.71 247.891 147.44 249.201 147.44C249.671 147.44 250.176 147.47 250.716 147.53C251.256 147.58 251.701 147.645 252.051 147.725V153.935C252.051 155.235 251.821 156.14 251.361 156.65C250.901 157.17 250.101 157.43 248.961 157.43ZM249.201 148.55C248.241 148.55 247.606 148.715 247.296 149.045C246.986 149.375 246.831 150.015 246.831 150.965C246.831 151.865 246.961 152.49 247.221 152.84C247.491 153.18 248.006 153.35 248.766 153.35C249.096 153.35 249.436 153.305 249.786 153.215C250.146 153.115 250.491 152.98 250.821 152.81V148.715C250.581 148.665 250.321 148.625 250.041 148.595C249.771 148.565 249.491 148.55 249.201 148.55ZM260.527 151.28C260.527 152.68 260.267 153.67 259.747 154.25C259.237 154.83 258.357 155.12 257.107 155.12C255.817 155.12 254.922 154.84 254.422 154.28C253.922 153.72 253.672 152.72 253.672 151.28C253.672 149.87 253.927 148.88 254.437 148.31C254.957 147.73 255.847 147.44 257.107 147.44C258.397 147.44 259.287 147.72 259.777 148.28C260.277 148.84 260.527 149.84 260.527 151.28ZM254.902 151.265C254.902 152.365 255.047 153.095 255.337 153.455C255.627 153.805 256.217 153.98 257.107 153.98C257.967 153.98 258.547 153.795 258.847 153.425C259.147 153.045 259.297 152.325 259.297 151.265C259.297 150.165 259.152 149.44 258.862 149.09C258.582 148.73 257.997 148.55 257.107 148.55C256.237 148.55 255.652 148.735 255.352 149.105C255.052 149.475 254.902 150.195 254.902 151.265ZM272.546 147.59H273.881L271.826 155H270.386L268.766 149.225L267.251 155H265.811L263.756 147.59H265.106L266.546 153.845L268.151 147.59H269.381L271.091 153.845L272.546 147.59ZM276.356 155H275.126V145.025H276.356V148.19C276.806 147.94 277.251 147.755 277.691 147.635C278.141 147.505 278.586 147.44 279.026 147.44C279.846 147.44 280.461 147.645 280.871 148.055C281.291 148.465 281.501 149.07 281.501 149.87V155H280.271V150.02C280.271 149.51 280.136 149.14 279.866 148.91C279.606 148.67 279.196 148.55 278.636 148.55C278.266 148.55 277.881 148.6 277.481 148.7C277.091 148.8 276.716 148.94 276.356 149.12V155ZM284.692 146.3H283.372V145.025H284.692V146.3ZM284.647 155H283.417V147.59H284.647V155ZM291.8 153.53V154.565C291.55 154.725 291.175 154.86 290.675 154.97C290.185 155.07 289.67 155.12 289.13 155.12C288.08 155.12 287.34 154.835 286.91 154.265C286.49 153.695 286.28 152.7 286.28 151.28C286.28 149.89 286.555 148.905 287.105 148.325C287.655 147.735 288.59 147.44 289.91 147.44C290.2 147.44 290.46 147.45 290.69 147.47C290.93 147.48 291.235 147.51 291.605 147.56V148.655C291.235 148.605 290.93 148.575 290.69 148.565C290.46 148.555 290.2 148.55 289.91 148.55C288.97 148.55 288.335 148.745 288.005 149.135C287.675 149.515 287.51 150.23 287.51 151.28C287.51 152.33 287.64 153.045 287.9 153.425C288.16 153.795 288.66 153.98 289.4 153.98C289.81 153.98 290.235 153.94 290.675 153.86C291.115 153.77 291.49 153.66 291.8 153.53ZM294.447 155H293.217V145.025H294.447V148.19C294.897 147.94 295.342 147.755 295.782 147.635C296.232 147.505 296.677 147.44 297.117 147.44C297.937 147.44 298.552 147.645 298.962 148.055C299.382 148.465 299.592 149.07 299.592 149.87V155H298.362V150.02C298.362 149.51 298.227 149.14 297.957 148.91C297.697 148.67 297.287 148.55 296.727 148.55C296.357 148.55 295.972 148.6 295.572 148.7C295.182 148.8 294.807 148.94 294.447 149.12V155ZM308.172 153.845V154.88C308.012 154.95 307.792 155.005 307.512 155.045C307.242 155.095 306.982 155.12 306.732 155.12C305.832 155.12 305.187 154.92 304.797 154.52C304.417 154.12 304.227 153.43 304.227 152.45V148.64H303.117V147.59H304.242L304.437 145.79H305.457V147.59H308.097V148.64H305.457V152.405C305.457 153.015 305.567 153.43 305.787 153.65C306.017 153.87 306.417 153.98 306.987 153.98C307.167 153.98 307.372 153.965 307.602 153.935C307.842 153.905 308.032 153.875 308.172 153.845ZM310.618 155H309.388V145.025H310.618V148.19C311.068 147.94 311.513 147.755 311.953 147.635C312.403 147.505 312.848 147.44 313.288 147.44C314.108 147.44 314.723 147.645 315.133 148.055C315.553 148.465 315.763 149.07 315.763 149.87V155H314.533V150.02C314.533 149.51 314.398 149.14 314.128 148.91C313.868 148.67 313.458 148.55 312.898 148.55C312.528 148.55 312.143 148.6 311.743 148.7C311.353 148.8 310.978 148.94 310.618 149.12V155ZM323.244 153.56V154.595C322.984 154.735 322.599 154.86 322.089 154.97C321.589 155.07 321.079 155.12 320.559 155.12C319.399 155.12 318.569 154.82 318.069 154.22C317.569 153.62 317.319 152.63 317.319 151.25C317.319 149.92 317.579 148.955 318.099 148.355C318.619 147.745 319.449 147.44 320.589 147.44C321.649 147.44 322.409 147.68 322.869 148.16C323.329 148.63 323.559 149.42 323.559 150.53C323.559 150.73 323.554 150.915 323.544 151.085C323.534 151.255 323.514 151.46 323.484 151.7H318.564C318.574 152.52 318.739 153.105 319.059 153.455C319.389 153.805 319.954 153.98 320.754 153.98C321.184 153.98 321.634 153.94 322.104 153.86C322.574 153.78 322.954 153.68 323.244 153.56ZM322.434 150.365C322.424 149.705 322.279 149.24 321.999 148.97C321.719 148.69 321.249 148.55 320.589 148.55C319.849 148.55 319.324 148.71 319.014 149.03C318.714 149.34 318.564 149.89 318.564 150.68H322.419C322.419 150.66 322.419 150.615 322.419 150.545C322.429 150.465 322.434 150.405 322.434 150.365ZM156.47 173H155.12L158.84 163.595H160.16L163.835 173H162.485L161.63 170.735H157.325L156.47 173ZM159.47 164.765C159.37 165.115 159.25 165.485 159.11 165.875C158.98 166.265 158.845 166.655 158.705 167.045L157.745 169.61H161.21L160.25 167.045C160.05 166.495 159.89 166.05 159.77 165.71C159.66 165.37 159.56 165.055 159.47 164.765ZM166.185 163.025V173H164.955V163.025H166.185ZM169.393 175.28H168.163V165.59H169.228L169.303 166.25H169.348C169.658 165.99 170.028 165.79 170.458 165.65C170.888 165.51 171.348 165.44 171.838 165.44C172.848 165.44 173.568 165.74 173.998 166.34C174.438 166.94 174.658 167.92 174.658 169.28C174.658 170.64 174.393 171.62 173.863 172.22C173.333 172.82 172.448 173.12 171.208 173.12C170.838 173.12 170.498 173.095 170.188 173.045C169.888 172.995 169.623 172.92 169.393 172.82V175.28ZM173.428 169.28C173.428 168.26 173.283 167.55 172.993 167.15C172.713 166.75 172.183 166.55 171.403 166.55C171.033 166.55 170.678 166.605 170.338 166.715C170.008 166.815 169.693 166.965 169.393 167.165V171.68C169.643 171.78 169.898 171.855 170.158 171.905C170.428 171.955 170.728 171.98 171.058 171.98C171.988 171.98 172.613 171.79 172.933 171.41C173.263 171.02 173.428 170.31 173.428 169.28ZM177.508 173H176.278V163.025H177.508V166.19C177.958 165.94 178.403 165.755 178.843 165.635C179.293 165.505 179.738 165.44 180.178 165.44C180.998 165.44 181.613 165.645 182.023 166.055C182.443 166.465 182.653 167.07 182.653 167.87V173H181.423V168.02C181.423 167.51 181.288 167.14 181.018 166.91C180.758 166.67 180.348 166.55 179.788 166.55C179.418 166.55 179.033 166.6 178.633 166.7C178.243 166.8 177.868 166.94 177.508 167.12V173ZM186.249 173.12C185.489 173.12 184.929 172.94 184.569 172.58C184.219 172.21 184.044 171.63 184.044 170.84C184.044 170.04 184.259 169.475 184.689 169.145C185.119 168.805 185.849 168.635 186.879 168.635C187.219 168.635 187.554 168.65 187.884 168.68C188.214 168.71 188.524 168.755 188.814 168.815V168.095C188.814 167.545 188.674 167.15 188.394 166.91C188.114 166.67 187.664 166.55 187.044 166.55C186.584 166.55 186.179 166.57 185.829 166.61C185.479 166.64 185.129 166.695 184.779 166.775V165.71C185.179 165.61 185.584 165.54 185.994 165.5C186.414 165.46 186.889 165.44 187.419 165.44C188.309 165.44 188.969 165.65 189.399 166.07C189.829 166.48 190.044 167.12 190.044 167.99V173H188.919L188.859 172.31H188.829C188.529 172.55 188.139 172.745 187.659 172.895C187.189 173.045 186.719 173.12 186.249 173.12ZM187.014 169.64C186.334 169.64 185.859 169.725 185.589 169.895C185.329 170.055 185.199 170.345 185.199 170.765C185.199 171.205 185.309 171.525 185.529 171.725C185.749 171.915 186.109 172.01 186.609 172.01C186.999 172.01 187.399 171.95 187.809 171.83C188.219 171.71 188.554 171.56 188.814 171.38V169.79C188.484 169.74 188.174 169.705 187.884 169.685C187.604 169.655 187.314 169.64 187.014 169.64ZM193.197 173H191.967V165.59H193.092L193.152 166.22H193.212C193.602 165.99 193.992 165.82 194.382 165.71C194.772 165.59 195.157 165.53 195.537 165.53C195.697 165.53 195.802 165.53 195.852 165.53C195.912 165.53 195.957 165.535 195.987 165.545V166.73C195.917 166.71 195.827 166.7 195.717 166.7C195.617 166.69 195.457 166.685 195.237 166.685C194.877 166.685 194.522 166.73 194.172 166.82C193.832 166.9 193.507 167.025 193.197 167.195V173ZM199.655 173.12C198.835 173.12 198.22 172.915 197.81 172.505C197.4 172.095 197.195 171.48 197.195 170.66V165.59H198.425V170.51C198.425 171.02 198.555 171.39 198.815 171.62C199.075 171.85 199.485 171.965 200.045 171.965C200.385 171.965 200.725 171.925 201.065 171.845C201.415 171.755 201.765 171.62 202.115 171.44V165.59H203.345V173H202.22L202.16 172.385H202.13C201.61 172.655 201.16 172.845 200.78 172.955C200.4 173.065 200.025 173.12 199.655 173.12ZM206.556 163.025V173H205.326V163.025H206.556ZM214.099 171.56V172.595C213.839 172.735 213.454 172.86 212.944 172.97C212.444 173.07 211.934 173.12 211.414 173.12C210.254 173.12 209.424 172.82 208.924 172.22C208.424 171.62 208.174 170.63 208.174 169.25C208.174 167.92 208.434 166.955 208.954 166.355C209.474 165.745 210.304 165.44 211.444 165.44C212.504 165.44 213.264 165.68 213.724 166.16C214.184 166.63 214.414 167.42 214.414 168.53C214.414 168.73 214.409 168.915 214.399 169.085C214.389 169.255 214.369 169.46 214.339 169.7H209.419C209.429 170.52 209.594 171.105 209.914 171.455C210.244 171.805 210.809 171.98 211.609 171.98C212.039 171.98 212.489 171.94 212.959 171.86C213.429 171.78 213.809 171.68 214.099 171.56ZM213.289 168.365C213.279 167.705 213.134 167.24 212.854 166.97C212.574 166.69 212.104 166.55 211.444 166.55C210.704 166.55 210.179 166.71 209.869 167.03C209.569 167.34 209.419 167.89 209.419 168.68H213.274C213.274 168.66 213.274 168.615 213.274 168.545C213.284 168.465 213.289 168.405 213.289 168.365ZM219.798 173H218.568V163.025H219.798V166.19C220.248 165.94 220.693 165.755 221.133 165.635C221.583 165.505 222.028 165.44 222.468 165.44C223.288 165.44 223.903 165.645 224.313 166.055C224.733 166.465 224.943 167.07 224.943 167.87V173H223.713V168.02C223.713 167.51 223.578 167.14 223.308 166.91C223.048 166.67 222.638 166.55 222.078 166.55C221.708 166.55 221.323 166.6 220.923 166.7C220.533 166.8 220.158 166.94 219.798 167.12V173ZM228.539 173.12C227.779 173.12 227.219 172.94 226.859 172.58C226.509 172.21 226.334 171.63 226.334 170.84C226.334 170.04 226.549 169.475 226.979 169.145C227.409 168.805 228.139 168.635 229.169 168.635C229.509 168.635 229.844 168.65 230.174 168.68C230.504 168.71 230.814 168.755 231.104 168.815V168.095C231.104 167.545 230.964 167.15 230.684 166.91C230.404 166.67 229.954 166.55 229.334 166.55C228.874 166.55 228.469 166.57 228.119 166.61C227.769 166.64 227.419 166.695 227.069 166.775V165.71C227.469 165.61 227.874 165.54 228.284 165.5C228.704 165.46 229.179 165.44 229.709 165.44C230.599 165.44 231.259 165.65 231.689 166.07C232.119 166.48 232.334 167.12 232.334 167.99V173H231.209L231.149 172.31H231.119C230.819 172.55 230.429 172.745 229.949 172.895C229.479 173.045 229.009 173.12 228.539 173.12ZM229.304 169.64C228.624 169.64 228.149 169.725 227.879 169.895C227.619 170.055 227.489 170.345 227.489 170.765C227.489 171.205 227.599 171.525 227.819 171.725C228.039 171.915 228.399 172.01 228.899 172.01C229.289 172.01 229.689 171.95 230.099 171.83C230.509 171.71 230.844 171.56 231.104 171.38V169.79C230.774 169.74 230.464 169.705 230.174 169.685C229.894 169.655 229.604 169.64 229.304 169.64ZM236.807 166.55C236.167 166.55 235.722 166.625 235.472 166.775C235.232 166.925 235.112 167.23 235.112 167.69C235.112 167.93 235.167 168.115 235.277 168.245C235.397 168.365 235.582 168.445 235.832 168.485L237.737 168.77C238.337 168.86 238.757 169.05 238.997 169.34C239.237 169.62 239.357 170.065 239.357 170.675C239.357 171.535 239.152 172.16 238.742 172.55C238.332 172.93 237.652 173.12 236.702 173.12C236.132 173.12 235.602 173.09 235.112 173.03C234.622 172.97 234.217 172.89 233.897 172.79V171.635C234.217 171.735 234.607 171.82 235.067 171.89C235.537 171.95 236.017 171.98 236.507 171.98C237.127 171.98 237.552 171.89 237.782 171.71C238.012 171.53 238.127 171.21 238.127 170.75C238.127 170.46 238.062 170.25 237.932 170.12C237.802 169.98 237.567 169.885 237.227 169.835L235.322 169.55C234.842 169.48 234.482 169.295 234.242 168.995C234.012 168.695 233.892 168.26 233.882 167.69C233.882 166.91 234.112 166.34 234.572 165.98C235.042 165.62 235.762 165.44 236.732 165.44C237.132 165.44 237.492 165.45 237.812 165.47C238.142 165.49 238.487 165.53 238.847 165.59V166.685C238.587 166.645 238.282 166.615 237.932 166.595C237.582 166.565 237.207 166.55 236.807 166.55ZM244.642 173H243.412V165.59H244.537L244.597 166.16H244.642C245.082 165.91 245.482 165.73 245.842 165.62C246.202 165.5 246.562 165.44 246.922 165.44C247.342 165.44 247.702 165.505 248.002 165.635C248.302 165.765 248.537 165.96 248.707 166.22H248.752C249.152 165.97 249.572 165.78 250.012 165.65C250.462 165.51 250.912 165.44 251.362 165.44C252.072 165.44 252.607 165.63 252.967 166.01C253.337 166.38 253.522 166.93 253.522 167.66V173H252.292V167.81C252.292 167.38 252.177 167.065 251.947 166.865C251.717 166.655 251.352 166.55 250.852 166.55C250.572 166.55 250.277 166.595 249.967 166.685C249.657 166.765 249.347 166.885 249.037 167.045C249.057 167.145 249.067 167.245 249.067 167.345C249.077 167.445 249.082 167.55 249.082 167.66V173H247.852V167.81C247.852 167.38 247.737 167.065 247.507 166.865C247.277 166.655 246.912 166.55 246.412 166.55C246.162 166.55 245.897 166.595 245.617 166.685C245.337 166.765 245.012 166.905 244.642 167.105V173ZM257.118 173.12C256.358 173.12 255.798 172.94 255.438 172.58C255.088 172.21 254.913 171.63 254.913 170.84C254.913 170.04 255.128 169.475 255.558 169.145C255.988 168.805 256.718 168.635 257.748 168.635C258.088 168.635 258.423 168.65 258.753 168.68C259.083 168.71 259.393 168.755 259.683 168.815V168.095C259.683 167.545 259.543 167.15 259.263 166.91C258.983 166.67 258.533 166.55 257.913 166.55C257.453 166.55 257.048 166.57 256.698 166.61C256.348 166.64 255.998 166.695 255.648 166.775V165.71C256.048 165.61 256.453 165.54 256.863 165.5C257.283 165.46 257.758 165.44 258.288 165.44C259.178 165.44 259.838 165.65 260.268 166.07C260.698 166.48 260.913 167.12 260.913 167.99V173H259.788L259.728 172.31H259.698C259.398 172.55 259.008 172.745 258.528 172.895C258.058 173.045 257.588 173.12 257.118 173.12ZM257.883 169.64C257.203 169.64 256.728 169.725 256.458 169.895C256.198 170.055 256.068 170.345 256.068 170.765C256.068 171.205 256.178 171.525 256.398 171.725C256.618 171.915 256.978 172.01 257.478 172.01C257.868 172.01 258.268 171.95 258.678 171.83C259.088 171.71 259.423 171.56 259.683 171.38V169.79C259.353 169.74 259.043 169.705 258.753 169.685C258.473 169.655 258.183 169.64 257.883 169.64ZM267.741 163.025H268.971V173H267.906L267.816 172.31H267.786C267.496 172.58 267.141 172.785 266.721 172.925C266.311 173.055 265.836 173.12 265.296 173.12C264.286 173.12 263.561 172.82 263.121 172.22C262.691 171.62 262.476 170.64 262.476 169.28C262.476 167.92 262.741 166.94 263.271 166.34C263.801 165.74 264.686 165.44 265.926 165.44C266.276 165.44 266.601 165.47 266.901 165.53C267.211 165.58 267.491 165.655 267.741 165.755V163.025ZM266.076 166.55C265.146 166.55 264.516 166.745 264.186 167.135C263.866 167.525 263.706 168.24 263.706 169.28C263.706 170.29 263.846 170.995 264.126 171.395C264.416 171.785 264.951 171.98 265.731 171.98C266.101 171.98 266.456 171.935 266.796 171.845C267.136 171.745 267.451 171.6 267.741 171.41V166.85C267.501 166.75 267.246 166.675 266.976 166.625C266.706 166.575 266.406 166.55 266.076 166.55ZM276.516 171.56V172.595C276.256 172.735 275.871 172.86 275.361 172.97C274.861 173.07 274.351 173.12 273.831 173.12C272.671 173.12 271.841 172.82 271.341 172.22C270.841 171.62 270.591 170.63 270.591 169.25C270.591 167.92 270.851 166.955 271.371 166.355C271.891 165.745 272.721 165.44 273.861 165.44C274.921 165.44 275.681 165.68 276.141 166.16C276.601 166.63 276.831 167.42 276.831 168.53C276.831 168.73 276.826 168.915 276.816 169.085C276.806 169.255 276.786 169.46 276.756 169.7H271.836C271.846 170.52 272.011 171.105 272.331 171.455C272.661 171.805 273.226 171.98 274.026 171.98C274.456 171.98 274.906 171.94 275.376 171.86C275.846 171.78 276.226 171.68 276.516 171.56ZM275.706 168.365C275.696 167.705 275.551 167.24 275.271 166.97C274.991 166.69 274.521 166.55 273.861 166.55C273.121 166.55 272.596 166.71 272.286 167.03C271.986 167.34 271.836 167.89 271.836 168.68H275.691C275.691 168.66 275.691 168.615 275.691 168.545C275.701 168.465 275.706 168.405 275.706 168.365ZM282.26 164.3H280.94V163.025H282.26V164.3ZM282.215 173H280.985V165.59H282.215V173ZM286.743 166.55C286.103 166.55 285.658 166.625 285.408 166.775C285.168 166.925 285.048 167.23 285.048 167.69C285.048 167.93 285.103 168.115 285.213 168.245C285.333 168.365 285.518 168.445 285.768 168.485L287.673 168.77C288.273 168.86 288.693 169.05 288.933 169.34C289.173 169.62 289.293 170.065 289.293 170.675C289.293 171.535 289.088 172.16 288.678 172.55C288.268 172.93 287.588 173.12 286.638 173.12C286.068 173.12 285.538 173.09 285.048 173.03C284.558 172.97 284.153 172.89 283.833 172.79V171.635C284.153 171.735 284.543 171.82 285.003 171.89C285.473 171.95 285.953 171.98 286.443 171.98C287.063 171.98 287.488 171.89 287.718 171.71C287.948 171.53 288.063 171.21 288.063 170.75C288.063 170.46 287.998 170.25 287.868 170.12C287.738 169.98 287.503 169.885 287.163 169.835L285.258 169.55C284.778 169.48 284.418 169.295 284.178 168.995C283.948 168.695 283.828 168.26 283.818 167.69C283.818 166.91 284.048 166.34 284.508 165.98C284.978 165.62 285.698 165.44 286.668 165.44C287.068 165.44 287.428 165.45 287.748 165.47C288.078 165.49 288.423 165.53 288.783 165.59V166.685C288.523 166.645 288.218 166.615 287.868 166.595C287.518 166.565 287.143 166.55 286.743 166.55ZM161.555 189.56V190.595C161.295 190.735 160.91 190.86 160.4 190.97C159.9 191.07 159.39 191.12 158.87 191.12C157.71 191.12 156.88 190.82 156.38 190.22C155.88 189.62 155.63 188.63 155.63 187.25C155.63 185.92 155.89 184.955 156.41 184.355C156.93 183.745 157.76 183.44 158.9 183.44C159.96 183.44 160.72 183.68 161.18 184.16C161.64 184.63 161.87 185.42 161.87 186.53C161.87 186.73 161.865 186.915 161.855 187.085C161.845 187.255 161.825 187.46 161.795 187.7H156.875C156.885 188.52 157.05 189.105 157.37 189.455C157.7 189.805 158.265 189.98 159.065 189.98C159.495 189.98 159.945 189.94 160.415 189.86C160.885 189.78 161.265 189.68 161.555 189.56ZM160.745 186.365C160.735 185.705 160.59 185.24 160.31 184.97C160.03 184.69 159.56 184.55 158.9 184.55C158.16 184.55 157.635 184.71 157.325 185.03C157.025 185.34 156.875 185.89 156.875 186.68H160.73C160.73 186.66 160.73 186.615 160.73 186.545C160.74 186.465 160.745 186.405 160.745 186.365ZM166.448 187.145L168.923 191H167.558L165.683 188L163.823 191H162.533L165.008 187.16L162.638 183.59H164.093L165.758 186.335L167.513 183.59H168.818L166.448 187.145ZM171.689 191.12C170.929 191.12 170.369 190.94 170.009 190.58C169.659 190.21 169.484 189.63 169.484 188.84C169.484 188.04 169.699 187.475 170.129 187.145C170.559 186.805 171.289 186.635 172.319 186.635C172.659 186.635 172.994 186.65 173.324 186.68C173.654 186.71 173.964 186.755 174.254 186.815V186.095C174.254 185.545 174.114 185.15 173.834 184.91C173.554 184.67 173.104 184.55 172.484 184.55C172.024 184.55 171.619 184.57 171.269 184.61C170.919 184.64 170.569 184.695 170.219 184.775V183.71C170.619 183.61 171.024 183.54 171.434 183.5C171.854 183.46 172.329 183.44 172.859 183.44C173.749 183.44 174.409 183.65 174.839 184.07C175.269 184.48 175.484 185.12 175.484 185.99V191H174.359L174.299 190.31H174.269C173.969 190.55 173.579 190.745 173.099 190.895C172.629 191.045 172.159 191.12 171.689 191.12ZM172.454 187.64C171.774 187.64 171.299 187.725 171.029 187.895C170.769 188.055 170.639 188.345 170.639 188.765C170.639 189.205 170.749 189.525 170.969 189.725C171.189 189.915 171.549 190.01 172.049 190.01C172.439 190.01 172.839 189.95 173.249 189.83C173.659 189.71 173.994 189.56 174.254 189.38V187.79C173.924 187.74 173.614 187.705 173.324 187.685C173.044 187.655 172.754 187.64 172.454 187.64ZM182.581 189.53V190.565C182.331 190.725 181.956 190.86 181.456 190.97C180.966 191.07 180.451 191.12 179.911 191.12C178.861 191.12 178.121 190.835 177.691 190.265C177.271 189.695 177.061 188.7 177.061 187.28C177.061 185.89 177.336 184.905 177.886 184.325C178.436 183.735 179.371 183.44 180.691 183.44C180.981 183.44 181.241 183.45 181.471 183.47C181.711 183.48 182.016 183.51 182.386 183.56V184.655C182.016 184.605 181.711 184.575 181.471 184.565C181.241 184.555 180.981 184.55 180.691 184.55C179.751 184.55 179.116 184.745 178.786 185.135C178.456 185.515 178.291 186.23 178.291 187.28C178.291 188.33 178.421 189.045 178.681 189.425C178.941 189.795 179.441 189.98 180.181 189.98C180.591 189.98 181.016 189.94 181.456 189.86C181.896 189.77 182.271 189.66 182.581 189.53ZM188.348 189.845V190.88C188.188 190.95 187.968 191.005 187.688 191.045C187.418 191.095 187.158 191.12 186.908 191.12C186.008 191.12 185.363 190.92 184.973 190.52C184.593 190.12 184.403 189.43 184.403 188.45V184.64H183.293V183.59H184.418L184.613 181.79H185.633V183.59H188.273V184.64H185.633V188.405C185.633 189.015 185.743 189.43 185.963 189.65C186.193 189.87 186.593 189.98 187.163 189.98C187.343 189.98 187.548 189.965 187.778 189.935C188.018 189.905 188.208 189.875 188.348 189.845ZM190.794 181.025V191H189.564V181.025H190.794ZM193.447 192.32C193.827 192.32 194.112 192.235 194.302 192.065C194.502 191.905 194.712 191.515 194.932 190.895L191.902 183.59H193.282L195.562 189.665L197.722 183.59H199.042L196.012 191.495C195.742 192.215 195.427 192.715 195.067 192.995C194.707 193.285 194.242 193.43 193.672 193.43C193.502 193.43 193.322 193.42 193.132 193.4C192.952 193.38 192.772 193.355 192.592 193.325V192.245C192.702 192.275 192.822 192.295 192.952 192.305C193.092 192.315 193.257 192.32 193.447 192.32ZM210.29 183.59H211.625L209.57 191H208.13L206.51 185.225L204.995 191H203.555L201.5 183.59H202.85L204.29 189.845L205.895 183.59H207.125L208.835 189.845L210.29 183.59ZM214.1 191H212.87V181.025H214.1V184.19C214.55 183.94 214.995 183.755 215.435 183.635C215.885 183.505 216.33 183.44 216.77 183.44C217.59 183.44 218.205 183.645 218.615 184.055C219.035 184.465 219.245 185.07 219.245 185.87V191H218.015V186.02C218.015 185.51 217.88 185.14 217.61 184.91C217.35 184.67 216.94 184.55 216.38 184.55C216.01 184.55 215.625 184.6 215.225 184.7C214.835 184.8 214.46 184.94 214.1 185.12V191ZM222.841 191.12C222.081 191.12 221.521 190.94 221.161 190.58C220.811 190.21 220.636 189.63 220.636 188.84C220.636 188.04 220.851 187.475 221.281 187.145C221.711 186.805 222.441 186.635 223.471 186.635C223.811 186.635 224.146 186.65 224.476 186.68C224.806 186.71 225.116 186.755 225.406 186.815V186.095C225.406 185.545 225.266 185.15 224.986 184.91C224.706 184.67 224.256 184.55 223.636 184.55C223.176 184.55 222.771 184.57 222.421 184.61C222.071 184.64 221.721 184.695 221.371 184.775V183.71C221.771 183.61 222.176 183.54 222.586 183.5C223.006 183.46 223.481 183.44 224.011 183.44C224.901 183.44 225.561 183.65 225.991 184.07C226.421 184.48 226.636 185.12 226.636 185.99V191H225.511L225.451 190.31H225.421C225.121 190.55 224.731 190.745 224.251 190.895C223.781 191.045 223.311 191.12 222.841 191.12ZM223.606 187.64C222.926 187.64 222.451 187.725 222.181 187.895C221.921 188.055 221.791 188.345 221.791 188.765C221.791 189.205 221.901 189.525 222.121 189.725C222.341 189.915 222.701 190.01 223.201 190.01C223.591 190.01 223.991 189.95 224.401 189.83C224.811 189.71 225.146 189.56 225.406 189.38V187.79C225.076 187.74 224.766 187.705 224.476 187.685C224.196 187.655 223.906 187.64 223.606 187.64ZM232.82 189.845V190.88C232.66 190.95 232.44 191.005 232.16 191.045C231.89 191.095 231.63 191.12 231.38 191.12C230.48 191.12 229.835 190.92 229.445 190.52C229.065 190.12 228.875 189.43 228.875 188.45V184.64H227.765V183.59H228.89L229.085 181.79H230.105V183.59H232.745V184.64H230.105V188.405C230.105 189.015 230.215 189.43 230.435 189.65C230.665 189.87 231.065 189.98 231.635 189.98C231.815 189.98 232.02 189.965 232.25 189.935C232.49 189.905 232.68 189.875 232.82 189.845ZM243.11 187.28C243.11 188.68 242.85 189.67 242.33 190.25C241.82 190.83 240.94 191.12 239.69 191.12C238.4 191.12 237.505 190.84 237.005 190.28C236.505 189.72 236.255 188.72 236.255 187.28C236.255 185.87 236.51 184.88 237.02 184.31C237.54 183.73 238.43 183.44 239.69 183.44C240.98 183.44 241.87 183.72 242.36 184.28C242.86 184.84 243.11 185.84 243.11 187.28ZM237.485 187.265C237.485 188.365 237.63 189.095 237.92 189.455C238.21 189.805 238.8 189.98 239.69 189.98C240.55 189.98 241.13 189.795 241.43 189.425C241.73 189.045 241.88 188.325 241.88 187.265C241.88 186.165 241.735 185.44 241.445 185.09C241.165 184.73 240.58 184.55 239.69 184.55C238.82 184.55 238.235 184.735 237.935 185.105C237.635 185.475 237.485 186.195 237.485 187.265ZM247.145 191.12C246.325 191.12 245.71 190.915 245.3 190.505C244.89 190.095 244.685 189.48 244.685 188.66V183.59H245.915V188.51C245.915 189.02 246.045 189.39 246.305 189.62C246.565 189.85 246.975 189.965 247.535 189.965C247.875 189.965 248.215 189.925 248.555 189.845C248.905 189.755 249.255 189.62 249.605 189.44V183.59H250.835V191H249.71L249.65 190.385H249.62C249.1 190.655 248.65 190.845 248.27 190.955C247.89 191.065 247.515 191.12 247.145 191.12ZM254.046 191H252.816V183.59H253.941L254.001 184.22H254.061C254.451 183.99 254.841 183.82 255.231 183.71C255.621 183.59 256.006 183.53 256.386 183.53C256.546 183.53 256.651 183.53 256.701 183.53C256.761 183.53 256.806 183.535 256.836 183.545V184.73C256.766 184.71 256.676 184.7 256.566 184.7C256.466 184.69 256.306 184.685 256.086 184.685C255.726 184.685 255.371 184.73 255.021 184.82C254.681 184.9 254.356 185.025 254.046 185.195V191ZM264.987 183.59H266.337L263.487 191H262.077L259.227 183.59H260.592L262.797 189.875L264.987 183.59ZM268.754 182.3H267.434V181.025H268.754V182.3ZM268.709 191H267.479V183.59H268.709V191ZM273.237 184.55C272.597 184.55 272.152 184.625 271.902 184.775C271.662 184.925 271.542 185.23 271.542 185.69C271.542 185.93 271.597 186.115 271.707 186.245C271.827 186.365 272.012 186.445 272.262 186.485L274.167 186.77C274.767 186.86 275.187 187.05 275.427 187.34C275.667 187.62 275.787 188.065 275.787 188.675C275.787 189.535 275.582 190.16 275.172 190.55C274.762 190.93 274.082 191.12 273.132 191.12C272.562 191.12 272.032 191.09 271.542 191.03C271.052 190.97 270.647 190.89 270.327 190.79V189.635C270.647 189.735 271.037 189.82 271.497 189.89C271.967 189.95 272.447 189.98 272.937 189.98C273.557 189.98 273.982 189.89 274.212 189.71C274.442 189.53 274.557 189.21 274.557 188.75C274.557 188.46 274.492 188.25 274.362 188.12C274.232 187.98 273.997 187.885 273.657 187.835L271.752 187.55C271.272 187.48 270.912 187.295 270.672 186.995C270.442 186.695 270.322 186.26 270.312 185.69C270.312 184.91 270.542 184.34 271.002 183.98C271.472 183.62 272.192 183.44 273.162 183.44C273.562 183.44 273.922 183.45 274.242 183.47C274.572 183.49 274.917 183.53 275.277 183.59V184.685C275.017 184.645 274.712 184.615 274.362 184.595C274.012 184.565 273.637 184.55 273.237 184.55ZM278.554 182.3H277.234V181.025H278.554V182.3ZM278.509 191H277.279V183.59H278.509V191ZM286.997 187.28C286.997 188.68 286.737 189.67 286.217 190.25C285.707 190.83 284.827 191.12 283.577 191.12C282.287 191.12 281.392 190.84 280.892 190.28C280.392 189.72 280.142 188.72 280.142 187.28C280.142 185.87 280.397 184.88 280.907 184.31C281.427 183.73 282.317 183.44 283.577 183.44C284.867 183.44 285.757 183.72 286.247 184.28C286.747 184.84 286.997 185.84 286.997 187.28ZM281.372 187.265C281.372 188.365 281.517 189.095 281.807 189.455C282.097 189.805 282.687 189.98 283.577 189.98C284.437 189.98 285.017 189.795 285.317 189.425C285.617 189.045 285.767 188.325 285.767 187.265C285.767 186.165 285.622 185.44 285.332 185.09C285.052 184.73 284.467 184.55 283.577 184.55C282.707 184.55 282.122 184.735 281.822 185.105C281.522 185.475 281.372 186.195 281.372 187.265ZM289.862 191H288.632V183.59H289.697L289.757 184.31H289.802C290.202 184.01 290.617 183.79 291.047 183.65C291.487 183.51 291.977 183.44 292.517 183.44C293.337 183.44 293.957 183.645 294.377 184.055C294.807 184.465 295.022 185.07 295.022 185.87V191H293.792V186.02C293.792 185.52 293.652 185.15 293.372 184.91C293.092 184.67 292.662 184.55 292.082 184.55C291.722 184.55 291.352 184.61 290.972 184.73C290.602 184.84 290.232 185.005 289.862 185.225V191ZM307.321 183.59H308.656L306.601 191H305.161L303.541 185.225L302.026 191H300.586L298.531 183.59H299.881L301.321 189.845L302.926 183.59H304.156L305.866 189.845L307.321 183.59ZM311.493 191.12C310.733 191.12 310.173 190.94 309.813 190.58C309.463 190.21 309.288 189.63 309.288 188.84C309.288 188.04 309.503 187.475 309.933 187.145C310.363 186.805 311.093 186.635 312.123 186.635C312.463 186.635 312.798 186.65 313.128 186.68C313.458 186.71 313.768 186.755 314.058 186.815V186.095C314.058 185.545 313.918 185.15 313.638 184.91C313.358 184.67 312.908 184.55 312.288 184.55C311.828 184.55 311.423 184.57 311.073 184.61C310.723 184.64 310.373 184.695 310.023 184.775V183.71C310.423 183.61 310.828 183.54 311.238 183.5C311.658 183.46 312.133 183.44 312.663 183.44C313.553 183.44 314.213 183.65 314.643 184.07C315.073 184.48 315.288 185.12 315.288 185.99V191H314.163L314.103 190.31H314.073C313.773 190.55 313.383 190.745 312.903 190.895C312.433 191.045 311.963 191.12 311.493 191.12ZM312.258 187.64C311.578 187.64 311.103 187.725 310.833 187.895C310.573 188.055 310.443 188.345 310.443 188.765C310.443 189.205 310.553 189.525 310.773 189.725C310.993 189.915 311.353 190.01 311.853 190.01C312.243 190.01 312.643 189.95 313.053 189.83C313.463 189.71 313.798 189.56 314.058 189.38V187.79C313.728 187.74 313.418 187.705 313.128 187.685C312.848 187.655 312.558 187.64 312.258 187.64ZM319.761 184.55C319.121 184.55 318.676 184.625 318.426 184.775C318.186 184.925 318.066 185.23 318.066 185.69C318.066 185.93 318.121 186.115 318.231 186.245C318.351 186.365 318.536 186.445 318.786 186.485L320.691 186.77C321.291 186.86 321.711 187.05 321.951 187.34C322.191 187.62 322.311 188.065 322.311 188.675C322.311 189.535 322.106 190.16 321.696 190.55C321.286 190.93 320.606 191.12 319.656 191.12C319.086 191.12 318.556 191.09 318.066 191.03C317.576 190.97 317.171 190.89 316.851 190.79V189.635C317.171 189.735 317.561 189.82 318.021 189.89C318.491 189.95 318.971 189.98 319.461 189.98C320.081 189.98 320.506 189.89 320.736 189.71C320.966 189.53 321.081 189.21 321.081 188.75C321.081 188.46 321.016 188.25 320.886 188.12C320.756 187.98 320.521 187.885 320.181 187.835L318.276 187.55C317.796 187.48 317.436 187.295 317.196 186.995C316.966 186.695 316.846 186.26 316.836 185.69C316.836 184.91 317.066 184.34 317.526 183.98C317.996 183.62 318.716 183.44 319.686 183.44C320.086 183.44 320.446 183.45 320.766 183.47C321.096 183.49 321.441 183.53 321.801 183.59V184.685C321.541 184.645 321.236 184.615 320.886 184.595C320.536 184.565 320.161 184.55 319.761 184.55ZM324.733 191H323.503V189.755H324.733V191Z" fill="#6B6B6B" fill-opacity="0.8"/>
<defs>
<filter id="filter0_dd" x="0" y="0" width="387" height="297" filterUnits="userSpaceOnUse" color-interpolation-filters="sRGB">
<feFlood flood-opacity="0" result="BackgroundImageFix"/>
<feColorMatrix in="SourceAlpha" type="matrix" values="0 0 0 0 0 0 0 0 0 0 0 0 0 0 0 0 0 0 127 0"/>
<feOffset dx="10" dy="10"/>
<feGaussianBlur stdDeviation="10"/>
<feColorMatrix type="matrix" values="0 0 0 0 0 0 0 0 0 0 0 0 0 0 0 0 0 0 0.1 0"/>
<feBlend mode="normal" in2="BackgroundImageFix" result="effect1_dropShadow"/>
<feColorMatrix in="SourceAlpha" type="matrix" values="0 0 0 0 0 0 0 0 0 0 0 0 0 0 0 0 0 0 127 0"/>
<feOffset dx="-10" dy="-10"/>
<feGaussianBlur stdDeviation="10"/>
<feColorMatrix type="matrix" values="0 0 0 0 0 0 0 0 0 0 0 0 0 0 0 0 0 0 0.1 0"/>
<feBlend mode="normal" in2="effect1_dropShadow" result="effect2_dropShadow"/>
<feBlend mode="normal" in="SourceGraphic" in2="effect2_dropShadow" result="shape"/>
</filter>
<linearGradient id="paint0_linear" x1="43" y1="50.7762" x2="58.7336" y2="50.7762" gradientUnits="userSpaceOnUse">
<stop stop-color="#F15A29"/>
<stop offset="0.35" stop-color="#F37024"/>
<stop offset="1" stop-color="#F7941D"/>
</linearGradient>
<linearGradient id="paint1_linear" x1="59.0644" y1="68.6799" x2="46.6793" y2="48.8538" gradientUnits="userSpaceOnUse">
<stop stop-color="#FBB040"/>
<stop offset="0.07" stop-color="#F99E3B"/>
<stop offset="0.18" stop-color="#F68635"/>
<stop offset="0.31" stop-color="#F4722F"/>
<stop offset="0.47" stop-color="#F2642C"/>
<stop offset="0.65" stop-color="#F15C2A"/>
<stop offset="1" stop-color="#F15A29"/>
</linearGradient>
<linearGradient id="paint2_linear" x1="65.0269" y1="57.5" x2="87.9998" y2="57.5" gradientUnits="userSpaceOnUse">
<stop stop-color="#F15A29"/>
<stop offset="0.43" stop-color="#F15C29"/>
<stop offset="0.63" stop-color="#F26427"/>
<stop offset="0.78" stop-color="#F37024"/>
<stop offset="0.9" stop-color="#F58221"/>
<stop offset="0.99" stop-color="#F7941D"/>
</linearGradient>
<linearGradient id="paint3_linear" x1="72.8407" y1="56.7948" x2="59.9181" y2="70.3086" gradientUnits="userSpaceOnUse">
<stop stop-color="#F7941D"/>
<stop offset="0.21" stop-color="#F57E22"/>
<stop offset="0.47" stop-color="#F36A26"/>
<stop offset="0.74" stop-color="#F15E28"/>
<stop offset="1" stop-color="#F15A29"/>
</linearGradient>
<clipPath id="clip0">
<rect width="45" height="23" fill="white" transform="translate(43 46)"/>
</clipPath>
</defs>
</svg>
