<svg width="201" height="196" viewBox="0 0 201 196" fill="none" xmlns="http://www.w3.org/2000/svg">
<g clip-path="url(#clip0)">
<path d="M8.375 8.39453H192.625V187.606H8.375V8.39453Z" fill="#2E001E"/>
<path d="M0 0.0195312V195.979H201V0.0195312H0ZM8.375 8.39388H192.625V187.605H8.375V8.39388Z" fill="#FF2BC2"/>
<path d="M145.976 82.3403C144.72 81.7541 143.129 81.5028 141.118 81.5028C130.566 81.5028 123.531 89.6259 123.531 103.109C123.531 118.517 130.734 124.714 140.114 124.714C142.124 124.714 144.301 124.463 145.892 123.793V82.3403H145.976ZM108.456 103.779C108.456 84.2664 121.019 69.025 141.621 69.025C143.38 69.025 144.301 69.025 145.976 69.1925V47.4192C145.976 46.9168 146.395 46.5818 146.814 46.5818H160.297C160.967 46.5818 161.135 46.833 161.135 47.2517V123.793C161.135 126.054 161.135 128.902 161.553 132C161.553 132.586 161.554 132.67 161.051 132.921C154.016 136.271 146.646 137.778 139.611 137.778C121.437 137.778 108.456 126.557 108.456 103.779ZM79.8973 90.2121L103.347 135.685C103.766 136.355 103.515 137.025 102.845 137.025H88.2723C87.351 137.025 86.9323 136.774 86.5135 135.936C81.1535 124.882 75.7098 113.409 70.0985 101.518H69.931C64.906 112.739 59.3785 124.966 54.0185 136.02C53.5998 136.69 53.181 136.941 52.511 136.941H38.6085C37.771 136.941 37.6873 136.271 38.106 135.769L61.0535 91.6358L38.8598 47.7542C38.3573 47.0843 38.8598 46.498 39.446 46.498H53.851C54.6885 46.498 55.1073 46.6655 55.3585 47.4192C60.6348 58.5571 65.9948 69.5275 71.0198 80.7491H71.1873C76.0448 69.695 81.4048 58.5571 86.5135 47.5867C86.9323 46.9168 87.1835 46.498 88.021 46.498H101.505C102.175 46.498 102.426 47.0005 102.007 47.7542L79.8973 90.2121Z" fill="#FF2BC2"/>
</g>
<defs>
<clipPath id="clip0">
<rect width="201" height="196" fill="white"/>
</clipPath>
</defs>
</svg>
