<svg width="1744" height="537" viewBox="0 0 1744 537" fill="none" xmlns="http://www.w3.org/2000/svg">
<path d="M696.448 46L688.336 15.904H694.576L698.656 32.848C698.752 33.296 698.864 33.84 698.992 34.48C699.12 35.12 699.44 36.96 699.952 40C700.464 37.024 700.784 35.2 700.912 34.528C701.04 33.856 701.152 33.312 701.248 32.896L705.52 15.904H711.568L715.888 32.848C716.016 33.296 716.144 33.856 716.272 34.528C716.4 35.168 716.72 36.976 717.232 39.952C717.584 37.968 717.856 36.4 718.048 35.248C718.272 34.064 718.432 33.28 718.528 32.896L722.512 15.904H728.56L720.448 46H713.872L710.464 33.376C710.144 32.064 709.824 30.656 709.504 29.152C709.184 27.616 708.832 25.808 708.448 23.728C708.16 25.296 707.84 26.896 707.488 28.528C707.168 30.128 706.816 31.744 706.432 33.376L703.072 46H696.448ZM737.083 46H731.515V14.08H737.083V24.064C738.427 23.328 739.771 22.768 741.115 22.384C742.459 22 743.755 21.808 745.003 21.808C747.659 21.808 749.643 22.464 750.955 23.776C752.299 25.056 752.971 26.992 752.971 29.584V46H747.403V30.304C747.403 29.088 747.067 28.208 746.395 27.664C745.755 27.088 744.715 26.8 743.275 26.8C742.283 26.8 741.243 26.912 740.155 27.136C739.067 27.36 738.043 27.664 737.083 28.048V46ZM763.614 46.432C761.182 46.432 759.39 45.84 758.238 44.656C757.118 43.44 756.558 41.552 756.558 38.992C756.558 36.368 757.23 34.512 758.574 33.424C759.95 32.336 762.302 31.792 765.63 31.792C766.558 31.792 767.502 31.84 768.462 31.936C769.422 32.032 770.254 32.16 770.958 32.32V30.304C770.958 29.056 770.574 28.144 769.806 27.568C769.038 26.992 767.822 26.704 766.158 26.704C764.654 26.704 763.31 26.752 762.126 26.848C760.974 26.944 759.87 27.104 758.814 27.328V22.672C760.03 22.384 761.342 22.176 762.75 22.048C764.19 21.888 765.886 21.808 767.838 21.808C770.75 21.808 772.926 22.48 774.366 23.824C775.806 25.136 776.526 27.12 776.526 29.776V46H771.39L771.15 43.888H771.054C770.03 44.656 768.846 45.28 767.502 45.76C766.19 46.208 764.894 46.432 763.614 46.432ZM766.302 35.776C764.574 35.776 763.39 35.984 762.75 36.4C762.11 36.784 761.79 37.536 761.79 38.656C761.79 39.744 762.046 40.528 762.558 41.008C763.102 41.456 764.014 41.68 765.294 41.68C766.222 41.68 767.198 41.552 768.222 41.296C769.278 41.008 770.19 40.656 770.958 40.24V36.16C770.19 36.032 769.422 35.936 768.654 35.872C767.918 35.808 767.134 35.776 766.302 35.776ZM796.222 40.816V45.568C795.678 45.792 794.91 45.984 793.918 46.144C792.958 46.336 792.078 46.432 791.278 46.432C788.238 46.432 786.062 45.776 784.75 44.464C783.438 43.12 782.782 40.896 782.782 37.792V26.944H779.614V22.288H782.926L783.694 16.624H788.35V22.288H795.934V26.944H788.35V37.6C788.35 39.008 788.654 39.968 789.262 40.48C789.87 40.992 790.958 41.248 792.526 41.248C793.07 41.248 793.71 41.216 794.446 41.152C795.182 41.056 795.774 40.944 796.222 40.816ZM831.9 40V44.656C831.068 45.136 829.82 45.552 828.156 45.904C826.524 46.256 824.828 46.432 823.068 46.432C819.676 46.432 817.292 45.52 815.916 43.696C814.54 41.872 813.852 38.672 813.852 34.096C813.852 29.584 814.732 26.416 816.492 24.592C818.284 22.736 821.356 21.808 825.708 21.808C826.764 21.808 827.708 21.84 828.54 21.904C829.404 21.936 830.316 22.016 831.276 22.144V27.088C830.028 26.992 828.94 26.928 828.012 26.896C827.084 26.832 826.316 26.8 825.708 26.8C823.084 26.8 821.372 27.264 820.572 28.192C819.804 29.12 819.42 31.088 819.42 34.096C819.42 37.008 819.724 38.928 820.332 39.856C820.972 40.784 822.284 41.248 824.268 41.248C825.58 41.248 826.924 41.136 828.3 40.912C829.708 40.656 830.908 40.352 831.9 40ZM841.192 14.08V46H835.624V14.08H841.192ZM852.118 18.928H846.214V14.08H852.118V18.928ZM851.974 46H846.406V22.288H851.974V46ZM875.907 40.192V44.704C875.107 45.184 873.843 45.6 872.115 45.952C870.419 46.272 868.643 46.432 866.787 46.432C863.011 46.432 860.291 45.472 858.627 43.552C856.995 41.632 856.179 38.464 856.179 34.048C856.179 29.792 857.043 26.688 858.771 24.736C860.499 22.784 863.235 21.808 866.979 21.808C870.595 21.808 873.155 22.56 874.659 24.064C876.163 25.568 876.915 28.144 876.915 31.792C876.915 32.464 876.899 33.088 876.867 33.664C876.835 34.208 876.771 34.976 876.675 35.968H861.795C861.827 37.952 862.259 39.344 863.091 40.144C863.955 40.944 865.475 41.344 867.651 41.344C869.091 41.344 870.579 41.232 872.115 41.008C873.651 40.784 874.915 40.512 875.907 40.192ZM866.979 26.656C865.027 26.656 863.667 27.04 862.899 27.808C862.163 28.576 861.795 29.968 861.795 31.984H871.827V30.976C871.795 29.344 871.427 28.224 870.723 27.616C870.019 26.976 868.771 26.656 866.979 26.656ZM886.708 46H881.14V22.288H885.94L886.18 24.688H886.324C887.444 23.696 888.644 22.976 889.924 22.528C891.236 22.048 892.772 21.808 894.532 21.808C897.156 21.808 899.156 22.464 900.532 23.776C901.908 25.088 902.596 27.024 902.596 29.584V46H897.028V30.304C897.028 29.152 896.644 28.288 895.876 27.712C895.14 27.104 894.036 26.8 892.564 26.8C891.508 26.8 890.484 26.944 889.492 27.232C888.5 27.488 887.572 27.888 886.708 28.432V46ZM922.269 40.816V45.568C921.725 45.792 920.957 45.984 919.965 46.144C919.005 46.336 918.125 46.432 917.325 46.432C914.285 46.432 912.109 45.776 910.797 44.464C909.485 43.12 908.829 40.896 908.829 37.792V26.944H905.661V22.288H908.973L909.741 16.624H914.397V22.288H921.981V26.944H914.397V37.6C914.397 39.008 914.701 39.968 915.309 40.48C915.917 40.992 917.005 41.248 918.573 41.248C919.117 41.248 919.757 41.216 920.493 41.152C921.229 41.056 921.821 40.944 922.269 40.816ZM934.317 26.608C932.621 26.608 931.453 26.784 930.813 27.136C930.205 27.456 929.901 28.176 929.901 29.296C929.901 29.84 930.029 30.256 930.285 30.544C930.541 30.8 930.973 30.976 931.581 31.072L937.485 31.936C939.373 32.192 940.685 32.784 941.421 33.712C942.189 34.64 942.573 36.112 942.573 38.128C942.573 41.04 941.901 43.152 940.557 44.464C939.213 45.776 936.925 46.432 933.693 46.432C931.837 46.432 930.141 46.352 928.605 46.192C927.069 46.032 925.773 45.792 924.717 45.472V40.528C925.709 40.784 926.925 41.008 928.365 41.2C929.805 41.36 931.261 41.44 932.733 41.44C934.397 41.44 935.517 41.232 936.093 40.816C936.701 40.4 937.005 39.616 937.005 38.464C937.005 37.888 936.861 37.456 936.573 37.168C936.285 36.848 935.805 36.64 935.133 36.544L929.133 35.68C927.501 35.456 926.301 34.848 925.533 33.856C924.765 32.832 924.381 31.36 924.381 29.44C924.381 26.848 925.165 24.928 926.733 23.68C928.333 22.432 930.749 21.808 933.981 21.808C935.293 21.808 936.493 21.84 937.581 21.904C938.669 21.968 939.789 22.096 940.941 22.288V27.04C940.109 26.912 939.101 26.816 937.917 26.752C936.765 26.656 935.565 26.608 934.317 26.608ZM963.145 26.608C961.449 26.608 960.281 26.784 959.641 27.136C959.033 27.456 958.729 28.176 958.729 29.296C958.729 29.84 958.857 30.256 959.113 30.544C959.369 30.8 959.801 30.976 960.409 31.072L966.313 31.936C968.201 32.192 969.513 32.784 970.249 33.712C971.017 34.64 971.401 36.112 971.401 38.128C971.401 41.04 970.729 43.152 969.385 44.464C968.041 45.776 965.753 46.432 962.521 46.432C960.665 46.432 958.969 46.352 957.433 46.192C955.897 46.032 954.601 45.792 953.545 45.472V40.528C954.537 40.784 955.753 41.008 957.193 41.2C958.633 41.36 960.089 41.44 961.561 41.44C963.225 41.44 964.345 41.232 964.921 40.816C965.529 40.4 965.833 39.616 965.833 38.464C965.833 37.888 965.689 37.456 965.401 37.168C965.113 36.848 964.633 36.64 963.961 36.544L957.961 35.68C956.329 35.456 955.129 34.848 954.361 33.856C953.593 32.832 953.209 31.36 953.209 29.44C953.209 26.848 953.993 24.928 955.561 23.68C957.161 22.432 959.577 21.808 962.809 21.808C964.121 21.808 965.321 21.84 966.409 21.904C967.497 21.968 968.617 22.096 969.769 22.288V27.04C968.937 26.912 967.929 26.816 966.745 26.752C965.593 26.656 964.393 26.608 963.145 26.608ZM980.974 46.432C978.542 46.432 976.75 45.84 975.598 44.656C974.478 43.44 973.918 41.552 973.918 38.992C973.918 36.368 974.59 34.512 975.934 33.424C977.31 32.336 979.662 31.792 982.99 31.792C983.918 31.792 984.862 31.84 985.822 31.936C986.782 32.032 987.614 32.16 988.318 32.32V30.304C988.318 29.056 987.934 28.144 987.166 27.568C986.398 26.992 985.182 26.704 983.518 26.704C982.014 26.704 980.67 26.752 979.486 26.848C978.334 26.944 977.23 27.104 976.174 27.328V22.672C977.39 22.384 978.702 22.176 980.11 22.048C981.55 21.888 983.246 21.808 985.198 21.808C988.11 21.808 990.286 22.48 991.726 23.824C993.166 25.136 993.886 27.12 993.886 29.776V46H988.75L988.51 43.888H988.414C987.39 44.656 986.206 45.28 984.862 45.76C983.55 46.208 982.254 46.432 980.974 46.432ZM983.662 35.776C981.934 35.776 980.75 35.984 980.11 36.4C979.47 36.784 979.15 37.536 979.15 38.656C979.15 39.744 979.406 40.528 979.918 41.008C980.462 41.456 981.374 41.68 982.654 41.68C983.582 41.68 984.558 41.552 985.582 41.296C986.638 41.008 987.55 40.656 988.318 40.24V36.16C987.55 36.032 986.782 35.936 986.014 35.872C985.278 35.808 984.494 35.776 983.662 35.776ZM1001.16 48.928C1002.34 48.928 1003.22 48.704 1003.8 48.256C1004.37 47.84 1004.87 46.944 1005.28 45.568L995.972 22.288H1002.21L1008.12 40.096L1013.73 22.288H1019.73L1010.66 47.056C1009.76 49.488 1008.66 51.216 1007.35 52.24C1006.07 53.264 1004.37 53.776 1002.26 53.776C1001.62 53.776 1000.96 53.744 1000.29 53.68C999.62 53.616 999.028 53.536 998.516 53.44V48.784C998.772 48.848 999.076 48.88 999.428 48.88C999.78 48.912 1000.36 48.928 1001.16 48.928ZM1031.11 26.608C1029.42 26.608 1028.25 26.784 1027.61 27.136C1027 27.456 1026.7 28.176 1026.7 29.296C1026.7 29.84 1026.83 30.256 1027.08 30.544C1027.34 30.8 1027.77 30.976 1028.38 31.072L1034.28 31.936C1036.17 32.192 1037.48 32.784 1038.22 33.712C1038.99 34.64 1039.37 36.112 1039.37 38.128C1039.37 41.04 1038.7 43.152 1037.35 44.464C1036.01 45.776 1033.72 46.432 1030.49 46.432C1028.63 46.432 1026.94 46.352 1025.4 46.192C1023.87 46.032 1022.57 45.792 1021.51 45.472V40.528C1022.51 40.784 1023.72 41.008 1025.16 41.2C1026.6 41.36 1028.06 41.44 1029.53 41.44C1031.19 41.44 1032.31 41.232 1032.89 40.816C1033.5 40.4 1033.8 39.616 1033.8 38.464C1033.8 37.888 1033.66 37.456 1033.37 37.168C1033.08 36.848 1032.6 36.64 1031.93 36.544L1025.93 35.68C1024.3 35.456 1023.1 34.848 1022.33 33.856C1021.56 32.832 1021.18 31.36 1021.18 29.44C1021.18 26.848 1021.96 24.928 1023.53 23.68C1025.13 22.432 1027.55 21.808 1030.78 21.808C1032.09 21.808 1033.29 21.84 1034.38 21.904C1035.47 21.968 1036.59 22.096 1037.74 22.288V27.04C1036.91 26.912 1035.9 26.816 1034.71 26.752C1033.56 26.656 1032.36 26.608 1031.11 26.608ZM1043.13 15.904H1049.47L1048.75 37.024H1043.85L1043.13 15.904ZM1049.18 40.816V46H1043.42V40.816H1049.18Z" fill="#1C8463"/>
<g filter="url(#filter0_dd)">
<path d="M30 142H1714V506.5L1632 467H30V142Z" fill="#EAF5DD"/>
</g>
<path d="M559.641 242.953V272.344H537.281V249.141C537.281 235.922 538.875 226.125 542.062 219.75C545.25 213.375 549.984 208.406 556.266 204.844L561.469 214.828C557.531 216.797 554.484 219.844 552.328 223.969C550.172 228.094 548.953 234.422 548.672 242.953H559.641ZM523.781 242.953V272.344H501.562V249.141C501.562 235.922 503.109 226.125 506.203 219.75C509.391 213.375 514.172 208.406 520.547 204.844L525.75 214.828C521.812 216.797 518.766 219.844 516.609 223.969C514.453 228 513.234 234.328 512.953 242.953H523.781Z" fill="#1C8463"/>
<path d="M1496.36 339.047V309.656H1518.72V332.859C1518.72 346.078 1517.12 355.875 1513.94 362.25C1510.75 368.625 1506.02 373.594 1499.73 377.156L1494.53 367.172C1498.47 365.203 1501.52 362.156 1503.67 358.031C1505.83 353.906 1507.05 347.578 1507.33 339.047H1496.36ZM1532.22 339.047V309.656H1554.44V332.859C1554.44 346.078 1552.89 355.875 1549.8 362.25C1546.61 368.625 1541.83 373.594 1535.45 377.156L1530.25 367.172C1534.19 365.203 1537.23 362.156 1539.39 358.031C1541.55 354 1542.77 347.672 1543.05 339.047H1532.22Z" fill="#1C8463"/>
<path d="M1369.5 397L1374.33 411.856H1389.95L1377.31 421.038L1382.14 435.894L1369.5 426.712L1356.86 435.894L1361.69 421.038L1349.05 411.856H1364.67L1369.5 397Z" fill="#FDF303"/>
<path d="M1412.5 397L1417.33 411.856H1432.95L1420.31 421.038L1425.14 435.894L1412.5 426.712L1399.86 435.894L1404.69 421.038L1392.05 411.856H1407.67L1412.5 397Z" fill="#FDF303"/>
<path d="M1456 397L1460.94 411.856H1476.92L1463.99 421.038L1468.93 435.894L1456 426.712L1443.07 435.894L1448.01 421.038L1435.08 411.856H1451.06L1456 397Z" fill="#FDF303"/>
<path d="M1542.5 397L1547.33 411.856H1562.95L1550.31 421.038L1555.14 435.894L1542.5 426.712L1529.86 435.894L1534.69 421.038L1522.05 411.856H1537.67L1542.5 397Z" fill="#FDF303"/>
<path d="M1499.5 397L1504.33 411.856H1519.95L1507.31 421.038L1512.14 435.894L1499.5 426.712L1486.86 435.894L1491.69 421.038L1479.05 411.856H1494.67L1499.5 397Z" fill="#FDF303"/>
<defs>
<filter id="filter0_dd" x="0" y="112" width="1744" height="424.5" filterUnits="userSpaceOnUse" color-interpolation-filters="sRGB">
<feFlood flood-opacity="0" result="BackgroundImageFix"/>
<feColorMatrix in="SourceAlpha" type="matrix" values="0 0 0 0 0 0 0 0 0 0 0 0 0 0 0 0 0 0 127 0"/>
<feOffset dx="10" dy="10"/>
<feGaussianBlur stdDeviation="10"/>
<feColorMatrix type="matrix" values="0 0 0 0 0 0 0 0 0 0 0 0 0 0 0 0 0 0 0.1 0"/>
<feBlend mode="normal" in2="BackgroundImageFix" result="effect1_dropShadow"/>
<feColorMatrix in="SourceAlpha" type="matrix" values="0 0 0 0 0 0 0 0 0 0 0 0 0 0 0 0 0 0 127 0"/>
<feOffset dx="-10" dy="-10"/>
<feGaussianBlur stdDeviation="10"/>
<feColorMatrix type="matrix" values="0 0 0 0 0 0 0 0 0 0 0 0 0 0 0 0 0 0 0.1 0"/>
<feBlend mode="normal" in2="effect1_dropShadow" result="effect2_dropShadow"/>
<feBlend mode="normal" in="SourceGraphic" in2="effect2_dropShadow" result="shape"/>
</filter>
</defs>
</svg>
