<svg width="133" height="200" viewBox="0 0 133 200" fill="none" xmlns="http://www.w3.org/2000/svg">
<path d="M33.2565 200.001C51.6069 200.001 66.4999 185.067 66.4999 166.667V133.334H33.2565C14.9062 133.334 0.0131836 148.267 0.0131836 166.667C0.0131836 185.067 14.9062 200.001 33.2565 200.001Z" fill="#0ACF83"/>
<path d="M0.0131836 99.9993C0.0131836 81.5993 14.9062 66.666 33.2565 66.666H66.4999V133.333H33.2565C14.9062 133.333 0.0131836 118.399 0.0131836 99.9993Z" fill="#A259FF"/>
<path d="M0.0131836 33.3333C0.0131836 14.9333 14.9062 0 33.2565 0H66.4999V66.6667H33.2565C14.9062 66.6667 0.0131836 51.7333 0.0131836 33.3333Z" fill="#F24E1E"/>
<path d="M66.5 0H99.7433C118.094 0 132.987 14.9333 132.987 33.3333C132.987 51.7333 118.094 66.6667 99.7433 66.6667H66.5V0Z" fill="#FF7262"/>
<path d="M132.987 99.9993C132.987 118.399 118.094 133.333 99.7433 133.333C81.393 133.333 66.5 118.399 66.5 99.9993C66.5 81.5993 81.393 66.666 99.7433 66.666C118.094 66.666 132.987 81.5993 132.987 99.9993Z" fill="#1ABCFE"/>
</svg>
