<svg width="243" height="181" viewBox="0 0 243 181" fill="none" xmlns="http://www.w3.org/2000/svg">
<g clip-path="url(#clip0)">
<path d="M84.9165 55.498H116.274" stroke="#3F3D56" stroke-width="2" stroke-miterlimit="10"/>
<path d="M47.5599 90.0481C49.256 85.6181 49.5016 81.5959 48.1086 81.0643C46.7156 80.5327 44.2114 83.6931 42.5153 88.1232C40.8193 92.5532 40.5736 96.5755 41.9666 97.107C43.3597 97.6386 45.8639 94.4782 47.5599 90.0481Z" fill="#2F2E41"/>
<path d="M242.003 110.722C245.414 136.068 240.769 161.442 217.142 171.323C193.514 181.203 166.337 170.091 156.441 146.503C146.544 122.914 169.895 108.8 181.302 85.9013C204.466 39.4008 231.409 32.0086 242.003 110.722Z" fill="#F2F2F2"/>
<path d="M199.467 177.739C219.912 177.739 236.486 175.488 236.486 172.711C236.486 169.935 219.912 167.684 199.467 167.684C179.022 167.684 162.448 169.935 162.448 172.711C162.448 175.488 179.022 177.739 199.467 177.739Z" fill="#3F3D56"/>
<path d="M175.25 159.914L176.643 164.943L185.668 162.453L184.275 157.424L175.25 159.914Z" fill="#2F2E41"/>
<path d="M175.872 165.832C176.741 165.592 176.926 163.521 176.286 161.207C175.645 158.892 174.42 157.21 173.551 157.45C172.682 157.69 172.496 159.761 173.137 162.076C173.778 164.39 175.002 166.072 175.872 165.832Z" fill="#2F2E41"/>
<path d="M203.737 142.617C204.375 137.917 203.694 133.945 202.216 133.745C200.738 133.545 199.023 137.193 198.385 141.893C197.747 146.593 198.428 150.564 199.906 150.764C201.383 150.964 203.099 147.317 203.737 142.617Z" fill="#2F2E41"/>
<path d="M199.377 175.508C208.877 175.508 216.579 167.818 216.579 158.333C216.579 148.848 208.877 141.158 199.377 141.158C189.876 141.158 182.174 148.848 182.174 158.333C182.174 167.818 189.876 175.508 199.377 175.508Z" fill="#2F2E41"/>
<path d="M175.25 156.871L176.643 161.9L185.668 159.41L184.275 154.381L175.25 156.871Z" fill="#2F2E41"/>
<path d="M175.872 162.789C176.741 162.549 176.926 160.478 176.286 158.164C175.645 155.849 174.42 154.167 173.551 154.407C172.682 154.647 172.496 156.718 173.137 159.033C173.778 161.347 175.002 163.029 175.872 162.789Z" fill="#2F2E41"/>
<path d="M203.894 154.365C207.141 154.365 209.773 151.737 209.773 148.495C209.773 145.253 207.141 142.625 203.894 142.625C200.647 142.625 198.014 145.253 198.014 148.495C198.014 151.737 200.647 154.365 203.894 154.365Z" fill="white"/>
<path d="M205.775 147.859C206.857 147.859 207.734 146.983 207.734 145.902C207.734 144.821 206.857 143.945 205.775 143.945C204.692 143.945 203.815 144.821 203.815 145.902C203.815 146.983 204.692 147.859 205.775 147.859Z" fill="#3F3D56"/>
<path d="M219.243 170.136C225.609 169.818 230.485 163.873 230.133 156.858C229.781 149.843 224.336 144.414 217.97 144.732C211.604 145.05 210.605 150.039 210.956 157.054C211.308 164.07 212.877 170.454 219.243 170.136Z" fill="#00BFA6"/>
<path d="M192.346 151.065C191.31 151.149 190.283 150.818 189.491 150.145C188.7 149.473 188.208 148.515 188.124 147.48C188.04 146.446 188.371 145.421 189.044 144.63C189.717 143.84 190.677 143.348 191.713 143.264C193.871 143.09 194.46 144.8 194.634 146.954C194.809 149.108 194.504 150.891 192.346 151.065Z" fill="white"/>
<path d="M10.7712 78.4881H107.128L122.067 85.754L145.869 97.3311L161.432 68.2402H205.472" stroke="#3F3D56" stroke-width="2" stroke-miterlimit="10"/>
<path d="M48.5192 84.5071C50.165 84.5071 51.4993 83.175 51.4993 81.5318C51.4993 79.8887 50.165 78.5566 48.5192 78.5566C46.8733 78.5566 45.5391 79.8887 45.5391 81.5318C45.5391 83.175 46.8733 84.5071 48.5192 84.5071Z" fill="#00BFA6"/>
<path d="M76.3331 81.4621C77.979 81.4621 79.3132 80.1301 79.3132 78.4869C79.3132 76.8438 77.979 75.5117 76.3331 75.5117C74.6873 75.5117 73.353 76.8438 73.353 78.4869C73.353 80.1301 74.6873 81.4621 76.3331 81.4621Z" fill="#00BFA6"/>
<path d="M122.028 88.7356C123.674 88.7356 125.009 87.4035 125.009 85.7604C125.009 84.1172 123.674 82.7852 122.028 82.7852C120.383 82.7852 119.048 84.1172 119.048 85.7604C119.048 87.4035 120.383 88.7356 122.028 88.7356Z" fill="#00BFA6"/>
<path d="M186.266 71.2141C187.912 71.2141 189.247 69.882 189.247 68.2389C189.247 66.5957 187.912 65.2637 186.266 65.2637C184.621 65.2637 183.286 66.5957 183.286 68.2389C183.286 69.882 184.621 71.2141 186.266 71.2141Z" fill="#00BFA6"/>
<path d="M155.141 82.7844C156.787 82.7844 158.121 81.4524 158.121 79.8092C158.121 78.166 156.787 76.834 155.141 76.834C153.495 76.834 152.161 78.166 152.161 79.8092C152.161 81.4524 153.495 82.7844 155.141 82.7844Z" fill="#00BFA6"/>
<path d="M93.1082 129.613C94.8827 129.613 96.3213 128.177 96.3213 126.405C96.3213 124.633 94.8827 123.197 93.1082 123.197C91.3336 123.197 89.895 124.633 89.895 126.405C89.895 128.177 91.3336 129.613 93.1082 129.613Z" stroke="#3F3D56" stroke-width="2" stroke-miterlimit="10"/>
<path d="M37.019 181.001C57.464 181.001 74.038 178.75 74.038 175.973C74.038 173.196 57.464 170.945 37.019 170.945C16.574 170.945 0 173.196 0 175.973C0 178.75 16.574 181.001 37.019 181.001Z" fill="#3F3D56"/>
<path d="M35.0164 168.582C44.5173 168.582 52.2194 160.892 52.2194 151.407C52.2194 141.922 44.5173 134.232 35.0164 134.232C25.5155 134.232 17.8135 141.922 17.8135 151.407C17.8135 160.892 25.5155 168.582 35.0164 168.582Z" fill="#2F2E41"/>
<path d="M32.4035 164.885H27.1772V174.233H32.4035V164.885Z" fill="#2F2E41"/>
<path d="M42.8559 164.885H37.6296V174.233H42.8559V164.885Z" fill="#2F2E41"/>
<path d="M31.5324 175.972C33.9377 175.972 35.8876 175.242 35.8876 174.341C35.8876 173.441 33.9377 172.711 31.5324 172.711C29.1271 172.711 27.1772 173.441 27.1772 174.341C27.1772 175.242 29.1271 175.972 31.5324 175.972Z" fill="#2F2E41"/>
<path d="M41.9848 175.755C44.3901 175.755 46.34 175.025 46.34 174.125C46.34 173.224 44.3901 172.494 41.9848 172.494C39.5795 172.494 37.6296 173.224 37.6296 174.125C37.6296 175.025 39.5795 175.755 41.9848 175.755Z" fill="#2F2E41"/>
<path d="M35.452 152.929C38.6991 152.929 41.3315 150.301 41.3315 147.059C41.3315 143.817 38.6991 141.189 35.452 141.189C32.2048 141.189 29.5725 143.817 29.5725 147.059C29.5725 150.301 32.2048 152.929 35.452 152.929Z" fill="white"/>
<path d="M35.452 149.015C36.5344 149.015 37.4118 148.139 37.4118 147.058C37.4118 145.978 36.5344 145.102 35.452 145.102C34.3696 145.102 33.4922 145.978 33.4922 147.058C33.4922 148.139 34.3696 149.015 35.452 149.015Z" fill="#3F3D56"/>
<path d="M18.3293 135.434C16.9402 129.224 21.3805 122.948 28.2469 121.417C35.1133 119.887 41.8056 123.68 43.1947 129.891C44.5838 136.102 40.0332 138.392 33.1668 139.923C26.3004 141.454 19.7183 141.645 18.3293 135.434Z" fill="#00BFA6"/>
<path d="M29.137 119.232C38.6379 119.232 46.34 111.543 46.34 102.057C46.34 92.5722 38.6379 84.8828 29.137 84.8828C19.6361 84.8828 11.9341 92.5722 11.9341 102.057C11.9341 111.543 19.6361 119.232 29.137 119.232Z" fill="#2F2E41"/>
<path d="M26.5238 115.535H21.2976V124.883H26.5238V115.535Z" fill="#2F2E41"/>
<path d="M36.9762 115.535H31.75V124.883H36.9762V115.535Z" fill="#2F2E41"/>
<path d="M25.6528 126.622C28.0581 126.622 30.008 125.892 30.008 124.992C30.008 124.091 28.0581 123.361 25.6528 123.361C23.2475 123.361 21.2976 124.091 21.2976 124.992C21.2976 125.892 23.2475 126.622 25.6528 126.622Z" fill="#2F2E41"/>
<path d="M36.1052 126.406C38.5105 126.406 40.4604 125.676 40.4604 124.775C40.4604 123.875 38.5105 123.145 36.1052 123.145C33.6999 123.145 31.75 123.875 31.75 124.775C31.75 125.676 33.6999 126.406 36.1052 126.406Z" fill="#2F2E41"/>
<path d="M29.5726 103.578C32.8198 103.578 35.4521 100.95 35.4521 97.7077C35.4521 94.4659 32.8198 91.8379 29.5726 91.8379C26.3255 91.8379 23.6931 94.4659 23.6931 97.7077C23.6931 100.95 26.3255 103.578 29.5726 103.578Z" fill="white"/>
<path d="M29.5726 99.6651C30.655 99.6651 31.5324 98.7891 31.5324 97.7085C31.5324 96.6279 30.655 95.752 29.5726 95.752C28.4902 95.752 27.6128 96.6279 27.6128 97.7085C27.6128 98.7891 28.4902 99.6651 29.5726 99.6651Z" fill="#3F3D56"/>
<path d="M12.4496 86.0846C11.0606 79.874 15.5008 73.5984 22.3672 72.0677C29.2336 70.537 35.926 74.3309 37.3151 80.5415C38.7041 86.7521 34.1535 89.0427 27.2871 90.5734C20.4207 92.1041 13.8387 92.2952 12.4496 86.0846Z" fill="#00BFA6"/>
<path d="M17.5323 97.7678C18.1713 96.4226 15.2099 93.6845 10.9177 91.6522C6.62557 89.6198 2.628 89.0628 1.98893 90.408C1.34986 91.7532 4.31128 94.4913 8.60346 96.5237C12.8956 98.556 16.8932 99.1131 17.5323 97.7678Z" fill="#2F2E41"/>
<path d="M20.687 108.252C20.687 109.933 25.0223 113.252 29.8329 113.252C34.6435 113.252 39.1539 108.52 39.1539 106.839C39.1539 105.158 34.6435 107.165 29.8329 107.165C25.0223 107.165 20.687 106.571 20.687 108.252Z" fill="white"/>
<path d="M209.397 122.77H181.932V136.718H209.397V122.77Z" fill="#00BFA6"/>
<path d="M207.248 125.033H179.782V138.982H207.248V125.033Z" stroke="#3F3D56" stroke-width="2" stroke-miterlimit="10"/>
<path d="M57.184 43.2637H49.3447V51.0901H57.184V43.2637Z" fill="#FF6584"/>
<path d="M55.2243 40.6543H47.385V48.4807H55.2243V40.6543Z" stroke="#3F3D56" stroke-width="2" stroke-miterlimit="10"/>
<path d="M197.301 58.365C206.802 58.365 214.504 50.6756 214.504 41.1903C214.504 31.705 206.802 24.0156 197.301 24.0156C187.8 24.0156 180.098 31.705 180.098 41.1903C180.098 50.6756 187.8 58.365 197.301 58.365Z" fill="#2F2E41"/>
<path d="M203.944 63.1872L209.087 62.2578L207.419 53.059L202.277 53.9885L203.944 63.1872Z" fill="#2F2E41"/>
<path d="M193.66 65.0466L198.802 64.1172L197.134 54.9185L191.992 55.8479L193.66 65.0466Z" fill="#2F2E41"/>
<path d="M196.39 66.9832C198.225 65.4313 199.241 63.6161 198.658 62.929C198.075 62.2418 196.115 62.9428 194.279 64.4947C192.444 66.0466 191.428 67.8618 192.011 68.5489C192.594 69.2361 194.554 68.5351 196.39 66.9832Z" fill="#2F2E41"/>
<path d="M206.46 65.1629C208.296 63.611 209.311 61.7958 208.728 61.1086C208.145 60.4214 206.185 61.1225 204.349 62.6744C202.514 64.2263 201.498 66.0414 202.081 66.7286C202.664 67.4158 204.625 66.7148 206.46 65.1629Z" fill="#2F2E41"/>
<path d="M196.096 42.8588C199.343 42.8588 201.976 40.2308 201.976 36.989C201.976 33.7471 199.343 31.1191 196.096 31.1191C192.849 31.1191 190.217 33.7471 190.217 36.989C190.217 40.2308 192.849 42.8588 196.096 42.8588Z" fill="white"/>
<path d="M193.68 36.8429C194.762 36.8429 195.64 35.9669 195.64 34.8863C195.64 33.8057 194.762 32.9297 193.68 32.9297C192.597 32.9297 191.72 33.8057 191.72 34.8863C191.72 35.9669 192.597 36.8429 193.68 36.8429Z" fill="#3F3D56"/>
<path d="M210.871 22.5056C211.13 16.1472 205.641 10.7617 198.611 10.4766C191.581 10.1915 185.673 15.1149 185.414 21.4732C185.156 27.8315 190.042 29.2762 197.072 29.5613C204.102 29.8463 210.612 28.8639 210.871 22.5056Z" fill="#00BFA6"/>
<path d="M189.8 39.981C190.133 38.5298 186.649 36.4943 182.019 35.4347C177.389 34.3751 173.365 34.6926 173.032 36.1438C172.699 37.595 176.182 39.6305 180.813 40.6901C185.443 41.7497 189.467 41.4322 189.8 39.981Z" fill="#2F2E41"/>
<path d="M223.569 45.5884C223.902 44.1372 220.419 42.1018 215.788 41.0421C211.158 39.9825 207.134 40.3 206.801 41.7512C206.468 43.2025 209.951 45.2379 214.582 46.2975C219.212 47.3571 223.236 47.0397 223.569 45.5884Z" fill="#2F2E41"/>
<path d="M202.026 47.9583C202.117 48.464 202.109 48.9827 201.999 49.485C201.89 49.9872 201.683 50.463 201.39 50.8853C201.097 51.3076 200.723 51.6681 200.29 51.9462C199.857 52.2242 199.374 52.4145 198.867 52.506C198.361 52.5976 197.841 52.5886 197.338 52.4797C196.835 52.3707 196.358 52.1639 195.935 51.8711C195.512 51.5783 195.151 51.2051 194.873 50.773C194.594 50.3408 194.404 49.8581 194.312 49.3525C193.926 47.2258 195.573 46.4733 197.703 46.0883C199.833 45.7033 201.64 45.8317 202.026 47.9583Z" fill="white"/>
<path d="M155.176 21.5234L174.992 36.7415" stroke="#3F3D56" stroke-width="2" stroke-miterlimit="10"/>
<path d="M145.812 29.5665C153.99 29.5665 160.62 22.9478 160.62 14.7833C160.62 6.61869 153.99 0 145.812 0C137.634 0 131.004 6.61869 131.004 14.7833C131.004 22.9478 137.634 29.5665 145.812 29.5665Z" fill="#FF6584"/>
<path d="M197.279 146.699C197.917 141.999 197.237 138.027 195.759 137.827C194.281 137.627 192.566 141.275 191.928 145.975C191.29 150.675 191.97 154.646 193.448 154.846C194.926 155.046 196.641 151.399 197.279 146.699Z" fill="#2F2E41"/>
<path d="M14.9843 173.859C16.6301 173.859 17.9644 172.527 17.9644 170.883C17.9644 169.24 16.6301 167.908 14.9843 167.908C13.3384 167.908 12.0042 169.24 12.0042 170.883C12.0042 172.527 13.3384 173.859 14.9843 173.859Z" fill="#00BFA6"/>
<path d="M63.717 167.398H55.8777V175.225H63.717V167.398Z" fill="#FF6584"/>
<path d="M55.923 175.597C57.5689 175.597 58.9031 174.265 58.9031 172.622C58.9031 170.979 57.5689 169.646 55.923 169.646C54.2771 169.646 52.9429 170.979 52.9429 172.622C52.9429 174.265 54.2771 175.597 55.923 175.597Z" fill="#00BFA6"/>
<path d="M100.595 58.4172C102.241 58.4172 103.575 57.0852 103.575 55.442C103.575 53.7988 102.241 52.4668 100.595 52.4668C98.9492 52.4668 97.615 53.7988 97.615 55.442C97.615 57.0852 98.9492 58.4172 100.595 58.4172Z" fill="#00BFA6"/>
<path d="M158.467 149.092C159.253 149.092 159.89 148.455 159.89 147.671C159.89 146.886 159.253 146.25 158.467 146.25C157.681 146.25 157.044 146.886 157.044 147.671C157.044 148.455 157.681 149.092 158.467 149.092Z" fill="#FF6584"/>
<path d="M165.44 171.253V155.076" stroke="#3F3D56" stroke-width="2" stroke-miterlimit="10"/>
<path d="M165.44 157.362C166.705 157.362 167.731 156.338 167.731 155.075C167.731 153.811 166.705 152.787 165.44 152.787C164.174 152.787 163.148 153.811 163.148 155.075C163.148 156.338 164.174 157.362 165.44 157.362Z" fill="#3F3D56"/>
<path d="M165.44 165.046C165.44 165.046 165.113 158.017 158.402 158.834L165.44 165.046Z" fill="#3F3D56"/>
</g>
<defs>
<clipPath id="clip0">
<rect width="243" height="181" fill="white"/>
</clipPath>
</defs>
</svg>
