<svg width="1315" height="302" viewBox="0 0 1315 302" fill="none" xmlns="http://www.w3.org/2000/svg">
<path d="M9.448 46L1.336 15.904H7.576L11.656 32.848C11.752 33.296 11.864 33.84 11.992 34.48C12.12 35.12 12.44 36.96 12.952 40C13.464 37.024 13.784 35.2 13.912 34.528C14.04 33.856 14.152 33.312 14.248 32.896L18.52 15.904H24.568L28.888 32.848C29.016 33.296 29.144 33.856 29.272 34.528C29.4 35.168 29.72 36.976 30.232 39.952C30.584 37.968 30.856 36.4 31.048 35.248C31.272 34.064 31.432 33.28 31.528 32.896L35.512 15.904H41.56L33.448 46H26.872L23.464 33.376C23.144 32.064 22.824 30.656 22.504 29.152C22.184 27.616 21.832 25.808 21.448 23.728C21.16 25.296 20.84 26.896 20.488 28.528C20.168 30.128 19.816 31.744 19.432 33.376L16.072 46H9.448ZM50.515 46H44.755V15.904H50.515V28.096H63.667V15.904H69.427V46H63.667V33.328H50.515V46ZM78.4889 46H72.4409L83.9609 15.904H89.9129L101.241 46H95.1929L93.0329 39.856H80.6009L78.4889 46ZM86.7929 21.424C86.4409 22.64 86.0409 23.92 85.5929 25.264C85.1769 26.608 84.7769 27.856 84.3929 29.008L82.2809 35.104H91.3529L89.2409 29.008C88.8889 27.984 88.4889 26.8 88.0409 25.456C87.5929 24.08 87.1769 22.736 86.7929 21.424ZM121.999 15.904V21.088H112.879V46H107.119V21.088H98.047V15.904H121.999ZM137.182 46L129.07 15.904H135.31L139.39 32.848C139.486 33.296 139.598 33.84 139.726 34.48C139.854 35.12 140.174 36.96 140.686 40C141.198 37.024 141.518 35.2 141.646 34.528C141.774 33.856 141.886 33.312 141.982 32.896L146.254 15.904H152.302L156.622 32.848C156.75 33.296 156.878 33.856 157.006 34.528C157.134 35.168 157.454 36.976 157.966 39.952C158.318 37.968 158.59 36.4 158.782 35.248C159.006 34.064 159.166 33.28 159.262 32.896L163.246 15.904H169.294L161.182 46H154.606L151.198 33.376C150.878 32.064 150.558 30.656 150.238 29.152C149.918 27.616 149.566 25.808 149.182 23.728C148.894 25.296 148.574 26.896 148.222 28.528C147.902 30.128 147.55 31.744 147.166 33.376L143.806 46H137.182ZM192.841 40.576V46H172.489V15.904H192.409V21.088H178.249V28.192H190.633V33.136H178.249V40.576H192.841ZM216.353 34.048L209.681 32.464C207.473 31.952 205.921 31.12 205.025 29.968C204.129 28.784 203.681 27.104 203.681 24.928C203.681 21.664 204.577 19.264 206.369 17.728C208.161 16.192 210.945 15.424 214.721 15.424C216.289 15.424 217.681 15.504 218.897 15.664C220.145 15.792 221.297 16 222.353 16.288V21.472C220.529 21.12 219.073 20.896 217.985 20.8C216.897 20.672 215.777 20.608 214.625 20.608C212.705 20.608 211.345 20.912 210.545 21.52C209.745 22.096 209.345 23.104 209.345 24.544C209.345 25.376 209.505 26.016 209.825 26.464C210.177 26.88 210.753 27.184 211.553 27.376L218.033 28.912C219.537 29.264 220.657 29.632 221.393 30.016C222.129 30.368 222.737 30.816 223.217 31.36C223.697 31.968 224.049 32.72 224.273 33.616C224.529 34.512 224.657 35.616 224.657 36.928C224.657 40.32 223.761 42.752 221.969 44.224C220.177 45.696 217.393 46.432 213.617 46.432C211.665 46.432 209.777 46.304 207.953 46.048C206.161 45.792 204.753 45.472 203.729 45.088V39.664C205.105 40.08 206.657 40.416 208.385 40.672C210.145 40.896 211.889 41.008 213.617 41.008C215.505 41.008 216.817 40.752 217.553 40.24C218.321 39.696 218.705 38.656 218.705 37.12C218.705 36.16 218.545 35.472 218.225 35.056C217.937 34.608 217.313 34.272 216.353 34.048ZM249.045 40.576V46H228.693V15.904H248.613V21.088H234.453V28.192H246.837V33.136H234.453V40.576H249.045ZM259.109 35.728V46H253.349V15.904H263.957C268.405 15.904 271.573 16.656 273.461 18.16C275.381 19.664 276.341 22.176 276.341 25.696C276.341 28.224 275.781 30.272 274.661 31.84C273.573 33.376 271.909 34.448 269.669 35.056L277.253 46H270.341L263.573 35.728H259.109ZM270.485 25.696C270.485 24.032 269.989 22.848 268.997 22.144C268.037 21.44 266.357 21.088 263.957 21.088H259.109V30.928H263.957C266.357 30.928 268.037 30.528 268.997 29.728C269.989 28.928 270.485 27.584 270.485 25.696ZM288.461 46L277.613 15.904H284.045L289.709 32.848C289.997 33.712 290.333 34.88 290.717 36.352C291.133 37.792 291.565 39.424 292.013 41.248C292.461 39.392 292.877 37.744 293.261 36.304C293.677 34.864 294.013 33.728 294.269 32.896L299.933 15.904H306.173L295.325 46H288.461ZM329.529 40.576V46H309.177V15.904H329.097V21.088H314.937V28.192H327.321V33.136H314.937V40.576H329.529ZM347.521 15.424C350.081 15.424 352.081 16 353.521 17.152C354.993 18.272 355.729 19.872 355.729 21.952C355.729 23.808 355.185 25.52 354.097 27.088C353.041 28.624 351.313 30.16 348.913 31.696V36.976H343.825V29.776C346.193 28.496 347.857 27.344 348.817 26.32C349.809 25.296 350.305 24.272 350.305 23.248C350.305 22.32 350.001 21.632 349.393 21.184C348.785 20.704 347.873 20.464 346.657 20.464C345.569 20.464 344.353 20.592 343.009 20.848C341.665 21.072 340.529 21.36 339.601 21.712V16.768C340.817 16.32 342.065 15.984 343.345 15.76C344.625 15.536 346.017 15.424 347.521 15.424ZM349.249 40.816V46H343.441V40.816H349.249Z" fill="#34C25E"/>
<path d="M15.85 165L1 108.57H16.12L22.06 136.47C22.3 137.43 22.54 138.72 22.78 140.34C23.08 141.96 23.56 145.08 24.22 149.7C24.4 148.56 24.73 146.37 25.21 143.13C25.75 139.89 26.14 137.7 26.38 136.56L32.14 108.57H46.72L52.66 136.47C52.9 137.43 53.14 138.72 53.38 140.34C53.68 141.96 54.16 145.08 54.82 149.7C55 148.56 55.33 146.37 55.81 143.13C56.35 139.89 56.74 137.7 56.98 136.56L62.74 108.57H77.41L62.65 165H46.54L42.94 147.9C42.34 145.02 41.74 141.99 41.14 138.81C40.54 135.63 39.91 132.12 39.25 128.28C38.29 133.62 37.54 137.64 37 140.34C36.46 143.04 35.95 145.56 35.47 147.9L31.87 165H15.85ZM115.157 151.86V162.57C113.717 163.47 111.287 164.25 107.867 164.91C104.447 165.57 100.847 165.9 97.0666 165.9C89.8666 165.9 84.6766 164.1 81.4966 160.5C78.3166 156.84 76.7266 150.93 76.7266 142.77C76.7266 134.79 78.4066 128.94 81.7666 125.22C85.1266 121.5 90.4366 119.64 97.6966 119.64C104.777 119.64 109.757 121.05 112.637 123.87C115.577 126.63 117.047 131.55 117.047 138.63C117.047 140.55 117.017 142.08 116.957 143.22C116.897 144.36 116.777 145.68 116.597 147.18H90.3166C90.3766 149.64 91.0366 151.35 92.2966 152.31C93.5566 153.27 95.8666 153.75 99.2266 153.75C102.107 153.75 105.047 153.57 108.047 153.21C111.047 152.79 113.417 152.34 115.157 151.86ZM97.6966 131.16C94.8166 131.16 92.8666 131.67 91.8466 132.69C90.8266 133.65 90.3166 135.57 90.3166 138.45H104.807V136.47C104.747 134.37 104.237 132.96 103.277 132.24C102.377 131.52 100.517 131.16 97.6966 131.16ZM150.118 165H136.618V105.15H150.118V123.69C152.338 122.43 154.618 121.44 156.958 120.72C159.358 120 161.638 119.64 163.798 119.64C168.838 119.64 172.588 120.84 175.048 123.24C177.568 125.64 178.828 129.3 178.828 134.22V165H165.328V136.02C165.328 134.52 164.878 133.44 163.978 132.78C163.078 132.12 161.638 131.79 159.658 131.79C158.158 131.79 156.568 131.94 154.888 132.24C153.208 132.48 151.618 132.81 150.118 133.23V165ZM223.174 151.86V162.57C221.734 163.47 219.304 164.25 215.884 164.91C212.464 165.57 208.864 165.9 205.084 165.9C197.884 165.9 192.694 164.1 189.514 160.5C186.334 156.84 184.744 150.93 184.744 142.77C184.744 134.79 186.424 128.94 189.784 125.22C193.144 121.5 198.454 119.64 205.714 119.64C212.794 119.64 217.774 121.05 220.654 123.87C223.594 126.63 225.064 131.55 225.064 138.63C225.064 140.55 225.034 142.08 224.974 143.22C224.914 144.36 224.794 145.68 224.614 147.18H198.334C198.394 149.64 199.054 151.35 200.314 152.31C201.574 153.27 203.884 153.75 207.244 153.75C210.124 153.75 213.064 153.57 216.064 153.21C219.064 152.79 221.434 152.34 223.174 151.86ZM205.714 131.16C202.834 131.16 200.884 131.67 199.864 132.69C198.844 133.65 198.334 135.57 198.334 138.45H212.824V136.47C212.764 134.37 212.254 132.96 211.294 132.24C210.394 131.52 208.534 131.16 205.714 131.16ZM244.776 105.15V165H231.276V105.15H244.776ZM266.046 178.68H252.546V120.54H264.426L265.146 124.68H265.326C266.946 123 268.866 121.74 271.086 120.9C273.366 120.06 275.946 119.64 278.826 119.64C284.706 119.64 288.876 121.41 291.336 124.95C293.856 128.49 295.116 134.43 295.116 142.77C295.116 150.87 293.526 156.75 290.346 160.41C287.226 164.07 282.126 165.9 275.046 165.9C273.306 165.9 271.656 165.78 270.096 165.54C268.596 165.36 267.246 165.09 266.046 164.73V178.68ZM281.616 142.77C281.616 138.27 281.136 135.33 280.176 133.95C279.216 132.51 277.146 131.79 273.966 131.79C272.406 131.79 270.936 131.91 269.556 132.15C268.236 132.39 267.066 132.75 266.046 133.23V152.22C266.946 152.64 267.966 152.94 269.106 153.12C270.306 153.3 271.656 153.39 273.156 153.39C276.816 153.39 279.126 152.76 280.086 151.5C281.106 150.18 281.616 147.27 281.616 142.77ZM319.132 168.06C321.232 168.06 322.762 167.76 323.722 167.16C324.742 166.62 325.432 165.6 325.792 164.1L309.052 120.54H324.082L332.632 150.96L340.732 120.54H355.222L339.382 165.9C337.702 170.76 335.482 174.24 332.722 176.34C330.022 178.5 326.422 179.58 321.922 179.58C320.662 179.58 319.342 179.52 317.962 179.4C316.642 179.28 315.442 179.1 314.362 178.86V167.88C314.842 167.94 315.382 167.97 315.982 167.97C316.582 168.03 317.632 168.06 319.132 168.06ZM399.787 142.77C399.787 151.11 398.107 157.05 394.747 160.59C391.387 164.13 385.747 165.9 377.827 165.9C369.907 165.9 364.267 164.13 360.907 160.59C357.547 157.05 355.867 151.11 355.867 142.77C355.867 134.43 357.547 128.49 360.907 124.95C364.267 121.41 369.907 119.64 377.827 119.64C385.747 119.64 391.387 121.41 394.747 124.95C398.107 128.49 399.787 134.43 399.787 142.77ZM369.367 142.59C369.367 147.15 369.847 150.09 370.807 151.41C371.827 152.73 374.167 153.39 377.827 153.39C381.487 153.39 383.797 152.73 384.757 151.41C385.777 150.09 386.287 147.15 386.287 142.59C386.287 138.03 385.777 135.09 384.757 133.77C383.797 132.45 381.487 131.79 377.827 131.79C374.167 131.79 371.827 132.45 370.807 133.77C369.847 135.09 369.367 138.03 369.367 142.59ZM420.765 165.9C415.725 165.9 411.945 164.67 409.425 162.21C406.965 159.69 405.735 155.91 405.735 150.87V120.54H419.235V149.07C419.235 150.57 419.685 151.65 420.585 152.31C421.485 152.97 422.925 153.3 424.905 153.3C426.045 153.3 427.245 153.21 428.505 153.03C429.825 152.85 431.145 152.58 432.465 152.22V120.54H445.965V165H433.365L433.005 162.57H432.825C430.725 163.59 428.595 164.4 426.435 165C424.335 165.6 422.445 165.9 420.765 165.9ZM469.967 131.79H464.747V120.54H470.417L472.127 110.19H483.467V120.54H496.067V131.79H483.467V149.07C483.467 150.75 483.887 151.89 484.727 152.49C485.627 153.03 487.367 153.3 489.947 153.3C490.847 153.3 491.957 153.24 493.277 153.12C494.597 152.94 495.707 152.76 496.607 152.58V164.1C495.647 164.52 494.147 164.91 492.107 165.27C490.127 165.69 488.357 165.9 486.797 165.9C480.797 165.9 476.477 164.64 473.837 162.12C471.257 159.54 469.967 155.37 469.967 149.61V131.79ZM543.225 142.77C543.225 151.11 541.545 157.05 538.185 160.59C534.825 164.13 529.185 165.9 521.265 165.9C513.345 165.9 507.705 164.13 504.345 160.59C500.985 157.05 499.305 151.11 499.305 142.77C499.305 134.43 500.985 128.49 504.345 124.95C507.705 121.41 513.345 119.64 521.265 119.64C529.185 119.64 534.825 121.41 538.185 124.95C541.545 128.49 543.225 134.43 543.225 142.77ZM512.805 142.59C512.805 147.15 513.285 150.09 514.245 151.41C515.265 152.73 517.605 153.39 521.265 153.39C524.925 153.39 527.235 152.73 528.195 151.41C529.215 150.09 529.725 147.15 529.725 142.59C529.725 138.03 529.215 135.09 528.195 133.77C527.235 132.45 524.925 131.79 521.265 131.79C517.605 131.79 515.265 132.45 514.245 133.77C513.285 135.09 512.805 138.03 512.805 142.59ZM565.592 131.79H560.372V120.54H566.042L567.752 110.19H579.092V120.54H591.692V131.79H579.092V149.07C579.092 150.75 579.512 151.89 580.352 152.49C581.252 153.03 582.992 153.3 585.572 153.3C586.472 153.3 587.582 153.24 588.902 153.12C590.222 152.94 591.332 152.76 592.232 152.58V164.1C591.272 164.52 589.772 164.91 587.732 165.27C585.752 165.69 583.982 165.9 582.422 165.9C576.422 165.9 572.102 164.64 569.462 162.12C566.882 159.54 565.592 155.37 565.592 149.61V131.79ZM611.839 165.9C606.799 165.9 603.019 164.67 600.499 162.21C598.039 159.69 596.809 155.91 596.809 150.87V120.54H610.309V149.07C610.309 150.57 610.759 151.65 611.659 152.31C612.559 152.97 613.999 153.3 615.979 153.3C617.119 153.3 618.319 153.21 619.579 153.03C620.899 152.85 622.219 152.58 623.539 152.22V120.54H637.039V165H624.439L624.079 162.57H623.899C621.799 163.59 619.669 164.4 617.509 165C615.409 165.6 613.519 165.9 611.839 165.9ZM658.302 165H644.802V120.54H657.402L657.852 123.96H658.032C660.192 122.64 662.382 121.65 664.602 120.99C666.882 120.27 669.012 119.91 670.992 119.91H671.712V132.96C671.172 132.84 670.572 132.78 669.912 132.78C669.312 132.72 668.532 132.69 667.572 132.69C665.832 132.69 664.182 132.81 662.622 133.05C661.062 133.23 659.622 133.53 658.302 133.95V165ZM690.294 165H676.794V120.54H688.494L689.034 125.22H689.304C691.224 123.24 693.294 121.83 695.514 120.99C697.794 120.09 700.524 119.64 703.704 119.64C708.744 119.64 712.554 120.87 715.134 123.33C717.714 125.79 719.004 129.42 719.004 134.22V165H705.504V136.02C705.504 134.64 704.934 133.59 703.794 132.87C702.714 132.15 701.094 131.79 698.934 131.79C697.314 131.79 695.754 131.97 694.254 132.33C692.754 132.69 691.434 133.2 690.294 133.86V165ZM10.9 276.06C13 276.06 14.53 275.76 15.49 275.16C16.51 274.62 17.2 273.6 17.56 272.1L0.82 228.54H15.85L24.4 258.96L32.5 228.54H46.99L31.15 273.9C29.47 278.76 27.25 282.24 24.49 284.34C21.79 286.5 18.19 287.58 13.69 287.58C12.43 287.58 11.11 287.52 9.73 287.4C8.41 287.28 7.21 287.1 6.13 286.86V275.88C6.61 275.94 7.15 275.97 7.75 275.97C8.35 276.03 9.4 276.06 10.9 276.06ZM91.5548 250.77C91.5548 259.11 89.8748 265.05 86.5148 268.59C83.1548 272.13 77.5148 273.9 69.5948 273.9C61.6748 273.9 56.0348 272.13 52.6748 268.59C49.3148 265.05 47.6348 259.11 47.6348 250.77C47.6348 242.43 49.3148 236.49 52.6748 232.95C56.0348 229.41 61.6748 227.64 69.5948 227.64C77.5148 227.64 83.1548 229.41 86.5148 232.95C89.8748 236.49 91.5548 242.43 91.5548 250.77ZM61.1348 250.59C61.1348 255.15 61.6148 258.09 62.5748 259.41C63.5948 260.73 65.9348 261.39 69.5948 261.39C73.2548 261.39 75.5648 260.73 76.5248 259.41C77.5448 258.09 78.0548 255.15 78.0548 250.59C78.0548 246.03 77.5448 243.09 76.5248 241.77C75.5648 240.45 73.2548 239.79 69.5948 239.79C65.9348 239.79 63.5948 240.45 62.5748 241.77C61.6148 243.09 61.1348 246.03 61.1348 250.59ZM112.533 273.9C107.493 273.9 103.713 272.67 101.193 270.21C98.7325 267.69 97.5025 263.91 97.5025 258.87V228.54H111.003V257.07C111.003 258.57 111.453 259.65 112.353 260.31C113.253 260.97 114.693 261.3 116.673 261.3C117.813 261.3 119.013 261.21 120.272 261.03C121.593 260.85 122.913 260.58 124.233 260.22V228.54H137.733V273H125.133L124.773 270.57H124.593C122.493 271.59 120.363 272.4 118.203 273C116.103 273.6 114.213 273.9 112.533 273.9ZM158.995 273H145.495V228.54H158.095L158.545 231.96H158.725C160.885 230.64 163.075 229.65 165.295 228.99C167.575 228.27 169.705 227.91 171.685 227.91H172.405V240.96C171.865 240.84 171.265 240.78 170.605 240.78C170.005 240.72 169.225 240.69 168.265 240.69C166.525 240.69 164.875 240.81 163.315 241.05C161.755 241.23 160.315 241.53 158.995 241.95V273ZM204.707 223.68H190.487V213.15H204.707V223.68ZM204.347 273H190.847V228.54H204.347V273ZM239.566 213.15H253.066V273H241.096L240.376 268.86H240.106C238.486 270.54 236.566 271.8 234.346 272.64C232.126 273.48 229.606 273.9 226.786 273.9C220.906 273.9 216.706 272.13 214.186 268.59C211.726 265.05 210.496 259.11 210.496 250.77C210.496 242.67 212.056 236.79 215.176 233.13C218.356 229.47 223.486 227.64 230.566 227.64C232.306 227.64 233.926 227.76 235.426 228C236.986 228.18 238.366 228.45 239.566 228.81V213.15ZM232.456 239.79C228.856 239.79 226.546 240.48 225.526 241.86C224.506 243.18 223.996 246.15 223.996 250.77C223.996 255.15 224.446 258.03 225.346 259.41C226.246 260.73 228.346 261.39 231.646 261.39C233.206 261.39 234.646 261.27 235.966 261.03C237.346 260.79 238.546 260.43 239.566 259.95V240.96C238.666 240.54 237.616 240.24 236.416 240.06C235.276 239.88 233.956 239.79 232.456 239.79ZM297.618 259.86V270.57C296.178 271.47 293.748 272.25 290.328 272.91C286.908 273.57 283.308 273.9 279.528 273.9C272.328 273.9 267.138 272.1 263.958 268.5C260.778 264.84 259.188 258.93 259.188 250.77C259.188 242.79 260.868 236.94 264.228 233.22C267.588 229.5 272.898 227.64 280.158 227.64C287.238 227.64 292.218 229.05 295.098 231.87C298.038 234.63 299.508 239.55 299.508 246.63C299.508 248.55 299.478 250.08 299.418 251.22C299.358 252.36 299.238 253.68 299.058 255.18H272.778C272.838 257.64 273.498 259.35 274.758 260.31C276.018 261.27 278.328 261.75 281.688 261.75C284.568 261.75 287.508 261.57 290.508 261.21C293.508 260.79 295.878 260.34 297.618 259.86ZM280.158 239.16C277.278 239.16 275.328 239.67 274.308 240.69C273.288 241.65 272.778 243.57 272.778 246.45H287.268V244.47C287.208 242.37 286.698 240.96 285.738 240.24C284.838 239.52 282.978 239.16 280.158 239.16ZM316.52 273.9C311.96 273.9 308.6 272.76 306.44 270.48C304.34 268.2 303.29 264.6 303.29 259.68C303.29 254.64 304.55 251.1 307.07 249.06C309.65 247.02 314.06 246 320.3 246C321.74 246 323.21 246.09 324.71 246.27C326.27 246.39 327.62 246.57 328.76 246.81V243.57C328.76 242.13 328.13 241.08 326.87 240.42C325.67 239.7 323.81 239.34 321.29 239.34C318.41 239.34 315.83 239.43 313.55 239.61C311.33 239.73 309.29 239.97 307.43 240.33V229.26C309.65 228.72 312.23 228.33 315.17 228.09C318.11 227.79 321.53 227.64 325.43 227.64C330.95 227.64 335.12 228.87 337.94 231.33C340.82 233.79 342.26 237.42 342.26 242.22V273H329.66L329.21 269.22H328.94C327.08 270.66 325.04 271.8 322.82 272.64C320.6 273.48 318.5 273.9 316.52 273.9ZM322.1 254.91C319.7 254.91 318.08 255.18 317.24 255.72C316.4 256.2 315.98 257.25 315.98 258.87C315.98 260.37 316.31 261.42 316.97 262.02C317.69 262.56 318.92 262.83 320.66 262.83C321.98 262.83 323.36 262.65 324.8 262.29C326.24 261.93 327.56 261.48 328.76 260.94V255.45C328.04 255.27 327.14 255.15 326.06 255.09C324.98 254.97 323.66 254.91 322.1 254.91ZM367.931 239.07C365.411 239.07 363.701 239.28 362.801 239.7C361.961 240.06 361.541 240.93 361.541 242.31C361.541 242.85 361.691 243.3 361.991 243.66C362.351 243.96 362.831 244.14 363.431 244.2L374.141 245.64C377.621 246.12 380.051 247.26 381.431 249.06C382.871 250.8 383.591 253.59 383.591 257.43C383.591 263.19 382.301 267.39 379.721 270.03C377.141 272.61 372.641 273.9 366.221 273.9C362.681 273.9 359.471 273.75 356.591 273.45C353.771 273.21 351.371 272.85 349.391 272.37V260.67C350.891 261.03 352.961 261.36 355.601 261.66C358.301 261.9 361.031 262.02 363.791 262.02C366.251 262.02 367.901 261.78 368.741 261.3C369.641 260.76 370.091 259.77 370.091 258.33C370.091 257.85 369.941 257.46 369.641 257.16C369.341 256.8 368.951 256.59 368.471 256.53L357.401 255.09C354.161 254.67 351.791 253.5 350.291 251.58C348.851 249.6 348.131 246.69 348.131 242.85C348.131 237.81 349.721 234.03 352.901 231.51C356.081 228.93 360.791 227.64 367.031 227.64C369.491 227.64 371.771 227.7 373.871 227.82C375.971 227.94 378.191 228.18 380.531 228.54V239.79C379.031 239.55 377.171 239.37 374.951 239.25C372.731 239.13 370.391 239.07 367.931 239.07ZM416.699 223.68H402.479V213.15H416.699V223.68ZM416.339 273H402.839V228.54H416.339V273ZM437.608 273H424.108V228.54H435.808L436.348 233.22H436.618C438.538 231.24 440.608 229.83 442.828 228.99C445.108 228.09 447.838 227.64 451.018 227.64C456.058 227.64 459.868 228.87 462.448 231.33C465.028 233.79 466.318 237.42 466.318 242.22V273H452.818V244.02C452.818 242.64 452.248 241.59 451.108 240.87C450.028 240.15 448.408 239.79 446.248 239.79C444.628 239.79 443.068 239.97 441.568 240.33C440.068 240.69 438.748 241.2 437.608 241.86V273ZM476.207 239.79H470.987V228.54H476.657L478.367 218.19H489.707V228.54H502.307V239.79H489.707V257.07C489.707 258.75 490.127 259.89 490.967 260.49C491.867 261.03 493.607 261.3 496.187 261.3C497.087 261.3 498.197 261.24 499.517 261.12C500.837 260.94 501.947 260.76 502.847 260.58V272.1C501.887 272.52 500.387 272.91 498.347 273.27C496.367 273.69 494.597 273.9 493.037 273.9C487.037 273.9 482.717 272.64 480.077 270.12C477.497 267.54 476.207 263.37 476.207 257.61V239.79ZM549.465 250.77C549.465 259.11 547.785 265.05 544.425 268.59C541.065 272.13 535.425 273.9 527.505 273.9C519.585 273.9 513.945 272.13 510.585 268.59C507.225 265.05 505.545 259.11 505.545 250.77C505.545 242.43 507.225 236.49 510.585 232.95C513.945 229.41 519.585 227.64 527.505 227.64C535.425 227.64 541.065 229.41 544.425 232.95C547.785 236.49 549.465 242.43 549.465 250.77ZM519.045 250.59C519.045 255.15 519.525 258.09 520.485 259.41C521.505 260.73 523.845 261.39 527.505 261.39C531.165 261.39 533.475 260.73 534.435 259.41C535.455 258.09 535.965 255.15 535.965 250.59C535.965 246.03 535.455 243.09 534.435 241.77C533.475 240.45 531.165 239.79 527.505 239.79C523.845 239.79 521.505 240.45 520.485 241.77C519.525 243.09 519.045 246.03 519.045 250.59ZM573.488 276.06C575.588 276.06 577.118 275.76 578.078 275.16C579.098 274.62 579.788 273.6 580.148 272.1L563.408 228.54H578.438L586.988 258.96L595.088 228.54H609.578L593.738 273.9C592.058 278.76 589.838 282.24 587.078 284.34C584.378 286.5 580.778 287.58 576.278 287.58C575.018 287.58 573.698 287.52 572.318 287.4C570.998 287.28 569.798 287.1 568.718 286.86V275.88C569.198 275.94 569.738 275.97 570.338 275.97C570.938 276.03 571.988 276.06 573.488 276.06ZM654.143 250.77C654.143 259.11 652.463 265.05 649.103 268.59C645.743 272.13 640.103 273.9 632.183 273.9C624.263 273.9 618.623 272.13 615.263 268.59C611.903 265.05 610.223 259.11 610.223 250.77C610.223 242.43 611.903 236.49 615.263 232.95C618.623 229.41 624.263 227.64 632.183 227.64C640.103 227.64 645.743 229.41 649.103 232.95C652.463 236.49 654.143 242.43 654.143 250.77ZM623.723 250.59C623.723 255.15 624.203 258.09 625.163 259.41C626.183 260.73 628.523 261.39 632.183 261.39C635.843 261.39 638.153 260.73 639.113 259.41C640.133 258.09 640.643 255.15 640.643 250.59C640.643 246.03 640.133 243.09 639.113 241.77C638.153 240.45 635.843 239.79 632.183 239.79C628.523 239.79 626.183 240.45 625.163 241.77C624.203 243.09 623.723 246.03 623.723 250.59ZM675.12 273.9C670.08 273.9 666.3 272.67 663.78 270.21C661.32 267.69 660.09 263.91 660.09 258.87V228.54H673.59V257.07C673.59 258.57 674.04 259.65 674.94 260.31C675.84 260.97 677.28 261.3 679.26 261.3C680.4 261.3 681.6 261.21 682.86 261.03C684.18 260.85 685.5 260.58 686.82 260.22V228.54H700.32V273H687.72L687.36 270.57H687.18C685.08 271.59 682.95 272.4 680.79 273C678.69 273.6 676.8 273.9 675.12 273.9ZM721.583 273H708.083V228.54H720.683L721.133 231.96H721.313C723.473 230.64 725.663 229.65 727.883 228.99C730.163 228.27 732.293 227.91 734.273 227.91H734.993V240.96C734.453 240.84 733.853 240.78 733.193 240.78C732.593 240.72 731.813 240.69 730.853 240.69C729.113 240.69 727.463 240.81 725.903 241.05C724.343 241.23 722.903 241.53 721.583 241.95V273ZM780.884 213.15H794.384V273H782.414L781.694 268.86H781.424C779.804 270.54 777.884 271.8 775.664 272.64C773.444 273.48 770.924 273.9 768.104 273.9C762.224 273.9 758.024 272.13 755.504 268.59C753.044 265.05 751.814 259.11 751.814 250.77C751.814 242.67 753.374 236.79 756.494 233.13C759.674 229.47 764.804 227.64 771.884 227.64C773.624 227.64 775.244 227.76 776.744 228C778.304 228.18 779.684 228.45 780.884 228.81V213.15ZM773.774 239.79C770.174 239.79 767.864 240.48 766.844 241.86C765.824 243.18 765.314 246.15 765.314 250.77C765.314 255.15 765.764 258.03 766.664 259.41C767.564 260.73 769.664 261.39 772.964 261.39C774.524 261.39 775.964 261.27 777.284 261.03C778.664 260.79 779.864 260.43 780.884 259.95V240.96C779.984 240.54 778.934 240.24 777.734 240.06C776.594 239.88 775.274 239.79 773.774 239.79ZM815.626 273H802.126V228.54H814.726L815.176 231.96H815.356C817.516 230.64 819.706 229.65 821.926 228.99C824.206 228.27 826.336 227.91 828.316 227.91H829.036V240.96C828.496 240.84 827.896 240.78 827.236 240.78C826.636 240.72 825.856 240.69 824.896 240.69C823.156 240.69 821.506 240.81 819.946 241.05C818.386 241.23 816.946 241.53 815.626 241.95V273ZM870.049 259.86V270.57C868.609 271.47 866.179 272.25 862.759 272.91C859.339 273.57 855.739 273.9 851.959 273.9C844.759 273.9 839.569 272.1 836.389 268.5C833.209 264.84 831.619 258.93 831.619 250.77C831.619 242.79 833.299 236.94 836.659 233.22C840.019 229.5 845.329 227.64 852.589 227.64C859.669 227.64 864.649 229.05 867.529 231.87C870.469 234.63 871.939 239.55 871.939 246.63C871.939 248.55 871.909 250.08 871.849 251.22C871.789 252.36 871.669 253.68 871.489 255.18H845.209C845.269 257.64 845.929 259.35 847.189 260.31C848.449 261.27 850.759 261.75 854.119 261.75C856.999 261.75 859.939 261.57 862.939 261.21C865.939 260.79 868.309 260.34 870.049 259.86ZM852.589 239.16C849.709 239.16 847.759 239.67 846.739 240.69C845.719 241.65 845.209 243.57 845.209 246.45H859.699V244.47C859.639 242.37 859.129 240.96 858.169 240.24C857.269 239.52 855.409 239.16 852.589 239.16ZM888.951 273.9C884.391 273.9 881.031 272.76 878.871 270.48C876.771 268.2 875.721 264.6 875.721 259.68C875.721 254.64 876.981 251.1 879.501 249.06C882.081 247.02 886.491 246 892.731 246C894.171 246 895.641 246.09 897.141 246.27C898.701 246.39 900.051 246.57 901.191 246.81V243.57C901.191 242.13 900.561 241.08 899.301 240.42C898.101 239.7 896.241 239.34 893.721 239.34C890.841 239.34 888.261 239.43 885.981 239.61C883.761 239.73 881.721 239.97 879.861 240.33V229.26C882.081 228.72 884.661 228.33 887.601 228.09C890.541 227.79 893.961 227.64 897.861 227.64C903.381 227.64 907.551 228.87 910.371 231.33C913.251 233.79 914.691 237.42 914.691 242.22V273H902.091L901.641 269.22H901.371C899.511 270.66 897.471 271.8 895.251 272.64C893.031 273.48 890.931 273.9 888.951 273.9ZM894.531 254.91C892.131 254.91 890.511 255.18 889.671 255.72C888.831 256.2 888.411 257.25 888.411 258.87C888.411 260.37 888.741 261.42 889.401 262.02C890.121 262.56 891.351 262.83 893.091 262.83C894.411 262.83 895.791 262.65 897.231 262.29C898.671 261.93 899.991 261.48 901.191 260.94V255.45C900.471 255.27 899.571 255.15 898.491 255.09C897.411 254.97 896.091 254.91 894.531 254.91ZM935.772 273H922.272V228.54H934.872L935.322 231.87H935.592C937.812 230.49 939.942 229.44 941.982 228.72C944.022 228 945.972 227.64 947.832 227.64C950.292 227.64 952.392 228.03 954.132 228.81C955.872 229.53 957.252 230.64 958.272 232.14H958.632C960.672 230.76 962.952 229.68 965.472 228.9C968.052 228.06 970.512 227.64 972.852 227.64C977.232 227.64 980.472 228.84 982.572 231.24C984.732 233.64 985.812 237.3 985.812 242.22V273H972.312V244.02C972.312 242.52 971.892 241.44 971.052 240.78C970.212 240.12 968.892 239.79 967.092 239.79C966.132 239.79 965.112 239.88 964.032 240.06C962.952 240.24 961.872 240.51 960.792 240.87V273H947.292V244.02C947.292 242.52 946.872 241.44 946.032 240.78C945.192 240.12 943.872 239.79 942.072 239.79C941.112 239.79 940.092 239.88 939.012 240.06C937.932 240.24 936.852 240.51 935.772 240.87V273ZM1034.19 213.15H1047.69V273H1035.72L1035 268.86H1034.73C1033.11 270.54 1031.19 271.8 1028.97 272.64C1026.75 273.48 1024.23 273.9 1021.41 273.9C1015.53 273.9 1011.33 272.13 1008.81 268.59C1006.35 265.05 1005.12 259.11 1005.12 250.77C1005.12 242.67 1006.68 236.79 1009.8 233.13C1012.98 229.47 1018.11 227.64 1025.19 227.64C1026.93 227.64 1028.55 227.76 1030.05 228C1031.61 228.18 1032.99 228.45 1034.19 228.81V213.15ZM1027.08 239.79C1023.48 239.79 1021.17 240.48 1020.15 241.86C1019.13 243.18 1018.62 246.15 1018.62 250.77C1018.62 255.15 1019.07 258.03 1019.97 259.41C1020.87 260.73 1022.97 261.39 1026.27 261.39C1027.83 261.39 1029.27 261.27 1030.59 261.03C1031.97 260.79 1033.17 260.43 1034.19 259.95V240.96C1033.29 240.54 1032.24 240.24 1031.04 240.06C1029.9 239.88 1028.58 239.79 1027.08 239.79ZM1092.24 259.86V270.57C1090.8 271.47 1088.37 272.25 1084.95 272.91C1081.53 273.57 1077.93 273.9 1074.15 273.9C1066.95 273.9 1061.76 272.1 1058.58 268.5C1055.4 264.84 1053.81 258.93 1053.81 250.77C1053.81 242.79 1055.49 236.94 1058.85 233.22C1062.21 229.5 1067.52 227.64 1074.78 227.64C1081.86 227.64 1086.84 229.05 1089.72 231.87C1092.66 234.63 1094.13 239.55 1094.13 246.63C1094.13 248.55 1094.1 250.08 1094.04 251.22C1093.98 252.36 1093.86 253.68 1093.68 255.18H1067.4C1067.46 257.64 1068.12 259.35 1069.38 260.31C1070.64 261.27 1072.95 261.75 1076.31 261.75C1079.19 261.75 1082.13 261.57 1085.13 261.21C1088.13 260.79 1090.5 260.34 1092.24 259.86ZM1074.78 239.16C1071.9 239.16 1069.95 239.67 1068.93 240.69C1067.91 241.65 1067.4 243.57 1067.4 246.45H1081.89V244.47C1081.83 242.37 1081.32 240.96 1080.36 240.24C1079.46 239.52 1077.6 239.16 1074.78 239.16ZM1118.43 239.07C1115.91 239.07 1114.2 239.28 1113.3 239.7C1112.46 240.06 1112.04 240.93 1112.04 242.31C1112.04 242.85 1112.19 243.3 1112.49 243.66C1112.85 243.96 1113.33 244.14 1113.93 244.2L1124.64 245.64C1128.12 246.12 1130.55 247.26 1131.93 249.06C1133.37 250.8 1134.09 253.59 1134.09 257.43C1134.09 263.19 1132.8 267.39 1130.22 270.03C1127.64 272.61 1123.14 273.9 1116.72 273.9C1113.18 273.9 1109.97 273.75 1107.09 273.45C1104.27 273.21 1101.87 272.85 1099.89 272.37V260.67C1101.39 261.03 1103.46 261.36 1106.1 261.66C1108.8 261.9 1111.53 262.02 1114.29 262.02C1116.75 262.02 1118.4 261.78 1119.24 261.3C1120.14 260.76 1120.59 259.77 1120.59 258.33C1120.59 257.85 1120.44 257.46 1120.14 257.16C1119.84 256.8 1119.45 256.59 1118.97 256.53L1107.9 255.09C1104.66 254.67 1102.29 253.5 1100.79 251.58C1099.35 249.6 1098.63 246.69 1098.63 242.85C1098.63 237.81 1100.22 234.03 1103.4 231.51C1106.58 228.93 1111.29 227.64 1117.53 227.64C1119.99 227.64 1122.27 227.7 1124.37 227.82C1126.47 227.94 1128.69 228.18 1131.03 228.54V239.79C1129.53 239.55 1127.67 239.37 1125.45 239.25C1123.23 239.13 1120.89 239.07 1118.43 239.07ZM1153.84 223.68H1139.62V213.15H1153.84V223.68ZM1153.48 273H1139.98V228.54H1153.48V273ZM1181.32 287.58C1178.14 287.58 1175.08 287.37 1172.14 286.95C1169.26 286.53 1166.89 285.99 1165.03 285.33V273.9C1166.47 274.32 1168.63 274.68 1171.51 274.98C1174.45 275.28 1177.36 275.43 1180.24 275.43C1183.48 275.43 1185.7 274.95 1186.9 273.99C1188.1 273.03 1188.73 271.26 1188.79 268.68V266.52C1186.39 267.66 1184.08 268.53 1181.86 269.13C1179.64 269.67 1177.48 269.94 1175.38 269.94C1169.68 269.94 1165.63 268.35 1163.23 265.17C1160.89 261.93 1159.72 256.47 1159.72 248.79C1159.72 241.17 1161.4 235.74 1164.76 232.5C1168.18 229.26 1173.91 227.64 1181.95 227.64C1185.13 227.64 1188.79 227.82 1192.93 228.18C1197.13 228.54 1200.25 228.93 1202.29 229.35V264.45C1202.29 273.03 1200.73 279.03 1197.61 282.45C1194.49 285.87 1189.06 287.58 1181.32 287.58ZM1181.95 239.79C1177.93 239.79 1175.47 240.24 1174.57 241.14C1173.67 242.04 1173.22 244.59 1173.22 248.79C1173.22 252.57 1173.61 254.97 1174.39 255.99C1175.17 256.95 1177.06 257.43 1180.06 257.43C1181.2 257.43 1182.49 257.31 1183.93 257.07C1185.43 256.83 1187.05 256.5 1188.79 256.08V240.33C1187.89 240.15 1186.87 240.03 1185.73 239.97C1184.59 239.85 1183.33 239.79 1181.95 239.79ZM1223.53 273H1210.03V228.54H1221.73L1222.27 233.22H1222.54C1224.46 231.24 1226.53 229.83 1228.75 228.99C1231.03 228.09 1233.76 227.64 1236.94 227.64C1241.98 227.64 1245.79 228.87 1248.37 231.33C1250.95 233.79 1252.24 237.42 1252.24 242.22V273H1238.74V244.02C1238.74 242.64 1238.17 241.59 1237.03 240.87C1235.95 240.15 1234.33 239.79 1232.17 239.79C1230.55 239.79 1228.99 239.97 1227.49 240.33C1225.99 240.69 1224.67 241.2 1223.53 241.86V273ZM1271.56 273H1258.51V260.58H1271.56V273Z" fill="black"/>
</svg>
