<svg width="203" height="197" viewBox="0 0 203 197" fill="none" xmlns="http://www.w3.org/2000/svg">
<g clip-path="url(#clip0)">
<path d="M8.4585 8.4375H194.542V188.563H8.4585V8.4375Z" fill="url(#paint0_radial)"/>
<path d="M8.45823 8.43651H194.542V188.562H8.45823V8.43651ZM0 196.98H203V0.0195312H0V196.98ZM132.965 70.2181C132.965 69.5448 133.219 69.2079 133.98 69.2079H147.26C147.936 69.2079 148.275 69.4604 148.275 70.2181V136.629C148.275 137.302 148.106 137.639 147.26 137.639H134.149C133.304 137.639 133.05 137.218 133.05 136.545V70.2181H132.965ZM132.035 51.1112C132.035 45.7243 135.841 42.5259 140.663 42.5259C145.822 42.5259 149.29 45.9768 149.29 51.1112C149.29 56.6664 145.653 59.6965 140.493 59.6965C135.587 59.6968 132.035 56.6664 132.035 51.1112ZM93.9722 97.9104C91.6042 88.5673 86.0218 68.198 83.9068 58.3499H83.7376C81.9613 68.198 77.4786 84.8636 73.9263 97.9104H93.9722ZM70.4581 111.546L63.7759 136.798C63.6068 137.47 63.353 137.639 62.5073 137.639H50.0735C49.2278 137.639 49.0583 137.386 49.2278 136.376L73.2493 52.7102C73.6722 51.1954 73.9259 49.8485 74.0951 45.7243C74.0951 45.1352 74.3488 44.8827 74.7716 44.8827H92.5342C93.1262 44.8827 93.3799 45.051 93.5494 45.7243L120.447 136.545C120.616 137.218 120.447 137.639 119.77 137.639H105.729C105.053 137.639 104.629 137.47 104.461 136.882L97.5246 111.546H70.4581Z" fill="#FF7F18"/>
</g>
<defs>
<radialGradient id="paint0_radial" cx="0" cy="0" r="1" gradientUnits="userSpaceOnUse" gradientTransform="translate(69.7455 48.8039) scale(141.424 136.256)">
<stop stop-color="#423325" stop-opacity="0.98"/>
<stop offset="1" stop-color="#1C0A00"/>
</radialGradient>
<clipPath id="clip0">
<rect width="203" height="197" fill="white"/>
</clipPath>
</defs>
</svg>
