<svg width="201" height="196" viewBox="0 0 201 196" fill="none" xmlns="http://www.w3.org/2000/svg">
<g clip-path="url(#clip0)">
<path d="M8.375 8.39453H192.626V187.606H8.375V8.39453Z" fill="url(#paint0_radial)"/>
<path d="M8.3749 8.39378H192.625V187.605H8.3749V8.39378ZM0 195.98H201V0.0195312H0V195.98ZM127.133 81.4182C125.876 80.8321 124.201 80.5809 122.191 80.5809C111.388 80.5809 103.85 88.8718 103.85 102.689C103.85 118.433 111.555 124.797 121.187 124.797C123.28 124.797 125.458 124.546 127.133 123.793V81.4182ZM122.694 67.7682C124.453 67.7682 125.458 67.7682 127.133 67.9356V45.6598C127.133 45.0736 127.551 44.8224 127.97 44.8224H141.537C142.207 44.8224 142.375 45.0736 142.375 45.4923V123.793C142.375 126.137 142.375 129.069 142.793 132.251C142.793 132.837 142.626 132.921 142.04 133.256C134.837 136.689 127.216 138.197 120.097 138.197C101.589 138.197 88.356 126.724 88.356 103.359C88.2726 83.3444 101.505 67.7682 122.694 67.7682ZM73.5329 135.852C73.5329 136.689 73.3654 136.941 72.4439 136.941H59.5465C58.7091 136.941 58.4575 136.522 58.4575 135.852V45.911C58.4575 45.0736 58.8762 44.8221 59.5465 44.8221H72.5277C73.1976 44.8221 73.5329 45.0733 73.5329 45.8272V135.852Z" fill="#FF408C"/>
</g>
<defs>
<radialGradient id="paint0_radial" cx="0" cy="0" r="1" gradientUnits="userSpaceOnUse" gradientTransform="translate(69.0581 48.556) scale(140.03 135.564)">
<stop stop-color="#4B2B36" stop-opacity="0.98"/>
<stop offset="1" stop-color="#250012"/>
</radialGradient>
<clipPath id="clip0">
<rect width="201" height="196" fill="white"/>
</clipPath>
</defs>
</svg>
