<svg width="250" height="229" viewBox="0 0 250 229" fill="none" xmlns="http://www.w3.org/2000/svg">
<g clip-path="url(#clip0)">
<path opacity="0.1" d="M140.049 35.8174C126.346 35.343 113.296 30.9284 100.841 26.1023C88.3853 21.2763 76.0274 15.9216 62.6535 13.35C54.0505 11.7041 44.214 11.4698 37.2823 16.073C30.614 20.5048 28.4561 28.1539 27.2998 35.2516C26.4413 40.592 25.9147 46.2124 28.3044 51.2099C29.9615 54.6816 32.9064 57.599 34.9412 60.9249C42.0274 72.4915 37.019 86.7555 29.3404 98.0506C25.7401 103.348 21.5616 108.403 18.7827 114.052C16.0037 119.701 14.7158 126.153 17.1485 131.907C19.5583 137.622 25.3022 141.891 31.5241 144.906C44.1625 151.023 59.0532 152.775 73.5747 153.763C105.72 155.958 138.034 155.009 170.266 154.049C182.191 153.695 194.172 153.338 205.906 151.497C212.422 150.475 219.151 148.852 223.882 144.926C229.892 139.951 231.374 131.53 227.35 125.293C220.599 114.832 201.939 112.232 197.22 101.005C194.624 94.8246 197.291 87.9413 201.063 82.2123C209.16 69.9256 222.728 59.1305 223.444 45.0666C223.936 35.4173 217.411 25.7509 207.325 21.182C196.753 16.3959 182.091 16.9988 174.292 24.9223C166.262 33.1 152.147 36.2374 140.049 35.8174Z" fill="#00BFA6"/>
<path opacity="0.1" d="M112.832 229.001C160.878 229.001 199.827 223.74 199.827 217.251C199.827 210.762 160.878 205.502 112.832 205.502C64.7863 205.502 25.8374 210.762 25.8374 217.251C25.8374 223.74 64.7863 229.001 112.832 229.001Z" fill="#00BFA6"/>
<path d="M134.302 59.8896C134.302 59.8896 131.609 54.5835 131.973 53.0062C132.336 51.429 130.078 48.0601 130.078 48.0601L130.224 42.4711C130.224 42.4711 129.912 43.0426 128.287 43.5427C128.149 43.3626 128 43.1855 127.846 43.0169C127.257 42.4048 126.603 41.8596 125.894 41.3911L123.032 35.2249L120.265 30.9931C120.265 30.9931 115.9 22.1353 111.393 20.1809L110.683 18.7951C110.706 18.7813 110.723 18.7593 110.731 18.7334C110.739 18.7075 110.737 18.6796 110.726 18.6551L110.004 17.2464C109.992 17.222 109.97 17.2033 109.944 17.1938C109.918 17.1843 109.89 17.1847 109.864 17.195L109.175 15.8463C108.911 14.0985 108.223 12.4416 107.171 11.0202C107.1 10.9202 107.022 10.8288 106.948 10.7345L108.07 10.6945C109.054 10.6573 110.153 10.5716 110.814 9.83728C111.051 9.56357 111.226 9.24189 111.327 8.89435C111.412 8.62199 111.467 8.34132 111.493 8.05714C111.493 8.01428 111.493 7.97142 111.493 7.93142C111.493 7.83427 111.493 7.73902 111.493 7.64568C111.493 7.56854 111.493 7.49424 111.493 7.4171C111.493 7.33995 111.493 7.29423 111.493 7.23422C111.493 7.17422 111.461 7.03707 111.444 6.94849C111.444 6.91134 111.444 6.8742 111.421 6.83705C111.397 6.72512 111.368 6.61449 111.332 6.5056C111.324 6.48424 111.317 6.46227 111.312 6.43988C111.272 6.32559 111.229 6.21129 111.181 6.09985C111.173 6.08516 111.166 6.06988 111.161 6.05414C111.109 5.9427 111.052 5.83412 110.992 5.7284L110.975 5.69411C110.954 5.64976 110.93 5.60681 110.903 5.56553C110.128 4.3483 108.765 3.63681 107.469 2.99391C106.259 2.35886 105.017 1.78663 103.748 1.27949C99.0302 -0.487044 93.8186 -0.413587 89.1523 1.48522C88.6914 1.65946 88.2548 1.89184 87.853 2.1767C87.2929 2.65002 86.8144 3.21179 86.4363 3.83969L84.2183 7.11136C83.9084 7.50935 83.6657 7.95527 83.5 8.43146C83.085 9.98586 84.3872 11.5431 84.2412 13.1461C84.1668 13.9433 83.7375 14.6748 83.6545 15.472C83.5486 16.5006 84.0266 17.4921 84.4931 18.4208L87.667 24.707C87.4981 25.5327 87.3121 26.3785 87.1089 27.1957C85.6464 28.7044 85.1542 29.5273 85.0197 29.9731L84.9767 29.9959C84.6871 30.1827 84.4379 30.4256 84.2441 30.7103L81.2276 33.6362C81.2276 33.6362 75.9845 34.9963 74.8941 36.7193C74.8941 36.7193 66.666 36.3593 66.7375 47.8315C66.7375 47.8315 66.374 52.1347 66.1651 52.7091C65.9562 53.2834 66.1651 59.0895 66.1651 59.0895L66.0678 70.8504C66.0678 70.8504 65.753 77.088 66.0678 79.3111C66.3826 81.5341 66.7461 89.9947 66.7461 89.9947C66.7461 89.9947 68.7123 98.241 67.9853 101.181C67.287 103.996 67.9853 110.15 69.1301 110.176C69.3476 110.625 69.5966 110.845 69.8685 110.719C69.9868 110.668 70.1082 110.624 70.232 110.588V117.614C70.232 117.614 68.8153 127.458 70.4037 129.329C69.3505 130.826 68.1141 133.381 67.7993 134.052L56.6663 133.455L55.2496 133.852L53.9503 134.215L53.1633 152.294L53.4781 152.316L53.4552 152.868L54.1993 152.922L53.1633 171.129L68.5749 172.395C67.8966 173.912 67.1096 175.538 66.8033 175.695C66.231 175.981 64.9831 175.124 64.6912 175.478C64.3993 175.833 63.5264 176.267 62.5076 176.05C61.4887 175.833 60.8333 176.981 60.8333 176.981C60.8333 176.981 60.9821 177.113 61.2054 177.356C59.5512 177.156 57.4591 178.041 56.3229 178.613C55.8135 178.87 55.4958 179.061 55.4958 179.061H52.4907L54.1421 189.579L55.3069 190.374L55.5931 198.66C55.5931 198.66 60.2523 213.001 62.3874 212.907C62.526 212.902 62.6619 212.867 62.7859 212.805C62.9098 212.743 63.0189 212.655 63.1057 212.547C64.2505 211.227 63.4577 206.692 63.4577 206.692V199.143C63.4577 199.143 65.2035 198.377 65.0089 197.803C64.8143 197.228 67.8251 190.945 68.0941 190.374C68.1018 190.369 68.108 190.362 68.112 190.354C68.1161 190.346 68.1178 190.337 68.117 190.328C68.117 189.682 69.4278 188.965 69.3533 188.679C69.2789 188.393 72.5587 186.599 72.7877 185.022C73.0166 183.445 75.1889 184.305 75.1889 184.305L77.9535 181.133C78.0365 184.999 78.1939 187.705 78.4658 188.391C79.7766 191.691 80.286 196.854 80.286 196.854C80.286 196.854 79.4846 200.797 80.286 202.089C80.7782 202.877 81.923 203.723 82.7186 204.423C81.8915 206.926 82.0089 212.247 82.0089 212.247V215.304L88.1249 217.018C88.1249 217.018 88.3166 215.49 88.6085 215.49C88.9005 215.49 92.7841 218.453 92.7841 218.453C92.7841 218.453 107.735 218.644 111.518 218.453C112.949 218.381 113.339 217.767 113.118 217.024C112.755 215.787 110.714 214.184 108.9 214.061C105.986 213.87 102.297 210.812 102.297 210.812C102.297 210.812 102.583 210.141 101.035 209.186C99.9648 208.529 97.0026 205.869 95.171 204.312C95.2569 204.195 95.3456 204.078 95.4286 203.952C95.4286 203.952 92.953 200.523 93.4653 199.003C93.9776 197.483 93.2449 195.288 93.2449 195.288C93.2449 195.288 91.8626 191.057 91.8626 188.905C91.8626 187.542 91.6565 179.79 91.5077 174.292L92.7841 174.398L92.8099 173.85L93.3823 173.901L98.7942 174.398L98.6282 168.623C101.235 167.48 103.405 166.42 104.303 165.743C107.36 163.457 109.982 163.306 109.982 163.306C109.982 163.306 116.169 160.009 117.116 158.646C118.064 157.283 117.975 147.388 117.975 147.388L117.466 126.18V126.163C117.466 126.163 117.031 115.911 116.155 113.688C115.834 112.865 115.042 110.122 114.174 106.99C114.673 106.939 115.176 106.96 115.668 107.053C115.7 107.819 115.72 108.345 115.72 108.525C115.72 109.742 117.466 110.776 117.466 110.776L116.229 83.3456V64.6842C120.041 65.8958 129.26 66.2729 129.26 66.2729C135.902 65.9243 134.302 59.8896 134.302 59.8896ZM98.3449 36.3221H98.3249C98.4602 35.603 98.637 34.8922 98.8543 34.1934L98.3449 36.3221ZM73.3257 130.406C75.5838 130.778 78.191 130.669 78.3885 130.232C78.4086 130.189 78.4343 130.112 78.4687 130.012C78.5402 130.138 78.6089 130.266 78.6804 130.398L78.4601 134.535V134.629L71.019 134.229C71.5399 132.015 72.5244 130.935 73.3257 130.406ZM98.1302 151.282L97.9385 144.582C98.2705 143.347 98.5681 142.227 98.8228 141.267C98.9373 142.064 99.0346 142.799 99.109 143.476C99.8131 149.833 98.7742 151.074 98.1302 151.282ZM119.309 50.8232C118.882 50.9861 117.26 49.966 115.72 48.9088C115.72 48.7145 115.734 48.523 115.743 48.3373C115.96 43.9627 108.825 41.2396 106.642 40.7367C106.112 40.6002 105.598 40.4087 105.108 40.1653C103.944 39.5899 102.813 38.9518 101.719 38.2537L101.748 38.1708C101.748 38.1708 98.9316 36.3907 98.8715 34.1705C99.5133 32.1511 100.323 30.1889 101.293 28.3044C101.347 28.1929 101.407 28.0758 101.464 27.9643C102.795 27.5511 104.038 26.8941 105.128 26.0271C105.566 31.7418 113.848 36.6593 113.848 36.6593L114.732 38.088L114.941 38.4251C114.495 38.688 114.28 38.8995 114.432 39.0223C115.062 39.5252 116.584 42.3711 117.214 43.5741C117.385 43.8998 117.5 44.1027 117.5 44.1027C117.5 44.1027 118.854 47.7801 119.629 50.8575C119.526 50.8145 119.413 50.8026 119.303 50.8232H119.309Z" fill="url(#paint0_linear)"/>
<path d="M122.509 36.0024L122.411 36.131L122.079 36.5738L115.711 41.0656L114.361 38.8483L113.502 37.4196C113.502 37.4196 100.809 29.8191 106.267 22.4928C111.725 15.1665 119.79 31.7792 119.79 31.7792L122.509 36.0024Z" fill="#FFC5D3"/>
<path d="M109.702 18.1048C109.675 18.0512 109.609 18.0297 109.556 18.0566C109.502 18.0836 109.48 18.1489 109.507 18.2024L110.215 19.6061C110.242 19.6596 110.308 19.6812 110.361 19.6542C110.415 19.6272 110.437 19.5619 110.41 19.5084L109.702 18.1048Z" fill="#3A3768"/>
<path d="M102.435 20.0674L102.432 20.0687C102.402 20.0836 102.391 20.1197 102.405 20.1493L102.617 20.5678C102.631 20.5974 102.668 20.6093 102.697 20.5944L102.7 20.5931C102.729 20.5782 102.741 20.5422 102.726 20.5126L102.515 20.094C102.5 20.0644 102.464 20.0525 102.435 20.0674Z" fill="#3A3768"/>
<path d="M103.013 21.0581C102.996 21.0243 102.955 21.0107 102.921 21.0277C102.887 21.0448 102.873 21.086 102.89 21.1198L103.291 21.9135C103.308 21.9473 103.349 21.9609 103.383 21.9439C103.417 21.9269 103.43 21.8856 103.413 21.8518L103.013 21.0581Z" fill="#3A3768"/>
<path d="M103.63 22.2945C103.613 22.2621 103.574 22.249 103.541 22.2654C103.509 22.2817 103.496 22.3212 103.512 22.3536L103.919 23.1601C103.935 23.1925 103.975 23.2055 104.007 23.1892C104.04 23.1729 104.053 23.1334 104.036 23.1009L103.63 22.2945Z" fill="#3A3768"/>
<path d="M107.481 15.3496L102.134 18.0383C101.817 18.1973 101.69 18.5821 101.849 18.8978L107.918 30.928C108.077 31.2437 108.462 31.3707 108.778 31.2118L114.126 28.5231C114.442 28.3641 114.569 27.9793 114.41 27.6636L108.342 15.6334C108.183 15.3177 107.797 15.1906 107.481 15.3496Z" fill="#3A3768"/>
<path d="M106.797 16.1134C106.766 16.1285 106.739 16.1496 106.717 16.1754C106.694 16.2013 106.677 16.2313 106.667 16.2637C106.656 16.2962 106.652 16.3304 106.655 16.3645C106.657 16.3985 106.667 16.4316 106.683 16.462L106.706 16.5106C106.721 16.5411 106.731 16.5745 106.734 16.6087C106.736 16.643 106.732 16.6774 106.722 16.7101C106.711 16.7428 106.694 16.7731 106.672 16.7991C106.649 16.8252 106.622 16.8466 106.591 16.862L103.838 18.245C103.807 18.2607 103.774 18.2702 103.74 18.2729C103.706 18.2756 103.672 18.2716 103.639 18.2609C103.607 18.2503 103.577 18.2333 103.551 18.2109C103.525 18.1886 103.504 18.1613 103.489 18.1307L103.463 18.0821C103.448 18.0515 103.427 18.0242 103.401 18.0018C103.375 17.9793 103.345 17.9622 103.313 17.9513C103.28 17.9404 103.246 17.936 103.212 17.9384C103.178 17.9407 103.144 17.9498 103.114 17.965L102.579 18.2364C102.52 18.2652 102.468 18.3054 102.425 18.3547C102.382 18.4039 102.349 18.4612 102.329 18.5231C102.308 18.5851 102.3 18.6506 102.305 18.7156C102.31 18.7807 102.328 18.8441 102.358 18.9022L108.208 30.4945C108.268 30.6119 108.372 30.7008 108.498 30.742C108.623 30.7832 108.76 30.7733 108.878 30.7145L113.68 28.3C113.798 28.2401 113.887 28.1362 113.928 28.011C113.969 27.8858 113.959 27.7493 113.9 27.6314L108.048 16.0334C108.018 15.975 107.978 15.923 107.928 15.8803C107.878 15.8376 107.821 15.8051 107.759 15.7847C107.696 15.7642 107.631 15.7563 107.566 15.7612C107.5 15.7661 107.437 15.7838 107.378 15.8134L106.797 16.1134Z" fill="#00BFA6"/>
<path d="M105.196 16.9904L104.473 17.3541C104.422 17.3797 104.402 17.4415 104.427 17.4923C104.453 17.543 104.515 17.5634 104.566 17.5379L105.289 17.1742C105.34 17.1486 105.36 17.0868 105.335 17.036C105.309 16.9853 105.247 16.9649 105.196 16.9904Z" fill="#E6E8EC"/>
<path d="M105.572 17.0234C105.637 17.0234 105.689 16.9709 105.689 16.9062C105.689 16.8415 105.637 16.7891 105.572 16.7891C105.507 16.7891 105.455 16.8415 105.455 16.9062C105.455 16.9709 105.507 17.0234 105.572 17.0234Z" fill="#E6E8EC"/>
<path d="M110.918 60.5762L109.129 108.5C109.129 108.5 115.14 106.5 116.07 108C117 109.5 115.068 83.9979 115.068 83.9979L110.918 60.5762Z" fill="#5F5570"/>
<path opacity="0.15" d="M110.918 60.5762L109.129 108.5C109.129 108.5 115.14 106.5 116.07 108C117 109.5 115.068 83.9979 115.068 83.9979L110.918 60.5762Z" fill="black"/>
<path d="M111.204 218.539C107.483 218.73 92.7928 218.539 92.7928 218.539C92.7928 218.539 88.975 215.587 88.6888 215.587C88.4026 215.587 88.2137 217.11 88.2137 217.11L82.2036 215.396V212.35C82.2036 212.35 82.0119 203.678 83.8235 203.3C85.6351 202.923 93.6514 203.3 93.6514 203.3C93.9376 203.206 99.3753 208.349 100.901 209.301C102.426 210.252 102.14 210.921 102.14 210.921C102.14 210.921 105.766 213.967 108.628 214.158C110.411 214.278 112.417 215.873 112.775 217.11C112.992 217.856 112.606 218.467 111.204 218.539Z" fill="#BC8487"/>
<path opacity="0.1" d="M111.204 218.539C107.483 218.731 92.7928 218.539 92.7928 218.539C92.7928 218.539 88.975 215.588 88.6888 215.588C88.4026 215.588 88.2137 217.111 88.2137 217.111L82.2036 215.396V212.41L87.8302 214.445L92.3149 217.111H112.775C112.992 217.856 112.606 218.468 111.204 218.539Z" fill="black"/>
<g opacity="0.1">
<path d="M94.4985 214.064C94.4985 214.064 99.0777 209.684 102.14 210.921L94.4985 214.064Z" fill="black"/>
<path d="M94.4985 214.064C94.4985 214.064 99.0777 209.684 102.14 210.921" stroke="black" stroke-miterlimit="10"/>
</g>
<path d="M65.5076 197.967C65.6993 198.538 63.9821 199.301 63.9821 199.301V206.824C63.9821 206.824 64.7606 211.342 63.6358 212.659C63.5514 212.766 63.4447 212.853 63.3231 212.915C63.2016 212.977 63.0681 213.011 62.9318 213.016C60.834 213.111 56.2549 198.824 56.2549 198.824L55.9687 190.569L54.8239 189.777L53.2012 179.299H56.1604C56.1604 179.299 56.4724 179.108 56.9732 178.851C58.4042 178.122 61.4007 176.851 63.0291 178.062L68.5613 190.506C68.5613 190.506 65.3187 197.395 65.5076 197.967Z" fill="#BC8487"/>
<path opacity="0.1" d="M63.6359 212.66C63.5514 212.767 63.4447 212.854 63.3232 212.916C63.2016 212.977 63.0681 213.012 62.9318 213.017C60.834 213.111 56.2549 198.824 56.2549 198.824L55.9687 190.57L54.8239 189.778L53.2012 179.3H56.1604C56.1604 179.3 56.4724 179.109 56.9732 178.852L57.6859 189.587L58.0665 198.824C58.0665 198.824 61.6611 208.882 63.6359 212.66Z" fill="black"/>
<path d="M116.713 158.941C115.783 160.298 109.702 163.584 109.702 163.584C109.702 163.584 107.126 163.727 104.121 166.013C102.567 167.196 97.1663 169.542 92.3153 171.533C87.7849 173.393 83.7295 174.942 83.7295 174.942L79.0588 180.371L75.5014 184.506C75.5014 184.506 73.3549 183.649 73.1403 185.22C72.9256 186.792 69.7059 188.577 69.7775 188.863C69.849 189.149 68.5611 189.863 68.5611 190.506C68.5611 191.149 63.7674 185.863 63.8389 182.648C63.9105 179.434 61.4062 177.219 61.4062 177.219C61.4062 177.219 62.0502 176.077 63.0519 176.291C64.0536 176.505 64.9121 176.077 65.1983 175.719C65.4845 175.362 66.7009 176.219 67.2733 175.934C67.8456 175.648 70.1352 170.005 70.1352 170.005L79.0559 164.03L96.8 152.155L97.6185 151.606C97.6185 151.606 99.9796 152.686 99.0209 143.837C98.8349 142.123 98.5229 140.039 98.0478 137.502C95.1143 121.858 105.632 120.072 105.632 120.072L114.862 123.144L117.08 126.573V126.59L117.581 147.717C117.581 147.717 117.644 157.584 116.713 158.941Z" fill="#433A59"/>
<path opacity="0.1" d="M92.2435 168.94C92.2435 168.94 92.2722 169.955 92.3151 171.532C87.7846 173.392 83.7292 174.941 83.7292 174.941L79.0586 180.37C78.9813 175.869 78.9984 170.023 79.0586 164.031L96.8026 152.156C94.6075 160.28 92.2435 168.94 92.2435 168.94Z" fill="black"/>
<path opacity="0.1" d="M117.071 126.581V126.598L103.191 126.866C103.191 126.866 100.758 136.367 100.4 138.367C100.311 138.859 99.7734 140.959 99.0121 143.845C98.8261 142.13 98.5141 140.047 98.039 137.51C95.1055 121.866 105.623 120.08 105.623 120.08L114.853 123.152L117.071 126.581Z" fill="black"/>
<path d="M80.51 100.65L78.7213 134.939C78.7213 134.939 77.4334 185.3 78.7213 188.586C80.0092 191.872 80.51 197.015 80.51 197.015C80.51 197.015 79.723 200.944 80.51 202.229C81.2971 203.515 83.8013 204.944 83.7297 205.658C83.6582 206.373 91.3854 210.23 95.3922 204.087C95.3922 204.087 92.9595 200.658 93.4604 199.158C93.9612 197.658 93.2457 195.443 93.2457 195.443C93.2457 195.443 91.8863 191.229 91.8863 189.077C91.8863 186.925 91.3854 168.933 91.3854 168.933C91.3854 168.933 99.1843 140.359 99.542 138.359C99.8998 136.359 102.332 126.858 102.332 126.858L117.071 126.572C117.071 126.572 116.642 116.357 115.784 114.143C114.925 111.928 110.704 95.7129 110.704 95.7129L80.51 100.65Z" fill="#433A59"/>
<path d="M55.9109 134.264L54.6316 134.629L54.5801 135.892L92.9359 136.387V135.889L55.9109 134.264Z" fill="#7B728F"/>
<path d="M101.153 29.1078C95.5719 40.4087 99.0377 42.7717 99.5901 43.0631C98.4081 42.5145 83.0452 35.3083 85.0657 33.4796C86.3793 32.288 87.5041 27.1048 88.1652 23.3902C88.5573 21.1729 88.7862 19.4785 88.7862 19.4785L104.908 22.4302C103.345 24.9446 102.103 27.1591 101.153 29.1078Z" fill="#FFC5D3"/>
<path opacity="0.1" d="M122.423 36.1308L122.091 36.5737L115.712 41.0655L114.361 38.8482C116.327 37.7052 122.223 35.7051 122.223 35.7051L122.423 36.1308Z" fill="black"/>
<path d="M128.304 46.4316C127.732 48.4317 118.073 46.4316 118.073 46.4316L117.071 44.86C117.071 44.86 116.971 44.66 116.802 44.3343C116.184 43.1371 114.687 40.3026 114.069 39.7997C113.282 39.1568 122.512 36.0137 122.512 36.0137L125.339 42.157C126.036 42.6248 126.68 43.1682 127.257 43.7771C127.972 44.5515 128.565 45.5201 128.304 46.4316Z" fill="#E5E8EF"/>
<path d="M112.277 47.3516C112.277 47.3516 118.001 51.8605 118.86 51.5347C119.718 51.209 133.599 60.5668 133.599 60.5668C133.599 60.5668 135.173 66.5673 128.662 66.9245C128.662 66.9245 114.853 66.353 114.281 64.3528C113.708 62.3527 112.277 47.3516 112.277 47.3516Z" fill="#5F5570"/>
<path opacity="0.1" d="M96.6798 38.2879L90.4551 44.7169L99.184 100.15L102.618 98.1495C102.618 98.1495 111.49 102.078 112.206 98.4352C112.921 94.7921 112.724 80.4339 112.724 80.4339L111.562 54.4948C111.562 54.4948 107.484 45.4227 107.484 45.137C107.484 44.8512 101.602 40.4223 101.602 40.4223L98.8263 38.2793L96.6798 38.2879Z" fill="black"/>
<path d="M96.6798 37.4324L90.4551 43.8615L99.184 99.2942L102.618 97.294C102.618 97.294 111.49 101.223 112.206 97.5798C112.921 93.9366 112.724 79.5784 112.724 79.5784L111.562 53.6393C111.562 53.6393 107.484 44.5672 107.484 44.2815C107.484 43.9957 101.602 39.5668 101.602 39.5668L98.8263 37.4238L96.6798 37.4324Z" fill="#E5E8EF"/>
<path opacity="0.1" d="M97.0375 38.3597L95.3203 41.8599L97.0375 43.6686C97.0375 43.6686 103.191 56.0753 101.974 63.433L103.262 87.6491L107.412 91.7208L110.703 87.9262L109.129 65.9246C109.129 65.9246 104.908 47.7804 100.472 42.1371L99.1839 37.1367L97.0375 38.3597Z" fill="black"/>
<path d="M97.0375 37.7894L95.3203 41.2896L97.0375 43.0983C97.0375 43.0983 103.191 55.505 101.974 62.8627L103.262 87.0788L107.412 91.1505L110.703 87.3559L109.129 65.3543C109.129 65.3543 104.908 47.2101 100.472 41.5668L99.1839 36.5664L97.0375 37.7894Z" fill="#BC8487"/>
<path opacity="0.1" d="M104.908 22.4308C103.345 24.9453 102.115 27.1597 101.153 29.1084C100.14 29.4066 99.0896 29.5577 98.0335 29.557C94.4962 29.557 92.4585 27.114 90.4551 24.5195C89.9972 23.9309 88.4918 24.068 88.1655 23.3766C88.5576 21.1593 88.7866 19.4648 88.7866 19.4648L104.908 22.4308Z" fill="black"/>
<path d="M109.003 18.3161C109.003 20.9245 108.07 23.4472 106.373 25.4303C104.676 27.4133 102.326 28.7265 99.7453 29.1336C97.1648 29.5407 94.5234 29.0148 92.2966 27.6508C90.0697 26.2867 88.4036 24.1739 87.598 21.6927C86.7924 19.2114 86.9003 16.5245 87.9021 14.1156C88.904 11.7066 90.7341 9.73372 93.0632 8.55192C95.3922 7.37013 98.0672 7.05703 100.607 7.66895C103.147 8.28088 105.384 9.77765 106.917 11.8899C108.273 13.759 109.003 16.0081 109.003 18.3161Z" fill="#FFC5D3"/>
<path opacity="0.1" d="M94.5332 42.7184L85.518 31.8605C85.518 31.8605 84.6852 31.5262 87.4985 28.5859C87.4985 28.5859 97.8301 36.6265 98.4712 37.9924C99.1123 39.3582 94.5332 42.7184 94.5332 42.7184Z" fill="black"/>
<path d="M94.247 42.1462L85.2319 31.2882C85.2319 31.2882 84.3991 30.9539 87.2124 28.0137C87.2124 28.0137 97.544 36.0543 98.1851 37.4201C98.8262 38.7859 94.247 42.1462 94.247 42.1462Z" fill="#E5E8EF"/>
<path d="M117.071 111.252C117.071 111.252 115.354 110.223 115.354 109.009C115.354 107.794 114.495 90.6502 114.495 90.6502C114.495 90.6502 113.236 80.418 111.92 72.286C111.147 67.4942 110.354 63.4282 109.793 62.6224L109.77 62.5881C108.268 60.6594 108.554 51.2301 99.1812 37.4434C99.3071 37.5291 102.538 39.7921 104.905 40.9293C105.387 41.171 105.892 41.3625 106.413 41.5008C108.56 42.0008 115.572 44.7153 115.357 49.0728C115.142 53.4303 115.858 63.431 115.858 63.431V83.9268L117.071 111.252Z" fill="#5F5570"/>
<path d="M117.071 44.8599C117.071 44.8599 120.076 53.1463 119.647 55.2178C119.218 57.2894 126.587 65.4329 126.587 65.4329L133.599 60.5754C133.599 60.5754 130.952 55.2893 131.309 53.7177C131.667 52.1462 129.449 48.7888 129.449 48.7888L129.592 43.2227C129.592 43.2227 128.304 45.6371 117.071 44.8599Z" fill="#5F5570"/>
<path opacity="0.1" d="M106.917 11.8898L101.479 12.0955C100.948 12.0921 100.419 12.1583 99.9053 12.2927C97.962 12.8899 97.0662 14.9529 96.9947 16.8073C96.9232 18.6617 95.8499 20.739 93.7693 20.9019C93.5622 20.937 93.3496 20.8898 93.1769 20.7705C93.0449 20.6303 92.9573 20.4544 92.925 20.2647C92.6266 19.1842 92.1653 18.1552 91.557 17.2131C90.6984 17.3674 90.0631 18.1817 89.8398 19.0332C89.6166 19.8847 89.6767 20.7819 89.6796 21.6648C89.6821 22.7861 89.5738 23.905 89.3561 25.0051C88.4689 23.8552 87.8195 22.5407 87.4456 21.138C87.0717 19.7353 86.9808 18.2724 87.1783 16.8343C87.3757 15.3962 87.8574 14.0117 88.5955 12.7611C89.3336 11.5106 90.3133 10.419 91.4777 9.54983C92.642 8.68065 93.9678 8.05122 95.378 7.69812C96.7882 7.34503 98.2546 7.27533 99.692 7.49306C101.129 7.71079 102.509 8.21161 103.751 8.96641C104.993 9.72121 106.072 10.7149 106.926 11.8898H106.917Z" fill="black"/>
<path d="M99.6218 12.0061C100.136 11.8717 100.665 11.8055 101.196 11.8089L107.798 11.5632C108.766 11.5261 109.845 11.4403 110.494 10.7231C110.728 10.4493 110.899 10.1287 110.998 9.78307C111.168 9.23078 111.218 8.64861 111.144 8.07552C111.071 7.50242 110.876 6.95162 110.572 6.45996C109.807 5.24558 108.468 4.53982 107.192 3.88834C106.004 3.25468 104.784 2.68245 103.537 2.17393C98.9055 0.417895 93.7776 0.491471 89.1985 2.37966C88.7461 2.55303 88.3173 2.78246 87.9221 3.06256C87.3702 3.53471 86.9002 4.09468 86.5312 4.71983L84.359 7.98865C84.0593 8.38779 83.8281 8.8339 83.675 9.30875C83.2657 10.8603 84.5336 12.4118 84.4019 14.0091C84.3275 14.8034 83.9068 15.5321 83.8295 16.3264C83.7265 17.3522 84.1959 18.3266 84.6566 19.2609L88.4745 26.9501C89.091 25.1571 89.4034 23.2739 89.3989 21.3782C89.3989 20.4953 89.3245 19.5981 89.5592 18.7466C89.7938 17.8951 90.4177 17.0808 91.2763 16.9265C91.8861 17.8681 92.3484 18.8972 92.6472 19.9781C92.6788 20.168 92.7665 20.3441 92.899 20.4839C93.0716 20.6035 93.2844 20.6507 93.4915 20.6153C95.5836 20.4524 96.6396 18.3951 96.7169 16.5207C96.7942 14.6463 97.6785 12.6033 99.6218 12.0061Z" fill="#8F7080"/>
<path d="M54.6318 134.63L57.3049 133.867L97.6097 136.059L93.1737 136.63L54.6318 134.63Z" fill="#7B728F"/>
<path opacity="0.1" d="M54.6318 134.63L57.3049 133.867L97.6097 136.059L93.1737 136.63L54.6318 134.63Z" fill="black"/>
<path d="M98.706 174.633L93.3884 174.139L91.5225 173.967V144.439L92.0147 137.584L92.1235 136.059H97.6098L98.706 174.633Z" fill="#7B728F"/>
<path opacity="0.1" d="M97.2521 173.584L93.0107 173.115L91.5225 172.952V144.956L91.9145 138.458L92.0004 137.01H96.3763L97.2521 173.584Z" fill="black"/>
<path d="M68.166 134.63C68.166 134.63 70.8133 128.832 71.9238 128.652C73.0342 128.472 75.0719 128.652 75.0719 128.652L74.8916 130.332C74.8916 130.332 72.1727 130.547 71.3142 135.081L68.166 134.63Z" fill="#7B728F"/>
<path opacity="0.1" d="M68.166 134.63C68.166 134.63 70.8133 128.832 71.9238 128.652C73.0342 128.472 75.0719 128.652 75.0719 128.652L74.8916 130.332C74.8916 130.332 72.1727 130.547 71.3142 135.081L68.166 134.63Z" fill="black"/>
<path d="M78.4348 128.047C78.4348 128.047 85.5525 131.581 84.6224 135.725L80.7587 135.51C80.7587 135.51 78.8985 129.333 77.4331 129.01C75.9678 128.687 78.4348 128.047 78.4348 128.047Z" fill="#7B728F"/>
<path d="M104.907 72.0768V72.2854L104.764 96.0786C104.764 96.0786 101.115 116.08 100.114 116.866C99.1119 117.652 77.1464 115.509 77.1464 115.509L67.2012 48.575C67.1296 37.1456 75.2146 37.5028 75.2146 37.5028C76.2878 35.7884 81.4394 34.4311 81.4394 34.4311L84.3013 31.6452L84.3929 31.5166C84.5831 31.2336 84.8283 30.9916 85.1141 30.8051C85.7037 30.4651 86.0786 30.9137 86.2932 31.3566C86.3899 31.5645 86.4647 31.7819 86.5165 32.0052C98.1102 40.4944 104.907 72.0768 104.907 72.0768Z" fill="#5F5570"/>
<path opacity="0.1" d="M104.622 72.3635V72.5721C101.024 66.0001 87.1639 41.1011 83.3718 39.861L84.8314 38.861C84.8314 38.861 85.8045 38.2895 84.0158 37.718C84.0158 37.718 81.2254 38.0752 81.1538 34.7178L84.1073 31.8033L84.8286 31.0918L86.0077 31.6433C86.1043 31.8512 86.1791 32.0686 86.2309 32.2919C97.8247 40.7811 104.622 72.3635 104.622 72.3635Z" fill="black"/>
<path d="M104.908 72.0764V72.2849C101.31 65.713 87.45 40.814 83.658 39.5739L85.1176 38.5738C85.1176 38.5738 86.0906 38.0024 84.3019 37.4309C84.3019 37.4309 81.5115 37.7881 81.4399 34.4307L84.3935 31.5162L85.1147 30.8047L86.2938 31.3562C86.3904 31.5641 86.4652 31.7815 86.517 32.0048C98.1108 40.494 104.908 72.0764 104.908 72.0764Z" fill="#433A59"/>
<path opacity="0.1" d="M110.082 62.8958L110.059 62.8615C108.557 60.9328 108.843 51.5035 99.4702 37.7168C99.5961 37.8025 102.827 40.0655 105.194 41.2028L104.533 43.3801L105.964 44.143L110.082 62.8958Z" fill="black"/>
<path d="M109.796 62.6107L109.773 62.5764C108.271 60.6477 108.557 51.2184 99.1841 37.4316C99.31 37.5174 102.541 39.7804 104.908 40.9176L104.247 43.0949L105.678 43.8578L109.796 62.6107Z" fill="#433A59"/>
<path opacity="0.1" d="M98.7713 35.2305L98.1846 37.7049C98.1846 37.7049 98.6139 40.1823 101.187 40.3966L101.602 39.2165C101.602 39.2165 98.8256 37.4392 98.7713 35.2305Z" fill="black"/>
<path d="M98.7713 34.9453L98.1846 37.4198C98.1846 37.4198 98.6139 39.8971 101.187 40.1114L101.602 38.9313C101.602 38.9313 98.8256 37.154 98.7713 34.9453Z" fill="#E5E8EF"/>
<path opacity="0.1" d="M95.0713 136.459L93.3884 174.139L91.5225 173.968V144.44L92.0147 137.585L95.0713 136.459Z" fill="black"/>
<path d="M55.0149 151.011L53.8701 171.393L92.7927 174.633L94.4984 136.459L55.0149 151.011Z" fill="#7B728F"/>
<path opacity="0.1" d="M54.1562 153.202L54.9175 135.201L94.7845 137.03L92.887 156.06L54.1562 153.202Z" fill="black"/>
<path d="M53.8701 152.632L54.6314 134.631L94.4984 136.46L92.6009 155.49L53.8701 152.632Z" fill="#7B728F"/>
<path d="M75.43 152.654H70.6362V158.226H75.43V152.654Z" fill="#C3BBC8"/>
<path d="M71.3512 116.152L70.6357 118.081C70.6357 118.081 69.1332 128.653 70.9934 129.939C72.8537 131.225 78.363 131.296 78.6492 130.653C78.9353 130.011 80.9387 122.724 80.9387 122.724C80.9387 122.724 82.7274 128.082 83.6576 127.653C84.5877 127.225 81.5111 117.041 81.5111 117.041L71.3512 116.152Z" fill="#FFC5D3"/>
<path opacity="0.1" d="M70.6362 108.15V118.365C70.6362 118.365 78.2204 119.794 81.5116 117.325C81.5116 117.325 78.435 107.436 79.5798 104.936C80.7246 102.435 70.6362 108.15 70.6362 108.15Z" fill="black"/>
<path d="M70.6362 107.865V118.08C70.6362 118.08 78.2204 119.509 81.5116 117.04C81.5116 117.04 78.435 107.151 79.5798 104.65C80.7246 102.15 70.6362 107.865 70.6362 107.865Z" fill="#E5E8EF"/>
<path opacity="0.1" d="M69.7772 48.0743L67.7739 49.1458C67.7739 49.1458 67.4161 53.4318 67.2015 54.0033C66.9868 54.5748 67.2015 60.3609 67.2015 60.3609L67.1042 72.0761C67.1042 72.0761 66.7951 78.2908 67.1042 80.5053C67.4133 82.7197 67.7596 91.1489 67.7596 91.1489C67.7596 91.1489 69.6942 99.3638 68.9788 102.293C68.2633 105.221 69.0503 111.793 70.2666 111.222C71.483 110.65 82.7161 108.436 83.2885 108.007C83.8609 107.579 83.5747 103.578 83.2885 103.078C83.0023 102.578 81.2851 95.7921 81.4282 94.2206C81.5713 92.6491 80.9274 78.8623 80.9274 78.8623C80.9274 78.8623 82.0006 64.1469 82.4299 60.7181C82.8592 57.2893 81.5713 47.2171 80.4266 47.0742C79.2818 46.9313 75.9304 39.145 69.7772 48.0743Z" fill="black"/>
<path d="M69.2045 47.504L67.2011 48.5755C67.2011 48.5755 66.8434 52.8615 66.6287 53.433C66.4141 54.0045 66.6287 59.7906 66.6287 59.7906L66.5314 71.5058C66.5314 71.5058 66.2223 77.7205 66.5314 79.935C66.8405 82.1494 67.1868 90.5786 67.1868 90.5786C67.1868 90.5786 69.1215 98.7935 68.406 101.722C67.6905 104.651 68.4775 111.223 69.6939 110.652C70.9102 110.08 82.1434 107.866 82.7158 107.437C83.2881 107.008 83.002 103.008 82.7158 102.508C82.4296 102.008 80.7124 95.2218 80.8555 93.6503C80.9986 92.0787 80.3546 78.292 80.3546 78.292C80.3546 78.292 81.4279 63.5766 81.8572 60.1478C82.2865 56.7189 80.9986 46.6468 79.8538 46.5039C78.709 46.361 75.3577 38.5747 69.2045 47.504Z" fill="#5F5570"/>
<g opacity="0.1">
<path opacity="0.1" d="M90.8438 15.8555C89.9853 16.0098 89.3499 16.8241 89.1267 17.6756C88.9034 18.5271 88.9635 19.4243 88.9664 20.3072C88.9719 22.2028 88.6604 24.0859 88.0448 25.8791L84.2241 18.1899C84.1497 18.0385 84.0725 17.8813 83.998 17.7242C84.1748 18.2533 84.394 18.7674 84.6534 19.2614L88.4741 26.9506C89.0897 25.1574 89.4012 23.2743 89.3957 21.3787C89.3957 20.4958 89.3241 19.5986 89.556 18.7471C89.7878 17.8956 90.4145 17.0813 91.2731 16.927C91.5503 17.3604 91.7979 17.8119 92.0144 18.2785C91.7236 17.4266 91.3306 16.613 90.8438 15.8555Z" fill="black"/>
<path opacity="0.1" d="M110.64 6.58398C110.808 7.28695 110.784 8.022 110.571 8.71271C110.472 9.05856 110.299 9.37909 110.065 9.65279C109.415 10.37 108.348 10.4557 107.369 10.4928L100.769 10.7386C100.237 10.7351 99.707 10.8014 99.1923 10.9357C97.2519 11.5329 96.3533 13.5959 96.2817 15.4504C96.2102 17.3048 95.1369 19.3821 93.0563 19.545C92.8492 19.5801 92.6366 19.5329 92.4639 19.4135C92.5297 19.5992 92.5927 19.7878 92.647 19.985C92.6764 20.175 92.7633 20.3514 92.896 20.4907C93.0687 20.6101 93.2814 20.6573 93.4884 20.6222C95.5834 20.4593 96.6366 18.402 96.7139 16.5276C96.7911 14.6532 97.6841 12.6102 99.6245 12.013C100.139 11.8786 100.669 11.8123 101.201 11.8158L107.801 11.5701C108.768 11.5329 109.847 11.4472 110.497 10.73C110.731 10.4563 110.904 10.1358 111.004 9.78994C111.166 9.25915 111.217 8.70077 111.155 8.14934C111.092 7.59791 110.917 7.06514 110.64 6.58398Z" fill="black"/>
</g>
<path opacity="0.1" d="M99.8936 123.778C99.8936 123.778 102.372 122.492 103.328 122.563C104.284 122.635 112.867 133.533 112.867 133.533L99.8936 123.778Z" fill="black"/>
<path opacity="0.1" d="M74.4707 50.0234C74.4707 50.0234 69.9403 51.955 70.0605 53.2894C70.1807 54.6238 74.4707 50.0234 74.4707 50.0234Z" fill="black"/>
<path opacity="0.1" d="M72.2646 56.3379C72.2646 56.3379 67.5109 62.4069 68.5612 62.6098C69.6115 62.8127 72.2646 56.3379 72.2646 56.3379Z" fill="black"/>
<path opacity="0.1" d="M88.1651 65.4336C88.1651 65.4336 88.6001 79.006 85.1143 80.7205L88.1651 65.4336Z" fill="black"/>
<path opacity="0.1" d="M70.0493 101.673C70.0493 101.673 73.4035 99.7698 74.1734 100.15C74.9433 100.53 70.0493 101.673 70.0493 101.673Z" fill="black"/>
<path opacity="0.1" d="M70.6362 104.305C70.6362 104.305 72.7541 104.457 73.7586 104.019C74.7632 103.582 70.6362 104.305 70.6362 104.305Z" fill="black"/>
<path opacity="0.1" d="M121.192 54.3262C121.192 54.3262 123.82 61.861 125.334 61.861L121.192 54.3262Z" fill="black"/>
<path opacity="0.1" d="M83.8325 198.636C83.8325 198.636 88.7608 197.302 89.4877 198.636C90.2146 199.97 83.8325 198.636 83.8325 198.636Z" fill="black"/>
<path opacity="0.1" d="M68.1658 178.852C68.1658 178.852 66.938 180.729 68.5608 181.3C70.1835 181.872 68.1658 178.852 68.1658 178.852Z" fill="black"/>
<path opacity="0.1" d="M100.901 152.654C100.901 152.654 104.622 155.963 106.379 156.06C108.136 156.157 100.901 152.654 100.901 152.654Z" fill="black"/>
<path d="M247.444 17.0963C247.444 17.0963 223.35 15.6362 226.189 32.4946C226.189 32.4946 225.616 35.4748 228.329 36.8292C228.329 36.8292 228.372 35.5777 230.802 36.0034C231.666 36.1466 232.544 36.1888 233.418 36.1291C234.598 36.0491 235.719 35.5888 236.615 34.8176C236.615 34.8176 243.389 32.026 246.022 20.9709C246.022 20.9709 247.971 18.5592 247.894 17.9392L243.827 19.6736C243.827 19.6736 245.218 22.6024 244.113 25.0369C244.113 25.0369 243.981 19.7793 243.2 19.8936C243.04 19.9194 241.085 20.908 241.085 20.908C241.085 20.908 243.478 26.0112 241.672 29.7172C241.672 29.7172 242.359 23.431 240.341 21.2766L237.479 22.9453C237.479 22.9453 240.275 28.2143 238.381 32.5146C238.381 32.5146 238.867 25.9198 236.878 23.351L234.285 25.3712C234.285 25.3712 236.909 30.5659 235.31 34.1318C235.31 34.1318 235.101 26.4541 233.721 25.8741C233.721 25.8741 231.455 27.8742 231.108 28.6914C231.108 28.6914 232.906 32.4632 231.789 34.4519C231.789 34.4519 231.105 29.3372 230.544 29.3086C230.544 29.3086 228.284 32.6975 228.049 35.0233C228.049 35.0233 228.146 31.5659 229.998 28.9857C229.998 28.9857 227.811 29.3601 226.535 30.7773C226.535 30.7773 226.887 28.38 230.542 28.1714C230.542 28.1714 232.408 25.5998 232.908 25.4426C232.908 25.4426 229.259 25.1397 227.047 26.117C227.047 26.117 228.996 23.8568 233.578 24.8854L236.154 22.7996C236.154 22.7996 231.349 22.1424 229.314 22.8681C229.314 22.8681 231.658 20.868 236.844 22.3252L239.631 20.6594C239.631 20.6594 235.536 19.7793 233.097 20.0879C233.097 20.0879 235.673 18.7021 240.447 20.2051L242.45 19.3107C242.45 19.3107 239.451 18.7221 238.572 18.6307C237.694 18.5392 237.645 18.2935 237.645 18.2935C239.546 17.9772 241.498 18.1939 243.283 18.9193C243.283 18.9193 247.519 17.3506 247.444 17.0963Z" fill="#00BFA6"/>
<path d="M199.618 13.8637C199.618 13.8637 188.743 13.2093 190.013 20.8271C190.013 20.8271 189.759 22.1729 190.981 22.7843C190.981 22.7843 191.001 22.2129 192.097 22.41C192.488 22.4771 192.886 22.4963 193.282 22.4672C193.81 22.4277 194.312 22.2193 194.713 21.8728C194.713 21.8728 197.772 20.6099 198.963 15.6152C198.963 15.6152 199.844 14.5266 199.821 14.2466L197.978 15.0295C197.978 15.0295 198.605 16.3524 198.113 17.4525C198.113 17.4525 198.053 15.078 197.698 15.1323C197.626 15.1323 196.745 15.5924 196.745 15.5924C196.745 15.5924 197.824 17.8983 197.008 19.5727C197.008 19.5727 197.32 16.7325 196.407 15.7581L195.116 16.5124C195.116 16.5124 196.378 18.8926 195.523 20.8356C195.523 20.8356 195.743 17.8554 194.844 16.6953L193.674 17.6097C193.674 17.6097 194.859 19.9556 194.135 21.5671C194.135 21.5671 194.04 18.0983 193.419 17.8354C193.419 17.8354 192.395 18.7383 192.237 19.1098C192.237 19.1098 193.05 20.8242 192.546 21.7128C192.546 21.7128 192.237 19.4012 191.974 19.3898C191.974 19.3898 190.952 20.9213 190.846 21.9614C190.896 20.9914 191.2 20.0513 191.728 19.2355C191.138 19.3464 190.594 19.6275 190.162 20.0441C190.162 20.0441 190.323 18.9612 191.98 18.8669C191.98 18.8669 192.824 17.704 193.05 17.6354C193.05 17.6354 191.401 17.4954 190.4 17.9383C190.4 17.9383 191.281 16.9182 193.35 17.3668L194.495 16.4239C194.495 16.4239 192.323 16.1381 191.404 16.4553C191.404 16.4553 192.463 15.5524 194.804 16.2096L196.066 15.4581C196.066 15.4581 194.215 15.0609 193.113 15.2038C193.113 15.2038 194.275 14.578 196.436 15.2552L197.334 14.8523C197.334 14.8523 195.981 14.5866 195.583 14.5437C195.185 14.5009 195.165 14.3923 195.165 14.3923C196.024 14.2514 196.906 14.3503 197.712 14.678C197.712 14.678 199.652 13.9837 199.618 13.8637Z" fill="#00BFA6"/>
<path opacity="0.1" d="M242.293 207.852C246.549 207.852 250 207.27 250 206.552C250 205.834 246.549 205.252 242.293 205.252C238.036 205.252 234.585 205.834 234.585 206.552C234.585 207.27 238.036 207.852 242.293 207.852Z" fill="#00BFA6"/>
<path opacity="0.1" d="M7.70723 188.501C11.9638 188.501 15.4145 187.919 15.4145 187.201C15.4145 186.482 11.9638 185.9 7.70723 185.9C3.45065 185.9 0 186.482 0 187.201C0 187.919 3.45065 188.501 7.70723 188.501Z" fill="#00BFA6"/>
<path opacity="0.1" d="M236.93 182.67C241.186 182.67 244.637 182.088 244.637 181.37C244.637 180.652 241.186 180.07 236.93 180.07C232.673 180.07 229.223 180.652 229.223 181.37C229.223 182.088 232.673 182.67 236.93 182.67Z" fill="#00BFA6"/>
<path opacity="0.1" d="M37.5173 195.475C41.7739 195.475 45.2245 194.893 45.2245 194.175C45.2245 193.457 41.7739 192.875 37.5173 192.875C33.2607 192.875 29.8101 193.457 29.8101 194.175C29.8101 194.893 33.2607 195.475 37.5173 195.475Z" fill="#00BFA6"/>
<path opacity="0.1" d="M202.575 196.592C206.831 196.592 210.282 196.01 210.282 195.292C210.282 194.574 206.831 193.992 202.575 193.992C198.318 193.992 194.868 194.574 194.868 195.292C194.868 196.01 198.318 196.592 202.575 196.592Z" fill="#00BFA6"/>
<path d="M225.424 222.429C231.78 222.429 236.932 221.559 236.932 220.486C236.932 219.413 231.78 218.543 225.424 218.543C219.069 218.543 213.917 219.413 213.917 220.486C213.917 221.559 219.069 222.429 225.424 222.429Z" fill="#00BFA6"/>
<path d="M230.181 217.308C230.706 216.881 231.088 216.305 231.277 215.657C231.421 215 231.14 214.228 230.51 213.974C229.806 213.705 229.054 214.191 228.484 214.682C227.915 215.174 227.259 215.737 226.512 215.634C226.897 215.286 227.184 214.845 227.347 214.353C227.51 213.862 227.543 213.336 227.442 212.828C227.409 212.618 227.319 212.42 227.182 212.257C226.793 211.839 226.083 212.019 225.616 212.348C224.128 213.394 223.713 215.411 223.705 217.228C223.556 216.571 223.682 215.888 223.676 215.228C223.67 214.568 223.49 213.8 222.921 213.451C222.569 213.262 222.174 213.169 221.776 213.179C221.106 213.157 220.362 213.222 219.907 213.711C219.334 214.317 219.486 215.337 219.978 215.997C220.471 216.657 221.223 217.083 221.916 217.546C222.471 217.875 222.943 218.325 223.298 218.863C223.342 218.937 223.376 219.015 223.401 219.097H227.597C228.535 218.62 229.404 218.018 230.181 217.308Z" fill="#00BFA6"/>
<path d="M37.9152 162.217C37.9152 162.217 39.4893 164.268 37.1911 167.36C34.893 170.452 32.9984 173.075 33.7568 175.006C33.7568 175.006 37.2255 169.252 40.0531 169.172C42.8807 169.092 41.0204 165.686 37.9152 162.217Z" fill="#00BFA6"/>
<path opacity="0.1" d="M37.9154 162.217C38.0531 162.414 38.1611 162.631 38.2359 162.86C40.9891 166.089 42.4573 169.103 39.81 169.18C37.3458 169.249 34.3895 173.649 33.6797 174.761C33.703 174.847 33.7307 174.932 33.7627 175.015C33.7627 175.015 37.2314 169.26 40.059 169.18C42.8866 169.1 41.0206 165.686 37.9154 162.217Z" fill="black"/>
<path d="M40.8372 164.841C40.8372 165.564 40.757 166.15 40.6569 166.15C40.5567 166.15 40.4766 165.578 40.4766 164.841C40.4766 164.104 40.5767 164.458 40.6769 164.458C40.7771 164.458 40.8372 164.118 40.8372 164.841Z" fill="#FFD037"/>
<path d="M41.842 165.703C41.2066 166.049 40.6514 166.257 40.6056 166.172C40.5598 166.086 41.032 165.732 41.6674 165.386C42.3027 165.04 42.0537 165.292 42.0995 165.386C42.1453 165.48 42.4773 165.36 41.842 165.703Z" fill="#FFD037"/>
<path d="M29.6123 162.217C29.6123 162.217 28.0382 164.268 30.3364 167.36C32.6345 170.452 34.5291 173.075 33.7707 175.006C33.7707 175.006 30.3049 169.252 27.4744 169.172C24.6439 169.092 26.5071 165.686 29.6123 162.217Z" fill="#00BFA6"/>
<path opacity="0.1" d="M29.6126 162.217C29.4746 162.415 29.3657 162.631 29.2892 162.86C26.536 166.089 25.0707 169.103 27.7152 169.18C30.1822 169.249 33.1386 173.649 33.8483 174.761C33.8253 174.847 33.7966 174.932 33.7625 175.015C33.7625 175.015 30.2967 169.26 27.4662 169.18C24.6357 169.1 26.5074 165.686 29.6126 162.217Z" fill="black"/>
<path d="M26.6875 164.841C26.6875 165.564 26.7705 166.15 26.8707 166.15C26.9708 166.15 27.051 165.578 27.051 164.841C27.051 164.104 26.9508 164.458 26.8506 164.458C26.7505 164.458 26.6875 164.118 26.6875 164.841Z" fill="#FFD037"/>
<path d="M25.6892 165.703C26.3246 166.049 26.8769 166.257 26.9256 166.172C26.9742 166.086 26.4963 165.732 25.8609 165.386C25.2256 165.04 25.4774 165.292 25.4288 165.386C25.3801 165.48 25.051 165.36 25.6892 165.703Z" fill="#FFD037"/>
<path d="M27.1885 174.756C27.1885 174.756 31.5844 174.622 32.9124 173.679C34.2403 172.736 39.6752 171.613 40.0014 173.124C40.3277 174.636 46.6097 180.636 41.6471 180.676C36.6844 180.716 30.1134 179.905 28.7912 179.099C27.4689 178.293 27.1885 174.756 27.1885 174.756Z" fill="#A8A8A8"/>
<path opacity="0.2" d="M41.7329 180.15C36.7703 180.19 30.1993 179.379 28.877 178.573C27.8725 177.962 27.469 175.764 27.3344 174.75H27.1885C27.1885 174.75 27.4747 178.29 28.7883 179.093C30.1019 179.896 36.6816 180.71 41.6442 180.67C43.0752 180.67 43.5703 180.15 43.5445 179.396C43.3442 179.856 42.7976 180.142 41.7329 180.15Z" fill="black"/>
</g>
<defs>
<linearGradient id="paint0_linear" x1="93.4824" y1="218.539" x2="93.4824" y2="-0.000601497" gradientUnits="userSpaceOnUse">
<stop stop-color="#808080" stop-opacity="0.25"/>
<stop offset="0.54" stop-color="#808080" stop-opacity="0.12"/>
<stop offset="1" stop-color="#808080" stop-opacity="0.1"/>
</linearGradient>
<clipPath id="clip0">
<rect width="250" height="229" fill="white"/>
</clipPath>
</defs>
</svg>
