<svg width="1421" height="1421" viewBox="0 0 1421 1421" fill="none" xmlns="http://www.w3.org/2000/svg">
<path d="M0 0H1421V1421H0V0Z" fill="#F0DB4F"/>
<path d="M1304.7 1082.09C1294.3 1017.26 1252.02 962.822 1126.8 912.033C1083.31 892.042 1034.82 877.725 1020.36 844.766C1015.23 825.585 1014.56 814.779 1017.8 803.162C1027.12 765.476 1072.1 753.724 1107.76 764.53C1130.72 772.23 1152.47 789.926 1165.57 818.156C1226.89 778.445 1226.76 778.713 1269.58 751.429C1253.91 727.116 1245.54 715.903 1235.27 705.504C1198.39 664.305 1148.15 643.098 1067.78 644.719C1053.86 646.475 1039.82 648.365 1025.9 650.122C985.785 660.253 947.557 681.325 925.135 709.556C857.867 785.874 877.048 919.463 958.904 974.44C1039.54 1034.95 1158.01 1048.73 1173.13 1105.33C1187.86 1174.62 1122.21 1197.04 1056.97 1189.08C1008.88 1179.08 982.138 1154.63 953.231 1110.19C900.012 1140.99 900.012 1140.99 845.306 1172.46C858.274 1200.83 871.915 1213.66 893.664 1238.24C996.591 1342.66 1254.18 1337.52 1300.38 1179.49C1302.27 1174.08 1314.7 1137.88 1304.7 1082.09ZM772.499 653.093H639.584C639.584 767.907 639.045 881.911 639.045 996.726C639.045 1069.8 642.827 1136.8 630.941 1157.33C611.49 1197.72 561.106 1192.72 538.143 1184.89C514.775 1173.4 502.889 1157.06 489.111 1133.96C485.329 1127.34 482.492 1122.21 481.545 1121.81C445.481 1143.82 409.55 1165.98 373.484 1187.99C391.451 1224.87 417.924 1256.88 451.828 1277.68C502.482 1308.08 570.56 1317.4 641.747 1301.05C688.078 1287.54 728.059 1259.58 748.996 1217.04C779.253 1161.25 772.769 1093.71 772.499 1019.01C773.174 897.175 772.499 775.336 772.499 653.093Z" fill="#323330"/>
</svg>
