<svg width="74" height="76" viewBox="0 0 74 76" fill="none" xmlns="http://www.w3.org/2000/svg">
<g clip-path="url(#clip0)">
<path d="M73.92 36.9999V73.9999H46.78V36.9999C46.7788 34.7894 46.0325 32.6438 44.6617 30.9096C43.2909 29.1754 41.3756 27.9539 39.2251 27.4423C37.0746 26.9307 34.8144 27.1588 32.8095 28.0899C30.8046 29.021 29.1721 30.6007 28.1756 32.5739C27.179 34.547 26.8766 36.7985 27.3172 38.9647C27.7578 41.1308 28.9157 43.0853 30.6038 44.5124C32.292 45.9395 34.4119 46.7559 36.6212 46.8299C38.8305 46.9038 41.0002 46.231 42.78 44.9199V73.4599C40.8623 73.7702 38.9226 73.924 36.98 73.9199C29.6621 73.9199 22.5085 71.7499 16.4239 67.6843C10.3393 63.6187 5.5969 57.8401 2.79645 51.0792C-0.00398803 44.3184 -0.736711 36.8789 0.690942 29.7016C2.11859 22.5243 5.6425 15.9315 10.817 10.757C15.9916 5.58245 22.5844 2.05854 29.7617 0.630883C36.939 -0.79677 44.3784 -0.0640466 51.1393 2.7364C57.9001 5.53684 63.6788 10.2792 67.7444 16.3638C71.81 22.4485 73.98 29.602 73.98 36.9199L73.92 36.9999Z" fill="#001B12"/>
<path d="M52.1774 65.5607V68.4005C51.9928 68.2964 51.8247 68.2443 51.6733 68.2443C51.1905 68.2443 50.9491 68.6135 50.9491 69.3518V72.71H48.2939V68.8407C48.2939 67.8183 48.5731 67.0042 49.1316 66.3984C49.6901 65.7878 50.4356 65.4826 51.368 65.4826C51.5763 65.4826 51.846 65.5086 52.1774 65.5607ZM52.9654 65.731H55.6207V69.7281C55.6207 70.1304 55.7887 70.3316 56.1247 70.3316C56.4561 70.3316 56.6217 70.1304 56.6217 69.7281V65.731H59.277V69.6784C59.277 70.5966 58.9717 71.3729 58.3611 72.0071C57.7506 72.6366 57.0027 72.9513 56.1176 72.9513C55.1095 72.9513 54.2978 72.5845 53.6825 71.8509C53.2044 71.2782 52.9654 70.4831 52.9654 69.4654V65.731ZM63.487 63.019V72.71H60.8318V63.019H63.487ZM72.0066 69.6003H67.9811C67.9196 69.3968 67.8888 69.2099 67.8888 69.0395C67.8888 68.8028 67.9314 68.5709 68.0166 68.3437H69.3655C69.2709 67.8183 68.975 67.5556 68.4781 67.5556C68.1468 67.5556 67.877 67.6976 67.6687 67.9816C67.4605 68.2609 67.3563 68.6206 67.3563 69.0608C67.3563 69.5199 67.4557 69.8914 67.6545 70.1754C67.858 70.4594 68.1231 70.6014 68.4497 70.6014C68.7147 70.6014 68.9703 70.4689 69.2164 70.2038L70.7286 72.0213C70.0234 72.5751 69.2401 72.852 68.3787 72.852C67.3279 72.852 66.4452 72.4993 65.7305 71.7941C65.0158 71.0889 64.6585 70.2156 64.6585 69.1744C64.6585 68.1378 65.0182 67.2622 65.7376 66.5475C66.4618 65.8328 67.3492 65.4755 68.4 65.4755C69.427 65.4755 70.2885 65.8257 70.9842 66.5262C71.6847 67.222 72.035 68.081 72.035 69.1034C72.035 69.2075 72.0255 69.3731 72.0066 69.6003Z" fill="white"/>
</g>
<defs>
<clipPath id="clip0">
<rect width="73.92" height="75.88" fill="white"/>
</clipPath>
</defs>
</svg>
