<svg width="797" height="485" viewBox="0 0 797 485" fill="none" xmlns="http://www.w3.org/2000/svg">
<g clip-path="url(#clip0)">
<path d="M536.847 86.4919C544.16 86.4919 551.172 89.4002 556.343 94.5769C561.513 99.7536 564.418 106.775 564.418 114.096V312.384C564.418 319.705 561.513 326.726 556.343 331.902C551.172 337.079 544.16 339.987 536.847 339.987H191.846C184.534 339.987 177.521 337.079 172.351 331.902C167.18 326.726 164.275 319.705 164.275 312.384V114.096C164.275 106.775 167.18 99.7536 172.351 94.5769C177.521 89.4002 184.534 86.4919 191.846 86.4919H536.847ZM536.847 70.3896H191.846C180.268 70.3896 169.165 74.9944 160.978 83.1909C152.792 91.3874 148.192 102.504 148.192 114.096V312.384C148.192 323.975 152.792 335.092 160.978 343.288C169.165 351.485 180.268 356.09 191.846 356.09H536.847C548.425 356.09 559.528 351.485 567.715 343.288C575.902 335.092 580.501 323.975 580.501 312.384V114.096C580.501 102.504 575.902 91.3874 567.715 83.1909C559.528 74.9944 548.425 70.3896 536.847 70.3896Z" fill="url(#paint0_linear)"/>
<path d="M421.694 356.09H307V440.006H421.694V356.09Z" fill="url(#paint1_linear)"/>
<path d="M538.387 84.4678H190.261C175.059 84.4678 162.736 96.8058 162.736 112.026V311.97C162.736 327.189 175.059 339.528 190.261 339.528H538.387C553.588 339.528 565.911 327.189 565.911 311.97V112.026C565.911 96.8058 553.588 84.4678 538.387 84.4678Z" fill="#F0E2EC"/>
<g filter="url(#filter0_d)">
<path d="M538.202 457.764H190.467C189.865 457.765 189.271 457.635 188.724 457.384C188.177 457.133 187.691 456.766 187.298 456.31C186.906 455.854 186.616 455.318 186.449 454.739C186.282 454.16 186.242 453.552 186.331 452.957L187.549 444.745C187.702 443.755 188.203 442.852 188.961 442.199C189.719 441.545 190.684 441.184 191.685 441.179L534.021 439.96C534.837 439.961 535.636 440.201 536.318 440.65C536.999 441.1 537.535 441.74 537.858 442.49L541.947 451.899C542.217 452.53 542.329 453.217 542.273 453.901C542.217 454.585 541.995 455.245 541.625 455.824C541.256 456.402 540.751 456.881 540.155 457.22C539.558 457.558 538.888 457.745 538.202 457.764Z" fill="url(#paint2_linear)"/>
<path d="M538.202 457.764H190.467C189.865 457.765 189.271 457.635 188.724 457.384C188.177 457.133 187.691 456.766 187.298 456.31C186.906 455.854 186.616 455.318 186.449 454.739C186.282 454.16 186.242 453.552 186.331 452.957L187.549 444.745C187.702 443.755 188.203 442.852 188.961 442.199C189.719 441.545 190.684 441.184 191.685 441.179L534.021 439.96C534.837 439.961 535.636 440.201 536.318 440.65C536.999 441.1 537.535 441.74 537.858 442.49L541.947 451.899C542.217 452.53 542.329 453.217 542.273 453.901C542.217 454.585 541.995 455.245 541.625 455.824C541.256 456.402 540.751 456.881 540.155 457.22C539.558 457.558 538.888 457.745 538.202 457.764Z" stroke="white" stroke-miterlimit="10"/>
</g>
<g filter="url(#filter1_d)">
<path d="M630.22 0H435.019C428.929 0 423.991 4.94347 423.991 11.0415V157.894C423.991 163.992 428.929 168.936 435.019 168.936H630.22C636.311 168.936 641.248 163.992 641.248 157.894V11.0415C641.248 4.94347 636.311 0 630.22 0Z" fill="url(#paint3_linear)"/>
</g>
<path d="M630.978 12.8359H433.297C431.812 12.8359 430.608 14.0409 430.608 15.5273C430.608 17.0137 431.812 18.2187 433.297 18.2187H630.978C632.463 18.2187 633.667 17.0137 633.667 15.5273C633.667 14.0409 632.463 12.8359 630.978 12.8359Z" fill="#EDE1E8"/>
<path d="M436.536 9.59206C438.173 9.59206 439.5 8.2635 439.5 6.62464C439.5 4.98578 438.173 3.65723 436.536 3.65723C434.899 3.65723 433.572 4.98578 433.572 6.62464C433.572 8.2635 434.899 9.59206 436.536 9.59206Z" fill="url(#paint4_linear)"/>
<path d="M444.601 9.59206C446.237 9.59206 447.564 8.2635 447.564 6.62464C447.564 4.98578 446.237 3.65723 444.601 3.65723C442.964 3.65723 441.637 4.98578 441.637 6.62464C441.637 8.2635 442.964 9.59206 444.601 9.59206Z" fill="url(#paint5_linear)"/>
<path d="M452.665 9.59206C454.302 9.59206 455.629 8.2635 455.629 6.62464C455.629 4.98578 454.302 3.65723 452.665 3.65723C451.028 3.65723 449.701 4.98578 449.701 6.62464C449.701 8.2635 451.028 9.59206 452.665 9.59206Z" fill="url(#paint6_linear)"/>
<path d="M500.707 47.1113H441.683V51.0449H500.707V47.1113Z" fill="url(#paint7_linear)"/>
<path d="M514.791 56.4268H461.533V60.3603H514.791V56.4268Z" fill="url(#paint8_linear)"/>
<path d="M472.814 62.8457H461.533V66.7792H472.814V62.8457Z" fill="url(#paint9_linear)"/>
<path d="M452.964 56.4268H441.683V60.3603H452.964V56.4268Z" fill="url(#paint10_linear)"/>
<path d="M472.814 69.2637H461.533V73.1972H472.814V69.2637Z" fill="url(#paint11_linear)"/>
<path d="M600.743 49.0664H589.462V53H600.743V49.0664Z" fill="url(#paint12_linear)"/>
<path d="M566.785 62.8457H486.853V66.7792H566.785V62.8457Z" fill="url(#paint13_linear)"/>
<path d="M562.948 69.2637H486.853V73.1972H562.948V69.2637Z" fill="url(#paint14_linear)"/>
<path d="M514.791 78.8086H461.533V82.7422H514.791V78.8086Z" fill="url(#paint15_linear)"/>
<path d="M472.814 85.2266H461.533V89.1601H472.814V85.2266Z" fill="url(#paint16_linear)"/>
<path d="M452.964 78.8086H441.683V82.7422H452.964V78.8086Z" fill="url(#paint17_linear)"/>
<path d="M452.964 112.738H441.683V116.672H452.964V112.738Z" fill="url(#paint18_linear)"/>
<path d="M452.918 136.777H441.637V140.711H452.918V136.777Z" fill="url(#paint19_linear)"/>
<path d="M472.814 91.6445H461.533V95.5781H472.814V91.6445Z" fill="url(#paint20_linear)"/>
<path d="M566.785 85.2266H486.853V89.1601H566.785V85.2266Z" fill="url(#paint21_linear)"/>
<path d="M562.948 91.6445H486.853V95.5781H562.948V91.6445Z" fill="url(#paint22_linear)"/>
<path d="M514.791 112.738H461.533V116.672H514.791V112.738Z" fill="url(#paint23_linear)"/>
<path d="M472.814 119.156H461.533V123.09H472.814V119.156Z" fill="url(#paint24_linear)"/>
<path d="M472.814 125.574H461.533V129.508H472.814V125.574Z" fill="url(#paint25_linear)"/>
<path d="M559.846 119.156H486.853V123.09H559.846V119.156Z" fill="url(#paint26_linear)"/>
<path d="M556.354 125.574H486.853V129.508H556.354V125.574Z" fill="url(#paint27_linear)"/>
<path d="M514.791 136.777H461.533V140.711H514.791V136.777Z" fill="url(#paint28_linear)"/>
<path d="M472.814 143.195H461.533V147.129H472.814V143.195Z" fill="url(#paint29_linear)"/>
<path d="M472.814 149.613H461.533V153.547H472.814V149.613Z" fill="url(#paint30_linear)"/>
<path d="M559.846 143.195H486.853V147.129H559.846V143.195Z" fill="url(#paint31_linear)"/>
<path d="M556.354 149.613H486.853V153.547H556.354V149.613Z" fill="url(#paint32_linear)"/>
<path d="M472.814 98.0625H461.533V101.996H472.814V98.0625Z" fill="url(#paint33_linear)"/>
<path d="M566.785 97.9707H486.853V102.111H566.785V97.9707Z" fill="url(#paint34_linear)"/>
<path d="M504.636 106.229H486.853V110.369H504.636V106.229Z" fill="url(#paint35_linear)"/>
<g filter="url(#filter2_d)">
<path d="M777.356 37.3799H718.216C707.367 37.3799 698.572 46.1854 698.572 57.0476V76.5084C698.572 87.3706 707.367 96.1761 718.216 96.1761H777.356C788.205 96.1761 797 87.3706 797 76.5084V57.0476C797 46.1854 788.205 37.3799 777.356 37.3799Z" fill="url(#paint36_linear)"/>
</g>
<path d="M717.807 76V59.8439H719.945V66.4783H728.343V59.8439H730.481V76H728.343V68.3848H719.945V76H717.807ZM738.162 76V61.7505H732.839V59.8439H745.645V61.7505H740.3V76H738.162ZM747.783 76V59.8439H751.001L754.825 71.2832C755.178 72.3485 755.435 73.1457 755.597 73.6747C755.78 73.0869 756.067 72.2236 756.456 71.0849L760.324 59.8439H763.201V76H761.14V62.4778L756.445 76H754.517L749.844 62.2464V76H747.783ZM766.562 76V59.8439H768.7V74.0935H776.657V76H766.562Z" fill="white"/>
<g filter="url(#filter3_d)">
<path d="M677.231 265H604.375C600.302 265 597 268.306 597 272.384V296.261C597 300.339 600.302 303.645 604.375 303.645H677.231C681.304 303.645 684.606 300.339 684.606 296.261V272.384C684.606 268.306 681.304 265 677.231 265Z" fill="#F6EFF2"/>
</g>
<path d="M633.465 272.696H637.148V284.283C637.148 285.798 637.015 286.963 636.749 287.779C636.391 288.844 635.742 289.702 634.801 290.351C633.86 290.992 632.62 291.312 631.08 291.312C629.274 291.312 627.884 290.809 626.91 289.801C625.936 288.786 625.445 287.3 625.437 285.344L628.92 284.945C628.962 285.993 629.116 286.734 629.382 287.167C629.782 287.825 630.39 288.153 631.205 288.153C632.029 288.153 632.612 287.92 632.953 287.454C633.294 286.98 633.465 286.002 633.465 284.52V272.696ZM639.833 287.217L643.353 286.68C643.503 287.363 643.807 287.883 644.265 288.241C644.723 288.59 645.364 288.765 646.188 288.765C647.095 288.765 647.777 288.599 648.235 288.266C648.543 288.033 648.697 287.721 648.697 287.329C648.697 287.063 648.614 286.842 648.447 286.668C648.273 286.501 647.881 286.347 647.274 286.206C644.444 285.581 642.65 285.011 641.893 284.495C640.844 283.779 640.32 282.785 640.32 281.511C640.32 280.362 640.773 279.397 641.68 278.615C642.588 277.832 643.994 277.441 645.9 277.441C647.715 277.441 649.063 277.736 649.946 278.327C650.828 278.918 651.436 279.792 651.769 280.949L648.46 281.561C648.318 281.045 648.048 280.65 647.648 280.375C647.257 280.1 646.695 279.963 645.963 279.963C645.039 279.963 644.377 280.092 643.978 280.35C643.711 280.533 643.578 280.77 643.578 281.062C643.578 281.311 643.695 281.524 643.928 281.698C644.244 281.931 645.334 282.26 647.199 282.685C649.072 283.109 650.379 283.629 651.119 284.245C651.852 284.87 652.218 285.74 652.218 286.855C652.218 288.07 651.71 289.115 650.695 289.989C649.679 290.863 648.177 291.3 646.188 291.3C644.381 291.3 642.95 290.933 641.893 290.201C640.844 289.468 640.157 288.474 639.833 287.217Z" fill="#34AB55"/>
<g filter="url(#filter4_d)">
<path d="M225.046 12.8359H193.064C185.755 12.8359 179.83 18.7681 179.83 26.0858V36.5753C179.83 43.893 185.755 49.8251 193.064 49.8251H225.046C232.355 49.8251 238.28 43.893 238.28 36.5753V26.0858C238.28 18.7681 232.355 12.8359 225.046 12.8359Z" fill="url(#paint37_linear)"/>
</g>
<path d="M205.048 36.3227L194.954 31.9335V29.5028L205.048 25.1337V27.9962L198.008 30.688L205.048 33.4802V36.3227ZM205.982 38.2511L209.628 23.0245H211.748L208.062 38.2511H205.982ZM212.692 36.3327V33.4903L219.743 30.7181L212.692 27.9761V25.1538L222.796 29.5229V31.9335L212.692 36.3327Z" fill="white"/>
<g filter="url(#filter5_d)">
<path d="M102.104 330.004C123.574 330.004 140.978 312.578 140.978 291.083C140.978 269.587 123.574 252.161 102.104 252.161C80.6338 252.161 63.229 269.587 63.229 291.083C63.229 312.578 80.6338 330.004 102.104 330.004Z" fill="url(#paint38_linear)"/>
</g>
<path d="M84.1824 286.758L99.4152 303.183C99.7144 303.514 100.086 303.773 100.502 303.937C100.917 304.101 101.365 304.167 101.81 304.129C102.255 304.091 102.685 303.951 103.067 303.719C103.448 303.487 103.771 303.169 104.01 302.791L125.171 269.828C125.351 269.546 125.418 269.206 125.359 268.876C125.3 268.547 125.12 268.251 124.854 268.049C124.588 267.846 124.256 267.751 123.923 267.782C123.59 267.813 123.281 267.969 123.057 268.218L101.552 292.141C101.102 292.645 100.49 292.974 99.8215 293.071C99.1535 293.168 98.4728 293.026 97.8988 292.67L85.469 285.24C85.2643 285.147 85.0349 285.123 84.8155 285.173C84.5962 285.222 84.3988 285.341 84.2534 285.513C84.1079 285.685 84.0223 285.899 84.0095 286.124C83.9967 286.348 84.0574 286.571 84.1824 286.758Z" fill="#53B45F" stroke="url(#paint39_linear)" stroke-width="0.25" stroke-miterlimit="10"/>
<g filter="url(#filter6_d)">
<path d="M553.781 204.567H416.892C413.885 204.567 411.447 207.008 411.447 210.019V318.364C411.447 321.375 413.885 323.816 416.892 323.816H553.781C556.788 323.816 559.226 321.375 559.226 318.364V210.019C559.226 207.008 556.788 204.567 553.781 204.567Z" fill="url(#paint40_linear)"/>
</g>
<path d="M421.027 216C422.664 216 423.991 214.672 423.991 213.033C423.991 211.394 422.664 210.065 421.027 210.065C419.39 210.065 418.063 211.394 418.063 213.033C418.063 214.672 419.39 216 421.027 216Z" fill="url(#paint41_linear)"/>
<path d="M429.092 216C430.729 216 432.056 214.672 432.056 213.033C432.056 211.394 430.729 210.065 429.092 210.065C427.455 210.065 426.128 211.394 426.128 213.033C426.128 214.672 427.455 216 429.092 216Z" fill="url(#paint42_linear)"/>
<path d="M437.156 216C438.793 216 440.12 214.672 440.12 213.033C440.12 211.394 438.793 210.065 437.156 210.065C435.519 210.065 434.192 211.394 434.192 213.033C434.192 214.672 435.519 216 437.156 216Z" fill="url(#paint43_linear)"/>
<path d="M464.589 308.428H423.785C421.919 308.428 420.407 309.942 420.407 311.809C420.407 313.677 421.919 315.191 423.785 315.191H464.589C466.455 315.191 467.967 313.677 467.967 311.809C467.967 309.942 466.455 308.428 464.589 308.428Z" fill="url(#paint44_linear)"/>
<path d="M464.589 297.247H423.785C421.919 297.247 420.407 298.761 420.407 300.629C420.407 302.496 421.919 304.01 423.785 304.01H464.589C466.455 304.01 467.967 302.496 467.967 300.629C467.967 298.761 466.455 297.247 464.589 297.247Z" fill="url(#paint45_linear)"/>
<path d="M546.888 224.373H506.083C504.218 224.373 502.706 225.887 502.706 227.755C502.706 229.622 504.218 231.136 506.083 231.136H546.888C548.753 231.136 550.265 229.622 550.265 227.755C550.265 225.887 548.753 224.373 546.888 224.373Z" fill="url(#paint46_linear)"/>
<path d="M546.888 213.193H506.083C504.218 213.193 502.706 214.707 502.706 216.575C502.706 218.442 504.218 219.956 506.083 219.956H546.888C548.753 219.956 550.265 218.442 550.265 216.575C550.265 214.707 548.753 213.193 546.888 213.193Z" fill="url(#paint47_linear)"/>
<g filter="url(#filter7_d)">
<path d="M483.82 300.629C503.92 300.629 520.213 284.316 520.213 264.192C520.213 244.068 503.92 227.755 483.82 227.755C463.721 227.755 447.427 244.068 447.427 264.192C447.427 284.316 463.721 300.629 483.82 300.629Z" fill="url(#paint48_linear)"/>
</g>
<g filter="url(#filter8_d)">
<path d="M522.948 258.51C524.042 267.094 522.21 275.795 517.748 283.206C513.286 290.616 506.456 296.302 498.364 299.341C497.832 299.527 497.267 299.599 496.706 299.552C496.145 299.506 495.6 299.341 495.106 299.07C494.612 298.799 494.18 298.427 493.839 297.979C493.498 297.53 493.255 297.014 493.126 296.466L485.888 267.344C485.631 266.297 485.799 265.192 486.354 264.269C486.91 263.346 487.808 262.682 488.852 262.421L517.939 255.198C518.487 255.056 519.058 255.031 519.616 255.125C520.174 255.218 520.707 255.428 521.179 255.74C521.651 256.052 522.052 256.46 522.357 256.937C522.662 257.414 522.863 257.95 522.948 258.51Z" fill="url(#paint49_linear)"/>
</g>
<g filter="url(#filter9_d)">
<path d="M392.423 285.977H180.68C177.482 285.977 174.89 288.572 174.89 291.773V322.138C174.89 325.339 177.482 327.934 180.68 327.934H392.423C395.621 327.934 398.213 325.339 398.213 322.138V291.773C398.213 288.572 395.621 285.977 392.423 285.977Z" fill="url(#paint50_linear)"/>
</g>
<path d="M373.399 304.885H183.712V309.025H373.399V304.885Z" fill="url(#paint51_linear)"/>
<path d="M373.399 318.687H183.712V322.827H373.399V318.687Z" fill="url(#paint52_linear)"/>
<path d="M340.383 291.083H183.712V295.224H340.383V291.083Z" fill="url(#paint53_linear)"/>
<g filter="url(#filter10_d)">
<path d="M144.539 163.661C144.544 167.123 143.651 170.526 141.947 173.539C140.244 176.551 137.788 179.068 134.821 180.845C131.708 182.748 128.129 183.751 124.482 183.743H22.7458C16.7133 183.743 10.9278 181.344 6.6621 177.073C2.39643 172.802 0 167.01 0 160.97C0 154.93 2.39643 149.138 6.6621 144.867C10.9278 140.596 16.7133 138.197 22.7458 138.197C23.381 138.162 24.0176 138.162 24.6528 138.197C24.4874 136.792 24.403 135.379 24.4001 133.964C24.4148 124.938 27.8135 116.246 33.9235 109.609C40.0335 102.972 48.4095 98.8735 57.3937 98.1243C66.378 97.3752 75.3158 100.03 82.4381 105.564C89.5605 111.098 94.3484 119.107 95.8541 128.006C98.57 127.179 101.43 126.937 104.246 127.297C107.062 127.657 109.77 128.611 112.191 130.096C114.612 131.58 116.691 133.562 118.29 135.91C119.89 138.258 120.975 140.919 121.472 143.718C122.467 143.559 123.474 143.482 124.482 143.488C127.123 143.488 129.739 144.01 132.179 145.025C134.618 146.04 136.833 147.527 138.697 149.402C140.561 151.276 142.036 153.501 143.039 155.948C144.042 158.395 144.551 161.016 144.539 163.661Z" fill="url(#paint54_linear)"/>
</g>
<g filter="url(#filter11_d)">
<path d="M268.952 353.928L275.845 350.225C276.242 352.831 275.826 355.496 274.655 357.857C273.483 360.218 271.613 362.159 269.299 363.417C266.986 364.675 264.34 365.187 261.725 364.885C259.109 364.582 256.651 363.479 254.684 361.726L219.233 381.141C219.644 383.751 219.237 386.425 218.069 388.794C216.901 391.163 215.029 393.112 212.709 394.373C210.39 395.634 207.737 396.144 205.116 395.834C202.496 395.525 200.035 394.41 198.072 392.643L204.965 388.916L200.921 381.532L194.144 385.236C193.733 382.626 194.139 379.952 195.307 377.583C196.476 375.213 198.348 373.264 200.667 372.004C202.987 370.743 205.639 370.233 208.26 370.542C210.881 370.852 213.342 371.967 215.304 373.734L250.434 354.411C250.023 351.801 250.429 349.128 251.598 346.758C252.766 344.389 254.638 342.44 256.958 341.179C259.277 339.919 261.929 339.408 264.55 339.718C267.171 340.028 269.632 341.143 271.594 342.91L264.702 346.613L268.952 353.928Z" fill="url(#paint55_linear)"/>
</g>
<g filter="url(#filter12_d)">
<path d="M380.475 95.2568H175.901C172.399 95.2568 169.56 98.0993 169.56 101.606V257.844C169.56 261.35 172.399 264.193 175.901 264.193H380.475C383.978 264.193 386.817 261.35 386.817 257.844V101.606C386.817 98.0993 383.978 95.2568 380.475 95.2568Z" fill="url(#paint56_linear)"/>
</g>
<path d="M376.547 113.751H178.865C177.38 113.751 176.177 114.956 176.177 116.442C176.177 117.929 177.38 119.134 178.865 119.134H376.547C378.031 119.134 379.235 117.929 379.235 116.442C379.235 114.956 378.031 113.751 376.547 113.751Z" fill="#EDE1E8"/>
<path d="M182.105 108.852C183.742 108.852 185.069 107.523 185.069 105.884C185.069 104.246 183.742 102.917 182.105 102.917C180.468 102.917 179.141 104.246 179.141 105.884C179.141 107.523 180.468 108.852 182.105 108.852Z" fill="url(#paint57_linear)"/>
<path d="M190.169 108.852C191.806 108.852 193.133 107.523 193.133 105.884C193.133 104.246 191.806 102.917 190.169 102.917C188.532 102.917 187.205 104.246 187.205 105.884C187.205 107.523 188.532 108.852 190.169 108.852Z" fill="url(#paint58_linear)"/>
<path d="M198.234 108.852C199.871 108.852 201.198 107.523 201.198 105.884C201.198 104.246 199.871 102.917 198.234 102.917C196.597 102.917 195.27 104.246 195.27 105.884C195.27 107.523 196.597 108.852 198.234 108.852Z" fill="url(#paint59_linear)"/>
<path d="M369.333 216.046H187.021C185.156 216.046 183.644 217.56 183.644 219.427C183.644 221.295 185.156 222.809 187.021 222.809H369.333C371.198 222.809 372.71 221.295 372.71 219.427C372.71 217.56 371.198 216.046 369.333 216.046Z" fill="url(#paint60_linear)"/>
<path d="M368.85 227.64H186.539C184.674 227.64 183.162 229.154 183.162 231.021C183.162 232.889 184.674 234.403 186.539 234.403H368.85C370.716 234.403 372.228 232.889 372.228 231.021C372.228 229.154 370.716 227.64 368.85 227.64Z" fill="url(#paint61_linear)"/>
<path d="M368.85 239.233H186.539C184.674 239.233 183.162 240.747 183.162 242.615C183.162 244.482 184.674 245.996 186.539 245.996H368.85C370.716 245.996 372.228 244.482 372.228 242.615C372.228 240.747 370.716 239.233 368.85 239.233Z" fill="url(#paint62_linear)"/>
<g filter="url(#filter13_d)">
<path d="M234.833 167.187H228.607C228.601 162.001 226.542 157.029 222.882 153.36C219.221 149.691 214.257 147.623 209.078 147.611V141.4C215.908 141.4 222.459 144.117 227.29 148.953C232.12 153.789 234.833 160.348 234.833 167.187Z" fill="url(#paint63_linear)"/>
</g>
<g filter="url(#filter14_d)">
<path d="M234.834 167.187C234.838 172.294 233.329 177.287 230.499 181.535C227.668 185.783 223.642 189.094 218.931 191.051C214.219 193.007 209.034 193.52 204.031 192.525C199.029 191.53 194.433 189.071 190.827 185.46C187.22 181.849 184.765 177.248 183.771 172.24C182.777 167.231 183.289 162.04 185.243 157.322C187.197 152.605 190.505 148.575 194.747 145.741C198.99 142.906 203.977 141.396 209.078 141.4V147.611C205.211 147.611 201.431 148.759 198.215 150.91C195 153.061 192.494 156.119 191.014 159.696C189.534 163.273 189.147 167.209 189.901 171.006C190.656 174.803 192.518 178.291 195.252 181.029C197.987 183.767 201.471 185.631 205.263 186.387C209.056 187.142 212.988 186.754 216.56 185.273C220.133 183.791 223.187 181.282 225.335 178.063C227.483 174.844 228.63 171.059 228.63 167.187H234.834Z" fill="url(#paint64_linear)"/>
</g>
<g filter="url(#filter15_d)">
<path d="M299.441 167.187H293.214C293.214 164.616 292.709 162.071 291.726 159.696C290.743 157.321 289.303 155.163 287.488 153.345C285.672 151.527 283.517 150.085 281.144 149.101C278.772 148.118 276.23 147.611 273.662 147.611V141.4C277.046 141.397 280.398 142.062 283.525 143.357C286.653 144.651 289.495 146.55 291.889 148.945C294.283 151.34 296.182 154.184 297.478 157.314C298.774 160.444 299.441 163.799 299.441 167.187Z" fill="url(#paint65_linear)"/>
</g>
<g filter="url(#filter16_d)">
<path d="M299.441 167.187C299.446 172.293 297.938 177.285 295.108 181.532C292.278 185.78 288.253 189.091 283.543 191.048C278.833 193.005 273.649 193.52 268.647 192.527C263.645 191.533 259.05 189.077 255.442 185.468C251.835 181.86 249.377 177.261 248.381 172.254C247.384 167.246 247.893 162.056 249.844 157.338C251.794 152.621 255.098 148.589 259.338 145.752C263.578 142.915 268.563 141.4 273.662 141.4V147.634C269.801 147.639 266.027 148.789 262.819 150.941C259.61 153.092 257.111 156.147 255.636 159.72C254.162 163.294 253.778 167.224 254.534 171.016C255.29 174.807 257.152 178.289 259.884 181.021C262.616 183.753 266.096 185.613 269.884 186.366C273.672 187.118 277.597 186.73 281.164 185.249C284.731 183.769 287.78 181.262 289.925 178.048C292.07 174.833 293.215 171.053 293.215 167.187H299.441Z" fill="url(#paint66_linear)"/>
</g>
<g filter="url(#filter17_d)">
<path d="M364.738 167.187H358.419C358.419 164.617 357.914 162.071 356.931 159.696C355.948 157.321 354.508 155.163 352.693 153.345C350.877 151.527 348.722 150.085 346.349 149.102C343.977 148.118 341.435 147.612 338.867 147.612V141.401C342.259 141.385 345.621 142.041 348.759 143.33C351.897 144.62 354.75 146.517 357.153 148.913C359.557 151.309 361.465 154.156 362.766 157.293C364.068 160.429 364.738 163.791 364.738 167.187Z" fill="url(#paint67_linear)"/>
</g>
<g filter="url(#filter18_d)">
<path d="M364.737 167.187C364.742 172.293 363.234 177.285 360.404 181.532C357.574 185.78 353.55 189.091 348.84 191.048C344.13 193.005 338.946 193.52 333.944 192.527C328.942 191.533 324.346 189.077 320.739 185.468C317.131 181.86 314.674 177.261 313.677 172.254C312.681 167.246 313.19 162.056 315.14 157.338C317.091 152.621 320.395 148.589 324.635 145.752C328.874 142.915 333.859 141.4 338.959 141.4V147.634C335.097 147.639 331.324 148.789 328.115 150.941C324.907 153.092 322.407 156.147 320.933 159.72C319.458 163.294 319.074 167.224 319.831 171.016C320.587 174.807 322.449 178.289 325.181 181.021C327.913 183.753 331.393 185.613 335.18 186.366C338.968 187.118 342.893 186.73 346.461 185.249C350.028 183.769 353.076 181.262 355.221 178.048C357.366 174.833 358.511 171.053 358.511 167.187H364.737Z" fill="url(#paint68_linear)"/>
</g>
</g>
<defs>
<filter id="filter0_d" x="181.785" y="439.46" width="365.002" height="26.8045" filterUnits="userSpaceOnUse" color-interpolation-filters="sRGB">
<feFlood flood-opacity="0" result="BackgroundImageFix"/>
<feColorMatrix in="SourceAlpha" type="matrix" values="0 0 0 0 0 0 0 0 0 0 0 0 0 0 0 0 0 0 127 0"/>
<feOffset dy="4"/>
<feGaussianBlur stdDeviation="2"/>
<feColorMatrix type="matrix" values="0 0 0 0 0 0 0 0 0 0 0 0 0 0 0 0 0 0 0.25 0"/>
<feBlend mode="normal" in2="BackgroundImageFix" result="effect1_dropShadow"/>
<feBlend mode="normal" in="SourceGraphic" in2="effect1_dropShadow" result="shape"/>
</filter>
<filter id="filter1_d" x="419.991" y="0" width="225.257" height="176.936" filterUnits="userSpaceOnUse" color-interpolation-filters="sRGB">
<feFlood flood-opacity="0" result="BackgroundImageFix"/>
<feColorMatrix in="SourceAlpha" type="matrix" values="0 0 0 0 0 0 0 0 0 0 0 0 0 0 0 0 0 0 127 0"/>
<feOffset dy="4"/>
<feGaussianBlur stdDeviation="2"/>
<feColorMatrix type="matrix" values="0 0 0 0 0 0 0 0 0 0 0 0 0 0 0 0 0 0 0.25 0"/>
<feBlend mode="normal" in2="BackgroundImageFix" result="effect1_dropShadow"/>
<feBlend mode="normal" in="SourceGraphic" in2="effect1_dropShadow" result="shape"/>
</filter>
<filter id="filter2_d" x="694.572" y="37.3799" width="106.427" height="66.7962" filterUnits="userSpaceOnUse" color-interpolation-filters="sRGB">
<feFlood flood-opacity="0" result="BackgroundImageFix"/>
<feColorMatrix in="SourceAlpha" type="matrix" values="0 0 0 0 0 0 0 0 0 0 0 0 0 0 0 0 0 0 127 0"/>
<feOffset dy="4"/>
<feGaussianBlur stdDeviation="2"/>
<feColorMatrix type="matrix" values="0 0 0 0 0 0 0 0 0 0 0 0 0 0 0 0 0 0 0.25 0"/>
<feBlend mode="normal" in2="BackgroundImageFix" result="effect1_dropShadow"/>
<feBlend mode="normal" in="SourceGraphic" in2="effect1_dropShadow" result="shape"/>
</filter>
<filter id="filter3_d" x="593" y="265" width="95.6059" height="46.6454" filterUnits="userSpaceOnUse" color-interpolation-filters="sRGB">
<feFlood flood-opacity="0" result="BackgroundImageFix"/>
<feColorMatrix in="SourceAlpha" type="matrix" values="0 0 0 0 0 0 0 0 0 0 0 0 0 0 0 0 0 0 127 0"/>
<feOffset dy="4"/>
<feGaussianBlur stdDeviation="2"/>
<feColorMatrix type="matrix" values="0 0 0 0 0 0 0 0 0 0 0 0 0 0 0 0 0 0 0.25 0"/>
<feBlend mode="normal" in2="BackgroundImageFix" result="effect1_dropShadow"/>
<feBlend mode="normal" in="SourceGraphic" in2="effect1_dropShadow" result="shape"/>
</filter>
<filter id="filter4_d" x="175.83" y="12.8359" width="66.4499" height="44.9892" filterUnits="userSpaceOnUse" color-interpolation-filters="sRGB">
<feFlood flood-opacity="0" result="BackgroundImageFix"/>
<feColorMatrix in="SourceAlpha" type="matrix" values="0 0 0 0 0 0 0 0 0 0 0 0 0 0 0 0 0 0 127 0"/>
<feOffset dy="4"/>
<feGaussianBlur stdDeviation="2"/>
<feColorMatrix type="matrix" values="0 0 0 0 0 0 0 0 0 0 0 0 0 0 0 0 0 0 0.25 0"/>
<feBlend mode="normal" in2="BackgroundImageFix" result="effect1_dropShadow"/>
<feBlend mode="normal" in="SourceGraphic" in2="effect1_dropShadow" result="shape"/>
</filter>
<filter id="filter5_d" x="59.229" y="252.161" width="85.7494" height="85.8429" filterUnits="userSpaceOnUse" color-interpolation-filters="sRGB">
<feFlood flood-opacity="0" result="BackgroundImageFix"/>
<feColorMatrix in="SourceAlpha" type="matrix" values="0 0 0 0 0 0 0 0 0 0 0 0 0 0 0 0 0 0 127 0"/>
<feOffset dy="4"/>
<feGaussianBlur stdDeviation="2"/>
<feColorMatrix type="matrix" values="0 0 0 0 0 0 0 0 0 0 0 0 0 0 0 0 0 0 0.25 0"/>
<feBlend mode="normal" in2="BackgroundImageFix" result="effect1_dropShadow"/>
<feBlend mode="normal" in="SourceGraphic" in2="effect1_dropShadow" result="shape"/>
</filter>
<filter id="filter6_d" x="407.447" y="204.567" width="155.779" height="127.249" filterUnits="userSpaceOnUse" color-interpolation-filters="sRGB">
<feFlood flood-opacity="0" result="BackgroundImageFix"/>
<feColorMatrix in="SourceAlpha" type="matrix" values="0 0 0 0 0 0 0 0 0 0 0 0 0 0 0 0 0 0 127 0"/>
<feOffset dy="4"/>
<feGaussianBlur stdDeviation="2"/>
<feColorMatrix type="matrix" values="0 0 0 0 0 0 0 0 0 0 0 0 0 0 0 0 0 0 0.25 0"/>
<feBlend mode="normal" in2="BackgroundImageFix" result="effect1_dropShadow"/>
<feBlend mode="normal" in="SourceGraphic" in2="effect1_dropShadow" result="shape"/>
</filter>
<filter id="filter7_d" x="443.427" y="227.755" width="80.7866" height="80.8742" filterUnits="userSpaceOnUse" color-interpolation-filters="sRGB">
<feFlood flood-opacity="0" result="BackgroundImageFix"/>
<feColorMatrix in="SourceAlpha" type="matrix" values="0 0 0 0 0 0 0 0 0 0 0 0 0 0 0 0 0 0 127 0"/>
<feOffset dy="4"/>
<feGaussianBlur stdDeviation="2"/>
<feColorMatrix type="matrix" values="0 0 0 0 0 0 0 0 0 0 0 0 0 0 0 0 0 0 0.25 0"/>
<feBlend mode="normal" in2="BackgroundImageFix" result="effect1_dropShadow"/>
<feBlend mode="normal" in="SourceGraphic" in2="effect1_dropShadow" result="shape"/>
</filter>
<filter id="filter8_d" x="481.771" y="255.069" width="45.486" height="52.4968" filterUnits="userSpaceOnUse" color-interpolation-filters="sRGB">
<feFlood flood-opacity="0" result="BackgroundImageFix"/>
<feColorMatrix in="SourceAlpha" type="matrix" values="0 0 0 0 0 0 0 0 0 0 0 0 0 0 0 0 0 0 127 0"/>
<feOffset dy="4"/>
<feGaussianBlur stdDeviation="2"/>
<feColorMatrix type="matrix" values="0 0 0 0 0 0 0 0 0 0 0 0 0 0 0 0 0 0 0.25 0"/>
<feBlend mode="normal" in2="BackgroundImageFix" result="effect1_dropShadow"/>
<feBlend mode="normal" in="SourceGraphic" in2="effect1_dropShadow" result="shape"/>
</filter>
<filter id="filter9_d" x="170.89" y="285.977" width="231.323" height="49.9579" filterUnits="userSpaceOnUse" color-interpolation-filters="sRGB">
<feFlood flood-opacity="0" result="BackgroundImageFix"/>
<feColorMatrix in="SourceAlpha" type="matrix" values="0 0 0 0 0 0 0 0 0 0 0 0 0 0 0 0 0 0 127 0"/>
<feOffset dy="4"/>
<feGaussianBlur stdDeviation="2"/>
<feColorMatrix type="matrix" values="0 0 0 0 0 0 0 0 0 0 0 0 0 0 0 0 0 0 0.25 0"/>
<feBlend mode="normal" in2="BackgroundImageFix" result="effect1_dropShadow"/>
<feBlend mode="normal" in="SourceGraphic" in2="effect1_dropShadow" result="shape"/>
</filter>
<filter id="filter10_d" x="-4" y="98" width="152.54" height="93.7433" filterUnits="userSpaceOnUse" color-interpolation-filters="sRGB">
<feFlood flood-opacity="0" result="BackgroundImageFix"/>
<feColorMatrix in="SourceAlpha" type="matrix" values="0 0 0 0 0 0 0 0 0 0 0 0 0 0 0 0 0 0 127 0"/>
<feOffset dy="4"/>
<feGaussianBlur stdDeviation="2"/>
<feColorMatrix type="matrix" values="0 0 0 0 0 0 0 0 0 0 0 0 0 0 0 0 0 0 0.25 0"/>
<feBlend mode="normal" in2="BackgroundImageFix" result="effect1_dropShadow"/>
<feBlend mode="normal" in="SourceGraphic" in2="effect1_dropShadow" result="shape"/>
</filter>
<filter id="filter11_d" x="189.988" y="339.63" width="90.0033" height="64.2927" filterUnits="userSpaceOnUse" color-interpolation-filters="sRGB">
<feFlood flood-opacity="0" result="BackgroundImageFix"/>
<feColorMatrix in="SourceAlpha" type="matrix" values="0 0 0 0 0 0 0 0 0 0 0 0 0 0 0 0 0 0 127 0"/>
<feOffset dy="4"/>
<feGaussianBlur stdDeviation="2"/>
<feColorMatrix type="matrix" values="0 0 0 0 0 0 0 0 0 0 0 0 0 0 0 0 0 0 0.25 0"/>
<feBlend mode="normal" in2="BackgroundImageFix" result="effect1_dropShadow"/>
<feBlend mode="normal" in="SourceGraphic" in2="effect1_dropShadow" result="shape"/>
</filter>
<filter id="filter12_d" x="165.56" y="95.2568" width="225.257" height="176.936" filterUnits="userSpaceOnUse" color-interpolation-filters="sRGB">
<feFlood flood-opacity="0" result="BackgroundImageFix"/>
<feColorMatrix in="SourceAlpha" type="matrix" values="0 0 0 0 0 0 0 0 0 0 0 0 0 0 0 0 0 0 127 0"/>
<feOffset dy="4"/>
<feGaussianBlur stdDeviation="2"/>
<feColorMatrix type="matrix" values="0 0 0 0 0 0 0 0 0 0 0 0 0 0 0 0 0 0 0.25 0"/>
<feBlend mode="normal" in2="BackgroundImageFix" result="effect1_dropShadow"/>
<feBlend mode="normal" in="SourceGraphic" in2="effect1_dropShadow" result="shape"/>
</filter>
<filter id="filter13_d" x="205.078" y="141.4" width="33.7556" height="33.7866" filterUnits="userSpaceOnUse" color-interpolation-filters="sRGB">
<feFlood flood-opacity="0" result="BackgroundImageFix"/>
<feColorMatrix in="SourceAlpha" type="matrix" values="0 0 0 0 0 0 0 0 0 0 0 0 0 0 0 0 0 0 127 0"/>
<feOffset dy="4"/>
<feGaussianBlur stdDeviation="2"/>
<feColorMatrix type="matrix" values="0 0 0 0 0 0 0 0 0 0 0 0 0 0 0 0 0 0 0.25 0"/>
<feBlend mode="normal" in2="BackgroundImageFix" result="effect1_dropShadow"/>
<feBlend mode="normal" in="SourceGraphic" in2="effect1_dropShadow" result="shape"/>
</filter>
<filter id="filter14_d" x="179.276" y="141.4" width="59.5572" height="59.6193" filterUnits="userSpaceOnUse" color-interpolation-filters="sRGB">
<feFlood flood-opacity="0" result="BackgroundImageFix"/>
<feColorMatrix in="SourceAlpha" type="matrix" values="0 0 0 0 0 0 0 0 0 0 0 0 0 0 0 0 0 0 127 0"/>
<feOffset dy="4"/>
<feGaussianBlur stdDeviation="2"/>
<feColorMatrix type="matrix" values="0 0 0 0 0 0 0 0 0 0 0 0 0 0 0 0 0 0 0.25 0"/>
<feBlend mode="normal" in2="BackgroundImageFix" result="effect1_dropShadow"/>
<feBlend mode="normal" in="SourceGraphic" in2="effect1_dropShadow" result="shape"/>
</filter>
<filter id="filter15_d" x="269.662" y="141.4" width="33.7786" height="33.7866" filterUnits="userSpaceOnUse" color-interpolation-filters="sRGB">
<feFlood flood-opacity="0" result="BackgroundImageFix"/>
<feColorMatrix in="SourceAlpha" type="matrix" values="0 0 0 0 0 0 0 0 0 0 0 0 0 0 0 0 0 0 127 0"/>
<feOffset dy="4"/>
<feGaussianBlur stdDeviation="2"/>
<feColorMatrix type="matrix" values="0 0 0 0 0 0 0 0 0 0 0 0 0 0 0 0 0 0 0.25 0"/>
<feBlend mode="normal" in2="BackgroundImageFix" result="effect1_dropShadow"/>
<feBlend mode="normal" in="SourceGraphic" in2="effect1_dropShadow" result="shape"/>
</filter>
<filter id="filter16_d" x="243.884" y="141.4" width="59.5572" height="59.6193" filterUnits="userSpaceOnUse" color-interpolation-filters="sRGB">
<feFlood flood-opacity="0" result="BackgroundImageFix"/>
<feColorMatrix in="SourceAlpha" type="matrix" values="0 0 0 0 0 0 0 0 0 0 0 0 0 0 0 0 0 0 127 0"/>
<feOffset dy="4"/>
<feGaussianBlur stdDeviation="2"/>
<feColorMatrix type="matrix" values="0 0 0 0 0 0 0 0 0 0 0 0 0 0 0 0 0 0 0.25 0"/>
<feBlend mode="normal" in2="BackgroundImageFix" result="effect1_dropShadow"/>
<feBlend mode="normal" in="SourceGraphic" in2="effect1_dropShadow" result="shape"/>
</filter>
<filter id="filter17_d" x="334.867" y="141.4" width="33.8705" height="33.7868" filterUnits="userSpaceOnUse" color-interpolation-filters="sRGB">
<feFlood flood-opacity="0" result="BackgroundImageFix"/>
<feColorMatrix in="SourceAlpha" type="matrix" values="0 0 0 0 0 0 0 0 0 0 0 0 0 0 0 0 0 0 127 0"/>
<feOffset dy="4"/>
<feGaussianBlur stdDeviation="2"/>
<feColorMatrix type="matrix" values="0 0 0 0 0 0 0 0 0 0 0 0 0 0 0 0 0 0 0.25 0"/>
<feBlend mode="normal" in2="BackgroundImageFix" result="effect1_dropShadow"/>
<feBlend mode="normal" in="SourceGraphic" in2="effect1_dropShadow" result="shape"/>
</filter>
<filter id="filter18_d" x="309.18" y="141.4" width="59.5573" height="59.6193" filterUnits="userSpaceOnUse" color-interpolation-filters="sRGB">
<feFlood flood-opacity="0" result="BackgroundImageFix"/>
<feColorMatrix in="SourceAlpha" type="matrix" values="0 0 0 0 0 0 0 0 0 0 0 0 0 0 0 0 0 0 127 0"/>
<feOffset dy="4"/>
<feGaussianBlur stdDeviation="2"/>
<feColorMatrix type="matrix" values="0 0 0 0 0 0 0 0 0 0 0 0 0 0 0 0 0 0 0.25 0"/>
<feBlend mode="normal" in2="BackgroundImageFix" result="effect1_dropShadow"/>
<feBlend mode="normal" in="SourceGraphic" in2="effect1_dropShadow" result="shape"/>
</filter>
<linearGradient id="paint0_linear" x1="364.347" y1="70.3896" x2="364.347" y2="356.09" gradientUnits="userSpaceOnUse">
<stop stop-color="#4F4492"/>
<stop offset="1" stop-color="#181435"/>
</linearGradient>
<linearGradient id="paint1_linear" x1="364.347" y1="440.006" x2="364.347" y2="356.09" gradientUnits="userSpaceOnUse">
<stop stop-color="#C9C9CF"/>
<stop offset="1" stop-color="#7F899B"/>
</linearGradient>
<linearGradient id="paint2_linear" x1="364.346" y1="440.006" x2="364.346" y2="457.81" gradientUnits="userSpaceOnUse">
<stop stop-color="white"/>
<stop offset="0.03" stop-color="#F2F4F6"/>
<stop offset="0.08" stop-color="#DADFE4"/>
<stop offset="0.92" stop-color="#DADEE5"/>
<stop offset="1" stop-color="#C1BEC2"/>
</linearGradient>
<linearGradient id="paint3_linear" x1="423.991" y1="84.4678" x2="641.248" y2="84.4678" gradientUnits="userSpaceOnUse">
<stop stop-color="#F7F2F6"/>
<stop offset="1" stop-color="#F7F1F5"/>
</linearGradient>
<linearGradient id="paint4_linear" x1="434.445" y1="4.53135" x2="438.655" y2="8.71283" gradientUnits="userSpaceOnUse">
<stop stop-color="#F79336"/>
<stop offset="1" stop-color="#F26327"/>
</linearGradient>
<linearGradient id="paint5_linear" x1="442.51" y1="4.53135" x2="446.719" y2="8.71283" gradientUnits="userSpaceOnUse">
<stop stop-color="#D784B7"/>
<stop offset="1" stop-color="#D32886"/>
</linearGradient>
<linearGradient id="paint6_linear" x1="450.574" y1="4.53135" x2="454.784" y2="8.7129" gradientUnits="userSpaceOnUse">
<stop stop-color="#60BD64"/>
<stop offset="1" stop-color="#6B946C"/>
</linearGradient>
<linearGradient id="paint7_linear" x1="455.468" y1="33.3094" x2="486.983" y2="64.7859" gradientUnits="userSpaceOnUse">
<stop stop-color="#9DBDE3"/>
<stop offset="1" stop-color="#BCAFD6"/>
</linearGradient>
<linearGradient id="paint8_linear" x1="11445.9" y1="131.794" x2="11453.1" y2="229.129" gradientUnits="userSpaceOnUse">
<stop stop-color="#9DBDE3"/>
<stop offset="1" stop-color="#BCAFD6"/>
</linearGradient>
<linearGradient id="paint9_linear" x1="2736.69" y1="167.163" x2="2744.79" y2="190.381" gradientUnits="userSpaceOnUse">
<stop stop-color="#9DBDE3"/>
<stop offset="1" stop-color="#BCAFD6"/>
</linearGradient>
<linearGradient id="paint10_linear" x1="2619.37" y1="149.77" x2="2627.46" y2="172.987" gradientUnits="userSpaceOnUse">
<stop stop-color="#9DBDE3"/>
<stop offset="1" stop-color="#BCAFD6"/>
</linearGradient>
<linearGradient id="paint11_linear" x1="2736.69" y1="184.556" x2="2744.79" y2="207.773" gradientUnits="userSpaceOnUse">
<stop stop-color="#9DBDE3"/>
<stop offset="1" stop-color="#BCAFD6"/>
</linearGradient>
<linearGradient id="paint12_linear" x1="3492.73" y1="129.822" x2="3500.82" y2="153.04" gradientUnits="userSpaceOnUse">
<stop stop-color="#9DBDE3"/>
<stop offset="1" stop-color="#BCAFD6"/>
</linearGradient>
<linearGradient id="paint13_linear" x1="18085.5" y1="137.78" x2="18092.5" y2="281.007" gradientUnits="userSpaceOnUse">
<stop stop-color="#9DBDE3"/>
<stop offset="1" stop-color="#BCAFD6"/>
</linearGradient>
<linearGradient id="paint14_linear" x1="17209.5" y1="156.824" x2="17216.6" y2="293.426" gradientUnits="userSpaceOnUse">
<stop stop-color="#9DBDE3"/>
<stop offset="1" stop-color="#BCAFD6"/>
</linearGradient>
<linearGradient id="paint15_linear" x1="11445.9" y1="192.489" x2="11453.1" y2="289.825" gradientUnits="userSpaceOnUse">
<stop stop-color="#9DBDE3"/>
<stop offset="1" stop-color="#BCAFD6"/>
</linearGradient>
<linearGradient id="paint16_linear" x1="2736.69" y1="227.818" x2="2744.79" y2="251.035" gradientUnits="userSpaceOnUse">
<stop stop-color="#9DBDE3"/>
<stop offset="1" stop-color="#BCAFD6"/>
</linearGradient>
<linearGradient id="paint17_linear" x1="2619.37" y1="210.426" x2="2627.46" y2="233.643" gradientUnits="userSpaceOnUse">
<stop stop-color="#9DBDE3"/>
<stop offset="1" stop-color="#BCAFD6"/>
</linearGradient>
<linearGradient id="paint18_linear" x1="2619.37" y1="302.375" x2="2627.46" y2="325.593" gradientUnits="userSpaceOnUse">
<stop stop-color="#9DBDE3"/>
<stop offset="1" stop-color="#BCAFD6"/>
</linearGradient>
<linearGradient id="paint19_linear" x1="2619.1" y1="367.52" x2="2627.2" y2="390.738" gradientUnits="userSpaceOnUse">
<stop stop-color="#9DBDE3"/>
<stop offset="1" stop-color="#BCAFD6"/>
</linearGradient>
<linearGradient id="paint20_linear" x1="2736.69" y1="245.21" x2="2744.79" y2="268.427" gradientUnits="userSpaceOnUse">
<stop stop-color="#9DBDE3"/>
<stop offset="1" stop-color="#BCAFD6"/>
</linearGradient>
<linearGradient id="paint21_linear" x1="18085.5" y1="198.434" x2="18092.5" y2="341.662" gradientUnits="userSpaceOnUse">
<stop stop-color="#9DBDE3"/>
<stop offset="1" stop-color="#BCAFD6"/>
</linearGradient>
<linearGradient id="paint22_linear" x1="17209.5" y1="217.478" x2="17216.6" y2="354.08" gradientUnits="userSpaceOnUse">
<stop stop-color="#9DBDE3"/>
<stop offset="1" stop-color="#BCAFD6"/>
</linearGradient>
<linearGradient id="paint23_linear" x1="11445.9" y1="284.399" x2="11453.1" y2="381.735" gradientUnits="userSpaceOnUse">
<stop stop-color="#9DBDE3"/>
<stop offset="1" stop-color="#BCAFD6"/>
</linearGradient>
<linearGradient id="paint24_linear" x1="2736.69" y1="319.766" x2="2744.79" y2="342.984" gradientUnits="userSpaceOnUse">
<stop stop-color="#9DBDE3"/>
<stop offset="1" stop-color="#BCAFD6"/>
</linearGradient>
<linearGradient id="paint25_linear" x1="2736.69" y1="337.16" x2="2744.79" y2="360.377" gradientUnits="userSpaceOnUse">
<stop stop-color="#9DBDE3"/>
<stop offset="1" stop-color="#BCAFD6"/>
</linearGradient>
<linearGradient id="paint26_linear" x1="16503.1" y1="293.333" x2="16510.2" y2="424.646" gradientUnits="userSpaceOnUse">
<stop stop-color="#9DBDE3"/>
<stop offset="1" stop-color="#BCAFD6"/>
</linearGradient>
<linearGradient id="paint27_linear" x1="15710.4" y1="312.221" x2="15717.5" y2="437.536" gradientUnits="userSpaceOnUse">
<stop stop-color="#9DBDE3"/>
<stop offset="1" stop-color="#BCAFD6"/>
</linearGradient>
<linearGradient id="paint28_linear" x1="11445.9" y1="349.583" x2="11453.1" y2="446.919" gradientUnits="userSpaceOnUse">
<stop stop-color="#9DBDE3"/>
<stop offset="1" stop-color="#BCAFD6"/>
</linearGradient>
<linearGradient id="paint29_linear" x1="2736.69" y1="384.912" x2="2744.79" y2="408.129" gradientUnits="userSpaceOnUse">
<stop stop-color="#9DBDE3"/>
<stop offset="1" stop-color="#BCAFD6"/>
</linearGradient>
<linearGradient id="paint30_linear" x1="2736.69" y1="402.304" x2="2744.79" y2="425.522" gradientUnits="userSpaceOnUse">
<stop stop-color="#9DBDE3"/>
<stop offset="1" stop-color="#BCAFD6"/>
</linearGradient>
<linearGradient id="paint31_linear" x1="16503.1" y1="358.518" x2="16510.2" y2="489.832" gradientUnits="userSpaceOnUse">
<stop stop-color="#9DBDE3"/>
<stop offset="1" stop-color="#BCAFD6"/>
</linearGradient>
<linearGradient id="paint32_linear" x1="15710.4" y1="377.405" x2="15717.5" y2="502.72" gradientUnits="userSpaceOnUse">
<stop stop-color="#9DBDE3"/>
<stop offset="1" stop-color="#BCAFD6"/>
</linearGradient>
<linearGradient id="paint33_linear" x1="2736.69" y1="262.603" x2="2744.79" y2="285.82" gradientUnits="userSpaceOnUse">
<stop stop-color="#9DBDE3"/>
<stop offset="1" stop-color="#BCAFD6"/>
</linearGradient>
<linearGradient id="paint34_linear" x1="18083.9" y1="240.158" x2="18091.7" y2="391.216" gradientUnits="userSpaceOnUse">
<stop stop-color="#9DBDE3"/>
<stop offset="1" stop-color="#BCAFD6"/>
</linearGradient>
<linearGradient id="paint35_linear" x1="4281.59" y1="291.271" x2="4290.32" y2="328.741" gradientUnits="userSpaceOnUse">
<stop stop-color="#9DBDE3"/>
<stop offset="1" stop-color="#BCAFD6"/>
</linearGradient>
<linearGradient id="paint36_linear" x1="747.786" y1="37.3799" x2="747.786" y2="96.1761" gradientUnits="userSpaceOnUse">
<stop offset="0.01" stop-color="#FCF2B3"/>
<stop offset="0.05" stop-color="#FAD89C"/>
<stop offset="0.12" stop-color="#F7B47C"/>
<stop offset="0.19" stop-color="#F59863"/>
<stop offset="0.26" stop-color="#F38451"/>
<stop offset="0.33" stop-color="#F27847"/>
<stop offset="0.4" stop-color="#F27443"/>
<stop offset="0.74" stop-color="#F27141"/>
<stop offset="1" stop-color="#F1683B"/>
</linearGradient>
<linearGradient id="paint37_linear" x1="209.055" y1="12.8359" x2="209.055" y2="49.8251" gradientUnits="userSpaceOnUse">
<stop stop-color="white"/>
<stop offset="0.01" stop-color="#FDF3F8"/>
<stop offset="0.07" stop-color="#F8CFE4"/>
<stop offset="0.13" stop-color="#F3AED1"/>
<stop offset="0.2" stop-color="#EF92C1"/>
<stop offset="0.27" stop-color="#EC7CB5"/>
<stop offset="0.36" stop-color="#E96BAB"/>
<stop offset="0.46" stop-color="#E75FA4"/>
<stop offset="0.61" stop-color="#E658A0"/>
<stop offset="1" stop-color="#E6569F"/>
</linearGradient>
<linearGradient id="paint38_linear" x1="74.6019" y1="263.571" x2="129.649" y2="318.528" gradientUnits="userSpaceOnUse">
<stop stop-color="white"/>
<stop offset="0.36" stop-color="#FEFCFD"/>
<stop offset="0.61" stop-color="#FAF3F7"/>
<stop offset="0.83" stop-color="#F3E3EE"/>
<stop offset="1" stop-color="#ECD2E3"/>
</linearGradient>
<linearGradient id="paint39_linear" x1="97.8299" y1="271.277" x2="116.9" y2="290.347" gradientUnits="userSpaceOnUse">
<stop stop-color="white"/>
<stop offset="0.09" stop-color="#F2FAF6"/>
<stop offset="0.25" stop-color="#D0EBDD"/>
<stop offset="0.48" stop-color="#99D4B4"/>
<stop offset="0.75" stop-color="#4EB57D"/>
<stop offset="1" stop-color="#009444"/>
</linearGradient>
<linearGradient id="paint40_linear" x1="420.223" y1="199.001" x2="550.629" y2="329.249" gradientUnits="userSpaceOnUse">
<stop stop-color="white"/>
<stop offset="0.45" stop-color="#F8F2F6"/>
<stop offset="1" stop-color="#EDDDE8"/>
</linearGradient>
<linearGradient id="paint41_linear" x1="1498.92" y1="754.291" x2="1509.78" y2="765.079" gradientUnits="userSpaceOnUse">
<stop stop-color="#F79336"/>
<stop offset="1" stop-color="#F26327"/>
</linearGradient>
<linearGradient id="paint42_linear" x1="1527.79" y1="754.291" x2="1538.65" y2="765.079" gradientUnits="userSpaceOnUse">
<stop stop-color="#D784B7"/>
<stop offset="1" stop-color="#D32886"/>
</linearGradient>
<linearGradient id="paint43_linear" x1="1556.66" y1="754.291" x2="1567.52" y2="765.079" gradientUnits="userSpaceOnUse">
<stop stop-color="#60BD64"/>
<stop offset="1" stop-color="#6B946C"/>
</linearGradient>
<linearGradient id="paint44_linear" x1="444.187" y1="308.428" x2="444.187" y2="315.191" gradientUnits="userSpaceOnUse">
<stop stop-color="white"/>
<stop offset="0.43" stop-color="#FEFCFD"/>
<stop offset="0.69" stop-color="#F9F4F8"/>
<stop offset="0.91" stop-color="#F2E6EE"/>
<stop offset="1" stop-color="#EDDDE8"/>
</linearGradient>
<linearGradient id="paint45_linear" x1="9615.07" y1="1171.15" x2="9615.07" y2="1191.04" gradientUnits="userSpaceOnUse">
<stop stop-color="white"/>
<stop offset="0.43" stop-color="#FEFCFD"/>
<stop offset="0.69" stop-color="#F9F4F8"/>
<stop offset="0.91" stop-color="#F2E6EE"/>
<stop offset="1" stop-color="#EDDDE8"/>
</linearGradient>
<linearGradient id="paint46_linear" x1="11401" y1="884.032" x2="11401" y2="903.915" gradientUnits="userSpaceOnUse">
<stop stop-color="white"/>
<stop offset="0.43" stop-color="#FEFCFD"/>
<stop offset="0.69" stop-color="#F9F4F8"/>
<stop offset="0.91" stop-color="#F2E6EE"/>
<stop offset="1" stop-color="#EDDDE8"/>
</linearGradient>
<linearGradient id="paint47_linear" x1="11401" y1="839.984" x2="11401" y2="859.867" gradientUnits="userSpaceOnUse">
<stop stop-color="white"/>
<stop offset="0.43" stop-color="#FEFCFD"/>
<stop offset="0.69" stop-color="#F9F4F8"/>
<stop offset="0.91" stop-color="#F2E6EE"/>
<stop offset="1" stop-color="#EDDDE8"/>
</linearGradient>
<linearGradient id="paint48_linear" x1="458.087" y1="238.428" x2="509.615" y2="289.917" gradientUnits="userSpaceOnUse">
<stop stop-color="#5E80C0"/>
<stop offset="0.12" stop-color="#5E7CBD"/>
<stop offset="1" stop-color="#5D5EAA"/>
</linearGradient>
<linearGradient id="paint49_linear" x1="486.352" y1="264.253" x2="517.769" y2="283.152" gradientUnits="userSpaceOnUse">
<stop stop-color="#EE7EA8"/>
<stop offset="0.34" stop-color="#E771A2"/>
<stop offset="0.97" stop-color="#D54F94"/>
<stop offset="1" stop-color="#D44E93"/>
</linearGradient>
<linearGradient id="paint50_linear" x1="286.551" y1="285.977" x2="286.551" y2="327.934" gradientUnits="userSpaceOnUse">
<stop stop-color="white"/>
<stop offset="0.05" stop-color="#F8F2F6"/>
<stop offset="0.08" stop-color="#F2E6EE"/>
<stop offset="0.92" stop-color="#F7F1F5"/>
<stop offset="1" stop-color="#C1BEC2"/>
</linearGradient>
<linearGradient id="paint51_linear" x1="278.556" y1="304.885" x2="278.556" y2="309.025" gradientUnits="userSpaceOnUse">
<stop stop-color="white"/>
<stop offset="0.08" stop-color="white"/>
<stop offset="0.73" stop-color="white"/>
<stop offset="1" stop-color="#C1BEC2"/>
</linearGradient>
<linearGradient id="paint52_linear" x1="23181.3" y1="892.312" x2="23181.3" y2="899.765" gradientUnits="userSpaceOnUse">
<stop stop-color="white"/>
<stop offset="0.08" stop-color="white"/>
<stop offset="0.73" stop-color="white"/>
<stop offset="1" stop-color="#C1BEC2"/>
</linearGradient>
<linearGradient id="paint53_linear" x1="18052" y1="815.026" x2="18052" y2="822.479" gradientUnits="userSpaceOnUse">
<stop stop-color="white"/>
<stop offset="0.08" stop-color="white"/>
<stop offset="0.73" stop-color="white"/>
<stop offset="1" stop-color="#C1BEC2"/>
</linearGradient>
<linearGradient id="paint54_linear" x1="4547.22" y1="3745.52" x2="4547.22" y2="6940.31" gradientUnits="userSpaceOnUse">
<stop stop-color="white"/>
<stop offset="0.05" stop-color="#F8F2F6"/>
<stop offset="0.08" stop-color="#F2E6EE"/>
<stop offset="0.92" stop-color="#F7F1F5"/>
<stop offset="1" stop-color="#C1BEC2"/>
</linearGradient>
<linearGradient id="paint55_linear" x1="229.041" y1="357.499" x2="241.327" y2="379.997" gradientUnits="userSpaceOnUse">
<stop stop-color="white"/>
<stop offset="0.07" stop-color="#F8F2F8"/>
<stop offset="0.14" stop-color="#F0E2EF"/>
<stop offset="0.7" stop-color="#F7F1F5"/>
<stop offset="0.77" stop-color="#F5ECF2"/>
<stop offset="0.86" stop-color="#F0DCE9"/>
<stop offset="0.96" stop-color="#E8C2DA"/>
<stop offset="1" stop-color="#E5B7D3"/>
</linearGradient>
<linearGradient id="paint56_linear" x1="16203.1" y1="13294.2" x2="36747" y2="13294.2" gradientUnits="userSpaceOnUse">
<stop stop-color="#F7F2F6"/>
<stop offset="1" stop-color="#F7F1F5"/>
</linearGradient>
<linearGradient id="paint57_linear" x1="643.519" y1="370.697" x2="654.379" y2="381.545" gradientUnits="userSpaceOnUse">
<stop stop-color="#F79336"/>
<stop offset="1" stop-color="#F26327"/>
</linearGradient>
<linearGradient id="paint58_linear" x1="672.386" y1="370.697" x2="683.247" y2="381.545" gradientUnits="userSpaceOnUse">
<stop stop-color="#D784B7"/>
<stop offset="1" stop-color="#D32886"/>
</linearGradient>
<linearGradient id="paint59_linear" x1="701.259" y1="370.697" x2="712.12" y2="381.545" gradientUnits="userSpaceOnUse">
<stop stop-color="#60BD64"/>
<stop offset="1" stop-color="#6B946C"/>
</linearGradient>
<linearGradient id="paint60_linear" x1="23075.8" y1="851.225" x2="23075.8" y2="871.109" gradientUnits="userSpaceOnUse">
<stop stop-color="white"/>
<stop offset="0.43" stop-color="#FEFCFD"/>
<stop offset="0.69" stop-color="#F9F4F8"/>
<stop offset="0.91" stop-color="#F2E6EE"/>
<stop offset="1" stop-color="#EDDDE8"/>
</linearGradient>
<linearGradient id="paint61_linear" x1="23035.6" y1="896.902" x2="23035.6" y2="916.785" gradientUnits="userSpaceOnUse">
<stop stop-color="white"/>
<stop offset="0.43" stop-color="#FEFCFD"/>
<stop offset="0.69" stop-color="#F9F4F8"/>
<stop offset="0.91" stop-color="#F2E6EE"/>
<stop offset="1" stop-color="#EDDDE8"/>
</linearGradient>
<linearGradient id="paint62_linear" x1="23035.6" y1="942.584" x2="23035.6" y2="962.467" gradientUnits="userSpaceOnUse">
<stop stop-color="white"/>
<stop offset="0.43" stop-color="#FEFCFD"/>
<stop offset="0.69" stop-color="#F9F4F8"/>
<stop offset="0.91" stop-color="#F2E6EE"/>
<stop offset="1" stop-color="#EDDDE8"/>
</linearGradient>
<linearGradient id="paint63_linear" x1="209.055" y1="154.305" x2="234.833" y2="154.305" gradientUnits="userSpaceOnUse">
<stop stop-color="white"/>
<stop offset="0.86" stop-color="white"/>
<stop offset="1" stop-color="white"/>
</linearGradient>
<linearGradient id="paint64_linear" x1="188.193" y1="151.614" x2="224.653" y2="188.053" gradientUnits="userSpaceOnUse">
<stop stop-color="white"/>
<stop offset="0.01" stop-color="#DBE2F0"/>
<stop offset="0.04" stop-color="#B1BFDE"/>
<stop offset="0.06" stop-color="#8EA3D0"/>
<stop offset="0.08" stop-color="#738CC4"/>
<stop offset="0.1" stop-color="#5F7DBC"/>
<stop offset="0.12" stop-color="#5473B8"/>
<stop offset="0.14" stop-color="#5070B6"/>
<stop offset="0.44" stop-color="#516DB4"/>
<stop offset="0.65" stop-color="#5264AF"/>
<stop offset="0.83" stop-color="#5654A5"/>
<stop offset="0.89" stop-color="#574EA1"/>
<stop offset="1" stop-color="#463B69"/>
</linearGradient>
<linearGradient id="paint65_linear" x1="3344.15" y1="1870.91" x2="3633.39" y2="1870.91" gradientUnits="userSpaceOnUse">
<stop stop-color="white"/>
<stop offset="0.86" stop-color="white"/>
<stop offset="1" stop-color="white"/>
</linearGradient>
<linearGradient id="paint66_linear" x1="252.801" y1="151.637" x2="289.261" y2="188.053" gradientUnits="userSpaceOnUse">
<stop stop-color="white"/>
<stop offset="0.01" stop-color="#FEEEDB"/>
<stop offset="0.03" stop-color="#FCD6A9"/>
<stop offset="0.05" stop-color="#FAC27E"/>
<stop offset="0.07" stop-color="#F9B15B"/>
<stop offset="0.08" stop-color="#F8A440"/>
<stop offset="0.1" stop-color="#F89B2C"/>
<stop offset="0.12" stop-color="#F79621"/>
<stop offset="0.14" stop-color="#F7941D"/>
<stop offset="0.39" stop-color="#F7911E"/>
<stop offset="0.56" stop-color="#F6881F"/>
<stop offset="0.71" stop-color="#F47823"/>
<stop offset="0.84" stop-color="#F26327"/>
<stop offset="0.89" stop-color="#F15A29"/>
<stop offset="1" stop-color="#BE1E2D"/>
</linearGradient>
<linearGradient id="paint67_linear" x1="4155.54" y1="1870.92" x2="4445.8" y2="1870.92" gradientUnits="userSpaceOnUse">
<stop stop-color="white"/>
<stop offset="0.86" stop-color="white"/>
<stop offset="1" stop-color="white"/>
</linearGradient>
<linearGradient id="paint68_linear" x1="318.097" y1="151.637" x2="354.557" y2="188.053" gradientUnits="userSpaceOnUse">
<stop stop-color="#F7FCF7"/>
<stop offset="0.02" stop-color="#C5E9CA"/>
<stop offset="0.04" stop-color="#9AD9A2"/>
<stop offset="0.06" stop-color="#77CC83"/>
<stop offset="0.08" stop-color="#5CC26A"/>
<stop offset="0.1" stop-color="#48BB58"/>
<stop offset="0.12" stop-color="#3DB64D"/>
<stop offset="0.14" stop-color="#39B54A"/>
<stop offset="0.39" stop-color="#36B34A"/>
<stop offset="0.56" stop-color="#2DAE49"/>
<stop offset="0.71" stop-color="#1DA547"/>
<stop offset="0.85" stop-color="#089845"/>
<stop offset="0.89" stop-color="#009444"/>
<stop offset="1" stop-color="#006838"/>
</linearGradient>
<clipPath id="clip0">
<rect width="797" height="485" fill="white"/>
</clipPath>
</defs>
</svg>
