<svg width="310" height="35" viewBox="0 0 310 35" fill="none" xmlns="http://www.w3.org/2000/svg">
<path d="M0.460938 27V1.23047H5.66406V27H0.460938ZM27.7246 27H23.1367V24.2578C22.375 25.3242 21.4727 26.1211 20.4297 26.6484C19.3984 27.1641 18.3555 27.4219 17.3008 27.4219C15.1562 27.4219 13.3164 26.5605 11.7812 24.8379C10.2578 23.1035 9.49609 20.6895 9.49609 17.5957C9.49609 14.4316 10.2402 12.0293 11.7285 10.3887C13.2168 8.73633 15.0977 7.91016 17.3711 7.91016C19.457 7.91016 21.2617 8.77734 22.7852 10.5117V1.23047H27.7246V27ZM14.541 17.2617C14.541 19.2539 14.8164 20.6953 15.3672 21.5859C16.1641 22.875 17.2773 23.5195 18.707 23.5195C19.8438 23.5195 20.8105 23.0391 21.6074 22.0781C22.4043 21.1055 22.8027 19.6582 22.8027 17.7363C22.8027 15.5918 22.416 14.0508 21.6426 13.1133C20.8691 12.1641 19.8789 11.6895 18.6719 11.6895C17.5 11.6895 16.5156 12.1582 15.7188 13.0957C14.9336 14.0215 14.541 15.4102 14.541 17.2617ZM43.4219 21.0586L48.3438 21.8848C47.7109 23.6895 46.709 25.0664 45.3379 26.0156C43.9785 26.9531 42.2734 27.4219 40.2227 27.4219C36.9766 27.4219 34.5742 26.3613 33.0156 24.2402C31.7852 22.541 31.1699 20.3965 31.1699 17.8066C31.1699 14.7129 31.9785 12.293 33.5957 10.5469C35.2129 8.78906 37.2578 7.91016 39.7305 7.91016C42.5078 7.91016 44.6992 8.83008 46.3047 10.6699C47.9102 12.498 48.6777 15.3047 48.6074 19.0898H36.2324C36.2676 20.5547 36.666 21.6973 37.4277 22.5176C38.1895 23.3262 39.1387 23.7305 40.2754 23.7305C41.0488 23.7305 41.6992 23.5195 42.2266 23.0977C42.7539 22.6758 43.1523 21.9961 43.4219 21.0586ZM43.7031 16.0664C43.668 14.6367 43.2988 13.5527 42.5957 12.8145C41.8926 12.0645 41.0371 11.6895 40.0293 11.6895C38.9512 11.6895 38.0605 12.082 37.3574 12.8672C36.6543 13.6523 36.3086 14.7188 36.3203 16.0664H43.7031ZM56.3418 14.0273L51.8594 13.2188C52.3633 11.4141 53.2305 10.0781 54.4609 9.21094C55.6914 8.34375 57.5195 7.91016 59.9453 7.91016C62.1484 7.91016 63.7891 8.17383 64.8672 8.70117C65.9453 9.2168 66.7012 9.87891 67.1348 10.6875C67.5801 11.4844 67.8027 12.9551 67.8027 15.0996L67.75 20.8652C67.75 22.5059 67.8262 23.7188 67.9785 24.5039C68.1426 25.2773 68.4414 26.1094 68.875 27H63.9883C63.8594 26.6719 63.7012 26.1855 63.5137 25.541C63.4316 25.248 63.373 25.0547 63.3379 24.9609C62.4941 25.7812 61.5918 26.3965 60.6309 26.8066C59.6699 27.2168 58.6445 27.4219 57.5547 27.4219C55.6328 27.4219 54.1152 26.9004 53.002 25.8574C51.9004 24.8145 51.3496 23.4961 51.3496 21.9023C51.3496 20.8477 51.6016 19.9102 52.1055 19.0898C52.6094 18.2578 53.3125 17.625 54.2148 17.1914C55.1289 16.7461 56.4414 16.3594 58.1523 16.0312C60.4609 15.5977 62.0605 15.1934 62.9512 14.8184V14.3262C62.9512 13.377 62.7168 12.7031 62.248 12.3047C61.7793 11.8945 60.8945 11.6895 59.5938 11.6895C58.7148 11.6895 58.0293 11.8652 57.5371 12.2168C57.0449 12.5566 56.6465 13.1602 56.3418 14.0273ZM62.9512 18.0352C62.3184 18.2461 61.3164 18.498 59.9453 18.791C58.5742 19.084 57.6777 19.3711 57.2559 19.6523C56.6113 20.1094 56.2891 20.6895 56.2891 21.3926C56.2891 22.084 56.5469 22.6816 57.0625 23.1855C57.5781 23.6895 58.2344 23.9414 59.0312 23.9414C59.9219 23.9414 60.7715 23.6484 61.5801 23.0625C62.1777 22.6172 62.5703 22.0723 62.7578 21.4277C62.8867 21.0059 62.9512 20.2031 62.9512 19.0195V18.0352ZM70.9492 21.6738L75.9062 20.918C76.1172 21.8789 76.5449 22.6113 77.1895 23.1152C77.834 23.6074 78.7363 23.8535 79.8965 23.8535C81.1738 23.8535 82.1348 23.6191 82.7793 23.1504C83.2129 22.8223 83.4297 22.3828 83.4297 21.832C83.4297 21.457 83.3125 21.1465 83.0781 20.9004C82.832 20.666 82.2812 20.4492 81.4258 20.25C77.4414 19.3711 74.916 18.5684 73.8496 17.8418C72.373 16.834 71.6348 15.4336 71.6348 13.6406C71.6348 12.0234 72.2734 10.6641 73.5508 9.5625C74.8281 8.46094 76.8086 7.91016 79.4922 7.91016C82.0469 7.91016 83.9453 8.32617 85.1875 9.1582C86.4297 9.99023 87.2852 11.2207 87.7539 12.8496L83.0957 13.7109C82.8965 12.9844 82.5156 12.4277 81.9531 12.041C81.4023 11.6543 80.6113 11.4609 79.5801 11.4609C78.2793 11.4609 77.3477 11.6426 76.7852 12.0059C76.4102 12.2637 76.2227 12.5977 76.2227 13.0078C76.2227 13.3594 76.3867 13.6582 76.7148 13.9043C77.1602 14.2324 78.6953 14.6953 81.3203 15.293C83.957 15.8906 85.7969 16.623 86.8398 17.4902C87.8711 18.3691 88.3867 19.5938 88.3867 21.1641C88.3867 22.875 87.6719 24.3457 86.2422 25.5762C84.8125 26.8066 82.6973 27.4219 79.8965 27.4219C77.3535 27.4219 75.3379 26.9062 73.8496 25.875C72.373 24.8438 71.4062 23.4434 70.9492 21.6738ZM114.771 17.5254V13.1836H125.986V23.4492C124.896 24.5039 123.314 25.4355 121.24 26.2441C119.178 27.041 117.086 27.4395 114.965 27.4395C112.27 27.4395 109.92 26.877 107.916 25.752C105.912 24.6152 104.406 22.998 103.398 20.9004C102.391 18.791 101.887 16.5 101.887 14.0273C101.887 11.3438 102.449 8.95898 103.574 6.87305C104.699 4.78711 106.346 3.1875 108.514 2.07422C110.166 1.21875 112.223 0.791016 114.684 0.791016C117.883 0.791016 120.379 1.46484 122.172 2.8125C123.977 4.14844 125.137 6 125.652 8.36719L120.484 9.33398C120.121 8.06836 119.436 7.07227 118.428 6.3457C117.432 5.60742 116.184 5.23828 114.684 5.23828C112.41 5.23828 110.6 5.95898 109.252 7.40039C107.916 8.8418 107.248 10.9805 107.248 13.8164C107.248 16.875 107.928 19.1719 109.287 20.707C110.646 22.2305 112.428 22.9922 114.631 22.9922C115.721 22.9922 116.811 22.7812 117.9 22.3594C119.002 21.9258 119.945 21.4043 120.73 20.7949V17.5254H114.771ZM141.578 21.0586L146.5 21.8848C145.867 23.6895 144.865 25.0664 143.494 26.0156C142.135 26.9531 140.43 27.4219 138.379 27.4219C135.133 27.4219 132.73 26.3613 131.172 24.2402C129.941 22.541 129.326 20.3965 129.326 17.8066C129.326 14.7129 130.135 12.293 131.752 10.5469C133.369 8.78906 135.414 7.91016 137.887 7.91016C140.664 7.91016 142.855 8.83008 144.461 10.6699C146.066 12.498 146.834 15.3047 146.764 19.0898H134.389C134.424 20.5547 134.822 21.6973 135.584 22.5176C136.346 23.3262 137.295 23.7305 138.432 23.7305C139.205 23.7305 139.855 23.5195 140.383 23.0977C140.91 22.6758 141.309 21.9961 141.578 21.0586ZM141.859 16.0664C141.824 14.6367 141.455 13.5527 140.752 12.8145C140.049 12.0645 139.193 11.6895 138.186 11.6895C137.107 11.6895 136.217 12.082 135.514 12.8672C134.811 13.6523 134.465 14.7188 134.477 16.0664H141.859ZM159.367 8.33203V12.2695H155.992V19.793C155.992 21.3164 156.021 22.207 156.08 22.4648C156.15 22.7109 156.297 22.916 156.52 23.0801C156.754 23.2441 157.035 23.3262 157.363 23.3262C157.82 23.3262 158.482 23.168 159.35 22.8516L159.771 26.6836C158.623 27.1758 157.322 27.4219 155.869 27.4219C154.979 27.4219 154.176 27.2754 153.461 26.9824C152.746 26.6777 152.219 26.291 151.879 25.8223C151.551 25.3418 151.322 24.6973 151.193 23.8887C151.088 23.3145 151.035 22.1543 151.035 20.4082V12.2695H148.768V8.33203H151.035V4.62305L155.992 1.74023V8.33203H159.367ZM171.355 8.33203V12.2695H167.98V19.793C167.98 21.3164 168.01 22.207 168.068 22.4648C168.139 22.7109 168.285 22.916 168.508 23.0801C168.742 23.2441 169.023 23.3262 169.352 23.3262C169.809 23.3262 170.471 23.168 171.338 22.8516L171.76 26.6836C170.611 27.1758 169.311 27.4219 167.857 27.4219C166.967 27.4219 166.164 27.2754 165.449 26.9824C164.734 26.6777 164.207 26.291 163.867 25.8223C163.539 25.3418 163.311 24.6973 163.182 23.8887C163.076 23.3145 163.023 22.1543 163.023 20.4082V12.2695H160.756V8.33203H163.023V4.62305L167.98 1.74023V8.33203H171.355ZM174.783 5.80078V1.23047H179.723V5.80078H174.783ZM174.783 27V8.33203H179.723V27H174.783ZM201.783 27H196.844V17.4727C196.844 15.457 196.738 14.1562 196.527 13.5703C196.316 12.9727 195.971 12.5098 195.49 12.1816C195.021 11.8535 194.453 11.6895 193.785 11.6895C192.93 11.6895 192.162 11.9238 191.482 12.3926C190.803 12.8613 190.334 13.4824 190.076 14.2559C189.83 15.0293 189.707 16.459 189.707 18.5449V27H184.768V8.33203H189.355V11.0742C190.984 8.96484 193.035 7.91016 195.508 7.91016C196.598 7.91016 197.594 8.10937 198.496 8.50781C199.398 8.89453 200.078 9.39258 200.535 10.002C201.004 10.6113 201.326 11.3027 201.502 12.0762C201.689 12.8496 201.783 13.957 201.783 15.3984V27ZM206.354 28.2305L211.996 28.916C212.09 29.5723 212.307 30.0234 212.646 30.2695C213.115 30.6211 213.854 30.7969 214.861 30.7969C216.15 30.7969 217.117 30.6035 217.762 30.2168C218.195 29.959 218.523 29.543 218.746 28.9688C218.898 28.5586 218.975 27.8027 218.975 26.7012V23.9766C217.498 25.9922 215.635 27 213.385 27C210.877 27 208.891 25.9395 207.426 23.8184C206.277 22.1426 205.703 20.0566 205.703 17.5605C205.703 14.4316 206.453 12.041 207.953 10.3887C209.465 8.73633 211.34 7.91016 213.578 7.91016C215.887 7.91016 217.791 8.92383 219.291 10.9512V8.33203H223.914V25.084C223.914 27.2871 223.732 28.9336 223.369 30.0234C223.006 31.1133 222.496 31.9688 221.84 32.5898C221.184 33.2109 220.305 33.6973 219.203 34.0488C218.113 34.4004 216.73 34.5762 215.055 34.5762C211.891 34.5762 209.646 34.0312 208.322 32.9414C206.998 31.8633 206.336 30.4922 206.336 28.8281C206.336 28.6641 206.342 28.4648 206.354 28.2305ZM210.766 17.2793C210.766 19.2598 211.146 20.7129 211.908 21.6387C212.682 22.5527 213.631 23.0098 214.756 23.0098C215.963 23.0098 216.982 22.541 217.814 21.6035C218.646 20.6543 219.062 19.2539 219.062 17.4023C219.062 15.4688 218.664 14.0332 217.867 13.0957C217.07 12.1582 216.062 11.6895 214.844 11.6895C213.66 11.6895 212.682 12.1523 211.908 13.0781C211.146 13.9922 210.766 15.3926 210.766 17.2793ZM238.891 27V1.23047H249.842C252.596 1.23047 254.594 1.46484 255.836 1.93359C257.09 2.39062 258.092 3.21094 258.842 4.39453C259.592 5.57812 259.967 6.93164 259.967 8.45508C259.967 10.3887 259.398 11.9883 258.262 13.2539C257.125 14.5078 255.426 15.2988 253.164 15.627C254.289 16.2832 255.215 17.0039 255.941 17.7891C256.68 18.5742 257.67 19.9688 258.912 21.9727L262.059 27H255.836L252.074 21.3926C250.738 19.3887 249.824 18.1289 249.332 17.6133C248.84 17.0859 248.318 16.7285 247.768 16.541C247.217 16.3418 246.344 16.2422 245.148 16.2422H244.094V27H238.891ZM244.094 12.1289H247.943C250.439 12.1289 251.998 12.0234 252.619 11.8125C253.24 11.6016 253.727 11.2383 254.078 10.7227C254.43 10.207 254.605 9.5625 254.605 8.78906C254.605 7.92188 254.371 7.22461 253.902 6.69727C253.445 6.1582 252.795 5.81836 251.951 5.67773C251.529 5.61914 250.264 5.58984 248.154 5.58984H244.094V12.1289ZM275.664 21.0586L280.586 21.8848C279.953 23.6895 278.951 25.0664 277.58 26.0156C276.221 26.9531 274.516 27.4219 272.465 27.4219C269.219 27.4219 266.816 26.3613 265.258 24.2402C264.027 22.541 263.412 20.3965 263.412 17.8066C263.412 14.7129 264.221 12.293 265.838 10.5469C267.455 8.78906 269.5 7.91016 271.973 7.91016C274.75 7.91016 276.941 8.83008 278.547 10.6699C280.152 12.498 280.92 15.3047 280.85 19.0898H268.475C268.51 20.5547 268.908 21.6973 269.67 22.5176C270.432 23.3262 271.381 23.7305 272.518 23.7305C273.291 23.7305 273.941 23.5195 274.469 23.0977C274.996 22.6758 275.395 21.9961 275.664 21.0586ZM275.945 16.0664C275.91 14.6367 275.541 13.5527 274.838 12.8145C274.135 12.0645 273.279 11.6895 272.271 11.6895C271.193 11.6895 270.303 12.082 269.6 12.8672C268.896 13.6523 268.551 14.7188 268.562 16.0664H275.945ZM288.584 14.0273L284.102 13.2188C284.605 11.4141 285.473 10.0781 286.703 9.21094C287.934 8.34375 289.762 7.91016 292.188 7.91016C294.391 7.91016 296.031 8.17383 297.109 8.70117C298.188 9.2168 298.943 9.87891 299.377 10.6875C299.822 11.4844 300.045 12.9551 300.045 15.0996L299.992 20.8652C299.992 22.5059 300.068 23.7188 300.221 24.5039C300.385 25.2773 300.684 26.1094 301.117 27H296.23C296.102 26.6719 295.943 26.1855 295.756 25.541C295.674 25.248 295.615 25.0547 295.58 24.9609C294.736 25.7812 293.834 26.3965 292.873 26.8066C291.912 27.2168 290.887 27.4219 289.797 27.4219C287.875 27.4219 286.357 26.9004 285.244 25.8574C284.143 24.8145 283.592 23.4961 283.592 21.9023C283.592 20.8477 283.844 19.9102 284.348 19.0898C284.852 18.2578 285.555 17.625 286.457 17.1914C287.371 16.7461 288.684 16.3594 290.395 16.0312C292.703 15.5977 294.303 15.1934 295.193 14.8184V14.3262C295.193 13.377 294.959 12.7031 294.49 12.3047C294.021 11.8945 293.137 11.6895 291.836 11.6895C290.957 11.6895 290.271 11.8652 289.779 12.2168C289.287 12.5566 288.889 13.1602 288.584 14.0273ZM295.193 18.0352C294.561 18.2461 293.559 18.498 292.188 18.791C290.816 19.084 289.92 19.3711 289.498 19.6523C288.854 20.1094 288.531 20.6895 288.531 21.3926C288.531 22.084 288.789 22.6816 289.305 23.1855C289.82 23.6895 290.477 23.9414 291.273 23.9414C292.164 23.9414 293.014 23.6484 293.822 23.0625C294.42 22.6172 294.812 22.0723 295 21.4277C295.129 21.0059 295.193 20.2031 295.193 19.0195V18.0352ZM304.932 27V1.23047H309.871V27H304.932Z" fill="black" fill-opacity="0.58"/>
</svg>
