<svg width="1421" height="1421" viewBox="0 0 1421 1421" fill="none" xmlns="http://www.w3.org/2000/svg">
<g clip-path="url(#clip0)">
<path d="M315.839 0H1102.94C1141.24 0 1178.43 6.10586 1214.51 18.8727C1266.69 37.7453 1313.87 71.05 1349.39 114.346C1385.47 157.642 1409.34 210.93 1417.67 266.438C1421 286.975 1421.55 307.513 1421.55 328.051V1095.72C1421.55 1120.15 1420.44 1145.13 1415.45 1168.99C1404.35 1223.95 1378.26 1275.57 1340.51 1317.2C1303.32 1358.83 1254.48 1389.92 1201.74 1406.57C1169.55 1416.56 1136.24 1421 1102.38 1421C1087.4 1421 313.619 1421 301.962 1420.44C245.344 1417.67 189.281 1399.35 142.1 1367.71C96.0283 1336.63 58.2829 1293.33 33.8595 1243.38C12.7665 1200.63 2.22005 1152.9 2.22005 1105.16V315.839C1.10989 268.658 11.1013 222.031 31.6392 179.845C55.5075 129.888 92.6978 86.0371 138.769 54.9527C185.951 22.7582 241.459 3.88555 298.077 1.11016C303.627 0 309.733 0 315.839 0Z" fill="url(#paint0_linear)"/>
<path d="M1198.97 1162.33C1193.97 1154.56 1188.42 1146.79 1182.32 1139.58C1168.44 1122.92 1152.34 1108.49 1134.58 1096.28C1112.38 1081.29 1086.29 1071.86 1059.64 1070.75C1040.77 1069.64 1021.9 1072.97 1004.14 1079.63C986.374 1085.73 969.166 1094.61 952.514 1103.5C933.086 1113.49 913.659 1123.48 893.121 1131.8C868.697 1141.8 843.164 1149.57 817.075 1155.12C784.325 1161.22 751.021 1163.44 718.271 1162.89C658.878 1161.78 599.484 1152.9 542.866 1136.24C492.909 1121.26 445.173 1100.72 400.211 1074.63C360.801 1051.87 324.166 1025.78 289.751 996.365C261.442 971.942 235.353 945.853 210.93 918.099C194.277 898.671 178.18 878.134 163.193 857.041C157.087 848.714 151.536 839.833 146.541 830.952L0 672.755V314.729C0 140.99 140.435 0 314.174 0H594.489L802.088 210.93C1270.57 529.545 1119.04 880.909 1119.04 880.909C1119.04 880.909 1252.26 1030.78 1198.97 1162.33Z" fill="url(#paint1_linear)"/>
<path d="M803.198 210.93C1271.68 529.545 1120.15 880.909 1120.15 880.909C1120.15 880.909 1253.37 1031.34 1199.52 1162.89C1199.52 1162.89 1144.57 1070.75 1052.43 1070.75C963.616 1070.75 911.439 1162.89 732.703 1162.89C334.713 1162.89 146.541 830.397 146.541 830.397C505.121 1066.31 749.911 899.227 749.911 899.227C588.383 805.418 244.79 356.915 244.79 356.915C543.977 611.696 673.31 678.861 673.31 678.861C596.154 615.027 379.674 303.073 379.674 303.073C552.858 478.477 897.007 723.267 897.007 723.267C994.7 452.389 803.198 210.93 803.198 210.93Z" fill="white"/>
</g>
<defs>
<linearGradient id="paint0_linear" x1="845.334" y1="-50.7064" x2="576.859" y2="1471.88" gradientUnits="userSpaceOnUse">
<stop stop-color="#FAAE42"/>
<stop offset="1" stop-color="#EF3E31"/>
</linearGradient>
<linearGradient id="paint1_linear" x1="724.999" y1="22.958" x2="528.507" y2="1137.32" gradientUnits="userSpaceOnUse">
<stop stop-color="#E39F3A"/>
<stop offset="1" stop-color="#D33929"/>
</linearGradient>
<clipPath id="clip0">
<rect width="1421" height="1421" fill="white"/>
</clipPath>
</defs>
</svg>
