<svg width="551" height="439" viewBox="0 0 551 439" fill="none" xmlns="http://www.w3.org/2000/svg">
<path d="M32.448 91H0.912V0.711995H32.448C41.664 0.711995 48.96 1.48 54.336 3.016C59.808 4.552 64.176 7 67.44 10.36C70.704 13.72 73.056 18.28 74.496 24.04C76.032 29.704 76.8 36.952 76.8 45.784C76.8 61.432 73.296 72.904 66.288 80.2C59.28 87.4 48 91 32.448 91ZM50.16 26.632C48.816 24.616 46.848 23.176 44.256 22.312C41.664 21.352 37.728 20.872 32.448 20.872H23.232V70.12H32.448C37.632 70.12 41.52 69.688 44.112 68.824C46.704 67.96 48.72 66.568 50.16 64.648C51.408 62.824 52.32 60.424 52.896 57.448C53.472 54.376 53.76 50.488 53.76 45.784C53.76 40.984 53.472 37.096 52.896 34.12C52.32 31.048 51.408 28.552 50.16 26.632ZM109.857 61.912V91H87.537V0.711995H120.513C134.433 0.711995 144.321 3.064 150.177 7.768C156.033 12.472 158.961 20.296 158.961 31.24C158.961 38.632 157.377 44.68 154.209 49.384C151.137 53.992 146.433 57.352 140.097 59.464L162.129 91H135.345L116.625 61.912H109.857ZM136.353 31.24C136.353 27.4 135.201 24.712 132.897 23.176C130.593 21.64 126.465 20.872 120.513 20.872H109.857V43.912H120.513C126.465 43.912 130.593 43 132.897 41.176C135.201 39.256 136.353 35.944 136.353 31.24ZM232.854 70.12V91H170.646V0.711995H231.558V20.872H192.966V35.848H226.23V54.568H192.966V70.12H232.854ZM259.478 91H236.005L269.414 0.711995H292.598L325.142 91H301.814L297.062 75.88H264.23L259.478 91ZM280.502 22.888C279.734 25.576 278.87 28.456 277.91 31.528C277.046 34.504 275.558 39.4 273.445 46.216L269.702 58.168H291.446L287.702 46.216C286.454 42.568 285.206 38.728 283.958 34.696C282.71 30.568 281.558 26.632 280.502 22.888ZM422.375 0.711995V91H401.495V36.856L386.087 73.72H367.943L352.823 36.856V91H331.943V0.711995H359.159L377.447 46.216L396.167 0.711995H422.375ZM32.448 264H0.912V173.712H32.448C41.664 173.712 48.96 174.48 54.336 176.016C59.808 177.552 64.176 180 67.44 183.36C70.704 186.72 73.056 191.28 74.496 197.04C76.032 202.704 76.8 209.952 76.8 218.784C76.8 234.432 73.296 245.904 66.288 253.2C59.28 260.4 48 264 32.448 264ZM50.16 199.632C48.816 197.616 46.848 196.176 44.256 195.312C41.664 194.352 37.728 193.872 32.448 193.872H23.232V243.12H32.448C37.632 243.12 41.52 242.688 44.112 241.824C46.704 240.96 48.72 239.568 50.16 237.648C51.408 235.824 52.32 233.424 52.896 230.448C53.472 227.376 53.76 223.488 53.76 218.784C53.76 213.984 53.472 210.096 52.896 207.12C52.32 204.048 51.408 201.552 50.16 199.632ZM149.745 243.12V264H87.537V173.712H148.449V193.872H109.857V208.848H143.121V227.568H109.857V243.12H149.745ZM194.512 230.304L176.224 225.984C168.928 224.256 163.936 221.616 161.248 218.064C158.656 214.512 157.36 209.424 157.36 202.8C157.36 192.336 160.096 184.656 165.568 179.76C171.136 174.768 179.728 172.272 191.344 172.272C196.144 172.272 200.416 172.464 204.16 172.848C207.904 173.232 211.36 173.904 214.528 174.864V194.88C207.232 193.632 202.192 192.912 199.408 192.72C196.72 192.528 193.888 192.432 190.912 192.432C186.88 192.432 183.952 193.104 182.128 194.448C180.304 195.792 179.392 198.048 179.392 201.216C179.392 202.752 179.68 203.952 180.256 204.816C180.832 205.584 181.936 206.16 183.568 206.544L200.848 210.576C205.84 211.728 209.44 212.88 211.648 214.032C213.856 215.088 215.632 216.48 216.976 218.208C218.512 220.032 219.616 222.384 220.288 225.264C221.056 228.144 221.44 231.648 221.44 235.776C221.44 246.24 218.656 253.824 213.088 258.528C207.52 263.136 198.88 265.44 187.168 265.44C181.216 265.44 175.552 265.056 170.176 264.288C164.8 263.616 160.624 262.752 157.648 261.696V240.528C161.488 241.776 166.048 242.784 171.328 243.552C176.608 244.224 181.888 244.56 187.168 244.56C191.392 244.56 194.32 244.032 195.952 242.976C197.584 241.92 198.4 239.808 198.4 236.64C198.4 234.624 198.112 233.184 197.536 232.32C197.056 231.36 196.048 230.688 194.512 230.304ZM253.013 173.712V264H230.693V173.712H253.013ZM317.954 230.448H302.402V212.448H338.834V259.968C336.146 261.216 331.346 262.464 324.434 263.712C317.522 264.864 311.234 265.44 305.57 265.44C289.922 265.44 279.026 261.84 272.882 254.64C266.834 247.44 263.81 235.488 263.81 218.784C263.81 202.656 267.362 190.896 274.466 183.504C281.57 176.016 292.898 172.272 308.45 172.272C314.114 172.272 319.154 172.416 323.57 172.704C328.082 172.896 331.538 173.232 333.938 173.712V193.296C330.77 193.008 326.978 192.816 322.562 192.72C318.242 192.528 313.538 192.432 308.45 192.432C302.978 192.432 298.898 192.912 296.21 193.872C293.618 194.832 291.65 196.512 290.306 198.912C289.058 200.832 288.146 203.424 287.57 206.688C287.09 209.856 286.85 213.888 286.85 218.784C286.85 223.488 287.09 227.424 287.57 230.592C288.05 233.76 288.818 236.304 289.874 238.224C291.218 240.816 293.09 242.64 295.49 243.696C297.986 244.752 301.826 245.28 307.01 245.28C308.738 245.28 310.514 245.232 312.338 245.136C314.258 244.944 316.13 244.704 317.954 244.416V230.448ZM427.988 173.712V264H406.676L370.964 211.872V264H350.084V173.712H371.252L407.108 227.856V173.712H427.988ZM32.448 437H0.912V346.712H32.448C41.664 346.712 48.96 347.48 54.336 349.016C59.808 350.552 64.176 353 67.44 356.36C70.704 359.72 73.056 364.28 74.496 370.04C76.032 375.704 76.8 382.952 76.8 391.784C76.8 407.432 73.296 418.904 66.288 426.2C59.28 433.4 48 437 32.448 437ZM50.16 372.632C48.816 370.616 46.848 369.176 44.256 368.312C41.664 367.352 37.728 366.872 32.448 366.872H23.232V416.12H32.448C37.632 416.12 41.52 415.688 44.112 414.824C46.704 413.96 48.72 412.568 50.16 410.648C51.408 408.824 52.32 406.424 52.896 403.448C53.472 400.376 53.76 396.488 53.76 391.784C53.76 386.984 53.472 383.096 52.896 380.12C52.32 377.048 51.408 374.552 50.16 372.632ZM149.745 416.12V437H87.537V346.712H148.449V366.872H109.857V381.848H143.121V400.568H109.857V416.12H149.745ZM184.288 437L153.04 346.712H177.952L191.344 391.352C192.208 394.328 193.264 398.312 194.512 403.304C195.76 408.2 196.96 413.096 198.112 417.992C200.224 409.256 201.712 403.112 202.576 399.56C203.536 396.008 204.256 393.32 204.736 391.496L217.984 346.712H242.176L211.072 437H184.288ZM311.042 416.12V437H248.834V346.712H309.746V366.872H271.154V381.848H304.418V400.568H271.154V416.12H311.042ZM379.137 416.12V437H321.537V346.712H343.857V416.12H379.137ZM468.442 391.784C468.442 408.2 465.082 420.104 458.362 427.496C451.738 434.792 440.938 438.44 425.962 438.44C410.314 438.44 399.322 434.984 392.986 428.072C386.65 421.16 383.482 409.064 383.482 391.784C383.482 375.368 386.794 363.512 393.418 356.216C400.138 348.92 410.986 345.272 425.962 345.272C441.61 345.272 452.602 348.728 458.938 355.64C465.274 362.552 468.442 374.6 468.442 391.784ZM408.826 411.08C410.074 413.48 411.898 415.16 414.298 416.12C416.794 417.08 420.682 417.56 425.962 417.56C431.242 417.56 435.082 417.08 437.482 416.12C439.978 415.16 441.85 413.48 443.098 411.08C444.058 409.16 444.73 406.664 445.114 403.592C445.594 400.52 445.834 396.584 445.834 391.784C445.834 386.888 445.594 382.904 445.114 379.832C444.73 376.664 444.058 374.12 443.098 372.2C441.946 369.704 440.122 367.976 437.626 367.016C435.226 365.96 431.338 365.432 425.962 365.432C420.586 365.432 416.65 365.96 414.154 367.016C411.754 367.976 409.978 369.704 408.826 372.2C407.866 374.12 407.146 376.664 406.666 379.832C406.282 382.904 406.09 386.888 406.09 391.784C406.09 396.584 406.282 400.52 406.666 403.592C407.146 406.664 407.866 409.16 408.826 411.08ZM501.498 411.656V437H479.178V346.712H512.154C526.074 346.712 535.962 349.16 541.818 354.056C547.674 358.856 550.602 366.968 550.602 378.392C550.602 389.72 547.482 398.12 541.242 403.592C535.098 408.968 525.546 411.656 512.586 411.656H501.498ZM527.994 378.392C527.994 374.168 526.842 371.192 524.538 369.464C522.234 367.736 518.106 366.872 512.154 366.872H501.498V392.072H512.154C518.202 392.072 522.33 391.064 524.538 389.048C526.842 387.032 527.994 383.48 527.994 378.392Z" fill="black"/>
</svg>
