<svg width="564" height="563" viewBox="0 0 564 563" fill="none" xmlns="http://www.w3.org/2000/svg">
<path d="M38.448 138H6.912V47.712H38.448C47.664 47.712 54.96 48.48 60.336 50.016C65.808 51.552 70.176 54 73.44 57.36C76.704 60.72 79.056 65.28 80.496 71.04C82.032 76.704 82.8 83.952 82.8 92.784C82.8 108.432 79.296 119.904 72.288 127.2C65.28 134.4 54 138 38.448 138ZM56.16 73.632C54.816 71.616 52.848 70.176 50.256 69.312C47.664 68.352 43.728 67.872 38.448 67.872H29.232V117.12H38.448C43.632 117.12 47.52 116.688 50.112 115.824C52.704 114.96 54.72 113.568 56.16 111.648C57.408 109.824 58.32 107.424 58.896 104.448C59.472 101.376 59.76 97.488 59.76 92.784C59.76 87.984 59.472 84.096 58.896 81.12C58.32 78.048 57.408 75.552 56.16 73.632ZM115.857 108.912V138H93.537V47.712H126.513C140.433 47.712 150.321 50.064 156.177 54.768C162.033 59.472 164.961 67.296 164.961 78.24C164.961 85.632 163.377 91.68 160.209 96.384C157.137 100.992 152.433 104.352 146.097 106.464L168.129 138H141.345L122.625 108.912H115.857ZM142.353 78.24C142.353 74.4 141.201 71.712 138.897 70.176C136.593 68.64 132.465 67.872 126.513 67.872H115.857V90.912H126.513C132.465 90.912 136.593 90 138.897 88.176C141.201 86.256 142.353 82.944 142.353 78.24ZM238.854 117.12V138H176.646V47.712H237.558V67.872H198.966V82.848H232.23V101.568H198.966V117.12H238.854ZM265.478 138H242.005L275.414 47.712H298.598L331.142 138H307.814L303.062 122.88H270.23L265.478 138ZM286.502 69.888C285.734 72.576 284.87 75.456 283.91 78.528C283.046 81.504 281.558 86.4 279.445 93.216L275.702 105.168H297.446L293.702 93.216C292.454 89.568 291.206 85.728 289.958 81.696C288.71 77.568 287.558 73.632 286.502 69.888ZM428.375 47.712V138H407.495V83.856L392.087 120.72H373.943L358.823 83.856V138H337.943V47.712H365.159L383.447 93.216L402.167 47.712H428.375ZM38.448 311H6.912V220.712H38.448C47.664 220.712 54.96 221.48 60.336 223.016C65.808 224.552 70.176 227 73.44 230.36C76.704 233.72 79.056 238.28 80.496 244.04C82.032 249.704 82.8 256.952 82.8 265.784C82.8 281.432 79.296 292.904 72.288 300.2C65.28 307.4 54 311 38.448 311ZM56.16 246.632C54.816 244.616 52.848 243.176 50.256 242.312C47.664 241.352 43.728 240.872 38.448 240.872H29.232V290.12H38.448C43.632 290.12 47.52 289.688 50.112 288.824C52.704 287.96 54.72 286.568 56.16 284.648C57.408 282.824 58.32 280.424 58.896 277.448C59.472 274.376 59.76 270.488 59.76 265.784C59.76 260.984 59.472 257.096 58.896 254.12C58.32 251.048 57.408 248.552 56.16 246.632ZM155.745 290.12V311H93.537V220.712H154.449V240.872H115.857V255.848H149.121V274.568H115.857V290.12H155.745ZM200.512 277.304L182.224 272.984C174.928 271.256 169.936 268.616 167.248 265.064C164.656 261.512 163.36 256.424 163.36 249.8C163.36 239.336 166.096 231.656 171.568 226.76C177.136 221.768 185.728 219.272 197.344 219.272C202.144 219.272 206.416 219.464 210.16 219.848C213.904 220.232 217.36 220.904 220.528 221.864V241.88C213.232 240.632 208.192 239.912 205.408 239.72C202.72 239.528 199.888 239.432 196.912 239.432C192.88 239.432 189.952 240.104 188.128 241.448C186.304 242.792 185.392 245.048 185.392 248.216C185.392 249.752 185.68 250.952 186.256 251.816C186.832 252.584 187.936 253.16 189.568 253.544L206.848 257.576C211.84 258.728 215.44 259.88 217.648 261.032C219.856 262.088 221.632 263.48 222.976 265.208C224.512 267.032 225.616 269.384 226.288 272.264C227.056 275.144 227.44 278.648 227.44 282.776C227.44 293.24 224.656 300.824 219.088 305.528C213.52 310.136 204.88 312.44 193.168 312.44C187.216 312.44 181.552 312.056 176.176 311.288C170.8 310.616 166.624 309.752 163.648 308.696V287.528C167.488 288.776 172.048 289.784 177.328 290.552C182.608 291.224 187.888 291.56 193.168 291.56C197.392 291.56 200.32 291.032 201.952 289.976C203.584 288.92 204.4 286.808 204.4 283.64C204.4 281.624 204.112 280.184 203.536 279.32C203.056 278.36 202.048 277.688 200.512 277.304ZM259.013 220.712V311H236.693V220.712H259.013ZM323.954 277.448H308.402V259.448H344.834V306.968C342.146 308.216 337.346 309.464 330.434 310.712C323.522 311.864 317.234 312.44 311.57 312.44C295.922 312.44 285.026 308.84 278.882 301.64C272.834 294.44 269.81 282.488 269.81 265.784C269.81 249.656 273.362 237.896 280.466 230.504C287.57 223.016 298.898 219.272 314.45 219.272C320.114 219.272 325.154 219.416 329.57 219.704C334.082 219.896 337.538 220.232 339.938 220.712V240.296C336.77 240.008 332.978 239.816 328.562 239.72C324.242 239.528 319.538 239.432 314.45 239.432C308.978 239.432 304.898 239.912 302.21 240.872C299.618 241.832 297.65 243.512 296.306 245.912C295.058 247.832 294.146 250.424 293.57 253.688C293.09 256.856 292.85 260.888 292.85 265.784C292.85 270.488 293.09 274.424 293.57 277.592C294.05 280.76 294.818 283.304 295.874 285.224C297.218 287.816 299.09 289.64 301.49 290.696C303.986 291.752 307.826 292.28 313.01 292.28C314.738 292.28 316.514 292.232 318.338 292.136C320.258 291.944 322.13 291.704 323.954 291.416V277.448ZM433.988 220.712V311H412.676L376.964 258.872V311H356.084V220.712H377.252L413.108 274.856V220.712H433.988ZM38.448 484H6.912V393.712H38.448C47.664 393.712 54.96 394.48 60.336 396.016C65.808 397.552 70.176 400 73.44 403.36C76.704 406.72 79.056 411.28 80.496 417.04C82.032 422.704 82.8 429.952 82.8 438.784C82.8 454.432 79.296 465.904 72.288 473.2C65.28 480.4 54 484 38.448 484ZM56.16 419.632C54.816 417.616 52.848 416.176 50.256 415.312C47.664 414.352 43.728 413.872 38.448 413.872H29.232V463.12H38.448C43.632 463.12 47.52 462.688 50.112 461.824C52.704 460.96 54.72 459.568 56.16 457.648C57.408 455.824 58.32 453.424 58.896 450.448C59.472 447.376 59.76 443.488 59.76 438.784C59.76 433.984 59.472 430.096 58.896 427.12C58.32 424.048 57.408 421.552 56.16 419.632ZM155.745 463.12V484H93.537V393.712H154.449V413.872H115.857V428.848H149.121V447.568H115.857V463.12H155.745ZM190.288 484L159.04 393.712H183.952L197.344 438.352C198.208 441.328 199.264 445.312 200.512 450.304C201.76 455.2 202.96 460.096 204.112 464.992C206.224 456.256 207.712 450.112 208.576 446.56C209.536 443.008 210.256 440.32 210.736 438.496L223.984 393.712H248.176L217.072 484H190.288ZM317.042 463.12V484H254.834V393.712H315.746V413.872H277.154V428.848H310.418V447.568H277.154V463.12H317.042ZM385.137 463.12V484H327.537V393.712H349.857V463.12H385.137ZM474.442 438.784C474.442 455.2 471.082 467.104 464.362 474.496C457.738 481.792 446.938 485.44 431.962 485.44C416.314 485.44 405.322 481.984 398.986 475.072C392.65 468.16 389.482 456.064 389.482 438.784C389.482 422.368 392.794 410.512 399.418 403.216C406.138 395.92 416.986 392.272 431.962 392.272C447.61 392.272 458.602 395.728 464.938 402.64C471.274 409.552 474.442 421.6 474.442 438.784ZM414.826 458.08C416.074 460.48 417.898 462.16 420.298 463.12C422.794 464.08 426.682 464.56 431.962 464.56C437.242 464.56 441.082 464.08 443.482 463.12C445.978 462.16 447.85 460.48 449.098 458.08C450.058 456.16 450.73 453.664 451.114 450.592C451.594 447.52 451.834 443.584 451.834 438.784C451.834 433.888 451.594 429.904 451.114 426.832C450.73 423.664 450.058 421.12 449.098 419.2C447.946 416.704 446.122 414.976 443.626 414.016C441.226 412.96 437.338 412.432 431.962 412.432C426.586 412.432 422.65 412.96 420.154 414.016C417.754 414.976 415.978 416.704 414.826 419.2C413.866 421.12 413.146 423.664 412.666 426.832C412.282 429.904 412.09 433.888 412.09 438.784C412.09 443.584 412.282 447.52 412.666 450.592C413.146 453.664 413.866 456.16 414.826 458.08ZM507.498 458.656V484H485.178V393.712H518.154C532.074 393.712 541.962 396.16 547.818 401.056C553.674 405.856 556.602 413.968 556.602 425.392C556.602 436.72 553.482 445.12 547.242 450.592C541.098 455.968 531.546 458.656 518.586 458.656H507.498ZM533.994 425.392C533.994 421.168 532.842 418.192 530.538 416.464C528.234 414.736 524.106 413.872 518.154 413.872H507.498V439.072H518.154C524.202 439.072 528.33 438.064 530.538 436.048C532.842 434.032 533.994 430.48 533.994 425.392Z" fill="black"/>
<path d="M2.46094 550V524.23H7.66406V550H2.46094ZM29.7246 550H25.1367V547.258C24.375 548.324 23.4727 549.121 22.4297 549.648C21.3984 550.164 20.3555 550.422 19.3008 550.422C17.1562 550.422 15.3164 549.561 13.7812 547.838C12.2578 546.104 11.4961 543.689 11.4961 540.596C11.4961 537.432 12.2402 535.029 13.7285 533.389C15.2168 531.736 17.0977 530.91 19.3711 530.91C21.457 530.91 23.2617 531.777 24.7852 533.512V524.23H29.7246V550ZM16.541 540.262C16.541 542.254 16.8164 543.695 17.3672 544.586C18.1641 545.875 19.2773 546.52 20.707 546.52C21.8438 546.52 22.8105 546.039 23.6074 545.078C24.4043 544.105 24.8027 542.658 24.8027 540.736C24.8027 538.592 24.416 537.051 23.6426 536.113C22.8691 535.164 21.8789 534.689 20.6719 534.689C19.5 534.689 18.5156 535.158 17.7188 536.096C16.9336 537.021 16.541 538.41 16.541 540.262ZM45.4219 544.059L50.3438 544.885C49.7109 546.689 48.709 548.066 47.3379 549.016C45.9785 549.953 44.2734 550.422 42.2227 550.422C38.9766 550.422 36.5742 549.361 35.0156 547.24C33.7852 545.541 33.1699 543.396 33.1699 540.807C33.1699 537.713 33.9785 535.293 35.5957 533.547C37.2129 531.789 39.2578 530.91 41.7305 530.91C44.5078 530.91 46.6992 531.83 48.3047 533.67C49.9102 535.498 50.6777 538.305 50.6074 542.09H38.2324C38.2676 543.555 38.666 544.697 39.4277 545.518C40.1895 546.326 41.1387 546.73 42.2754 546.73C43.0488 546.73 43.6992 546.52 44.2266 546.098C44.7539 545.676 45.1523 544.996 45.4219 544.059ZM45.7031 539.066C45.668 537.637 45.2988 536.553 44.5957 535.814C43.8926 535.064 43.0371 534.689 42.0293 534.689C40.9512 534.689 40.0605 535.082 39.3574 535.867C38.6543 536.652 38.3086 537.719 38.3203 539.066H45.7031ZM58.3418 537.027L53.8594 536.219C54.3633 534.414 55.2305 533.078 56.4609 532.211C57.6914 531.344 59.5195 530.91 61.9453 530.91C64.1484 530.91 65.7891 531.174 66.8672 531.701C67.9453 532.217 68.7012 532.879 69.1348 533.688C69.5801 534.484 69.8027 535.955 69.8027 538.1L69.75 543.865C69.75 545.506 69.8262 546.719 69.9785 547.504C70.1426 548.277 70.4414 549.109 70.875 550H65.9883C65.8594 549.672 65.7012 549.186 65.5137 548.541C65.4316 548.248 65.373 548.055 65.3379 547.961C64.4941 548.781 63.5918 549.396 62.6309 549.807C61.6699 550.217 60.6445 550.422 59.5547 550.422C57.6328 550.422 56.1152 549.9 55.002 548.857C53.9004 547.814 53.3496 546.496 53.3496 544.902C53.3496 543.848 53.6016 542.91 54.1055 542.09C54.6094 541.258 55.3125 540.625 56.2148 540.191C57.1289 539.746 58.4414 539.359 60.1523 539.031C62.4609 538.598 64.0605 538.193 64.9512 537.818V537.326C64.9512 536.377 64.7168 535.703 64.248 535.305C63.7793 534.895 62.8945 534.689 61.5938 534.689C60.7148 534.689 60.0293 534.865 59.5371 535.217C59.0449 535.557 58.6465 536.16 58.3418 537.027ZM64.9512 541.035C64.3184 541.246 63.3164 541.498 61.9453 541.791C60.5742 542.084 59.6777 542.371 59.2559 542.652C58.6113 543.109 58.2891 543.689 58.2891 544.393C58.2891 545.084 58.5469 545.682 59.0625 546.186C59.5781 546.689 60.2344 546.941 61.0312 546.941C61.9219 546.941 62.7715 546.648 63.5801 546.062C64.1777 545.617 64.5703 545.072 64.7578 544.428C64.8867 544.006 64.9512 543.203 64.9512 542.02V541.035ZM72.9492 544.674L77.9062 543.918C78.1172 544.879 78.5449 545.611 79.1895 546.115C79.834 546.607 80.7363 546.854 81.8965 546.854C83.1738 546.854 84.1348 546.619 84.7793 546.15C85.2129 545.822 85.4297 545.383 85.4297 544.832C85.4297 544.457 85.3125 544.146 85.0781 543.9C84.832 543.666 84.2812 543.449 83.4258 543.25C79.4414 542.371 76.916 541.568 75.8496 540.842C74.373 539.834 73.6348 538.434 73.6348 536.641C73.6348 535.023 74.2734 533.664 75.5508 532.562C76.8281 531.461 78.8086 530.91 81.4922 530.91C84.0469 530.91 85.9453 531.326 87.1875 532.158C88.4297 532.99 89.2852 534.221 89.7539 535.85L85.0957 536.711C84.8965 535.984 84.5156 535.428 83.9531 535.041C83.4023 534.654 82.6113 534.461 81.5801 534.461C80.2793 534.461 79.3477 534.643 78.7852 535.006C78.4102 535.264 78.2227 535.598 78.2227 536.008C78.2227 536.359 78.3867 536.658 78.7148 536.904C79.1602 537.232 80.6953 537.695 83.3203 538.293C85.957 538.891 87.7969 539.623 88.8398 540.49C89.8711 541.369 90.3867 542.594 90.3867 544.164C90.3867 545.875 89.6719 547.346 88.2422 548.576C86.8125 549.807 84.6973 550.422 81.8965 550.422C79.3535 550.422 77.3379 549.906 75.8496 548.875C74.373 547.844 73.4062 546.443 72.9492 544.674ZM116.771 540.525V536.184H127.986V546.449C126.896 547.504 125.314 548.436 123.24 549.244C121.178 550.041 119.086 550.439 116.965 550.439C114.27 550.439 111.92 549.877 109.916 548.752C107.912 547.615 106.406 545.998 105.398 543.9C104.391 541.791 103.887 539.5 103.887 537.027C103.887 534.344 104.449 531.959 105.574 529.873C106.699 527.787 108.346 526.188 110.514 525.074C112.166 524.219 114.223 523.791 116.684 523.791C119.883 523.791 122.379 524.465 124.172 525.812C125.977 527.148 127.137 529 127.652 531.367L122.484 532.334C122.121 531.068 121.436 530.072 120.428 529.346C119.432 528.607 118.184 528.238 116.684 528.238C114.41 528.238 112.6 528.959 111.252 530.4C109.916 531.842 109.248 533.98 109.248 536.816C109.248 539.875 109.928 542.172 111.287 543.707C112.646 545.23 114.428 545.992 116.631 545.992C117.721 545.992 118.811 545.781 119.9 545.359C121.002 544.926 121.945 544.404 122.73 543.795V540.525H116.771ZM143.578 544.059L148.5 544.885C147.867 546.689 146.865 548.066 145.494 549.016C144.135 549.953 142.43 550.422 140.379 550.422C137.133 550.422 134.73 549.361 133.172 547.24C131.941 545.541 131.326 543.396 131.326 540.807C131.326 537.713 132.135 535.293 133.752 533.547C135.369 531.789 137.414 530.91 139.887 530.91C142.664 530.91 144.855 531.83 146.461 533.67C148.066 535.498 148.834 538.305 148.764 542.09H136.389C136.424 543.555 136.822 544.697 137.584 545.518C138.346 546.326 139.295 546.73 140.432 546.73C141.205 546.73 141.855 546.52 142.383 546.098C142.91 545.676 143.309 544.996 143.578 544.059ZM143.859 539.066C143.824 537.637 143.455 536.553 142.752 535.814C142.049 535.064 141.193 534.689 140.186 534.689C139.107 534.689 138.217 535.082 137.514 535.867C136.811 536.652 136.465 537.719 136.477 539.066H143.859ZM161.367 531.332V535.27H157.992V542.793C157.992 544.316 158.021 545.207 158.08 545.465C158.15 545.711 158.297 545.916 158.52 546.08C158.754 546.244 159.035 546.326 159.363 546.326C159.82 546.326 160.482 546.168 161.35 545.852L161.771 549.684C160.623 550.176 159.322 550.422 157.869 550.422C156.979 550.422 156.176 550.275 155.461 549.982C154.746 549.678 154.219 549.291 153.879 548.822C153.551 548.342 153.322 547.697 153.193 546.889C153.088 546.314 153.035 545.154 153.035 543.408V535.27H150.768V531.332H153.035V527.623L157.992 524.74V531.332H161.367ZM173.355 531.332V535.27H169.98V542.793C169.98 544.316 170.01 545.207 170.068 545.465C170.139 545.711 170.285 545.916 170.508 546.08C170.742 546.244 171.023 546.326 171.352 546.326C171.809 546.326 172.471 546.168 173.338 545.852L173.76 549.684C172.611 550.176 171.311 550.422 169.857 550.422C168.967 550.422 168.164 550.275 167.449 549.982C166.734 549.678 166.207 549.291 165.867 548.822C165.539 548.342 165.311 547.697 165.182 546.889C165.076 546.314 165.023 545.154 165.023 543.408V535.27H162.756V531.332H165.023V527.623L169.98 524.74V531.332H173.355ZM176.783 528.801V524.23H181.723V528.801H176.783ZM176.783 550V531.332H181.723V550H176.783ZM203.783 550H198.844V540.473C198.844 538.457 198.738 537.156 198.527 536.57C198.316 535.973 197.971 535.51 197.49 535.182C197.021 534.854 196.453 534.689 195.785 534.689C194.93 534.689 194.162 534.924 193.482 535.393C192.803 535.861 192.334 536.482 192.076 537.256C191.83 538.029 191.707 539.459 191.707 541.545V550H186.768V531.332H191.355V534.074C192.984 531.965 195.035 530.91 197.508 530.91C198.598 530.91 199.594 531.109 200.496 531.508C201.398 531.895 202.078 532.393 202.535 533.002C203.004 533.611 203.326 534.303 203.502 535.076C203.689 535.85 203.783 536.957 203.783 538.398V550ZM208.354 551.23L213.996 551.916C214.09 552.572 214.307 553.023 214.646 553.27C215.115 553.621 215.854 553.797 216.861 553.797C218.15 553.797 219.117 553.604 219.762 553.217C220.195 552.959 220.523 552.543 220.746 551.969C220.898 551.559 220.975 550.803 220.975 549.701V546.977C219.498 548.992 217.635 550 215.385 550C212.877 550 210.891 548.939 209.426 546.818C208.277 545.143 207.703 543.057 207.703 540.561C207.703 537.432 208.453 535.041 209.953 533.389C211.465 531.736 213.34 530.91 215.578 530.91C217.887 530.91 219.791 531.924 221.291 533.951V531.332H225.914V548.084C225.914 550.287 225.732 551.934 225.369 553.023C225.006 554.113 224.496 554.969 223.84 555.59C223.184 556.211 222.305 556.697 221.203 557.049C220.113 557.4 218.73 557.576 217.055 557.576C213.891 557.576 211.646 557.031 210.322 555.941C208.998 554.863 208.336 553.492 208.336 551.828C208.336 551.664 208.342 551.465 208.354 551.23ZM212.766 540.279C212.766 542.26 213.146 543.713 213.908 544.639C214.682 545.553 215.631 546.01 216.756 546.01C217.963 546.01 218.982 545.541 219.814 544.604C220.646 543.654 221.062 542.254 221.062 540.402C221.062 538.469 220.664 537.033 219.867 536.096C219.07 535.158 218.062 534.689 216.844 534.689C215.66 534.689 214.682 535.152 213.908 536.078C213.146 536.992 212.766 538.393 212.766 540.279ZM240.891 550V524.23H251.842C254.596 524.23 256.594 524.465 257.836 524.934C259.09 525.391 260.092 526.211 260.842 527.395C261.592 528.578 261.967 529.932 261.967 531.455C261.967 533.389 261.398 534.988 260.262 536.254C259.125 537.508 257.426 538.299 255.164 538.627C256.289 539.283 257.215 540.004 257.941 540.789C258.68 541.574 259.67 542.969 260.912 544.973L264.059 550H257.836L254.074 544.393C252.738 542.389 251.824 541.129 251.332 540.613C250.84 540.086 250.318 539.729 249.768 539.541C249.217 539.342 248.344 539.242 247.148 539.242H246.094V550H240.891ZM246.094 535.129H249.943C252.439 535.129 253.998 535.023 254.619 534.812C255.24 534.602 255.727 534.238 256.078 533.723C256.43 533.207 256.605 532.562 256.605 531.789C256.605 530.922 256.371 530.225 255.902 529.697C255.445 529.158 254.795 528.818 253.951 528.678C253.529 528.619 252.264 528.59 250.154 528.59H246.094V535.129ZM277.664 544.059L282.586 544.885C281.953 546.689 280.951 548.066 279.58 549.016C278.221 549.953 276.516 550.422 274.465 550.422C271.219 550.422 268.816 549.361 267.258 547.24C266.027 545.541 265.412 543.396 265.412 540.807C265.412 537.713 266.221 535.293 267.838 533.547C269.455 531.789 271.5 530.91 273.973 530.91C276.75 530.91 278.941 531.83 280.547 533.67C282.152 535.498 282.92 538.305 282.85 542.09H270.475C270.51 543.555 270.908 544.697 271.67 545.518C272.432 546.326 273.381 546.73 274.518 546.73C275.291 546.73 275.941 546.52 276.469 546.098C276.996 545.676 277.395 544.996 277.664 544.059ZM277.945 539.066C277.91 537.637 277.541 536.553 276.838 535.814C276.135 535.064 275.279 534.689 274.271 534.689C273.193 534.689 272.303 535.082 271.6 535.867C270.896 536.652 270.551 537.719 270.562 539.066H277.945ZM290.584 537.027L286.102 536.219C286.605 534.414 287.473 533.078 288.703 532.211C289.934 531.344 291.762 530.91 294.188 530.91C296.391 530.91 298.031 531.174 299.109 531.701C300.188 532.217 300.943 532.879 301.377 533.688C301.822 534.484 302.045 535.955 302.045 538.1L301.992 543.865C301.992 545.506 302.068 546.719 302.221 547.504C302.385 548.277 302.684 549.109 303.117 550H298.23C298.102 549.672 297.943 549.186 297.756 548.541C297.674 548.248 297.615 548.055 297.58 547.961C296.736 548.781 295.834 549.396 294.873 549.807C293.912 550.217 292.887 550.422 291.797 550.422C289.875 550.422 288.357 549.9 287.244 548.857C286.143 547.814 285.592 546.496 285.592 544.902C285.592 543.848 285.844 542.91 286.348 542.09C286.852 541.258 287.555 540.625 288.457 540.191C289.371 539.746 290.684 539.359 292.395 539.031C294.703 538.598 296.303 538.193 297.193 537.818V537.326C297.193 536.377 296.959 535.703 296.49 535.305C296.021 534.895 295.137 534.689 293.836 534.689C292.957 534.689 292.271 534.865 291.779 535.217C291.287 535.557 290.889 536.16 290.584 537.027ZM297.193 541.035C296.561 541.246 295.559 541.498 294.188 541.791C292.816 542.084 291.92 542.371 291.498 542.652C290.854 543.109 290.531 543.689 290.531 544.393C290.531 545.084 290.789 545.682 291.305 546.186C291.82 546.689 292.477 546.941 293.273 546.941C294.164 546.941 295.014 546.648 295.822 546.062C296.42 545.617 296.812 545.072 297 544.428C297.129 544.006 297.193 543.203 297.193 542.02V541.035ZM306.932 550V524.23H311.871V550H306.932Z" fill="black" fill-opacity="0.58"/>
</svg>
