<svg width="276" height="188" viewBox="0 0 276 188" fill="none" xmlns="http://www.w3.org/2000/svg">
<path d="M162.418 137.919C200.668 137.919 231.676 107.045 231.676 68.9596C231.676 30.8743 200.668 0 162.418 0C124.167 0 93.1594 30.8743 93.1594 68.9596C93.1594 107.045 124.167 137.919 162.418 137.919Z" fill="#F2F2F2"/>
<path d="M39.0614 166.729C40.9427 167.387 42.9625 167.552 44.9264 167.208C46.8902 166.863 48.7318 166.021 50.2739 164.762C54.2011 161.48 55.4324 156.073 56.4342 151.067L59.3976 136.258L53.1936 140.511C48.732 143.57 44.1699 146.727 41.0808 151.157C37.9916 155.588 36.6432 161.636 39.1253 166.43" fill="#E6E6E6"/>
<path d="M39.5919 184.658C38.964 180.104 38.3183 175.492 38.7587 170.889C39.1499 166.801 40.4025 162.808 42.9525 159.534C44.3061 157.8 45.9531 156.314 47.8196 155.143C48.3063 154.837 48.7542 155.605 48.2696 155.91C45.0402 157.942 42.5423 160.943 41.1361 164.48C39.583 168.413 39.3336 172.7 39.6013 176.879C39.7631 179.405 40.1061 181.915 40.4518 184.422C40.479 184.536 40.462 184.655 40.4042 184.757C40.3464 184.858 40.2521 184.934 40.1404 184.968C40.0264 184.999 39.9048 184.984 39.8022 184.926C39.6995 184.868 39.6239 184.772 39.5919 184.658Z" fill="#F2F2F2"/>
<path d="M81.147 178.385C81.8813 179.249 82.8267 179.91 83.8919 180.304C84.9572 180.698 86.1066 180.813 87.2292 180.637C90.1102 180.15 92.281 177.845 94.223 175.671L99.9671 169.24L95.6854 169.551C92.6063 169.774 89.4493 170.017 86.6478 171.309C83.8463 172.601 81.4324 175.187 81.2649 178.257" fill="#E6E6E6"/>
<path d="M76.217 187.354C77.2267 184.934 78.2446 182.481 79.7938 180.345C81.1695 178.447 82.9413 176.843 85.1429 175.966C86.3105 175.501 87.5505 175.243 88.8072 175.203C89.135 175.193 89.1329 175.699 88.8065 175.709C86.6303 175.782 84.5334 176.54 82.8181 177.876C80.9158 179.364 79.5519 181.4 78.4739 183.531C77.822 184.82 77.264 186.153 76.7082 187.485C76.6887 187.548 76.6458 187.602 76.588 187.635C76.5303 187.669 76.462 187.679 76.3969 187.664C76.332 187.646 76.2767 187.604 76.2431 187.546C76.2094 187.488 76.2 187.419 76.217 187.354H76.217Z" fill="#F2F2F2"/>
<path d="M45.6396 176.601C46.4465 177.822 47.5555 178.815 48.8599 179.486C50.1643 180.156 51.6201 180.481 53.0871 180.428C56.8571 180.25 60 177.63 62.8293 175.143L71.1978 167.786L65.6593 167.522C61.6763 167.332 57.5906 167.155 53.7969 168.378C50.0033 169.601 46.5046 172.544 45.8109 176.454" fill="#E6E6E6"/>
<path d="M37.817 187.277C40.8393 181.952 44.3449 176.034 50.6089 174.143C52.3506 173.619 54.1768 173.431 55.9893 173.59C56.5606 173.639 56.4179 174.516 55.8477 174.467C52.8096 174.216 49.7773 175.014 47.2614 176.729C44.8403 178.369 42.9553 180.651 41.3598 183.07C40.3825 184.551 39.5071 186.096 38.6316 187.639C38.3518 188.132 37.5339 187.776 37.817 187.277Z" fill="#F2F2F2"/>
<path d="M168.34 96.3889C174.349 93.1003 181.828 93.7603 188.303 96.0087C194.778 98.2572 200.645 101.941 206.933 104.665C226.147 112.991 249.305 111.649 267.419 101.159C269.132 105.127 267.294 109.665 265.275 113.487C263.256 117.31 260.955 121.453 261.787 125.692C262.85 131.116 268.562 134.368 270.876 139.391C273.073 144.16 271.894 149.76 270.208 154.73C268.523 159.701 266.336 164.709 266.622 169.947C266.909 175.186 270.731 180.725 276 180.729C268.191 181.937 260.229 183.146 252.426 181.908C244.622 180.67 236.859 176.561 233.236 169.569C231.425 166.074 230.727 162.055 228.647 158.712C225.104 153.017 218.305 150.34 211.891 148.321C205.476 146.303 198.611 144.359 194.094 139.394C189.791 134.664 188.428 128.075 186.148 122.11C182.308 112.124 175.638 103.464 166.949 97.1809" fill="#00BFA6"/>
<path d="M175.303 71.6072C173.193 70.63 170.603 70.3097 168.457 71.2177C166.31 72.1257 164.847 74.453 165.541 76.5127C165.856 77.4466 166.572 78.365 166.293 79.3081C166.078 80.0341 165.328 80.5134 164.592 80.8541C163.856 81.1949 163.05 81.4814 162.518 82.0562C161.985 82.631 161.874 83.6205 162.539 84.0662C162.759 84.2131 163.033 84.2827 163.245 84.4375C163.426 84.584 163.557 84.7831 163.619 85.0071C163.681 85.2311 163.671 85.4688 163.591 85.6871C163.414 86.1262 163.121 86.5097 162.744 86.7971C161.989 87.4456 160.991 88.1877 161.225 89.1082C161.312 89.3543 161.457 89.5757 161.649 89.7539C161.84 89.9321 162.072 90.0617 162.324 90.1317C162.848 90.2821 163.392 90.3536 163.937 90.3436L186.22 91.0426C186.956 91.0976 187.696 91.0565 188.421 90.9202C188.773 90.8562 189.108 90.7206 189.405 90.5217C189.703 90.3228 189.956 90.0651 190.148 89.7645C190.575 88.978 190.295 88.0092 189.768 87.2749C189.241 86.5405 188.495 85.9612 187.879 85.2869C187.263 84.6125 186.758 83.7707 186.867 82.8992C186.954 82.2015 187.416 81.5985 187.748 80.9646C188.08 80.3306 188.272 79.5385 187.843 78.9553C187.237 78.1335 185.784 78.2078 185.095 77.4421C184.576 76.8642 184.676 76.0323 184.624 75.2871C184.5 73.4945 183.254 71.8017 181.479 71.0155C180.577 70.6299 179.596 70.4634 178.616 70.5299C177.637 70.5963 176.687 70.8937 175.846 71.3976L175.303 71.6072Z" fill="#2F2E41"/>
<path d="M161.222 184.119L157.732 183.074L160.115 169.174L165.266 170.715L161.222 184.119Z" fill="#A0616A"/>
<path d="M161.095 187.754L149.842 184.387L149.885 184.246C150.058 183.673 150.342 183.14 150.722 182.676C151.102 182.213 151.569 181.829 152.098 181.545C152.627 181.262 153.207 181.085 153.804 181.025C154.402 180.965 155.006 181.022 155.581 181.195L155.581 181.195L162.454 183.251L161.095 187.754Z" fill="#2F2E41"/>
<path d="M194.155 184.236L190.511 184.236L188.778 170.24L194.156 170.241L194.155 184.236Z" fill="#A0616A"/>
<path d="M195.085 187.753L183.334 187.753V187.605C183.334 187.007 183.453 186.414 183.683 185.862C183.912 185.309 184.249 184.807 184.674 184.385C185.099 183.962 185.603 183.626 186.158 183.397C186.713 183.169 187.307 183.051 187.908 183.051H187.908L195.085 183.051L195.085 187.753Z" fill="#2F2E41"/>
<path d="M189.097 173.651C188.779 173.651 188.471 173.538 188.229 173.333C187.987 173.127 187.827 172.843 187.777 172.53L182.366 138.922C182.33 138.699 182.222 138.495 182.059 138.339C181.895 138.182 181.685 138.084 181.46 138.057C181.235 138.031 181.008 138.078 180.813 138.192C180.617 138.306 180.465 138.48 180.378 138.689L166.359 172.291C166.229 172.601 165.985 172.851 165.678 172.991C165.371 173.13 165.022 173.149 164.701 173.044L159.638 171.363C159.322 171.26 159.057 171.043 158.894 170.755C158.731 170.467 158.682 170.129 158.756 169.806L170.244 119.19C170.3 118.946 170.424 118.723 170.601 118.546C170.778 118.368 171.002 118.244 171.246 118.186L186.653 114.625C186.843 114.583 187.039 114.581 187.229 114.62C187.419 114.659 187.599 114.739 187.755 114.853C197.9 122.193 197.043 146.172 195.153 172.21C195.129 172.536 194.986 172.842 194.751 173.07C194.515 173.298 194.204 173.431 193.876 173.445L189.155 173.65C189.136 173.651 189.116 173.651 189.097 173.651Z" fill="#2F2E41"/>
<path d="M176.127 90.8704C180.159 90.8704 183.428 87.6159 183.428 83.6012C183.428 79.5866 180.159 76.332 176.127 76.332C172.095 76.332 168.826 79.5866 168.826 83.6012C168.826 87.6159 172.095 90.8704 176.127 90.8704Z" fill="#A0616A"/>
<path d="M176.442 121.276C174.69 121.264 172.961 120.867 171.382 120.111L171.328 120.086L171.306 120.03L164.758 103.138L164.633 100.203C164.592 99.221 164.757 98.2416 165.118 97.3275C165.48 96.4134 166.029 95.5848 166.732 94.895C167.434 94.2053 168.274 93.6697 169.197 93.3227C170.12 92.9757 171.106 92.825 172.091 92.8803L179.043 93.2702C180.839 93.3718 182.528 94.1511 183.767 95.4493C185.006 96.7475 185.702 98.4671 185.712 100.258C185.893 100.603 187.175 103.304 184.662 105.841C184.568 106.419 183.689 112.426 187.006 115.729L187.1 115.822L187.018 115.925C186.965 115.992 182.705 121.275 176.442 121.276Z" fill="#3F3D56"/>
<path d="M186.204 122.552C186.615 122.404 186.988 122.168 187.298 121.86C187.607 121.553 187.845 121.181 187.994 120.773C188.144 120.364 188.201 119.927 188.163 119.494C188.125 119.06 187.992 118.641 187.773 118.264L194.716 110.26L189.243 109.551L183.488 117.26C182.877 117.668 182.438 118.285 182.253 118.994C182.068 119.703 182.151 120.455 182.486 121.107C182.82 121.76 183.384 122.267 184.069 122.533C184.755 122.799 185.514 122.806 186.204 122.552Z" fill="#A0616A"/>
<path d="M190.546 116.374C190.285 116.374 190.03 116.298 189.812 116.155L186.378 113.913C186.089 113.725 185.885 113.433 185.807 113.098C185.73 112.764 185.785 112.412 185.962 112.118L188.448 107.959C188.583 107.734 188.668 107.483 188.698 107.223C188.728 106.963 188.703 106.699 188.624 106.45C188.544 106.2 188.413 105.97 188.238 105.775C188.063 105.579 187.849 105.423 187.609 105.315L180.467 102.127C179.588 101.73 178.871 101.048 178.433 100.192C177.995 99.3364 177.862 98.3579 178.055 97.417C178.189 96.7824 178.467 96.187 178.87 95.6772C179.272 95.1674 179.787 94.7569 180.375 94.4776C180.962 94.1983 181.607 94.0577 182.258 94.0668C182.909 94.0759 183.549 94.2345 184.129 94.5302L194.964 100.058C195.695 100.431 196.336 100.957 196.844 101.6C197.352 102.243 197.714 102.987 197.907 103.782C198.099 104.577 198.116 105.404 197.957 106.207C197.798 107.009 197.467 107.768 196.987 108.431L191.63 115.821C191.507 115.992 191.344 116.132 191.155 116.228C190.967 116.324 190.758 116.374 190.546 116.374Z" fill="#3F3D56"/>
<path d="M168.659 82.5677C170.964 82.3833 172.878 80.0901 172.639 77.7995C172.612 78.7436 172.934 79.6647 173.545 80.3875C174.155 81.1103 175.011 81.5845 175.95 81.7197C177.008 81.8357 178.167 81.5171 179.088 82.0484C180.107 82.6367 180.434 84.0656 181.496 84.5738C182.522 85.0648 183.825 84.3951 184.333 83.3801C184.84 82.365 184.715 81.1455 184.379 80.0623C183.9 78.5176 183.027 77.1226 181.846 76.0131C180.665 74.9036 179.216 74.1173 177.639 73.7307C176.063 73.3442 174.412 73.3704 172.849 73.807C171.286 74.2436 169.862 75.0756 168.717 76.2221C167.748 77.193 166.978 78.4304 166.853 79.7939C166.729 81.1573 167.364 82.6367 168.593 83.2492L168.659 82.5677Z" fill="#2F2E41"/>
<path d="M151.674 62.432C152.058 62.6385 152.393 62.9264 152.654 63.2755C152.914 63.6246 153.095 64.0264 153.183 64.4526C153.271 64.8788 153.264 65.319 153.163 65.7422C153.061 66.1654 152.868 66.5613 152.596 66.9021L158.291 75.8298L152.772 75.7357L148.211 67.2722C147.666 66.7798 147.321 66.1056 147.243 65.3773C147.164 64.649 147.356 63.9172 147.783 63.3205C148.21 62.7239 148.842 62.3039 149.559 62.1402C150.276 61.9764 151.028 62.0803 151.674 62.432V62.432Z" fill="#A0616A"/>
<path d="M156.264 68.7885L163.598 86.0437L171.287 99.0259C171.612 99.5739 171.807 100.188 171.858 100.822C171.91 101.457 171.815 102.094 171.583 102.687C171.35 103.279 170.986 103.812 170.516 104.243C170.047 104.675 169.485 104.995 168.874 105.179C167.903 105.466 166.862 105.397 165.938 104.987C165.014 104.576 164.268 103.849 163.835 102.939L149.015 71.4091C148.935 71.2378 148.892 71.0514 148.889 70.8623C148.887 70.6732 148.925 70.4857 149.001 70.3124C149.077 70.139 149.189 69.9837 149.33 69.8569C149.47 69.73 149.637 69.6345 149.818 69.5767L154.623 68.0397C154.714 68.0105 154.808 67.991 154.903 67.9813C155.187 67.9528 155.472 68.0158 155.717 68.1612C155.962 68.3065 156.154 68.5264 156.264 68.7885Z" fill="#3F3D56"/>
<path d="M225.015 188H0.297245C0.218411 188 0.142805 187.969 0.0870609 187.913C0.0313166 187.858 0 187.783 0 187.704C0 187.626 0.0313166 187.55 0.0870609 187.495C0.142805 187.439 0.218411 187.408 0.297245 187.408H225.015C225.094 187.408 225.169 187.439 225.225 187.495C225.281 187.55 225.312 187.626 225.312 187.704C225.312 187.783 225.281 187.858 225.225 187.913C225.169 187.969 225.094 188 225.015 188Z" fill="#CCCCCC"/>
<path d="M177.71 32.0264V56.2955C177.71 56.374 177.679 56.4493 177.623 56.5048C177.568 56.5603 177.492 56.5914 177.413 56.5914C177.334 56.5914 177.259 56.5603 177.203 56.5048C177.147 56.4493 177.116 56.374 177.116 56.2955V32.0264C177.116 31.9479 177.147 31.8727 177.203 31.8172C177.259 31.7617 177.334 31.7305 177.413 31.7305C177.492 31.7305 177.568 31.7617 177.623 31.8172C177.679 31.8727 177.71 31.9479 177.71 32.0264Z" fill="#CCCCCC"/>
<path d="M203.519 52.6151L195.112 60.9862C195.056 61.0415 194.98 61.0725 194.902 61.0724C194.823 61.0723 194.747 61.0412 194.692 60.9857C194.636 60.9303 194.605 60.8552 194.605 60.7768C194.605 60.6984 194.636 60.6232 194.691 60.5677L203.099 52.1965C203.126 52.1689 203.159 52.147 203.195 52.1321C203.231 52.1171 203.27 52.1094 203.309 52.1094C203.348 52.1093 203.387 52.117 203.423 52.1318C203.459 52.1467 203.492 52.1685 203.52 52.1961C203.547 52.2236 203.569 52.2563 203.584 52.2922C203.599 52.3282 203.607 52.3668 203.607 52.4057C203.607 52.4446 203.599 52.4831 203.584 52.5191C203.569 52.555 203.547 52.5876 203.519 52.6151Z" fill="#CCCCCC"/>
<path d="M151.308 52.6151L159.715 60.9862C159.771 61.0417 159.846 61.0729 159.925 61.0729C160.004 61.0729 160.08 61.0417 160.135 60.9862C160.191 60.9307 160.222 60.8554 160.222 60.7769C160.222 60.6985 160.191 60.6232 160.135 60.5677L151.728 52.1965C151.7 52.1689 151.668 52.147 151.631 52.1321C151.595 52.1171 151.557 52.1094 151.518 52.1094C151.478 52.1093 151.44 52.117 151.404 52.1318C151.368 52.1467 151.335 52.1685 151.307 52.1961C151.279 52.2236 151.257 52.2563 151.243 52.2922C151.228 52.3282 151.22 52.3668 151.22 52.4057C151.22 52.4446 151.228 52.4831 151.243 52.5191C151.258 52.555 151.28 52.5876 151.308 52.6151Z" fill="#CCCCCC"/>
</svg>
