<svg width="182" height="40" viewBox="0 0 182 40" fill="none" xmlns="http://www.w3.org/2000/svg">
<path d="M8.448 32L0.336 1.904H6.576L10.656 18.848C10.752 19.296 10.864 19.84 10.992 20.48C11.12 21.12 11.44 22.96 11.952 26C12.464 23.024 12.784 21.2 12.912 20.528C13.04 19.856 13.152 19.312 13.248 18.896L17.52 1.904H23.568L27.888 18.848C28.016 19.296 28.144 19.856 28.272 20.528C28.4 21.168 28.72 22.976 29.232 25.952C29.584 23.968 29.856 22.4 30.048 21.248C30.272 20.064 30.432 19.28 30.528 18.896L34.512 1.904H40.56L32.448 32H25.872L22.464 19.376C22.144 18.064 21.824 16.656 21.504 15.152C21.184 13.616 20.832 11.808 20.448 9.728C20.16 11.296 19.84 12.896 19.488 14.528C19.168 16.128 18.816 17.744 18.432 19.376L15.072 32H8.448ZM49.083 32H43.515V0.079999H49.083V10.064C50.427 9.328 51.771 8.768 53.115 8.384C54.459 8 55.755 7.808 57.003 7.808C59.659 7.808 61.643 8.464 62.955 9.776C64.299 11.056 64.971 12.992 64.971 15.584V32H59.403V16.304C59.403 15.088 59.067 14.208 58.395 13.664C57.755 13.088 56.715 12.8 55.275 12.8C54.283 12.8 53.243 12.912 52.155 13.136C51.067 13.36 50.043 13.664 49.083 14.048V32ZM72.1718 34.928C73.3558 34.928 74.2358 34.704 74.8118 34.256C75.3878 33.84 75.8838 32.944 76.2998 31.568L66.9878 8.288H73.2278L79.1318 26.096L84.7478 8.288H90.7478L81.6758 33.056C80.7798 35.488 79.6758 37.216 78.3638 38.24C77.0838 39.264 75.3878 39.776 73.2758 39.776C72.6358 39.776 71.9798 39.744 71.3078 39.68C70.6358 39.616 70.0438 39.536 69.5318 39.44V34.784C69.7878 34.848 70.0918 34.88 70.4438 34.88C70.7958 34.912 71.3718 34.928 72.1718 34.928ZM127.448 19.664V1.904H133.208V19.664C133.208 23.984 132.184 27.2 130.136 29.312C128.088 31.392 124.952 32.432 120.728 32.432C116.408 32.432 113.256 31.424 111.272 29.408C109.288 27.392 108.296 24.144 108.296 19.664V1.904H114.056V19.664C114.056 22.48 114.536 24.416 115.496 25.472C116.456 26.496 118.2 27.008 120.728 27.008C123.288 27.008 125.048 26.48 126.008 25.424C126.968 24.368 127.448 22.448 127.448 19.664ZM147.364 12.608C145.668 12.608 144.5 12.784 143.86 13.136C143.252 13.456 142.948 14.176 142.948 15.296C142.948 15.84 143.076 16.256 143.332 16.544C143.588 16.8 144.02 16.976 144.628 17.072L150.532 17.936C152.42 18.192 153.732 18.784 154.468 19.712C155.236 20.64 155.62 22.112 155.62 24.128C155.62 27.04 154.948 29.152 153.604 30.464C152.26 31.776 149.972 32.432 146.74 32.432C144.884 32.432 143.188 32.352 141.652 32.192C140.116 32.032 138.82 31.792 137.764 31.472V26.528C138.756 26.784 139.972 27.008 141.412 27.2C142.852 27.36 144.308 27.44 145.78 27.44C147.444 27.44 148.564 27.232 149.14 26.816C149.748 26.4 150.052 25.616 150.052 24.464C150.052 23.888 149.908 23.456 149.62 23.168C149.332 22.848 148.852 22.64 148.18 22.544L142.18 21.68C140.548 21.456 139.348 20.848 138.58 19.856C137.812 18.832 137.428 17.36 137.428 15.44C137.428 12.848 138.212 10.928 139.78 9.68C141.38 8.432 143.796 7.808 147.028 7.808C148.34 7.808 149.54 7.84 150.628 7.904C151.716 7.968 152.836 8.096 153.988 8.288V13.04C153.156 12.912 152.148 12.816 150.964 12.752C149.812 12.656 148.612 12.608 147.364 12.608ZM173.552 1.424C176.112 1.424 178.112 2 179.552 3.152C181.024 4.272 181.76 5.872 181.76 7.952C181.76 9.808 181.216 11.52 180.128 13.088C179.072 14.624 177.344 16.16 174.944 17.696V22.976H169.856V15.776C172.224 14.496 173.888 13.344 174.848 12.32C175.84 11.296 176.336 10.272 176.336 9.248C176.336 8.32 176.032 7.632 175.424 7.184C174.816 6.704 173.904 6.464 172.688 6.464C171.6 6.464 170.384 6.592 169.04 6.848C167.696 7.072 166.56 7.36 165.632 7.712V2.768C166.848 2.32 168.096 1.984 169.376 1.76C170.656 1.536 172.048 1.424 173.552 1.424ZM175.28 26.816V32H169.472V26.816H175.28Z" fill="#1C8463"/>
</svg>
