<svg width="180" height="190" viewBox="0 0 180 190" fill="none" xmlns="http://www.w3.org/2000/svg">
<g clip-path="url(#clip0)">
<path d="M46.8155 12.7036C40.9299 21.8112 47.831 36.5758 39.0935 43.4238C30.5876 50.0933 20.1388 39.1627 12.1226 44.9019C0.231207 53.4173 2.40261 92.3748 19.7888 116.58C25.017 123.856 29.386 126.691 31.3208 134.924C35.4757 152.601 20.8739 163.117 23.6526 171.86C29.9089 191.549 126.134 208.065 164.742 148.904C182.775 121.273 185.472 81.3727 169.361 51.0682C140.248 -3.69334 60.0286 -7.72874 46.8155 12.7036Z" fill="#F4F7FA"/>
<path d="M157.918 99.2912C161.542 101.789 166.103 100.205 168.099 95.7483C170.096 91.2918 168.771 85.6497 165.138 83.1584C164.95 83.0297 164.758 82.9185 164.565 82.8107C165.237 80.318 165.747 77.7779 166.09 75.2088C166.298 75.2257 166.507 75.2398 166.716 75.2358C170.864 75.1556 174.159 70.945 174.072 65.8304C173.985 60.7157 170.549 56.6446 166.402 56.7356C166.185 56.741 165.972 56.7632 165.761 56.7902C165.331 54.239 164.739 51.7226 163.987 49.259C164.178 49.1431 164.368 49.0232 164.551 48.8851C168.096 46.2462 169.231 40.5576 167.082 36.1854C164.934 31.8131 160.326 30.4219 156.79 33.0669C156.609 33.2016 156.438 33.3505 156.27 33.5014C154.877 31.5725 153.346 29.7639 151.691 28.0923C151.807 27.8761 151.921 27.6571 152.023 27.4254C154.012 22.9554 156.612 18.1015 152.963 15.7207C144.543 10.2227 140.937 14.1038 138.957 18.5677C138.855 18.7988 138.766 19.0346 138.681 19.271C136.698 18.4596 134.651 17.8392 132.565 17.417C132.577 17.1624 132.587 16.9064 132.583 16.6457C132.497 11.5667 133.768 8.9171 129.655 8.51221C120.705 7.63035 117.691 12.0066 117.777 17.0735C117.781 17.3382 117.8 17.5983 117.822 17.857C115.765 18.3961 113.756 19.1269 111.817 20.0411C111.724 19.8086 111.629 19.5769 111.518 19.3505C109.409 15.0261 104.881 13.6579 101.41 16.2886C97.9396 18.9194 96.8401 24.5427 98.9401 28.8617C99.0472 29.0826 99.1655 29.2908 99.2851 29.497C97.7194 31.2433 96.2815 33.1173 94.9843 35.1021C94.8127 34.9592 94.6386 34.8205 94.4552 34.6945C90.9094 32.2631 86.4602 33.8773 84.5161 38.2954C82.572 42.7134 83.8624 48.2606 87.4 50.698C87.5835 50.8246 87.7707 50.9331 87.9585 51.0348C87.3039 53.4991 86.8075 56.0089 86.4727 58.5465C86.2699 58.5303 86.0664 58.5175 85.8598 58.5215C81.8256 58.6118 78.6287 62.7658 78.7126 67.8009C78.7965 72.8361 82.1318 76.856 86.1634 76.7785C86.3738 76.7745 86.581 76.7529 86.7895 76.7273C87.2084 79.248 87.7859 81.7352 88.5183 84.1716C88.3304 84.2848 88.1476 84.4027 87.9673 84.5374C84.5136 87.1203 83.4104 92.7221 85.5004 97.0546C87.5904 101.387 94.5278 103.951 97.9928 101.374C98.1706 101.24 95.8996 99.9656 96.0649 99.818C97.4316 101.745 98.9348 103.554 100.561 105.231C100.447 105.444 100.335 105.66 100.234 105.888C98.2802 110.293 99.5769 115.872 103.133 118.355C106.69 120.838 111.171 119.286 113.133 114.875C113.235 114.647 113.321 114.413 113.407 114.178C115.375 115.019 117.41 115.669 119.485 116.123C119.472 116.377 119.462 116.633 119.466 116.893C119.552 121.963 122.931 126.037 127.02 125.992C131.108 125.946 134.367 121.789 134.283 116.707C134.279 116.441 134.26 116.181 134.237 115.921C136.306 115.415 138.329 114.714 140.284 113.827C140.378 114.063 140.475 114.298 140.587 114.525C142.716 118.904 147.299 120.362 150.824 117.772C154.35 115.182 155.483 109.515 153.345 105.128C153.235 104.904 153.115 104.692 152.993 104.483C154.588 102.739 156.053 100.864 157.376 98.8742C157.553 99.0197 157.731 99.1625 157.918 99.2912ZM113.094 95.9335C100.161 86.9634 95.4538 66.7372 102.547 50.6885C109.655 34.6029 125.964 28.7088 139.005 37.5927C152.104 46.515 156.898 66.9137 149.679 83.0863C142.476 99.2211 126.081 104.942 113.094 95.9335Z" fill="#97A6B7"/>
<path d="M166.719 75.2356C170.866 75.1554 174.161 70.9449 174.074 65.8302C173.987 60.7156 170.551 56.6438 166.404 56.7354C166.188 56.7401 165.975 56.763 165.764 56.79C165.334 54.2387 164.741 51.7224 163.99 49.2588C164.181 49.1429 164.37 49.023 164.554 48.8849C168.099 46.2461 172.491 39.5206 169.985 35.401C165.236 27.5896 160.328 30.4218 156.793 33.0667C156.611 33.2014 156.441 33.3503 156.272 33.5012C154.88 31.5721 153.349 29.7636 151.694 28.0921C151.809 27.8759 151.923 27.6569 152.026 27.4252C153.108 24.9932 153.204 22.225 152.489 19.8125C149.082 26.6338 145.729 33.483 142.431 40.36C152.887 50.268 156.224 68.4172 149.677 83.0847C144.139 95.4901 133.162 101.732 122.48 99.8596C122.005 101.28 121.538 102.71 121.029 104.113C119.647 107.921 118.079 111.628 116.51 115.328C117.497 115.643 118.488 115.908 119.483 116.124C119.47 116.378 119.46 116.634 119.464 116.894C119.55 121.964 122.139 126.51 129.551 126.747C133.659 126.881 134.365 121.791 134.279 116.709C134.275 116.443 134.256 116.182 134.234 115.923C136.304 115.416 138.328 114.714 140.284 113.827C140.378 114.062 140.475 114.298 140.586 114.525C142.715 118.904 150.116 121.377 153.645 118.785C157.174 116.193 155.483 109.515 153.344 105.128C153.234 104.904 153.115 104.692 152.993 104.482C154.587 102.739 156.053 100.863 157.376 98.874C157.55 99.0195 157.728 99.1623 157.916 99.291C161.54 101.789 166.1 100.205 168.097 95.7481C170.095 91.2916 168.772 85.6461 165.141 83.1582C164.953 83.0295 164.761 82.9177 164.568 82.8106C165.24 80.3178 165.749 77.7777 166.093 75.2086C166.297 75.2255 166.506 75.2396 166.719 75.2356Z" fill="#97A6B7"/>
<path d="M161.815 100.164C165.446 102.664 170.009 101.08 172.009 96.6199C174.009 92.1601 172.681 86.5146 169.044 84.0219C168.856 83.8933 168.663 83.7814 168.471 83.6743C169.143 81.1798 169.653 78.6379 169.997 76.067C170.206 76.0845 170.415 76.0987 170.627 76.0946C174.779 76.0151 178.078 71.8019 177.992 66.6838C177.906 61.5658 174.465 57.492 170.313 57.5837C170.095 57.5884 169.883 57.6113 169.671 57.6375C169.24 55.0847 168.647 52.5668 167.895 50.1017C168.082 49.9858 168.275 49.8652 168.458 49.7271C172.008 47.0876 173.143 41.3956 170.993 37.0199C168.842 32.6443 164.23 31.2518 160.687 33.8981C160.506 34.0328 160.335 34.1817 160.166 34.3326C158.773 32.4025 157.241 30.5931 155.584 28.9208C155.701 28.7046 155.815 28.485 155.918 28.2532C157.909 23.7806 156.587 18.1674 152.968 15.7226C149.35 13.2778 144.819 14.9229 142.837 19.3895C142.734 19.6206 142.646 19.857 142.561 20.0935C140.575 19.2807 138.525 18.6596 136.437 18.2375C136.449 17.9821 136.459 17.7261 136.455 17.4654C136.369 12.3831 132.975 8.36321 128.879 8.48717C124.783 8.61113 121.545 12.8197 121.63 17.8892C121.635 18.1546 121.653 18.4147 121.675 18.6734C119.617 19.2126 117.605 19.9436 115.665 20.8581C115.572 20.625 115.477 20.3933 115.365 20.1669C113.255 15.8398 108.722 14.4695 105.245 17.1016C101.768 19.7337 100.662 25.3597 102.765 29.6814C102.872 29.9031 102.99 30.1113 103.11 30.3174C101.542 32.0651 100.101 33.9406 98.8012 35.9272C98.6296 35.7851 98.4556 35.6456 98.2715 35.5196C94.7214 33.0863 90.2671 34.7011 88.3199 39.1212C86.3726 43.5413 87.6656 49.0918 91.2076 51.5326C91.391 51.6592 91.5789 51.7677 91.7667 51.8694C91.111 54.3351 90.6139 56.8465 90.279 59.3858C90.0762 59.3696 89.872 59.3561 89.6654 59.3608C85.6269 59.4498 82.4249 63.6051 82.5094 68.645C82.594 73.6848 85.935 77.7074 89.9716 77.6286C90.181 77.6226 90.3899 77.6053 90.5977 77.5767C91.0177 80.0992 91.5961 82.5881 92.3289 85.0264C92.1411 85.1396 91.9583 85.2575 91.7773 85.3929C88.3193 87.9765 87.2148 93.5816 89.3073 97.9168C91.3998 102.252 95.9079 103.687 99.3747 101.109C99.5525 100.974 99.7197 100.831 99.885 100.684C101.254 102.612 102.759 104.423 104.387 106.101C104.273 106.314 104.161 106.53 104.059 106.758C102.103 111.165 103.402 116.748 106.962 119.234C110.522 121.719 115.01 120.166 116.975 115.753C117.076 115.524 117.163 115.291 117.249 115.055C119.22 115.896 121.257 116.548 123.335 117.002C123.322 117.257 123.312 117.512 123.316 117.772C123.402 122.845 126.786 126.922 130.879 126.878C134.973 126.834 138.236 122.674 138.149 117.589C138.145 117.32 138.126 117.062 138.104 116.802C140.176 116.295 142.203 115.593 144.161 114.704C144.255 114.94 144.352 115.176 144.464 115.403C146.596 119.787 151.185 121.245 154.715 118.653C158.244 116.061 159.379 110.392 157.238 106.002C157.128 105.777 157.008 105.566 156.886 105.356C158.483 103.612 159.95 101.735 161.275 99.7445C161.449 99.892 161.627 100.035 161.815 100.164ZM116.934 96.7958C103.984 87.8182 99.272 67.5785 106.373 51.5238C113.491 35.4287 129.818 29.5332 142.876 38.4246C155.991 47.3543 160.792 67.7665 153.563 83.9485C146.356 100.091 129.938 105.814 116.934 96.7978V96.7958Z" fill="#D8DEE8"/>
<path d="M93.2611 127.488C91.0202 134.305 94.2697 140.569 97.2251 144.707C97.8387 144.649 98.2112 144.796 98.8448 144.895C104.564 145.794 107.122 144.784 112.846 144.652C114.077 144.624 117.627 143.275 119.044 142.615L121.665 141.335C121.665 141.335 125.083 124.961 117.148 121.335C109.213 117.709 110.724 101.605 110.605 92.9167C110.28 69.3429 86.9635 73.8452 84.2956 43.5885C83.5856 35.5412 84.7339 19.9386 77.8672 14.1657C70.045 7.58917 65.4255 15.2834 60.2731 9.64325C52.218 0.83004 40.2021 -1.412 34.0754 9.11642C28.0289 19.5088 38.0895 37.9618 60.2643 51.3689C75.1617 62.926 75.7152 66.7843 75.456 76.3304C75.2744 83.0195 70.9159 100.837 79.8582 106.873C88.8005 112.908 95.8244 119.696 93.2611 127.488Z" fill="url(#paint0_linear)"/>
<g style="mix-blend-mode:soft-light" opacity="0.5">
<g style="mix-blend-mode:soft-light" opacity="0.5">
<path d="M109.908 145.196L110.318 145.099C109.777 142.471 109.202 139.824 108.607 137.238C104.208 118.088 98.3051 100.072 91.064 83.6924C84.9279 69.8144 77.7482 56.9105 69.7231 45.344C63.2691 36.0417 56.2364 27.5491 48.8194 20.1022C43.6056 14.8662 38.2573 10.1989 32.9227 6.22416C31.9935 5.53228 31.0068 4.88015 30.0525 4.2489C28.7815 3.41016 27.4667 2.5411 26.2776 1.57031L26.0234 1.93074C27.2294 2.91769 28.553 3.78945 29.834 4.6356C30.7832 5.26348 31.765 5.91561 32.6848 6.59738C38.0012 10.5573 43.3339 15.2119 48.5326 20.4336C55.9315 27.8624 62.9479 36.3327 69.3869 45.6155C77.395 57.1585 84.561 70.0354 90.6845 83.8878C97.9138 100.24 103.806 118.227 108.2 137.348C108.793 139.929 109.368 142.574 109.908 145.196Z" fill="#FCFDFE"/>
</g>
<g style="mix-blend-mode:soft-light" opacity="0.5">
<path d="M78.6083 60.1187L78.9702 59.8889C69.8181 43.1733 73.6932 10.1929 73.7333 9.85939L73.3169 9.80078C73.2762 10.1336 69.3823 43.271 78.6083 60.1187Z" fill="#FCFDFE"/>
</g>
<g style="mix-blend-mode:soft-light" opacity="0.5">
<path d="M100.397 109.294L100.782 109.111C95.7973 96.9679 73.1404 89.496 72.9125 89.4219L72.791 89.8551C73.0196 89.9298 95.493 97.3418 100.397 109.294Z" fill="#FCFDFE"/>
</g>
<g style="mix-blend-mode:soft-light" opacity="0.5">
<path d="M102.675 116.446L103.083 116.34C101.183 107.919 102.774 95.3431 107.563 80.9295C107.804 80.2046 107.804 80.2046 107.786 80.1211L107.377 80.2221L107.582 80.1716L107.375 80.1366C107.364 80.1864 107.273 80.46 107.167 80.7773C102.352 95.2737 100.756 107.941 102.675 116.446Z" fill="#FCFDFE"/>
</g>
<g style="mix-blend-mode:soft-light" opacity="0.5">
<path d="M108.857 140.412L109.22 140.184C104.749 131.942 91.7403 129.825 91.6095 129.805L91.5469 130.252C91.6777 130.272 104.488 132.358 108.857 140.412Z" fill="#FCFDFE"/>
</g>
<g style="mix-blend-mode:soft-light" opacity="0.5">
<path d="M110.541 145.166C111.465 137.534 114.455 129.94 119.682 121.944L119.338 121.684C114.07 129.74 111.056 137.401 110.123 145.108L110.541 145.166Z" fill="#FCFDFE"/>
</g>
<g style="mix-blend-mode:soft-light" opacity="0.5">
<path d="M52.8339 24.8942L53.1833 24.6436C47.6158 15.6552 43.6987 4.82294 42.4121 1.26317C42.099 0.401519 41.9907 0.0983587 41.9349 0L41.5762 0.235118C41.6175 0.310571 41.7953 0.803712 42.0207 1.42687C43.3112 4.9981 47.2401 15.8647 52.8339 24.8942Z" fill="#FCFDFE"/>
</g>
<g style="mix-blend-mode:soft-light" opacity="0.5">
<path d="M63.8984 38.0673L64.1639 37.717C56.8658 31.317 38.139 33.4384 37.3457 33.5314L37.3914 33.9807C37.5836 33.9585 56.7368 31.7872 63.8984 38.0673Z" fill="#FCFDFE"/>
</g>
</g>
<path d="M94.6283 141.024L77.1538 150.191C77.1538 150.191 69.4945 142.271 70.6922 133.218C73.1372 114.746 57.9312 113.736 51.6243 112.283C42.1072 110.098 35.6756 104.195 41.7553 94.9889C48.6351 84.573 33.7409 74.2662 17.9 73.1175C2.39902 71.9938 -4.6887 41.6967 29.0688 40.8148C49.23 40.288 55.1669 60.4441 60.4144 69.8555C65.662 79.267 79.6151 72.9545 80.4059 87.3991C81.0815 99.7377 76.924 111.174 85.8776 115.204C94.8312 119.233 99.0087 126.827 94.6283 141.024Z" fill="url(#paint1_linear)"/>
<g style="mix-blend-mode:soft-light" opacity="0.5">
<g style="mix-blend-mode:soft-light" opacity="0.5">
<path d="M87.8558 146.737L87.4601 146.856C87.3919 146.593 80.4582 120.245 66.2652 96.3563C53.1892 74.3482 31.0977 49.9842 0.105815 58.8938L0 58.4673C13.796 54.5013 27.0054 56.6847 39.258 64.9563C49.0506 71.5632 58.2539 82.0518 66.6152 96.1259C80.8395 120.069 87.787 146.473 87.8558 146.737Z" fill="#BEB8F2"/>
</g>
<g style="mix-blend-mode:soft-light" opacity="0.5">
<path d="M44.2437 68.6529L43.8555 68.7958C39.4319 54.8901 26.3522 38.7034 26.2207 38.541L26.53 38.25C26.6621 38.413 39.7944 54.6658 44.2437 68.6529Z" fill="#BEB8F2"/>
</g>
<g style="mix-blend-mode:soft-light" opacity="0.5">
<path d="M35.937 63.3818C19.7467 61.571 9.95287 71.6514 9.8577 71.7538L9.57031 71.4378C9.66861 71.3341 19.5883 61.1095 35.9796 62.9426L35.937 63.3818Z" fill="#BEB8F2"/>
</g>
<g style="mix-blend-mode:soft-light" opacity="0.5">
<path d="M74.7527 112.517C62.1482 95.9675 36.4139 103.786 36.1691 103.885L36 103.481C36.2317 103.36 62.3542 95.5383 75.0701 112.239L74.7527 112.517Z" fill="#BEB8F2"/>
</g>
<g style="mix-blend-mode:soft-light" opacity="0.5">
<path d="M71.273 104.53L70.8748 104.639C67.7536 91.4047 76.1205 76.7829 76.2057 76.6367L76.5538 76.8705C76.4699 77.0153 68.1944 91.4808 71.273 104.53Z" fill="#BEB8F2"/>
</g>
<g style="mix-blend-mode:soft-light" opacity="0.5">
<path d="M86.2849 142.736C82.453 135.729 70.1748 135.033 70.0508 135.027L70.0702 134.586C70.5836 134.612 82.6935 135.3 86.6387 142.512L86.2849 142.736Z" fill="#BEB8F2"/>
</g>
<g style="mix-blend-mode:soft-light" opacity="0.5">
<path d="M84.7204 136.472L84.3266 136.596C82.6499 130.428 87.7753 119.889 89.4608 116.425C89.6994 115.935 89.9048 115.513 89.9273 115.43L90.3224 115.549C90.2917 115.666 90.1558 115.948 89.8215 116.627C88.1585 120.054 83.0906 130.475 84.7204 136.472Z" fill="#BEB8F2"/>
</g>
</g>
<path d="M68.6878 170.69L68.9226 170.763C73.561 172.208 78.8667 172.904 84.9113 172.342L88.4245 171.745C89.0644 168.61 89.1521 165.505 85.4379 164.813C79.6707 163.74 78.3627 153.221 79.4722 149.297C80.8497 144.44 83.8331 133.061 74.9416 131.249C67.5389 129.742 62.4761 130.397 60.8757 120.581C59.2753 110.765 53.5757 105.25 45.314 106.91C36.619 108.661 28.033 97.0341 21.3222 102.159C9.62743 111.088 23.3884 131.397 39.3051 135.744C55.2218 140.09 47.1523 147.113 47.6432 155.252C48.3125 166.363 61.9188 162.215 66.0662 166.079C67.4706 167.387 68.2646 169.02 68.6878 170.69Z" fill="url(#paint2_linear)"/>
<g style="mix-blend-mode:soft-light" opacity="0.5">
<g style="mix-blend-mode:soft-light" opacity="0.5">
<path d="M77.5586 172.358L77.9543 172.217C68.3245 141.114 44.7121 115.192 16.3318 104.566L16.1953 104.99C44.4554 115.57 67.9689 141.385 77.5586 172.358Z" fill="#FCFDFE"/>
</g>
<g style="mix-blend-mode:soft-light" opacity="0.5">
<path d="M70.9591 155.883L71.3723 155.829C69.9065 143.041 78.9365 131.723 79.0279 131.611L78.7149 131.316C78.6209 131.43 69.4683 142.895 70.9591 155.883Z" fill="#FCFDFE"/>
</g>
<g style="mix-blend-mode:soft-light" opacity="0.5">
<path d="M75.6426 166.69L75.9826 166.43C68.9531 155.781 46.8766 157.073 46.6543 157.088L46.6793 157.535C46.8991 157.52 68.7471 156.242 75.6426 166.69Z" fill="#FCFDFE"/>
</g>
<g style="mix-blend-mode:soft-light" opacity="0.5">
<path d="M53.0938 130.136L53.4532 129.908C48.5694 120.979 52.6248 105.701 52.6668 105.548L52.2667 105.422C52.2241 105.577 48.1192 121.041 53.0938 130.136Z" fill="#FCFDFE"/>
</g>
<g style="mix-blend-mode:soft-light" opacity="0.5">
<path d="M38.1765 116.875L38.3499 116.467C28.3676 111.563 14.3856 116.861 14.2441 116.915L14.385 117.338C14.5246 117.284 28.3501 112.047 38.1765 116.875Z" fill="#FCFDFE"/>
</g>
</g>
<path d="M30.543 112.771V50.5307L33.7425 47.4492L51.2952 51.7514C58.5582 52.1792 64.0268 53.9746 67.7454 57.1234C71.4412 60.2552 73.2863 64.5982 73.2809 70.1526C73.2809 73.3584 72.6279 76.0714 71.3218 78.2914C70.0128 80.5182 68.0791 82.1303 65.5207 83.1278C68.4097 84.0786 70.6199 85.7424 72.1514 88.1192C73.6816 90.4892 74.4463 93.3457 74.4455 96.6885C74.4455 102.752 76.2763 103.624 72.9948 106.798C68.5493 111.095 60.791 112.917 53.9425 112.929L30.543 112.771ZM44.5481 77.8064L51.7241 78.0758C54.7053 78.158 56.8253 77.6314 58.0843 76.496C59.3432 75.3606 59.9722 73.6445 59.9714 71.3477C59.9714 68.701 59.2908 66.7626 57.9296 65.5324C56.5684 64.3022 54.3561 63.6097 51.2927 63.4547L44.55 63.1226L44.5481 77.8064ZM44.5481 87.8295V103.04L53.5536 103.188C56.0101 103.228 57.8929 102.635 59.2019 101.407C60.5109 100.18 61.1642 98.4361 61.1617 96.1765C61.1617 90.9615 58.845 88.2721 54.1754 88.1084L44.5481 87.8295Z" fill="url(#paint3_linear)"/>
<path d="M102.532 93.8251L95.6945 93.6526L98.894 112.073L95.6945 113.209L82.8477 113.123V53.6098L86.0471 51.0977C92.1794 51.4588 114.558 57.0504 117.959 60.3818C121.34 63.6941 123.027 68.1988 123.022 73.896C123.022 78.023 122.312 81.42 120.893 84.0869C119.47 86.7614 117.234 88.9013 114.183 90.5065L127.943 112.267L124.743 113.402L111.653 113.314L102.532 93.8251ZM95.6945 82.3804L103.676 82.6587C106.051 82.7418 107.834 82.08 109.025 80.6733C110.216 79.2666 110.811 77.271 110.809 74.6862C110.809 72.0979 110.209 70.0384 109.008 68.5078C107.807 66.9772 106.03 66.1519 103.676 66.032L95.6945 65.6379V82.3804Z" fill="url(#paint4_linear)"/>
<path d="M60.5817 170.631L41.843 171.543L27.4741 187.691L23.4043 184.492L44.8002 119.846L57.6564 119.766L61.7225 122.964L67.8967 185.328L63.8338 182.13L60.5817 170.631ZM45.1577 159.586L57.3509 159.11L51.2656 137.476L45.1577 159.586Z" fill="url(#paint5_linear)"/>
<path d="M125.321 178.537L117.278 182.444L113.212 179.246L94.826 142.493L86.0465 184.268L81.9805 181.069V119.613L94.826 119.533L98.8958 122.733L113.18 156.647V119.416L125.326 119.34L129.396 122.539L125.321 178.537Z" fill="url(#paint6_linear)"/>
<path d="M132.895 178.093V119.29L148.561 119.192C152.783 119.165 156.554 120.291 159.875 122.569C163.179 124.831 165.748 128.03 167.583 132.165C169.415 136.288 170.341 140.924 170.361 146.073V148.689C170.361 153.895 169.467 158.603 167.679 162.811C165.884 167.037 163.342 170.413 160.053 172.938C156.741 175.48 153.02 176.887 148.891 177.158L136.961 181.291L132.895 178.093ZM144.661 130.046V166.614L148.693 166.418C151.998 166.257 154.528 164.716 156.282 161.796C158.035 158.888 158.91 154.647 158.906 149.072V146.587C158.906 141.038 158.031 136.873 156.282 134.092C154.525 131.301 151.951 129.932 148.561 129.982L144.661 130.046Z" fill="url(#paint7_linear)"/>
<path d="M33.7422 111.635V47.4492L54.4944 48.6713C61.7575 49.0991 67.226 50.8945 70.9446 54.0433C74.64 57.1742 76.4852 61.517 76.4802 67.0718C76.4802 70.2776 75.8271 72.9906 74.521 75.2106C73.2116 77.4374 71.2779 79.0495 68.72 80.047C71.6089 80.9974 73.8191 82.6612 75.3506 85.0384C76.88 87.4084 77.6445 90.2649 77.6441 93.6077C77.6441 99.6709 75.9417 104.208 72.5368 107.22C69.1069 110.252 63.9896 111.781 57.1411 111.791L33.7422 111.635ZM47.7473 74.7289L54.9233 74.9984C57.9045 75.0806 60.0244 74.554 61.2829 73.4186C62.5414 72.2832 63.1704 70.5658 63.17 68.2662C63.17 65.6195 62.4896 63.6811 61.1288 62.4509C59.7681 61.2208 57.5558 60.5282 54.4919 60.3733L47.7448 60.0411L47.7473 74.7289ZM47.7473 84.7521V99.9627L56.7529 100.11C59.2094 100.151 61.0919 99.5571 62.4005 98.3296C63.7091 97.1022 64.3626 95.3587 64.3609 93.0991C64.3609 87.8841 62.0442 85.1947 57.374 85.0303L47.7473 84.7521Z" fill="url(#paint8_linear)"/>
<path d="M105.731 91.3129L98.8956 91.1404V112.641L86.0488 112.555V51.0977L106.877 52.3244C113.013 52.6855 117.76 54.5382 121.16 57.8696C124.541 61.1819 126.229 65.6866 126.223 71.3838C126.223 75.5108 125.513 78.9078 124.094 81.5747C122.671 84.2492 120.435 86.3891 117.384 87.9943L127.945 112.226V112.837L114.854 112.749L105.731 91.3129ZM98.8956 79.8682L106.877 80.1465C109.252 80.2296 111.035 79.5678 112.226 78.1611C113.416 76.7544 114.011 74.7588 114.01 72.174C114.01 69.5857 113.41 67.5262 112.208 65.9956C111.007 64.465 109.23 63.6395 106.877 63.5191L98.8956 63.1264V79.8682Z" fill="url(#paint9_linear)"/>
<path d="M64.6482 173.833L45.9096 174.745L42.5773 186.809L27.4746 187.692L48.8699 123.046L61.7255 122.965L82.1121 184.499L67.899 185.329L64.6482 173.833ZM49.2243 162.785L61.418 162.313L55.3321 140.678L49.2243 162.785Z" fill="url(#paint10_linear)"/>
<path d="M129.388 181.732L117.278 182.44L98.8956 145.689V183.514L86.0488 184.265V122.808L98.8956 122.727L117.241 159.841V122.611L129.388 122.535V181.732Z" fill="url(#paint11_linear)"/>
<path d="M-24 58L136.959 122.489L152.626 122.391C156.848 122.364 160.619 123.49 163.941 125.769C167.244 128.031 169.813 131.229 171.648 135.365C173.48 139.488 174.406 144.123 174.426 149.272V151.888C174.426 157.095 173.532 161.802 171.743 166.01C169.948 170.237 167.407 173.613 164.118 176.138C160.806 178.68 157.085 180.087 152.955 180.357L-24 58ZM148.725 133.246V169.814L152.758 169.617C156.063 169.456 158.592 167.915 160.346 164.995C162.099 162.088 162.974 157.846 162.971 152.272V149.787C162.971 144.237 162.096 140.072 160.346 137.291C158.589 134.501 156.016 133.131 152.626 133.182L148.725 133.246Z" fill="url(#paint12_linear)"/>
<path d="M147.75 118.724C147.75 118.724 147.572 119.584 147.79 120.207C148.008 120.829 151.583 122.73 152.092 122.926C152.601 123.123 150.859 119.806 149.716 119.096C148.877 118.571 147.89 118.283 147.75 118.724Z" fill="url(#paint13_linear)"/>
<path d="M147.588 116.016L148.047 118.925C148.047 118.925 148.782 119.715 149.424 119.315L149.335 115.977L147.588 116.016Z" fill="url(#paint14_linear)"/>
<path d="M144.753 72.4844C146.634 80.8473 147.988 89.3374 148.806 97.8966C149.424 104.361 149.736 110.855 149.739 117.354L147.401 117.164C146.002 114.806 144.227 111.236 143.23 106.6C141.945 100.626 143.327 99.2703 142.39 94.0431C140.646 84.3076 134.449 81.1871 135.894 77.056C136.485 75.3678 138.413 73.3406 144.753 72.4844Z" fill="url(#paint15_linear)"/>
<path style="mix-blend-mode:multiply" opacity="0.3" d="M146.544 98.6814C145.441 95.8472 146.982 93.9656 145.898 89.6014C145.117 86.4553 143.862 85.6004 142.378 82.6422C141.349 80.5901 140.285 77.6663 139.893 73.6289C137.312 74.6138 136.296 75.9127 135.896 77.056C134.451 81.187 140.648 84.3076 142.392 94.0431C143.331 99.2702 141.947 100.626 143.232 106.6C144.229 111.234 146.004 114.806 147.403 117.164L149.741 117.354C149.741 112.558 149.568 107.401 149.154 101.933C147.697 100.866 146.945 99.7155 146.544 98.6814Z" fill="url(#paint16_linear)"/>
<path d="M157.119 120.139C157.119 120.139 157.398 119.008 157.902 119.275C158.405 119.543 160.218 120.458 160.798 121.491C161.378 122.524 161.345 122.525 160.37 122.483C159.395 122.442 157.309 120.972 157.119 120.139Z" fill="url(#paint17_linear)"/>
<path d="M156.489 117.871L157.712 119.59C157.712 119.59 158.061 120.22 157.458 120.238L155.447 119.103L156.489 117.871Z" fill="url(#paint18_linear)"/>
<path d="M128.354 82.1143C129.669 88.5626 132.048 94.7053 135.376 100.251C142.183 111.561 151.164 117.296 155.734 119.77L157.19 117.778C155.683 111.406 153.088 107.778 150.924 105.623C148.469 103.177 147.135 103.189 144.919 100.402C142.007 96.7401 141.073 92.6467 140.382 89.4743C138.739 81.929 140.223 78.4339 138.383 77.195C137.162 76.3704 134.567 76.5995 128.354 82.1143Z" fill="url(#paint19_linear)"/>
<path d="M134.989 45.4336C136.391 45.6829 138.514 46.2387 140.713 47.6568C145.794 50.9356 145.89 55.3429 150.923 57.4872C151.887 57.8975 154.735 59.1102 156.902 57.622C157.773 57.0238 158.268 56.1722 158.544 55.5558L160.088 55.9142C160.349 57.9353 160.439 61.2754 158.6 63.8873C154.978 69.0329 145.827 68.5587 140.349 64.1366C135.372 60.1187 133.239 52.696 134.989 45.4336Z" fill="url(#paint20_linear)"/>
<path style="mix-blend-mode:multiply" opacity="0.3" d="M154.98 63.6684C152.804 64.0113 151.793 61.6399 146.16 59.2948C142.101 57.6052 141.071 58.1899 139.448 56.7947C137.836 55.4089 136.168 52.5228 136.489 45.7704C135.933 45.6168 135.425 45.509 134.987 45.4336C133.237 52.696 135.37 60.12 140.347 64.1352C145.826 68.5573 154.976 69.0316 158.598 63.886C160.288 61.487 160.348 58.4749 160.144 56.435C158.355 61.9592 156.462 63.4346 154.98 63.6684Z" fill="url(#paint21_linear)"/>
<path d="M161.147 49.8869L158.886 49.2981C158.748 49.2619 158.602 49.2845 158.479 49.361C158.356 49.4375 158.265 49.5622 158.224 49.709L156.659 55.4354C156.638 55.5139 156.632 55.5963 156.641 55.6775C156.651 55.7587 156.675 55.8369 156.714 55.9073C156.753 55.9776 156.805 56.0386 156.867 56.0865C156.928 56.1343 156.999 56.1679 157.073 56.1852L159.278 56.6986C159.413 56.7303 159.554 56.7064 159.674 56.6315C159.793 56.5567 159.882 56.4364 159.924 56.2944L161.543 50.6455C161.566 50.5677 161.574 50.4857 161.566 50.4044C161.558 50.3232 161.535 50.2446 161.498 50.1735C161.461 50.1023 161.41 50.0401 161.35 49.9908C161.29 49.9415 161.22 49.9062 161.147 49.8869V49.8869Z" fill="url(#paint22_linear)"/>
<path d="M159.925 56.29C159.925 56.29 160.824 54.6287 160.968 54.0217C161.112 53.4147 159.806 51.8281 159.806 51.8281C159.806 51.8281 159.463 53.0482 159.702 54.0607C159.94 55.0733 159.925 56.29 159.925 56.29Z" fill="url(#paint23_linear)"/>
<path d="M146.996 76.5555C144.668 64.1946 143.636 64.0249 142.039 55.849C141.313 52.1389 141.132 50.1543 139.436 48.175C137.812 46.2799 135.788 45.5415 132.275 44.6718C128.832 43.8155 124.015 42.516 118.013 42.3496C115.669 42.2822 102.251 43.994 102.588 49.0588C102.868 53.2532 117.811 55.8133 122.937 56.5698C123.657 60.2212 124.618 66.5404 123.291 73.9833C121.997 81.2417 119.346 84.9881 121.124 87.0529C122.474 88.6172 125.337 88.0129 127.181 87.6235C132.8 86.4378 133.362 82.7683 137.699 82.1875C142.468 81.5489 145.361 85.5115 147.121 83.9721C148.083 83.1253 147.899 81.3501 146.996 76.5555Z" fill="url(#paint24_linear)"/>
<path style="mix-blend-mode:multiply" opacity="0.5" d="M137.354 72.6748C136.046 68.1799 132.533 68.8792 130.288 64.4436C127.866 59.6604 130.972 56.9172 128.445 52.0424C127.012 49.2802 124.138 46.5437 120.836 46.1038C117.789 45.6996 116.4 47.5145 110.755 49.4493C108.554 50.2033 106.301 50.7722 104.018 51.1511C107.921 54.1059 118.731 55.9403 122.94 56.5608C123.659 60.2122 124.62 66.5314 123.293 73.9743C122 81.2327 119.349 84.979 121.126 87.0439C122.476 88.6082 125.339 88.0039 127.183 87.6145C132.802 86.4288 133.365 82.7592 137.702 82.1785C138.115 82.1236 138.531 82.1011 138.947 82.1111C138.581 81.4119 138.282 80.6745 138.054 79.9102C137.099 76.6967 138.165 75.4578 137.354 72.6748Z" fill="url(#paint25_linear)"/>
<path d="M121.563 54.3672C121.563 54.3672 124.004 55.3023 124.689 58.4046C125.374 61.507 125.099 60.2687 124.229 60.0262C123.36 59.7837 120.196 54.9183 121.563 54.3672Z" fill="url(#paint26_linear)"/>
<path d="M104.916 47.4811C104.916 47.4811 118.232 46.5103 121.534 53.3422L121.209 56.4594C121.209 56.4594 95.2166 51.7389 104.916 47.4811Z" fill="url(#paint27_linear)"/>
<path d="M132.545 39.7852C132.545 39.7852 131.716 43.5208 131.292 43.6158C130.868 43.7107 127.465 43.5221 127.465 43.5221C127.465 43.5221 133.575 46.7794 136.993 46.2479L134.989 45.1417C134.989 45.1417 133.829 43.5093 133.799 41.5334L132.545 39.7852Z" fill="url(#paint28_linear)"/>
<path d="M136.367 40.8964C136.999 40.4363 137.369 39.3625 137.087 38.4941C136.844 37.7463 136.193 37.4128 135.804 37.2141C134.677 36.6354 133.024 36.6172 132.139 37.5913C131.614 38.1687 131.819 39.8448 131.84 40.1406C131.865 40.4774 132.046 40.6532 132.172 40.949C132.348 41.3532 132.62 41.9979 133.058 43.0664C133.217 42.797 133.398 42.5428 133.598 42.3065C133.857 41.9999 134.152 41.7303 134.475 41.5041C135.345 40.9214 135.768 41.3337 136.367 40.8964Z" fill="url(#paint29_linear)"/>
<path d="M132.283 42.0131C132.283 42.0131 132.622 43.6616 134.194 44.1204C135.602 44.5307 136.86 41.2822 136.206 40.2528C135.987 39.9099 135.43 39.5959 134.906 39.5636C134.597 39.5447 134.461 39.6357 133.957 39.5946C133.491 39.5562 133.386 39.4598 133.22 39.5272C133.012 39.6141 132.781 39.9314 132.74 40.9992C132.568 40.6166 132.288 40.3929 132.029 40.4219C131.938 40.4378 131.853 40.481 131.784 40.5465C131.471 40.8584 131.639 41.462 132.283 42.0131Z" fill="url(#paint30_linear)"/>
<path d="M133.221 39.3077C133.27 39.3858 132.982 39.5771 132.845 39.9497C132.583 40.6712 132.992 41.8037 133.672 42.1378C134.073 42.3345 134.273 42.1068 134.987 42.282C135.333 42.3684 135.665 42.514 135.969 42.7131C135.93 43.5964 135.471 44.3226 134.854 44.5099C134.19 44.712 133.58 44.2168 133.326 44.01C133.155 43.8712 132.609 43.4286 132.48 42.703C132.347 41.9472 132.793 41.6871 132.549 41.1179C132.423 40.8309 132.199 40.6463 132.083 40.1343C132.059 40.0249 132.042 39.9136 132.033 39.8015C132.52 39.5273 133.149 39.1951 133.221 39.3077Z" fill="url(#paint31_linear)"/>
<path d="M135.375 42.8281C135.375 42.8281 135.024 42.8854 134.52 42.6651C134.495 42.6543 134.465 42.6523 134.457 42.6651C134.428 42.7129 134.683 43.0693 135.016 43.0895C135.253 43.1037 135.491 42.946 135.48 42.8793C135.475 42.8517 135.425 42.8362 135.375 42.8281Z" fill="url(#paint32_linear)"/>
</g>
<defs>
<linearGradient id="paint0_linear" x1="44.699" y1="-1.10916" x2="144.182" y2="159.385" gradientUnits="userSpaceOnUse">
<stop stop-color="#E38DDD"/>
<stop offset="1" stop-color="#9571F6"/>
</linearGradient>
<linearGradient id="paint1_linear" x1="13.7663" y1="48.4057" x2="102.977" y2="130.06" gradientUnits="userSpaceOnUse">
<stop stop-color="#FFC444"/>
<stop offset="1" stop-color="#F36F56"/>
</linearGradient>
<linearGradient id="paint2_linear" x1="27.5323" y1="85.7428" x2="123.624" y2="242.431" gradientUnits="userSpaceOnUse">
<stop stop-color="#FF9085"/>
<stop offset="1" stop-color="#FB6FBB"/>
</linearGradient>
<linearGradient id="paint3_linear" x1="73.7355" y1="43.4152" x2="-58.1257" y2="227.732" gradientUnits="userSpaceOnUse">
<stop stop-color="#26264F"/>
<stop offset="1" stop-color="#444B8C"/>
</linearGradient>
<linearGradient id="paint4_linear" x1="113.873" y1="62.4904" x2="91.185" y2="109.766" gradientUnits="userSpaceOnUse">
<stop stop-color="#AB316D"/>
<stop offset="1" stop-color="#792D3D"/>
</linearGradient>
<linearGradient id="paint5_linear" x1="78040.3" y1="57785.1" x2="-71278.5" y2="204886" gradientUnits="userSpaceOnUse">
<stop stop-color="#26264F"/>
<stop offset="1" stop-color="#444B8C"/>
</linearGradient>
<linearGradient id="paint6_linear" x1="104029" y1="82779.3" x2="-28392.9" y2="228224" gradientUnits="userSpaceOnUse">
<stop stop-color="#AB316D"/>
<stop offset="1" stop-color="#792D3D"/>
</linearGradient>
<linearGradient id="paint7_linear" x1="98567.7" y1="101005" x2="-22465.4" y2="210830" gradientUnits="userSpaceOnUse">
<stop stop-color="#AB316D"/>
<stop offset="1" stop-color="#792D3D"/>
</linearGradient>
<linearGradient id="paint8_linear" x1="65.337" y1="53.7556" x2="49.7239" y2="81.0907" gradientUnits="userSpaceOnUse">
<stop stop-color="#AA80F9"/>
<stop offset="1" stop-color="#6165D7"/>
</linearGradient>
<linearGradient id="paint9_linear" x1="72288.9" y1="62587.7" x2="40679" y2="106796" gradientUnits="userSpaceOnUse">
<stop stop-color="#FFC444"/>
<stop offset="1" stop-color="#F36F56"/>
</linearGradient>
<linearGradient id="paint10_linear" x1="58579.7" y1="139355" x2="-21580.9" y2="214422" gradientUnits="userSpaceOnUse">
<stop stop-color="#E38DDD"/>
<stop offset="1" stop-color="#9571F6"/>
</linearGradient>
<linearGradient id="paint11_linear" x1="97869.7" y1="81729" x2="-28002.4" y2="214641" gradientUnits="userSpaceOnUse">
<stop stop-color="#FF9085"/>
<stop offset="1" stop-color="#FB6FBB"/>
</linearGradient>
<linearGradient id="paint12_linear" x1="93339" y1="110759" x2="23462.9" y2="222350" gradientUnits="userSpaceOnUse">
<stop stop-color="#FFC444"/>
<stop offset="1" stop-color="#F36F56"/>
</linearGradient>
<linearGradient id="paint13_linear" x1="147.714" y1="120.793" x2="152.122" y2="120.675" gradientUnits="userSpaceOnUse">
<stop stop-color="#311944"/>
<stop offset="1" stop-color="#6B3976"/>
</linearGradient>
<linearGradient id="paint14_linear" x1="4592.22" y1="6321.34" x2="4340.21" y2="5745.15" gradientUnits="userSpaceOnUse">
<stop stop-color="#FFC444"/>
<stop offset="1" stop-color="#F36F56"/>
</linearGradient>
<linearGradient id="paint15_linear" x1="30799.7" y1="69005.9" x2="36413.8" y2="66696.7" gradientUnits="userSpaceOnUse">
<stop stop-color="#311944"/>
<stop offset="1" stop-color="#6B3976"/>
</linearGradient>
<linearGradient id="paint16_linear" x1="30015.2" y1="63374.5" x2="32953.2" y2="63374.5" gradientUnits="userSpaceOnUse">
<stop stop-color="#311944"/>
<stop offset="1" stop-color="#6B3976"/>
</linearGradient>
<linearGradient id="paint17_linear" x1="10103.9" y1="6090.88" x2="10363.4" y2="6090.88" gradientUnits="userSpaceOnUse">
<stop stop-color="#311944"/>
<stop offset="1" stop-color="#6B3976"/>
</linearGradient>
<linearGradient id="paint18_linear" x1="6044.66" y1="4227.18" x2="5935.92" y2="3785.56" gradientUnits="userSpaceOnUse">
<stop stop-color="#FFC444"/>
<stop offset="1" stop-color="#F36F56"/>
</linearGradient>
<linearGradient id="paint19_linear" x1="59867.9" y1="52465.1" x2="73954.8" y2="69255.4" gradientUnits="userSpaceOnUse">
<stop stop-color="#311944"/>
<stop offset="1" stop-color="#6B3976"/>
</linearGradient>
<linearGradient id="paint20_linear" x1="60990.3" y1="15956.8" x2="55778.3" y2="26773" gradientUnits="userSpaceOnUse">
<stop stop-color="#FF9085"/>
<stop offset="1" stop-color="#FB6FBB"/>
</linearGradient>
<linearGradient id="paint21_linear" x1="55311.1" y1="17589.9" x2="65892.3" y2="17306.6" gradientUnits="userSpaceOnUse">
<stop stop-color="#FF9085"/>
<stop offset="1" stop-color="#FB6FBB"/>
</linearGradient>
<linearGradient id="paint22_linear" x1="12863" y1="6892.89" x2="12369" y2="5366.73" gradientUnits="userSpaceOnUse">
<stop stop-color="#26264F"/>
<stop offset="1" stop-color="#444B8C"/>
</linearGradient>
<linearGradient id="paint23_linear" x1="3685.44" y1="3687.87" x2="3714.71" y2="3687.08" gradientUnits="userSpaceOnUse">
<stop stop-color="#FFC444"/>
<stop offset="1" stop-color="#F36F56"/>
</linearGradient>
<linearGradient id="paint24_linear" x1="73980.9" y1="42913.1" x2="105922" y2="42058" gradientUnits="userSpaceOnUse">
<stop stop-color="#FF9085"/>
<stop offset="1" stop-color="#FB6FBB"/>
</linearGradient>
<linearGradient id="paint25_linear" x1="58193.7" y1="40919.4" x2="77201.9" y2="40410.5" gradientUnits="userSpaceOnUse">
<stop stop-color="#FF9085"/>
<stop offset="1" stop-color="#FB6FBB"/>
</linearGradient>
<linearGradient id="paint26_linear" x1="7667.53" y1="4992.26" x2="8480.47" y2="6513.59" gradientUnits="userSpaceOnUse">
<stop stop-color="#FFC444"/>
<stop offset="1" stop-color="#F36F56"/>
</linearGradient>
<linearGradient id="paint27_linear" x1="30552.8" y1="6210.5" x2="36154.7" y2="6060.53" gradientUnits="userSpaceOnUse">
<stop stop-color="#FF9085"/>
<stop offset="1" stop-color="#FB6FBB"/>
</linearGradient>
<linearGradient id="paint28_linear" x1="20399.4" y1="4549.13" x2="20881.2" y2="6503" gradientUnits="userSpaceOnUse">
<stop stop-color="#FFC444"/>
<stop offset="1" stop-color="#F36F56"/>
</linearGradient>
<linearGradient id="paint29_linear" x1="5450.59" y1="3134.54" x2="6114.86" y2="2438.8" gradientUnits="userSpaceOnUse">
<stop stop-color="#311944"/>
<stop offset="1" stop-color="#6B3976"/>
</linearGradient>
<linearGradient id="paint30_linear" x1="8302.55" y1="3184.84" x2="8008.94" y2="4147.97" gradientUnits="userSpaceOnUse">
<stop stop-color="#FFC444"/>
<stop offset="1" stop-color="#F36F56"/>
</linearGradient>
<linearGradient id="paint31_linear" x1="3973.52" y1="2463.58" x2="4548.59" y2="1923.99" gradientUnits="userSpaceOnUse">
<stop stop-color="#311944"/>
<stop offset="1" stop-color="#6B3976"/>
</linearGradient>
<linearGradient id="paint32_linear" x1="135.402" y1="42.2566" x2="134.582" y2="43.8892" gradientUnits="userSpaceOnUse">
<stop stop-color="#FFC444"/>
<stop offset="1" stop-color="#F36F56"/>
</linearGradient>
<clipPath id="clip0">
<rect width="180" height="190" fill="white"/>
</clipPath>
</defs>
</svg>
