<svg width="2282" height="2281" viewBox="0 0 2282 2281" fill="none" xmlns="http://www.w3.org/2000/svg">
<g clip-path="url(#clip0)">
<path d="M2097.32 0H1681.79C1581.28 0 1498.78 82.5362 1498.78 183.08V720.316H897.231C799.723 720.316 720.217 799.851 720.217 898.894V1500.66H178.676C79.6682 1500.66 0.162109 1580.19 0.162109 1679.24V2099.42C0.162109 2198.46 79.6682 2278 178.676 2281H2098.82C2199.33 2281 2281.84 2198.46 2281.84 2097.92V183.08C2280.34 82.5362 2197.83 0 2097.32 0Z" fill="url(#paint0_linear)"/>
<path d="M2097.32 0H1681.79C1581.28 0 1498.78 82.5362 1498.78 183.08V720.316H897.231C799.723 720.316 720.217 799.851 720.217 898.894V1500.66H178.676C79.6682 1500.66 0.162109 1580.19 0.162109 1679.24V2099.42C0.162109 2198.46 79.6682 2278 178.676 2281H2098.82C2199.33 2281 2281.84 2198.46 2281.84 2097.92V183.08C2280.34 82.5362 2197.83 0 2097.32 0Z" fill="url(#paint1_linear)"/>
<path d="M2097.32 0H1684.79C1584.28 0 1501.78 82.5362 1501.78 183.08V2281H2097.32C2197.83 2281 2280.34 2198.46 2280.34 2097.92V183.08C2280.34 82.5362 2197.83 0 2097.32 0Z" fill="#F57C00"/>
<path d="M720.217 900.395V1500.66H180.176C81.1683 1500.66 0.162109 1581.69 0.162109 1680.74V2100.92C0.162109 2199.96 81.1683 2281 180.176 2281H1500.28V720.316H900.231C801.223 720.316 720.217 801.351 720.217 900.395Z" fill="#FFC107"/>
<path d="M1500.28 720.316V2281H2095.82C2196.33 2281 2278.84 2198.46 2278.84 2097.92V1500.66L1500.28 720.316Z" fill="url(#paint2_linear)"/>
<path opacity="0.2" d="M900.233 735.322H1500.28V720.316H900.233C801.225 720.316 720.219 801.351 720.219 900.395V915.401C720.219 816.358 801.225 735.322 900.233 735.322Z" fill="white"/>
<path opacity="0.2" d="M180.176 1515.66H720.217V1500.66H180.176C81.1683 1500.66 0.162109 1581.69 0.162109 1680.74V1695.74C0.162109 1596.7 81.1683 1515.66 180.176 1515.66Z" fill="white"/>
<path opacity="0.2" d="M2097.32 0H1684.79C1584.28 0 1501.78 82.5362 1501.78 183.08V198.087C1501.78 97.5428 1584.28 15.0066 1684.79 15.0066H2097.32C2197.83 15.0066 2280.34 97.5428 2280.34 198.087V183.08C2280.34 82.5362 2197.83 0 2097.32 0Z" fill="white"/>
<path opacity="0.2" d="M2097.32 2265.99H180.176C81.1683 2265.99 0.162109 2184.96 0.162109 2085.91V2100.92C0.162109 2199.96 81.1683 2281 180.176 2281H2095.82C2196.33 2281 2278.84 2198.46 2278.84 2097.92V2082.91C2280.34 2183.46 2197.83 2265.99 2097.32 2265.99Z" fill="#BF360C"/>
<path d="M2098.99 0H1686.46C1585.95 0 1503.44 82.5362 1503.44 183.08V720.316H903.395C804.388 720.316 723.381 801.351 723.381 900.395V1500.66H181.84C82.8324 1500.66 1.82617 1581.69 1.82617 1680.74V2100.92C1.82617 2199.96 82.8324 2281 181.84 2281H2098.99C2199.49 2281 2282 2198.46 2282 2097.92V183.08C2282 82.5362 2199.49 0 2098.99 0Z" fill="url(#paint3_linear)"/>
</g>
<defs>
<linearGradient id="paint0_linear" x1="0.162109" y1="1140.5" x2="2281.84" y2="1140.5" gradientUnits="userSpaceOnUse">
<stop stop-color="white" stop-opacity="0.1"/>
<stop offset="1" stop-color="white" stop-opacity="0"/>
</linearGradient>
<linearGradient id="paint1_linear" x1="0.162109" y1="1140.5" x2="2281.84" y2="1140.5" gradientUnits="userSpaceOnUse">
<stop stop-color="white" stop-opacity="0.1"/>
<stop offset="1" stop-color="white" stop-opacity="0"/>
</linearGradient>
<linearGradient id="paint2_linear" x1="1114" y1="1114.24" x2="2226.14" y2="2225.97" gradientUnits="userSpaceOnUse">
<stop stop-color="#BF360C" stop-opacity="0.2"/>
<stop offset="1" stop-color="#BF360C" stop-opacity="0.02"/>
</linearGradient>
<linearGradient id="paint3_linear" x1="766.42" y1="765.801" x2="2241.96" y2="2240.8" gradientUnits="userSpaceOnUse">
<stop stop-color="white" stop-opacity="0.1"/>
<stop offset="1" stop-color="white" stop-opacity="0"/>
</linearGradient>
<clipPath id="clip0">
<rect width="2282" height="2281" fill="white"/>
</clipPath>
</defs>
</svg>
