<svg width="2500" height="2500" viewBox="0 0 2500 2500" fill="none" xmlns="http://www.w3.org/2000/svg">
<path d="M1877.29 846.269V552.674C1916.09 534.54 1948.94 505.76 1972.02 469.683C1995.09 433.606 2007.45 391.717 2007.65 348.89V342.154C2007.65 217.287 1906.42 116.062 1781.57 116.062H1774.82C1649.95 116.062 1548.73 217.287 1548.73 342.154V348.89C1548.92 391.717 1561.28 433.606 1584.36 469.683C1607.44 505.76 1640.29 534.54 1679.09 552.674V846.269C1567.58 863.346 1462.56 909.584 1374.67 980.301L569.462 353.129C575.203 332.403 578.198 311.089 578.537 289.696C578.635 239.308 563.787 190.023 535.872 148.074C507.956 106.126 468.227 73.3993 421.709 54.0336C375.191 34.6678 323.975 29.5331 274.538 39.2791C225.102 49.025 179.666 73.2137 143.979 108.786C108.292 144.357 83.9558 189.714 74.0496 239.119C64.1433 288.523 69.1119 339.756 88.3266 386.336C107.541 432.917 140.139 472.752 181.997 500.803C223.854 528.855 273.091 543.862 323.479 543.927C367.559 543.719 410.814 531.951 448.923 509.798L1241.82 1126.79C1096.05 1347 1099.95 1634 1251.64 1850.18L1010.48 2091.41C990.979 2085.18 970.68 2081.87 950.213 2081.59C834.719 2081.69 741.155 2175.35 741.185 2290.84C741.215 2406.33 834.838 2499.94 950.322 2499.97C1065.82 2500 1159.48 2406.44 1159.58 2290.94C1159.31 2270.48 1155.99 2250.17 1149.75 2230.68L1388.32 1992.02C1601.48 2156.13 1894.25 2170.27 2122.25 2027.47C2350.23 1884.66 2465.29 1615.06 2410.66 1351.66C2356.03 1088.24 2143.26 886.638 1877.29 846.259V846.269ZM1778.4 1811.88C1734.33 1813.07 1690.46 1805.41 1649.4 1789.36C1608.33 1773.32 1570.89 1749.2 1539.3 1718.45C1507.71 1687.69 1482.6 1650.92 1465.45 1610.3C1448.3 1569.68 1439.47 1526.04 1439.47 1481.95C1439.47 1437.86 1448.3 1394.21 1465.45 1353.59C1482.6 1312.97 1507.71 1276.2 1539.3 1245.45C1570.89 1214.69 1608.33 1190.58 1649.4 1174.53C1690.46 1158.49 1734.33 1150.83 1778.4 1152.01C1956.02 1158.23 2096.81 1303.98 2096.91 1481.71C2096.99 1659.42 1956.34 1805.32 1778.73 1811.71" fill="#FF7A59"/>
</svg>
