<svg width="201" height="196" viewBox="0 0 201 196" fill="none" xmlns="http://www.w3.org/2000/svg">
<g clip-path="url(#clip0)">
<path d="M8.375 8.39453H192.626V187.606H8.375V8.39453Z" fill="url(#paint0_radial)"/>
<path d="M8.3749 8.39378H192.625V187.605H8.3749V8.39378ZM0 195.98H201V0.0195312H0V195.98ZM142.208 94.4825C146.479 94.4825 147.986 94.4825 148.405 94.315C148.405 93.7289 148.572 93.3099 148.572 92.8912C148.572 88.369 146.395 79.9948 137.685 79.9948C129.645 79.9948 126.211 87.029 125.374 94.4825H142.208ZM125.207 105.955C125.374 117.261 130.734 124.881 143.464 124.881C148.405 124.881 152.676 124.212 157.115 122.286C157.702 122.035 158.121 122.118 158.121 122.872V133.34C158.121 134.177 157.869 134.596 157.283 135.015C152.844 137.192 147.317 138.197 140.449 138.197C118.34 138.197 110.048 121.867 110.048 103.695C110.048 83.9312 120.266 67.7688 138.272 67.7688C156.53 67.7688 162.895 83.0939 162.895 95.5717C162.895 99.5915 162.644 102.857 162.225 104.449C162.057 105.119 161.806 105.37 161.136 105.538C159.461 105.789 154.52 106.123 147.149 106.123H125.207V105.955ZM80.3167 97.4135C77.9717 88.1178 72.2765 67.8519 70.1826 58.0538H70.0152C68.2567 67.8519 63.65 84.4329 60.2164 97.4135H80.3167ZM56.7824 110.98L50.1664 136.019C49.9989 136.689 49.7477 136.941 48.9099 136.941H36.5986C35.7612 136.941 35.5934 136.689 35.7612 135.685L59.5461 52.5268C59.9648 51.0196 60.216 49.847 60.3835 45.6601C60.3835 45.074 60.6347 44.8228 61.0534 44.8228H78.6409C79.2271 44.8228 79.4783 44.9902 79.6462 45.6601L106.278 135.852C106.446 136.522 106.279 136.941 105.609 136.941H91.79C91.1201 136.941 90.701 136.689 90.5336 136.104L83.666 110.98H56.7824V110.98Z" fill="#D8A1FF"/>
</g>
<defs>
<radialGradient id="paint0_radial" cx="0" cy="0" r="1" gradientUnits="userSpaceOnUse" gradientTransform="translate(69.0582 48.556) scale(140.03 135.564)">
<stop stop-color="#442F55" stop-opacity="0.98"/>
<stop offset="1" stop-color="#12002C"/>
</radialGradient>
<clipPath id="clip0">
<rect width="201" height="196" fill="white"/>
</clipPath>
</defs>
</svg>
