<svg width="237" height="254" viewBox="0 0 237 254" fill="none" xmlns="http://www.w3.org/2000/svg">
<path d="M139.468 186.338C172.313 186.338 198.94 144.625 198.94 93.1688C198.94 41.7131 172.313 0 139.468 0C106.622 0 79.9961 41.7131 79.9961 93.1688C79.9961 144.625 106.622 186.338 139.468 186.338Z" fill="#F2F2F2"/>
<path d="M33.5422 225.262C35.1576 226.152 36.892 226.375 38.5783 225.909C40.2647 225.444 41.8461 224.306 43.1702 222.605C46.5425 218.171 47.5998 210.866 48.4601 204.101L51.0047 184.094L45.6773 189.84C41.8462 193.973 37.9288 198.238 35.2762 204.224C32.6235 210.21 31.4656 218.381 33.5969 224.858" fill="#E6E6E6"/>
<path d="M33.9971 249.488C33.4579 243.335 32.9035 237.103 33.2817 230.885C33.6176 225.362 34.6932 219.967 36.8829 215.544C38.0452 213.201 39.4595 211.193 41.0622 209.611C41.4801 209.198 41.8648 210.235 41.4487 210.647C38.6755 213.393 36.5306 217.447 35.3231 222.226C33.9895 227.54 33.7754 233.332 34.0052 238.977C34.1442 242.391 34.4387 245.782 34.7355 249.169C34.7589 249.323 34.7443 249.484 34.6947 249.621C34.645 249.758 34.5641 249.86 34.4681 249.907C34.3702 249.949 34.2659 249.928 34.1777 249.849C34.0895 249.771 34.0246 249.641 33.9971 249.488V249.488Z" fill="#F2F2F2"/>
<path d="M69.6807 241.012C70.3112 242.179 71.123 243.072 72.0378 243.604C72.9525 244.137 73.9394 244.292 74.9034 244.053C77.3774 243.396 79.2414 240.282 80.909 237.344L85.8415 228.656L82.1648 229.076C79.5207 229.378 76.8098 229.706 74.4042 231.451C71.9986 233.196 69.9257 236.691 69.7819 240.838" fill="#E6E6E6"/>
<path d="M65.4476 253.127C66.3146 249.859 67.1886 246.544 68.5189 243.657C69.7003 241.093 71.2216 238.927 73.1121 237.741C74.1148 237.114 75.1796 236.765 76.2586 236.711C76.5402 236.697 76.5384 237.381 76.2581 237.395C74.3894 237.493 72.5888 238.518 71.1158 240.322C69.4824 242.332 68.3112 245.084 67.3855 247.963C66.8257 249.704 66.3466 251.505 65.8693 253.304C65.8526 253.39 65.8157 253.463 65.7661 253.508C65.7165 253.552 65.6579 253.566 65.602 253.546C65.5463 253.522 65.4988 253.465 65.4699 253.386C65.441 253.308 65.433 253.215 65.4476 253.127H65.4476Z" fill="#F2F2F2"/>
<path d="M39.1904 238.597C39.8832 240.247 40.8356 241.589 41.9557 242.495C43.0757 243.401 44.3258 243.839 45.5855 243.768C48.8228 243.527 51.5216 239.988 53.9511 236.627L61.1371 226.688L56.3812 226.331C52.961 226.075 49.4526 225.836 46.195 227.488C42.9374 229.14 39.9331 233.117 39.3375 238.399" fill="#E6E6E6"/>
<path d="M32.4733 253.023C35.0685 245.829 38.0788 237.834 43.4576 235.278C44.9532 234.57 46.5214 234.316 48.0778 234.531C48.5683 234.597 48.4458 235.782 47.9562 235.716C45.3473 235.376 42.7435 236.455 40.5831 238.771C38.5041 240.988 36.8855 244.07 35.5154 247.339C34.6763 249.341 33.9246 251.428 33.1727 253.512C32.9325 254.178 32.2302 253.697 32.4733 253.023V253.023Z" fill="#F2F2F2"/>
<path d="M144.553 130.228C149.713 125.785 156.135 126.677 161.695 129.714C167.255 132.752 172.293 137.729 177.693 141.41C194.191 152.659 214.077 150.845 229.631 136.673C231.102 142.033 229.524 148.165 227.791 153.329C226.057 158.494 224.081 164.091 224.795 169.818C225.708 177.147 230.613 181.54 232.6 188.327C234.486 194.77 233.474 202.335 232.027 209.051C230.579 215.767 228.701 222.533 228.947 229.61C229.193 236.688 232.475 244.172 237 244.177C230.295 245.809 223.458 247.443 216.757 245.77C210.056 244.097 203.39 238.545 200.279 229.098C198.724 224.377 198.124 218.947 196.338 214.43C193.296 206.737 187.458 203.119 181.95 200.392C176.441 197.665 170.546 195.038 166.668 188.331C162.972 181.94 161.802 173.038 159.844 164.979C156.547 151.488 150.82 139.787 143.358 131.298" fill="#00BFA6"/>
<path d="M150.532 96.7443C148.72 95.4241 146.496 94.9913 144.653 96.2181C142.81 97.4448 141.553 100.589 142.149 103.372C142.419 104.634 143.035 105.875 142.795 107.149C142.61 108.13 141.967 108.777 141.334 109.238C140.702 109.698 140.01 110.085 139.553 110.862C139.096 111.638 139 112.975 139.572 113.577C139.76 113.776 139.995 113.87 140.178 114.079C140.333 114.277 140.445 114.546 140.499 114.848C140.552 115.151 140.544 115.472 140.475 115.767C140.323 116.36 140.071 116.879 139.747 117.267C139.099 118.143 138.242 119.146 138.443 120.389C138.518 120.722 138.642 121.021 138.807 121.262C138.971 121.502 139.17 121.677 139.387 121.772C139.837 121.975 140.304 122.072 140.772 122.058L159.906 123.003C160.538 123.077 161.173 123.022 161.796 122.837C162.098 122.751 162.386 122.568 162.641 122.299C162.897 122.03 163.114 121.682 163.279 121.276C163.646 120.213 163.405 118.905 162.953 117.912C162.5 116.92 161.86 116.137 161.331 115.226C160.801 114.315 160.368 113.178 160.462 112C160.536 111.058 160.933 110.243 161.218 109.387C161.503 108.53 161.668 107.46 161.299 106.672C160.78 105.562 159.531 105.662 158.94 104.628C158.494 103.847 158.58 102.723 158.536 101.716C158.429 99.2942 157.359 97.0071 155.835 95.945C155.061 95.424 154.218 95.199 153.377 95.2888C152.536 95.3785 151.72 95.7804 150.998 96.4611L150.532 96.7443Z" fill="#2F2E41"/>
<path d="M138.44 248.758L135.443 247.347L137.49 228.566L141.913 230.648L138.44 248.758Z" fill="#A0616A"/>
<path d="M138.332 253.665L128.669 249.117L128.706 248.925C128.854 248.152 129.098 247.431 129.424 246.805C129.75 246.179 130.152 245.66 130.606 245.277C131.06 244.894 131.558 244.656 132.071 244.574C132.585 244.493 133.103 244.571 133.597 244.803L133.597 244.803L139.499 247.581L138.332 253.665Z" fill="#2F2E41"/>
<path d="M166.72 248.917L163.591 248.917L162.103 230.008L166.721 230.008L166.72 248.917Z" fill="#A0616A"/>
<path d="M167.519 253.665L157.429 253.665V253.465C157.429 252.657 157.53 251.857 157.728 251.11C157.925 250.364 158.214 249.686 158.579 249.114C158.944 248.543 159.377 248.09 159.853 247.781C160.33 247.472 160.84 247.312 161.356 247.313H161.356L167.519 247.313L167.519 253.665Z" fill="#2F2E41"/>
<path d="M162.376 234.613C162.103 234.613 161.839 234.461 161.632 234.183C161.424 233.905 161.286 233.521 161.243 233.099L156.597 187.692C156.566 187.391 156.473 187.115 156.333 186.904C156.193 186.693 156.012 186.559 155.819 186.524C155.626 186.488 155.431 186.552 155.263 186.706C155.095 186.86 154.964 187.095 154.889 187.377L142.852 232.776C142.74 233.195 142.531 233.532 142.267 233.721C142.003 233.909 141.703 233.935 141.428 233.793L137.08 231.522C136.809 231.382 136.582 231.089 136.442 230.7C136.302 230.311 136.259 229.854 136.323 229.419L146.188 161.033C146.236 160.704 146.342 160.402 146.494 160.162C146.646 159.923 146.838 159.754 147.048 159.677L160.278 154.866C160.441 154.808 160.61 154.805 160.773 154.858C160.936 154.911 161.09 155.019 161.225 155.173C169.936 165.09 169.2 197.488 167.577 232.666C167.556 233.107 167.434 233.52 167.231 233.828C167.029 234.136 166.762 234.316 166.481 234.335L162.427 234.612C162.41 234.613 162.393 234.613 162.376 234.613Z" fill="#2F2E41"/>
<path d="M151.24 122.771C154.702 122.771 157.509 118.374 157.509 112.95C157.509 107.526 154.702 103.129 151.24 103.129C147.777 103.129 144.971 107.526 144.971 112.95C144.971 118.374 147.777 122.771 151.24 122.771Z" fill="#A0616A"/>
<path d="M151.51 163.851C150.005 163.836 148.521 163.299 147.165 162.278L147.118 162.244L147.1 162.169L141.477 139.346L141.37 135.381C141.334 134.054 141.476 132.731 141.786 131.496C142.096 130.261 142.568 129.142 143.172 128.21C143.775 127.278 144.496 126.554 145.289 126.085C146.081 125.617 146.928 125.413 147.774 125.488L153.743 126.015C155.285 126.152 156.736 127.205 157.8 128.959C158.864 130.713 159.461 133.036 159.47 135.456C159.625 135.922 160.726 139.571 158.568 142.999C158.488 143.78 157.733 151.895 160.581 156.357L160.662 156.483L160.592 156.622C160.546 156.713 156.888 163.85 151.51 163.851Z" fill="#3F3D56"/>
<path d="M159.893 165.573C160.246 165.373 160.566 165.054 160.832 164.638C161.097 164.223 161.301 163.722 161.43 163.169C161.558 162.617 161.608 162.027 161.575 161.442C161.542 160.856 161.428 160.289 161.24 159.78L167.202 148.966L162.502 148.008L157.561 158.424C157.036 158.975 156.658 159.808 156.5 160.766C156.341 161.724 156.412 162.74 156.7 163.621C156.987 164.503 157.471 165.188 158.06 165.548C158.648 165.908 159.3 165.917 159.893 165.573Z" fill="#A0616A"/>
<path d="M163.621 157.229C163.397 157.229 163.178 157.126 162.991 156.933L160.042 153.903C159.794 153.65 159.619 153.255 159.552 152.803C159.485 152.351 159.533 151.877 159.685 151.478L161.82 145.86C161.935 145.556 162.008 145.217 162.034 144.865C162.06 144.514 162.039 144.158 161.971 143.821C161.903 143.483 161.79 143.172 161.639 142.908C161.489 142.644 161.305 142.433 161.099 142.288L154.966 137.981C154.212 137.444 153.596 136.522 153.22 135.366C152.844 134.21 152.729 132.888 152.896 131.617C153.01 130.759 153.25 129.955 153.595 129.266C153.94 128.577 154.383 128.023 154.887 127.645C155.392 127.268 155.945 127.078 156.504 127.09C157.063 127.103 157.613 127.317 158.111 127.716L167.415 135.185C168.043 135.689 168.593 136.4 169.029 137.268C169.466 138.136 169.777 139.142 169.942 140.216C170.107 141.291 170.122 142.408 169.985 143.492C169.849 144.576 169.565 145.601 169.152 146.497L164.552 156.482C164.446 156.713 164.306 156.902 164.144 157.032C163.982 157.162 163.803 157.229 163.621 157.229Z" fill="#3F3D56"/>
<path d="M144.826 111.553C146.806 111.303 148.45 108.205 148.244 105.11C148.221 106.386 148.497 107.63 149.022 108.607C149.546 109.584 150.281 110.224 151.087 110.407C151.996 110.564 152.991 110.133 153.782 110.851C154.657 111.646 154.937 113.576 155.849 114.263C156.731 114.926 157.85 114.022 158.285 112.65C158.721 111.279 158.614 109.631 158.325 108.168C157.914 106.081 157.165 104.196 156.15 102.697C155.136 101.198 153.892 100.136 152.538 99.6132C151.184 99.0909 149.767 99.1264 148.424 99.7163C147.082 100.306 145.86 101.43 144.877 102.979C144.044 104.291 143.383 105.963 143.276 107.805C143.169 109.647 143.714 111.646 144.77 112.473L144.826 111.553Z" fill="#2F2E41"/>
<path d="M130.242 84.3482C130.572 84.6271 130.859 85.0161 131.083 85.4877C131.307 85.9594 131.462 86.5023 131.538 87.0781C131.613 87.6539 131.607 88.2486 131.52 88.8204C131.433 89.3922 131.267 89.9272 131.034 90.3876L135.924 102.449L131.185 102.322L127.268 90.8876C126.8 90.2223 126.504 89.3114 126.437 88.3274C126.369 87.3434 126.534 86.3547 126.901 85.5486C127.267 84.7426 127.81 84.1751 128.426 83.9539C129.041 83.7326 129.687 83.8729 130.242 84.3482V84.3482Z" fill="#A0616A"/>
<path d="M134.183 92.9395L140.481 116.252L147.084 133.792C147.362 134.533 147.53 135.363 147.574 136.219C147.618 137.076 147.537 137.937 147.338 138.738C147.138 139.539 146.825 140.258 146.422 140.841C146.019 141.425 145.536 141.857 145.011 142.105C144.178 142.493 143.284 142.4 142.491 141.845C141.697 141.29 141.057 140.309 140.685 139.079L127.959 96.4801C127.89 96.2487 127.853 95.9968 127.851 95.7413C127.849 95.4858 127.881 95.2325 127.946 94.9983C128.011 94.7641 128.108 94.5543 128.229 94.3829C128.35 94.2115 128.493 94.0825 128.648 94.0043L132.774 91.9278C132.852 91.8884 132.933 91.8619 133.015 91.8489C133.258 91.8103 133.503 91.8955 133.714 92.0919C133.924 92.2883 134.089 92.5854 134.183 92.9395Z" fill="#3F3D56"/>
<path d="M193.219 253.999H0.255243C0.187549 253.999 0.122626 253.957 0.0747588 253.882C0.0268914 253.807 0 253.705 0 253.599C0 253.493 0.0268914 253.391 0.0747588 253.316C0.122626 253.241 0.187549 253.199 0.255243 253.199H193.219C193.287 253.199 193.352 253.241 193.4 253.316C193.448 253.391 193.474 253.493 193.474 253.599C193.474 253.705 193.448 253.807 193.4 253.882C193.352 253.957 193.287 253.999 193.219 253.999Z" fill="#CCCCCC"/>
<path d="M152.599 43.271V76.06C152.599 76.166 152.572 76.2678 152.525 76.3427C152.477 76.4177 152.412 76.4599 152.344 76.4599C152.276 76.4599 152.211 76.4177 152.164 76.3427C152.116 76.2678 152.089 76.166 152.089 76.06V43.271C152.089 43.1649 152.116 43.0632 152.164 42.9882C152.211 42.9132 152.276 42.8711 152.344 42.8711C152.412 42.8711 152.477 42.9132 152.525 42.9882C152.572 43.0632 152.599 43.1649 152.599 43.271V43.271Z" fill="#CCCCCC"/>
<path d="M174.761 71.0856L167.542 82.3955C167.494 82.4702 167.429 82.5121 167.361 82.512C167.294 82.5119 167.229 82.4698 167.181 82.3949C167.133 82.32 167.107 82.2185 167.106 82.1126C167.106 82.0067 167.133 81.9051 167.181 81.83L174.4 70.5201C174.424 70.4828 174.452 70.4532 174.483 70.433C174.514 70.4128 174.547 70.4024 174.581 70.4023C174.614 70.4023 174.648 70.4126 174.679 70.4327C174.71 70.4528 174.738 70.4823 174.762 70.5195C174.785 70.5566 174.804 70.6008 174.817 70.6494C174.83 70.698 174.836 70.7501 174.836 70.8027C174.836 70.8552 174.83 70.9073 174.817 70.9558C174.804 71.0044 174.785 71.0485 174.761 71.0856V71.0856Z" fill="#CCCCCC"/>
<path d="M129.927 71.0856L137.146 82.3955C137.194 82.4705 137.259 82.5126 137.327 82.5126C137.394 82.5127 137.459 82.4705 137.507 82.3955C137.555 82.3205 137.582 82.2188 137.582 82.1128C137.582 82.0067 137.555 81.905 137.507 81.83L130.288 70.5201C130.264 70.4828 130.236 70.4532 130.205 70.433C130.174 70.4128 130.141 70.4024 130.107 70.4023C130.074 70.4023 130.04 70.4126 130.009 70.4327C129.978 70.4528 129.95 70.4823 129.926 70.5195C129.903 70.5566 129.884 70.6008 129.871 70.6494C129.858 70.698 129.852 70.7501 129.852 70.8027C129.852 70.8552 129.858 70.9073 129.871 70.9558C129.884 71.0044 129.903 71.0485 129.927 71.0856V71.0856Z" fill="#CCCCCC"/>
</svg>
