<svg width="528" height="245" viewBox="0 0 528 245" fill="none" xmlns="http://www.w3.org/2000/svg">
<g filter="url(#filter0_dd)">
<rect x="30" y="30" width="463" height="185" rx="20" fill="#97ED4C"/>
</g>
<path d="M183.44 129.264C183.44 132.336 182.576 134.56 180.848 135.936C179.12 137.312 176.384 138 172.64 138H160.88V107.904H172.64C176.032 107.904 178.432 108.48 179.84 109.632C181.28 110.784 182 112.752 182 115.536C182 117.424 181.712 118.864 181.136 119.856C180.56 120.848 179.504 121.568 177.968 122.016C179.792 122.336 181.152 123.104 182.048 124.32C182.976 125.504 183.44 127.152 183.44 129.264ZM176.672 116.352C176.672 114.976 176.368 114.032 175.76 113.52C175.184 112.976 174.144 112.704 172.64 112.704H166.64V120.48H172.64C174.08 120.48 175.104 120.16 175.712 119.52C176.352 118.88 176.672 117.824 176.672 116.352ZM177.872 128.88C177.872 127.408 177.472 126.384 176.672 125.808C175.904 125.232 174.56 124.944 172.64 124.944H166.64V133.008H172.64C174.56 133.008 175.904 132.704 176.672 132.096C177.472 131.488 177.872 130.416 177.872 128.88ZM206.605 125.664V107.904H212.365V125.664C212.365 129.984 211.341 133.2 209.293 135.312C207.245 137.392 204.109 138.432 199.885 138.432C195.565 138.432 192.413 137.424 190.429 135.408C188.445 133.392 187.453 130.144 187.453 125.664V107.904H193.213V125.664C193.213 128.48 193.693 130.416 194.653 131.472C195.613 132.496 197.357 133.008 199.885 133.008C202.445 133.008 204.205 132.48 205.165 131.424C206.125 130.368 206.605 128.448 206.605 125.664ZM229.4 126.048L222.728 124.464C220.52 123.952 218.968 123.12 218.072 121.968C217.176 120.784 216.728 119.104 216.728 116.928C216.728 113.664 217.624 111.264 219.416 109.728C221.208 108.192 223.992 107.424 227.768 107.424C229.336 107.424 230.728 107.504 231.944 107.664C233.192 107.792 234.344 108 235.4 108.288V113.472C233.576 113.12 232.12 112.896 231.032 112.8C229.944 112.672 228.824 112.608 227.672 112.608C225.752 112.608 224.392 112.912 223.592 113.52C222.792 114.096 222.392 115.104 222.392 116.544C222.392 117.376 222.552 118.016 222.872 118.464C223.224 118.88 223.8 119.184 224.6 119.376L231.08 120.912C232.584 121.264 233.704 121.632 234.44 122.016C235.176 122.368 235.784 122.816 236.264 123.36C236.744 123.968 237.096 124.72 237.32 125.616C237.576 126.512 237.704 127.616 237.704 128.928C237.704 132.32 236.808 134.752 235.016 136.224C233.224 137.696 230.44 138.432 226.664 138.432C224.712 138.432 222.824 138.304 221 138.048C219.208 137.792 217.8 137.472 216.776 137.088V131.664C218.152 132.08 219.704 132.416 221.432 132.672C223.192 132.896 224.936 133.008 226.664 133.008C228.552 133.008 229.864 132.752 230.6 132.24C231.368 131.696 231.752 130.656 231.752 129.12C231.752 128.16 231.592 127.472 231.272 127.056C230.984 126.608 230.36 126.272 229.4 126.048ZM247.499 107.904V138H241.739V107.904H247.499ZM278.567 107.904V138H272.951L258.695 117.6V138H253.271V107.904H258.887L273.191 128.784V107.904H278.567ZM304.701 132.576V138H284.349V107.904H304.269V113.088H290.109V120.192H302.493V125.136H290.109V132.576H304.701ZM320.525 126.048L313.853 124.464C311.645 123.952 310.093 123.12 309.197 121.968C308.301 120.784 307.853 119.104 307.853 116.928C307.853 113.664 308.749 111.264 310.541 109.728C312.333 108.192 315.117 107.424 318.893 107.424C320.461 107.424 321.853 107.504 323.069 107.664C324.317 107.792 325.469 108 326.525 108.288V113.472C324.701 113.12 323.245 112.896 322.157 112.8C321.069 112.672 319.949 112.608 318.797 112.608C316.877 112.608 315.517 112.912 314.717 113.52C313.917 114.096 313.517 115.104 313.517 116.544C313.517 117.376 313.677 118.016 313.997 118.464C314.349 118.88 314.925 119.184 315.725 119.376L322.205 120.912C323.709 121.264 324.829 121.632 325.565 122.016C326.301 122.368 326.909 122.816 327.389 123.36C327.869 123.968 328.221 124.72 328.445 125.616C328.701 126.512 328.829 127.616 328.829 128.928C328.829 132.32 327.933 134.752 326.141 136.224C324.349 137.696 321.565 138.432 317.789 138.432C315.837 138.432 313.949 138.304 312.125 138.048C310.333 137.792 308.925 137.472 307.901 137.088V131.664C309.277 132.08 310.829 132.416 312.557 132.672C314.317 132.896 316.061 133.008 317.789 133.008C319.677 133.008 320.989 132.752 321.725 132.24C322.493 131.696 322.877 130.656 322.877 129.12C322.877 128.16 322.717 127.472 322.397 127.056C322.109 126.608 321.485 126.272 320.525 126.048ZM344.384 126.048L337.712 124.464C335.504 123.952 333.952 123.12 333.056 121.968C332.16 120.784 331.712 119.104 331.712 116.928C331.712 113.664 332.608 111.264 334.4 109.728C336.192 108.192 338.976 107.424 342.752 107.424C344.32 107.424 345.712 107.504 346.928 107.664C348.176 107.792 349.328 108 350.384 108.288V113.472C348.56 113.12 347.104 112.896 346.016 112.8C344.928 112.672 343.808 112.608 342.656 112.608C340.736 112.608 339.376 112.912 338.576 113.52C337.776 114.096 337.376 115.104 337.376 116.544C337.376 117.376 337.536 118.016 337.856 118.464C338.208 118.88 338.784 119.184 339.584 119.376L346.064 120.912C347.568 121.264 348.688 121.632 349.424 122.016C350.16 122.368 350.768 122.816 351.248 123.36C351.728 123.968 352.08 124.72 352.304 125.616C352.56 126.512 352.688 127.616 352.688 128.928C352.688 132.32 351.792 134.752 350 136.224C348.208 137.696 345.424 138.432 341.648 138.432C339.696 138.432 337.808 138.304 335.984 138.048C334.192 137.792 332.784 137.472 331.76 137.088V131.664C333.136 132.08 334.688 132.416 336.416 132.672C338.176 132.896 339.92 133.008 341.648 133.008C343.536 133.008 344.848 132.752 345.584 132.24C346.352 131.696 346.736 130.656 346.736 129.12C346.736 128.16 346.576 127.472 346.256 127.056C345.968 126.608 345.344 126.272 344.384 126.048Z" fill="white"/>
<circle cx="485" cy="123" r="43" transform="rotate(90 485 123)" fill="#FF5975"/>
<path d="M493.768 124.768C494.744 123.791 494.744 122.209 493.768 121.232L477.858 105.322C476.882 104.346 475.299 104.346 474.322 105.322C473.346 106.299 473.346 107.882 474.322 108.858L488.464 123L474.322 137.142C473.346 138.118 473.346 139.701 474.322 140.678C475.299 141.654 476.882 141.654 477.858 140.678L493.768 124.768ZM379 125.5H492V120.5H379V125.5Z" fill="black"/>
<defs>
<filter id="filter0_dd" x="0" y="0" width="523" height="245" filterUnits="userSpaceOnUse" color-interpolation-filters="sRGB">
<feFlood flood-opacity="0" result="BackgroundImageFix"/>
<feColorMatrix in="SourceAlpha" type="matrix" values="0 0 0 0 0 0 0 0 0 0 0 0 0 0 0 0 0 0 127 0"/>
<feOffset dx="10" dy="10"/>
<feGaussianBlur stdDeviation="10"/>
<feColorMatrix type="matrix" values="0 0 0 0 0.636458 0 0 0 0 0.8125 0 0 0 0 0.688527 0 0 0 1 0"/>
<feBlend mode="normal" in2="BackgroundImageFix" result="effect1_dropShadow"/>
<feColorMatrix in="SourceAlpha" type="matrix" values="0 0 0 0 0 0 0 0 0 0 0 0 0 0 0 0 0 0 127 0"/>
<feOffset dx="-10" dy="-10"/>
<feGaussianBlur stdDeviation="10"/>
<feColorMatrix type="matrix" values="0 0 0 0 1 0 0 0 0 1 0 0 0 0 1 0 0 0 1 0"/>
<feBlend mode="normal" in2="effect1_dropShadow" result="effect2_dropShadow"/>
<feBlend mode="normal" in="SourceGraphic" in2="effect2_dropShadow" result="shape"/>
</filter>
</defs>
</svg>
