<svg width="1744" height="425" viewBox="0 0 1744 425" fill="none" xmlns="http://www.w3.org/2000/svg">
<g filter="url(#filter0_dd)">
<path d="M30 30H1714V394.5L1632 355H30V30Z" fill="#EAF5DD"/>
</g>
<path d="M486.641 145.953V175.344H464.281V152.141C464.281 138.922 465.875 129.125 469.062 122.75C472.25 116.375 476.984 111.406 483.266 107.844L488.469 117.828C484.531 119.797 481.484 122.844 479.328 126.969C477.172 131.094 475.953 137.422 475.672 145.953H486.641ZM450.781 145.953V175.344H428.562V152.141C428.562 138.922 430.109 129.125 433.203 122.75C436.391 116.375 441.172 111.406 447.547 107.844L452.75 117.828C448.812 119.797 445.766 122.844 443.609 126.969C441.453 131 440.234 137.328 439.953 145.953H450.781Z" fill="#1C8463"/>
<path d="M1423.36 242.047V212.656H1445.72V235.859C1445.72 249.078 1444.12 258.875 1440.94 265.25C1437.75 271.625 1433.02 276.594 1426.73 280.156L1421.53 270.172C1425.47 268.203 1428.52 265.156 1430.67 261.031C1432.83 256.906 1434.05 250.578 1434.33 242.047H1423.36ZM1459.22 242.047V212.656H1481.44V235.859C1481.44 249.078 1479.89 258.875 1476.8 265.25C1473.61 271.625 1468.83 276.594 1462.45 280.156L1457.25 270.172C1461.19 268.203 1464.23 265.156 1466.39 261.031C1468.55 257 1469.77 250.672 1470.05 242.047H1459.22Z" fill="#1C8463"/>
<path d="M1296.5 300L1301.33 314.856H1316.95L1304.31 324.038L1309.14 338.894L1296.5 329.712L1283.86 338.894L1288.69 324.038L1276.05 314.856H1291.67L1296.5 300Z" fill="#FDF303"/>
<path d="M1339.5 300L1344.33 314.856H1359.95L1347.31 324.038L1352.14 338.894L1339.5 329.712L1326.86 338.894L1331.69 324.038L1319.05 314.856H1334.67L1339.5 300Z" fill="#FDF303"/>
<path d="M1383 300L1387.94 314.856H1403.92L1390.99 324.038L1395.93 338.894L1383 329.712L1370.07 338.894L1375.01 324.038L1362.08 314.856H1378.06L1383 300Z" fill="#FDF303"/>
<path d="M1426.5 300L1431.33 314.856H1446.95L1434.31 324.038L1439.14 338.894L1426.5 329.712L1413.86 338.894L1418.69 324.038L1406.05 314.856H1421.67L1426.5 300Z" fill="#FDF303"/>
<path d="M1469.5 300L1474.33 314.856H1489.95L1477.31 324.038L1482.14 338.894L1469.5 329.712L1456.86 338.894L1461.69 324.038L1449.05 314.856H1464.67L1469.5 300Z" fill="#FDF303"/>
<path d="M633.9 164.325V166.25H628.7V180H626.575V166.25H621.375V164.325H633.9ZM637.981 180H635.931V163.375H637.981V168.65C638.731 168.233 639.473 167.925 640.206 167.725C640.956 167.508 641.698 167.4 642.431 167.4C643.798 167.4 644.823 167.742 645.506 168.425C646.206 169.108 646.556 170.117 646.556 171.45V180H644.506V171.7C644.506 170.85 644.281 170.233 643.831 169.85C643.398 169.45 642.715 169.25 641.781 169.25C641.165 169.25 640.523 169.333 639.856 169.5C639.206 169.667 638.581 169.9 637.981 170.2V180ZM659.025 177.6V179.325C658.591 179.558 657.95 179.767 657.1 179.95C656.266 180.117 655.416 180.2 654.55 180.2C652.616 180.2 651.233 179.7 650.4 178.7C649.566 177.7 649.15 176.05 649.15 173.75C649.15 171.533 649.583 169.925 650.45 168.925C651.316 167.908 652.7 167.4 654.6 167.4C656.366 167.4 657.633 167.8 658.4 168.6C659.166 169.383 659.55 170.7 659.55 172.55C659.55 172.883 659.541 173.192 659.525 173.475C659.508 173.758 659.475 174.1 659.425 174.5H651.225C651.241 175.867 651.516 176.842 652.05 177.425C652.6 178.008 653.541 178.3 654.875 178.3C655.591 178.3 656.341 178.233 657.125 178.1C657.908 177.967 658.541 177.8 659.025 177.6ZM657.675 172.275C657.658 171.175 657.416 170.4 656.95 169.95C656.483 169.483 655.7 169.25 654.6 169.25C653.366 169.25 652.491 169.517 651.975 170.05C651.475 170.567 651.225 171.483 651.225 172.8H657.65C657.65 172.767 657.65 172.692 657.65 172.575C657.666 172.442 657.675 172.342 657.675 172.275ZM668.523 163.375V180H666.473V163.375H668.523ZM682.67 173.8C682.67 176.133 682.237 177.783 681.37 178.75C680.52 179.717 679.053 180.2 676.97 180.2C674.82 180.2 673.328 179.733 672.495 178.8C671.662 177.867 671.245 176.2 671.245 173.8C671.245 171.45 671.67 169.8 672.52 168.85C673.387 167.883 674.87 167.4 676.97 167.4C679.12 167.4 680.603 167.867 681.42 168.8C682.253 169.733 682.67 171.4 682.67 173.8ZM673.295 173.775C673.295 175.608 673.537 176.825 674.02 177.425C674.503 178.008 675.487 178.3 676.97 178.3C678.403 178.3 679.37 177.992 679.87 177.375C680.37 176.742 680.62 175.542 680.62 173.775C680.62 171.942 680.378 170.733 679.895 170.15C679.428 169.55 678.453 169.25 676.97 169.25C675.52 169.25 674.545 169.558 674.045 170.175C673.545 170.792 673.295 171.992 673.295 173.775ZM690.419 184.05C689.586 184.05 688.802 183.992 688.069 183.875C687.352 183.775 686.761 183.633 686.294 183.45V181.625C686.677 181.775 687.236 181.9 687.969 182C688.719 182.1 689.461 182.15 690.194 182.15C691.444 182.15 692.311 181.9 692.794 181.4C693.277 180.917 693.519 180.05 693.519 178.8V178.025C692.902 178.392 692.244 178.675 691.544 178.875C690.844 179.058 690.136 179.15 689.419 179.15C687.769 179.15 686.586 178.692 685.869 177.775C685.169 176.858 684.819 175.358 684.819 173.275C684.819 171.158 685.269 169.65 686.169 168.75C687.086 167.85 688.636 167.4 690.819 167.4C691.602 167.4 692.444 167.45 693.344 167.55C694.244 167.633 694.986 167.742 695.569 167.875V178.225C695.569 180.392 695.186 181.9 694.419 182.75C693.652 183.617 692.319 184.05 690.419 184.05ZM690.819 169.25C689.219 169.25 688.161 169.525 687.644 170.075C687.127 170.625 686.869 171.692 686.869 173.275C686.869 174.775 687.086 175.817 687.519 176.4C687.969 176.967 688.827 177.25 690.094 177.25C690.644 177.25 691.211 177.175 691.794 177.025C692.394 176.858 692.969 176.633 693.519 176.35V169.525C693.119 169.442 692.686 169.375 692.219 169.325C691.769 169.275 691.302 169.25 690.819 169.25ZM709.696 173.8C709.696 176.133 709.263 177.783 708.396 178.75C707.546 179.717 706.08 180.2 703.996 180.2C701.846 180.2 700.355 179.733 699.521 178.8C698.688 177.867 698.271 176.2 698.271 173.8C698.271 171.45 698.696 169.8 699.546 168.85C700.413 167.883 701.896 167.4 703.996 167.4C706.146 167.4 707.63 167.867 708.446 168.8C709.28 169.733 709.696 171.4 709.696 173.8ZM700.321 173.775C700.321 175.608 700.563 176.825 701.046 177.425C701.53 178.008 702.513 178.3 703.996 178.3C705.43 178.3 706.396 177.992 706.896 177.375C707.396 176.742 707.646 175.542 707.646 173.775C707.646 171.942 707.405 170.733 706.921 170.15C706.455 169.55 705.48 169.25 703.996 169.25C702.546 169.25 701.571 169.558 701.071 170.175C700.571 170.792 700.321 171.992 700.321 173.775ZM718.818 165.5H716.618V163.375H718.818V165.5ZM718.743 180H716.693V167.65H718.743V180ZM726.29 169.25C725.223 169.25 724.481 169.375 724.065 169.625C723.665 169.875 723.465 170.383 723.465 171.15C723.465 171.55 723.556 171.858 723.74 172.075C723.94 172.275 724.248 172.408 724.665 172.475L727.84 172.95C728.84 173.1 729.54 173.417 729.94 173.9C730.34 174.367 730.54 175.108 730.54 176.125C730.54 177.558 730.198 178.6 729.515 179.25C728.831 179.883 727.698 180.2 726.115 180.2C725.165 180.2 724.281 180.15 723.465 180.05C722.648 179.95 721.973 179.817 721.44 179.65V177.725C721.973 177.892 722.623 178.033 723.39 178.15C724.173 178.25 724.973 178.3 725.79 178.3C726.823 178.3 727.531 178.15 727.915 177.85C728.298 177.55 728.49 177.017 728.49 176.25C728.49 175.767 728.381 175.417 728.165 175.2C727.948 174.967 727.556 174.808 726.99 174.725L723.815 174.25C723.015 174.133 722.415 173.825 722.015 173.325C721.631 172.825 721.431 172.1 721.415 171.15C721.415 169.85 721.798 168.9 722.565 168.3C723.348 167.7 724.548 167.4 726.165 167.4C726.831 167.4 727.431 167.417 727.965 167.45C728.515 167.483 729.09 167.55 729.69 167.65V169.475C729.256 169.408 728.748 169.358 728.165 169.325C727.581 169.275 726.956 169.25 726.29 169.25ZM740.098 180.2C738.832 180.2 737.898 179.9 737.298 179.3C736.715 178.683 736.423 177.717 736.423 176.4C736.423 175.067 736.782 174.125 737.498 173.575C738.215 173.008 739.432 172.725 741.148 172.725C741.715 172.725 742.273 172.75 742.823 172.8C743.373 172.85 743.89 172.925 744.373 173.025V171.825C744.373 170.908 744.14 170.25 743.673 169.85C743.207 169.45 742.457 169.25 741.423 169.25C740.657 169.25 739.982 169.283 739.398 169.35C738.815 169.4 738.232 169.492 737.648 169.625V167.85C738.315 167.683 738.99 167.567 739.673 167.5C740.373 167.433 741.165 167.4 742.048 167.4C743.532 167.4 744.632 167.75 745.348 168.45C746.065 169.133 746.423 170.2 746.423 171.65V180H744.548L744.448 178.85H744.398C743.898 179.25 743.248 179.575 742.448 179.825C741.665 180.075 740.882 180.2 740.098 180.2ZM741.373 174.4C740.24 174.4 739.448 174.542 738.998 174.825C738.565 175.092 738.348 175.575 738.348 176.275C738.348 177.008 738.532 177.542 738.898 177.875C739.265 178.192 739.865 178.35 740.698 178.35C741.348 178.35 742.015 178.25 742.698 178.05C743.382 177.85 743.94 177.6 744.373 177.3V174.65C743.823 174.567 743.307 174.508 742.823 174.475C742.357 174.425 741.873 174.4 741.373 174.4ZM753.878 169.25C752.811 169.25 752.069 169.375 751.653 169.625C751.253 169.875 751.053 170.383 751.053 171.15C751.053 171.55 751.144 171.858 751.328 172.075C751.528 172.275 751.836 172.408 752.253 172.475L755.428 172.95C756.428 173.1 757.128 173.417 757.528 173.9C757.928 174.367 758.128 175.108 758.128 176.125C758.128 177.558 757.786 178.6 757.103 179.25C756.419 179.883 755.286 180.2 753.703 180.2C752.753 180.2 751.869 180.15 751.053 180.05C750.236 179.95 749.561 179.817 749.028 179.65V177.725C749.561 177.892 750.211 178.033 750.978 178.15C751.761 178.25 752.561 178.3 753.378 178.3C754.411 178.3 755.119 178.15 755.503 177.85C755.886 177.55 756.078 177.017 756.078 176.25C756.078 175.767 755.969 175.417 755.753 175.2C755.536 174.967 755.144 174.808 754.578 174.725L751.403 174.25C750.603 174.133 750.003 173.825 749.603 173.325C749.219 172.825 749.019 172.1 749.003 171.15C749.003 169.85 749.386 168.9 750.153 168.3C750.936 167.7 752.136 167.4 753.753 167.4C754.419 167.4 755.019 167.417 755.553 167.45C756.103 167.483 756.678 167.55 757.278 167.65V169.475C756.844 169.408 756.336 169.358 755.753 169.325C755.169 169.275 754.544 169.25 753.878 169.25ZM769.911 184.05C769.078 184.05 768.295 183.992 767.561 183.875C766.845 183.775 766.253 183.633 765.786 183.45V181.625C766.17 181.775 766.728 181.9 767.461 182C768.211 182.1 768.953 182.15 769.686 182.15C770.936 182.15 771.803 181.9 772.286 181.4C772.77 180.917 773.011 180.05 773.011 178.8V178.025C772.395 178.392 771.736 178.675 771.036 178.875C770.336 179.058 769.628 179.15 768.911 179.15C767.261 179.15 766.078 178.692 765.361 177.775C764.661 176.858 764.311 175.358 764.311 173.275C764.311 171.158 764.761 169.65 765.661 168.75C766.578 167.85 768.128 167.4 770.311 167.4C771.095 167.4 771.936 167.45 772.836 167.55C773.736 167.633 774.478 167.742 775.061 167.875V178.225C775.061 180.392 774.678 181.9 773.911 182.75C773.145 183.617 771.811 184.05 769.911 184.05ZM770.311 169.25C768.711 169.25 767.653 169.525 767.136 170.075C766.62 170.625 766.361 171.692 766.361 173.275C766.361 174.775 766.578 175.817 767.011 176.4C767.461 176.967 768.32 177.25 769.586 177.25C770.136 177.25 770.703 177.175 771.286 177.025C771.886 176.858 772.461 176.633 773.011 176.35V169.525C772.611 169.442 772.178 169.375 771.711 169.325C771.261 169.275 770.795 169.25 770.311 169.25ZM789.188 173.8C789.188 176.133 788.755 177.783 787.888 178.75C787.038 179.717 785.572 180.2 783.488 180.2C781.338 180.2 779.847 179.733 779.013 178.8C778.18 177.867 777.763 176.2 777.763 173.8C777.763 171.45 778.188 169.8 779.038 168.85C779.905 167.883 781.388 167.4 783.488 167.4C785.638 167.4 787.122 167.867 787.938 168.8C788.772 169.733 789.188 171.4 789.188 173.8ZM779.813 173.775C779.813 175.608 780.055 176.825 780.538 177.425C781.022 178.008 782.005 178.3 783.488 178.3C784.922 178.3 785.888 177.992 786.388 177.375C786.888 176.742 787.138 175.542 787.138 173.775C787.138 171.942 786.897 170.733 786.413 170.15C785.947 169.55 784.972 169.25 783.488 169.25C782.038 169.25 781.063 169.558 780.563 170.175C780.063 170.792 779.813 171.992 779.813 173.775ZM802.763 173.8C802.763 176.133 802.329 177.783 801.463 178.75C800.613 179.717 799.146 180.2 797.063 180.2C794.913 180.2 793.421 179.733 792.588 178.8C791.754 177.867 791.338 176.2 791.338 173.8C791.338 171.45 791.763 169.8 792.613 168.85C793.479 167.883 794.963 167.4 797.063 167.4C799.213 167.4 800.696 167.867 801.513 168.8C802.346 169.733 802.763 171.4 802.763 173.8ZM793.388 173.775C793.388 175.608 793.629 176.825 794.113 177.425C794.596 178.008 795.579 178.3 797.063 178.3C798.496 178.3 799.463 177.992 799.963 177.375C800.463 176.742 800.713 175.542 800.713 173.775C800.713 171.942 800.471 170.733 799.988 170.15C799.521 169.55 798.546 169.25 797.063 169.25C795.613 169.25 794.638 169.558 794.138 170.175C793.638 170.792 793.388 171.992 793.388 173.775ZM813.662 163.375H815.712V180H813.937L813.787 178.85H813.737C813.254 179.3 812.662 179.642 811.962 179.875C811.279 180.092 810.487 180.2 809.587 180.2C807.904 180.2 806.695 179.7 805.962 178.7C805.245 177.7 804.887 176.067 804.887 173.8C804.887 171.533 805.329 169.9 806.212 168.9C807.095 167.9 808.57 167.4 810.637 167.4C811.22 167.4 811.762 167.45 812.262 167.55C812.779 167.633 813.245 167.758 813.662 167.925V163.375ZM810.887 169.25C809.337 169.25 808.287 169.575 807.737 170.225C807.204 170.875 806.937 172.067 806.937 173.8C806.937 175.483 807.17 176.658 807.637 177.325C808.12 177.975 809.012 178.3 810.312 178.3C810.929 178.3 811.52 178.225 812.087 178.075C812.654 177.908 813.179 177.667 813.662 177.35V169.75C813.262 169.583 812.837 169.458 812.387 169.375C811.937 169.292 811.437 169.25 810.887 169.25ZM826.085 180.2C824.818 180.2 823.885 179.9 823.285 179.3C822.701 178.683 822.41 177.717 822.41 176.4C822.41 175.067 822.768 174.125 823.485 173.575C824.201 173.008 825.418 172.725 827.135 172.725C827.701 172.725 828.26 172.75 828.81 172.8C829.36 172.85 829.876 172.925 830.36 173.025V171.825C830.36 170.908 830.126 170.25 829.66 169.85C829.193 169.45 828.443 169.25 827.41 169.25C826.643 169.25 825.968 169.283 825.385 169.35C824.801 169.4 824.218 169.492 823.635 169.625V167.85C824.301 167.683 824.976 167.567 825.66 167.5C826.36 167.433 827.151 167.4 828.035 167.4C829.518 167.4 830.618 167.75 831.335 168.45C832.051 169.133 832.41 170.2 832.41 171.65V180H830.535L830.435 178.85H830.385C829.885 179.25 829.235 179.575 828.435 179.825C827.651 180.075 826.868 180.2 826.085 180.2ZM827.36 174.4C826.226 174.4 825.435 174.542 824.985 174.825C824.551 175.092 824.335 175.575 824.335 176.275C824.335 177.008 824.518 177.542 824.885 177.875C825.251 178.192 825.851 178.35 826.685 178.35C827.335 178.35 828.001 178.25 828.685 178.05C829.368 177.85 829.926 177.6 830.36 177.3V174.65C829.81 174.567 829.293 174.508 828.81 174.475C828.343 174.425 827.86 174.4 827.36 174.4ZM839.864 169.25C838.797 169.25 838.056 169.375 837.639 169.625C837.239 169.875 837.039 170.383 837.039 171.15C837.039 171.55 837.131 171.858 837.314 172.075C837.514 172.275 837.822 172.408 838.239 172.475L841.414 172.95C842.414 173.1 843.114 173.417 843.514 173.9C843.914 174.367 844.114 175.108 844.114 176.125C844.114 177.558 843.772 178.6 843.089 179.25C842.406 179.883 841.272 180.2 839.689 180.2C838.739 180.2 837.856 180.15 837.039 180.05C836.222 179.95 835.547 179.817 835.014 179.65V177.725C835.547 177.892 836.197 178.033 836.964 178.15C837.747 178.25 838.547 178.3 839.364 178.3C840.397 178.3 841.106 178.15 841.489 177.85C841.872 177.55 842.064 177.017 842.064 176.25C842.064 175.767 841.956 175.417 841.739 175.2C841.522 174.967 841.131 174.808 840.564 174.725L837.389 174.25C836.589 174.133 835.989 173.825 835.589 173.325C835.206 172.825 835.006 172.1 834.989 171.15C834.989 169.85 835.372 168.9 836.139 168.3C836.922 167.7 838.122 167.4 839.739 167.4C840.406 167.4 841.006 167.417 841.539 167.45C842.089 167.483 842.664 167.55 843.264 167.65V169.475C842.831 169.408 842.322 169.358 841.739 169.325C841.156 169.275 840.531 169.25 839.864 169.25ZM853.148 164.325V180H851.023V164.325H853.148ZM873.892 167.65H876.117L872.692 180H870.292L867.592 170.375L865.067 180H862.667L859.242 167.65H861.492L863.892 178.075L866.567 167.65H868.617L871.467 178.075L873.892 167.65ZM880.846 180.2C879.579 180.2 878.646 179.9 878.046 179.3C877.462 178.683 877.171 177.717 877.171 176.4C877.171 175.067 877.529 174.125 878.246 173.575C878.962 173.008 880.179 172.725 881.896 172.725C882.462 172.725 883.021 172.75 883.571 172.8C884.121 172.85 884.637 172.925 885.121 173.025V171.825C885.121 170.908 884.887 170.25 884.421 169.85C883.954 169.45 883.204 169.25 882.171 169.25C881.404 169.25 880.729 169.283 880.146 169.35C879.562 169.4 878.979 169.492 878.396 169.625V167.85C879.062 167.683 879.737 167.567 880.421 167.5C881.121 167.433 881.912 167.4 882.796 167.4C884.279 167.4 885.379 167.75 886.096 168.45C886.812 169.133 887.171 170.2 887.171 171.65V180H885.296L885.196 178.85H885.146C884.646 179.25 883.996 179.575 883.196 179.825C882.412 180.075 881.629 180.2 880.846 180.2ZM882.121 174.4C880.987 174.4 880.196 174.542 879.746 174.825C879.312 175.092 879.096 175.575 879.096 176.275C879.096 177.008 879.279 177.542 879.646 177.875C880.012 178.192 880.612 178.35 881.446 178.35C882.096 178.35 882.762 178.25 883.446 178.05C884.129 177.85 884.687 177.6 885.121 177.3V174.65C884.571 174.567 884.054 174.508 883.571 174.475C883.104 174.425 882.621 174.4 882.121 174.4ZM892.425 180H890.375V167.65H892.15L892.25 168.85H892.325C892.991 168.35 893.683 167.983 894.4 167.75C895.133 167.517 895.95 167.4 896.85 167.4C898.216 167.4 899.25 167.742 899.95 168.425C900.666 169.108 901.025 170.117 901.025 171.45V180H898.975V171.7C898.975 170.867 898.741 170.25 898.275 169.85C897.808 169.45 897.091 169.25 896.125 169.25C895.525 169.25 894.908 169.35 894.275 169.55C893.658 169.733 893.041 170.008 892.425 170.375V180ZM911.321 178.075V179.8C911.054 179.917 910.688 180.008 910.221 180.075C909.771 180.158 909.338 180.2 908.921 180.2C907.421 180.2 906.346 179.867 905.696 179.2C905.063 178.533 904.746 177.383 904.746 175.75V169.4H902.896V167.65H904.771L905.096 164.65H906.796V167.65H911.196V169.4H906.796V175.675C906.796 176.692 906.979 177.383 907.346 177.75C907.729 178.117 908.396 178.3 909.346 178.3C909.646 178.3 909.988 178.275 910.371 178.225C910.771 178.175 911.088 178.125 911.321 178.075ZM922.477 177.6V179.325C922.043 179.558 921.402 179.767 920.552 179.95C919.718 180.117 918.868 180.2 918.002 180.2C916.068 180.2 914.685 179.7 913.852 178.7C913.018 177.7 912.602 176.05 912.602 173.75C912.602 171.533 913.035 169.925 913.902 168.925C914.768 167.908 916.152 167.4 918.052 167.4C919.818 167.4 921.085 167.8 921.852 168.6C922.618 169.383 923.002 170.7 923.002 172.55C923.002 172.883 922.993 173.192 922.977 173.475C922.96 173.758 922.927 174.1 922.877 174.5H914.677C914.693 175.867 914.968 176.842 915.502 177.425C916.052 178.008 916.993 178.3 918.327 178.3C919.043 178.3 919.793 178.233 920.577 178.1C921.36 177.967 921.993 177.8 922.477 177.6ZM921.127 172.275C921.11 171.175 920.868 170.4 920.402 169.95C919.935 169.483 919.152 169.25 918.052 169.25C916.818 169.25 915.943 169.517 915.427 170.05C914.927 170.567 914.677 171.483 914.677 172.8H921.102C921.102 172.767 921.102 172.692 921.102 172.575C921.118 172.442 921.127 172.342 921.127 172.275ZM933.828 163.375H935.878V180H934.103L933.953 178.85H933.903C933.42 179.3 932.828 179.642 932.128 179.875C931.445 180.092 930.653 180.2 929.753 180.2C928.07 180.2 926.861 179.7 926.128 178.7C925.411 177.7 925.053 176.067 925.053 173.8C925.053 171.533 925.495 169.9 926.378 168.9C927.261 167.9 928.736 167.4 930.803 167.4C931.386 167.4 931.928 167.45 932.428 167.55C932.945 167.633 933.411 167.758 933.828 167.925V163.375ZM931.053 169.25C929.503 169.25 928.453 169.575 927.903 170.225C927.37 170.875 927.103 172.067 927.103 173.8C927.103 175.483 927.336 176.658 927.803 177.325C928.286 177.975 929.178 178.3 930.478 178.3C931.095 178.3 931.686 178.225 932.253 178.075C932.82 177.908 933.345 177.667 933.828 177.35V169.75C933.428 169.583 933.003 169.458 932.553 169.375C932.103 169.292 931.603 169.25 931.053 169.25ZM940.728 177.85L940.103 181.725C940.07 181.975 939.97 182.167 939.803 182.3C939.653 182.433 939.453 182.5 939.203 182.5H938.553L938.678 177.85H940.728ZM955.361 163.375H957.411V180H955.636L955.486 178.85H955.436C954.953 179.3 954.361 179.642 953.661 179.875C952.978 180.092 952.186 180.2 951.286 180.2C949.603 180.2 948.394 179.7 947.661 178.7C946.944 177.7 946.586 176.067 946.586 173.8C946.586 171.533 947.028 169.9 947.911 168.9C948.794 167.9 950.269 167.4 952.336 167.4C952.919 167.4 953.461 167.45 953.961 167.55C954.478 167.633 954.944 167.758 955.361 167.925V163.375ZM952.586 169.25C951.036 169.25 949.986 169.575 949.436 170.225C948.903 170.875 948.636 172.067 948.636 173.8C948.636 175.483 948.869 176.658 949.336 177.325C949.819 177.975 950.711 178.3 952.011 178.3C952.628 178.3 953.219 178.225 953.786 178.075C954.353 177.908 954.878 177.667 955.361 177.35V169.75C954.961 169.583 954.536 169.458 954.086 169.375C953.636 169.292 953.136 169.25 952.586 169.25ZM969.987 177.6V179.325C969.553 179.558 968.912 179.767 968.062 179.95C967.228 180.117 966.378 180.2 965.512 180.2C963.578 180.2 962.195 179.7 961.362 178.7C960.528 177.7 960.112 176.05 960.112 173.75C960.112 171.533 960.545 169.925 961.412 168.925C962.278 167.908 963.662 167.4 965.562 167.4C967.328 167.4 968.595 167.8 969.362 168.6C970.128 169.383 970.512 170.7 970.512 172.55C970.512 172.883 970.503 173.192 970.487 173.475C970.47 173.758 970.437 174.1 970.387 174.5H962.187C962.203 175.867 962.478 176.842 963.012 177.425C963.562 178.008 964.503 178.3 965.837 178.3C966.553 178.3 967.303 178.233 968.087 178.1C968.87 177.967 969.503 177.8 969.987 177.6ZM968.637 172.275C968.62 171.175 968.378 170.4 967.912 169.95C967.445 169.483 966.662 169.25 965.562 169.25C964.328 169.25 963.453 169.517 962.937 170.05C962.437 170.567 962.187 171.483 962.187 172.8H968.612C968.612 172.767 968.612 172.692 968.612 172.575C968.628 172.442 968.637 172.342 968.637 172.275ZM977.413 169.25C976.346 169.25 975.604 169.375 975.188 169.625C974.788 169.875 974.588 170.383 974.588 171.15C974.588 171.55 974.679 171.858 974.863 172.075C975.063 172.275 975.371 172.408 975.788 172.475L978.963 172.95C979.963 173.1 980.663 173.417 981.063 173.9C981.463 174.367 981.663 175.108 981.663 176.125C981.663 177.558 981.321 178.6 980.638 179.25C979.954 179.883 978.821 180.2 977.238 180.2C976.288 180.2 975.404 180.15 974.588 180.05C973.771 179.95 973.096 179.817 972.563 179.65V177.725C973.096 177.892 973.746 178.033 974.513 178.15C975.296 178.25 976.096 178.3 976.913 178.3C977.946 178.3 978.654 178.15 979.038 177.85C979.421 177.55 979.613 177.017 979.613 176.25C979.613 175.767 979.504 175.417 979.288 175.2C979.071 174.967 978.679 174.808 978.113 174.725L974.938 174.25C974.138 174.133 973.538 173.825 973.138 173.325C972.754 172.825 972.554 172.1 972.538 171.15C972.538 169.85 972.921 168.9 973.688 168.3C974.471 167.7 975.671 167.4 977.288 167.4C977.954 167.4 978.554 167.417 979.088 167.45C979.638 167.483 980.213 167.55 980.813 167.65V169.475C980.379 169.408 979.871 169.358 979.288 169.325C978.704 169.275 978.079 169.25 977.413 169.25ZM986.274 165.5H984.074V163.375H986.274V165.5ZM986.199 180H984.149V167.65H986.199V180ZM994.521 184.05C993.687 184.05 992.904 183.992 992.171 183.875C991.454 183.775 990.862 183.633 990.396 183.45V181.625C990.779 181.775 991.337 181.9 992.071 182C992.821 182.1 993.562 182.15 994.296 182.15C995.546 182.15 996.412 181.9 996.896 181.4C997.379 180.917 997.621 180.05 997.621 178.8V178.025C997.004 178.392 996.346 178.675 995.646 178.875C994.946 179.058 994.237 179.15 993.521 179.15C991.871 179.15 990.687 178.692 989.971 177.775C989.271 176.858 988.921 175.358 988.921 173.275C988.921 171.158 989.371 169.65 990.271 168.75C991.187 167.85 992.737 167.4 994.921 167.4C995.704 167.4 996.546 167.45 997.446 167.55C998.346 167.633 999.087 167.742 999.671 167.875V178.225C999.671 180.392 999.287 181.9 998.521 182.75C997.754 183.617 996.421 184.05 994.521 184.05ZM994.921 169.25C993.321 169.25 992.262 169.525 991.746 170.075C991.229 170.625 990.971 171.692 990.971 173.275C990.971 174.775 991.187 175.817 991.621 176.4C992.071 176.967 992.929 177.25 994.196 177.25C994.746 177.25 995.312 177.175 995.896 177.025C996.496 176.858 997.071 176.633 997.621 176.35V169.525C997.221 169.442 996.787 169.375 996.321 169.325C995.871 169.275 995.404 169.25 994.921 169.25ZM1005 180H1002.95V167.65H1004.72L1004.82 168.85H1004.9C1005.56 168.35 1006.26 167.983 1006.97 167.75C1007.71 167.517 1008.52 167.4 1009.42 167.4C1010.79 167.4 1011.82 167.742 1012.52 168.425C1013.24 169.108 1013.6 170.117 1013.6 171.45V180H1011.55V171.7C1011.55 170.867 1011.31 170.25 1010.85 169.85C1010.38 169.45 1009.66 169.25 1008.7 169.25C1008.1 169.25 1007.48 169.35 1006.85 169.55C1006.23 169.733 1005.61 170.008 1005 170.375V180ZM1026.07 177.6V179.325C1025.63 179.558 1024.99 179.767 1024.14 179.95C1023.31 180.117 1022.46 180.2 1021.59 180.2C1019.66 180.2 1018.27 179.7 1017.44 178.7C1016.61 177.7 1016.19 176.05 1016.19 173.75C1016.19 171.533 1016.62 169.925 1017.49 168.925C1018.36 167.908 1019.74 167.4 1021.64 167.4C1023.41 167.4 1024.67 167.8 1025.44 168.6C1026.21 169.383 1026.59 170.7 1026.59 172.55C1026.59 172.883 1026.58 173.192 1026.57 173.475C1026.55 173.758 1026.52 174.1 1026.47 174.5H1018.27C1018.28 175.867 1018.56 176.842 1019.09 177.425C1019.64 178.008 1020.58 178.3 1021.92 178.3C1022.63 178.3 1023.38 178.233 1024.17 178.1C1024.95 177.967 1025.58 177.8 1026.07 177.6ZM1024.72 172.275C1024.7 171.175 1024.46 170.4 1023.99 169.95C1023.52 169.483 1022.74 169.25 1021.64 169.25C1020.41 169.25 1019.53 169.517 1019.02 170.05C1018.52 170.567 1018.27 171.483 1018.27 172.8H1024.69C1024.69 172.767 1024.69 172.692 1024.69 172.575C1024.71 172.442 1024.72 172.342 1024.72 172.275ZM1031.29 180H1029.24V167.65H1031.12L1031.22 168.7H1031.32C1031.97 168.317 1032.62 168.033 1033.27 167.85C1033.92 167.65 1034.56 167.55 1035.19 167.55C1035.46 167.55 1035.63 167.55 1035.72 167.55C1035.82 167.55 1035.89 167.558 1035.94 167.575V169.55C1035.83 169.517 1035.68 169.5 1035.49 169.5C1035.33 169.483 1035.06 169.475 1034.69 169.475C1034.09 169.475 1033.5 169.55 1032.92 169.7C1032.35 169.833 1031.81 170.042 1031.29 170.325V180ZM1054.9 167.65H1057.12L1053.7 180H1051.3L1048.6 170.375L1046.07 180H1043.67L1040.25 167.65H1042.5L1044.9 178.075L1047.57 167.65H1049.62L1052.47 178.075L1054.9 167.65ZM1069.93 173.8C1069.93 176.133 1069.49 177.783 1068.63 178.75C1067.78 179.717 1066.31 180.2 1064.23 180.2C1062.08 180.2 1060.58 179.733 1059.75 178.8C1058.92 177.867 1058.5 176.2 1058.5 173.8C1058.5 171.45 1058.93 169.8 1059.78 168.85C1060.64 167.883 1062.13 167.4 1064.23 167.4C1066.38 167.4 1067.86 167.867 1068.68 168.8C1069.51 169.733 1069.93 171.4 1069.93 173.8ZM1060.55 173.775C1060.55 175.608 1060.79 176.825 1061.28 177.425C1061.76 178.008 1062.74 178.3 1064.23 178.3C1065.66 178.3 1066.63 177.992 1067.13 177.375C1067.63 176.742 1067.88 175.542 1067.88 173.775C1067.88 171.942 1067.63 170.733 1067.15 170.15C1066.68 169.55 1065.71 169.25 1064.23 169.25C1062.78 169.25 1061.8 169.558 1061.3 170.175C1060.8 170.792 1060.55 171.992 1060.55 173.775ZM1074.7 180H1072.65V167.65H1074.53L1074.63 168.7H1074.73C1075.38 168.317 1076.03 168.033 1076.68 167.85C1077.33 167.65 1077.97 167.55 1078.6 167.55C1078.87 167.55 1079.04 167.55 1079.13 167.55C1079.23 167.55 1079.3 167.558 1079.35 167.575V169.55C1079.23 169.517 1079.08 169.5 1078.9 169.5C1078.73 169.483 1078.47 169.475 1078.1 169.475C1077.5 169.475 1076.91 169.55 1076.33 169.7C1075.76 169.833 1075.22 170.042 1074.7 170.325V180ZM1083.51 174.65V180H1081.46V163.375H1083.51V172.875H1084.99L1089.31 167.65H1091.79L1086.66 173.65L1092.04 180H1089.46L1085.06 174.65H1083.51ZM1097.87 169.25C1096.81 169.25 1096.06 169.375 1095.65 169.625C1095.25 169.875 1095.05 170.383 1095.05 171.15C1095.05 171.55 1095.14 171.858 1095.32 172.075C1095.52 172.275 1095.83 172.408 1096.25 172.475L1099.42 172.95C1100.42 173.1 1101.12 173.417 1101.52 173.9C1101.92 174.367 1102.12 175.108 1102.12 176.125C1102.12 177.558 1101.78 178.6 1101.1 179.25C1100.41 179.883 1099.28 180.2 1097.7 180.2C1096.75 180.2 1095.86 180.15 1095.05 180.05C1094.23 179.95 1093.56 179.817 1093.02 179.65V177.725C1093.56 177.892 1094.21 178.033 1094.97 178.15C1095.76 178.25 1096.56 178.3 1097.37 178.3C1098.41 178.3 1099.11 178.15 1099.5 177.85C1099.88 177.55 1100.07 177.017 1100.07 176.25C1100.07 175.767 1099.96 175.417 1099.75 175.2C1099.53 174.967 1099.14 174.808 1098.57 174.725L1095.4 174.25C1094.6 174.133 1094 173.825 1093.6 173.325C1093.21 172.825 1093.01 172.1 1093 171.15C1093 169.85 1093.38 168.9 1094.15 168.3C1094.93 167.7 1096.13 167.4 1097.75 167.4C1098.41 167.4 1099.01 167.417 1099.55 167.45C1100.1 167.483 1100.67 167.55 1101.27 167.65V169.475C1100.84 169.408 1100.33 169.358 1099.75 169.325C1099.16 169.275 1098.54 169.25 1097.87 169.25ZM1111.68 180.2C1110.41 180.2 1109.48 179.9 1108.88 179.3C1108.3 178.683 1108.01 177.717 1108.01 176.4C1108.01 175.067 1108.36 174.125 1109.08 173.575C1109.8 173.008 1111.01 172.725 1112.73 172.725C1113.3 172.725 1113.86 172.75 1114.41 172.8C1114.96 172.85 1115.47 172.925 1115.96 173.025V171.825C1115.96 170.908 1115.72 170.25 1115.26 169.85C1114.79 169.45 1114.04 169.25 1113.01 169.25C1112.24 169.25 1111.56 169.283 1110.98 169.35C1110.4 169.4 1109.81 169.492 1109.23 169.625V167.85C1109.9 167.683 1110.57 167.567 1111.26 167.5C1111.96 167.433 1112.75 167.4 1113.63 167.4C1115.11 167.4 1116.21 167.75 1116.93 168.45C1117.65 169.133 1118.01 170.2 1118.01 171.65V180H1116.13L1116.03 178.85H1115.98C1115.48 179.25 1114.83 179.575 1114.03 179.825C1113.25 180.075 1112.46 180.2 1111.68 180.2ZM1112.96 174.4C1111.82 174.4 1111.03 174.542 1110.58 174.825C1110.15 175.092 1109.93 175.575 1109.93 176.275C1109.93 177.008 1110.11 177.542 1110.48 177.875C1110.85 178.192 1111.45 178.35 1112.28 178.35C1112.93 178.35 1113.6 178.25 1114.28 178.05C1114.96 177.85 1115.52 177.6 1115.96 177.3V174.65C1115.41 174.567 1114.89 174.508 1114.41 174.475C1113.94 174.425 1113.46 174.4 1112.96 174.4ZM1129.83 177.55V179.275C1129.42 179.542 1128.79 179.767 1127.96 179.95C1127.14 180.117 1126.28 180.2 1125.38 180.2C1123.63 180.2 1122.4 179.725 1121.68 178.775C1120.98 177.825 1120.63 176.167 1120.63 173.8C1120.63 171.483 1121.09 169.842 1122.01 168.875C1122.93 167.892 1124.48 167.4 1126.68 167.4C1127.17 167.4 1127.6 167.417 1127.98 167.45C1128.38 167.467 1128.89 167.517 1129.51 167.6V169.425C1128.89 169.342 1128.38 169.292 1127.98 169.275C1127.6 169.258 1127.17 169.25 1126.68 169.25C1125.12 169.25 1124.06 169.575 1123.51 170.225C1122.96 170.858 1122.68 172.05 1122.68 173.8C1122.68 175.55 1122.9 176.742 1123.33 177.375C1123.77 177.992 1124.6 178.3 1125.83 178.3C1126.52 178.3 1127.23 178.233 1127.96 178.1C1128.69 177.95 1129.32 177.767 1129.83 177.55ZM1140.82 177.55V179.275C1140.4 179.542 1139.78 179.767 1138.95 179.95C1138.13 180.117 1137.27 180.2 1136.37 180.2C1134.62 180.2 1133.39 179.725 1132.67 178.775C1131.97 177.825 1131.62 176.167 1131.62 173.8C1131.62 171.483 1132.08 169.842 1133 168.875C1133.91 167.892 1135.47 167.4 1137.67 167.4C1138.15 167.4 1138.59 167.417 1138.97 167.45C1139.37 167.467 1139.88 167.517 1140.5 167.6V169.425C1139.88 169.342 1139.37 169.292 1138.97 169.275C1138.59 169.258 1138.15 169.25 1137.67 169.25C1136.1 169.25 1135.05 169.575 1134.5 170.225C1133.95 170.858 1133.67 172.05 1133.67 173.8C1133.67 175.55 1133.89 176.742 1134.32 177.375C1134.75 177.992 1135.59 178.3 1136.82 178.3C1137.5 178.3 1138.21 178.233 1138.95 178.1C1139.68 177.95 1140.3 177.767 1140.82 177.55ZM1153.93 173.8C1153.93 176.133 1153.5 177.783 1152.63 178.75C1151.78 179.717 1150.32 180.2 1148.23 180.2C1146.08 180.2 1144.59 179.733 1143.76 178.8C1142.93 177.867 1142.51 176.2 1142.51 173.8C1142.51 171.45 1142.93 169.8 1143.78 168.85C1144.65 167.883 1146.13 167.4 1148.23 167.4C1150.38 167.4 1151.87 167.867 1152.68 168.8C1153.52 169.733 1153.93 171.4 1153.93 173.8ZM1144.56 173.775C1144.56 175.608 1144.8 176.825 1145.28 177.425C1145.77 178.008 1146.75 178.3 1148.23 178.3C1149.67 178.3 1150.63 177.992 1151.13 177.375C1151.63 176.742 1151.88 175.542 1151.88 173.775C1151.88 171.942 1151.64 170.733 1151.16 170.15C1150.69 169.55 1149.72 169.25 1148.23 169.25C1146.78 169.25 1145.81 169.558 1145.31 170.175C1144.81 170.792 1144.56 171.992 1144.56 173.775ZM1158.71 180H1156.66V167.65H1158.53L1158.63 168.7H1158.73C1159.38 168.317 1160.03 168.033 1160.68 167.85C1161.33 167.65 1161.98 167.55 1162.61 167.55C1162.88 167.55 1163.05 167.55 1163.13 167.55C1163.23 167.55 1163.31 167.558 1163.36 167.575V169.55C1163.24 169.517 1163.09 169.5 1162.91 169.5C1162.74 169.483 1162.48 169.475 1162.11 169.475C1161.51 169.475 1160.92 169.55 1160.33 169.7C1159.77 169.833 1159.23 170.042 1158.71 170.325V180ZM1173.31 163.375H1175.36V180H1173.58L1173.43 178.85H1173.38C1172.9 179.3 1172.31 179.642 1171.61 179.875C1170.92 180.092 1170.13 180.2 1169.23 180.2C1167.55 180.2 1166.34 179.7 1165.61 178.7C1164.89 177.7 1164.53 176.067 1164.53 173.8C1164.53 171.533 1164.97 169.9 1165.86 168.9C1166.74 167.9 1168.21 167.4 1170.28 167.4C1170.86 167.4 1171.41 167.45 1171.91 167.55C1172.42 167.633 1172.89 167.758 1173.31 167.925V163.375ZM1170.53 169.25C1168.98 169.25 1167.93 169.575 1167.38 170.225C1166.85 170.875 1166.58 172.067 1166.58 173.8C1166.58 175.483 1166.81 176.658 1167.28 177.325C1167.76 177.975 1168.66 178.3 1169.96 178.3C1170.57 178.3 1171.16 178.225 1171.73 178.075C1172.3 177.908 1172.82 177.667 1173.31 177.35V169.75C1172.91 169.583 1172.48 169.458 1172.03 169.375C1171.58 169.292 1171.08 169.25 1170.53 169.25ZM1180.78 165.5H1178.58V163.375H1180.78V165.5ZM1180.71 180H1178.66V167.65H1180.71V180ZM1186.05 180H1184V167.65H1185.78L1185.88 168.85H1185.95C1186.62 168.35 1187.31 167.983 1188.03 167.75C1188.76 167.517 1189.58 167.4 1190.48 167.4C1191.84 167.4 1192.88 167.742 1193.58 168.425C1194.29 169.108 1194.65 170.117 1194.65 171.45V180H1192.6V171.7C1192.6 170.867 1192.37 170.25 1191.9 169.85C1191.44 169.45 1190.72 169.25 1189.75 169.25C1189.15 169.25 1188.54 169.35 1187.9 169.55C1187.29 169.733 1186.67 170.008 1186.05 170.375V180ZM1202.87 184.05C1202.04 184.05 1201.25 183.992 1200.52 183.875C1199.8 183.775 1199.21 183.633 1198.75 183.45V181.625C1199.13 181.775 1199.69 181.9 1200.42 182C1201.17 182.1 1201.91 182.15 1202.65 182.15C1203.9 182.15 1204.76 181.9 1205.25 181.4C1205.73 180.917 1205.97 180.05 1205.97 178.8V178.025C1205.35 178.392 1204.7 178.675 1204 178.875C1203.3 179.058 1202.59 179.15 1201.87 179.15C1200.22 179.15 1199.04 178.692 1198.32 177.775C1197.62 176.858 1197.27 175.358 1197.27 173.275C1197.27 171.158 1197.72 169.65 1198.62 168.75C1199.54 167.85 1201.09 167.4 1203.27 167.4C1204.05 167.4 1204.9 167.45 1205.8 167.55C1206.7 167.633 1207.44 167.742 1208.02 167.875V178.225C1208.02 180.392 1207.64 181.9 1206.87 182.75C1206.1 183.617 1204.77 184.05 1202.87 184.05ZM1203.27 169.25C1201.67 169.25 1200.61 169.525 1200.1 170.075C1199.58 170.625 1199.32 171.692 1199.32 173.275C1199.32 174.775 1199.54 175.817 1199.97 176.4C1200.42 176.967 1201.28 177.25 1202.55 177.25C1203.1 177.25 1203.66 177.175 1204.25 177.025C1204.85 176.858 1205.42 176.633 1205.97 176.35V169.525C1205.57 169.442 1205.14 169.375 1204.67 169.325C1204.22 169.275 1203.75 169.25 1203.27 169.25ZM1222.4 178.075V179.8C1222.14 179.917 1221.77 180.008 1221.3 180.075C1220.85 180.158 1220.42 180.2 1220 180.2C1218.5 180.2 1217.43 179.867 1216.78 179.2C1216.15 178.533 1215.83 177.383 1215.83 175.75V169.4H1213.98V167.65H1215.85L1216.18 164.65H1217.88V167.65H1222.28V169.4H1217.88V175.675C1217.88 176.692 1218.06 177.383 1218.43 177.75C1218.81 178.117 1219.48 178.3 1220.43 178.3C1220.73 178.3 1221.07 178.275 1221.45 178.225C1221.85 178.175 1222.17 178.125 1222.4 178.075ZM1235.14 173.8C1235.14 176.133 1234.7 177.783 1233.84 178.75C1232.99 179.717 1231.52 180.2 1229.44 180.2C1227.29 180.2 1225.79 179.733 1224.96 178.8C1224.13 177.867 1223.71 176.2 1223.71 173.8C1223.71 171.45 1224.14 169.8 1224.99 168.85C1225.85 167.883 1227.34 167.4 1229.44 167.4C1231.59 167.4 1233.07 167.867 1233.89 168.8C1234.72 169.733 1235.14 171.4 1235.14 173.8ZM1225.76 173.775C1225.76 175.608 1226 176.825 1226.49 177.425C1226.97 178.008 1227.95 178.3 1229.44 178.3C1230.87 178.3 1231.84 177.992 1232.34 177.375C1232.84 176.742 1233.09 175.542 1233.09 173.775C1233.09 171.942 1232.84 170.733 1232.36 170.15C1231.89 169.55 1230.92 169.25 1229.44 169.25C1227.99 169.25 1227.01 169.558 1226.51 170.175C1226.01 170.792 1225.76 171.992 1225.76 173.775ZM1242.72 182.2C1243.35 182.2 1243.83 182.058 1244.15 181.775C1244.48 181.508 1244.83 180.858 1245.2 179.825L1240.15 167.65H1242.45L1246.25 177.775L1249.85 167.65H1252.05L1247 180.825C1246.55 182.025 1246.02 182.858 1245.42 183.325C1244.82 183.808 1244.05 184.05 1243.1 184.05C1242.81 184.05 1242.51 184.033 1242.2 184C1241.9 183.967 1241.6 183.925 1241.3 183.875V182.075C1241.48 182.125 1241.68 182.158 1241.9 182.175C1242.13 182.192 1242.4 182.2 1242.72 182.2ZM1264.58 173.8C1264.58 176.133 1264.15 177.783 1263.28 178.75C1262.43 179.717 1260.96 180.2 1258.88 180.2C1256.73 180.2 1255.24 179.733 1254.4 178.8C1253.57 177.867 1253.15 176.2 1253.15 173.8C1253.15 171.45 1253.58 169.8 1254.43 168.85C1255.3 167.883 1256.78 167.4 1258.88 167.4C1261.03 167.4 1262.51 167.867 1263.33 168.8C1264.16 169.733 1264.58 171.4 1264.58 173.8ZM1255.2 173.775C1255.2 175.608 1255.45 176.825 1255.93 177.425C1256.41 178.008 1257.4 178.3 1258.88 178.3C1260.31 178.3 1261.28 177.992 1261.78 177.375C1262.28 176.742 1262.53 175.542 1262.53 173.775C1262.53 171.942 1262.29 170.733 1261.8 170.15C1261.34 169.55 1260.36 169.25 1258.88 169.25C1257.43 169.25 1256.45 169.558 1255.95 170.175C1255.45 170.792 1255.2 171.992 1255.2 173.775ZM1271.3 180.2C1269.94 180.2 1268.91 179.858 1268.23 179.175C1267.54 178.492 1267.2 177.467 1267.2 176.1V167.65H1269.25V175.85C1269.25 176.7 1269.47 177.317 1269.9 177.7C1270.34 178.083 1271.02 178.275 1271.95 178.275C1272.52 178.275 1273.09 178.208 1273.65 178.075C1274.24 177.925 1274.82 177.7 1275.4 177.4V167.65H1277.45V180H1275.58L1275.48 178.975H1275.43C1274.56 179.425 1273.81 179.742 1273.18 179.925C1272.54 180.108 1271.92 180.2 1271.3 180.2ZM1282.81 180H1280.76V167.65H1282.63L1282.73 168.7H1282.83C1283.48 168.317 1284.13 168.033 1284.78 167.85C1285.43 167.65 1286.07 167.55 1286.71 167.55C1286.97 167.55 1287.15 167.55 1287.23 167.55C1287.33 167.55 1287.41 167.558 1287.46 167.575V169.55C1287.34 169.517 1287.19 169.5 1287.01 169.5C1286.84 169.483 1286.57 169.475 1286.21 169.475C1285.61 169.475 1285.01 169.55 1284.43 169.7C1283.86 169.833 1283.32 170.042 1282.81 170.325V180ZM624.7 210H622.65V197.65H624.525L624.625 198.7H624.725C625.375 198.317 626.025 198.033 626.675 197.85C627.325 197.65 627.967 197.55 628.6 197.55C628.867 197.55 629.042 197.55 629.125 197.55C629.225 197.55 629.3 197.558 629.35 197.575V199.55C629.233 199.517 629.083 199.5 628.9 199.5C628.733 199.483 628.467 199.475 628.1 199.475C627.5 199.475 626.908 199.55 626.325 199.7C625.758 199.833 625.217 200.042 624.7 200.325V210ZM640.421 207.6V209.325C639.988 209.558 639.346 209.767 638.496 209.95C637.663 210.117 636.813 210.2 635.946 210.2C634.013 210.2 632.629 209.7 631.796 208.7C630.963 207.7 630.546 206.05 630.546 203.75C630.546 201.533 630.979 199.925 631.846 198.925C632.713 197.908 634.096 197.4 635.996 197.4C637.763 197.4 639.029 197.8 639.796 198.6C640.563 199.383 640.946 200.7 640.946 202.55C640.946 202.883 640.938 203.192 640.921 203.475C640.904 203.758 640.871 204.1 640.821 204.5H632.621C632.638 205.867 632.913 206.842 633.446 207.425C633.996 208.008 634.938 208.3 636.271 208.3C636.988 208.3 637.738 208.233 638.521 208.1C639.304 207.967 639.938 207.8 640.421 207.6ZM639.071 202.275C639.054 201.175 638.813 200.4 638.346 199.95C637.879 199.483 637.096 199.25 635.996 199.25C634.763 199.25 633.888 199.517 633.371 200.05C632.871 200.567 632.621 201.483 632.621 202.8H639.046C639.046 202.767 639.046 202.692 639.046 202.575C639.063 202.442 639.071 202.342 639.071 202.275ZM644.2 199.4H642.35V197.65H644.2V197.35C644.2 195.917 644.55 194.858 645.25 194.175C645.95 193.475 647.025 193.125 648.475 193.125C648.842 193.125 649.209 193.142 649.575 193.175C649.942 193.208 650.284 193.258 650.6 193.325V195.075C650.4 195.025 650.125 194.992 649.775 194.975C649.442 194.942 649.109 194.925 648.775 194.925C647.825 194.925 647.167 195.1 646.8 195.45C646.434 195.783 646.25 196.4 646.25 197.3V197.65H650.225V199.4H646.25V210H644.2V199.4ZM661.124 207.6V209.325C660.691 209.558 660.049 209.767 659.199 209.95C658.366 210.117 657.516 210.2 656.649 210.2C654.716 210.2 653.333 209.7 652.499 208.7C651.666 207.7 651.249 206.05 651.249 203.75C651.249 201.533 651.683 199.925 652.549 198.925C653.416 197.908 654.799 197.4 656.699 197.4C658.466 197.4 659.733 197.8 660.499 198.6C661.266 199.383 661.649 200.7 661.649 202.55C661.649 202.883 661.641 203.192 661.624 203.475C661.608 203.758 661.574 204.1 661.524 204.5H653.324C653.341 205.867 653.616 206.842 654.149 207.425C654.699 208.008 655.641 208.3 656.974 208.3C657.691 208.3 658.441 208.233 659.224 208.1C660.008 207.967 660.641 207.8 661.124 207.6ZM659.774 202.275C659.758 201.175 659.516 200.4 659.049 199.95C658.583 199.483 657.799 199.25 656.699 199.25C655.466 199.25 654.591 199.517 654.074 200.05C653.574 200.567 653.324 201.483 653.324 202.8H659.749C659.749 202.767 659.749 202.692 659.749 202.575C659.766 202.442 659.774 202.342 659.774 202.275ZM666.35 210H664.3V197.65H666.175L666.275 198.7H666.375C667.025 198.317 667.675 198.033 668.325 197.85C668.975 197.65 669.617 197.55 670.25 197.55C670.517 197.55 670.692 197.55 670.775 197.55C670.875 197.55 670.95 197.558 671 197.575V199.55C670.884 199.517 670.734 199.5 670.55 199.5C670.384 199.483 670.117 199.475 669.75 199.475C669.15 199.475 668.559 199.55 667.975 199.7C667.409 199.833 666.867 200.042 666.35 200.325V210ZM682.071 207.6V209.325C681.638 209.558 680.996 209.767 680.146 209.95C679.313 210.117 678.463 210.2 677.596 210.2C675.663 210.2 674.28 209.7 673.446 208.7C672.613 207.7 672.196 206.05 672.196 203.75C672.196 201.533 672.63 199.925 673.496 198.925C674.363 197.908 675.746 197.4 677.646 197.4C679.413 197.4 680.68 197.8 681.446 198.6C682.213 199.383 682.596 200.7 682.596 202.55C682.596 202.883 682.588 203.192 682.571 203.475C682.555 203.758 682.521 204.1 682.471 204.5H674.271C674.288 205.867 674.563 206.842 675.096 207.425C675.646 208.008 676.588 208.3 677.921 208.3C678.638 208.3 679.388 208.233 680.171 208.1C680.955 207.967 681.588 207.8 682.071 207.6ZM680.721 202.275C680.705 201.175 680.463 200.4 679.996 199.95C679.53 199.483 678.746 199.25 677.646 199.25C676.413 199.25 675.538 199.517 675.021 200.05C674.521 200.567 674.271 201.483 674.271 202.8H680.696C680.696 202.767 680.696 202.692 680.696 202.575C680.713 202.442 680.721 202.342 680.721 202.275ZM687.298 210H685.248V197.65H687.023L687.123 198.85H687.198C687.864 198.35 688.556 197.983 689.273 197.75C690.006 197.517 690.823 197.4 691.723 197.4C693.089 197.4 694.123 197.742 694.823 198.425C695.539 199.108 695.898 200.117 695.898 201.45V210H693.848V201.7C693.848 200.867 693.614 200.25 693.148 199.85C692.681 199.45 691.964 199.25 690.998 199.25C690.398 199.25 689.781 199.35 689.148 199.55C688.531 199.733 687.914 200.008 687.298 200.375V210ZM707.715 207.55V209.275C707.299 209.542 706.674 209.767 705.84 209.95C705.024 210.117 704.165 210.2 703.265 210.2C701.515 210.2 700.282 209.725 699.565 208.775C698.865 207.825 698.515 206.167 698.515 203.8C698.515 201.483 698.974 199.842 699.89 198.875C700.807 197.892 702.365 197.4 704.565 197.4C705.049 197.4 705.482 197.417 705.865 197.45C706.265 197.467 706.774 197.517 707.39 197.6V199.425C706.774 199.342 706.265 199.292 705.865 199.275C705.482 199.258 705.049 199.25 704.565 199.25C702.999 199.25 701.94 199.575 701.39 200.225C700.84 200.858 700.565 202.05 700.565 203.8C700.565 205.55 700.782 206.742 701.215 207.375C701.649 207.992 702.482 208.3 703.715 208.3C704.399 208.3 705.107 208.233 705.84 208.1C706.574 207.95 707.199 207.767 707.715 207.55ZM719.254 207.6V209.325C718.821 209.558 718.179 209.767 717.329 209.95C716.496 210.117 715.646 210.2 714.779 210.2C712.846 210.2 711.462 209.7 710.629 208.7C709.796 207.7 709.379 206.05 709.379 203.75C709.379 201.533 709.812 199.925 710.679 198.925C711.546 197.908 712.929 197.4 714.829 197.4C716.596 197.4 717.862 197.8 718.629 198.6C719.396 199.383 719.779 200.7 719.779 202.55C719.779 202.883 719.771 203.192 719.754 203.475C719.737 203.758 719.704 204.1 719.654 204.5H711.454C711.471 205.867 711.746 206.842 712.279 207.425C712.829 208.008 713.771 208.3 715.104 208.3C715.821 208.3 716.571 208.233 717.354 208.1C718.137 207.967 718.771 207.8 719.254 207.6ZM717.904 202.275C717.887 201.175 717.646 200.4 717.179 199.95C716.712 199.483 715.929 199.25 714.829 199.25C713.596 199.25 712.721 199.517 712.204 200.05C711.704 200.567 711.454 201.483 711.454 202.8H717.879C717.879 202.767 717.879 202.692 717.879 202.575C717.896 202.442 717.904 202.342 717.904 202.275ZM726.68 199.25C725.614 199.25 724.872 199.375 724.455 199.625C724.055 199.875 723.855 200.383 723.855 201.15C723.855 201.55 723.947 201.858 724.13 202.075C724.33 202.275 724.639 202.408 725.055 202.475L728.23 202.95C729.23 203.1 729.93 203.417 730.33 203.9C730.73 204.367 730.93 205.108 730.93 206.125C730.93 207.558 730.589 208.6 729.905 209.25C729.222 209.883 728.089 210.2 726.505 210.2C725.555 210.2 724.672 210.15 723.855 210.05C723.039 209.95 722.364 209.817 721.83 209.65V207.725C722.364 207.892 723.014 208.033 723.78 208.15C724.564 208.25 725.364 208.3 726.18 208.3C727.214 208.3 727.922 208.15 728.305 207.85C728.689 207.55 728.88 207.017 728.88 206.25C728.88 205.767 728.772 205.417 728.555 205.2C728.339 204.967 727.947 204.808 727.38 204.725L724.205 204.25C723.405 204.133 722.805 203.825 722.405 203.325C722.022 202.825 721.822 202.1 721.805 201.15C721.805 199.85 722.189 198.9 722.955 198.3C723.739 197.7 724.939 197.4 726.555 197.4C727.222 197.4 727.822 197.417 728.355 197.45C728.905 197.483 729.48 197.55 730.08 197.65V199.475C729.647 199.408 729.139 199.358 728.555 199.325C727.972 199.275 727.347 199.25 726.68 199.25ZM734.967 210H732.917V207.925H734.967V210ZM741.761 210H739.511L745.711 194.325H747.911L754.036 210H751.786L750.361 206.225H743.186L741.761 210ZM746.761 196.275C746.594 196.858 746.394 197.475 746.161 198.125C745.944 198.775 745.719 199.425 745.486 200.075L743.886 204.35H749.661L748.061 200.075C747.727 199.158 747.461 198.417 747.261 197.85C747.077 197.283 746.911 196.758 746.761 196.275ZM768.888 197.65H771.113L767.688 210H765.288L762.588 200.375L760.062 210H757.663L754.238 197.65H756.488L758.888 208.075L761.563 197.65H763.613L766.463 208.075L768.888 197.65ZM782.34 207.6V209.325C781.907 209.558 781.265 209.767 780.415 209.95C779.582 210.117 778.732 210.2 777.865 210.2C775.932 210.2 774.548 209.7 773.715 208.7C772.882 207.7 772.465 206.05 772.465 203.75C772.465 201.533 772.898 199.925 773.765 198.925C774.632 197.908 776.015 197.4 777.915 197.4C779.682 197.4 780.948 197.8 781.715 198.6C782.482 199.383 782.865 200.7 782.865 202.55C782.865 202.883 782.857 203.192 782.84 203.475C782.823 203.758 782.79 204.1 782.74 204.5H774.54C774.557 205.867 774.832 206.842 775.365 207.425C775.915 208.008 776.857 208.3 778.19 208.3C778.907 208.3 779.657 208.233 780.44 208.1C781.223 207.967 781.857 207.8 782.34 207.6ZM780.99 202.275C780.973 201.175 780.732 200.4 780.265 199.95C779.798 199.483 779.015 199.25 777.915 199.25C776.682 199.25 775.807 199.517 775.29 200.05C774.79 200.567 774.54 201.483 774.54 202.8H780.965C780.965 202.767 780.965 202.692 780.965 202.575C780.982 202.442 780.99 202.342 780.99 202.275ZM789.766 199.25C788.7 199.25 787.958 199.375 787.541 199.625C787.141 199.875 786.941 200.383 786.941 201.15C786.941 201.55 787.033 201.858 787.216 202.075C787.416 202.275 787.725 202.408 788.141 202.475L791.316 202.95C792.316 203.1 793.016 203.417 793.416 203.9C793.816 204.367 794.016 205.108 794.016 206.125C794.016 207.558 793.675 208.6 792.991 209.25C792.308 209.883 791.175 210.2 789.591 210.2C788.641 210.2 787.758 210.15 786.941 210.05C786.125 209.95 785.45 209.817 784.916 209.65V207.725C785.45 207.892 786.1 208.033 786.866 208.15C787.65 208.25 788.45 208.3 789.266 208.3C790.3 208.3 791.008 208.15 791.391 207.85C791.775 207.55 791.966 207.017 791.966 206.25C791.966 205.767 791.858 205.417 791.641 205.2C791.425 204.967 791.033 204.808 790.466 204.725L787.291 204.25C786.491 204.133 785.891 203.825 785.491 203.325C785.108 202.825 784.908 202.1 784.891 201.15C784.891 199.85 785.275 198.9 786.041 198.3C786.825 197.7 788.025 197.4 789.641 197.4C790.308 197.4 790.908 197.417 791.441 197.45C791.991 197.483 792.566 197.55 793.166 197.65V199.475C792.733 199.408 792.225 199.358 791.641 199.325C791.058 199.275 790.433 199.25 789.766 199.25ZM807.353 203.8C807.353 206.133 806.919 207.783 806.053 208.75C805.203 209.717 803.736 210.2 801.653 210.2C799.503 210.2 798.011 209.733 797.178 208.8C796.344 207.867 795.928 206.2 795.928 203.8C795.928 201.45 796.353 199.8 797.203 198.85C798.069 197.883 799.553 197.4 801.653 197.4C803.803 197.4 805.286 197.867 806.103 198.8C806.936 199.733 807.353 201.4 807.353 203.8ZM797.978 203.775C797.978 205.608 798.219 206.825 798.703 207.425C799.186 208.008 800.169 208.3 801.653 208.3C803.086 208.3 804.053 207.992 804.553 207.375C805.053 206.742 805.303 205.542 805.303 203.775C805.303 201.942 805.061 200.733 804.578 200.15C804.111 199.55 803.136 199.25 801.653 199.25C800.203 199.25 799.228 199.558 798.728 200.175C798.228 200.792 797.978 201.992 797.978 203.775ZM812.127 210H810.077V197.65H811.952L812.052 198.6H812.127C812.86 198.183 813.527 197.883 814.127 197.7C814.727 197.5 815.327 197.4 815.927 197.4C816.627 197.4 817.227 197.508 817.727 197.725C818.227 197.942 818.618 198.267 818.902 198.7H818.977C819.643 198.283 820.343 197.967 821.077 197.75C821.827 197.517 822.577 197.4 823.327 197.4C824.51 197.4 825.402 197.717 826.002 198.35C826.618 198.967 826.927 199.883 826.927 201.1V210H824.877V201.35C824.877 200.633 824.685 200.108 824.302 199.775C823.918 199.425 823.31 199.25 822.477 199.25C822.01 199.25 821.518 199.325 821.002 199.475C820.485 199.608 819.968 199.808 819.452 200.075C819.485 200.242 819.502 200.408 819.502 200.575C819.518 200.742 819.527 200.917 819.527 201.1V210H817.477V201.35C817.477 200.633 817.285 200.108 816.902 199.775C816.518 199.425 815.91 199.25 815.077 199.25C814.66 199.25 814.218 199.325 813.752 199.475C813.285 199.608 812.743 199.842 812.127 200.175V210ZM839.396 207.6V209.325C838.962 209.558 838.321 209.767 837.471 209.95C836.637 210.117 835.787 210.2 834.921 210.2C832.987 210.2 831.604 209.7 830.771 208.7C829.937 207.7 829.521 206.05 829.521 203.75C829.521 201.533 829.954 199.925 830.821 198.925C831.687 197.908 833.071 197.4 834.971 197.4C836.737 197.4 838.004 197.8 838.771 198.6C839.537 199.383 839.921 200.7 839.921 202.55C839.921 202.883 839.912 203.192 839.896 203.475C839.879 203.758 839.846 204.1 839.796 204.5H831.596C831.612 205.867 831.887 206.842 832.421 207.425C832.971 208.008 833.912 208.3 835.246 208.3C835.962 208.3 836.712 208.233 837.496 208.1C838.279 207.967 838.912 207.8 839.396 207.6ZM838.046 202.275C838.029 201.175 837.787 200.4 837.321 199.95C836.854 199.483 836.071 199.25 834.971 199.25C833.737 199.25 832.862 199.517 832.346 200.05C831.846 200.567 831.596 201.483 831.596 202.8H838.021C838.021 202.767 838.021 202.692 838.021 202.575C838.037 202.442 838.046 202.342 838.046 202.275ZM859.879 197.65H862.104L858.679 210H856.279L853.579 200.375L851.054 210H848.654L845.229 197.65H847.479L849.879 208.075L852.554 197.65H854.604L857.454 208.075L859.879 197.65ZM874.906 203.8C874.906 206.133 874.473 207.783 873.606 208.75C872.756 209.717 871.29 210.2 869.206 210.2C867.056 210.2 865.565 209.733 864.731 208.8C863.898 207.867 863.481 206.2 863.481 203.8C863.481 201.45 863.906 199.8 864.756 198.85C865.623 197.883 867.106 197.4 869.206 197.4C871.356 197.4 872.84 197.867 873.656 198.8C874.49 199.733 874.906 201.4 874.906 203.8ZM865.531 203.775C865.531 205.608 865.773 206.825 866.256 207.425C866.74 208.008 867.723 208.3 869.206 208.3C870.64 208.3 871.606 207.992 872.106 207.375C872.606 206.742 872.856 205.542 872.856 203.775C872.856 201.942 872.615 200.733 872.131 200.15C871.665 199.55 870.69 199.25 869.206 199.25C867.756 199.25 866.781 199.558 866.281 200.175C865.781 200.792 865.531 201.992 865.531 203.775ZM879.68 210H877.63V197.65H879.505L879.605 198.7H879.705C880.355 198.317 881.005 198.033 881.655 197.85C882.305 197.65 882.947 197.55 883.58 197.55C883.847 197.55 884.022 197.55 884.105 197.55C884.205 197.55 884.28 197.558 884.33 197.575V199.55C884.214 199.517 884.064 199.5 883.88 199.5C883.714 199.483 883.447 199.475 883.08 199.475C882.48 199.475 881.889 199.55 881.305 199.7C880.739 199.833 880.197 200.042 879.68 200.325V210ZM888.494 204.65V210H886.444V193.375H888.494V202.875H889.969L894.294 197.65H896.769L891.644 203.65L897.019 210H894.444L890.044 204.65H888.494ZM898.698 194.325H901.023L900.748 205.7H898.973L898.698 194.325ZM900.948 207.975V210H898.798V207.975H900.948Z" fill="#6B6B6B" fill-opacity="0.8"/>

<defs>
<filter id="filter0_dd" x="0" y="0" width="1744" height="424.5" filterUnits="userSpaceOnUse" color-interpolation-filters="sRGB">
<feFlood flood-opacity="0" result="BackgroundImageFix"/>
<feColorMatrix in="SourceAlpha" type="matrix" values="0 0 0 0 0 0 0 0 0 0 0 0 0 0 0 0 0 0 127 0"/>
<feOffset dx="10" dy="10"/>
<feGaussianBlur stdDeviation="10"/>
<feColorMatrix type="matrix" values="0 0 0 0 0 0 0 0 0 0 0 0 0 0 0 0 0 0 0.1 0"/>
<feBlend mode="normal" in2="BackgroundImageFix" result="effect1_dropShadow"/>
<feColorMatrix in="SourceAlpha" type="matrix" values="0 0 0 0 0 0 0 0 0 0 0 0 0 0 0 0 0 0 127 0"/>
<feOffset dx="-10" dy="-10"/>
<feGaussianBlur stdDeviation="10"/>
<feColorMatrix type="matrix" values="0 0 0 0 0 0 0 0 0 0 0 0 0 0 0 0 0 0 0.1 0"/>
<feBlend mode="normal" in2="effect1_dropShadow" result="effect2_dropShadow"/>
<feBlend mode="normal" in="SourceGraphic" in2="effect2_dropShadow" result="shape"/>
</filter>
</defs>
</svg>
