<svg width="237" height="254" viewBox="0 0 237 254" fill="none" xmlns="http://www.w3.org/2000/svg">
<g clip-path="url(#clip0)">
<path d="M126.756 220.793C187.585 220.793 236.897 171.367 236.897 110.396C236.897 49.4262 187.585 0 126.756 0C65.9266 0 16.6147 49.4262 16.6147 110.396C16.6147 171.367 65.9266 220.793 126.756 220.793Z" fill="#F2F2F2"/>
<path d="M236.902 208.979C236.902 211.245 185.575 223.529 122.26 223.529C58.9446 223.529 7.61768 211.245 7.61768 208.979C7.61768 206.712 58.9446 210.471 122.26 210.471C185.575 210.471 236.902 206.712 236.902 208.979Z" fill="#3F3D56"/>
<path opacity="0.1" d="M236.902 208.979C236.902 211.245 185.575 223.529 122.26 223.529C58.9446 223.529 7.61768 211.245 7.61768 208.979C7.61768 206.712 58.9446 210.471 122.26 210.471C185.575 210.471 236.902 206.712 236.902 208.979Z" fill="black"/>
<path d="M122.26 213.083C185.575 213.083 236.902 211.245 236.902 208.979C236.902 206.712 185.575 204.875 122.26 204.875C58.9447 204.875 7.61768 206.712 7.61768 208.979C7.61768 211.245 58.9447 213.083 122.26 213.083Z" fill="#3F3D56"/>
<path d="M231.789 207.86V170.926" stroke="#3F3D56" stroke-width="2" stroke-miterlimit="10"/>
<path d="M231.789 176.149C234.667 176.149 237 173.811 237 170.926C237 168.042 234.667 165.703 231.789 165.703C228.911 165.703 226.578 168.042 226.578 170.926C226.578 173.811 228.911 176.149 231.789 176.149Z" fill="#3F3D56"/>
<path d="M231.789 193.689C231.789 193.689 231.044 177.641 215.784 179.506L231.789 193.689Z" fill="#3F3D56"/>
<path d="M21.2163 210.613V89.0801" stroke="#3F3D56" stroke-width="2" stroke-miterlimit="10"/>
<path d="M21.2159 94.245C24.0938 94.245 26.4269 91.9065 26.4269 89.0219C26.4269 86.1373 24.0938 83.7988 21.2159 83.7988C18.3379 83.7988 16.0049 86.1373 16.0049 89.0219C16.0049 91.9065 18.3379 94.245 21.2159 94.245Z" fill="#3F3D56"/>
<path d="M5.211 183.38C8.08896 183.38 10.422 181.041 10.422 178.157C10.422 175.272 8.08896 172.934 5.211 172.934C2.33304 172.934 0 175.272 0 178.157C0 181.041 2.33304 183.38 5.211 183.38Z" fill="#3F3D56"/>
<path d="M21.2162 115.703C21.2162 115.703 20.4717 99.6546 5.21094 101.52L21.2162 115.703Z" fill="#3F3D56"/>
<path d="M21.2162 161.197C21.2162 161.197 20.4717 145.149 5.21094 147.014L21.2162 161.197Z" fill="#3F3D56"/>
<path d="M21.2161 209.178C21.2161 209.178 24.5661 179.649 5.21094 178.156" stroke="#3F3D56" stroke-width="2" stroke-miterlimit="10"/>
<path d="M37.2237 183.38C40.1016 183.38 42.4347 181.041 42.4347 178.157C42.4347 175.272 40.1016 172.934 37.2237 172.934C34.3457 172.934 32.0127 175.272 32.0127 178.157C32.0127 181.041 34.3457 183.38 37.2237 183.38Z" fill="#3F3D56"/>
<path d="M21.2181 209.178C21.2181 209.178 17.8681 179.649 37.2233 178.156" stroke="#3F3D56" stroke-width="2" stroke-miterlimit="10"/>
<path d="M37.5411 134.384C40.419 134.384 42.7521 132.045 42.7521 129.161C42.7521 126.276 40.419 123.938 37.5411 123.938C34.6631 123.938 32.3301 126.276 32.3301 129.161C32.3301 132.045 34.6631 134.384 37.5411 134.384Z" fill="#3F3D56"/>
<path d="M21.536 160.182C21.536 160.182 18.186 130.652 37.5412 129.16" stroke="#3F3D56" stroke-width="2" stroke-miterlimit="10"/>
<path d="M191.708 207.113V133.244" stroke="#3F3D56" stroke-width="2" stroke-miterlimit="10"/>
<path d="M191.709 138.468C194.587 138.468 196.92 136.129 196.92 133.245C196.92 130.36 194.587 128.021 191.709 128.021C188.831 128.021 186.498 130.36 186.498 133.245C186.498 136.129 188.831 138.468 191.709 138.468Z" fill="#3F3D56"/>
<path d="M191.708 154.515C191.708 154.515 192.453 138.467 207.714 140.333L191.708 154.515Z" fill="#3F3D56"/>
<path d="M191.709 205.678C191.709 205.678 188.359 176.149 207.714 174.656" stroke="#3F3D56" stroke-width="2" stroke-miterlimit="10"/>
<path d="M207.714 179.88C210.592 179.88 212.925 177.541 212.925 174.657C212.925 171.772 210.592 169.434 207.714 169.434C204.836 169.434 202.503 171.772 202.503 174.657C202.503 177.541 204.836 179.88 207.714 179.88Z" fill="#3F3D56"/>
<path d="M185.477 76.9921C196.696 76.9921 205.791 67.8761 205.791 56.6308C205.791 45.3856 196.696 36.2695 185.477 36.2695C174.258 36.2695 165.163 45.3856 165.163 56.6308C165.163 67.8761 174.258 76.9921 185.477 76.9921Z" fill="#FF6584"/>
<path d="M151.957 198.185C165.806 198.185 177.033 186.932 177.033 173.051C177.033 159.171 165.806 147.918 151.957 147.918C138.108 147.918 126.882 159.171 126.882 173.051C126.882 186.932 138.108 198.185 151.957 198.185Z" fill="#2F2E41"/>
<path d="M155.766 206.457H163.384V192.777H155.766V206.457Z" fill="#2F2E41"/>
<path d="M140.531 206.457H148.148V192.777H140.531V206.457Z" fill="#2F2E41"/>
<path d="M143.942 209.953C146.979 208.196 148.907 205.847 148.25 204.705C147.592 203.564 144.598 204.063 141.562 205.82C138.525 207.578 136.597 209.927 137.254 211.068C137.912 212.21 140.906 211.71 143.942 209.953Z" fill="#2F2E41"/>
<path d="M158.861 209.953C161.897 208.196 163.826 205.847 163.168 204.705C162.511 203.564 159.516 204.063 156.48 205.82C153.444 207.578 151.515 209.927 152.173 211.068C152.83 212.21 155.824 211.71 158.861 209.953Z" fill="#2F2E41"/>
<path d="M151.323 175.278C156.056 175.278 159.893 171.432 159.893 166.688C159.893 161.944 156.056 158.098 151.323 158.098C146.589 158.098 142.752 161.944 142.752 166.688C142.752 171.432 146.589 175.278 151.323 175.278Z" fill="white"/>
<path d="M148.404 165.893C149.981 165.893 151.26 164.611 151.26 163.029C151.26 161.448 149.981 160.166 148.404 160.166C146.826 160.166 145.547 161.448 145.547 163.029C145.547 164.611 146.826 165.893 148.404 165.893Z" fill="#3F3D56"/>
<path d="M176.281 149.677C178.306 140.588 171.834 131.404 161.825 129.164C151.817 126.924 142.062 132.476 140.037 141.565C138.012 150.654 144.645 154.006 154.654 156.246C164.663 158.486 174.257 158.765 176.281 149.677Z" fill="#00BFA6"/>
<path d="M141.514 169.356C142.369 167.353 137.902 163.516 131.536 160.785C125.171 158.054 119.317 157.464 118.461 159.467C117.606 161.47 122.073 165.308 128.439 168.039C134.805 170.769 140.659 171.359 141.514 169.356Z" fill="#2F2E41"/>
<path d="M188.491 186.218C189.346 184.215 184.879 180.377 178.513 177.646C172.147 174.915 166.293 174.325 165.438 176.328C164.583 178.331 169.05 182.169 175.415 184.9C181.781 187.631 187.635 188.221 188.491 186.218Z" fill="#2F2E41"/>
<path d="M156.974 184.027C156.974 185.546 156.372 187.002 155.3 188.076C154.229 189.15 152.776 189.753 151.26 189.753C149.745 189.753 148.292 189.15 147.22 188.076C146.149 187.002 145.547 185.546 145.547 184.027C145.547 180.864 148.105 180.209 151.26 180.209C154.416 180.209 156.974 180.864 156.974 184.027Z" fill="white"/>
<path d="M122.07 165.546V128.611" stroke="#00BFA6" stroke-width="2" stroke-miterlimit="10"/>
<path d="M122.07 133.835C124.948 133.835 127.281 131.496 127.281 128.612C127.281 125.727 124.948 123.389 122.07 123.389C119.192 123.389 116.859 125.727 116.859 128.612C116.859 131.496 119.192 133.835 122.07 133.835Z" fill="#00BFA6"/>
<path d="M122.07 151.377C122.07 151.377 121.326 135.328 106.065 137.194L122.07 151.377Z" fill="#00BFA6"/>
<path d="M73.0783 140.259L75.0983 145.031H76.8873L74.348 132.942C74.348 125.182 70.6113 118.625 62.8694 118.625H62.8693C60.2734 118.625 57.7839 119.659 55.9483 121.498C54.1128 123.338 53.0815 125.834 53.0815 128.436V140.292C53.0815 140.914 53.2038 141.531 53.4414 142.106C53.679 142.681 54.0273 143.203 54.4663 143.643C54.9054 144.083 55.4266 144.432 56.0002 144.67C56.5738 144.908 57.1886 145.031 57.8095 145.031H71.6897L73.0783 140.259Z" fill="#2F2E41"/>
<path d="M81.5252 188.248C81.5252 188.248 107.87 185.067 111.044 190.794C114.218 196.52 111.997 201.292 107.87 204.156C103.744 207.019 80.8904 220.063 80.8904 220.063L78.9859 223.244L74.8596 222.608L70.7333 218.79L72.6377 215.291C72.6377 215.291 88.5082 205.746 88.8256 203.201C88.8256 203.201 74.2248 209.882 72.6377 208.61C71.0507 207.337 53.2757 201.292 56.1324 197.793C58.9891 194.293 66.2895 189.203 66.2895 189.203L81.5252 188.248Z" fill="#2F2E41"/>
<path opacity="0.1" d="M81.5252 188.248C81.5252 188.248 107.87 185.067 111.044 190.794C114.218 196.52 111.997 201.292 107.87 204.156C103.744 207.019 80.8904 220.063 80.8904 220.063L78.9859 223.244L74.8596 222.608L70.7333 218.79L72.6377 215.291C72.6377 215.291 88.5082 205.746 88.8256 203.201C88.8256 203.201 74.2248 209.882 72.6377 208.61C71.0507 207.337 53.2757 201.292 56.1324 197.793C58.9891 194.293 66.2895 189.203 66.2895 189.203L81.5252 188.248Z" fill="black"/>
<path d="M78.0338 220.383C78.0338 220.383 82.7949 219.428 81.8427 222.61C80.8905 225.791 80.2557 232.154 81.8427 233.745C83.4297 235.335 88.5083 242.335 83.4297 242.971C78.3512 243.607 72.9552 237.244 72.9552 237.244C72.9552 237.244 69.4637 227.064 66.9245 226.109C64.3852 225.155 61.8459 221.337 63.1155 220.383C64.3852 219.428 72.003 213.383 72.6378 213.702C73.2726 214.02 72.9552 217.519 72.9552 217.519C72.9552 217.519 75.4945 221.655 78.0338 220.383Z" fill="#2F2E41"/>
<path d="M78.5095 152.46L90.2537 160.732C90.2537 160.732 99.1411 151.505 99.1411 146.097C99.1411 140.688 103.902 130.508 106.124 134.644C108.346 138.78 103.585 148.642 103.585 148.642L94.6974 169.64C94.6974 169.64 89.6188 170.594 86.7621 168.367C83.9055 166.14 75.9702 161.686 75.9702 161.686L78.5095 152.46Z" fill="#FFB9B9"/>
<path d="M66.9241 138.619C71.8325 138.619 75.8116 134.631 75.8116 129.711C75.8116 124.791 71.8325 120.803 66.9241 120.803C62.0157 120.803 58.0366 124.791 58.0366 129.711C58.0366 134.631 62.0157 138.619 66.9241 138.619Z" fill="#FFB9B9"/>
<path d="M71.527 135.915C71.527 135.915 68.3529 144.187 69.6225 146.096C70.8921 148.005 72.4792 148.005 73.7488 148.641C74.3837 148.959 81.0493 151.504 81.0493 153.413C81.0186 154.64 80.6919 155.84 80.097 156.913L79.1448 162.321L71.2096 167.412L60.735 166.139L52.7998 161.685C52.7998 161.685 51.5302 149.914 55.0217 148.005C58.5132 146.096 62.6395 141.642 62.3221 140.051C62.0047 138.46 61.6873 134.643 61.6873 134.643L71.527 135.915Z" fill="#FFB9B9"/>
<path d="M84.858 155.64C84.858 155.64 80.0969 160.413 80.0969 161.049C80.0969 161.685 83.271 164.549 81.0491 168.366C78.8272 172.184 78.8272 181.728 78.8272 181.728L71.2094 183.319L56.926 182.047L54.7041 160.094C54.7041 160.094 60.4175 161.049 61.6871 162.003C62.9568 162.958 66.4483 160.731 68.9875 160.731C71.5268 160.731 78.8272 159.458 78.8272 159.458L78.1924 156.913L80.7317 152.459L84.858 155.64Z" fill="#00BFA6"/>
<path d="M66.924 189.523C66.924 189.523 98.9824 175.206 101.522 184.433C104.061 193.659 104.378 215.929 104.378 215.929C104.378 215.929 105.965 231.2 107.87 232.791C109.774 234.381 107.87 239.154 107.87 239.154L103.109 240.744L98.665 238.836L96.7605 233.745C96.7605 233.745 96.1257 222.292 93.5864 216.565C91.0472 210.839 91.0472 197.477 91.3646 196.84C91.3646 196.84 78.9856 212.111 66.924 211.157C54.8625 210.202 53.1167 207.498 53.1167 207.498C53.1167 207.498 58.9888 189.523 66.924 189.523Z" fill="#2F2E41"/>
<path d="M105.966 234.382C105.966 234.382 107.235 229.928 110.092 233.427C112.949 236.927 125.963 242.335 126.28 242.972C126.597 243.608 132.311 247.108 125.645 251.88C118.98 256.652 110.092 251.88 110.092 251.88C110.092 251.88 102.474 249.335 100.57 249.653C98.6653 249.971 94.8564 248.062 94.539 246.471C94.2216 244.881 94.9714 230.896 96.6596 232.321C98.3479 233.745 100.252 237.563 100.252 237.563C100.252 237.563 106.601 239.154 105.966 234.382Z" fill="#2F2E41"/>
<path d="M77.7162 180.931C77.7162 180.931 79.462 180.772 79.1446 184.908C79.1446 184.908 68.1939 188.249 66.2895 191.112C64.385 193.975 56.1324 202.565 54.8627 208.61C54.8627 208.61 45.6578 206.383 50.7364 190.476L56.7074 177.5C56.7074 177.5 60.2587 184.749 77.7162 180.931Z" fill="#2F2E41"/>
<path d="M70.2453 188.664L59.4653 183.954C59.4653 183.954 54.3868 173.456 54.3868 168.365C54.3252 165.436 54.1 162.513 53.7122 159.609C53.4723 157.783 53.6814 155.925 54.3212 154.199C54.9611 152.472 56.0123 150.928 57.3835 149.701C58.5044 148.718 59.7629 148.004 61.0524 148.004C61.0524 148.004 64.8613 155.003 64.2265 161.366C63.5916 167.729 65.1787 177.273 65.1787 177.273L79.5213 184.967" fill="#FFB9B9"/>
<path opacity="0.1" d="M70.2453 188.665L59.4653 183.955C59.4653 183.955 54.3867 173.456 54.3867 168.366C54.3867 165.714 65.4961 157.867 64.8612 164.23C64.2264 170.593 65.1786 177.274 65.1786 177.274L79.5212 184.968" fill="black"/>
<path d="M65.1784 163.593L64.1664 167.888L58.5128 170.592H53.7517L51.5298 160.412C51.5298 160.412 55.4527 159.58 57.4589 160.632C59.465 161.684 64.1761 161.936 64.1761 161.936L65.1784 163.593Z" fill="#00BFA6"/>
<path d="M70.4446 119.05C68.7226 118.613 64.6395 118.625 64.042 118.625C62.6027 118.625 61.1774 118.909 59.8476 119.461C58.5178 120.013 57.3095 120.823 56.2917 121.843C55.2739 122.863 54.4666 124.074 53.9157 125.407C53.3649 126.74 53.0814 128.168 53.0814 129.611L48.9551 145.031H56.9869L58.4774 139.304L60.5935 145.031H64.6367L64.9843 141.59L66.3527 145.031H70.8564C67.4834 137.382 65.6891 130.409 70.1206 126.105C73.1129 126.514 75.6367 125.711 76.048 124.084C76.5218 122.211 74.0131 119.957 70.4446 119.05Z" fill="#2F2E41"/>
</g>
<defs>
<clipPath id="clip0">
<rect width="237" height="254" fill="white"/>
</clipPath>
</defs>
</svg>
