<svg width="338" height="274" viewBox="0 0 338 274" fill="none" xmlns="http://www.w3.org/2000/svg">
<g filter="url(#filter0_dd)">
<rect x="8" y="52" width="53" height="166.95" rx="10" fill="#97ED4C"/>
</g>
<g clip-path="url(#clip0)">
<path d="M42.2449 77.2531L34.4445 69.4516C33.9845 68.9927 33.2403 68.9981 32.7863 69.451C32.3297 69.9088 32.3297 70.6521 32.7863 71.1093L40.5878 78.9102C41.0448 79.3672 41.7878 79.3672 42.2449 78.9102C42.7032 78.4519 42.7032 77.7113 42.2449 77.2531Z" fill="white"/>
<path d="M32.2076 72.1875L32.1489 72.4818C31.7353 74.5505 30.7303 76.5157 29.3708 78.1086L33.6149 82.3526C35.2075 80.9935 37.1457 79.9614 39.2145 79.5474L39.5093 79.4886L32.2076 72.1875Z" fill="white"/>
<path d="M28.5926 78.9883L25.6921 81.8882C25.0067 82.5736 25.0039 83.6862 25.6921 84.3744L27.3492 86.0315C28.0346 86.7169 29.1472 86.7197 29.8354 86.0315L32.7357 83.1313L28.5926 78.9883ZM29.0069 83.5459C28.778 83.7748 28.4072 83.7748 28.1783 83.5459C27.9495 83.317 27.9495 82.9462 28.1783 82.7174L29.0069 81.8888C29.2358 81.6599 29.6066 81.6599 29.8355 81.8888C30.0643 82.1177 30.0643 82.4885 29.8355 82.7174L29.0069 83.5459Z" fill="white"/>
<path d="M35.1823 86.3439L35.9793 85.5468C36.6676 84.8587 36.6653 83.746 35.9794 83.0612L35.3873 82.4688C35.0601 82.6886 34.7476 82.9274 34.4438 83.1822L35.1508 83.8903C35.3791 84.1175 35.3807 84.4872 35.1508 84.7183L34.3406 85.5285L33.1499 84.3749L31.4927 86.0321L34.1512 88.6081C34.6048 89.063 35.3497 89.0656 35.8077 88.6076C36.2649 88.1504 36.2649 87.4071 35.8077 86.9499L35.1823 86.3439Z" fill="white"/>
<path d="M37.5493 68.9492C37.2254 68.9492 36.9634 69.2113 36.9634 69.5352V70.707C36.9634 71.0309 37.2254 71.293 37.5493 71.293C37.8732 71.293 38.1353 71.0309 38.1353 70.707V69.5352C38.1353 69.2113 37.8732 68.9492 37.5493 68.9492Z" fill="white"/>
<path d="M42.2368 73.6367H41.0649C40.7411 73.6367 40.479 73.8988 40.479 74.2227C40.479 74.5465 40.7411 74.8086 41.0649 74.8086H42.2368C42.5607 74.8086 42.8228 74.5465 42.8228 74.2227C42.8228 73.8988 42.5607 73.6367 42.2368 73.6367Z" fill="white"/>
<path d="M41.4792 70.2927C41.2503 70.0639 40.8795 70.0639 40.6507 70.2927L39.4788 71.4646C39.2499 71.6935 39.2499 72.0643 39.4788 72.2932C39.7076 72.522 40.0785 72.5221 40.3073 72.2932L41.4792 71.1213C41.7081 70.8924 41.7081 70.5216 41.4792 70.2927Z" fill="white"/>
</g>
<g clip-path="url(#clip1)">
<path d="M40.933 148.852C40.933 148.453 40.7773 148.078 40.4953 147.796L39.0867 146.387C38.8085 146.109 38.4136 145.949 38.0207 145.949H37.9351V148.938H40.933L40.933 148.852Z" fill="white"/>
<path d="M37.0956 156.227C37.1909 155.937 37.3572 155.668 37.5742 155.45L40.9463 152.091V149.934H37.4467C37.1714 149.934 36.9648 149.711 36.9648 149.436V145.949H29.4941C28.6702 145.949 28 146.619 28 147.443V161.455C28 162.279 28.6702 162.949 29.4941 162.949H39.4389C40.2628 162.949 40.9463 162.279 40.9463 161.455V157.738L40.399 158.272C40.1772 158.492 39.9175 158.652 39.6247 158.75L38.0411 159.278L37.7998 159.291C37.401 159.291 37.0236 159.097 36.7892 158.772C36.5567 158.449 36.4935 158.03 36.6199 157.651L37.0956 156.227ZM30.4902 154.914H35.4545C35.7298 154.914 35.9526 155.137 35.9526 155.412C35.9526 155.687 35.7298 155.91 35.4545 155.91H30.4902C30.2149 155.91 29.9922 155.687 29.9922 155.412C29.9922 155.137 30.2149 154.914 30.4902 154.914ZM29.9922 153.42C29.9922 153.145 30.2149 152.922 30.4902 152.922H35.4545C35.7298 152.922 35.9526 153.145 35.9526 153.42C35.9526 153.695 35.7298 153.918 35.4545 153.918H30.4902C30.2149 153.918 29.9922 153.695 29.9922 153.42ZM29.9922 157.404C29.9922 157.129 30.2149 156.906 30.4902 156.906H35.4545C35.7298 156.906 35.9526 157.129 35.9526 157.404C35.9526 157.68 35.7298 157.902 35.4545 157.902H30.4902C30.2149 157.902 29.9922 157.68 29.9922 157.404ZM37.4467 159.895C37.722 159.895 37.9448 160.117 37.9448 160.393C37.9448 160.668 37.722 160.891 37.4467 160.891H34.4584C34.1832 160.891 33.9604 160.668 33.9604 160.393C33.9604 160.117 34.1832 159.895 34.4584 159.895H37.4467ZM30.4902 151.926C30.2149 151.926 29.9922 151.703 29.9922 151.428C29.9922 151.152 30.2149 150.93 30.4902 150.93H37.4467C37.722 150.93 37.9448 151.152 37.9448 151.428C37.9448 151.703 37.722 151.926 37.4467 151.926H30.4902Z" fill="white"/>
<path d="M37.9978 156.668L37.5645 157.968C37.4995 158.163 37.6849 158.348 37.8796 158.283L39.1788 157.849L37.9978 156.668Z" fill="white"/>
<path d="M41.866 152.566L38.5859 155.847L40.0006 157.261C40.7419 156.52 42.1844 155.077 43.2805 153.981L41.866 152.566Z" fill="white"/>
<path d="M44.7072 151.14C44.5321 150.964 44.2744 150.863 44.001 150.863C43.7276 150.863 43.4699 150.964 43.2938 151.141L42.5701 151.864L43.9845 153.279C44.3807 152.882 44.6545 152.609 44.7083 152.555C45.0973 152.165 45.0973 151.531 44.7072 151.14Z" fill="white"/>
<path d="M44.7083 152.554C44.7083 152.554 44.7083 152.554 44.7083 152.554C44.7099 152.553 44.7106 152.552 44.7119 152.551C44.7106 152.552 44.7099 152.553 44.7083 152.554Z" fill="white"/>
<path d="M44.7107 152.552C44.7125 152.55 44.7147 152.548 44.7158 152.547C44.7147 152.548 44.7125 152.55 44.7107 152.552Z" fill="white"/>
<path d="M44.7166 152.546C44.721 152.542 44.7211 152.542 44.7166 152.546V152.546Z" fill="white"/>
</g>
<path d="M44.0001 114.895C43.9985 113.514 42.8802 112.396 41.5001 112.395H34.7144C33.3343 112.396 32.2159 113.514 32.2144 114.895V119.18C32.2159 120.56 33.3343 121.679 34.7144 121.68H36.8572C36.9519 121.68 37.0428 121.718 37.1097 121.785L40.4286 125.104V122.037C40.4286 121.84 40.5885 121.68 40.7858 121.68H41.5001C42.8802 121.679 43.9985 120.56 44.0001 119.18V114.895ZM42.2144 119.537H34.0001C33.8028 119.537 33.6429 119.377 33.6429 119.18C33.6429 118.983 33.8028 118.823 34.0001 118.823H42.2144C42.4116 118.823 42.5715 118.983 42.5715 119.18C42.5715 119.377 42.4116 119.537 42.2144 119.537ZM42.2144 117.395H34.0001C33.8028 117.395 33.6429 117.235 33.6429 117.037C33.6429 116.84 33.8028 116.68 34.0001 116.68H42.2144C42.4116 116.68 42.5715 116.84 42.5715 117.037C42.5715 117.235 42.4116 117.395 42.2144 117.395ZM42.2144 115.252H34.0001C33.8028 115.252 33.6429 115.092 33.6429 114.895C33.6429 114.697 33.8028 114.537 34.0001 114.537H42.2144C42.4116 114.537 42.5715 114.697 42.5715 114.895C42.5715 115.092 42.4116 115.252 42.2144 115.252Z" fill="white"/>
<path d="M30.1761 118.215C30.243 118.148 30.3339 118.11 30.4286 118.11H31.5V114.896C31.5021 113.121 32.9399 111.683 34.7143 111.681H35.7857V111.324C35.7841 109.944 34.6658 108.826 33.2857 108.824H26.5C25.1199 108.826 24.0016 109.944 24 111.324V115.61C24.0016 116.99 25.1199 118.108 26.5 118.11H27.2143C27.4115 118.11 27.5714 118.27 27.5714 118.467V120.819L30.1761 118.215ZM25.4286 110.967H32.9286C33.1258 110.967 33.2857 111.127 33.2857 111.324C33.2857 111.521 33.1258 111.681 32.9286 111.681H25.4286C25.2313 111.681 25.0714 111.521 25.0714 111.324C25.0714 111.127 25.2313 110.967 25.4286 110.967ZM25.4286 113.11H30.7857C30.9829 113.11 31.1429 113.27 31.1429 113.467C31.1429 113.664 30.9829 113.824 30.7857 113.824H25.4286C25.2313 113.824 25.0714 113.664 25.0714 113.467C25.0714 113.27 25.2313 113.11 25.4286 113.11ZM25.4286 115.967C25.2313 115.967 25.0714 115.807 25.0714 115.61C25.0714 115.413 25.2313 115.253 25.4286 115.253H30.4286C30.6258 115.253 30.7857 115.413 30.7857 115.61C30.7857 115.807 30.6258 115.967 30.4286 115.967H25.4286Z" fill="white"/>
<path d="M35.9316 190.379L36.4861 190.762C36.5384 190.798 36.5778 190.85 36.5985 190.911L36.6113 190.948C36.7859 190.876 36.9754 190.846 37.1638 190.862C37.3522 190.878 37.5339 190.939 37.6939 191.04C37.8538 191.141 37.9871 191.279 38.0827 191.442C38.1783 191.605 38.2333 191.789 38.2431 191.978L38.2494 191.982L38.8205 191.587C38.8701 191.553 38.929 191.535 38.9893 191.535H39.6883L39.9016 190.91C39.9222 190.85 39.9615 190.798 40.0138 190.762L40.5683 190.379L40.3588 189.766C40.3375 189.704 40.3375 189.637 40.3588 189.574L40.5683 188.962L40.0138 188.579C39.9615 188.542 39.9222 188.49 39.9016 188.43L39.6883 187.806H38.9893C38.929 187.806 38.8701 187.788 38.8205 187.753L38.25 187.359L37.6794 187.754C37.6298 187.788 37.571 187.806 37.5107 187.806H36.8117L36.5983 188.43C36.5778 188.491 36.5385 188.543 36.4861 188.579L35.9316 188.962L36.1411 189.574C36.1624 189.637 36.1624 189.704 36.1411 189.766L35.9316 190.379Z" fill="white"/>
<path d="M34.3907 197.387H36.228L37.1049 193.226C37.0905 193.227 37.0771 193.231 37.0626 193.231C36.9168 193.23 36.7724 193.202 36.6368 193.148L35.9274 194.889C35.6639 195.54 35.1263 195.996 34.4527 196.139C34.3113 196.169 34.1672 196.183 34.0228 196.183C33.1336 196.183 32.2128 195.636 31.9723 194.557L31.6724 193.203C31.5074 193.24 31.3364 193.24 31.1714 193.203L30.8716 194.557C30.6694 195.463 29.9408 196.099 29.0154 196.177C28.9531 196.182 28.891 196.184 28.8299 196.184C27.9816 196.184 27.2432 195.691 26.9166 194.889L26.207 193.148C26.0714 193.202 25.9271 193.23 25.7813 193.231C25.7668 193.231 25.7534 193.227 25.739 193.226L26.6656 197.623C26.6698 197.643 26.6719 197.663 26.6719 197.684V199.762H36.1719V197.981H27.2657V197.387H34.3907Z" fill="white"/>
<path d="M31.4219 192.637C31.7498 192.637 32.0156 192.371 32.0156 192.043C32.0156 191.715 31.7498 191.449 31.4219 191.449C31.094 191.449 30.8281 191.715 30.8281 192.043C30.8281 192.371 31.094 192.637 31.4219 192.637Z" fill="white"/>
<path d="M32.1641 184.621H35.1556L36.442 183.73H32.1641C32.046 183.73 31.9327 183.777 31.8492 183.861C31.7657 183.944 31.7188 184.058 31.7188 184.176C31.7188 184.294 31.7657 184.407 31.8492 184.491C31.9327 184.574 32.046 184.621 32.1641 184.621Z" fill="white"/>
<path d="M25.7812 192.637C26.1092 192.637 26.375 192.371 26.375 192.043C26.375 191.715 26.1092 191.449 25.7812 191.449C25.4533 191.449 25.1875 191.715 25.1875 192.043C25.1875 192.371 25.4533 192.637 25.7812 192.637Z" fill="white"/>
<path d="M37.0625 192.637C37.3904 192.637 37.6562 192.371 37.6562 192.043C37.6562 191.715 37.3904 191.449 37.0625 191.449C36.7346 191.449 36.4688 191.715 36.4688 192.043C36.4688 192.371 36.7346 192.637 37.0625 192.637Z" fill="white"/>
<path d="M38.25 183.203L36.1986 184.623H37.4141C37.4841 184.425 37.6219 184.258 37.8031 184.152C37.9843 184.046 38.1973 184.007 38.4044 184.042C38.6114 184.078 38.7993 184.185 38.9347 184.346C39.0701 184.507 39.1444 184.71 39.1444 184.92C39.1444 185.13 39.0701 185.334 38.9347 185.494C38.7993 185.655 38.6114 185.762 38.4044 185.798C38.1973 185.834 37.9843 185.795 37.8031 185.688C37.6219 185.582 37.4841 185.415 37.4141 185.217H35.341L34.6875 185.669V195.434C35.0038 195.272 35.2494 195 35.3772 194.668L36.1433 192.788C35.9747 192.585 35.8802 192.33 35.8752 192.066C35.8703 191.803 35.9552 191.545 36.1161 191.336L36.0681 191.195L35.4094 190.74C35.3562 190.703 35.3164 190.65 35.2962 190.588C35.276 190.527 35.2763 190.461 35.2972 190.399L35.5465 189.67L35.2972 188.941C35.2763 188.88 35.276 188.813 35.2962 188.752C35.3164 188.691 35.3562 188.637 35.4094 188.601L36.0681 188.146L36.3184 187.413C36.3384 187.354 36.3763 187.304 36.4267 187.268C36.4771 187.231 36.5374 187.212 36.5994 187.212H37.4181L38.0813 186.754C38.1309 186.72 38.1897 186.701 38.25 186.701C38.3103 186.701 38.3691 186.72 38.4187 186.754L39.0819 187.212H39.9006C39.9626 187.212 40.0229 187.231 40.0733 187.268C40.1237 187.304 40.1616 187.354 40.1816 187.413L40.4319 188.146L41.0906 188.601C41.1438 188.637 41.1836 188.691 41.2038 188.752C41.224 188.813 41.2237 188.88 41.2028 188.941L40.9535 189.67L41.2028 190.399C41.2237 190.461 41.224 190.527 41.2038 190.588C41.1836 190.65 41.1438 190.703 41.0906 190.74L40.432 191.195L40.1817 191.927C40.1617 191.986 40.1238 192.037 40.0734 192.073C40.0231 192.109 39.9627 192.128 39.9007 192.128H39.0819L38.4187 192.586C38.3735 192.618 38.3199 192.637 38.2645 192.639C38.2092 192.641 38.1543 192.627 38.1067 192.599C38.0228 192.758 37.9041 192.896 37.7593 193.002L37.5857 193.826H37.6562V196.201H37.085L36.8347 197.389H41.8125V185.669L38.25 183.203ZM38.8438 196.201H38.25V193.826H38.8438V196.201ZM40.0312 196.201H39.4375V193.826H40.0312V196.201ZM41.2188 196.201H40.625V193.826H41.2188V196.201Z" fill="white"/>
<path d="M38.25 185.215C38.414 185.215 38.5469 185.082 38.5469 184.918C38.5469 184.754 38.414 184.621 38.25 184.621C38.086 184.621 37.9531 184.754 37.9531 184.918C37.9531 185.082 38.086 185.215 38.25 185.215Z" fill="white"/>
<path d="M26.6719 189.668C26.9484 189.576 27.1997 189.42 27.4058 189.214C27.6119 189.008 27.7672 188.757 27.8594 188.48C27.9516 188.757 28.1069 189.008 28.313 189.214C28.5191 189.42 28.7703 189.576 29.0469 189.668C28.7703 189.76 28.5191 189.915 28.313 190.122C28.1069 190.328 27.9516 190.579 27.8594 190.855C27.7672 190.579 27.6119 190.328 27.4058 190.122C27.1997 189.915 26.9484 189.76 26.6719 189.668Z" fill="white"/>
<g filter="url(#filter1_dd)">
<rect x="105" y="8" width="221" height="254" rx="10" fill="#34C25E"/>
</g>
<path d="M141.741 135L138.441 122.46H141.801L143.121 128.66C143.175 128.873 143.228 129.16 143.281 129.52C143.348 129.88 143.455 130.573 143.601 131.6C143.641 131.347 143.715 130.86 143.821 130.14C143.941 129.42 144.028 128.933 144.081 128.68L145.361 122.46H148.601L149.921 128.66C149.975 128.873 150.028 129.16 150.081 129.52C150.148 129.88 150.255 130.573 150.401 131.6C150.441 131.347 150.515 130.86 150.621 130.14C150.741 129.42 150.828 128.933 150.881 128.68L152.161 122.46H155.421L152.141 135H148.561L147.761 131.2C147.628 130.56 147.495 129.887 147.361 129.18C147.228 128.473 147.088 127.693 146.941 126.84C146.728 128.027 146.561 128.92 146.441 129.52C146.321 130.12 146.208 130.68 146.101 131.2L145.301 135H141.741ZM163.81 132.08V134.46C163.49 134.66 162.95 134.833 162.19 134.98C161.43 135.127 160.63 135.2 159.79 135.2C158.19 135.2 157.036 134.8 156.33 134C155.623 133.187 155.27 131.873 155.27 130.06C155.27 128.287 155.643 126.987 156.39 126.16C157.136 125.333 158.316 124.92 159.93 124.92C161.503 124.92 162.61 125.233 163.25 125.86C163.903 126.473 164.23 127.567 164.23 129.14C164.23 129.567 164.223 129.907 164.21 130.16C164.196 130.413 164.17 130.707 164.13 131.04H158.29C158.303 131.587 158.45 131.967 158.73 132.18C159.01 132.393 159.523 132.5 160.27 132.5C160.91 132.5 161.563 132.46 162.23 132.38C162.896 132.287 163.423 132.187 163.81 132.08ZM159.93 127.48C159.29 127.48 158.856 127.593 158.63 127.82C158.403 128.033 158.29 128.46 158.29 129.1H161.51V128.66C161.496 128.193 161.383 127.88 161.17 127.72C160.97 127.56 160.556 127.48 159.93 127.48ZM170.979 135.2C169.965 135.2 169.219 134.947 168.739 134.44C168.272 133.933 168.039 133.133 168.039 132.04C168.039 130.92 168.319 130.133 168.879 129.68C169.452 129.227 170.432 129 171.819 129C172.139 129 172.465 129.02 172.799 129.06C173.145 129.087 173.445 129.127 173.699 129.18V128.46C173.699 128.14 173.559 127.907 173.279 127.76C173.012 127.6 172.599 127.52 172.039 127.52C171.399 127.52 170.825 127.54 170.319 127.58C169.825 127.607 169.372 127.66 168.959 127.74V125.28C169.452 125.16 170.025 125.073 170.679 125.02C171.332 124.953 172.092 124.92 172.959 124.92C174.185 124.92 175.112 125.193 175.739 125.74C176.379 126.287 176.699 127.093 176.699 128.16V135H173.899L173.799 134.16H173.739C173.325 134.48 172.872 134.733 172.379 134.92C171.885 135.107 171.419 135.2 170.979 135.2ZM172.219 130.98C171.685 130.98 171.325 131.04 171.139 131.16C170.952 131.267 170.859 131.5 170.859 131.86C170.859 132.193 170.932 132.427 171.079 132.56C171.239 132.68 171.512 132.74 171.899 132.74C172.192 132.74 172.499 132.7 172.819 132.62C173.139 132.54 173.432 132.44 173.699 132.32V131.1C173.539 131.06 173.339 131.033 173.099 131.02C172.859 130.993 172.565 130.98 172.219 130.98ZM181.383 135H178.383V125.12H181.183L181.283 125.88H181.323C181.803 125.587 182.29 125.367 182.783 125.22C183.29 125.06 183.763 124.98 184.203 124.98H184.363V127.88C184.243 127.853 184.11 127.84 183.963 127.84C183.83 127.827 183.657 127.82 183.443 127.82C183.057 127.82 182.69 127.847 182.343 127.9C181.997 127.94 181.677 128.007 181.383 128.1V135ZM193.478 132.08V134.46C193.158 134.66 192.618 134.833 191.858 134.98C191.098 135.127 190.298 135.2 189.458 135.2C187.858 135.2 186.704 134.8 185.998 134C185.291 133.187 184.938 131.873 184.938 130.06C184.938 128.287 185.311 126.987 186.058 126.16C186.804 125.333 187.984 124.92 189.598 124.92C191.171 124.92 192.278 125.233 192.918 125.86C193.571 126.473 193.898 127.567 193.898 129.14C193.898 129.567 193.891 129.907 193.878 130.16C193.864 130.413 193.838 130.707 193.798 131.04H187.958C187.971 131.587 188.118 131.967 188.398 132.18C188.678 132.393 189.191 132.5 189.938 132.5C190.578 132.5 191.231 132.46 191.898 132.38C192.564 132.287 193.091 132.187 193.478 132.08ZM189.598 127.48C188.958 127.48 188.524 127.593 188.298 127.82C188.071 128.033 187.958 128.46 187.958 129.1H191.178V128.66C191.164 128.193 191.051 127.88 190.838 127.72C190.638 127.56 190.224 127.48 189.598 127.48ZM198.887 127.62H197.727V125.12H198.987L199.367 122.82H201.887V125.12H204.687V127.62H201.887V131.46C201.887 131.833 201.98 132.087 202.167 132.22C202.367 132.34 202.753 132.4 203.327 132.4C203.527 132.4 203.773 132.387 204.067 132.36C204.36 132.32 204.607 132.28 204.807 132.24V134.8C204.593 134.893 204.26 134.98 203.807 135.06C203.367 135.153 202.973 135.2 202.627 135.2C201.293 135.2 200.333 134.92 199.747 134.36C199.173 133.787 198.887 132.86 198.887 131.58V127.62ZM208.864 135H205.864V121.7H208.864V125.82C209.357 125.54 209.864 125.32 210.384 125.16C210.917 125 211.424 124.92 211.904 124.92C213.024 124.92 213.857 125.187 214.404 125.72C214.964 126.253 215.244 127.067 215.244 128.16V135H212.244V128.56C212.244 128.227 212.144 127.987 211.944 127.84C211.744 127.693 211.424 127.62 210.984 127.62C210.651 127.62 210.297 127.653 209.924 127.72C209.551 127.773 209.197 127.847 208.864 127.94V135ZM225.099 132.08V134.46C224.779 134.66 224.239 134.833 223.479 134.98C222.719 135.127 221.919 135.2 221.079 135.2C219.479 135.2 218.325 134.8 217.619 134C216.912 133.187 216.559 131.873 216.559 130.06C216.559 128.287 216.932 126.987 217.679 126.16C218.425 125.333 219.605 124.92 221.219 124.92C222.792 124.92 223.899 125.233 224.539 125.86C225.192 126.473 225.519 127.567 225.519 129.14C225.519 129.567 225.512 129.907 225.499 130.16C225.485 130.413 225.459 130.707 225.419 131.04H219.579C219.592 131.587 219.739 131.967 220.019 132.18C220.299 132.393 220.812 132.5 221.559 132.5C222.199 132.5 222.852 132.46 223.519 132.38C224.185 132.287 224.712 132.187 225.099 132.08ZM221.219 127.48C220.579 127.48 220.145 127.593 219.919 127.82C219.692 128.033 219.579 128.46 219.579 129.1H222.799V128.66C222.785 128.193 222.672 127.88 222.459 127.72C222.259 127.56 221.845 127.48 221.219 127.48ZM235.837 135H232.837V125.12H235.637L235.737 125.88H235.777C236.257 125.587 236.743 125.367 237.237 125.22C237.743 125.06 238.217 124.98 238.657 124.98H238.817V127.88C238.697 127.853 238.563 127.84 238.417 127.84C238.283 127.827 238.11 127.82 237.897 127.82C237.51 127.82 237.143 127.847 236.797 127.9C236.45 127.94 236.13 128.007 235.837 128.1V135ZM247.931 132.08V134.46C247.611 134.66 247.071 134.833 246.311 134.98C245.551 135.127 244.751 135.2 243.911 135.2C242.311 135.2 241.157 134.8 240.451 134C239.744 133.187 239.391 131.873 239.391 130.06C239.391 128.287 239.764 126.987 240.511 126.16C241.257 125.333 242.437 124.92 244.051 124.92C245.624 124.92 246.731 125.233 247.371 125.86C248.024 126.473 248.351 127.567 248.351 129.14C248.351 129.567 248.344 129.907 248.331 130.16C248.317 130.413 248.291 130.707 248.251 131.04H242.411C242.424 131.587 242.571 131.967 242.851 132.18C243.131 132.393 243.644 132.5 244.391 132.5C245.031 132.5 245.684 132.46 246.351 132.38C247.017 132.287 247.544 132.187 247.931 132.08ZM244.051 127.48C243.411 127.48 242.977 127.593 242.751 127.82C242.524 128.033 242.411 128.46 242.411 129.1H245.631V128.66C245.617 128.193 245.504 127.88 245.291 127.72C245.091 127.56 244.677 127.48 244.051 127.48ZM255.831 121.7H258.831V135H256.171L256.011 134.08H255.951C255.591 134.453 255.164 134.733 254.671 134.92C254.178 135.107 253.618 135.2 252.991 135.2C251.684 135.2 250.751 134.807 250.191 134.02C249.644 133.233 249.371 131.913 249.371 130.06C249.371 128.26 249.718 126.953 250.411 126.14C251.118 125.327 252.258 124.92 253.831 124.92C254.218 124.92 254.578 124.947 254.911 125C255.258 125.04 255.564 125.1 255.831 125.18V121.7ZM254.251 127.62C253.451 127.62 252.938 127.773 252.711 128.08C252.484 128.373 252.371 129.033 252.371 130.06C252.371 131.033 252.471 131.673 252.671 131.98C252.871 132.273 253.338 132.42 254.071 132.42C254.418 132.42 254.738 132.393 255.031 132.34C255.338 132.287 255.604 132.207 255.831 132.1V127.88C255.631 127.787 255.398 127.72 255.131 127.68C254.878 127.64 254.584 127.62 254.251 127.62ZM269.36 124.92C270.68 124.92 271.613 125.307 272.16 126.08C272.707 126.84 272.98 128.14 272.98 129.98C272.98 131.807 272.613 133.133 271.88 133.96C271.147 134.787 269.96 135.2 268.32 135.2C267.373 135.2 266.493 135.153 265.68 135.06C264.867 134.967 264.147 134.827 263.52 134.64V121.7H266.52V125.64C266.973 125.413 267.44 125.24 267.92 125.12C268.413 124.987 268.893 124.92 269.36 124.92ZM269.98 129.98C269.98 129.007 269.88 128.373 269.68 128.08C269.48 127.773 269.013 127.62 268.28 127.62C267.973 127.62 267.667 127.647 267.36 127.7C267.067 127.753 266.787 127.827 266.52 127.92V132.3C266.72 132.34 266.947 132.373 267.2 132.4C267.453 132.413 267.753 132.42 268.1 132.42C268.9 132.42 269.413 132.273 269.64 131.98C269.867 131.673 269.98 131.007 269.98 129.98ZM277.64 135.2C276.52 135.2 275.68 134.927 275.12 134.38C274.574 133.82 274.3 132.98 274.3 131.86V125.12H277.3V131.46C277.3 131.793 277.4 132.033 277.6 132.18C277.8 132.327 278.12 132.4 278.56 132.4C278.814 132.4 279.08 132.38 279.36 132.34C279.654 132.3 279.947 132.24 280.24 132.16V125.12H283.24V135H280.44L280.36 134.46H280.32C279.854 134.687 279.38 134.867 278.9 135C278.434 135.133 278.014 135.2 277.64 135.2ZM287.965 121.7V135H284.965V121.7H287.965ZM292.692 121.7V135H289.692V121.7H292.692ZM137.627 151.62H136.467V149.12H137.727L138.107 146.82H140.627V149.12H143.427V151.62H140.627V155.46C140.627 155.833 140.72 156.087 140.907 156.22C141.107 156.34 141.494 156.4 142.067 156.4C142.267 156.4 142.514 156.387 142.807 156.36C143.1 156.32 143.347 156.28 143.547 156.24V158.8C143.334 158.893 143 158.98 142.547 159.06C142.107 159.153 141.714 159.2 141.367 159.2C140.034 159.2 139.074 158.92 138.487 158.36C137.914 157.787 137.627 156.86 137.627 155.58V151.62ZM147.604 159H144.604V145.7H147.604V149.82C148.097 149.54 148.604 149.32 149.124 149.16C149.657 149 150.164 148.92 150.644 148.92C151.764 148.92 152.597 149.187 153.144 149.72C153.704 150.253 153.984 151.067 153.984 152.16V159H150.984V152.56C150.984 152.227 150.884 151.987 150.684 151.84C150.484 151.693 150.164 151.62 149.724 151.62C149.391 151.62 149.037 151.653 148.664 151.72C148.291 151.773 147.937 151.847 147.604 151.94V159ZM158.059 159.2C157.045 159.2 156.299 158.947 155.819 158.44C155.352 157.933 155.119 157.133 155.119 156.04C155.119 154.92 155.399 154.133 155.959 153.68C156.532 153.227 157.512 153 158.899 153C159.219 153 159.545 153.02 159.879 153.06C160.225 153.087 160.525 153.127 160.779 153.18V152.46C160.779 152.14 160.639 151.907 160.359 151.76C160.092 151.6 159.679 151.52 159.119 151.52C158.479 151.52 157.905 151.54 157.399 151.58C156.905 151.607 156.452 151.66 156.039 151.74V149.28C156.532 149.16 157.105 149.073 157.759 149.02C158.412 148.953 159.172 148.92 160.039 148.92C161.265 148.92 162.192 149.193 162.819 149.74C163.459 150.287 163.779 151.093 163.779 152.16V159H160.979L160.879 158.16H160.819C160.405 158.48 159.952 158.733 159.459 158.92C158.965 159.107 158.499 159.2 158.059 159.2ZM159.299 154.98C158.765 154.98 158.405 155.04 158.219 155.16C158.032 155.267 157.939 155.5 157.939 155.86C157.939 156.193 158.012 156.427 158.159 156.56C158.319 156.68 158.592 156.74 158.979 156.74C159.272 156.74 159.579 156.7 159.899 156.62C160.219 156.54 160.512 156.44 160.779 156.32V155.1C160.619 155.06 160.419 155.033 160.179 155.02C159.939 154.993 159.645 154.98 159.299 154.98ZM165.986 151.62H164.826V149.12H166.086L166.466 146.82H168.986V149.12H171.786V151.62H168.986V155.46C168.986 155.833 169.08 156.087 169.266 156.22C169.466 156.34 169.853 156.4 170.426 156.4C170.626 156.4 170.873 156.387 171.166 156.36C171.46 156.32 171.706 156.28 171.906 156.24V158.8C171.693 158.893 171.36 158.98 170.906 159.06C170.466 159.153 170.073 159.2 169.726 159.2C168.393 159.2 167.433 158.92 166.846 158.36C166.273 157.787 165.986 156.86 165.986 155.58V151.62ZM186.612 149.12H189.892L187.252 159H183.732L182.372 153.36L181.212 159H177.772L175.112 149.12H178.412L179.572 156.28L181.112 149.12H183.892L185.452 156.28L186.612 149.12ZM193.895 148.04H190.735V145.7H193.895V148.04ZM193.815 159H190.815V149.12H193.815V159ZM198.542 145.7V159H195.542V145.7H198.542ZM203.268 145.7V159H200.268V145.7H203.268ZM212.424 162.24C211.717 162.24 211.037 162.193 210.384 162.1C209.744 162.007 209.217 161.887 208.804 161.74V159.2C209.124 159.293 209.604 159.373 210.244 159.44C210.897 159.507 211.544 159.54 212.184 159.54C212.904 159.54 213.397 159.433 213.664 159.22C213.93 159.007 214.07 158.613 214.084 158.04V157.56C213.55 157.813 213.037 158.007 212.544 158.14C212.05 158.26 211.57 158.32 211.104 158.32C209.837 158.32 208.937 157.967 208.404 157.26C207.884 156.54 207.624 155.327 207.624 153.62C207.624 151.927 207.997 150.72 208.744 150C209.504 149.28 210.777 148.92 212.564 148.92C213.27 148.92 214.084 148.96 215.004 149.04C215.937 149.12 216.63 149.207 217.084 149.3V157.1C217.084 159.007 216.737 160.34 216.044 161.1C215.35 161.86 214.144 162.24 212.424 162.24ZM212.564 151.62C211.67 151.62 211.124 151.72 210.924 151.92C210.724 152.12 210.624 152.687 210.624 153.62C210.624 154.46 210.71 154.993 210.884 155.22C211.057 155.433 211.477 155.54 212.144 155.54C212.397 155.54 212.684 155.513 213.004 155.46C213.337 155.407 213.697 155.333 214.084 155.24V151.74C213.884 151.7 213.657 151.673 213.404 151.66C213.15 151.633 212.87 151.62 212.564 151.62ZM221.883 148.04H218.723V145.7H221.883V148.04ZM221.803 159H218.803V149.12H221.803V159ZM229.67 149.12H232.93L229.53 159H226.09L222.67 149.12H225.97L227.83 156.28L229.67 149.12ZM241.651 156.08V158.46C241.331 158.66 240.791 158.833 240.031 158.98C239.271 159.127 238.471 159.2 237.631 159.2C236.031 159.2 234.878 158.8 234.171 158C233.465 157.187 233.111 155.873 233.111 154.06C233.111 152.287 233.485 150.987 234.231 150.16C234.978 149.333 236.158 148.92 237.771 148.92C239.345 148.92 240.451 149.233 241.091 149.86C241.745 150.473 242.071 151.567 242.071 153.14C242.071 153.567 242.065 153.907 242.051 154.16C242.038 154.413 242.011 154.707 241.971 155.04H236.131C236.145 155.587 236.291 155.967 236.571 156.18C236.851 156.393 237.365 156.5 238.111 156.5C238.751 156.5 239.405 156.46 240.071 156.38C240.738 156.287 241.265 156.187 241.651 156.08ZM237.771 151.48C237.131 151.48 236.698 151.593 236.471 151.82C236.245 152.033 236.131 152.46 236.131 153.1H239.351V152.66C239.338 152.193 239.225 151.88 239.011 151.72C238.811 151.56 238.398 151.48 237.771 151.48ZM257.101 149.12H260.381L257.741 159H254.221L252.861 153.36L251.701 159H248.261L245.601 149.12H248.901L250.061 156.28L251.601 149.12H254.381L255.941 156.28L257.101 149.12ZM264.383 148.04H261.223V145.7H264.383V148.04ZM264.303 159H261.303V149.12H264.303V159ZM269.03 159H266.03V149.12H268.63L268.75 150.16H268.81C269.237 149.72 269.697 149.407 270.19 149.22C270.697 149.02 271.303 148.92 272.01 148.92C273.13 148.92 273.977 149.193 274.55 149.74C275.123 150.287 275.41 151.093 275.41 152.16V159H272.41V152.56C272.41 152.253 272.283 152.02 272.03 151.86C271.79 151.7 271.43 151.62 270.95 151.62C270.59 151.62 270.243 151.66 269.91 151.74C269.577 151.82 269.283 151.933 269.03 152.08V159ZM281.545 162.24C280.838 162.24 280.158 162.193 279.505 162.1C278.865 162.007 278.338 161.887 277.925 161.74V159.2C278.245 159.293 278.725 159.373 279.365 159.44C280.018 159.507 280.665 159.54 281.305 159.54C282.025 159.54 282.518 159.433 282.785 159.22C283.051 159.007 283.191 158.613 283.205 158.04V157.56C282.671 157.813 282.158 158.007 281.665 158.14C281.171 158.26 280.691 158.32 280.225 158.32C278.958 158.32 278.058 157.967 277.525 157.26C277.005 156.54 276.745 155.327 276.745 153.62C276.745 151.927 277.118 150.72 277.865 150C278.625 149.28 279.898 148.92 281.685 148.92C282.391 148.92 283.205 148.96 284.125 149.04C285.058 149.12 285.751 149.207 286.205 149.3V157.1C286.205 159.007 285.858 160.34 285.165 161.1C284.471 161.86 283.265 162.24 281.545 162.24ZM281.685 151.62C280.791 151.62 280.245 151.72 280.045 151.92C279.845 152.12 279.745 152.687 279.745 153.62C279.745 154.46 279.831 154.993 280.005 155.22C280.178 155.433 280.598 155.54 281.265 155.54C281.518 155.54 281.805 155.513 282.125 155.46C282.458 155.407 282.818 155.333 283.205 155.24V151.74C283.005 151.7 282.778 151.673 282.525 151.66C282.271 151.633 281.991 151.62 281.685 151.62ZM291.944 151.46C291.384 151.46 291.004 151.507 290.804 151.6C290.618 151.68 290.524 151.873 290.524 152.18C290.524 152.3 290.558 152.4 290.624 152.48C290.704 152.547 290.811 152.587 290.944 152.6L293.324 152.92C294.098 153.027 294.638 153.28 294.944 153.68C295.264 154.067 295.424 154.687 295.424 155.54C295.424 156.82 295.138 157.753 294.564 158.34C293.991 158.913 292.991 159.2 291.564 159.2C290.778 159.2 290.064 159.167 289.424 159.1C288.798 159.047 288.264 158.967 287.824 158.86V156.26C288.158 156.34 288.618 156.413 289.204 156.48C289.804 156.533 290.411 156.56 291.024 156.56C291.571 156.56 291.938 156.507 292.124 156.4C292.324 156.28 292.424 156.06 292.424 155.74C292.424 155.633 292.391 155.547 292.324 155.48C292.258 155.4 292.171 155.353 292.064 155.34L289.604 155.02C288.884 154.927 288.358 154.667 288.024 154.24C287.704 153.8 287.544 153.153 287.544 152.3C287.544 151.18 287.898 150.34 288.604 149.78C289.311 149.207 290.358 148.92 291.744 148.92C292.291 148.92 292.798 148.933 293.264 148.96C293.731 148.987 294.224 149.04 294.744 149.12V151.62C294.411 151.567 293.998 151.527 293.504 151.5C293.011 151.473 292.491 151.46 291.944 151.46ZM159.795 175.62H158.635V173.12H159.895L160.275 170.82H162.795V173.12H165.595V175.62H162.795V179.46C162.795 179.833 162.888 180.087 163.075 180.22C163.275 180.34 163.662 180.4 164.235 180.4C164.435 180.4 164.682 180.387 164.975 180.36C165.268 180.32 165.515 180.28 165.715 180.24V182.8C165.502 182.893 165.168 182.98 164.715 183.06C164.275 183.153 163.882 183.2 163.535 183.2C162.202 183.2 161.242 182.92 160.655 182.36C160.082 181.787 159.795 180.86 159.795 179.58V175.62ZM176.074 178.06C176.074 179.913 175.701 181.233 174.954 182.02C174.208 182.807 172.954 183.2 171.194 183.2C169.434 183.2 168.181 182.807 167.434 182.02C166.688 181.233 166.314 179.913 166.314 178.06C166.314 176.207 166.688 174.887 167.434 174.1C168.181 173.313 169.434 172.92 171.194 172.92C172.954 172.92 174.208 173.313 174.954 174.1C175.701 174.887 176.074 176.207 176.074 178.06ZM169.314 178.02C169.314 179.033 169.421 179.687 169.634 179.98C169.861 180.273 170.381 180.42 171.194 180.42C172.008 180.42 172.521 180.273 172.734 179.98C172.961 179.687 173.074 179.033 173.074 178.02C173.074 177.007 172.961 176.353 172.734 176.06C172.521 175.767 172.008 175.62 171.194 175.62C170.381 175.62 169.861 175.767 169.634 176.06C169.421 176.353 169.314 177.007 169.314 178.02ZM181.413 183.68C181.88 183.68 182.22 183.613 182.433 183.48C182.66 183.36 182.813 183.133 182.893 182.8L179.173 173.12H182.513L184.413 179.88L186.213 173.12H189.433L185.913 183.2C185.54 184.28 185.046 185.053 184.433 185.52C183.833 186 183.033 186.24 182.033 186.24C181.753 186.24 181.46 186.227 181.153 186.2C180.86 186.173 180.593 186.133 180.353 186.08V183.64C180.46 183.653 180.58 183.66 180.713 183.66C180.846 183.673 181.08 183.68 181.413 183.68ZM199.336 178.06C199.336 179.913 198.963 181.233 198.216 182.02C197.47 182.807 196.216 183.2 194.456 183.2C192.696 183.2 191.443 182.807 190.696 182.02C189.95 181.233 189.576 179.913 189.576 178.06C189.576 176.207 189.95 174.887 190.696 174.1C191.443 173.313 192.696 172.92 194.456 172.92C196.216 172.92 197.47 173.313 198.216 174.1C198.963 174.887 199.336 176.207 199.336 178.06ZM192.576 178.02C192.576 179.033 192.683 179.687 192.896 179.98C193.123 180.273 193.643 180.42 194.456 180.42C195.27 180.42 195.783 180.273 195.996 179.98C196.223 179.687 196.336 179.033 196.336 178.02C196.336 177.007 196.223 176.353 195.996 176.06C195.783 175.767 195.27 175.62 194.456 175.62C193.643 175.62 193.123 175.767 192.896 176.06C192.683 176.353 192.576 177.007 192.576 178.02ZM203.998 183.2C202.878 183.2 202.038 182.927 201.478 182.38C200.931 181.82 200.658 180.98 200.658 179.86V173.12H203.658V179.46C203.658 179.793 203.758 180.033 203.958 180.18C204.158 180.327 204.478 180.4 204.918 180.4C205.171 180.4 205.438 180.38 205.718 180.34C206.011 180.3 206.305 180.24 206.598 180.16V173.12H209.598V183H206.798L206.718 182.46H206.678C206.211 182.687 205.738 182.867 205.258 183C204.791 183.133 204.371 183.2 203.998 183.2ZM214.323 183H211.323V173.12H214.123L214.223 173.88H214.263C214.743 173.587 215.23 173.367 215.723 173.22C216.23 173.06 216.703 172.98 217.143 172.98H217.303V175.88C217.183 175.853 217.05 175.84 216.903 175.84C216.77 175.827 216.596 175.82 216.383 175.82C215.996 175.82 215.63 175.847 215.283 175.9C214.936 175.94 214.616 176.007 214.323 176.1V183ZM224.601 183H221.501V170.46H224.601V175.24H229.001V170.46H232.101V183H229.001V178.04H224.601V183ZM243.321 178.06C243.321 179.913 242.947 181.233 242.201 182.02C241.454 182.807 240.201 183.2 238.441 183.2C236.681 183.2 235.427 182.807 234.681 182.02C233.934 181.233 233.561 179.913 233.561 178.06C233.561 176.207 233.934 174.887 234.681 174.1C235.427 173.313 236.681 172.92 238.441 172.92C240.201 172.92 241.454 173.313 242.201 174.1C242.947 174.887 243.321 176.207 243.321 178.06ZM236.561 178.02C236.561 179.033 236.667 179.687 236.881 179.98C237.107 180.273 237.627 180.42 238.441 180.42C239.254 180.42 239.767 180.273 239.981 179.98C240.207 179.687 240.321 179.033 240.321 178.02C240.321 177.007 240.207 176.353 239.981 176.06C239.767 175.767 239.254 175.62 238.441 175.62C237.627 175.62 237.107 175.767 236.881 176.06C236.667 176.353 236.561 177.007 236.561 178.02ZM247.682 183H244.682V173.12H247.482L247.582 173.88H247.622C248.102 173.587 248.589 173.367 249.082 173.22C249.589 173.06 250.062 172.98 250.502 172.98H250.662V175.88C250.542 175.853 250.409 175.84 250.262 175.84C250.129 175.827 249.956 175.82 249.742 175.82C249.356 175.82 248.989 175.847 248.642 175.9C248.296 175.94 247.976 176.007 247.682 176.1V183ZM255.734 175.46C255.174 175.46 254.794 175.507 254.594 175.6C254.407 175.68 254.314 175.873 254.314 176.18C254.314 176.3 254.347 176.4 254.414 176.48C254.494 176.547 254.6 176.587 254.734 176.6L257.114 176.92C257.887 177.027 258.427 177.28 258.734 177.68C259.054 178.067 259.214 178.687 259.214 179.54C259.214 180.82 258.927 181.753 258.354 182.34C257.78 182.913 256.78 183.2 255.354 183.2C254.567 183.2 253.854 183.167 253.214 183.1C252.587 183.047 252.054 182.967 251.614 182.86V180.26C251.947 180.34 252.407 180.413 252.994 180.48C253.594 180.533 254.2 180.56 254.814 180.56C255.36 180.56 255.727 180.507 255.914 180.4C256.114 180.28 256.214 180.06 256.214 179.74C256.214 179.633 256.18 179.547 256.114 179.48C256.047 179.4 255.96 179.353 255.854 179.34L253.394 179.02C252.674 178.927 252.147 178.667 251.814 178.24C251.494 177.8 251.334 177.153 251.334 176.3C251.334 175.18 251.687 174.34 252.394 173.78C253.1 173.207 254.147 172.92 255.534 172.92C256.08 172.92 256.587 172.933 257.054 172.96C257.52 172.987 258.014 173.04 258.534 173.12V175.62C258.2 175.567 257.787 175.527 257.294 175.5C256.8 175.473 256.28 175.46 255.734 175.46ZM268.702 180.08V182.46C268.382 182.66 267.842 182.833 267.082 182.98C266.322 183.127 265.522 183.2 264.682 183.2C263.082 183.2 261.929 182.8 261.222 182C260.515 181.187 260.162 179.873 260.162 178.06C260.162 176.287 260.535 174.987 261.282 174.16C262.029 173.333 263.209 172.92 264.822 172.92C266.395 172.92 267.502 173.233 268.142 173.86C268.795 174.473 269.122 175.567 269.122 177.14C269.122 177.567 269.115 177.907 269.102 178.16C269.089 178.413 269.062 178.707 269.022 179.04H263.182C263.195 179.587 263.342 179.967 263.622 180.18C263.902 180.393 264.415 180.5 265.162 180.5C265.802 180.5 266.455 180.46 267.122 180.38C267.789 180.287 268.315 180.187 268.702 180.08ZM264.822 175.48C264.182 175.48 263.749 175.593 263.522 175.82C263.295 176.033 263.182 176.46 263.182 177.1H266.402V176.66C266.389 176.193 266.275 175.88 266.062 175.72C265.862 175.56 265.449 175.48 264.822 175.48ZM273.123 183H270.223V180.24H273.123V183Z" fill="white"/>
<path d="M176.151 44.48C176.151 46.38 175.591 47.78 174.471 48.68C173.371 49.56 171.631 50 169.251 50H161.481V31.19H169.251C171.411 31.19 172.941 31.57 173.841 32.33C174.761 33.07 175.221 34.32 175.221 36.08C175.221 37.2 175.071 38.06 174.771 38.66C174.471 39.24 173.871 39.69 172.971 40.01C174.051 40.23 174.851 40.71 175.371 41.45C175.891 42.19 176.151 43.2 176.151 44.48ZM170.931 36.77C170.931 36.11 170.801 35.65 170.541 35.39C170.301 35.13 169.871 35 169.251 35H166.131V38.81H169.251C169.871 38.81 170.301 38.66 170.541 38.36C170.801 38.04 170.931 37.51 170.931 36.77ZM171.651 44.18C171.651 43.46 171.471 42.96 171.111 42.68C170.751 42.38 170.131 42.23 169.251 42.23H166.131V46.04H169.251C170.131 46.04 170.751 45.9 171.111 45.62C171.471 45.34 171.651 44.86 171.651 44.18ZM182.98 50.3C181.3 50.3 180.04 49.89 179.2 49.07C178.38 48.23 177.97 46.97 177.97 45.29V35.18H182.47V44.69C182.47 45.19 182.62 45.55 182.92 45.77C183.22 45.99 183.7 46.1 184.36 46.1C184.74 46.1 185.14 46.07 185.56 46.01C186 45.95 186.44 45.86 186.88 45.74V35.18H191.38V50H187.18L187.06 49.19H187C186.3 49.53 185.59 49.8 184.87 50C184.17 50.2 183.54 50.3 182.98 50.3ZM199.998 38.69C199.158 38.69 198.588 38.76 198.288 38.9C198.008 39.02 197.868 39.31 197.868 39.77C197.868 39.95 197.918 40.1 198.018 40.22C198.138 40.32 198.298 40.38 198.498 40.4L202.068 40.88C203.228 41.04 204.038 41.42 204.498 42.02C204.978 42.6 205.218 43.53 205.218 44.81C205.218 46.73 204.788 48.13 203.928 49.01C203.068 49.87 201.568 50.3 199.428 50.3C198.248 50.3 197.178 50.25 196.218 50.15C195.278 50.07 194.478 49.95 193.818 49.79V45.89C194.318 46.01 195.008 46.12 195.888 46.22C196.788 46.3 197.698 46.34 198.618 46.34C199.438 46.34 199.988 46.26 200.268 46.1C200.568 45.92 200.718 45.59 200.718 45.11C200.718 44.95 200.668 44.82 200.568 44.72C200.468 44.6 200.338 44.53 200.178 44.51L196.488 44.03C195.408 43.89 194.618 43.5 194.118 42.86C193.638 42.2 193.398 41.23 193.398 39.95C193.398 38.27 193.928 37.01 194.988 36.17C196.048 35.31 197.618 34.88 199.698 34.88C200.518 34.88 201.278 34.9 201.978 34.94C202.678 34.98 203.418 35.06 204.198 35.18V38.93C203.698 38.85 203.078 38.79 202.338 38.75C201.598 38.71 200.818 38.69 199.998 38.69ZM211.801 33.56H207.061V30.05H211.801V33.56ZM211.681 50H207.181V35.18H211.681V50ZM218.77 50H214.27V35.18H218.17L218.35 36.74H218.44C219.08 36.08 219.77 35.61 220.51 35.33C221.27 35.03 222.18 34.88 223.24 34.88C224.92 34.88 226.19 35.29 227.05 36.11C227.91 36.93 228.34 38.14 228.34 39.74V50H223.84V40.34C223.84 39.88 223.65 39.53 223.27 39.29C222.91 39.05 222.37 38.93 221.65 38.93C221.11 38.93 220.59 38.99 220.09 39.11C219.59 39.23 219.15 39.4 218.77 39.62V50ZM243.123 45.62V49.19C242.643 49.49 241.833 49.75 240.693 49.97C239.553 50.19 238.353 50.3 237.093 50.3C234.693 50.3 232.963 49.7 231.903 48.5C230.843 47.28 230.313 45.31 230.313 42.59C230.313 39.93 230.873 37.98 231.993 36.74C233.113 35.5 234.883 34.88 237.303 34.88C239.663 34.88 241.323 35.35 242.283 36.29C243.263 37.21 243.753 38.85 243.753 41.21C243.753 41.85 243.743 42.36 243.723 42.74C243.703 43.12 243.663 43.56 243.603 44.06H234.843C234.863 44.88 235.083 45.45 235.503 45.77C235.923 46.09 236.693 46.25 237.813 46.25C238.773 46.25 239.753 46.19 240.753 46.07C241.753 45.93 242.543 45.78 243.123 45.62ZM237.303 38.72C236.343 38.72 235.693 38.89 235.353 39.23C235.013 39.55 234.843 40.19 234.843 41.15H239.673V40.49C239.653 39.79 239.483 39.32 239.163 39.08C238.863 38.84 238.243 38.72 237.303 38.72ZM251.853 38.69C251.013 38.69 250.443 38.76 250.143 38.9C249.863 39.02 249.723 39.31 249.723 39.77C249.723 39.95 249.773 40.1 249.873 40.22C249.993 40.32 250.153 40.38 250.353 40.4L253.923 40.88C255.083 41.04 255.893 41.42 256.353 42.02C256.833 42.6 257.073 43.53 257.073 44.81C257.073 46.73 256.643 48.13 255.783 49.01C254.923 49.87 253.423 50.3 251.283 50.3C250.103 50.3 249.033 50.25 248.073 50.15C247.133 50.07 246.333 49.95 245.673 49.79V45.89C246.173 46.01 246.863 46.12 247.743 46.22C248.643 46.3 249.553 46.34 250.473 46.34C251.293 46.34 251.843 46.26 252.123 46.1C252.423 45.92 252.573 45.59 252.573 45.11C252.573 44.95 252.523 44.82 252.423 44.72C252.323 44.6 252.193 44.53 252.033 44.51L248.343 44.03C247.263 43.89 246.473 43.5 245.973 42.86C245.493 42.2 245.253 41.23 245.253 39.95C245.253 38.27 245.783 37.01 246.843 36.17C247.903 35.31 249.473 34.88 251.553 34.88C252.373 34.88 253.133 34.9 253.833 34.94C254.533 34.98 255.273 35.06 256.053 35.18V38.93C255.553 38.85 254.933 38.79 254.193 38.75C253.453 38.71 252.673 38.69 251.853 38.69ZM265.066 38.69C264.226 38.69 263.656 38.76 263.356 38.9C263.076 39.02 262.936 39.31 262.936 39.77C262.936 39.95 262.986 40.1 263.086 40.22C263.206 40.32 263.366 40.38 263.566 40.4L267.136 40.88C268.296 41.04 269.106 41.42 269.566 42.02C270.046 42.6 270.286 43.53 270.286 44.81C270.286 46.73 269.856 48.13 268.996 49.01C268.136 49.87 266.636 50.3 264.496 50.3C263.316 50.3 262.246 50.25 261.286 50.15C260.346 50.07 259.546 49.95 258.886 49.79V45.89C259.386 46.01 260.076 46.12 260.956 46.22C261.856 46.3 262.766 46.34 263.686 46.34C264.506 46.34 265.056 46.26 265.336 46.1C265.636 45.92 265.786 45.59 265.786 45.11C265.786 44.95 265.736 44.82 265.636 44.72C265.536 44.6 265.406 44.53 265.246 44.51L261.556 44.03C260.476 43.89 259.686 43.5 259.186 42.86C258.706 42.2 258.466 41.23 258.466 39.95C258.466 38.27 258.996 37.01 260.056 36.17C261.116 35.31 262.686 34.88 264.766 34.88C265.586 34.88 266.346 34.9 267.046 34.94C267.746 34.98 268.486 35.06 269.266 35.18V38.93C268.766 38.85 268.146 38.79 267.406 38.75C266.666 38.71 265.886 38.69 265.066 38.69Z" fill="white"/>
<defs>
<filter id="filter0_dd" x="0" y="44" width="73" height="186.95" filterUnits="userSpaceOnUse" color-interpolation-filters="sRGB">
<feFlood flood-opacity="0" result="BackgroundImageFix"/>
<feColorMatrix in="SourceAlpha" type="matrix" values="0 0 0 0 0 0 0 0 0 0 0 0 0 0 0 0 0 0 127 0"/>
<feOffset dx="4" dy="4"/>
<feGaussianBlur stdDeviation="4"/>
<feColorMatrix type="matrix" values="0 0 0 0 0.631748 0 0 0 0 0.758333 0 0 0 0 0.521354 0 0 0 0.75 0"/>
<feBlend mode="normal" in2="BackgroundImageFix" result="effect1_dropShadow"/>
<feColorMatrix in="SourceAlpha" type="matrix" values="0 0 0 0 0 0 0 0 0 0 0 0 0 0 0 0 0 0 127 0"/>
<feOffset dx="-4" dy="-4"/>
<feGaussianBlur stdDeviation="2"/>
<feColorMatrix type="matrix" values="0 0 0 0 1 0 0 0 0 1 0 0 0 0 1 0 0 0 0.25 0"/>
<feBlend mode="normal" in2="effect1_dropShadow" result="effect2_dropShadow"/>
<feBlend mode="normal" in="SourceGraphic" in2="effect2_dropShadow" result="shape"/>
</filter>
<filter id="filter1_dd" x="97" y="0" width="241" height="274" filterUnits="userSpaceOnUse" color-interpolation-filters="sRGB">
<feFlood flood-opacity="0" result="BackgroundImageFix"/>
<feColorMatrix in="SourceAlpha" type="matrix" values="0 0 0 0 0 0 0 0 0 0 0 0 0 0 0 0 0 0 127 0"/>
<feOffset dx="4" dy="4"/>
<feGaussianBlur stdDeviation="4"/>
<feColorMatrix type="matrix" values="0 0 0 0 0.631748 0 0 0 0 0.758333 0 0 0 0 0.521354 0 0 0 0.75 0"/>
<feBlend mode="normal" in2="BackgroundImageFix" result="effect1_dropShadow"/>
<feColorMatrix in="SourceAlpha" type="matrix" values="0 0 0 0 0 0 0 0 0 0 0 0 0 0 0 0 0 0 127 0"/>
<feOffset dx="-4" dy="-4"/>
<feGaussianBlur stdDeviation="2"/>
<feColorMatrix type="matrix" values="0 0 0 0 1 0 0 0 0 1 0 0 0 0 1 0 0 0 0.25 0"/>
<feBlend mode="normal" in2="effect1_dropShadow" result="effect2_dropShadow"/>
<feBlend mode="normal" in="SourceGraphic" in2="effect2_dropShadow" result="shape"/>
</filter>
<clipPath id="clip0">
<rect width="20" height="20" fill="white" transform="translate(24 68.9492)"/>
</clipPath>
<clipPath id="clip1">
<rect width="17" height="17" fill="white" transform="translate(28 145.949)"/>
</clipPath>
</defs>
</svg>
