<svg width="526" height="245" viewBox="0 0 526 245" fill="none" xmlns="http://www.w3.org/2000/svg">
<g filter="url(#filter0_dd)">
<rect x="30" y="30" width="463" height="185" rx="20" fill="#1C8463"/>
</g>
<path d="M173.528 138H163.88V107.904H173.528C176.6 107.904 179.032 108.16 180.824 108.672C182.648 109.184 184.104 110 185.192 111.12C186.28 112.24 187.064 113.76 187.544 115.68C188.056 117.568 188.312 119.984 188.312 122.928C188.312 128.144 187.144 131.968 184.808 134.4C182.472 136.8 178.712 138 173.528 138ZM180.776 115.296C180.168 114.496 179.32 113.936 178.232 113.616C177.144 113.264 175.576 113.088 173.528 113.088H169.64V132.576H173.528C176.984 132.576 179.32 131.872 180.536 130.464C181.752 129.056 182.36 126.544 182.36 122.928C182.36 121.008 182.232 119.44 181.976 118.224C181.72 117.008 181.32 116.032 180.776 115.296ZM213.201 132.576V138H192.849V107.904H212.769V113.088H198.609V120.192H210.993V125.136H198.609V132.576H213.201ZM229.025 126.048L222.353 124.464C220.145 123.952 218.593 123.12 217.697 121.968C216.801 120.784 216.353 119.104 216.353 116.928C216.353 113.664 217.249 111.264 219.041 109.728C220.833 108.192 223.617 107.424 227.393 107.424C228.961 107.424 230.353 107.504 231.569 107.664C232.817 107.792 233.969 108 235.025 108.288V113.472C233.201 113.12 231.745 112.896 230.657 112.8C229.569 112.672 228.449 112.608 227.297 112.608C225.377 112.608 224.017 112.912 223.217 113.52C222.417 114.096 222.017 115.104 222.017 116.544C222.017 117.376 222.177 118.016 222.497 118.464C222.849 118.88 223.425 119.184 224.225 119.376L230.705 120.912C232.209 121.264 233.329 121.632 234.065 122.016C234.801 122.368 235.409 122.816 235.889 123.36C236.369 123.968 236.721 124.72 236.945 125.616C237.201 126.512 237.329 127.616 237.329 128.928C237.329 132.32 236.433 134.752 234.641 136.224C232.849 137.696 230.065 138.432 226.289 138.432C224.337 138.432 222.449 138.304 220.625 138.048C218.833 137.792 217.425 137.472 216.401 137.088V131.664C217.777 132.08 219.329 132.416 221.057 132.672C222.817 132.896 224.561 133.008 226.289 133.008C228.177 133.008 229.489 132.752 230.225 132.24C230.993 131.696 231.377 130.656 231.377 129.12C231.377 128.16 231.217 127.472 230.897 127.056C230.609 126.608 229.985 126.272 229.025 126.048ZM247.124 107.904V138H241.364V107.904H247.124ZM270.992 126.24H264.464V121.44H276.368V136.608C275.472 137.024 273.872 137.44 271.568 137.856C269.264 138.24 267.168 138.432 265.28 138.432C260.192 138.432 256.656 137.248 254.672 134.88C252.72 132.512 251.744 128.528 251.744 122.928C251.744 117.584 252.896 113.664 255.2 111.168C257.536 108.672 261.216 107.424 266.24 107.424C268.128 107.424 269.808 107.472 271.28 107.568C272.784 107.632 273.936 107.744 274.736 107.904V112.944C273.584 112.848 272.256 112.768 270.752 112.704C269.248 112.64 267.744 112.608 266.24 112.608C262.944 112.608 260.688 113.36 259.472 114.864C258.288 116.368 257.696 119.056 257.696 122.928C257.696 124.784 257.792 126.32 257.984 127.536C258.208 128.752 258.528 129.744 258.944 130.512C259.488 131.472 260.256 132.16 261.248 132.576C262.272 132.992 263.776 133.2 265.76 133.2C266.432 133.2 267.216 133.152 268.112 133.056C269.008 132.96 269.968 132.832 270.992 132.672V126.24ZM306.364 107.904V138H300.748L286.492 117.6V138H281.068V107.904H286.684L300.988 128.784V107.904H306.364Z" fill="white"/>
<circle cx="483" cy="123" r="43" transform="rotate(90 483 123)" fill="#FF5975"/>
<path d="M491.768 124.768C492.744 123.791 492.744 122.209 491.768 121.232L475.858 105.322C474.882 104.346 473.299 104.346 472.322 105.322C471.346 106.299 471.346 107.882 472.322 108.858L486.464 123L472.322 137.142C471.346 138.118 471.346 139.701 472.322 140.678C473.299 141.654 474.882 141.654 475.858 140.678L491.768 124.768ZM377 125.5H490V120.5H377V125.5Z" fill="black"/>
<defs>
<filter id="filter0_dd" x="0" y="0" width="523" height="245" filterUnits="userSpaceOnUse" color-interpolation-filters="sRGB">
<feFlood flood-opacity="0" result="BackgroundImageFix"/>
<feColorMatrix in="SourceAlpha" type="matrix" values="0 0 0 0 0 0 0 0 0 0 0 0 0 0 0 0 0 0 127 0"/>
<feOffset dx="-10" dy="-10"/>
<feGaussianBlur stdDeviation="10"/>
<feColorMatrix type="matrix" values="0 0 0 0 1 0 0 0 0 1 0 0 0 0 1 0 0 0 0.38 0"/>
<feBlend mode="normal" in2="BackgroundImageFix" result="effect1_dropShadow"/>
<feColorMatrix in="SourceAlpha" type="matrix" values="0 0 0 0 0 0 0 0 0 0 0 0 0 0 0 0 0 0 127 0"/>
<feOffset dx="10" dy="10"/>
<feGaussianBlur stdDeviation="10"/>
<feColorMatrix type="matrix" values="0 0 0 0 0.203922 0 0 0 0 0.760784 0 0 0 0 0.368627 0 0 0 0.42 0"/>
<feBlend mode="normal" in2="effect1_dropShadow" result="effect2_dropShadow"/>
<feBlend mode="normal" in="SourceGraphic" in2="effect2_dropShadow" result="shape"/>
</filter>
</defs>
</svg>
