<svg width="526" height="245" viewBox="0 0 526 245" fill="none" xmlns="http://www.w3.org/2000/svg">
<g filter="url(#filter0_dd)">
<rect x="30" y="30" width="463" height="185" rx="20" fill="#34C25E"/>
</g>
<path d="M173.528 138H163.88V107.904H173.528C176.6 107.904 179.032 108.16 180.824 108.672C182.648 109.184 184.104 110 185.192 111.12C186.28 112.24 187.064 113.76 187.544 115.68C188.056 117.568 188.312 119.984 188.312 122.928C188.312 128.144 187.144 131.968 184.808 134.4C182.472 136.8 178.712 138 173.528 138ZM180.776 115.296C180.168 114.496 179.32 113.936 178.232 113.616C177.144 113.264 175.576 113.088 173.528 113.088H169.64V132.576H173.528C176.984 132.576 179.32 131.872 180.536 130.464C181.752 129.056 182.36 126.544 182.36 122.928C182.36 121.008 182.232 119.44 181.976 118.224C181.72 117.008 181.32 116.032 180.776 115.296ZM213.201 132.576V138H192.849V107.904H212.769V113.088H198.609V120.192H210.993V125.136H198.609V132.576H213.201ZM225.617 138L214.769 107.904H221.201L226.865 124.848C227.153 125.712 227.489 126.88 227.873 128.352C228.289 129.792 228.721 131.424 229.169 133.248C229.617 131.392 230.033 129.744 230.417 128.304C230.833 126.864 231.169 125.728 231.425 124.896L237.089 107.904H243.329L232.481 138H225.617ZM266.685 132.576V138H246.333V107.904H266.253V113.088H252.093V120.192H264.477V125.136H252.093V132.576H266.685ZM289.805 132.576V138H270.989V107.904H276.749V132.576H289.805ZM319.141 122.88C319.141 128.352 318.053 132.32 315.877 134.784C313.733 137.216 310.229 138.432 305.365 138.432C300.181 138.432 296.581 137.296 294.565 135.024C292.549 132.72 291.541 128.672 291.541 122.88C291.541 117.44 292.629 113.504 294.805 111.072C296.981 108.64 300.501 107.424 305.365 107.424C310.517 107.424 314.101 108.576 316.117 110.88C318.133 113.152 319.141 117.152 319.141 122.88ZM298.549 130.464C299.061 131.392 299.813 132.048 300.805 132.432C301.797 132.816 303.317 133.008 305.365 133.008C308.533 133.008 310.645 132.304 311.701 130.896C312.757 129.456 313.285 126.784 313.285 122.88C313.285 120.992 313.189 119.44 312.997 118.224C312.837 117.008 312.549 116.016 312.133 115.248C311.621 114.288 310.869 113.616 309.877 113.232C308.885 112.816 307.381 112.608 305.365 112.608C302.165 112.608 300.037 113.328 298.981 114.768C297.925 116.208 297.397 118.912 297.397 122.88C297.397 124.768 297.493 126.32 297.685 127.536C297.877 128.752 298.165 129.728 298.549 130.464ZM329.531 128.88V138H323.771V107.904H334.379C338.827 107.904 341.995 108.688 343.883 110.256C345.803 111.824 346.763 114.432 346.763 118.08C346.763 121.76 345.755 124.48 343.739 126.24C341.755 128 338.683 128.88 334.523 128.88H329.531ZM340.907 118.08C340.907 116.256 340.411 114.976 339.419 114.24C338.459 113.472 336.779 113.088 334.379 113.088H329.531V123.84H334.379C336.779 123.84 338.459 123.408 339.419 122.544C340.411 121.648 340.907 120.16 340.907 118.08Z" fill="white"/>
<circle cx="483" cy="123" r="43" transform="rotate(90 483 123)" fill="#FF5975"/>
<path d="M491.768 124.768C492.744 123.791 492.744 122.209 491.768 121.232L475.858 105.322C474.882 104.346 473.299 104.346 472.322 105.322C471.346 106.299 471.346 107.882 472.322 108.858L486.464 123L472.322 137.142C471.346 138.118 471.346 139.701 472.322 140.678C473.299 141.654 474.882 141.654 475.858 140.678L491.768 124.768ZM377 125.5H490V120.5H377V125.5Z" fill="black"/>
<defs>
<filter id="filter0_dd" x="0" y="0" width="523" height="245" filterUnits="userSpaceOnUse" color-interpolation-filters="sRGB">
<feFlood flood-opacity="0" result="BackgroundImageFix"/>
<feColorMatrix in="SourceAlpha" type="matrix" values="0 0 0 0 0 0 0 0 0 0 0 0 0 0 0 0 0 0 127 0"/>
<feOffset dx="-10" dy="-10"/>
<feGaussianBlur stdDeviation="10"/>
<feColorMatrix type="matrix" values="0 0 0 0 1 0 0 0 0 1 0 0 0 0 1 0 0 0 0.38 0"/>
<feBlend mode="normal" in2="BackgroundImageFix" result="effect1_dropShadow"/>
<feColorMatrix in="SourceAlpha" type="matrix" values="0 0 0 0 0 0 0 0 0 0 0 0 0 0 0 0 0 0 127 0"/>
<feOffset dx="10" dy="10"/>
<feGaussianBlur stdDeviation="10"/>
<feColorMatrix type="matrix" values="0 0 0 0 0.203922 0 0 0 0 0.760784 0 0 0 0 0.368627 0 0 0 0.42 0"/>
<feBlend mode="normal" in2="effect1_dropShadow" result="effect2_dropShadow"/>
<feBlend mode="normal" in="SourceGraphic" in2="effect2_dropShadow" result="shape"/>
</filter>
</defs>
</svg>
