<svg width="596" height="498" viewBox="0 0 596 498" fill="none" xmlns="http://www.w3.org/2000/svg">
<path d="M12.528 46H2.88V15.904H12.528C15.6 15.904 18.032 16.16 19.824 16.672C21.648 17.184 23.104 18 24.192 19.12C25.28 20.24 26.064 21.76 26.544 23.68C27.056 25.568 27.312 27.984 27.312 30.928C27.312 36.144 26.144 39.968 23.808 42.4C21.472 44.8 17.712 46 12.528 46ZM19.776 23.296C19.168 22.496 18.32 21.936 17.232 21.616C16.144 21.264 14.576 21.088 12.528 21.088H8.64V40.576H12.528C15.984 40.576 18.32 39.872 19.536 38.464C20.752 37.056 21.36 34.544 21.36 30.928C21.36 29.008 21.232 27.44 20.976 26.224C20.72 25.008 20.32 24.032 19.776 23.296ZM52.2008 40.576V46H31.8488V15.904H51.7688V21.088H37.6088V28.192H49.9928V33.136H37.6088V40.576H52.2008ZM64.617 46L53.769 15.904H60.201L65.865 32.848C66.153 33.712 66.489 34.88 66.873 36.352C67.289 37.792 67.721 39.424 68.169 41.248C68.617 39.392 69.033 37.744 69.417 36.304C69.833 34.864 70.169 33.728 70.425 32.896L76.089 15.904H82.329L71.481 46H64.617ZM105.685 40.576V46H85.3331V15.904H105.253V21.088H91.0931V28.192H103.477V33.136H91.0931V40.576H105.685ZM128.805 40.576V46H109.989V15.904H115.749V40.576H128.805ZM158.141 30.88C158.141 36.352 157.053 40.32 154.877 42.784C152.733 45.216 149.229 46.432 144.365 46.432C139.181 46.432 135.581 45.296 133.565 43.024C131.549 40.72 130.541 36.672 130.541 30.88C130.541 25.44 131.629 21.504 133.805 19.072C135.981 16.64 139.501 15.424 144.365 15.424C149.517 15.424 153.101 16.576 155.117 18.88C157.133 21.152 158.141 25.152 158.141 30.88ZM137.549 38.464C138.061 39.392 138.813 40.048 139.805 40.432C140.797 40.816 142.317 41.008 144.365 41.008C147.533 41.008 149.645 40.304 150.701 38.896C151.757 37.456 152.285 34.784 152.285 30.88C152.285 28.992 152.189 27.44 151.997 26.224C151.837 25.008 151.549 24.016 151.133 23.248C150.621 22.288 149.869 21.616 148.877 21.232C147.885 20.816 146.381 20.608 144.365 20.608C141.165 20.608 139.037 21.328 137.981 22.768C136.925 24.208 136.397 26.912 136.397 30.88C136.397 32.768 136.493 34.32 136.685 35.536C136.877 36.752 137.165 37.728 137.549 38.464ZM168.531 36.88V46H162.771V15.904H173.379C177.827 15.904 180.995 16.688 182.883 18.256C184.803 19.824 185.763 22.432 185.763 26.08C185.763 29.76 184.755 32.48 182.739 34.24C180.755 36 177.683 36.88 173.523 36.88H168.531ZM179.907 26.08C179.907 24.256 179.411 22.976 178.419 22.24C177.459 21.472 175.779 21.088 173.379 21.088H168.531V31.84H173.379C175.779 31.84 177.459 31.408 178.419 30.544C179.411 29.648 179.907 28.16 179.907 26.08Z" fill="#34C25E"/>
<path d="M19.8 189L0 113.76H20.16L28.08 150.96C28.4 152.24 28.72 153.96 29.04 156.12C29.44 158.28 30.08 162.44 30.96 168.6C31.2 167.08 31.64 164.16 32.28 159.84C33 155.52 33.52 152.6 33.84 151.08L41.52 113.76H60.96L68.88 150.96C69.2 152.24 69.52 153.96 69.84 156.12C70.24 158.28 70.88 162.44 71.76 168.6C72 167.08 72.44 164.16 73.08 159.84C73.8 155.52 74.32 152.6 74.64 151.08L82.32 113.76H101.88L82.2 189H60.72L55.92 166.2C55.12 162.36 54.32 158.32 53.52 154.08C52.72 149.84 51.88 145.16 51 140.04C49.72 147.16 48.72 152.52 48 156.12C47.28 159.72 46.6 163.08 45.96 166.2L41.16 189H19.8ZM152.209 171.48V185.76C150.289 186.96 147.049 188 142.489 188.88C137.929 189.76 133.129 190.2 128.089 190.2C118.489 190.2 111.569 187.8 107.329 183C103.089 178.12 100.969 170.24 100.969 159.36C100.969 148.72 103.209 140.92 107.689 135.96C112.169 131 119.249 128.52 128.929 128.52C138.369 128.52 145.009 130.4 148.849 134.16C152.769 137.84 154.729 144.4 154.729 153.84C154.729 156.4 154.689 158.44 154.609 159.96C154.529 161.48 154.369 163.24 154.129 165.24H119.089C119.169 168.52 120.049 170.8 121.729 172.08C123.409 173.36 126.489 174 130.969 174C134.809 174 138.729 173.76 142.729 173.28C146.729 172.72 149.889 172.12 152.209 171.48ZM128.929 143.88C125.089 143.88 122.489 144.56 121.129 145.92C119.769 147.2 119.089 149.76 119.089 153.6H138.409V150.96C138.329 148.16 137.649 146.28 136.369 145.32C135.169 144.36 132.689 143.88 128.929 143.88ZM224.864 170.88V185.76C222.944 186.96 219.824 188 215.504 188.88C211.184 189.76 206.744 190.2 202.184 190.2C193.544 190.2 187.464 187.92 183.944 183.36C180.504 178.72 178.784 170.72 178.784 159.36C178.784 148 181.024 140.04 185.504 135.48C189.984 130.84 197.824 128.52 209.024 128.52C211.744 128.52 214.184 128.6 216.344 128.76C218.504 128.84 220.824 129.04 223.304 129.36V145.32C219.384 145 216.544 144.84 214.784 144.84C213.024 144.76 211.104 144.72 209.024 144.72C203.504 144.72 200.064 145.52 198.704 147.12C197.424 148.64 196.784 152.72 196.784 159.36C196.784 165.36 197.304 169.2 198.344 170.88C199.464 172.56 201.984 173.4 205.904 173.4C209.104 173.4 212.424 173.16 215.864 172.68C219.384 172.2 222.384 171.6 224.864 170.88ZM288.669 159.36C288.669 170.48 286.429 178.4 281.949 183.12C277.469 187.84 269.949 190.2 259.389 190.2C248.829 190.2 241.309 187.84 236.829 183.12C232.349 178.4 230.109 170.48 230.109 159.36C230.109 148.24 232.349 140.32 236.829 135.6C241.309 130.88 248.829 128.52 259.389 128.52C269.949 128.52 277.469 130.88 281.949 135.6C286.429 140.32 288.669 148.24 288.669 159.36ZM248.109 159.12C248.109 165.2 248.749 169.12 250.029 170.88C251.389 172.64 254.509 173.52 259.389 173.52C264.269 173.52 267.349 172.64 268.629 170.88C269.989 169.12 270.669 165.2 270.669 159.12C270.669 153.04 269.989 149.12 268.629 147.36C267.349 145.6 264.269 144.72 259.389 144.72C254.509 144.72 251.389 145.6 250.029 147.36C248.749 149.12 248.109 153.04 248.109 159.12ZM333.44 109.2H351.44V189H335.48L334.52 183.48H334.16C332 185.72 329.44 187.4 326.48 188.52C323.52 189.64 320.16 190.2 316.4 190.2C308.56 190.2 302.96 187.84 299.6 183.12C296.32 178.4 294.68 170.48 294.68 159.36C294.68 148.56 296.76 140.72 300.92 135.84C305.16 130.96 312 128.52 321.44 128.52C323.76 128.52 325.92 128.68 327.92 129C330 129.24 331.84 129.6 333.44 130.08V109.2ZM323.96 144.72C319.16 144.72 316.08 145.64 314.72 147.48C313.36 149.24 312.68 153.2 312.68 159.36C312.68 165.2 313.28 169.04 314.48 170.88C315.68 172.64 318.48 173.52 322.88 173.52C324.96 173.52 326.88 173.36 328.64 173.04C330.48 172.72 332.08 172.24 333.44 171.6V146.28C332.24 145.72 330.84 145.32 329.24 145.08C327.72 144.84 325.96 144.72 323.96 144.72ZM410.842 171.48V185.76C408.922 186.96 405.682 188 401.122 188.88C396.562 189.76 391.762 190.2 386.722 190.2C377.122 190.2 370.202 187.8 365.962 183C361.722 178.12 359.602 170.24 359.602 159.36C359.602 148.72 361.842 140.92 366.322 135.96C370.802 131 377.882 128.52 387.562 128.52C397.002 128.52 403.642 130.4 407.482 134.16C411.402 137.84 413.362 144.4 413.362 153.84C413.362 156.4 413.322 158.44 413.242 159.96C413.162 161.48 413.002 163.24 412.762 165.24H377.722C377.802 168.52 378.682 170.8 380.362 172.08C382.042 173.36 385.122 174 389.602 174C393.442 174 397.362 173.76 401.362 173.28C405.362 172.72 408.522 172.12 410.842 171.48ZM387.562 143.88C383.722 143.88 381.122 144.56 379.762 145.92C378.402 147.2 377.722 149.76 377.722 153.6H397.042V150.96C396.962 148.16 396.282 146.28 395.002 145.32C393.802 144.36 391.322 143.88 387.562 143.88ZM41.76 253.2H59.76V333H43.8L42.84 327.48H42.48C40.32 329.72 37.76 331.4 34.8 332.52C31.84 333.64 28.48 334.2 24.72 334.2C16.88 334.2 11.28 331.84 7.92 327.12C4.64 322.4 3 314.48 3 303.36C3 292.56 5.08 284.72 9.24 279.84C13.48 274.96 20.32 272.52 29.76 272.52C32.08 272.52 34.24 272.68 36.24 273C38.32 273.24 40.16 273.6 41.76 274.08V253.2ZM32.28 288.72C27.48 288.72 24.4 289.64 23.04 291.48C21.68 293.24 21 297.2 21 303.36C21 309.2 21.6 313.04 22.8 314.88C24 316.64 26.8 317.52 31.2 317.52C33.28 317.52 35.2 317.36 36.96 317.04C38.8 316.72 40.4 316.24 41.76 315.6V290.28C40.56 289.72 39.16 289.32 37.56 289.08C36.04 288.84 34.28 288.72 32.28 288.72ZM119.162 315.48V329.76C117.242 330.96 114.002 332 109.442 332.88C104.882 333.76 100.082 334.2 95.0419 334.2C85.4419 334.2 78.5219 331.8 74.2819 327C70.0419 322.12 67.9219 314.24 67.9219 303.36C67.9219 292.72 70.1619 284.92 74.6419 279.96C79.1219 275 86.2019 272.52 95.8819 272.52C105.322 272.52 111.962 274.4 115.802 278.16C119.722 281.84 121.682 288.4 121.682 297.84C121.682 300.4 121.642 302.44 121.562 303.96C121.482 305.48 121.322 307.24 121.082 309.24H86.0419C86.1219 312.52 87.0019 314.8 88.6819 316.08C90.3619 317.36 93.4419 318 97.9219 318C101.762 318 105.682 317.76 109.682 317.28C113.682 316.72 116.842 316.12 119.162 315.48ZM95.8819 287.88C92.0419 287.88 89.4419 288.56 88.0819 289.92C86.7219 291.2 86.0419 293.76 86.0419 297.6H105.362V294.96C105.282 292.16 104.602 290.28 103.322 289.32C102.122 288.36 99.6419 287.88 95.8819 287.88ZM154.085 287.76C150.725 287.76 148.445 288.04 147.245 288.6C146.125 289.08 145.565 290.24 145.565 292.08C145.565 292.8 145.765 293.4 146.165 293.88C146.645 294.28 147.285 294.52 148.085 294.6L162.365 296.52C167.005 297.16 170.245 298.68 172.085 301.08C174.005 303.4 174.965 307.12 174.965 312.24C174.965 319.92 173.245 325.52 169.805 329.04C166.365 332.48 160.365 334.2 151.805 334.2C147.085 334.2 142.805 334 138.965 333.6C135.205 333.28 132.005 332.8 129.365 332.16V316.56C131.365 317.04 134.125 317.48 137.645 317.88C141.245 318.2 144.885 318.36 148.565 318.36C151.845 318.36 154.045 318.04 155.165 317.4C156.365 316.68 156.965 315.36 156.965 313.44C156.965 312.8 156.765 312.28 156.365 311.88C155.965 311.4 155.445 311.12 154.805 311.04L140.045 309.12C135.725 308.56 132.565 307 130.565 304.44C128.645 301.8 127.685 297.92 127.685 292.8C127.685 286.08 129.805 281.04 134.045 277.68C138.285 274.24 144.565 272.52 152.885 272.52C156.165 272.52 159.205 272.6 162.005 272.76C164.805 272.92 167.765 273.24 170.885 273.72V288.72C168.885 288.4 166.405 288.16 163.445 288C160.485 287.84 157.365 287.76 154.085 287.76ZM201.296 267.24H182.336V253.2H201.296V267.24ZM200.816 333H182.816V273.72H200.816V333ZM237.936 352.44C233.696 352.44 229.616 352.16 225.696 351.6C221.856 351.04 218.696 350.32 216.216 349.44V334.2C218.136 334.76 221.016 335.24 224.856 335.64C228.776 336.04 232.656 336.24 236.496 336.24C240.816 336.24 243.776 335.6 245.376 334.32C246.976 333.04 247.816 330.68 247.896 327.24V324.36C244.696 325.88 241.616 327.04 238.656 327.84C235.696 328.56 232.816 328.92 230.016 328.92C222.416 328.92 217.016 326.8 213.816 322.56C210.696 318.24 209.136 310.96 209.136 300.72C209.136 290.56 211.376 283.32 215.856 279C220.416 274.68 228.056 272.52 238.776 272.52C243.016 272.52 247.896 272.76 253.416 273.24C259.016 273.72 263.176 274.24 265.896 274.8V321.6C265.896 333.04 263.816 341.04 259.656 345.6C255.496 350.16 248.256 352.44 237.936 352.44ZM238.776 288.72C233.416 288.72 230.136 289.32 228.936 290.52C227.736 291.72 227.136 295.12 227.136 300.72C227.136 305.76 227.656 308.96 228.696 310.32C229.736 311.6 232.256 312.24 236.256 312.24C237.776 312.24 239.496 312.08 241.416 311.76C243.416 311.44 245.576 311 247.896 310.44V289.44C246.696 289.2 245.336 289.04 243.816 288.96C242.296 288.8 240.616 288.72 238.776 288.72ZM294.215 333H276.215V273.72H291.815L292.535 279.96H292.895C295.455 277.32 298.215 275.44 301.175 274.32C304.215 273.12 307.855 272.52 312.095 272.52C318.815 272.52 323.895 274.16 327.335 277.44C330.775 280.72 332.495 285.56 332.495 291.96V333H314.495V294.36C314.495 292.52 313.735 291.12 312.215 290.16C310.775 289.2 308.615 288.72 305.735 288.72C303.575 288.72 301.495 288.96 299.495 289.44C297.495 289.92 295.735 290.6 294.215 291.48V333ZM366.663 287.76C363.303 287.76 361.023 288.04 359.823 288.6C358.703 289.08 358.143 290.24 358.143 292.08C358.143 292.8 358.343 293.4 358.743 293.88C359.223 294.28 359.863 294.52 360.663 294.6L374.943 296.52C379.583 297.16 382.823 298.68 384.663 301.08C386.583 303.4 387.543 307.12 387.543 312.24C387.543 319.92 385.823 325.52 382.383 329.04C378.943 332.48 372.943 334.2 364.383 334.2C359.663 334.2 355.383 334 351.543 333.6C347.783 333.28 344.583 332.8 341.943 332.16V316.56C343.943 317.04 346.703 317.48 350.223 317.88C353.823 318.2 357.463 318.36 361.143 318.36C364.423 318.36 366.623 318.04 367.743 317.4C368.943 316.68 369.543 315.36 369.543 313.44C369.543 312.8 369.343 312.28 368.943 311.88C368.543 311.4 368.023 311.12 367.383 311.04L352.623 309.12C348.303 308.56 345.143 307 343.143 304.44C341.223 301.8 340.263 297.92 340.263 292.8C340.263 286.08 342.383 281.04 346.623 277.68C350.863 274.24 357.143 272.52 365.463 272.52C368.743 272.52 371.783 272.6 374.583 272.76C377.383 272.92 380.343 273.24 383.463 273.72V288.72C381.463 288.4 378.983 288.16 376.023 288C373.063 287.84 369.943 287.76 366.663 287.76ZM23.64 411.24H4.68V397.2H23.64V411.24ZM23.16 477H5.16V417.72H23.16V477ZM51.5194 477H33.5194V417.72H49.1194L49.8394 423.96H50.1994C52.7594 421.32 55.5194 419.44 58.4794 418.32C61.5194 417.12 65.1594 416.52 69.3994 416.52C76.1194 416.52 81.1994 418.16 84.6394 421.44C88.0794 424.72 89.7994 429.56 89.7994 435.96V477H71.7994V438.36C71.7994 436.52 71.0394 435.12 69.5194 434.16C68.0794 433.2 65.9194 432.72 63.0394 432.72C60.8794 432.72 58.7994 432.96 56.7994 433.44C54.7994 433.92 53.0394 434.6 51.5194 435.48V477ZM102.984 432.72H96.0244V417.72H103.584L105.864 403.92H120.984V417.72H137.784V432.72H120.984V455.76C120.984 458 121.544 459.52 122.664 460.32C123.864 461.04 126.184 461.4 129.624 461.4C130.824 461.4 132.304 461.32 134.064 461.16C135.824 460.92 137.304 460.68 138.504 460.44V475.8C137.224 476.36 135.224 476.88 132.504 477.36C129.864 477.92 127.504 478.2 125.424 478.2C117.424 478.2 111.664 476.52 108.144 473.16C104.704 469.72 102.984 464.16 102.984 456.48V432.72ZM200.662 447.36C200.662 458.48 198.422 466.4 193.942 471.12C189.462 475.84 181.942 478.2 171.382 478.2C160.822 478.2 153.302 475.84 148.822 471.12C144.342 466.4 142.102 458.48 142.102 447.36C142.102 436.24 144.342 428.32 148.822 423.6C153.302 418.88 160.822 416.52 171.382 416.52C181.942 416.52 189.462 418.88 193.942 423.6C198.422 428.32 200.662 436.24 200.662 447.36ZM160.102 447.12C160.102 453.2 160.742 457.12 162.022 458.88C163.382 460.64 166.502 461.52 171.382 461.52C176.262 461.52 179.342 460.64 180.622 458.88C181.982 457.12 182.662 453.2 182.662 447.12C182.662 441.04 181.982 437.12 180.622 435.36C179.342 433.6 176.262 432.72 171.382 432.72C166.502 432.72 163.382 433.6 162.022 435.36C160.742 437.12 160.102 441.04 160.102 447.12ZM241.044 478.2C234.964 478.2 230.484 476.68 227.604 473.64C224.804 470.6 223.404 465.8 223.404 459.24C223.404 452.52 225.084 447.8 228.444 445.08C231.884 442.36 237.764 441 246.084 441C248.004 441 249.964 441.12 251.964 441.36C254.044 441.52 255.844 441.76 257.364 442.08V437.76C257.364 435.84 256.524 434.44 254.844 433.56C253.244 432.6 250.764 432.12 247.404 432.12C243.564 432.12 240.124 432.24 237.084 432.48C234.124 432.64 231.404 432.96 228.924 433.44V418.68C231.884 417.96 235.324 417.44 239.244 417.12C243.164 416.72 247.724 416.52 252.924 416.52C260.284 416.52 265.844 418.16 269.604 421.44C273.444 424.72 275.364 429.56 275.364 435.96V477H258.564L257.964 471.96H257.604C255.124 473.88 252.404 475.4 249.444 476.52C246.484 477.64 243.684 478.2 241.044 478.2ZM248.484 452.88C245.284 452.88 243.124 453.24 242.004 453.96C240.884 454.6 240.324 456 240.324 458.16C240.324 460.16 240.764 461.56 241.644 462.36C242.604 463.08 244.244 463.44 246.564 463.44C248.324 463.44 250.164 463.2 252.084 462.72C254.004 462.24 255.764 461.64 257.364 460.92V453.6C256.404 453.36 255.204 453.2 253.764 453.12C252.324 452.96 250.564 452.88 248.484 452.88ZM309.593 431.76C306.233 431.76 303.953 432.04 302.753 432.6C301.633 433.08 301.073 434.24 301.073 436.08C301.073 436.8 301.273 437.4 301.673 437.88C302.153 438.28 302.793 438.52 303.593 438.6L317.873 440.52C322.513 441.16 325.753 442.68 327.593 445.08C329.513 447.4 330.473 451.12 330.473 456.24C330.473 463.92 328.753 469.52 325.313 473.04C321.873 476.48 315.873 478.2 307.313 478.2C302.593 478.2 298.313 478 294.473 477.6C290.713 477.28 287.513 476.8 284.873 476.16V460.56C286.873 461.04 289.633 461.48 293.153 461.88C296.753 462.2 300.393 462.36 304.073 462.36C307.353 462.36 309.553 462.04 310.673 461.4C311.873 460.68 312.473 459.36 312.473 457.44C312.473 456.8 312.273 456.28 311.873 455.88C311.473 455.4 310.953 455.12 310.312 455.04L295.553 453.12C291.233 452.56 288.073 451 286.073 448.44C284.153 445.8 283.193 441.92 283.193 436.8C283.193 430.08 285.313 425.04 289.553 421.68C293.793 418.24 300.073 416.52 308.393 416.52C311.673 416.52 314.713 416.6 317.513 416.76C320.313 416.92 323.273 417.24 326.393 417.72V432.72C324.393 432.4 321.913 432.16 318.953 432C315.993 431.84 312.873 431.76 309.593 431.76ZM362.444 431.76C359.084 431.76 356.804 432.04 355.604 432.6C354.484 433.08 353.924 434.24 353.924 436.08C353.924 436.8 354.124 437.4 354.524 437.88C355.004 438.28 355.644 438.52 356.444 438.6L370.724 440.52C375.364 441.16 378.604 442.68 380.444 445.08C382.364 447.4 383.324 451.12 383.324 456.24C383.324 463.92 381.604 469.52 378.164 473.04C374.724 476.48 368.724 478.2 360.164 478.2C355.444 478.2 351.164 478 347.324 477.6C343.564 477.28 340.364 476.8 337.724 476.16V460.56C339.724 461.04 342.484 461.48 346.004 461.88C349.604 462.2 353.244 462.36 356.924 462.36C360.204 462.36 362.404 462.04 363.524 461.4C364.724 460.68 365.324 459.36 365.324 457.44C365.324 456.8 365.124 456.28 364.724 455.88C364.324 455.4 363.804 455.12 363.164 455.04L348.404 453.12C344.084 452.56 340.924 451 338.924 448.44C337.004 445.8 336.044 441.92 336.044 436.8C336.044 430.08 338.164 425.04 342.404 421.68C346.644 418.24 352.924 416.52 361.244 416.52C364.524 416.52 367.564 416.6 370.364 416.76C373.164 416.92 376.124 417.24 379.244 417.72V432.72C377.244 432.4 374.764 432.16 371.804 432C368.844 431.84 365.724 431.76 362.444 431.76ZM440.256 459.48V473.76C438.336 474.96 435.096 476 430.536 476.88C425.976 477.76 421.176 478.2 416.136 478.2C406.536 478.2 399.616 475.8 395.376 471C391.136 466.12 389.016 458.24 389.016 447.36C389.016 436.72 391.256 428.92 395.736 423.96C400.216 419 407.296 416.52 416.976 416.52C426.416 416.52 433.056 418.4 436.896 422.16C440.816 425.84 442.776 432.4 442.776 441.84C442.776 444.4 442.736 446.44 442.656 447.96C442.576 449.48 442.416 451.24 442.176 453.24H407.136C407.216 456.52 408.096 458.8 409.776 460.08C411.456 461.36 414.536 462 419.016 462C422.856 462 426.776 461.76 430.776 461.28C434.776 460.72 437.936 460.12 440.256 459.48ZM416.976 431.88C413.136 431.88 410.536 432.56 409.176 433.92C407.816 435.2 407.136 437.76 407.136 441.6H426.456V438.96C426.376 436.16 425.696 434.28 424.416 433.32C423.216 432.36 420.736 431.88 416.976 431.88ZM454.43 432.72H447.47V417.72H455.03L457.31 403.92H472.43V417.72H489.23V432.72H472.43V455.76C472.43 458 472.99 459.52 474.11 460.32C475.31 461.04 477.63 461.4 481.07 461.4C482.27 461.4 483.75 461.32 485.51 461.16C487.27 460.92 488.75 460.68 489.95 460.44V475.8C488.67 476.36 486.67 476.88 483.95 477.36C481.31 477.92 478.95 478.2 476.87 478.2C468.87 478.2 463.11 476.52 459.59 473.16C456.15 469.72 454.43 464.16 454.43 456.48V432.72ZM520.413 431.76C517.053 431.76 514.773 432.04 513.573 432.6C512.453 433.08 511.893 434.24 511.893 436.08C511.893 436.8 512.093 437.4 512.493 437.88C512.973 438.28 513.613 438.52 514.413 438.6L528.693 440.52C533.333 441.16 536.573 442.68 538.413 445.08C540.333 447.4 541.293 451.12 541.293 456.24C541.293 463.92 539.573 469.52 536.133 473.04C532.693 476.48 526.693 478.2 518.133 478.2C513.413 478.2 509.133 478 505.293 477.6C501.533 477.28 498.333 476.8 495.693 476.16V460.56C497.693 461.04 500.453 461.48 503.973 461.88C507.573 462.2 511.213 462.36 514.893 462.36C518.173 462.36 520.373 462.04 521.493 461.4C522.693 460.68 523.293 459.36 523.293 457.44C523.293 456.8 523.093 456.28 522.693 455.88C522.293 455.4 521.773 455.12 521.133 455.04L506.373 453.12C502.053 452.56 498.893 451 496.893 448.44C494.973 445.8 494.013 441.92 494.013 436.8C494.013 430.08 496.133 425.04 500.373 421.68C504.613 418.24 510.893 416.52 519.213 416.52C522.493 416.52 525.533 416.6 528.333 416.76C531.133 416.92 534.093 417.24 537.213 417.72V432.72C535.213 432.4 532.733 432.16 529.773 432C526.813 431.84 523.693 431.76 520.413 431.76ZM564.864 477H547.464V460.44H564.864V477Z" fill="black"/>
</svg>
