<svg width="881" height="559" viewBox="0 0 881 559" fill="none" xmlns="http://www.w3.org/2000/svg">
<g filter="url(#filter0_di)">
<path d="M849.5 381C871.442 257.325 627.5 18 609 10H10V529H739C739 529 844 412 849.5 381Z" fill="#34C25E"/>
</g>
<path d="M272.852 230.265V321.334H206.103V230.265C206.1 224.825 204.264 219.544 200.893 215.275C197.521 211.007 192.811 208 187.522 206.741C182.233 205.482 176.674 206.043 171.743 208.335C166.812 210.627 162.797 214.515 160.346 219.371C157.895 224.228 157.151 229.77 158.235 235.101C159.318 240.433 162.166 245.243 166.318 248.756C170.47 252.268 175.684 254.278 181.117 254.46C186.551 254.642 191.888 252.986 196.265 249.759V320.005C191.548 320.768 186.778 321.147 182 321.137C164.002 321.137 146.408 315.796 131.443 305.789C116.478 295.782 104.815 281.559 97.927 264.919C91.0394 248.278 89.2373 229.967 92.7486 212.302C96.2598 194.636 104.927 178.41 117.653 165.673C130.38 152.937 146.595 144.264 164.247 140.75C181.899 137.236 200.196 139.039 216.824 145.932C233.452 152.825 247.665 164.497 257.664 179.474C267.663 194.45 273 212.057 273 230.068L272.852 230.265Z" fill="#F5F6F1"/>
<path d="M220.862 296.681V303.623C220.411 303.368 220.001 303.241 219.63 303.241C218.45 303.241 217.86 304.143 217.86 305.948V314.156H211.37V304.699C211.37 302.2 212.053 300.21 213.418 298.729C214.783 297.237 216.605 296.49 218.884 296.49C219.393 296.49 220.053 296.554 220.862 296.681ZM222.789 297.098H229.279V306.868C229.279 307.851 229.69 308.343 230.511 308.343C231.321 308.343 231.726 307.851 231.726 306.868V297.098H238.216V306.746C238.216 308.991 237.47 310.888 235.977 312.438C234.485 313.977 232.657 314.746 230.494 314.746C228.029 314.746 226.045 313.85 224.541 312.056C223.373 310.657 222.789 308.713 222.789 306.226V297.098ZM248.507 290.469V314.156H242.016V290.469H248.507ZM269.331 306.555H259.491C259.341 306.058 259.266 305.601 259.266 305.184C259.266 304.606 259.37 304.039 259.578 303.484H262.875C262.644 302.2 261.921 301.558 260.706 301.558C259.896 301.558 259.237 301.905 258.728 302.599C258.219 303.281 257.964 304.161 257.964 305.237C257.964 306.359 258.207 307.267 258.693 307.961C259.191 308.655 259.838 309.002 260.637 309.002C261.285 309.002 261.909 308.678 262.511 308.03L266.207 312.473C264.483 313.827 262.569 314.503 260.463 314.503C257.895 314.503 255.737 313.641 253.99 311.918C252.243 310.194 251.37 308.059 251.37 305.514C251.37 302.981 252.249 300.84 254.008 299.093C255.778 297.346 257.947 296.473 260.515 296.473C263.026 296.473 265.131 297.329 266.832 299.041C268.544 300.742 269.4 302.842 269.4 305.341C269.4 305.595 269.377 306 269.331 306.555Z" fill="#34C25E"/>
<path d="M305.003 269.068V282.171H300.744V294H285.967V262.408C285.967 256.293 287.629 251.55 290.954 248.177C294.302 244.78 298.997 243.081 305.039 243.081C310.862 243.081 315.169 244.622 317.96 247.704C320.75 250.761 322.145 255.493 322.145 261.898V294H307.368V262.881C307.368 260.94 307.138 259.593 306.677 258.841C306.216 258.089 305.391 257.713 304.202 257.713C301.897 257.713 300.744 259.435 300.744 262.881V269.068H305.003ZM330.08 244.319H344.857V273.836C344.857 276.141 345.221 277.682 345.949 278.459C346.701 279.211 348.169 279.587 350.353 279.587H351.117V294H347.186C341.799 294 337.602 292.435 334.593 289.305C331.584 286.15 330.08 281.783 330.08 276.202V244.319ZM372.3 276.821V263.791C375.284 263.791 376.776 262.65 376.776 260.37C376.776 258.283 375.636 257.24 373.355 257.24C371.05 257.24 369.898 258.671 369.898 261.534V294H355.121V263.063C355.121 259.86 355.436 257.24 356.067 255.201C356.722 253.139 357.826 251.222 359.379 249.451C361.126 247.485 363.31 245.932 365.93 244.792C368.551 243.652 371.256 243.081 374.047 243.081C379.094 243.081 383.328 244.78 386.749 248.177C390.195 251.574 391.917 255.784 391.917 260.806C391.917 265.684 390.377 269.639 387.295 272.672C384.48 275.462 380.234 276.857 374.556 276.857L372.3 276.821ZM416.958 262.08V275.183H412.845V294H398.068V244.319H412.845V262.08H416.958ZM434.246 244.319V294H419.47V244.319H434.246ZM462.235 269.068V282.171H457.977V294H443.2V262.408C443.2 256.293 444.862 251.55 448.186 248.177C451.535 244.78 456.23 243.081 462.272 243.081C468.095 243.081 472.402 244.622 475.193 247.704C477.983 250.761 479.378 255.493 479.378 261.898V294H464.601V262.881C464.601 260.94 464.371 259.593 463.91 258.841C463.449 258.089 462.624 257.713 461.435 257.713C459.13 257.713 457.977 259.435 457.977 262.881V269.068H462.235ZM503.109 257.676V294H488.332V244.319H507.294C513.069 244.319 517.546 245.75 520.725 248.614C524.267 251.816 526.038 255.881 526.038 260.806C526.038 265.829 523.843 270.063 519.451 273.509L527.967 294H512.463L505.292 277.986V265.21H506.457C509.563 265.21 511.116 263.876 511.116 261.207C511.116 258.853 509.32 257.676 505.729 257.676H503.109ZM567.858 244.319V276.53C567.858 282.208 566.159 286.745 562.762 290.142C559.39 293.539 554.889 295.237 549.259 295.237C543.654 295.237 539.36 293.588 536.375 290.288C533.415 286.988 531.935 282.244 531.935 276.057V244.319H546.712V276.02C546.712 279.053 547.791 280.57 549.951 280.57C552.038 280.57 553.081 279.053 553.081 276.02V244.319H567.858ZM575.829 244.319H590.606V273.836C590.606 276.141 590.97 277.682 591.698 278.459C592.45 279.211 593.918 279.587 596.102 279.587H596.866V294H592.935C587.548 294 583.351 292.435 580.342 289.305C577.333 286.15 575.829 281.783 575.829 276.202V244.319ZM628.385 263.645V274.71H618.74C617.43 274.71 616.496 274.904 615.938 275.292C615.404 275.68 615.137 276.336 615.137 277.258C615.137 278.301 615.416 278.993 615.974 279.332C616.532 279.648 617.673 279.805 619.395 279.805H629.332V294H617.721C612.262 294 608.088 292.702 605.201 290.106C602.313 287.485 600.87 283.712 600.87 278.786V259.314C600.87 254.558 602.228 250.87 604.946 248.25C607.688 245.629 611.534 244.319 616.484 244.319H629.332V258.586H619.905C617.357 258.586 616.083 259.411 616.083 261.061C616.083 262.032 616.387 262.711 616.993 263.099C617.6 263.463 618.68 263.645 620.233 263.645H628.385Z" fill="#F5F6F1"/>
<path d="M284.382 320V301.718H286.801V320H284.382ZM295.676 320V301.718H301.974C303.395 301.718 304.48 301.805 305.228 301.98C306.276 302.221 307.17 302.657 307.91 303.289C308.874 304.104 309.593 305.147 310.067 306.419C310.549 307.683 310.79 309.13 310.79 310.759C310.79 312.148 310.628 313.378 310.304 314.451C309.98 315.523 309.564 316.413 309.057 317.119C308.55 317.818 307.993 318.37 307.386 318.778C306.787 319.177 306.06 319.48 305.203 319.688C304.355 319.896 303.379 320 302.273 320H295.676ZM298.095 317.843H301.999C303.204 317.843 304.148 317.73 304.829 317.506C305.519 317.281 306.068 316.965 306.476 316.558C307.049 315.984 307.494 315.215 307.81 314.251C308.134 313.278 308.296 312.102 308.296 310.722C308.296 308.81 307.98 307.342 307.348 306.32C306.725 305.289 305.964 304.599 305.066 304.25C304.418 304 303.374 303.875 301.936 303.875H298.095V317.843ZM318.78 320V301.718H331.999V303.875H321.199V309.475H331.313V311.62H321.199V317.843H332.423V320H318.78ZM338.354 320L345.375 301.718H347.981L355.464 320H352.708L350.575 314.463H342.931L340.923 320H338.354ZM343.629 312.493H349.827L347.919 307.43C347.337 305.891 346.905 304.628 346.622 303.638C346.389 304.811 346.061 305.975 345.637 307.13L343.629 312.493ZM361.171 314.126L363.453 313.927C363.561 314.841 363.811 315.594 364.201 316.184C364.6 316.766 365.216 317.24 366.047 317.606C366.878 317.963 367.814 318.142 368.853 318.142C369.776 318.142 370.591 318.005 371.297 317.73C372.004 317.456 372.528 317.082 372.869 316.608C373.218 316.126 373.392 315.602 373.392 315.037C373.392 314.463 373.226 313.964 372.893 313.54C372.561 313.108 372.012 312.746 371.247 312.455C370.757 312.264 369.672 311.969 367.992 311.57C366.313 311.162 365.137 310.78 364.463 310.422C363.59 309.965 362.938 309.4 362.505 308.726C362.081 308.045 361.869 307.284 361.869 306.444C361.869 305.522 362.131 304.661 362.655 303.863C363.179 303.056 363.944 302.445 364.95 302.03C365.956 301.614 367.074 301.406 368.304 301.406C369.659 301.406 370.852 301.626 371.883 302.067C372.923 302.499 373.721 303.14 374.278 303.988C374.835 304.836 375.134 305.796 375.176 306.868L372.856 307.043C372.731 305.887 372.307 305.014 371.584 304.424C370.869 303.834 369.809 303.539 368.404 303.539C366.941 303.539 365.872 303.809 365.199 304.349C364.534 304.881 364.201 305.526 364.201 306.282C364.201 306.939 364.438 307.479 364.912 307.903C365.378 308.327 366.592 308.764 368.554 309.213C370.524 309.653 371.875 310.04 372.607 310.373C373.671 310.863 374.456 311.487 374.964 312.243C375.471 312.991 375.724 313.856 375.724 314.837C375.724 315.81 375.446 316.729 374.889 317.593C374.332 318.449 373.529 319.119 372.482 319.601C371.443 320.075 370.27 320.312 368.965 320.312C367.311 320.312 365.922 320.071 364.8 319.588C363.686 319.106 362.809 318.383 362.169 317.419C361.537 316.446 361.204 315.348 361.171 314.126ZM403.887 312.829V310.684L411.631 310.672V317.456C410.442 318.404 409.216 319.119 407.952 319.601C406.688 320.075 405.391 320.312 404.061 320.312C402.265 320.312 400.632 319.929 399.16 319.164C397.697 318.391 396.591 317.277 395.843 315.822C395.095 314.367 394.721 312.742 394.721 310.946C394.721 309.167 395.091 307.509 395.831 305.97C396.579 304.424 397.651 303.277 399.048 302.529C400.445 301.78 402.053 301.406 403.874 301.406C405.196 301.406 406.389 301.622 407.453 302.055C408.526 302.479 409.365 303.073 409.972 303.838C410.579 304.603 411.041 305.6 411.357 306.831L409.174 307.43C408.9 306.498 408.559 305.767 408.152 305.235C407.744 304.703 407.162 304.279 406.406 303.963C405.649 303.638 404.809 303.476 403.887 303.476C402.781 303.476 401.825 303.647 401.018 303.988C400.212 304.32 399.559 304.761 399.061 305.31C398.57 305.858 398.188 306.461 397.913 307.118C397.448 308.248 397.215 309.475 397.215 310.797C397.215 312.426 397.493 313.79 398.05 314.887C398.616 315.984 399.435 316.799 400.507 317.331C401.58 317.863 402.719 318.129 403.924 318.129C404.972 318.129 405.994 317.93 406.992 317.531C407.99 317.123 408.746 316.691 409.262 316.234V312.829H403.887ZM419.857 320V301.718H433.076V303.875H422.276V309.475H432.39V311.62H422.276V317.843H433.5V320H419.857ZM446.091 320V303.875H440.068V301.718H454.559V303.875H448.51V320H446.091ZM466.302 320V303.875H460.278V301.718H474.769V303.875H468.721V320H466.302ZM482.272 320V301.718H484.691V320H482.272ZM493.541 320V301.718H496.023L505.625 316.072V301.718H507.945V320H505.463L495.861 305.634V320H493.541ZM525.175 312.829V310.684L532.919 310.672V317.456C531.73 318.404 530.504 319.119 529.24 319.601C527.976 320.075 526.68 320.312 525.349 320.312C523.554 320.312 521.92 319.929 520.448 319.164C518.985 318.391 517.879 317.277 517.131 315.822C516.383 314.367 516.009 312.742 516.009 310.946C516.009 309.167 516.379 307.509 517.119 305.97C517.867 304.424 518.939 303.277 520.336 302.529C521.733 301.78 523.342 301.406 525.162 301.406C526.484 301.406 527.677 301.622 528.741 302.055C529.814 302.479 530.654 303.073 531.26 303.838C531.867 304.603 532.329 305.6 532.645 306.831L530.462 307.43C530.188 306.498 529.847 305.767 529.44 305.235C529.032 304.703 528.45 304.279 527.694 303.963C526.937 303.638 526.098 303.476 525.175 303.476C524.069 303.476 523.113 303.647 522.306 303.988C521.5 304.32 520.847 304.761 520.349 305.31C519.858 305.858 519.476 306.461 519.201 307.118C518.736 308.248 518.503 309.475 518.503 310.797C518.503 312.426 518.781 313.79 519.338 314.887C519.904 315.984 520.723 316.799 521.795 317.331C522.868 317.863 524.007 318.129 525.212 318.129C526.26 318.129 527.282 317.93 528.28 317.531C529.278 317.123 530.034 316.691 530.55 316.234V312.829H525.175ZM552.838 320V301.718H560.944C562.574 301.718 563.812 301.884 564.66 302.217C565.508 302.541 566.186 303.119 566.693 303.95C567.2 304.782 567.454 305.7 567.454 306.706C567.454 308.003 567.034 309.096 566.194 309.986C565.355 310.876 564.058 311.441 562.304 311.682C562.944 311.99 563.43 312.293 563.763 312.592C564.469 313.241 565.139 314.051 565.77 315.024L568.95 320H565.908L563.488 316.196C562.782 315.099 562.2 314.259 561.742 313.677C561.285 313.095 560.874 312.688 560.508 312.455C560.15 312.222 559.784 312.06 559.41 311.969C559.136 311.911 558.687 311.882 558.063 311.882H555.258V320H552.838ZM555.258 309.786H560.458C561.564 309.786 562.428 309.674 563.052 309.45C563.675 309.217 564.149 308.851 564.473 308.352C564.798 307.845 564.96 307.297 564.96 306.706C564.96 305.842 564.644 305.131 564.012 304.574C563.388 304.017 562.399 303.738 561.044 303.738H555.258V309.786ZM575.905 320V301.718H589.124V303.875H578.324V309.475H588.438V311.62H578.324V317.843H589.548V320H575.905ZM595.479 320L602.5 301.718H605.106L612.589 320H609.833L607.7 314.463H600.056L598.048 320H595.479ZM600.754 312.493H606.952L605.044 307.43C604.462 305.891 604.03 304.628 603.747 303.638C603.514 304.811 603.186 305.975 602.762 307.13L600.754 312.493ZM619.019 320V301.718H621.439V317.843H630.442V320H619.019Z" fill="#F5F6F1"/>
<path d="M509.138 386.774C510.346 386.774 511.526 387.086 512.678 387.709C513.829 388.326 514.726 389.214 515.368 390.371C516.011 391.523 516.332 392.725 516.332 393.978C516.332 395.218 516.014 396.411 515.378 397.556C514.748 398.701 513.861 399.591 512.716 400.227C511.577 400.857 510.385 401.172 509.138 401.172C507.891 401.172 506.695 400.857 505.55 400.227C504.412 399.591 503.525 398.701 502.889 397.556C502.252 396.411 501.934 395.218 501.934 393.978C501.934 392.725 502.256 391.523 502.898 390.371C503.547 389.214 504.447 388.326 505.598 387.709C506.749 387.086 507.929 386.774 509.138 386.774ZM509.138 387.967C508.127 387.967 507.141 388.228 506.18 388.749C505.226 389.265 504.479 390.006 503.938 390.972C503.397 391.933 503.127 392.935 503.127 393.978C503.127 395.015 503.391 396.01 503.919 396.964C504.453 397.912 505.197 398.653 506.152 399.187C507.106 399.715 508.101 399.979 509.138 399.979C510.175 399.979 511.17 399.715 512.124 399.187C513.078 398.653 513.819 397.912 514.347 396.964C514.875 396.01 515.139 395.015 515.139 393.978C515.139 392.935 514.869 391.933 514.328 390.972C513.794 390.006 513.047 389.265 512.086 388.749C511.126 388.228 510.143 387.967 509.138 387.967ZM511.447 395.142L512.62 395.485C512.43 396.28 512.022 396.916 511.399 397.393C510.782 397.864 510.032 398.1 509.147 398.1C508.028 398.1 507.118 397.737 506.419 397.012C505.719 396.287 505.369 395.282 505.369 393.997C505.369 393.157 505.528 392.429 505.846 391.812C506.164 391.189 506.616 390.721 507.201 390.409C507.793 390.091 508.467 389.932 509.224 389.932C510.07 389.932 510.773 390.136 511.332 390.543C511.892 390.944 512.274 391.491 512.477 392.184L511.342 392.461C511.151 391.99 510.868 391.631 510.493 391.383C510.124 391.128 509.688 391.001 509.186 391.001C508.454 391.001 507.85 391.262 507.373 391.783C506.902 392.305 506.667 393.052 506.667 394.026C506.667 394.999 506.889 395.737 507.335 396.239C507.786 396.735 508.368 396.983 509.081 396.983C509.653 396.983 510.156 396.818 510.588 396.487C511.021 396.156 511.307 395.708 511.447 395.142ZM529.651 397.289L531.34 397.508C531.155 398.672 530.682 399.585 529.918 400.246C529.161 400.901 528.229 401.229 527.123 401.229C525.736 401.229 524.62 400.777 523.774 399.874C522.934 398.965 522.514 397.664 522.514 395.972C522.514 394.878 522.696 393.921 523.058 393.1C523.421 392.28 523.971 391.666 524.709 391.259C525.453 390.845 526.261 390.638 527.132 390.638C528.233 390.638 529.133 390.918 529.832 391.478C530.532 392.031 530.98 392.82 531.178 393.844L529.508 394.102C529.349 393.421 529.066 392.909 528.659 392.566C528.258 392.222 527.771 392.051 527.199 392.051C526.334 392.051 525.631 392.362 525.09 392.986C524.55 393.603 524.279 394.582 524.279 395.924C524.279 397.285 524.54 398.274 525.062 398.891C525.583 399.508 526.264 399.817 527.104 399.817C527.778 399.817 528.341 399.61 528.792 399.197C529.244 398.783 529.53 398.147 529.651 397.289ZM532.17 395.934C532.17 394.057 532.691 392.668 533.735 391.764C534.606 391.014 535.668 390.638 536.921 390.638C538.314 390.638 539.453 391.096 540.337 392.012C541.221 392.922 541.663 394.181 541.663 395.791C541.663 397.095 541.466 398.122 541.072 398.872C540.684 399.617 540.114 400.195 539.364 400.609C538.62 401.022 537.805 401.229 536.921 401.229C535.503 401.229 534.355 400.774 533.477 399.865C532.606 398.955 532.17 397.645 532.17 395.934ZM533.935 395.934C533.935 397.231 534.218 398.204 534.784 398.853C535.35 399.496 536.063 399.817 536.921 399.817C537.774 399.817 538.483 399.493 539.049 398.844C539.615 398.195 539.898 397.206 539.898 395.876C539.898 394.623 539.612 393.676 539.039 393.033C538.473 392.384 537.767 392.06 536.921 392.06C536.063 392.06 535.35 392.381 534.784 393.024C534.218 393.666 533.935 394.636 533.935 395.934ZM543.686 404.883V390.867H545.251V392.184C545.62 391.669 546.036 391.284 546.501 391.03C546.965 390.769 547.528 390.638 548.189 390.638C549.054 390.638 549.818 390.861 550.479 391.306C551.141 391.752 551.64 392.381 551.977 393.195C552.314 394.003 552.483 394.891 552.483 395.857C552.483 396.894 552.295 397.829 551.92 398.662C551.551 399.489 551.01 400.125 550.298 400.571C549.592 401.01 548.848 401.229 548.065 401.229C547.493 401.229 546.978 401.108 546.52 400.866C546.068 400.625 545.696 400.319 545.403 399.95V404.883H543.686ZM545.241 395.991C545.241 397.295 545.505 398.259 546.033 398.882C546.561 399.505 547.2 399.817 547.951 399.817C548.714 399.817 549.366 399.496 549.907 398.853C550.454 398.204 550.727 397.203 550.727 395.848C550.727 394.557 550.46 393.59 549.926 392.947C549.398 392.305 548.765 391.984 548.027 391.984C547.296 391.984 546.647 392.327 546.081 393.014C545.521 393.695 545.241 394.687 545.241 395.991ZM554.486 404.902L554.296 403.29C554.671 403.392 554.998 403.443 555.278 403.443C555.66 403.443 555.965 403.379 556.194 403.252C556.423 403.124 556.611 402.946 556.757 402.717C556.865 402.546 557.04 402.119 557.282 401.439C557.314 401.343 557.365 401.204 557.435 401.019L553.589 390.867H555.44L557.549 396.735C557.823 397.479 558.067 398.262 558.284 399.082C558.481 398.294 558.716 397.524 558.99 396.773L561.156 390.867H562.873L559.018 401.172C558.605 402.285 558.284 403.051 558.055 403.471C557.749 404.037 557.4 404.451 557.005 404.711C556.611 404.979 556.14 405.112 555.593 405.112C555.262 405.112 554.893 405.042 554.486 404.902ZM564.314 401V390.867H565.859V392.404C566.254 391.685 566.616 391.211 566.947 390.982C567.284 390.753 567.653 390.638 568.054 390.638C568.632 390.638 569.221 390.823 569.819 391.192L569.227 392.785C568.807 392.537 568.388 392.413 567.968 392.413C567.593 392.413 567.255 392.528 566.956 392.757C566.657 392.979 566.444 393.291 566.317 393.692C566.126 394.302 566.031 394.97 566.031 395.695V401H564.314ZM570.849 388.988V387.013H572.567V388.988H570.849ZM570.849 401V390.867H572.567V401H570.849ZM574.875 401.84L576.545 402.088C576.615 402.603 576.809 402.978 577.127 403.214C577.553 403.532 578.135 403.691 578.873 403.691C579.668 403.691 580.282 403.532 580.715 403.214C581.147 402.895 581.44 402.45 581.592 401.878C581.681 401.528 581.723 400.793 581.716 399.674C580.966 400.558 580.031 401 578.911 401C577.518 401 576.44 400.498 575.677 399.493C574.914 398.488 574.532 397.282 574.532 395.876C574.532 394.91 574.707 394.019 575.057 393.205C575.407 392.384 575.912 391.752 576.574 391.306C577.242 390.861 578.024 390.638 578.921 390.638C580.117 390.638 581.103 391.122 581.879 392.089V390.867H583.462V399.626C583.462 401.204 583.3 402.32 582.976 402.975C582.658 403.637 582.149 404.158 581.449 404.54C580.756 404.921 579.9 405.112 578.883 405.112C577.674 405.112 576.698 404.839 575.954 404.292C575.209 403.751 574.85 402.934 574.875 401.84ZM576.297 395.752C576.297 397.082 576.561 398.052 577.089 398.662C577.617 399.273 578.278 399.578 579.074 399.578C579.862 399.578 580.524 399.276 581.058 398.672C581.592 398.061 581.86 397.107 581.86 395.81C581.86 394.569 581.583 393.634 581.029 393.005C580.482 392.375 579.821 392.06 579.045 392.06C578.282 392.06 577.633 392.372 577.099 392.995C576.564 393.612 576.297 394.531 576.297 395.752ZM586.067 401V387.013H587.784V392.031C588.586 391.103 589.597 390.638 590.819 390.638C591.569 390.638 592.221 390.788 592.774 391.087C593.328 391.379 593.722 391.787 593.958 392.308C594.199 392.83 594.32 393.587 594.32 394.579V401H592.603V394.579C592.603 393.72 592.415 393.097 592.04 392.709C591.671 392.314 591.146 392.117 590.466 392.117C589.957 392.117 589.476 392.251 589.025 392.518C588.58 392.779 588.262 393.135 588.071 393.587C587.88 394.038 587.784 394.662 587.784 395.457V401H586.067ZM600.693 399.464L600.942 400.981C600.458 401.083 600.026 401.134 599.644 401.134C599.021 401.134 598.537 401.035 598.194 400.838C597.85 400.641 597.609 400.383 597.469 400.065C597.329 399.741 597.259 399.063 597.259 398.033V392.203H595.999V390.867H597.259V388.358L598.967 387.328V390.867H600.693V392.203H598.967V398.128C598.967 398.618 598.995 398.933 599.052 399.073C599.116 399.213 599.215 399.324 599.348 399.407C599.488 399.489 599.685 399.531 599.94 399.531C600.131 399.531 600.382 399.508 600.693 399.464ZM482.232 421.75C481.596 422.291 480.982 422.672 480.391 422.895C479.806 423.118 479.176 423.229 478.502 423.229C477.389 423.229 476.533 422.959 475.935 422.418C475.337 421.871 475.038 421.174 475.038 420.329C475.038 419.832 475.15 419.381 475.372 418.974C475.601 418.56 475.897 418.229 476.26 417.981C476.628 417.733 477.042 417.546 477.5 417.419C477.837 417.329 478.346 417.244 479.026 417.161C480.413 416.996 481.434 416.798 482.089 416.569C482.095 416.334 482.099 416.185 482.099 416.121C482.099 415.421 481.936 414.928 481.612 414.642C481.173 414.254 480.521 414.06 479.656 414.06C478.848 414.06 478.25 414.203 477.862 414.489C477.481 414.769 477.198 415.269 477.013 415.987L475.334 415.758C475.487 415.04 475.738 414.461 476.088 414.022C476.438 413.577 476.943 413.236 477.605 413.001C478.266 412.759 479.033 412.638 479.904 412.638C480.769 412.638 481.472 412.74 482.013 412.944C482.553 413.147 482.951 413.405 483.205 413.717C483.46 414.022 483.638 414.41 483.74 414.881C483.797 415.173 483.826 415.701 483.826 416.464V418.754C483.826 420.351 483.861 421.362 483.931 421.788C484.007 422.208 484.153 422.612 484.369 423H482.576C482.398 422.644 482.283 422.227 482.232 421.75ZM482.089 417.915C481.466 418.169 480.531 418.385 479.284 418.563C478.578 418.665 478.079 418.78 477.786 418.907C477.494 419.034 477.268 419.222 477.109 419.47C476.95 419.712 476.87 419.982 476.87 420.281C476.87 420.739 477.042 421.12 477.385 421.426C477.735 421.731 478.244 421.884 478.912 421.884C479.573 421.884 480.162 421.741 480.677 421.454C481.192 421.162 481.571 420.764 481.812 420.262C481.997 419.874 482.089 419.301 482.089 418.544V417.915ZM486.459 423V409.013H488.176V423H486.459ZM490.81 423V409.013H492.527V423H490.81ZM500.618 423V412.867H502.163V414.404C502.558 413.685 502.92 413.211 503.251 412.982C503.588 412.753 503.957 412.638 504.358 412.638C504.937 412.638 505.525 412.823 506.123 413.192L505.531 414.785C505.112 414.537 504.692 414.413 504.272 414.413C503.897 414.413 503.56 414.528 503.261 414.757C502.962 414.979 502.749 415.291 502.621 415.692C502.431 416.302 502.335 416.97 502.335 417.695V423H500.618ZM507.153 410.988V409.013H508.871V410.988H507.153ZM507.153 423V412.867H508.871V423H507.153ZM511.18 423.84L512.849 424.088C512.919 424.603 513.113 424.978 513.431 425.214C513.858 425.532 514.44 425.691 515.177 425.691C515.972 425.691 516.586 425.532 517.019 425.214C517.451 424.895 517.744 424.45 517.897 423.878C517.986 423.528 518.027 422.793 518.021 421.674C517.27 422.558 516.335 423 515.216 423C513.823 423 512.744 422.498 511.981 421.493C511.218 420.488 510.836 419.282 510.836 417.876C510.836 416.91 511.011 416.019 511.361 415.205C511.711 414.384 512.216 413.752 512.878 413.306C513.546 412.861 514.328 412.638 515.225 412.638C516.421 412.638 517.407 413.122 518.183 414.089V412.867H519.767V421.626C519.767 423.204 519.604 424.32 519.28 424.975C518.962 425.637 518.453 426.158 517.753 426.54C517.06 426.921 516.205 427.112 515.187 427.112C513.978 427.112 513.002 426.839 512.258 426.292C511.514 425.751 511.154 424.934 511.18 423.84ZM512.601 417.752C512.601 419.082 512.865 420.052 513.393 420.662C513.921 421.273 514.583 421.578 515.378 421.578C516.166 421.578 516.828 421.276 517.362 420.672C517.897 420.061 518.164 419.107 518.164 417.81C518.164 416.569 517.887 415.634 517.334 415.005C516.787 414.375 516.125 414.06 515.349 414.06C514.586 414.06 513.937 414.372 513.403 414.995C512.868 415.612 512.601 416.531 512.601 417.752ZM522.371 423V409.013H524.089V414.031C524.89 413.103 525.901 412.638 527.123 412.638C527.873 412.638 528.525 412.788 529.079 413.087C529.632 413.379 530.026 413.787 530.262 414.308C530.503 414.83 530.624 415.587 530.624 416.579V423H528.907V416.579C528.907 415.72 528.719 415.097 528.344 414.709C527.975 414.314 527.45 414.117 526.77 414.117C526.261 414.117 525.781 414.251 525.329 414.518C524.884 414.779 524.566 415.135 524.375 415.587C524.184 416.038 524.089 416.662 524.089 417.457V423H522.371ZM536.998 421.464L537.246 422.981C536.762 423.083 536.33 423.134 535.948 423.134C535.325 423.134 534.841 423.035 534.498 422.838C534.154 422.641 533.913 422.383 533.773 422.065C533.633 421.741 533.563 421.063 533.563 420.033V414.203H532.303V412.867H533.563V410.358L535.271 409.328V412.867H536.998V414.203H535.271V420.128C535.271 420.618 535.299 420.933 535.357 421.073C535.42 421.213 535.519 421.324 535.652 421.407C535.792 421.489 535.989 421.531 536.244 421.531C536.435 421.531 536.686 421.508 536.998 421.464ZM537.999 419.975L539.698 419.708C539.793 420.389 540.057 420.911 540.49 421.273C540.929 421.636 541.539 421.817 542.322 421.817C543.11 421.817 543.695 421.658 544.077 421.34C544.459 421.015 544.65 420.637 544.65 420.204C544.65 419.816 544.481 419.511 544.144 419.289C543.909 419.136 543.323 418.942 542.388 418.707C541.129 418.389 540.254 418.115 539.765 417.886C539.281 417.651 538.912 417.329 538.658 416.922C538.41 416.509 538.286 416.054 538.286 415.558C538.286 415.106 538.387 414.69 538.591 414.308C538.801 413.92 539.084 413.599 539.44 413.344C539.707 413.147 540.07 412.982 540.528 412.848C540.992 412.708 541.488 412.638 542.016 412.638C542.811 412.638 543.508 412.753 544.106 412.982C544.71 413.211 545.155 413.523 545.441 413.917C545.728 414.305 545.925 414.827 546.033 415.482L544.354 415.711C544.277 415.189 544.055 414.782 543.686 414.489C543.323 414.197 542.808 414.051 542.14 414.051C541.352 414.051 540.789 414.181 540.452 414.442C540.114 414.702 539.946 415.008 539.946 415.358C539.946 415.58 540.016 415.781 540.156 415.959C540.296 416.143 540.515 416.296 540.814 416.417C540.986 416.48 541.491 416.627 542.331 416.856C543.546 417.18 544.392 417.447 544.869 417.657C545.352 417.861 545.731 418.16 546.004 418.554C546.278 418.948 546.415 419.438 546.415 420.023C546.415 420.596 546.246 421.136 545.909 421.645C545.578 422.148 545.098 422.539 544.468 422.819C543.839 423.092 543.126 423.229 542.331 423.229C541.014 423.229 540.009 422.955 539.316 422.408C538.629 421.861 538.19 421.05 537.999 419.975ZM553.876 423V412.867H555.421V414.404C555.816 413.685 556.178 413.211 556.509 412.982C556.846 412.753 557.215 412.638 557.616 412.638C558.195 412.638 558.783 412.823 559.381 413.192L558.789 414.785C558.37 414.537 557.95 414.413 557.53 414.413C557.155 414.413 556.818 414.528 556.519 414.757C556.22 414.979 556.007 415.291 555.879 415.692C555.689 416.302 555.593 416.97 555.593 417.695V423H553.876ZM567.338 419.737L569.113 419.956C568.833 420.993 568.314 421.798 567.558 422.37C566.801 422.943 565.834 423.229 564.657 423.229C563.175 423.229 561.998 422.774 561.127 421.865C560.262 420.949 559.829 419.667 559.829 418.02C559.829 416.315 560.268 414.992 561.146 414.051C562.024 413.109 563.162 412.638 564.562 412.638C565.916 412.638 567.023 413.1 567.882 414.022C568.741 414.944 569.17 416.242 569.17 417.915C569.17 418.016 569.167 418.169 569.16 418.373H561.604C561.668 419.486 561.982 420.338 562.548 420.93C563.115 421.521 563.821 421.817 564.667 421.817C565.296 421.817 565.834 421.652 566.279 421.321C566.724 420.99 567.077 420.462 567.338 419.737ZM561.699 416.961H567.357C567.281 416.108 567.065 415.469 566.708 415.043C566.161 414.381 565.452 414.051 564.581 414.051C563.792 414.051 563.127 414.314 562.587 414.842C562.052 415.37 561.757 416.076 561.699 416.961ZM570.592 419.975L572.29 419.708C572.385 420.389 572.649 420.911 573.082 421.273C573.521 421.636 574.131 421.817 574.914 421.817C575.702 421.817 576.288 421.658 576.669 421.34C577.051 421.015 577.242 420.637 577.242 420.204C577.242 419.816 577.073 419.511 576.736 419.289C576.501 419.136 575.915 418.942 574.98 418.707C573.721 418.389 572.846 418.115 572.357 417.886C571.873 417.651 571.504 417.329 571.25 416.922C571.002 416.509 570.878 416.054 570.878 415.558C570.878 415.106 570.98 414.69 571.183 414.308C571.393 413.92 571.676 413.599 572.032 413.344C572.299 413.147 572.662 412.982 573.12 412.848C573.584 412.708 574.08 412.638 574.608 412.638C575.403 412.638 576.1 412.753 576.698 412.982C577.302 413.211 577.747 413.523 578.034 413.917C578.32 414.305 578.517 414.827 578.625 415.482L576.946 415.711C576.87 415.189 576.647 414.782 576.278 414.489C575.915 414.197 575.4 414.051 574.732 414.051C573.944 414.051 573.381 414.181 573.044 414.442C572.706 414.702 572.538 415.008 572.538 415.358C572.538 415.58 572.608 415.781 572.748 415.959C572.888 416.143 573.107 416.296 573.406 416.417C573.578 416.48 574.084 416.627 574.923 416.856C576.138 417.18 576.984 417.447 577.461 417.657C577.945 417.861 578.323 418.16 578.596 418.554C578.87 418.948 579.007 419.438 579.007 420.023C579.007 420.596 578.838 421.136 578.501 421.645C578.17 422.148 577.69 422.539 577.06 422.819C576.431 423.092 575.718 423.229 574.923 423.229C573.607 423.229 572.602 422.955 571.908 422.408C571.221 421.861 570.782 421.05 570.592 419.975ZM587.985 419.737L589.759 419.956C589.48 420.993 588.961 421.798 588.204 422.37C587.447 422.943 586.481 423.229 585.304 423.229C583.822 423.229 582.645 422.774 581.774 421.865C580.909 420.949 580.476 419.667 580.476 418.02C580.476 416.315 580.915 414.992 581.793 414.051C582.671 413.109 583.809 412.638 585.208 412.638C586.563 412.638 587.67 413.1 588.529 414.022C589.387 414.944 589.817 416.242 589.817 417.915C589.817 418.016 589.814 418.169 589.807 418.373H582.251C582.314 419.486 582.629 420.338 583.195 420.93C583.761 421.521 584.467 421.817 585.313 421.817C585.943 421.817 586.481 421.652 586.926 421.321C587.371 420.99 587.724 420.462 587.985 419.737ZM582.346 416.961H588.004C587.928 416.108 587.711 415.469 587.355 415.043C586.808 414.381 586.099 414.051 585.228 414.051C584.439 414.051 583.774 414.314 583.233 414.842C582.699 415.37 582.403 416.076 582.346 416.961ZM591.906 423V412.867H593.452V414.404C593.846 413.685 594.209 413.211 594.54 412.982C594.877 412.753 595.246 412.638 595.646 412.638C596.225 412.638 596.813 412.823 597.411 413.192L596.82 414.785C596.4 414.537 595.98 414.413 595.56 414.413C595.185 414.413 594.848 414.528 594.549 414.757C594.25 414.979 594.037 415.291 593.91 415.692C593.719 416.302 593.624 416.97 593.624 417.695V423H591.906ZM601.247 423L597.392 412.867H599.205L601.38 418.936C601.616 419.591 601.832 420.271 602.029 420.977C602.182 420.443 602.395 419.801 602.668 419.05L604.92 412.867H606.685L602.85 423H601.247ZM615.139 419.737L616.913 419.956C616.633 420.993 616.115 421.798 615.358 422.37C614.601 422.943 613.634 423.229 612.458 423.229C610.976 423.229 609.799 422.774 608.927 421.865C608.062 420.949 607.63 419.667 607.63 418.02C607.63 416.315 608.069 414.992 608.946 414.051C609.824 413.109 610.963 412.638 612.362 412.638C613.717 412.638 614.824 413.1 615.682 414.022C616.541 414.944 616.97 416.242 616.97 417.915C616.97 418.016 616.967 418.169 616.961 418.373H609.404C609.468 419.486 609.783 420.338 610.349 420.93C610.915 421.521 611.621 421.817 612.467 421.817C613.097 421.817 613.634 421.652 614.08 421.321C614.525 420.99 614.878 420.462 615.139 419.737ZM609.5 416.961H615.158C615.081 416.108 614.865 415.469 614.509 415.043C613.962 414.381 613.253 414.051 612.381 414.051C611.592 414.051 610.928 414.314 610.387 414.842C609.853 415.37 609.557 416.076 609.5 416.961ZM625.653 423V421.722C625.01 422.726 624.066 423.229 622.819 423.229C622.011 423.229 621.267 423.006 620.587 422.561C619.912 422.116 619.388 421.496 619.012 420.701C618.643 419.899 618.459 418.98 618.459 417.943C618.459 416.932 618.627 416.016 618.965 415.195C619.302 414.369 619.807 413.736 620.482 413.297C621.156 412.858 621.91 412.638 622.743 412.638C623.353 412.638 623.897 412.769 624.374 413.03C624.851 413.284 625.239 413.618 625.538 414.031V409.013H627.246V423H625.653ZM620.224 417.943C620.224 419.241 620.497 420.211 621.044 420.853C621.591 421.496 622.237 421.817 622.981 421.817C623.732 421.817 624.368 421.512 624.89 420.901C625.417 420.284 625.681 419.346 625.681 418.086C625.681 416.7 625.414 415.682 624.88 415.033C624.346 414.384 623.687 414.06 622.905 414.06C622.142 414.06 621.502 414.372 620.987 414.995C620.478 415.618 620.224 416.601 620.224 417.943Z" fill="#F5F6F1"/>
<path d="M143.929 391H114.071C112.992 391 111.956 391.429 111.192 392.192C110.429 392.956 110 393.992 110 395.071V424.929C110 426.008 110.429 427.044 111.192 427.808C111.956 428.571 112.992 429 114.071 429H125.713V416.081H120.369V410H125.713V405.365C125.713 400.094 128.852 397.182 133.658 397.182C135.96 397.182 138.368 397.592 138.368 397.592V402.766H135.715C133.102 402.766 132.287 404.388 132.287 406.052V410H138.121L137.188 416.081H132.287V429H143.929C145.008 429 146.044 428.571 146.808 427.808C147.571 427.044 148 426.008 148 424.929V395.071C148 393.992 147.571 392.956 146.808 392.192C146.044 391.429 145.008 391 143.929 391Z" fill="#F5F6F1"/>
<path d="M266.929 391H237.071C234.824 391 233 392.824 233 395.071V424.929C233 427.176 234.824 429 237.071 429H266.929C269.176 429 271 427.176 271 424.929V395.071C271 392.824 269.176 391 266.929 391ZM262.781 404.47C262.798 404.707 262.798 404.953 262.798 405.191C262.798 412.545 257.2 421.018 246.97 421.018C243.815 421.018 240.888 420.102 238.429 418.525C238.878 418.575 239.311 418.592 239.769 418.592C242.373 418.592 244.765 417.71 246.673 416.217C244.23 416.167 242.178 414.563 241.474 412.358C242.33 412.485 243.102 412.485 243.984 412.256C241.44 411.739 239.531 409.5 239.531 406.794V406.726C240.269 407.142 241.134 407.396 242.042 407.43C241.279 406.922 240.653 406.234 240.221 405.426C239.789 404.618 239.564 403.715 239.565 402.799C239.565 401.764 239.837 400.814 240.32 399.991C243.06 403.367 247.174 405.572 251.788 405.81C250.999 402.035 253.824 398.973 257.217 398.973C258.82 398.973 260.262 399.643 261.279 400.729C262.535 400.492 263.739 400.025 264.808 399.389C264.392 400.678 263.519 401.764 262.365 402.451C263.485 402.332 264.571 402.018 265.571 401.586C264.817 402.697 263.867 403.681 262.781 404.47Z" fill="#F5F6F1"/>
<path d="M190.5 405.476C189.629 405.476 188.777 405.742 188.053 406.239C187.329 406.736 186.764 407.443 186.431 408.27C186.098 409.097 186.011 410.006 186.181 410.884C186.351 411.761 186.771 412.567 187.387 413.2C188.003 413.832 188.788 414.263 189.643 414.438C190.497 414.612 191.383 414.522 192.188 414.18C192.993 413.837 193.681 413.257 194.165 412.513C194.649 411.769 194.907 410.895 194.907 410C194.906 408.8 194.441 407.65 193.615 406.801C192.789 405.953 191.668 405.476 190.5 405.476ZM200.8 401.998C200.575 401.414 200.237 400.884 199.805 400.44C199.373 399.997 198.857 399.649 198.288 399.419C196.554 398.715 192.424 398.873 190.5 398.873C188.576 398.873 184.45 398.709 182.711 399.419C182.143 399.649 181.626 399.997 181.194 400.44C180.762 400.884 180.424 401.414 180.199 401.998C179.516 403.779 179.668 408.025 179.668 409.999C179.668 411.974 179.516 416.214 180.203 418.001C180.427 418.585 180.766 419.115 181.198 419.559C181.63 420.002 182.146 420.35 182.714 420.581C184.449 421.284 188.578 421.126 190.503 421.126C192.428 421.126 196.552 421.29 198.291 420.581C198.86 420.35 199.376 420.002 199.808 419.559C200.24 419.115 200.579 418.585 200.803 418.001C201.493 416.22 201.334 411.975 201.334 410C201.334 408.025 201.493 403.786 200.803 401.999L200.8 401.998ZM190.5 416.955C189.161 416.955 187.851 416.547 186.737 415.783C185.624 415.019 184.756 413.933 184.243 412.662C183.731 411.391 183.596 409.992 183.858 408.643C184.119 407.294 184.764 406.055 185.711 405.082C186.658 404.109 187.865 403.447 189.179 403.178C190.492 402.91 191.854 403.048 193.092 403.574C194.329 404.101 195.387 404.992 196.131 406.136C196.875 407.28 197.272 408.624 197.272 410C197.273 410.914 197.099 411.819 196.759 412.663C196.419 413.507 195.92 414.275 195.291 414.921C194.662 415.567 193.915 416.079 193.093 416.428C192.271 416.777 191.39 416.956 190.5 416.955ZM197.551 404.376C197.239 404.377 196.933 404.281 196.673 404.103C196.413 403.925 196.21 403.671 196.09 403.375C195.971 403.078 195.939 402.752 196 402.437C196.061 402.122 196.212 401.832 196.433 401.605C196.654 401.378 196.935 401.223 197.242 401.161C197.549 401.098 197.866 401.13 198.155 401.253C198.444 401.376 198.691 401.584 198.865 401.851C199.039 402.118 199.131 402.432 199.131 402.753C199.132 402.966 199.092 403.177 199.013 403.375C198.934 403.572 198.818 403.751 198.672 403.903C198.526 404.054 198.351 404.174 198.16 404.256C197.968 404.337 197.762 404.38 197.555 404.38L197.551 404.376ZM205.036 391H175.964C174.913 391 173.905 391.429 173.161 392.192C172.418 392.956 172 393.992 172 395.071V424.929C172 426.008 172.418 427.044 173.161 427.808C173.905 428.571 174.913 429 175.964 429H205.036C206.087 429 207.095 428.571 207.839 427.808C208.582 427.044 209 426.008 209 424.929V395.071C209 393.992 208.582 392.956 207.839 392.192C207.095 391.429 206.087 391 205.036 391ZM203.622 415.598C203.515 417.772 203.032 419.698 201.487 421.281C199.942 422.864 198.068 423.37 195.953 423.474C193.772 423.6 187.233 423.6 185.052 423.474C182.935 423.364 181.066 422.867 179.518 421.281C177.97 419.695 177.484 417.768 177.383 415.598C177.26 413.357 177.26 406.64 177.383 404.402C177.49 402.228 177.967 400.302 179.518 398.719C181.069 397.136 182.943 396.636 185.052 396.532C187.233 396.406 193.772 396.406 195.953 396.532C198.07 396.641 199.945 397.139 201.487 398.725C203.029 400.311 203.521 402.238 203.622 404.412C203.745 406.644 203.745 413.356 203.622 415.598Z" fill="#F5F6F1"/>
<defs>
<filter id="filter0_di" x="0" y="0" width="880.895" height="559" filterUnits="userSpaceOnUse" color-interpolation-filters="sRGB">
<feFlood flood-opacity="0" result="BackgroundImageFix"/>
<feColorMatrix in="SourceAlpha" type="matrix" values="0 0 0 0 0 0 0 0 0 0 0 0 0 0 0 0 0 0 127 0"/>
<feOffset dx="10" dy="10"/>
<feGaussianBlur stdDeviation="10"/>
<feColorMatrix type="matrix" values="0 0 0 0 0.154167 0 0 0 0 0.0192708 0 0 0 0 0.0192708 0 0 0 0.25 0"/>
<feBlend mode="normal" in2="BackgroundImageFix" result="effect1_dropShadow"/>
<feBlend mode="normal" in="SourceGraphic" in2="effect1_dropShadow" result="shape"/>
<feColorMatrix in="SourceAlpha" type="matrix" values="0 0 0 0 0 0 0 0 0 0 0 0 0 0 0 0 0 0 127 0" result="hardAlpha"/>
<feOffset dx="-10" dy="-10"/>
<feGaussianBlur stdDeviation="10"/>
<feComposite in2="hardAlpha" operator="arithmetic" k2="-1" k3="1"/>
<feColorMatrix type="matrix" values="0 0 0 0 0 0 0 0 0 0 0 0 0 0 0 0 0 0 0.31 0"/>
<feBlend mode="normal" in2="shape" result="effect2_innerShadow"/>
</filter>
</defs>
</svg>
