<svg width="223" height="76" viewBox="0 0 223 76" fill="none" xmlns="http://www.w3.org/2000/svg">
<g clip-path="url(#clip0)">
<path d="M73.9205 37.0019V74.0019H46.7805V37.0019C46.7793 34.7914 46.033 32.6458 44.6622 30.9116C43.2914 29.1774 41.3761 27.9559 39.2256 27.4443C37.0751 26.9326 34.8149 27.1608 32.81 28.0919C30.8051 29.023 29.1726 30.6027 28.1761 32.5758C27.1795 34.549 26.8771 36.8004 27.3177 38.9666C27.7583 41.1328 28.9162 43.0872 30.6043 44.5144C32.2925 45.9415 34.4124 46.7579 36.6217 46.8318C38.831 46.9058 41.0007 46.2329 42.7805 44.9219V73.4619C40.8628 73.7722 38.9231 73.926 36.9805 73.9219C29.6626 73.9219 22.509 71.7519 16.4244 67.6863C10.3398 63.6207 5.59739 57.842 2.79694 51.0812C-0.00349975 44.3203 -0.736223 36.8808 0.69143 29.7036C2.11908 22.5263 5.64299 15.9335 10.8175 10.7589C15.9921 5.5844 22.5848 2.06049 29.7621 0.632836C36.9394 -0.794817 44.3789 -0.0620935 51.1398 2.73835C57.9006 5.53879 63.6793 10.2812 67.7449 16.3658C71.8105 22.4504 73.9805 29.604 73.9805 36.9219L73.9205 37.0019Z" fill="#001B12"/>
<path d="M52.1769 65.5616V68.4015C51.9923 68.2973 51.8243 68.2453 51.6728 68.2453C51.19 68.2453 50.9486 68.6145 50.9486 69.3528V72.7109H48.2934V68.8417C48.2934 67.8193 48.5726 67.0052 49.1311 66.3994C49.6896 65.7888 50.4351 65.4835 51.3675 65.4835C51.5758 65.4835 51.8456 65.5096 52.1769 65.5616ZM52.9649 65.732H55.6202V69.7291C55.6202 70.1314 55.7882 70.3326 56.1243 70.3326C56.4556 70.3326 56.6212 70.1314 56.6212 69.7291V65.732H59.2765V69.6794C59.2765 70.5976 58.9712 71.3738 58.3606 72.0081C57.7501 72.6376 57.0022 72.9523 56.1172 72.9523C55.109 72.9523 54.2973 72.5855 53.682 71.8519C53.204 71.2792 52.9649 70.484 52.9649 69.4664V65.732ZM63.4866 63.02V72.7109H60.8313V63.02H63.4866ZM72.0061 69.6013H67.9806C67.9191 69.3978 67.8883 69.2108 67.8883 69.0404C67.8883 68.8038 67.9309 68.5719 68.0161 68.3447H69.365C69.2704 67.8193 68.9746 67.5566 68.4776 67.5566C68.1463 67.5566 67.8765 67.6986 67.6682 67.9826C67.46 68.2618 67.3558 68.6216 67.3558 69.0617C67.3558 69.5208 67.4552 69.8924 67.654 70.1764C67.8575 70.4604 68.1226 70.6024 68.4492 70.6024C68.7142 70.6024 68.9698 70.4698 69.2159 70.2048L70.7282 72.0223C70.0229 72.576 69.2396 72.8529 68.3782 72.8529C67.3274 72.8529 66.4447 72.5003 65.73 71.7951C65.0153 71.0899 64.658 70.2166 64.658 69.1753C64.658 68.1388 65.0177 67.2632 65.7371 66.5485C66.4613 65.8338 67.3487 65.4764 68.3995 65.4764C69.4266 65.4764 70.288 65.8267 70.9837 66.5272C71.6842 67.2229 72.0345 68.082 72.0345 69.1043C72.0345 69.2085 72.025 69.3741 72.0061 69.6013Z" fill="white"/>
</g>
<path d="M89.2578 49.9658V55.2393H87.5439V60H81.5967V47.2852C81.5967 44.8242 82.2656 42.915 83.6035 41.5576C84.9512 40.1904 86.8408 39.5068 89.2725 39.5068C91.6162 39.5068 93.3496 40.127 94.4727 41.3672C95.5957 42.5977 96.1572 44.502 96.1572 47.0801V60H90.21V47.4756C90.21 46.6943 90.1172 46.1523 89.9316 45.8496C89.7461 45.5469 89.4141 45.3955 88.9355 45.3955C88.0078 45.3955 87.5439 46.0889 87.5439 47.4756V49.9658H89.2578ZM99.3506 40.0049H105.298V51.8848C105.298 52.8125 105.444 53.4326 105.737 53.7451C106.04 54.0479 106.631 54.1992 107.51 54.1992H107.817V60H106.235C104.067 60 102.378 59.3701 101.167 58.1104C99.9561 56.8408 99.3506 55.083 99.3506 52.8369V40.0049ZM116.343 53.0859V47.8418C117.544 47.8418 118.145 47.3828 118.145 46.4648C118.145 45.625 117.686 45.2051 116.768 45.2051C115.84 45.2051 115.376 45.7812 115.376 46.9336V60H109.429V47.5488C109.429 46.2598 109.556 45.2051 109.81 44.3848C110.073 43.5547 110.518 42.7832 111.143 42.0703C111.846 41.2793 112.725 40.6543 113.779 40.1953C114.834 39.7363 115.923 39.5068 117.046 39.5068C119.077 39.5068 120.781 40.1904 122.158 41.5576C123.545 42.9248 124.238 44.6191 124.238 46.6406C124.238 48.6035 123.618 50.1953 122.378 51.416C121.245 52.5391 119.536 53.1006 117.251 53.1006L116.343 53.0859ZM134.316 47.1533V52.4268H132.661V60H126.714V40.0049H132.661V47.1533H134.316ZM141.274 40.0049V60H135.327V40.0049H141.274ZM152.539 49.9658V55.2393H150.825V60H144.878V47.2852C144.878 44.8242 145.547 42.915 146.885 41.5576C148.232 40.1904 150.122 39.5068 152.554 39.5068C154.897 39.5068 156.631 40.127 157.754 41.3672C158.877 42.5977 159.438 44.502 159.438 47.0801V60H153.491V47.4756C153.491 46.6943 153.398 46.1523 153.213 45.8496C153.027 45.5469 152.695 45.3955 152.217 45.3955C151.289 45.3955 150.825 46.0889 150.825 47.4756V49.9658H152.539ZM168.989 45.3809V60H163.042V40.0049H170.674C172.998 40.0049 174.8 40.5811 176.079 41.7334C177.505 43.0225 178.218 44.6582 178.218 46.6406C178.218 48.6621 177.334 50.3662 175.566 51.7529L178.994 60H172.754L169.868 53.5547V48.4131H170.337C171.587 48.4131 172.212 47.876 172.212 46.8018C172.212 45.8545 171.489 45.3809 170.044 45.3809H168.989ZM195.049 40.0049V52.9688C195.049 55.2539 194.365 57.0801 192.998 58.4473C191.641 59.8145 189.829 60.498 187.563 60.498C185.308 60.498 183.579 59.834 182.378 58.5059C181.187 57.1777 180.591 55.2686 180.591 52.7783V40.0049H186.538V52.7637C186.538 53.9844 186.973 54.5947 187.842 54.5947C188.682 54.5947 189.102 53.9844 189.102 52.7637V40.0049H195.049ZM198.257 40.0049H204.204V51.8848C204.204 52.8125 204.351 53.4326 204.644 53.7451C204.946 54.0479 205.537 54.1992 206.416 54.1992H206.724V60H205.142C202.974 60 201.284 59.3701 200.073 58.1104C198.862 56.8408 198.257 55.083 198.257 52.8369V40.0049ZM219.409 47.7832V52.2363H215.527C215 52.2363 214.624 52.3145 214.399 52.4707C214.185 52.627 214.077 52.8906 214.077 53.2617C214.077 53.6816 214.189 53.96 214.414 54.0967C214.639 54.2236 215.098 54.2871 215.791 54.2871H219.79V60H215.117C212.92 60 211.24 59.4775 210.078 58.4326C208.916 57.3779 208.335 55.8594 208.335 53.877V46.04C208.335 44.126 208.882 42.6416 209.976 41.5869C211.079 40.5322 212.627 40.0049 214.619 40.0049H219.79V45.7471H215.996C214.971 45.7471 214.458 46.0791 214.458 46.7432C214.458 47.1338 214.58 47.4072 214.824 47.5635C215.068 47.71 215.503 47.7832 216.128 47.7832H219.409Z" fill="#001B12"/>
<path d="M81.9326 72V64.8418H82.8799V72H81.9326ZM86.4547 72V64.8418H88.9205C89.4771 64.8418 89.902 64.876 90.1949 64.9443C90.6051 65.0387 90.955 65.2096 91.2447 65.457C91.6223 65.776 91.9039 66.1846 92.0895 66.6826C92.2783 67.1774 92.3727 67.7438 92.3727 68.3818C92.3727 68.9255 92.3092 69.4072 92.1822 69.8271C92.0553 70.2471 91.8925 70.5954 91.6939 70.8721C91.4954 71.1455 91.2773 71.362 91.0396 71.5215C90.8053 71.6777 90.5204 71.7965 90.1852 71.8779C89.8531 71.9593 89.4706 72 89.0377 72H86.4547ZM87.402 71.1553H88.9303C89.4023 71.1553 89.7717 71.1113 90.0387 71.0234C90.3089 70.9355 90.5237 70.8118 90.6832 70.6523C90.9078 70.4277 91.082 70.1266 91.2057 69.749C91.3326 69.3682 91.3961 68.9076 91.3961 68.3672C91.3961 67.6185 91.2724 67.0439 91.025 66.6436C90.7809 66.2399 90.483 65.9697 90.1314 65.833C89.8775 65.7354 89.469 65.6865 88.9059 65.6865H87.402V71.1553ZM95.6008 72V64.8418H100.777V65.6865H96.548V67.8789H100.508V68.7188H96.548V71.1553H100.943V72H95.6008ZM103.365 72L106.114 64.8418H107.135L110.064 72H108.985L108.15 69.832H105.157L104.371 72H103.365ZM105.43 69.0605H107.857L107.11 67.0781C106.882 66.4759 106.713 65.9811 106.602 65.5938C106.511 66.0527 106.383 66.5085 106.217 66.9609L105.43 69.0605ZM112.399 69.7002L113.292 69.6221C113.335 69.9801 113.432 70.2747 113.585 70.5059C113.742 70.7337 113.982 70.9193 114.308 71.0625C114.634 71.2025 115 71.2725 115.407 71.2725C115.768 71.2725 116.087 71.2188 116.364 71.1113C116.64 71.0039 116.845 70.8574 116.979 70.6719C117.116 70.4831 117.184 70.278 117.184 70.0566C117.184 69.832 117.119 69.6367 116.989 69.4707C116.858 69.3014 116.644 69.1598 116.344 69.0459C116.152 68.971 115.727 68.8555 115.07 68.6992C114.412 68.5397 113.952 68.39 113.688 68.25C113.346 68.071 113.091 67.8496 112.921 67.5859C112.755 67.319 112.672 67.0212 112.672 66.6924C112.672 66.3311 112.775 65.9941 112.98 65.6816C113.185 65.3659 113.484 65.1266 113.878 64.9639C114.272 64.8011 114.71 64.7197 115.192 64.7197C115.722 64.7197 116.19 64.806 116.593 64.9785C117 65.1478 117.313 65.3984 117.531 65.7305C117.749 66.0625 117.866 66.4385 117.882 66.8584L116.974 66.9268C116.925 66.4743 116.759 66.1325 116.476 65.9014C116.196 65.6702 115.781 65.5547 115.231 65.5547C114.658 65.5547 114.24 65.6605 113.976 65.8721C113.716 66.0804 113.585 66.3327 113.585 66.6289C113.585 66.8861 113.678 67.0977 113.864 67.2637C114.046 67.4297 114.521 67.6006 115.289 67.7764C116.061 67.9489 116.59 68.1003 116.876 68.2305C117.293 68.4225 117.601 68.6667 117.799 68.9629C117.998 69.2559 118.097 69.5944 118.097 69.9785C118.097 70.3594 117.988 70.7191 117.77 71.0576C117.552 71.3929 117.238 71.6549 116.828 71.8438C116.421 72.0293 115.962 72.1221 115.451 72.1221C114.803 72.1221 114.259 72.0277 113.82 71.8389C113.384 71.6501 113.04 71.3669 112.789 70.9893C112.542 70.6084 112.412 70.1787 112.399 69.7002ZM129.324 69.1924V68.3525L132.356 68.3477V71.0039C131.891 71.375 131.41 71.6549 130.916 71.8438C130.421 72.0293 129.913 72.1221 129.392 72.1221C128.689 72.1221 128.049 71.9723 127.473 71.6729C126.9 71.3701 126.467 70.9339 126.174 70.3643C125.881 69.7946 125.735 69.1582 125.735 68.4551C125.735 67.7585 125.88 67.109 126.17 66.5068C126.463 65.9014 126.882 65.4521 127.429 65.1592C127.976 64.8662 128.606 64.7197 129.319 64.7197C129.837 64.7197 130.304 64.8044 130.72 64.9736C131.14 65.1396 131.469 65.3724 131.707 65.6719C131.944 65.9714 132.125 66.362 132.249 66.8438L131.394 67.0781C131.287 66.7135 131.153 66.4271 130.994 66.2188C130.834 66.0104 130.606 65.8444 130.31 65.7207C130.014 65.5938 129.685 65.5303 129.324 65.5303C128.891 65.5303 128.517 65.597 128.201 65.7305C127.885 65.8607 127.629 66.0332 127.434 66.248C127.242 66.4629 127.092 66.6989 126.985 66.9561C126.803 67.3988 126.712 67.8789 126.712 68.3965C126.712 69.0345 126.821 69.5684 127.039 69.998C127.26 70.4277 127.581 70.7467 128.001 70.9551C128.421 71.1634 128.866 71.2676 129.338 71.2676C129.749 71.2676 130.149 71.1895 130.54 71.0332C130.93 70.8737 131.226 70.7044 131.428 70.5254V69.1924H129.324ZM135.677 72V64.8418H140.853V65.6865H136.624V67.8789H140.584V68.7188H136.624V71.1553H141.019V72H135.677ZM146.049 72V65.6865H143.69V64.8418H149.364V65.6865H146.996V72H146.049ZM154.062 72V65.6865H151.704V64.8418H157.377V65.6865H155.009V72H154.062ZM160.415 72V64.8418H161.362V72H160.415ZM164.927 72V64.8418H165.899L169.659 70.4619V64.8418H170.567V72H169.595L165.836 66.375V72H164.927ZM177.413 69.1924V68.3525L180.446 68.3477V71.0039C179.98 71.375 179.5 71.6549 179.005 71.8438C178.51 72.0293 178.002 72.1221 177.482 72.1221C176.779 72.1221 176.139 71.9723 175.563 71.6729C174.99 71.3701 174.557 70.9339 174.264 70.3643C173.971 69.7946 173.824 69.1582 173.824 68.4551C173.824 67.7585 173.969 67.109 174.259 66.5068C174.552 65.9014 174.972 65.4521 175.519 65.1592C176.066 64.8662 176.696 64.7197 177.408 64.7197C177.926 64.7197 178.393 64.8044 178.81 64.9736C179.23 65.1396 179.558 65.3724 179.796 65.6719C180.034 65.9714 180.214 66.362 180.338 66.8438L179.484 67.0781C179.376 66.7135 179.243 66.4271 179.083 66.2188C178.924 66.0104 178.696 65.8444 178.4 65.7207C178.103 65.5938 177.775 65.5303 177.413 65.5303C176.98 65.5303 176.606 65.597 176.29 65.7305C175.974 65.8607 175.719 66.0332 175.524 66.248C175.332 66.4629 175.182 66.6989 175.074 66.9561C174.892 67.3988 174.801 67.8789 174.801 68.3965C174.801 69.0345 174.91 69.5684 175.128 69.998C175.349 70.4277 175.67 70.7467 176.09 70.9551C176.51 71.1634 176.956 71.2676 177.428 71.2676C177.838 71.2676 178.238 71.1895 178.629 71.0332C179.02 70.8737 179.316 70.7044 179.518 70.5254V69.1924H177.413ZM188.445 72V64.8418H191.619C192.257 64.8418 192.742 64.9069 193.074 65.0371C193.406 65.1641 193.671 65.3903 193.87 65.7158C194.068 66.0413 194.167 66.401 194.167 66.7949C194.167 67.3027 194.003 67.7308 193.674 68.0791C193.345 68.4274 192.838 68.6488 192.151 68.7432C192.401 68.8636 192.592 68.9824 192.722 69.0996C192.999 69.3535 193.261 69.6709 193.508 70.0518L194.753 72H193.562L192.615 70.5107C192.338 70.0811 192.11 69.7523 191.931 69.5244C191.752 69.2965 191.591 69.137 191.448 69.0459C191.308 68.9548 191.164 68.8913 191.018 68.8555C190.911 68.8327 190.735 68.8213 190.491 68.8213H189.392V72H188.445ZM189.392 68.001H191.428C191.861 68.001 192.2 67.957 192.444 67.8691C192.688 67.778 192.873 67.6348 193 67.4395C193.127 67.2409 193.191 67.026 193.191 66.7949C193.191 66.4564 193.067 66.1781 192.82 65.96C192.576 65.7419 192.188 65.6328 191.658 65.6328H189.392V68.001ZM197.576 72V64.8418H202.752V65.6865H198.523V67.8789H202.483V68.7188H198.523V71.1553H202.918V72H197.576ZM205.34 72L208.089 64.8418H209.11L212.04 72H210.961L210.126 69.832H207.132L206.346 72H205.34ZM207.406 69.0605H209.833L209.086 67.0781C208.858 66.4759 208.688 65.9811 208.578 65.5938C208.487 66.0527 208.358 66.5085 208.192 66.9609L207.406 69.0605ZM214.657 72V64.8418H215.605V71.1553H219.13V72H214.657Z" fill="#001B12"/>
<defs>
<clipPath id="clip0">
<rect width="73.92" height="75.88" fill="white"/>
</clipPath>
</defs>
</svg>
