<svg width="596" height="479" viewBox="0 0 596 479" fill="none" xmlns="http://www.w3.org/2000/svg">
<path d="M25.44 37.264C25.44 40.336 24.576 42.56 22.848 43.936C21.12 45.312 18.384 46 14.64 46H2.88V15.904H14.64C18.032 15.904 20.432 16.48 21.84 17.632C23.28 18.784 24 20.752 24 23.536C24 25.424 23.712 26.864 23.136 27.856C22.56 28.848 21.504 29.568 19.968 30.016C21.792 30.336 23.152 31.104 24.048 32.32C24.976 33.504 25.44 35.152 25.44 37.264ZM18.672 24.352C18.672 22.976 18.368 22.032 17.76 21.52C17.184 20.976 16.144 20.704 14.64 20.704H8.64V28.48H14.64C16.08 28.48 17.104 28.16 17.712 27.52C18.352 26.88 18.672 25.824 18.672 24.352ZM19.872 36.88C19.872 35.408 19.472 34.384 18.672 33.808C17.904 33.232 16.56 32.944 14.64 32.944H8.64V41.008H14.64C16.56 41.008 17.904 40.704 18.672 40.096C19.472 39.488 19.872 38.416 19.872 36.88ZM48.6045 33.664V15.904H54.3645V33.664C54.3645 37.984 53.3405 41.2 51.2925 43.312C49.2445 45.392 46.1085 46.432 41.8845 46.432C37.5645 46.432 34.4125 45.424 32.4285 43.408C30.4445 41.392 29.4525 38.144 29.4525 33.664V15.904H35.2125V33.664C35.2125 36.48 35.6925 38.416 36.6525 39.472C37.6125 40.496 39.3565 41.008 41.8845 41.008C44.4445 41.008 46.2045 40.48 47.1645 39.424C48.1245 38.368 48.6045 36.448 48.6045 33.664ZM71.4 34.048L64.728 32.464C62.52 31.952 60.968 31.12 60.072 29.968C59.176 28.784 58.728 27.104 58.728 24.928C58.728 21.664 59.624 19.264 61.416 17.728C63.208 16.192 65.992 15.424 69.768 15.424C71.336 15.424 72.728 15.504 73.944 15.664C75.192 15.792 76.344 16 77.4 16.288V21.472C75.576 21.12 74.12 20.896 73.032 20.8C71.944 20.672 70.824 20.608 69.672 20.608C67.752 20.608 66.392 20.912 65.592 21.52C64.792 22.096 64.392 23.104 64.392 24.544C64.392 25.376 64.552 26.016 64.872 26.464C65.224 26.88 65.8 27.184 66.6 27.376L73.08 28.912C74.584 29.264 75.704 29.632 76.44 30.016C77.176 30.368 77.784 30.816 78.264 31.36C78.744 31.968 79.096 32.72 79.32 33.616C79.576 34.512 79.704 35.616 79.704 36.928C79.704 40.32 78.808 42.752 77.016 44.224C75.224 45.696 72.44 46.432 68.664 46.432C66.712 46.432 64.824 46.304 63 46.048C61.208 45.792 59.8 45.472 58.776 45.088V39.664C60.152 40.08 61.704 40.416 63.432 40.672C65.192 40.896 66.936 41.008 68.664 41.008C70.552 41.008 71.864 40.752 72.6 40.24C73.368 39.696 73.752 38.656 73.752 37.12C73.752 36.16 73.592 35.472 73.272 35.056C72.984 34.608 72.36 34.272 71.4 34.048ZM89.4994 15.904V46H83.7394V15.904H89.4994ZM120.567 15.904V46H114.951L100.695 25.6V46H95.2706V15.904H100.887L115.191 36.784V15.904H120.567ZM146.701 40.576V46H126.349V15.904H146.269V21.088H132.109V28.192H144.493V33.136H132.109V40.576H146.701ZM162.525 34.048L155.853 32.464C153.645 31.952 152.093 31.12 151.197 29.968C150.301 28.784 149.853 27.104 149.853 24.928C149.853 21.664 150.749 19.264 152.541 17.728C154.333 16.192 157.117 15.424 160.893 15.424C162.461 15.424 163.853 15.504 165.069 15.664C166.317 15.792 167.469 16 168.525 16.288V21.472C166.701 21.12 165.245 20.896 164.157 20.8C163.069 20.672 161.949 20.608 160.797 20.608C158.877 20.608 157.517 20.912 156.717 21.52C155.917 22.096 155.517 23.104 155.517 24.544C155.517 25.376 155.677 26.016 155.997 26.464C156.349 26.88 156.925 27.184 157.725 27.376L164.205 28.912C165.709 29.264 166.829 29.632 167.565 30.016C168.301 30.368 168.909 30.816 169.389 31.36C169.869 31.968 170.221 32.72 170.445 33.616C170.701 34.512 170.829 35.616 170.829 36.928C170.829 40.32 169.933 42.752 168.141 44.224C166.349 45.696 163.565 46.432 159.789 46.432C157.837 46.432 155.949 46.304 154.125 46.048C152.333 45.792 150.925 45.472 149.901 45.088V39.664C151.277 40.08 152.829 40.416 154.557 40.672C156.317 40.896 158.061 41.008 159.789 41.008C161.677 41.008 162.989 40.752 163.725 40.24C164.493 39.696 164.877 38.656 164.877 37.12C164.877 36.16 164.717 35.472 164.397 35.056C164.109 34.608 163.485 34.272 162.525 34.048ZM186.384 34.048L179.712 32.464C177.504 31.952 175.952 31.12 175.056 29.968C174.16 28.784 173.712 27.104 173.712 24.928C173.712 21.664 174.608 19.264 176.4 17.728C178.192 16.192 180.976 15.424 184.752 15.424C186.32 15.424 187.712 15.504 188.928 15.664C190.176 15.792 191.328 16 192.384 16.288V21.472C190.56 21.12 189.104 20.896 188.016 20.8C186.928 20.672 185.808 20.608 184.656 20.608C182.736 20.608 181.376 20.912 180.576 21.52C179.776 22.096 179.376 23.104 179.376 24.544C179.376 25.376 179.536 26.016 179.856 26.464C180.208 26.88 180.784 27.184 181.584 27.376L188.064 28.912C189.568 29.264 190.688 29.632 191.424 30.016C192.16 30.368 192.768 30.816 193.248 31.36C193.728 31.968 194.08 32.72 194.304 33.616C194.56 34.512 194.688 35.616 194.688 36.928C194.688 40.32 193.792 42.752 192 44.224C190.208 45.696 187.424 46.432 183.648 46.432C181.696 46.432 179.808 46.304 177.984 46.048C176.192 45.792 174.784 45.472 173.76 45.088V39.664C175.136 40.08 176.688 40.416 178.416 40.672C180.176 40.896 181.92 41.008 183.648 41.008C185.536 41.008 186.848 40.752 187.584 40.24C188.352 39.696 188.736 38.656 188.736 37.12C188.736 36.16 188.576 35.472 188.256 35.056C187.968 34.608 187.344 34.272 186.384 34.048Z" fill="#97ED4C"/>
<path d="M19.8 189L0 113.76H20.16L28.08 150.96C28.4 152.24 28.72 153.96 29.04 156.12C29.44 158.28 30.08 162.44 30.96 168.6C31.2 167.08 31.64 164.16 32.28 159.84C33 155.52 33.52 152.6 33.84 151.08L41.52 113.76H60.96L68.88 150.96C69.2 152.24 69.52 153.96 69.84 156.12C70.24 158.28 70.88 162.44 71.76 168.6C72 167.08 72.44 164.16 73.08 159.84C73.8 155.52 74.32 152.6 74.64 151.08L82.32 113.76H101.88L82.2 189H60.72L55.92 166.2C55.12 162.36 54.32 158.32 53.52 154.08C52.72 149.84 51.88 145.16 51 140.04C49.72 147.16 48.72 152.52 48 156.12C47.28 159.72 46.6 163.08 45.96 166.2L41.16 189H19.8ZM152.209 171.48V185.76C150.289 186.96 147.049 188 142.489 188.88C137.929 189.76 133.129 190.2 128.089 190.2C118.489 190.2 111.569 187.8 107.329 183C103.089 178.12 100.969 170.24 100.969 159.36C100.969 148.72 103.209 140.92 107.689 135.96C112.169 131 119.249 128.52 128.929 128.52C138.369 128.52 145.009 130.4 148.849 134.16C152.769 137.84 154.729 144.4 154.729 153.84C154.729 156.4 154.689 158.44 154.609 159.96C154.529 161.48 154.369 163.24 154.129 165.24H119.089C119.169 168.52 120.049 170.8 121.729 172.08C123.409 173.36 126.489 174 130.969 174C134.809 174 138.729 173.76 142.729 173.28C146.729 172.72 149.889 172.12 152.209 171.48ZM128.929 143.88C125.089 143.88 122.489 144.56 121.129 145.92C119.769 147.2 119.089 149.76 119.089 153.6H138.409V150.96C138.329 148.16 137.649 146.28 136.369 145.32C135.169 144.36 132.689 143.88 128.929 143.88ZM198.824 207.24H180.824V129.72H196.664L197.624 135.24H197.864C200.024 133 202.584 131.32 205.544 130.2C208.584 129.08 212.024 128.52 215.864 128.52C223.704 128.52 229.264 130.88 232.544 135.6C235.904 140.32 237.584 148.24 237.584 159.36C237.584 170.16 235.464 178 231.224 182.88C227.064 187.76 220.264 190.2 210.824 190.2C208.504 190.2 206.304 190.04 204.224 189.72C202.224 189.48 200.424 189.12 198.824 188.64V207.24ZM219.584 159.36C219.584 153.36 218.944 149.44 217.664 147.6C216.384 145.68 213.624 144.72 209.384 144.72C207.304 144.72 205.344 144.88 203.504 145.2C201.744 145.52 200.184 146 198.824 146.64V171.96C200.024 172.52 201.384 172.92 202.904 173.16C204.504 173.4 206.304 173.52 208.304 173.52C213.184 173.52 216.264 172.68 217.544 171C218.904 169.24 219.584 165.36 219.584 159.36ZM263.746 189H245.746V129.72H262.546L263.146 134.28H263.386C266.266 132.52 269.186 131.2 272.146 130.32C275.186 129.36 278.026 128.88 280.666 128.88H281.626V146.28C280.906 146.12 280.106 146.04 279.226 146.04C278.426 145.96 277.386 145.92 276.106 145.92C273.786 145.92 271.586 146.08 269.506 146.4C267.426 146.64 265.506 147.04 263.746 147.6V189ZM336.31 171.48V185.76C334.39 186.96 331.15 188 326.59 188.88C322.03 189.76 317.23 190.2 312.19 190.2C302.59 190.2 295.67 187.8 291.43 183C287.19 178.12 285.07 170.24 285.07 159.36C285.07 148.72 287.31 140.92 291.79 135.96C296.27 131 303.35 128.52 313.03 128.52C322.47 128.52 329.11 130.4 332.95 134.16C336.87 137.84 338.83 144.4 338.83 153.84C338.83 156.4 338.79 158.44 338.71 159.96C338.63 161.48 338.47 163.24 338.23 165.24H303.19C303.27 168.52 304.15 170.8 305.83 172.08C307.51 173.36 310.59 174 315.07 174C318.91 174 322.83 173.76 326.83 173.28C330.83 172.72 333.99 172.12 336.31 171.48ZM313.03 143.88C309.19 143.88 306.59 144.56 305.23 145.92C303.87 147.2 303.19 149.76 303.19 153.6H322.51V150.96C322.43 148.16 321.75 146.28 320.47 145.32C319.27 144.36 316.79 143.88 313.03 143.88ZM371.233 143.76C367.873 143.76 365.593 144.04 364.393 144.6C363.273 145.08 362.713 146.24 362.713 148.08C362.713 148.8 362.913 149.4 363.313 149.88C363.793 150.28 364.433 150.52 365.233 150.6L379.513 152.52C384.153 153.16 387.393 154.68 389.233 157.08C391.153 159.4 392.113 163.12 392.113 168.24C392.113 175.92 390.393 181.52 386.953 185.04C383.513 188.48 377.513 190.2 368.953 190.2C364.233 190.2 359.953 190 356.113 189.6C352.353 189.28 349.153 188.8 346.513 188.16V172.56C348.513 173.04 351.273 173.48 354.793 173.88C358.393 174.2 362.033 174.36 365.713 174.36C368.993 174.36 371.193 174.04 372.313 173.4C373.513 172.68 374.113 171.36 374.113 169.44C374.113 168.8 373.913 168.28 373.513 167.88C373.113 167.4 372.593 167.12 371.953 167.04L357.193 165.12C352.873 164.56 349.713 163 347.713 160.44C345.793 157.8 344.833 153.92 344.833 148.8C344.833 142.08 346.953 137.04 351.193 133.68C355.433 130.24 361.713 128.52 370.033 128.52C373.313 128.52 376.353 128.6 379.153 128.76C381.953 128.92 384.913 129.24 388.033 129.72V144.72C386.033 144.4 383.553 144.16 380.593 144C377.633 143.84 374.513 143.76 371.233 143.76ZM449.045 171.48V185.76C447.125 186.96 443.885 188 439.325 188.88C434.765 189.76 429.965 190.2 424.925 190.2C415.325 190.2 408.405 187.8 404.165 183C399.925 178.12 397.805 170.24 397.805 159.36C397.805 148.72 400.045 140.92 404.525 135.96C409.005 131 416.085 128.52 425.765 128.52C435.205 128.52 441.845 130.4 445.685 134.16C449.605 137.84 451.565 144.4 451.565 153.84C451.565 156.4 451.525 158.44 451.445 159.96C451.365 161.48 451.205 163.24 450.965 165.24H415.925C416.005 168.52 416.885 170.8 418.565 172.08C420.245 173.36 423.325 174 427.805 174C431.645 174 435.565 173.76 439.565 173.28C443.565 172.72 446.725 172.12 449.045 171.48ZM425.765 143.88C421.925 143.88 419.325 144.56 417.965 145.92C416.605 147.2 415.925 149.76 415.925 153.6H435.245V150.96C435.165 148.16 434.485 146.28 433.205 145.32C432.005 144.36 429.525 143.88 425.765 143.88ZM477.848 189H459.848V129.72H475.448L476.168 135.96H476.528C479.088 133.32 481.848 131.44 484.808 130.32C487.848 129.12 491.488 128.52 495.728 128.52C502.448 128.52 507.528 130.16 510.968 133.44C514.408 136.72 516.128 141.56 516.128 147.96V189H498.128V150.36C498.128 148.52 497.368 147.12 495.848 146.16C494.408 145.2 492.248 144.72 489.368 144.72C487.208 144.72 485.128 144.96 483.128 145.44C481.128 145.92 479.368 146.6 477.848 147.48V189ZM529.313 144.72H522.353V129.72H529.913L532.193 115.92H547.313V129.72H564.113V144.72H547.313V167.76C547.313 170 547.873 171.52 548.993 172.32C550.193 173.04 552.513 173.4 555.953 173.4C557.153 173.4 558.633 173.32 560.393 173.16C562.153 172.92 563.633 172.68 564.833 172.44V187.8C563.553 188.36 561.553 188.88 558.833 189.36C556.193 189.92 553.833 190.2 551.753 190.2C543.753 190.2 537.993 188.52 534.473 185.16C531.033 181.72 529.313 176.16 529.313 168.48V144.72ZM19.56 334.2C13.48 334.2 9 332.68 6.12 329.64C3.32 326.6 1.92 321.8 1.92 315.24C1.92 308.52 3.6 303.8 6.96 301.08C10.4 298.36 16.28 297 24.6 297C26.52 297 28.48 297.12 30.48 297.36C32.56 297.52 34.36 297.76 35.88 298.08V293.76C35.88 291.84 35.04 290.44 33.36 289.56C31.76 288.6 29.28 288.12 25.92 288.12C22.08 288.12 18.64 288.24 15.6 288.48C12.64 288.64 9.92 288.96 7.44 289.44V274.68C10.4 273.96 13.84 273.44 17.76 273.12C21.68 272.72 26.24 272.52 31.44 272.52C38.8 272.52 44.36 274.16 48.12 277.44C51.96 280.72 53.88 285.56 53.88 291.96V333H37.08L36.48 327.96H36.12C33.64 329.88 30.92 331.4 27.96 332.52C25 333.64 22.2 334.2 19.56 334.2ZM27 308.88C23.8 308.88 21.64 309.24 20.52 309.96C19.4 310.6 18.84 312 18.84 314.16C18.84 316.16 19.28 317.56 20.16 318.36C21.12 319.08 22.76 319.44 25.08 319.44C26.84 319.44 28.68 319.2 30.6 318.72C32.52 318.24 34.28 317.64 35.88 316.92V309.6C34.92 309.36 33.72 309.2 32.28 309.12C30.84 308.96 29.08 308.88 27 308.88ZM88.1081 287.76C84.7481 287.76 82.4681 288.04 81.2681 288.6C80.1481 289.08 79.5881 290.24 79.5881 292.08C79.5881 292.8 79.7881 293.4 80.1881 293.88C80.6681 294.28 81.3081 294.52 82.1081 294.6L96.3881 296.52C101.028 297.16 104.268 298.68 106.108 301.08C108.028 303.4 108.988 307.12 108.988 312.24C108.988 319.92 107.268 325.52 103.828 329.04C100.388 332.48 94.3881 334.2 85.8281 334.2C81.1081 334.2 76.8281 334 72.9881 333.6C69.2281 333.28 66.0281 332.8 63.3881 332.16V316.56C65.3881 317.04 68.1481 317.48 71.6681 317.88C75.2681 318.2 78.9081 318.36 82.5881 318.36C85.8681 318.36 88.0681 318.04 89.1881 317.4C90.3881 316.68 90.9881 315.36 90.9881 313.44C90.9881 312.8 90.7881 312.28 90.3881 311.88C89.9881 311.4 89.4681 311.12 88.8281 311.04L74.0681 309.12C69.7481 308.56 66.5881 307 64.5881 304.44C62.6681 301.8 61.7081 297.92 61.7081 292.8C61.7081 286.08 63.8281 281.04 68.0681 277.68C72.3081 274.24 78.5881 272.52 86.9081 272.52C90.1881 272.52 93.2281 272.6 96.0281 272.76C98.8281 272.92 101.788 273.24 104.908 273.72V288.72C102.908 288.4 100.428 288.16 97.4681 288C94.5081 287.84 91.3881 287.76 88.1081 287.76ZM140.96 287.76C137.6 287.76 135.32 288.04 134.12 288.6C133 289.08 132.44 290.24 132.44 292.08C132.44 292.8 132.64 293.4 133.04 293.88C133.52 294.28 134.16 294.52 134.96 294.6L149.24 296.52C153.88 297.16 157.12 298.68 158.96 301.08C160.88 303.4 161.84 307.12 161.84 312.24C161.84 319.92 160.12 325.52 156.68 329.04C153.24 332.48 147.24 334.2 138.68 334.2C133.96 334.2 129.68 334 125.84 333.6C122.08 333.28 118.88 332.8 116.24 332.16V316.56C118.24 317.04 121 317.48 124.52 317.88C128.12 318.2 131.76 318.36 135.44 318.36C138.72 318.36 140.92 318.04 142.04 317.4C143.24 316.68 143.84 315.36 143.84 313.44C143.84 312.8 143.64 312.28 143.24 311.88C142.84 311.4 142.32 311.12 141.68 311.04L126.92 309.12C122.6 308.56 119.44 307 117.44 304.44C115.52 301.8 114.56 297.92 114.56 292.8C114.56 286.08 116.68 281.04 120.92 277.68C125.16 274.24 131.44 272.52 139.76 272.52C143.04 272.52 146.08 272.6 148.88 272.76C151.68 272.92 154.64 273.24 157.76 273.72V288.72C155.76 288.4 153.28 288.16 150.32 288C147.36 287.84 144.24 287.76 140.96 287.76ZM218.771 315.48V329.76C216.851 330.96 213.611 332 209.051 332.88C204.491 333.76 199.691 334.2 194.651 334.2C185.051 334.2 178.131 331.8 173.891 327C169.651 322.12 167.531 314.24 167.531 303.36C167.531 292.72 169.771 284.92 174.251 279.96C178.731 275 185.811 272.52 195.491 272.52C204.931 272.52 211.571 274.4 215.411 278.16C219.331 281.84 221.291 288.4 221.291 297.84C221.291 300.4 221.251 302.44 221.171 303.96C221.091 305.48 220.931 307.24 220.691 309.24H185.651C185.731 312.52 186.611 314.8 188.291 316.08C189.971 317.36 193.051 318 197.531 318C201.371 318 205.291 317.76 209.291 317.28C213.291 316.72 216.451 316.12 218.771 315.48ZM195.491 287.88C191.651 287.88 189.051 288.56 187.691 289.92C186.331 291.2 185.651 293.76 185.651 297.6H204.971V294.96C204.891 292.16 204.211 290.28 202.931 289.32C201.731 288.36 199.251 287.88 195.491 287.88ZM232.945 288.72H225.985V273.72H233.545L235.825 259.92H250.945V273.72H267.745V288.72H250.945V311.76C250.945 314 251.505 315.52 252.625 316.32C253.825 317.04 256.145 317.4 259.585 317.4C260.785 317.4 262.265 317.32 264.025 317.16C265.785 316.92 267.265 316.68 268.465 316.44V331.8C267.185 332.36 265.185 332.88 262.465 333.36C259.825 333.92 257.465 334.2 255.385 334.2C247.385 334.2 241.625 332.52 238.105 329.16C234.665 325.72 232.945 320.16 232.945 312.48V288.72ZM298.928 287.76C295.568 287.76 293.288 288.04 292.088 288.6C290.968 289.08 290.408 290.24 290.408 292.08C290.408 292.8 290.608 293.4 291.008 293.88C291.488 294.28 292.128 294.52 292.928 294.6L307.208 296.52C311.848 297.16 315.088 298.68 316.928 301.08C318.848 303.4 319.808 307.12 319.808 312.24C319.808 319.92 318.088 325.52 314.648 329.04C311.208 332.48 305.208 334.2 296.648 334.2C291.928 334.2 287.648 334 283.808 333.6C280.048 333.28 276.848 332.8 274.208 332.16V316.56C276.208 317.04 278.968 317.48 282.488 317.88C286.088 318.2 289.728 318.36 293.408 318.36C296.688 318.36 298.888 318.04 300.008 317.4C301.208 316.68 301.808 315.36 301.808 313.44C301.808 312.8 301.608 312.28 301.208 311.88C300.808 311.4 300.288 311.12 299.648 311.04L284.888 309.12C280.568 308.56 277.408 307 275.408 304.44C273.488 301.8 272.528 297.92 272.528 292.8C272.528 286.08 274.648 281.04 278.888 277.68C283.128 274.24 289.408 272.52 297.728 272.52C301.008 272.52 304.048 272.6 306.848 272.76C309.648 272.92 312.608 273.24 315.728 273.72V288.72C313.728 288.4 311.248 288.16 308.288 288C305.328 287.84 302.208 287.76 298.928 287.76ZM363.953 267.24H344.993V253.2H363.953V267.24ZM363.473 333H345.473V273.72H363.473V333ZM391.832 333H373.832V273.72H389.432L390.152 279.96H390.512C393.072 277.32 395.832 275.44 398.792 274.32C401.832 273.12 405.472 272.52 409.712 272.52C416.432 272.52 421.512 274.16 424.952 277.44C428.392 280.72 430.112 285.56 430.112 291.96V333H412.112V294.36C412.112 292.52 411.352 291.12 409.832 290.16C408.392 289.2 406.232 288.72 403.352 288.72C401.192 288.72 399.112 288.96 397.112 289.44C395.112 289.92 393.352 290.6 391.832 291.48V333ZM443.297 288.72H436.337V273.72H443.897L446.177 259.92H461.297V273.72H478.097V288.72H461.297V311.76C461.297 314 461.857 315.52 462.977 316.32C464.177 317.04 466.497 317.4 469.937 317.4C471.137 317.4 472.617 317.32 474.377 317.16C476.137 316.92 477.617 316.68 478.817 316.44V331.8C477.537 332.36 475.537 332.88 472.817 333.36C470.177 333.92 467.817 334.2 465.737 334.2C457.737 334.2 451.977 332.52 448.457 329.16C445.017 325.72 443.297 320.16 443.297 312.48V288.72ZM540.974 303.36C540.974 314.48 538.734 322.4 534.254 327.12C529.774 331.84 522.254 334.2 511.694 334.2C501.134 334.2 493.614 331.84 489.134 327.12C484.654 322.4 482.414 314.48 482.414 303.36C482.414 292.24 484.654 284.32 489.134 279.6C493.614 274.88 501.134 272.52 511.694 272.52C522.254 272.52 529.774 274.88 534.254 279.6C538.734 284.32 540.974 292.24 540.974 303.36ZM500.414 303.12C500.414 309.2 501.054 313.12 502.334 314.88C503.694 316.64 506.814 317.52 511.694 317.52C516.574 317.52 519.654 316.64 520.934 314.88C522.294 313.12 522.974 309.2 522.974 303.12C522.974 297.04 522.294 293.12 520.934 291.36C519.654 289.6 516.574 288.72 511.694 288.72C506.814 288.72 503.694 289.6 502.334 291.36C501.054 293.12 500.414 297.04 500.414 303.12ZM9 432.72H2.04V417.72H9.6L11.88 403.92H27V417.72H43.8V432.72H27V455.76C27 458 27.56 459.52 28.68 460.32C29.88 461.04 32.2 461.4 35.64 461.4C36.84 461.4 38.32 461.32 40.08 461.16C41.84 460.92 43.32 460.68 44.52 460.44V475.8C43.24 476.36 41.24 476.88 38.52 477.36C35.88 477.92 33.52 478.2 31.44 478.2C23.44 478.2 17.68 476.52 14.16 473.16C10.72 469.72 9 464.16 9 456.48V432.72ZM68.8631 477H50.8631V397.2H68.8631V421.92C71.8231 420.24 74.8631 418.92 77.9831 417.96C81.1831 417 84.2231 416.52 87.1031 416.52C93.8231 416.52 98.8231 418.12 102.103 421.32C105.463 424.52 107.143 429.4 107.143 435.96V477H89.1431V438.36C89.1431 436.36 88.5431 434.92 87.3431 434.04C86.1431 433.16 84.2231 432.72 81.5831 432.72C79.5831 432.72 77.4631 432.92 75.2231 433.32C72.9831 433.64 70.8631 434.08 68.8631 434.64V477ZM166.271 459.48V473.76C164.351 474.96 161.111 476 156.551 476.88C151.991 477.76 147.191 478.2 142.151 478.2C132.551 478.2 125.631 475.8 121.391 471C117.151 466.12 115.031 458.24 115.031 447.36C115.031 436.72 117.271 428.92 121.751 423.96C126.231 419 133.311 416.52 142.991 416.52C152.431 416.52 159.071 418.4 162.911 422.16C166.831 425.84 168.791 432.4 168.791 441.84C168.791 444.4 168.751 446.44 168.671 447.96C168.591 449.48 168.431 451.24 168.191 453.24H133.151C133.231 456.52 134.111 458.8 135.791 460.08C137.471 461.36 140.551 462 145.031 462C148.871 462 152.791 461.76 156.791 461.28C160.791 460.72 163.951 460.12 166.271 459.48ZM142.991 431.88C139.151 431.88 136.551 432.56 135.191 433.92C133.831 435.2 133.151 437.76 133.151 441.6H152.471V438.96C152.391 436.16 151.711 434.28 150.431 433.32C149.231 432.36 146.751 431.88 142.991 431.88ZM212.887 477H194.887V417.72H211.687L212.287 422.16H212.647C215.607 420.32 218.447 418.92 221.167 417.96C223.887 417 226.487 416.52 228.967 416.52C232.247 416.52 235.047 417.04 237.367 418.08C239.687 419.04 241.527 420.52 242.887 422.52H243.367C246.087 420.68 249.127 419.24 252.487 418.2C255.927 417.08 259.207 416.52 262.327 416.52C268.167 416.52 272.487 418.12 275.287 421.32C278.167 424.52 279.607 429.4 279.607 435.96V477H261.607V438.36C261.607 436.36 261.047 434.92 259.927 434.04C258.807 433.16 257.047 432.72 254.647 432.72C253.367 432.72 252.007 432.84 250.567 433.08C249.127 433.32 247.687 433.68 246.247 434.16V477H228.247V438.36C228.247 436.36 227.687 434.92 226.567 434.04C225.447 433.16 223.687 432.72 221.287 432.72C220.007 432.72 218.647 432.84 217.207 433.08C215.767 433.32 214.327 433.68 212.887 434.16V477ZM304.091 478.2C298.011 478.2 293.531 476.68 290.651 473.64C287.851 470.6 286.451 465.8 286.451 459.24C286.451 452.52 288.131 447.8 291.491 445.08C294.931 442.36 300.811 441 309.131 441C311.051 441 313.011 441.12 315.011 441.36C317.091 441.52 318.891 441.76 320.411 442.08V437.76C320.411 435.84 319.571 434.44 317.891 433.56C316.291 432.6 313.811 432.12 310.451 432.12C306.611 432.12 303.171 432.24 300.131 432.48C297.171 432.64 294.451 432.96 291.971 433.44V418.68C294.931 417.96 298.371 417.44 302.291 417.12C306.211 416.72 310.771 416.52 315.971 416.52C323.331 416.52 328.891 418.16 332.651 421.44C336.491 424.72 338.411 429.56 338.411 435.96V477H321.611L321.011 471.96H320.651C318.171 473.88 315.451 475.4 312.491 476.52C309.531 477.64 306.731 478.2 304.091 478.2ZM311.531 452.88C308.331 452.88 306.171 453.24 305.051 453.96C303.931 454.6 303.371 456 303.371 458.16C303.371 460.16 303.811 461.56 304.691 462.36C305.651 463.08 307.291 463.44 309.611 463.44C311.371 463.44 313.211 463.2 315.131 462.72C317.051 462.24 318.811 461.64 320.411 460.92V453.6C319.451 453.36 318.251 453.2 316.811 453.12C315.371 452.96 313.611 452.88 311.531 452.88ZM366.519 477H348.519V417.72H365.319L365.919 422.28H366.159C369.039 420.52 371.959 419.2 374.919 418.32C377.959 417.36 380.799 416.88 383.439 416.88H384.399V434.28C383.679 434.12 382.879 434.04 381.999 434.04C381.199 433.96 380.159 433.92 378.879 433.92C376.559 433.92 374.359 434.08 372.279 434.4C370.199 434.64 368.279 435.04 366.519 435.6V477ZM409.176 453.96V477H391.176V397.2H409.176V440.04H411.936L426.936 417.72H448.296L427.416 446.28L449.496 477H427.536L411.936 453.96H409.176ZM498.732 459.48V473.76C496.812 474.96 493.572 476 489.012 476.88C484.452 477.76 479.652 478.2 474.612 478.2C465.012 478.2 458.092 475.8 453.852 471C449.612 466.12 447.492 458.24 447.492 447.36C447.492 436.72 449.732 428.92 454.212 423.96C458.692 419 465.772 416.52 475.452 416.52C484.892 416.52 491.532 418.4 495.372 422.16C499.292 425.84 501.252 432.4 501.252 441.84C501.252 444.4 501.212 446.44 501.132 447.96C501.052 449.48 500.892 451.24 500.652 453.24H465.612C465.692 456.52 466.572 458.8 468.252 460.08C469.932 461.36 473.012 462 477.492 462C481.332 462 485.252 461.76 489.252 461.28C493.252 460.72 496.412 460.12 498.732 459.48ZM475.452 431.88C471.612 431.88 469.012 432.56 467.652 433.92C466.292 435.2 465.612 437.76 465.612 441.6H484.932V438.96C484.852 436.16 484.172 434.28 482.892 433.32C481.692 432.36 479.212 431.88 475.452 431.88ZM512.906 432.72H505.946V417.72H513.506L515.786 403.92H530.906V417.72H547.706V432.72H530.906V455.76C530.906 458 531.466 459.52 532.586 460.32C533.786 461.04 536.106 461.4 539.546 461.4C540.746 461.4 542.226 461.32 543.986 461.16C545.746 460.92 547.226 460.68 548.426 460.44V475.8C547.146 476.36 545.146 476.88 542.426 477.36C539.786 477.92 537.426 478.2 535.346 478.2C527.346 478.2 521.586 476.52 518.066 473.16C514.626 469.72 512.906 464.16 512.906 456.48V432.72ZM570.489 477H553.089V460.44H570.489V477Z" fill="black"/>
</svg>
