<svg width="359" height="32" viewBox="0 0 359 32" fill="none" xmlns="http://www.w3.org/2000/svg">
<path d="M28.328 15.88C28.328 21.352 27.24 25.32 25.064 27.784C22.92 30.216 19.416 31.432 14.552 31.432C9.368 31.432 5.768 30.296 3.752 28.024C1.736 25.72 0.728 21.672 0.728 15.88C0.728 10.44 1.816 6.504 3.992 4.072C6.168 1.64 9.688 0.423999 14.552 0.423999C19.704 0.423999 23.288 1.576 25.304 3.88C27.32 6.152 28.328 10.152 28.328 15.88ZM7.736 23.464C8.248 24.392 9 25.048 9.992 25.432C10.984 25.816 12.504 26.008 14.552 26.008C17.72 26.008 19.832 25.304 20.888 23.896C21.944 22.456 22.472 19.784 22.472 15.88C22.472 13.992 22.376 12.44 22.184 11.224C22.024 10.008 21.736 9.016 21.32 8.248C20.808 7.288 20.056 6.616 19.064 6.232C18.072 5.816 16.568 5.608 14.552 5.608C11.352 5.608 9.224 6.328 8.168 7.768C7.112 9.208 6.584 11.912 6.584 15.88C6.584 17.768 6.68 19.32 6.872 20.536C7.064 21.752 7.352 22.728 7.736 23.464ZM51.8701 18.664V0.903998H57.6301V18.664C57.6301 22.984 56.6061 26.2 54.5581 28.312C52.5101 30.392 49.3741 31.432 45.1501 31.432C40.8301 31.432 37.6781 30.424 35.6941 28.408C33.7101 26.392 32.7181 23.144 32.7181 18.664V0.903998H38.4781V18.664C38.4781 21.48 38.9581 23.416 39.9181 24.472C40.8781 25.496 42.6221 26.008 45.1501 26.008C47.7101 26.008 49.4701 25.48 50.4301 24.424C51.3901 23.368 51.8701 21.448 51.8701 18.664ZM68.9056 20.728V31H63.1456V0.903998H73.7536C78.2016 0.903998 81.3696 1.656 83.2576 3.16C85.1776 4.664 86.1376 7.176 86.1376 10.696C86.1376 13.224 85.5776 15.272 84.4576 16.84C83.3696 18.376 81.7056 19.448 79.4656 20.056L87.0496 31H80.1376L73.3696 20.728H68.9056ZM80.2816 10.696C80.2816 9.032 79.7856 7.848 78.7936 7.144C77.8336 6.44 76.1536 6.088 73.7536 6.088H68.9056V15.928H73.7536C76.1536 15.928 77.8336 15.528 78.7936 14.728C79.7856 13.928 80.2816 12.584 80.2816 10.696ZM118.935 25.576V31H98.5831V0.903998H118.503V6.088H104.343V13.192H116.727V18.136H104.343V25.576H118.935ZM137.207 15.352L147.623 31H140.567L133.463 20.008L126.551 31H120.215L130.391 15.592L120.743 0.903998H127.751L133.991 10.984L140.423 0.903998H146.615L137.207 15.352ZM155.906 21.88V31H150.146V0.903998H160.754C165.202 0.903998 168.37 1.688 170.258 3.256C172.178 4.824 173.138 7.432 173.138 11.08C173.138 14.76 172.13 17.48 170.114 19.24C168.13 21 165.058 21.88 160.898 21.88H155.906ZM167.282 11.08C167.282 9.256 166.786 7.976 165.794 7.24C164.834 6.472 163.154 6.088 160.754 6.088H155.906V16.84H160.754C163.154 16.84 164.834 16.408 165.794 15.544C166.786 14.648 167.282 13.16 167.282 11.08ZM197.451 25.576V31H177.099V0.903998H197.019V6.088H182.859V13.192H195.243V18.136H182.859V25.576H197.451ZM207.515 20.728V31H201.755V0.903998H212.363C216.811 0.903998 219.979 1.656 221.867 3.16C223.787 4.664 224.747 7.176 224.747 10.696C224.747 13.224 224.187 15.272 223.067 16.84C221.979 18.376 220.315 19.448 218.075 20.056L225.659 31H218.747L211.979 20.728H207.515ZM218.891 10.696C218.891 9.032 218.395 7.848 217.403 7.144C216.443 6.44 214.763 6.088 212.363 6.088H207.515V15.928H212.363C214.763 15.928 216.443 15.528 217.403 14.728C218.395 13.928 218.891 12.584 218.891 10.696ZM250.78 0.903998V6.088H241.66V31H235.9V6.088H226.828V0.903998H250.78ZM260.062 0.903998V31H254.302V0.903998H260.062ZM277.353 19.048L270.681 17.464C268.473 16.952 266.921 16.12 266.025 14.968C265.129 13.784 264.681 12.104 264.681 9.928C264.681 6.664 265.577 4.264 267.369 2.728C269.161 1.192 271.945 0.423999 275.721 0.423999C277.289 0.423999 278.681 0.503999 279.897 0.663999C281.145 0.791999 282.297 0.999999 283.353 1.288V6.472C281.529 6.12 280.073 5.896 278.985 5.8C277.897 5.672 276.777 5.608 275.625 5.608C273.705 5.608 272.345 5.912 271.545 6.52C270.745 7.096 270.345 8.104 270.345 9.544C270.345 10.376 270.505 11.016 270.825 11.464C271.177 11.88 271.753 12.184 272.553 12.376L279.033 13.912C280.537 14.264 281.657 14.632 282.393 15.016C283.129 15.368 283.737 15.816 284.217 16.36C284.697 16.968 285.049 17.72 285.273 18.616C285.529 19.512 285.657 20.616 285.657 21.928C285.657 25.32 284.761 27.752 282.969 29.224C281.177 30.696 278.393 31.432 274.617 31.432C272.665 31.432 270.777 31.304 268.953 31.048C267.161 30.792 265.753 30.472 264.729 30.088V24.664C266.105 25.08 267.657 25.416 269.385 25.672C271.145 25.896 272.889 26.008 274.617 26.008C276.505 26.008 277.817 25.752 278.553 25.24C279.321 24.696 279.705 23.656 279.705 22.12C279.705 21.16 279.545 20.472 279.225 20.056C278.937 19.608 278.313 19.272 277.353 19.048ZM310.045 25.576V31H289.693V0.903998H309.613V6.088H295.453V13.192H307.837V18.136H295.453V25.576H310.045ZM327.796 0.903998V31H322.036V0.903998H327.796ZM358.864 0.903998V31H353.248L338.992 10.6V31H333.568V0.903998H339.184L353.488 21.784V0.903998H358.864Z" fill="#1C846F"/>
</svg>
