<svg width="140" height="41" viewBox="0 0 140 41" fill="none" xmlns="http://www.w3.org/2000/svg">
<path d="M38.9684 18.9989V37.9568H24.6649V18.9989C24.6642 17.8663 24.2709 16.7669 23.5485 15.8784C22.826 14.9898 21.8166 14.3639 20.6832 14.1018C19.5499 13.8397 18.3587 13.9566 17.302 14.4336C16.2454 14.9107 15.385 15.7201 14.8598 16.7311C14.3346 17.7421 14.1753 18.8957 14.4075 20.0056C14.6397 21.1155 15.2499 22.1169 16.1396 22.8481C17.0293 23.5793 18.1465 23.9976 19.3109 24.0355C20.4753 24.0734 21.6188 23.7286 22.5568 23.0569V37.6801C21.5461 37.8391 20.5238 37.9179 19.5 37.9158C15.6433 37.9158 11.8731 36.8039 8.66639 34.7208C5.45963 32.6377 2.96027 29.6769 1.48436 26.2128C0.00844907 22.7487 -0.377716 18.9369 0.374696 15.2594C1.12711 11.5819 2.9843 8.20396 5.71142 5.55265C8.43855 2.90134 11.9131 1.09577 15.6957 0.364279C19.4784 -0.367215 23.3992 0.00821416 26.9623 1.44309C30.5255 2.87797 33.571 5.30785 35.7137 8.42546C37.8563 11.5431 39 15.2084 39 18.9579L38.9684 18.9989Z" fill="#001B12"/>
<path d="M27.6304 32.1089V33.4761C27.5415 33.4259 27.4606 33.4009 27.3877 33.4009C27.1553 33.4009 27.0391 33.5786 27.0391 33.9341V35.5508H25.7607V33.688C25.7607 33.1958 25.8952 32.8039 26.1641 32.5122C26.4329 32.2183 26.7918 32.0713 27.2407 32.0713C27.341 32.0713 27.4709 32.0838 27.6304 32.1089ZM28.0098 32.1909H29.2881V34.1152C29.2881 34.3089 29.369 34.4058 29.5308 34.4058C29.6903 34.4058 29.77 34.3089 29.77 34.1152V32.1909H31.0483V34.0913C31.0483 34.5334 30.9014 34.9071 30.6074 35.2124C30.3135 35.5155 29.9535 35.667 29.5273 35.667C29.042 35.667 28.6512 35.4904 28.355 35.1372C28.1248 34.8615 28.0098 34.4787 28.0098 33.9888V32.1909ZM33.0752 30.8853V35.5508H31.7969V30.8853H33.0752ZM37.1768 34.0537H35.2388C35.2091 33.9557 35.1943 33.8657 35.1943 33.7837C35.1943 33.6698 35.2148 33.5581 35.2559 33.4487H35.9053C35.8597 33.1958 35.7173 33.0693 35.478 33.0693C35.3185 33.0693 35.1886 33.1377 35.0884 33.2744C34.9881 33.4089 34.938 33.582 34.938 33.7939C34.938 34.015 34.9858 34.1938 35.0815 34.3306C35.1795 34.4673 35.3071 34.5356 35.4644 34.5356C35.592 34.5356 35.715 34.4718 35.8335 34.3442L36.5615 35.2192C36.222 35.4858 35.8449 35.6191 35.4302 35.6191C34.9243 35.6191 34.4993 35.4494 34.1553 35.1099C33.8112 34.7703 33.6392 34.3499 33.6392 33.8486C33.6392 33.3496 33.8123 32.9281 34.1587 32.584C34.5073 32.2399 34.9346 32.0679 35.4404 32.0679C35.9349 32.0679 36.3496 32.2365 36.6846 32.5737C37.0218 32.9087 37.1904 33.3223 37.1904 33.8145C37.1904 33.8646 37.1859 33.9443 37.1768 34.0537Z" fill="#F5F6F1"/>
<path d="M49.1719 23.0527V26.5684H48.0293V29.7422H44.0645V21.2656C44.0645 19.625 44.5104 18.3522 45.4023 17.4473C46.3008 16.5358 47.5605 16.0801 49.1816 16.0801C50.7441 16.0801 51.8997 16.4935 52.6484 17.3203C53.3971 18.1406 53.7715 19.4102 53.7715 21.1289V29.7422H49.8066V21.3926C49.8066 20.8717 49.7448 20.5104 49.6211 20.3086C49.4974 20.1068 49.276 20.0059 48.957 20.0059C48.3385 20.0059 48.0293 20.4681 48.0293 21.3926V23.0527H49.1719ZM55.9004 16.4121H59.8652V24.332C59.8652 24.9505 59.9629 25.3639 60.1582 25.5723C60.36 25.7741 60.7539 25.875 61.3398 25.875H61.5449V29.7422H60.4902C59.0449 29.7422 57.9186 29.3223 57.1113 28.4824C56.304 27.6361 55.9004 26.4642 55.9004 24.9668V16.4121ZM67.2285 25.1328V21.6367C68.0293 21.6367 68.4297 21.3307 68.4297 20.7188C68.4297 20.1589 68.1237 19.8789 67.5117 19.8789C66.8932 19.8789 66.584 20.263 66.584 21.0312V29.7422H62.6191V21.4414C62.6191 20.582 62.7038 19.8789 62.873 19.332C63.0488 18.7786 63.3451 18.2643 63.7617 17.7891C64.2305 17.2617 64.8164 16.8451 65.5195 16.5391C66.2227 16.2331 66.9486 16.0801 67.6973 16.0801C69.0514 16.0801 70.1875 16.5358 71.1055 17.4473C72.0299 18.3587 72.4922 19.4883 72.4922 20.8359C72.4922 22.1445 72.0788 23.2057 71.252 24.0195C70.4967 24.7682 69.3574 25.1426 67.834 25.1426L67.2285 25.1328ZM79.2109 21.1777V24.6934H78.1074V29.7422H74.1426V16.4121H78.1074V21.1777H79.2109ZM83.8496 16.4121V29.7422H79.8848V16.4121H83.8496ZM91.3594 23.0527V26.5684H90.2168V29.7422H86.252V21.2656C86.252 19.625 86.6979 18.3522 87.5898 17.4473C88.4883 16.5358 89.748 16.0801 91.3691 16.0801C92.9316 16.0801 94.0872 16.4935 94.8359 17.3203C95.5846 18.1406 95.959 19.4102 95.959 21.1289V29.7422H91.9941V21.3926C91.9941 20.8717 91.9323 20.5104 91.8086 20.3086C91.6849 20.1068 91.4635 20.0059 91.1445 20.0059C90.526 20.0059 90.2168 20.4681 90.2168 21.3926V23.0527H91.3594ZM102.326 19.9961V29.7422H98.3613V16.4121H103.449C104.999 16.4121 106.2 16.7962 107.053 17.5645C108.003 18.4238 108.479 19.5143 108.479 20.8359C108.479 22.1836 107.889 23.3197 106.711 24.2441L108.996 29.7422H104.836L102.912 25.4453V22.0176H103.225C104.058 22.0176 104.475 21.6595 104.475 20.9434C104.475 20.3118 103.993 19.9961 103.029 19.9961H102.326ZM119.699 16.4121V25.0547C119.699 26.5781 119.243 27.7956 118.332 28.707C117.427 29.6185 116.219 30.0742 114.709 30.0742C113.205 30.0742 112.053 29.6315 111.252 28.7461C110.458 27.8607 110.061 26.5879 110.061 24.9277V16.4121H114.025V24.918C114.025 25.7318 114.315 26.1387 114.895 26.1387C115.454 26.1387 115.734 25.7318 115.734 24.918V16.4121H119.699ZM121.838 16.4121H125.803V24.332C125.803 24.9505 125.9 25.3639 126.096 25.5723C126.298 25.7741 126.691 25.875 127.277 25.875H127.482V29.7422H126.428C124.982 29.7422 123.856 29.3223 123.049 28.4824C122.242 27.6361 121.838 26.4642 121.838 24.9668V16.4121ZM135.939 21.5977V24.5664H133.352C133 24.5664 132.749 24.6185 132.6 24.7227C132.456 24.8268 132.385 25.0026 132.385 25.25C132.385 25.5299 132.46 25.7155 132.609 25.8066C132.759 25.8913 133.065 25.9336 133.527 25.9336H136.193V29.7422H133.078C131.613 29.7422 130.493 29.3939 129.719 28.6973C128.944 27.9941 128.557 26.9818 128.557 25.6602V20.4355C128.557 19.1595 128.921 18.1699 129.65 17.4668C130.386 16.7637 131.418 16.4121 132.746 16.4121H136.193V20.2402H133.664C132.98 20.2402 132.639 20.4616 132.639 20.9043C132.639 21.1647 132.72 21.347 132.883 21.4512C133.046 21.5488 133.335 21.5977 133.752 21.5977H135.939Z" fill="#001B12"/>
<path d="M43.6528 37.0859V32.0752H44.3159V37.0859H43.6528ZM46.7483 37.0859V32.0752H48.4744C48.864 32.0752 49.1614 32.0991 49.3664 32.147C49.6536 32.2131 49.8985 32.3327 50.1013 32.5059C50.3656 32.7292 50.5627 33.0151 50.6926 33.3638C50.8248 33.7101 50.8909 34.1066 50.8909 34.5532C50.8909 34.9338 50.8464 35.271 50.7576 35.5649C50.6687 35.8589 50.5548 36.1027 50.4158 36.2964C50.2768 36.4878 50.1241 36.6393 49.9578 36.751C49.7937 36.8604 49.5943 36.9435 49.3596 37.0005C49.1272 37.0575 48.8594 37.0859 48.5564 37.0859H46.7483ZM47.4114 36.4946H48.4812C48.8116 36.4946 49.0702 36.4639 49.2571 36.4023C49.4462 36.3408 49.5966 36.2542 49.7082 36.1426C49.8655 35.9854 49.9874 35.7746 50.074 35.5103C50.1628 35.2437 50.2073 34.9212 50.2073 34.543C50.2073 34.0189 50.1207 33.6167 49.9475 33.3364C49.7766 33.0539 49.5681 32.8647 49.322 32.769C49.1443 32.7007 48.8583 32.6665 48.4641 32.6665H47.4114V36.4946ZM53.0805 37.0859V32.0752H56.7036V32.6665H53.7436V34.2012H56.5156V34.7891H53.7436V36.4946H56.8198V37.0859H53.0805ZM58.4455 37.0859L60.3698 32.0752H61.0842L63.135 37.0859H62.3796L61.7951 35.5684H59.6999L59.1496 37.0859H58.4455ZM59.8913 35.0283H61.5901L61.0671 33.6406C60.9076 33.2191 60.7891 32.8727 60.7116 32.6016C60.6478 32.9229 60.5578 33.2419 60.4416 33.5586L59.8913 35.0283ZM64.6992 35.4761L65.3247 35.4214C65.3543 35.672 65.4227 35.8783 65.5297 36.04C65.6391 36.1995 65.8077 36.3294 66.0356 36.4297C66.2635 36.5277 66.5198 36.5767 66.8046 36.5767C67.0576 36.5767 67.2809 36.5391 67.4746 36.4639C67.6683 36.3887 67.8118 36.2861 67.9052 36.1562C68.0009 36.0241 68.0488 35.8805 68.0488 35.7256C68.0488 35.5684 68.0032 35.4316 67.9121 35.3154C67.8209 35.1969 67.6705 35.0978 67.4609 35.0181C67.3265 34.9657 67.0291 34.8848 66.5688 34.7754C66.1085 34.6637 65.7861 34.5589 65.6015 34.4609C65.3623 34.3356 65.1834 34.1807 65.0649 33.9961C64.9487 33.8092 64.8906 33.6007 64.8906 33.3706C64.8906 33.1177 64.9624 32.8818 65.1059 32.6631C65.2495 32.4421 65.4591 32.2746 65.7348 32.1606C66.0105 32.0467 66.317 31.9897 66.6543 31.9897C67.0257 31.9897 67.3527 32.0501 67.6352 32.1709C67.92 32.2894 68.1388 32.4648 68.2915 32.6973C68.4441 32.9297 68.5262 33.1929 68.5376 33.4868L67.9018 33.5347C67.8676 33.2179 67.7514 32.9787 67.5532 32.8169C67.3572 32.6551 67.0667 32.5742 66.6816 32.5742C66.2806 32.5742 65.9878 32.6483 65.8032 32.7964C65.6209 32.9422 65.5297 33.1188 65.5297 33.3262C65.5297 33.5062 65.5947 33.6543 65.7246 33.7705C65.8522 33.8867 66.1849 34.0063 66.7226 34.1294C67.2627 34.2502 67.6329 34.3561 67.8335 34.4473C68.1251 34.5817 68.3405 34.7526 68.4795 34.96C68.6185 35.165 68.688 35.402 68.688 35.6709C68.688 35.9375 68.6116 36.1893 68.4589 36.4263C68.3063 36.661 68.0864 36.8444 67.7993 36.9766C67.5144 37.1064 67.1932 37.1714 66.8354 37.1714C66.382 37.1714 66.0014 37.1053 65.6938 36.9731C65.3885 36.841 65.1481 36.6427 64.9726 36.3784C64.7994 36.1118 64.7083 35.811 64.6992 35.4761ZM76.4067 35.1206V34.5327L78.5292 34.5293V36.3887C78.2034 36.6484 77.8673 36.8444 77.5209 36.9766C77.1746 37.1064 76.8191 37.1714 76.4545 37.1714C75.9623 37.1714 75.5146 37.0666 75.1113 36.8569C74.7102 36.645 74.4072 36.3397 74.2021 35.9409C73.997 35.5422 73.8945 35.0967 73.8945 34.6045C73.8945 34.1169 73.9959 33.6623 74.1987 33.2407C74.4037 32.8169 74.6977 32.5024 75.0805 32.2974C75.4633 32.0923 75.9042 31.9897 76.4033 31.9897C76.7656 31.9897 77.0926 32.049 77.3842 32.1675C77.6782 32.2837 77.9083 32.4466 78.0746 32.6562C78.241 32.8659 78.3675 33.1393 78.454 33.4766L77.8559 33.6406C77.7807 33.3854 77.6873 33.1849 77.5756 33.0391C77.464 32.8932 77.3045 32.777 77.0971 32.6904C76.8898 32.6016 76.6596 32.5571 76.4067 32.5571C76.1036 32.5571 75.8416 32.6038 75.6205 32.6973C75.3995 32.7884 75.2206 32.9092 75.0839 33.0596C74.9495 33.21 74.8447 33.3752 74.7695 33.5552C74.6419 33.8651 74.5781 34.2012 74.5781 34.5635C74.5781 35.0101 74.6544 35.3838 74.8071 35.6846C74.962 35.9854 75.1865 36.2087 75.4804 36.3545C75.7744 36.5003 76.0865 36.5732 76.4169 36.5732C76.704 36.5732 76.9843 36.5186 77.2578 36.4092C77.5312 36.2975 77.7385 36.179 77.8798 36.0537V35.1206H76.4067ZM80.7839 37.0859V32.0752H84.4069V32.6665H81.447V34.2012H84.2189V34.7891H81.447V36.4946H84.5231V37.0859H80.7839ZM87.974 37.0859V32.6665H86.3232V32.0752H90.2948V32.6665H88.6371V37.0859H87.974ZM93.5133 37.0859V32.6665H91.8625V32.0752H95.8341V32.6665H94.1764V37.0859H93.5133ZM97.8905 37.0859V32.0752H98.5536V37.0859H97.8905ZM100.979 37.0859V32.0752H101.659L104.291 36.0093V32.0752H104.927V37.0859H104.247L101.615 33.1484V37.0859H100.979ZM109.649 35.1206V34.5327L111.772 34.5293V36.3887C111.446 36.6484 111.11 36.8444 110.764 36.9766C110.417 37.1064 110.062 37.1714 109.697 37.1714C109.205 37.1714 108.757 37.0666 108.354 36.8569C107.953 36.645 107.65 36.3397 107.445 35.9409C107.24 35.5422 107.137 35.0967 107.137 34.6045C107.137 34.1169 107.238 33.6623 107.441 33.2407C107.646 32.8169 107.94 32.5024 108.323 32.2974C108.706 32.0923 109.147 31.9897 109.646 31.9897C110.008 31.9897 110.335 32.049 110.627 32.1675C110.921 32.2837 111.151 32.4466 111.317 32.6562C111.484 32.8659 111.61 33.1393 111.697 33.4766L111.099 33.6406C111.023 33.3854 110.93 33.1849 110.818 33.0391C110.707 32.8932 110.547 32.777 110.34 32.6904C110.132 32.6016 109.902 32.5571 109.649 32.5571C109.346 32.5571 109.084 32.6038 108.863 32.6973C108.642 32.7884 108.463 32.9092 108.327 33.0596C108.192 33.21 108.087 33.3752 108.012 33.5552C107.884 33.8651 107.821 34.2012 107.821 34.5635C107.821 35.0101 107.897 35.3838 108.05 35.6846C108.205 35.9854 108.429 36.2087 108.723 36.3545C109.017 36.5003 109.329 36.5732 109.66 36.5732C109.947 36.5732 110.227 36.5186 110.5 36.4092C110.774 36.2975 110.981 36.179 111.122 36.0537V35.1206H109.649ZM117.231 37.0859V32.0752H119.453C119.9 32.0752 120.239 32.1208 120.472 32.2119C120.704 32.3008 120.89 32.4591 121.029 32.687C121.168 32.9149 121.237 33.1667 121.237 33.4424C121.237 33.7979 121.122 34.0975 120.892 34.3413C120.662 34.5851 120.306 34.7401 119.826 34.8062C120.001 34.8905 120.134 34.9736 120.225 35.0557C120.419 35.2334 120.603 35.4556 120.776 35.7222L121.647 37.0859H120.813L120.15 36.0435C119.957 35.7427 119.797 35.5125 119.672 35.353C119.546 35.1935 119.434 35.0819 119.333 35.0181C119.235 34.9543 119.135 34.9098 119.033 34.8848C118.957 34.8688 118.834 34.8608 118.663 34.8608H117.894V37.0859H117.231ZM117.894 34.2866H119.32C119.623 34.2866 119.86 34.2559 120.031 34.1943C120.202 34.1305 120.331 34.0303 120.42 33.8936C120.509 33.7546 120.554 33.6042 120.554 33.4424C120.554 33.2054 120.467 33.0106 120.294 32.8579C120.123 32.7052 119.852 32.6289 119.48 32.6289H117.894V34.2866ZM123.553 37.0859V32.0752H127.176V32.6665H124.216V34.2012H126.988V34.7891H124.216V36.4946H127.293V37.0859H123.553ZM128.918 37.0859L130.843 32.0752H131.557L133.608 37.0859H132.852L132.268 35.5684H130.173L129.622 37.0859H128.918ZM130.364 35.0283H132.063L131.54 33.6406C131.38 33.2191 131.262 32.8727 131.184 32.6016C131.121 32.9229 131.031 33.2419 130.914 33.5586L130.364 35.0283ZM135.37 37.0859V32.0752H136.033V36.4946H138.501V37.0859H135.37Z" fill="#001B12"/>
</svg>
