<svg width="1744" height="440" viewBox="0 0 1744 440" fill="none" xmlns="http://www.w3.org/2000/svg">
<g filter="url(#filter0_dd)">
<path d="M30 45H1714V409.5L1632 370H30V45Z" fill="#EAF5DD"/>
</g>
<g clip-path="url(#clip0)">
<path d="M239.634 182.391C239.331 179.621 238.014 177.06 235.934 175.2C233.855 173.34 231.16 172.311 228.366 172.311H176V149.848H203.433C235.388 152.957 239.191 176.711 239.634 182.391Z" fill="url(#paint0_linear)"/>
<path d="M248.291 211.063L253.4 219.323L238.882 243.043L223.203 217.47H195.637V243.043H176V194.973H228.366C229.856 194.973 231.33 194.681 232.706 194.112C234.082 193.543 235.332 192.709 236.384 191.659C237.437 190.608 238.272 189.36 238.84 187.988C239.409 186.615 239.701 185.144 239.7 183.659C239.7 183.659 239.7 183.504 239.7 183.273C239.7 183.041 239.7 183.008 239.7 182.843C239.7 182.677 239.7 182.655 239.7 182.424C239.258 176.711 235.454 152.958 203.499 149.848H228.366C235.539 149.833 242.531 152.088 248.337 156.288C254.143 160.487 258.464 166.415 260.679 173.219C262.894 180.023 262.887 187.352 260.662 194.152C258.436 200.952 254.105 206.873 248.291 211.063Z" fill="url(#paint1_linear)"/>
<path d="M358 243.044H328.931L298.436 193.419V193.32C298.436 193.32 286.461 182.656 265.143 200.4L278.068 179.171L283.906 169.666L298.436 146L312.953 169.666L358 243.044Z" fill="url(#paint2_linear)"/>
<path d="M298.434 193.32L267.917 242.945H238.881L253.399 219.323L256.218 214.747L265.064 200.3C286.382 182.557 298.357 193.22 298.357 193.22L298.434 193.32Z" fill="url(#paint3_linear)"/>
</g>
<path d="M564.641 100.953V130.344H542.281V107.141C542.281 93.9219 543.875 84.125 547.062 77.75C550.25 71.375 554.984 66.4062 561.266 62.8438L566.469 72.8281C562.531 74.7969 559.484 77.8438 557.328 81.9688C555.172 86.0937 553.953 92.4219 553.672 100.953H564.641ZM528.781 100.953V130.344H506.562V107.141C506.562 93.9219 508.109 84.125 511.203 77.75C514.391 71.375 519.172 66.4062 525.547 62.8438L530.75 72.8281C526.812 74.7969 523.766 77.8438 521.609 81.9688C519.453 86 518.234 92.3281 517.953 100.953H528.781Z" fill="#1C8463"/>
<path d="M1501.36 197.047V167.656H1523.72V190.859C1523.72 204.078 1522.12 213.875 1518.94 220.25C1515.75 226.625 1511.02 231.594 1504.73 235.156L1499.53 225.172C1503.47 223.203 1506.52 220.156 1508.67 216.031C1510.83 211.906 1512.05 205.578 1512.33 197.047H1501.36ZM1537.22 197.047V167.656H1559.44V190.859C1559.44 204.078 1557.89 213.875 1554.8 220.25C1551.61 226.625 1546.83 231.594 1540.45 235.156L1535.25 225.172C1539.19 223.203 1542.23 220.156 1544.39 216.031C1546.55 212 1547.77 205.672 1548.05 197.047H1537.22Z" fill="#1C8463"/>
<path d="M1374.5 255L1379.33 269.856H1394.95L1382.31 279.038L1387.14 293.894L1374.5 284.712L1361.86 293.894L1366.69 279.038L1354.05 269.856H1369.67L1374.5 255Z" fill="#FDF303"/>
<path d="M1417.5 255L1422.33 269.856H1437.95L1425.31 279.038L1430.14 293.894L1417.5 284.712L1404.86 293.894L1409.69 279.038L1397.05 269.856H1412.67L1417.5 255Z" fill="#FDF303"/>
<path d="M1461 255L1465.94 269.856H1481.92L1468.99 279.038L1473.93 293.894L1461 284.712L1448.07 293.894L1453.01 279.038L1440.08 269.856H1456.06L1461 255Z" fill="#FDF303"/>
<path d="M1504.5 255L1509.33 269.856H1524.95L1512.31 279.038L1517.14 293.894L1504.5 284.712L1491.86 293.894L1496.69 279.038L1484.05 269.856H1499.67L1504.5 255Z" fill="#FDF303"/>
<path d="M1547.5 255L1552.33 269.856H1567.95L1555.31 279.038L1560.14 293.894L1547.5 284.712L1534.86 293.894L1539.69 279.038L1527.05 269.856H1542.67L1547.5 255Z" fill="#FDF303"/>
<path d="M711.9 119.325V121.25H706.7V135H704.575V121.25H699.375V119.325H711.9ZM715.981 135H713.931V118.375H715.981V123.65C716.731 123.233 717.473 122.925 718.206 122.725C718.956 122.508 719.698 122.4 720.431 122.4C721.798 122.4 722.823 122.742 723.506 123.425C724.206 124.108 724.556 125.117 724.556 126.45V135H722.506V126.7C722.506 125.85 722.281 125.233 721.831 124.85C721.398 124.45 720.715 124.25 719.781 124.25C719.165 124.25 718.523 124.333 717.856 124.5C717.206 124.667 716.581 124.9 715.981 125.2V135ZM737.025 132.6V134.325C736.591 134.558 735.95 134.767 735.1 134.95C734.266 135.117 733.416 135.2 732.55 135.2C730.616 135.2 729.233 134.7 728.4 133.7C727.566 132.7 727.15 131.05 727.15 128.75C727.15 126.533 727.583 124.925 728.45 123.925C729.316 122.908 730.7 122.4 732.6 122.4C734.366 122.4 735.633 122.8 736.4 123.6C737.166 124.383 737.55 125.7 737.55 127.55C737.55 127.883 737.541 128.192 737.525 128.475C737.508 128.758 737.475 129.1 737.425 129.5H729.225C729.241 130.867 729.516 131.842 730.05 132.425C730.6 133.008 731.541 133.3 732.875 133.3C733.591 133.3 734.341 133.233 735.125 133.1C735.908 132.967 736.541 132.8 737.025 132.6ZM735.675 127.275C735.658 126.175 735.416 125.4 734.95 124.95C734.483 124.483 733.7 124.25 732.6 124.25C731.366 124.25 730.491 124.517 729.975 125.05C729.475 125.567 729.225 126.483 729.225 127.8H735.65C735.65 127.767 735.65 127.692 735.65 127.575C735.666 127.442 735.675 127.342 735.675 127.275ZM756.921 118.375H758.971V135H757.196L757.046 133.85H756.996C756.512 134.3 755.921 134.642 755.221 134.875C754.537 135.092 753.746 135.2 752.846 135.2C751.162 135.2 749.954 134.7 749.221 133.7C748.504 132.7 748.146 131.067 748.146 128.8C748.146 126.533 748.587 124.9 749.471 123.9C750.354 122.9 751.829 122.4 753.896 122.4C754.479 122.4 755.021 122.45 755.521 122.55C756.037 122.633 756.504 122.758 756.921 122.925V118.375ZM754.146 124.25C752.596 124.25 751.546 124.575 750.996 125.225C750.462 125.875 750.196 127.067 750.196 128.8C750.196 130.483 750.429 131.658 750.896 132.325C751.379 132.975 752.271 133.3 753.571 133.3C754.187 133.3 754.779 133.225 755.346 133.075C755.912 132.908 756.437 132.667 756.921 132.35V124.75C756.521 124.583 756.096 124.458 755.646 124.375C755.196 124.292 754.696 124.25 754.146 124.25ZM771.546 132.6V134.325C771.113 134.558 770.471 134.767 769.621 134.95C768.788 135.117 767.938 135.2 767.071 135.2C765.138 135.2 763.754 134.7 762.921 133.7C762.088 132.7 761.671 131.05 761.671 128.75C761.671 126.533 762.104 124.925 762.971 123.925C763.838 122.908 765.221 122.4 767.121 122.4C768.888 122.4 770.154 122.8 770.921 123.6C771.688 124.383 772.071 125.7 772.071 127.55C772.071 127.883 772.063 128.192 772.046 128.475C772.029 128.758 771.996 129.1 771.946 129.5H763.746C763.763 130.867 764.038 131.842 764.571 132.425C765.121 133.008 766.063 133.3 767.396 133.3C768.113 133.3 768.863 133.233 769.646 133.1C770.429 132.967 771.063 132.8 771.546 132.6ZM770.196 127.275C770.179 126.175 769.938 125.4 769.471 124.95C769.004 124.483 768.221 124.25 767.121 124.25C765.888 124.25 765.013 124.517 764.496 125.05C763.996 125.567 763.746 126.483 763.746 127.8H770.171C770.171 127.767 770.171 127.692 770.171 127.575C770.188 127.442 770.196 127.342 770.196 127.275ZM778.972 124.25C777.906 124.25 777.164 124.375 776.747 124.625C776.347 124.875 776.147 125.383 776.147 126.15C776.147 126.55 776.239 126.858 776.422 127.075C776.622 127.275 776.931 127.408 777.347 127.475L780.522 127.95C781.522 128.1 782.222 128.417 782.622 128.9C783.022 129.367 783.222 130.108 783.222 131.125C783.222 132.558 782.881 133.6 782.197 134.25C781.514 134.883 780.381 135.2 778.797 135.2C777.847 135.2 776.964 135.15 776.147 135.05C775.331 134.95 774.656 134.817 774.122 134.65V132.725C774.656 132.892 775.306 133.033 776.072 133.15C776.856 133.25 777.656 133.3 778.472 133.3C779.506 133.3 780.214 133.15 780.597 132.85C780.981 132.55 781.172 132.017 781.172 131.25C781.172 130.767 781.064 130.417 780.847 130.2C780.631 129.967 780.239 129.808 779.672 129.725L776.497 129.25C775.697 129.133 775.097 128.825 774.697 128.325C774.314 127.825 774.114 127.1 774.097 126.15C774.097 124.85 774.481 123.9 775.247 123.3C776.031 122.7 777.231 122.4 778.847 122.4C779.514 122.4 780.114 122.417 780.647 122.45C781.197 122.483 781.772 122.55 782.372 122.65V124.475C781.939 124.408 781.431 124.358 780.847 124.325C780.264 124.275 779.639 124.25 778.972 124.25ZM787.834 120.5H785.634V118.375H787.834V120.5ZM787.759 135H785.709V122.65H787.759V135ZM796.08 139.05C795.247 139.05 794.464 138.992 793.73 138.875C793.014 138.775 792.422 138.633 791.955 138.45V136.625C792.339 136.775 792.897 136.9 793.63 137C794.38 137.1 795.122 137.15 795.855 137.15C797.105 137.15 797.972 136.9 798.455 136.4C798.939 135.917 799.18 135.05 799.18 133.8V133.025C798.564 133.392 797.905 133.675 797.205 133.875C796.505 134.058 795.797 134.15 795.08 134.15C793.43 134.15 792.247 133.692 791.53 132.775C790.83 131.858 790.48 130.358 790.48 128.275C790.48 126.158 790.93 124.65 791.83 123.75C792.747 122.85 794.297 122.4 796.48 122.4C797.264 122.4 798.105 122.45 799.005 122.55C799.905 122.633 800.647 122.742 801.23 122.875V133.225C801.23 135.392 800.847 136.9 800.08 137.75C799.314 138.617 797.98 139.05 796.08 139.05ZM796.48 124.25C794.88 124.25 793.822 124.525 793.305 125.075C792.789 125.625 792.53 126.692 792.53 128.275C792.53 129.775 792.747 130.817 793.18 131.4C793.63 131.967 794.489 132.25 795.755 132.25C796.305 132.25 796.872 132.175 797.455 132.025C798.055 131.858 798.63 131.633 799.18 131.35V124.525C798.78 124.442 798.347 124.375 797.88 124.325C797.43 124.275 796.964 124.25 796.48 124.25ZM806.557 135H804.507V122.65H806.282L806.382 123.85H806.457C807.124 123.35 807.816 122.983 808.532 122.75C809.266 122.517 810.082 122.4 810.982 122.4C812.349 122.4 813.382 122.742 814.082 123.425C814.799 124.108 815.157 125.117 815.157 126.45V135H813.107V126.7C813.107 125.867 812.874 125.25 812.407 124.85C811.941 124.45 811.224 124.25 810.257 124.25C809.657 124.25 809.041 124.35 808.407 124.55C807.791 124.733 807.174 125.008 806.557 125.375V135ZM822.6 124.25C821.534 124.25 820.792 124.375 820.375 124.625C819.975 124.875 819.775 125.383 819.775 126.15C819.775 126.55 819.867 126.858 820.05 127.075C820.25 127.275 820.559 127.408 820.975 127.475L824.15 127.95C825.15 128.1 825.85 128.417 826.25 128.9C826.65 129.367 826.85 130.108 826.85 131.125C826.85 132.558 826.509 133.6 825.825 134.25C825.142 134.883 824.009 135.2 822.425 135.2C821.475 135.2 820.592 135.15 819.775 135.05C818.959 134.95 818.284 134.817 817.75 134.65V132.725C818.284 132.892 818.934 133.033 819.7 133.15C820.484 133.25 821.284 133.3 822.1 133.3C823.134 133.3 823.842 133.15 824.225 132.85C824.609 132.55 824.8 132.017 824.8 131.25C824.8 130.767 824.692 130.417 824.475 130.2C824.259 129.967 823.867 129.808 823.3 129.725L820.125 129.25C819.325 129.133 818.725 128.825 818.325 128.325C817.942 127.825 817.742 127.1 817.725 126.15C817.725 124.85 818.109 123.9 818.875 123.3C819.659 122.7 820.859 122.4 822.475 122.4C823.142 122.4 823.742 122.417 824.275 122.45C824.825 122.483 825.4 122.55 826 122.65V124.475C825.567 124.408 825.059 124.358 824.475 124.325C823.892 124.275 823.267 124.25 822.6 124.25ZM836.409 135.2C835.142 135.2 834.209 134.9 833.609 134.3C833.026 133.683 832.734 132.717 832.734 131.4C832.734 130.067 833.092 129.125 833.809 128.575C834.526 128.008 835.742 127.725 837.459 127.725C838.026 127.725 838.584 127.75 839.134 127.8C839.684 127.85 840.201 127.925 840.684 128.025V126.825C840.684 125.908 840.451 125.25 839.984 124.85C839.517 124.45 838.767 124.25 837.734 124.25C836.967 124.25 836.292 124.283 835.709 124.35C835.126 124.4 834.542 124.492 833.959 124.625V122.85C834.626 122.683 835.301 122.567 835.984 122.5C836.684 122.433 837.476 122.4 838.359 122.4C839.842 122.4 840.942 122.75 841.659 123.45C842.376 124.133 842.734 125.2 842.734 126.65V135H840.859L840.759 133.85H840.709C840.209 134.25 839.559 134.575 838.759 134.825C837.976 135.075 837.192 135.2 836.409 135.2ZM837.684 129.4C836.551 129.4 835.759 129.542 835.309 129.825C834.876 130.092 834.659 130.575 834.659 131.275C834.659 132.008 834.842 132.542 835.209 132.875C835.576 133.192 836.176 133.35 837.009 133.35C837.659 133.35 838.326 133.25 839.009 133.05C839.692 132.85 840.251 132.6 840.684 132.3V129.65C840.134 129.567 839.617 129.508 839.134 129.475C838.667 129.425 838.184 129.4 837.684 129.4ZM847.988 135H845.938V122.65H847.813L847.913 123.7H848.013C848.663 123.317 849.313 123.033 849.963 122.85C850.613 122.65 851.255 122.55 851.888 122.55C852.155 122.55 852.33 122.55 852.413 122.55C852.513 122.55 852.588 122.558 852.638 122.575V124.55C852.521 124.517 852.371 124.5 852.188 124.5C852.021 124.483 851.755 124.475 851.388 124.475C850.788 124.475 850.196 124.55 849.613 124.7C849.046 124.833 848.505 125.042 847.988 125.325V135ZM863.709 132.6V134.325C863.276 134.558 862.634 134.767 861.784 134.95C860.951 135.117 860.101 135.2 859.234 135.2C857.301 135.2 855.918 134.7 855.084 133.7C854.251 132.7 853.834 131.05 853.834 128.75C853.834 126.533 854.268 124.925 855.134 123.925C856.001 122.908 857.384 122.4 859.284 122.4C861.051 122.4 862.318 122.8 863.084 123.6C863.851 124.383 864.234 125.7 864.234 127.55C864.234 127.883 864.226 128.192 864.209 128.475C864.193 128.758 864.159 129.1 864.109 129.5H855.909C855.926 130.867 856.201 131.842 856.734 132.425C857.284 133.008 858.226 133.3 859.559 133.3C860.276 133.3 861.026 133.233 861.809 133.1C862.593 132.967 863.226 132.8 863.709 132.6ZM862.359 127.275C862.343 126.175 862.101 125.4 861.634 124.95C861.168 124.483 860.384 124.25 859.284 124.25C858.051 124.25 857.176 124.517 856.659 125.05C856.159 125.567 855.909 126.483 855.909 127.8H862.334C862.334 127.767 862.334 127.692 862.334 127.575C862.351 127.442 862.359 127.342 862.359 127.275ZM873.958 135.2C872.691 135.2 871.758 134.9 871.158 134.3C870.574 133.683 870.283 132.717 870.283 131.4C870.283 130.067 870.641 129.125 871.358 128.575C872.074 128.008 873.291 127.725 875.008 127.725C875.574 127.725 876.133 127.75 876.683 127.8C877.233 127.85 877.749 127.925 878.233 128.025V126.825C878.233 125.908 877.999 125.25 877.533 124.85C877.066 124.45 876.316 124.25 875.283 124.25C874.516 124.25 873.841 124.283 873.258 124.35C872.674 124.4 872.091 124.492 871.508 124.625V122.85C872.174 122.683 872.849 122.567 873.533 122.5C874.233 122.433 875.024 122.4 875.908 122.4C877.391 122.4 878.491 122.75 879.208 123.45C879.924 124.133 880.283 125.2 880.283 126.65V135H878.408L878.308 133.85H878.258C877.758 134.25 877.108 134.575 876.308 134.825C875.524 135.075 874.741 135.2 873.958 135.2ZM875.233 129.4C874.099 129.4 873.308 129.542 872.858 129.825C872.424 130.092 872.208 130.575 872.208 131.275C872.208 132.008 872.391 132.542 872.758 132.875C873.124 133.192 873.724 133.35 874.558 133.35C875.208 133.35 875.874 133.25 876.558 133.05C877.241 132.85 877.799 132.6 878.233 132.3V129.65C877.683 129.567 877.166 129.508 876.683 129.475C876.216 129.425 875.733 129.4 875.233 129.4ZM885.537 135H883.487V122.65H885.362L885.462 123.6H885.537C886.27 123.183 886.937 122.883 887.537 122.7C888.137 122.5 888.737 122.4 889.337 122.4C890.037 122.4 890.637 122.508 891.137 122.725C891.637 122.942 892.029 123.267 892.312 123.7H892.387C893.054 123.283 893.754 122.967 894.487 122.75C895.237 122.517 895.987 122.4 896.737 122.4C897.92 122.4 898.812 122.717 899.412 123.35C900.029 123.967 900.337 124.883 900.337 126.1V135H898.287V126.35C898.287 125.633 898.095 125.108 897.712 124.775C897.329 124.425 896.72 124.25 895.887 124.25C895.42 124.25 894.929 124.325 894.412 124.475C893.895 124.608 893.379 124.808 892.862 125.075C892.895 125.242 892.912 125.408 892.912 125.575C892.929 125.742 892.937 125.917 892.937 126.1V135H890.887V126.35C890.887 125.633 890.695 125.108 890.312 124.775C889.929 124.425 889.32 124.25 888.487 124.25C888.07 124.25 887.629 124.325 887.162 124.475C886.695 124.608 886.154 124.842 885.537 125.175V135ZM906.331 135.2C905.064 135.2 904.131 134.9 903.531 134.3C902.948 133.683 902.656 132.717 902.656 131.4C902.656 130.067 903.014 129.125 903.731 128.575C904.448 128.008 905.664 127.725 907.381 127.725C907.948 127.725 908.506 127.75 909.056 127.8C909.606 127.85 910.123 127.925 910.606 128.025V126.825C910.606 125.908 910.373 125.25 909.906 124.85C909.439 124.45 908.689 124.25 907.656 124.25C906.889 124.25 906.214 124.283 905.631 124.35C905.048 124.4 904.464 124.492 903.881 124.625V122.85C904.548 122.683 905.223 122.567 905.906 122.5C906.606 122.433 907.398 122.4 908.281 122.4C909.764 122.4 910.864 122.75 911.581 123.45C912.298 124.133 912.656 125.2 912.656 126.65V135H910.781L910.681 133.85H910.631C910.131 134.25 909.481 134.575 908.681 134.825C907.898 135.075 907.114 135.2 906.331 135.2ZM907.606 129.4C906.473 129.4 905.681 129.542 905.231 129.825C904.798 130.092 904.581 130.575 904.581 131.275C904.581 132.008 904.764 132.542 905.131 132.875C905.498 133.192 906.098 133.35 906.931 133.35C907.581 133.35 908.248 133.25 908.931 133.05C909.614 132.85 910.173 132.6 910.606 132.3V129.65C910.056 129.567 909.539 129.508 909.056 129.475C908.589 129.425 908.106 129.4 907.606 129.4ZM924.21 133.2V135H914.935V133.2L921.46 124.4H915.385V122.65H923.785V124.4L917.26 133.2H924.21ZM928.629 120.5H926.429V118.375H928.629V120.5ZM928.554 135H926.504V122.65H928.554V135ZM933.901 135H931.851V122.65H933.626L933.726 123.85H933.801C934.468 123.35 935.16 122.983 935.876 122.75C936.61 122.517 937.426 122.4 938.326 122.4C939.693 122.4 940.726 122.742 941.426 123.425C942.143 124.108 942.501 125.117 942.501 126.45V135H940.451V126.7C940.451 125.867 940.218 125.25 939.751 124.85C939.285 124.45 938.568 124.25 937.601 124.25C937.001 124.25 936.385 124.35 935.751 124.55C935.135 124.733 934.518 125.008 933.901 125.375V135ZM950.719 139.05C949.886 139.05 949.102 138.992 948.369 138.875C947.652 138.775 947.061 138.633 946.594 138.45V136.625C946.977 136.775 947.536 136.9 948.269 137C949.019 137.1 949.761 137.15 950.494 137.15C951.744 137.15 952.611 136.9 953.094 136.4C953.577 135.917 953.819 135.05 953.819 133.8V133.025C953.202 133.392 952.544 133.675 951.844 133.875C951.144 134.058 950.436 134.15 949.719 134.15C948.069 134.15 946.886 133.692 946.169 132.775C945.469 131.858 945.119 130.358 945.119 128.275C945.119 126.158 945.569 124.65 946.469 123.75C947.386 122.85 948.936 122.4 951.119 122.4C951.902 122.4 952.744 122.45 953.644 122.55C954.544 122.633 955.286 122.742 955.869 122.875V133.225C955.869 135.392 955.486 136.9 954.719 137.75C953.952 138.617 952.619 139.05 950.719 139.05ZM951.119 124.25C949.519 124.25 948.461 124.525 947.944 125.075C947.427 125.625 947.169 126.692 947.169 128.275C947.169 129.775 947.386 130.817 947.819 131.4C948.269 131.967 949.127 132.25 950.394 132.25C950.944 132.25 951.511 132.175 952.094 132.025C952.694 131.858 953.269 131.633 953.819 131.35V124.525C953.419 124.442 952.986 124.375 952.519 124.325C952.069 124.275 951.602 124.25 951.119 124.25ZM966.219 135.2C964.952 135.2 964.019 134.9 963.419 134.3C962.835 133.683 962.544 132.717 962.544 131.4C962.544 130.067 962.902 129.125 963.619 128.575C964.335 128.008 965.552 127.725 967.269 127.725C967.835 127.725 968.394 127.75 968.944 127.8C969.494 127.85 970.01 127.925 970.494 128.025V126.825C970.494 125.908 970.26 125.25 969.794 124.85C969.327 124.45 968.577 124.25 967.544 124.25C966.777 124.25 966.102 124.283 965.519 124.35C964.935 124.4 964.352 124.492 963.769 124.625V122.85C964.435 122.683 965.11 122.567 965.794 122.5C966.494 122.433 967.285 122.4 968.169 122.4C969.652 122.4 970.752 122.75 971.469 123.45C972.185 124.133 972.544 125.2 972.544 126.65V135H970.669L970.569 133.85H970.519C970.019 134.25 969.369 134.575 968.569 134.825C967.785 135.075 967.002 135.2 966.219 135.2ZM967.494 129.4C966.36 129.4 965.569 129.542 965.119 129.825C964.685 130.092 964.469 130.575 964.469 131.275C964.469 132.008 964.652 132.542 965.019 132.875C965.385 133.192 965.985 133.35 966.819 133.35C967.469 133.35 968.135 133.25 968.819 133.05C969.502 132.85 970.06 132.6 970.494 132.3V129.65C969.944 129.567 969.427 129.508 968.944 129.475C968.477 129.425 967.994 129.4 967.494 129.4ZM977.798 135H975.748V122.65H977.523L977.623 123.85H977.698C978.364 123.35 979.056 122.983 979.773 122.75C980.506 122.517 981.323 122.4 982.223 122.4C983.589 122.4 984.623 122.742 985.323 123.425C986.039 124.108 986.398 125.117 986.398 126.45V135H984.348V126.7C984.348 125.867 984.114 125.25 983.648 124.85C983.181 124.45 982.464 124.25 981.498 124.25C980.898 124.25 980.281 124.35 979.648 124.55C979.031 124.733 978.414 125.008 977.798 125.375V135ZM997.765 118.375H999.815V135H998.04L997.89 133.85H997.84C997.357 134.3 996.765 134.642 996.065 134.875C995.382 135.092 994.59 135.2 993.69 135.2C992.007 135.2 990.799 134.7 990.065 133.7C989.349 132.7 988.99 131.067 988.99 128.8C988.99 126.533 989.432 124.9 990.315 123.9C991.199 122.9 992.674 122.4 994.74 122.4C995.324 122.4 995.865 122.45 996.365 122.55C996.882 122.633 997.349 122.758 997.765 122.925V118.375ZM994.99 124.25C993.44 124.25 992.39 124.575 991.84 125.225C991.307 125.875 991.04 127.067 991.04 128.8C991.04 130.483 991.274 131.658 991.74 132.325C992.224 132.975 993.115 133.3 994.415 133.3C995.032 133.3 995.624 133.225 996.19 133.075C996.757 132.908 997.282 132.667 997.765 132.35V124.75C997.365 124.583 996.94 124.458 996.49 124.375C996.04 124.292 995.54 124.25 994.99 124.25ZM1014.22 133.075V134.8C1013.96 134.917 1013.59 135.008 1013.12 135.075C1012.67 135.158 1012.24 135.2 1011.82 135.2C1010.32 135.2 1009.25 134.867 1008.6 134.2C1007.96 133.533 1007.65 132.383 1007.65 130.75V124.4H1005.8V122.65H1007.67L1008 119.65H1009.7V122.65H1014.1V124.4H1009.7V130.675C1009.7 131.692 1009.88 132.383 1010.25 132.75C1010.63 133.117 1011.3 133.3 1012.25 133.3C1012.55 133.3 1012.89 133.275 1013.27 133.225C1013.67 133.175 1013.99 133.125 1014.22 133.075ZM1018.3 135H1016.25V118.375H1018.3V123.65C1019.05 123.233 1019.79 122.925 1020.53 122.725C1021.28 122.508 1022.02 122.4 1022.75 122.4C1024.12 122.4 1025.14 122.742 1025.83 123.425C1026.53 124.108 1026.88 125.117 1026.88 126.45V135H1024.83V126.7C1024.83 125.85 1024.6 125.233 1024.15 124.85C1023.72 124.45 1023.03 124.25 1022.1 124.25C1021.48 124.25 1020.84 124.333 1020.18 124.5C1019.53 124.667 1018.9 124.9 1018.3 125.2V135ZM1039.34 132.6V134.325C1038.91 134.558 1038.27 134.767 1037.42 134.95C1036.59 135.117 1035.74 135.2 1034.87 135.2C1032.94 135.2 1031.55 134.7 1030.72 133.7C1029.89 132.7 1029.47 131.05 1029.47 128.75C1029.47 126.533 1029.9 124.925 1030.77 123.925C1031.64 122.908 1033.02 122.4 1034.92 122.4C1036.69 122.4 1037.95 122.8 1038.72 123.6C1039.49 124.383 1039.87 125.7 1039.87 127.55C1039.87 127.883 1039.86 128.192 1039.84 128.475C1039.83 128.758 1039.79 129.1 1039.74 129.5H1031.54C1031.56 130.867 1031.84 131.842 1032.37 132.425C1032.92 133.008 1033.86 133.3 1035.19 133.3C1035.91 133.3 1036.66 133.233 1037.44 133.1C1038.23 132.967 1038.86 132.8 1039.34 132.6ZM1037.99 127.275C1037.98 126.175 1037.74 125.4 1037.27 124.95C1036.8 124.483 1036.02 124.25 1034.92 124.25C1033.69 124.25 1032.81 124.517 1032.29 125.05C1031.79 125.567 1031.54 126.483 1031.54 127.8H1037.97C1037.97 127.767 1037.97 127.692 1037.97 127.575C1037.99 127.442 1037.99 127.342 1037.99 127.275ZM1056.07 132.6V134.325C1055.63 134.558 1054.99 134.767 1054.14 134.95C1053.31 135.117 1052.46 135.2 1051.59 135.2C1049.66 135.2 1048.28 134.7 1047.44 133.7C1046.61 132.7 1046.19 131.05 1046.19 128.75C1046.19 126.533 1046.63 124.925 1047.49 123.925C1048.36 122.908 1049.74 122.4 1051.64 122.4C1053.41 122.4 1054.68 122.8 1055.44 123.6C1056.21 124.383 1056.59 125.7 1056.59 127.55C1056.59 127.883 1056.58 128.192 1056.57 128.475C1056.55 128.758 1056.52 129.1 1056.47 129.5H1048.27C1048.28 130.867 1048.56 131.842 1049.09 132.425C1049.64 133.008 1050.58 133.3 1051.92 133.3C1052.63 133.3 1053.38 133.233 1054.17 133.1C1054.95 132.967 1055.58 132.8 1056.07 132.6ZM1054.72 127.275C1054.7 126.175 1054.46 125.4 1053.99 124.95C1053.53 124.483 1052.74 124.25 1051.64 124.25C1050.41 124.25 1049.53 124.517 1049.02 125.05C1048.52 125.567 1048.27 126.483 1048.27 127.8H1054.69C1054.69 127.767 1054.69 127.692 1054.69 127.575C1054.71 127.442 1054.72 127.342 1054.72 127.275ZM1061.29 135H1059.24V122.65H1061.02L1061.12 123.85H1061.19C1061.86 123.35 1062.55 122.983 1063.27 122.75C1064 122.517 1064.82 122.4 1065.72 122.4C1067.09 122.4 1068.12 122.742 1068.82 123.425C1069.54 124.108 1069.89 125.117 1069.89 126.45V135H1067.84V126.7C1067.84 125.867 1067.61 125.25 1067.14 124.85C1066.68 124.45 1065.96 124.25 1064.99 124.25C1064.39 124.25 1063.78 124.35 1063.14 124.55C1062.53 124.733 1061.91 125.008 1061.29 125.375V135ZM1080.19 133.075V134.8C1079.92 134.917 1079.56 135.008 1079.09 135.075C1078.64 135.158 1078.21 135.2 1077.79 135.2C1076.29 135.2 1075.22 134.867 1074.57 134.2C1073.93 133.533 1073.62 132.383 1073.62 130.75V124.4H1071.77V122.65H1073.64L1073.97 119.65H1075.67V122.65H1080.07V124.4H1075.67V130.675C1075.67 131.692 1075.85 132.383 1076.22 132.75C1076.6 133.117 1077.27 133.3 1078.22 133.3C1078.52 133.3 1078.86 133.275 1079.24 133.225C1079.64 133.175 1079.96 133.125 1080.19 133.075ZM1084.34 120.5H1082.14V118.375H1084.34V120.5ZM1084.27 135H1082.22V122.65H1084.27V135ZM1089.61 135H1087.56V122.65H1089.44L1089.54 123.7H1089.64C1090.29 123.317 1090.94 123.033 1091.59 122.85C1092.24 122.65 1092.88 122.55 1093.51 122.55C1093.78 122.55 1093.96 122.55 1094.04 122.55C1094.14 122.55 1094.21 122.558 1094.26 122.575V124.55C1094.15 124.517 1094 124.5 1093.81 124.5C1093.65 124.483 1093.38 124.475 1093.01 124.475C1092.41 124.475 1091.82 124.55 1091.24 124.7C1090.67 124.833 1090.13 125.042 1089.61 125.325V135ZM1105.34 132.6V134.325C1104.9 134.558 1104.26 134.767 1103.41 134.95C1102.58 135.117 1101.73 135.2 1100.86 135.2C1098.93 135.2 1097.54 134.7 1096.71 133.7C1095.88 132.7 1095.46 131.05 1095.46 128.75C1095.46 126.533 1095.89 124.925 1096.76 123.925C1097.63 122.908 1099.01 122.4 1100.91 122.4C1102.68 122.4 1103.94 122.8 1104.71 123.6C1105.48 124.383 1105.86 125.7 1105.86 127.55C1105.86 127.883 1105.85 128.192 1105.84 128.475C1105.82 128.758 1105.79 129.1 1105.74 129.5H1097.54C1097.55 130.867 1097.83 131.842 1098.36 132.425C1098.91 133.008 1099.85 133.3 1101.19 133.3C1101.9 133.3 1102.65 133.233 1103.44 133.1C1104.22 132.967 1104.85 132.8 1105.34 132.6ZM1103.99 127.275C1103.97 126.175 1103.73 125.4 1103.26 124.95C1102.79 124.483 1102.01 124.25 1100.91 124.25C1099.68 124.25 1098.8 124.517 1098.29 125.05C1097.79 125.567 1097.54 126.483 1097.54 127.8H1103.96C1103.96 127.767 1103.96 127.692 1103.96 127.575C1103.98 127.442 1103.99 127.342 1103.99 127.275ZM1123.18 128.75V119.325H1125.31V128.75C1125.31 130.95 1124.79 132.575 1123.76 133.625C1122.74 134.675 1121.16 135.2 1119.01 135.2C1116.84 135.2 1115.26 134.692 1114.26 133.675C1113.28 132.642 1112.78 131 1112.78 128.75V119.325H1114.91V128.75C1114.91 130.4 1115.21 131.558 1115.81 132.225C1116.43 132.875 1117.49 133.2 1119.01 133.2C1120.54 133.2 1121.62 132.875 1122.23 132.225C1122.87 131.558 1123.18 130.4 1123.18 128.75ZM1130.88 119.325V135H1128.75V119.325H1130.88ZM1149.44 128.8C1149.44 131.133 1149.01 132.783 1148.14 133.75C1147.29 134.717 1145.82 135.2 1143.74 135.2C1141.59 135.2 1140.1 134.733 1139.26 133.8C1138.43 132.867 1138.01 131.2 1138.01 128.8C1138.01 126.45 1138.44 124.8 1139.29 123.85C1140.16 122.883 1141.64 122.4 1143.74 122.4C1145.89 122.4 1147.37 122.867 1148.19 123.8C1149.02 124.733 1149.44 126.4 1149.44 128.8ZM1140.06 128.775C1140.06 130.608 1140.31 131.825 1140.79 132.425C1141.27 133.008 1142.26 133.3 1143.74 133.3C1145.17 133.3 1146.14 132.992 1146.64 132.375C1147.14 131.742 1147.39 130.542 1147.39 128.775C1147.39 126.942 1147.15 125.733 1146.66 125.15C1146.2 124.55 1145.22 124.25 1143.74 124.25C1142.29 124.25 1141.31 124.558 1140.81 125.175C1140.31 125.792 1140.06 126.992 1140.06 128.775ZM1152.74 124.4H1150.89V122.65H1152.74V122.35C1152.74 120.917 1153.09 119.858 1153.79 119.175C1154.49 118.475 1155.57 118.125 1157.02 118.125C1157.38 118.125 1157.75 118.142 1158.12 118.175C1158.48 118.208 1158.83 118.258 1159.14 118.325V120.075C1158.94 120.025 1158.67 119.992 1158.32 119.975C1157.98 119.942 1157.65 119.925 1157.32 119.925C1156.37 119.925 1155.71 120.1 1155.34 120.45C1154.98 120.783 1154.79 121.4 1154.79 122.3V122.65H1158.77V124.4H1154.79V135H1152.74V124.4ZM1171.4 133.075V134.8C1171.13 134.917 1170.77 135.008 1170.3 135.075C1169.85 135.158 1169.42 135.2 1169 135.2C1167.5 135.2 1166.43 134.867 1165.78 134.2C1165.14 133.533 1164.83 132.383 1164.83 130.75V124.4H1162.98V122.65H1164.85L1165.18 119.65H1166.88V122.65H1171.28V124.4H1166.88V130.675C1166.88 131.692 1167.06 132.383 1167.43 132.75C1167.81 133.117 1168.48 133.3 1169.43 133.3C1169.73 133.3 1170.07 133.275 1170.45 133.225C1170.85 133.175 1171.17 133.125 1171.4 133.075ZM1175.48 135H1173.43V118.375H1175.48V123.65C1176.23 123.233 1176.97 122.925 1177.7 122.725C1178.45 122.508 1179.19 122.4 1179.93 122.4C1181.29 122.4 1182.32 122.742 1183 123.425C1183.7 124.108 1184.05 125.117 1184.05 126.45V135H1182V126.7C1182 125.85 1181.78 125.233 1181.33 124.85C1180.89 124.45 1180.21 124.25 1179.28 124.25C1178.66 124.25 1178.02 124.333 1177.35 124.5C1176.7 124.667 1176.08 124.9 1175.48 125.2V135ZM1196.52 132.6V134.325C1196.09 134.558 1195.45 134.767 1194.6 134.95C1193.76 135.117 1192.91 135.2 1192.05 135.2C1190.11 135.2 1188.73 134.7 1187.9 133.7C1187.06 132.7 1186.65 131.05 1186.65 128.75C1186.65 126.533 1187.08 124.925 1187.95 123.925C1188.81 122.908 1190.2 122.4 1192.1 122.4C1193.86 122.4 1195.13 122.8 1195.9 123.6C1196.66 124.383 1197.05 125.7 1197.05 127.55C1197.05 127.883 1197.04 128.192 1197.02 128.475C1197.01 128.758 1196.97 129.1 1196.92 129.5H1188.72C1188.74 130.867 1189.01 131.842 1189.55 132.425C1190.1 133.008 1191.04 133.3 1192.37 133.3C1193.09 133.3 1193.84 133.233 1194.62 133.1C1195.41 132.967 1196.04 132.8 1196.52 132.6ZM1195.17 127.275C1195.16 126.175 1194.91 125.4 1194.45 124.95C1193.98 124.483 1193.2 124.25 1192.1 124.25C1190.86 124.25 1189.99 124.517 1189.47 125.05C1188.97 125.567 1188.72 126.483 1188.72 127.8H1195.15C1195.15 127.767 1195.15 127.692 1195.15 127.575C1195.16 127.442 1195.17 127.342 1195.17 127.275ZM1217 122.65H1219.23L1215.8 135H1213.4L1210.7 125.375L1208.18 135H1205.78L1202.35 122.65H1204.6L1207 133.075L1209.68 122.65H1211.73L1214.58 133.075L1217 122.65ZM1230.46 132.6V134.325C1230.02 134.558 1229.38 134.767 1228.53 134.95C1227.7 135.117 1226.85 135.2 1225.98 135.2C1224.05 135.2 1222.67 134.7 1221.83 133.7C1221 132.7 1220.58 131.05 1220.58 128.75C1220.58 126.533 1221.02 124.925 1221.88 123.925C1222.75 122.908 1224.13 122.4 1226.03 122.4C1227.8 122.4 1229.07 122.8 1229.83 123.6C1230.6 124.383 1230.98 125.7 1230.98 127.55C1230.98 127.883 1230.97 128.192 1230.96 128.475C1230.94 128.758 1230.91 129.1 1230.86 129.5H1222.66C1222.67 130.867 1222.95 131.842 1223.48 132.425C1224.03 133.008 1224.97 133.3 1226.31 133.3C1227.02 133.3 1227.77 133.233 1228.56 133.1C1229.34 132.967 1229.97 132.8 1230.46 132.6ZM1229.11 127.275C1229.09 126.175 1228.85 125.4 1228.38 124.95C1227.92 124.483 1227.13 124.25 1226.03 124.25C1224.8 124.25 1223.92 124.517 1223.41 125.05C1222.91 125.567 1222.66 126.483 1222.66 127.8H1229.08C1229.08 127.767 1229.08 127.692 1229.08 127.575C1229.1 127.442 1229.11 127.342 1229.11 127.275ZM1239.73 122.4C1241.42 122.4 1242.62 122.9 1243.33 123.9C1244.07 124.883 1244.43 126.5 1244.43 128.75C1244.43 131.05 1243.98 132.7 1243.08 133.7C1242.18 134.7 1240.68 135.2 1238.56 135.2C1237.61 135.2 1236.72 135.142 1235.88 135.025C1235.05 134.925 1234.29 134.767 1233.61 134.55V118.375H1235.66V123.5C1236.24 123.15 1236.88 122.883 1237.58 122.7C1238.28 122.5 1239 122.4 1239.73 122.4ZM1242.38 128.75C1242.38 127.067 1242.14 125.9 1241.66 125.25C1241.19 124.583 1240.31 124.25 1239.01 124.25C1238.41 124.25 1237.82 124.333 1237.23 124.5C1236.65 124.65 1236.13 124.867 1235.66 125.15V132.975C1236.03 133.075 1236.44 133.158 1236.91 133.225C1237.38 133.275 1237.88 133.3 1238.43 133.3C1239.98 133.3 1241.03 132.975 1241.56 132.325C1242.11 131.675 1242.38 130.483 1242.38 128.75ZM1251.38 124.25C1250.32 124.25 1249.58 124.375 1249.16 124.625C1248.76 124.875 1248.56 125.383 1248.56 126.15C1248.56 126.55 1248.65 126.858 1248.83 127.075C1249.03 127.275 1249.34 127.408 1249.76 127.475L1252.93 127.95C1253.93 128.1 1254.63 128.417 1255.03 128.9C1255.43 129.367 1255.63 130.108 1255.63 131.125C1255.63 132.558 1255.29 133.6 1254.61 134.25C1253.93 134.883 1252.79 135.2 1251.21 135.2C1250.26 135.2 1249.38 135.15 1248.56 135.05C1247.74 134.95 1247.07 134.817 1246.53 134.65V132.725C1247.07 132.892 1247.72 133.033 1248.48 133.15C1249.27 133.25 1250.07 133.3 1250.88 133.3C1251.92 133.3 1252.63 133.15 1253.01 132.85C1253.39 132.55 1253.58 132.017 1253.58 131.25C1253.58 130.767 1253.48 130.417 1253.26 130.2C1253.04 129.967 1252.65 129.808 1252.08 129.725L1248.91 129.25C1248.11 129.133 1247.51 128.825 1247.11 128.325C1246.73 127.825 1246.53 127.1 1246.51 126.15C1246.51 124.85 1246.89 123.9 1247.66 123.3C1248.44 122.7 1249.64 122.4 1251.26 122.4C1251.93 122.4 1252.53 122.417 1253.06 122.45C1253.61 122.483 1254.18 122.55 1254.78 122.65V124.475C1254.35 124.408 1253.84 124.358 1253.26 124.325C1252.68 124.275 1252.05 124.25 1251.38 124.25ZM1260.25 120.5H1258.05V118.375H1260.25V120.5ZM1260.17 135H1258.12V122.65H1260.17V135ZM1270.72 133.075V134.8C1270.45 134.917 1270.08 135.008 1269.62 135.075C1269.17 135.158 1268.73 135.2 1268.32 135.2C1266.82 135.2 1265.74 134.867 1265.09 134.2C1264.46 133.533 1264.14 132.383 1264.14 130.75V124.4H1262.29V122.65H1264.17L1264.49 119.65H1266.19V122.65H1270.59V124.4H1266.19V130.675C1266.19 131.692 1266.38 132.383 1266.74 132.75C1267.13 133.117 1267.79 133.3 1268.74 133.3C1269.04 133.3 1269.38 133.275 1269.77 133.225C1270.17 133.175 1270.48 133.125 1270.72 133.075ZM1281.87 132.6V134.325C1281.44 134.558 1280.8 134.767 1279.95 134.95C1279.11 135.117 1278.26 135.2 1277.4 135.2C1275.46 135.2 1274.08 134.7 1273.25 133.7C1272.41 132.7 1272 131.05 1272 128.75C1272 126.533 1272.43 124.925 1273.3 123.925C1274.16 122.908 1275.55 122.4 1277.45 122.4C1279.21 122.4 1280.48 122.8 1281.25 123.6C1282.01 124.383 1282.4 125.7 1282.4 127.55C1282.4 127.883 1282.39 128.192 1282.37 128.475C1282.36 128.758 1282.32 129.1 1282.27 129.5H1274.07C1274.09 130.867 1274.36 131.842 1274.9 132.425C1275.45 133.008 1276.39 133.3 1277.72 133.3C1278.44 133.3 1279.19 133.233 1279.97 133.1C1280.76 132.967 1281.39 132.8 1281.87 132.6ZM1280.52 127.275C1280.51 126.175 1280.26 125.4 1279.8 124.95C1279.33 124.483 1278.55 124.25 1277.45 124.25C1276.21 124.25 1275.34 124.517 1274.82 125.05C1274.32 125.567 1274.07 126.483 1274.07 127.8H1280.5C1280.5 127.767 1280.5 127.692 1280.5 127.575C1280.51 127.442 1280.52 127.342 1280.52 127.275ZM1291.45 120.5H1289.25V118.375H1291.45V120.5ZM1291.37 135H1289.32V122.65H1291.37V135ZM1298.92 124.25C1297.85 124.25 1297.11 124.375 1296.69 124.625C1296.29 124.875 1296.09 125.383 1296.09 126.15C1296.09 126.55 1296.19 126.858 1296.37 127.075C1296.57 127.275 1296.88 127.408 1297.29 127.475L1300.47 127.95C1301.47 128.1 1302.17 128.417 1302.57 128.9C1302.97 129.367 1303.17 130.108 1303.17 131.125C1303.17 132.558 1302.83 133.6 1302.14 134.25C1301.46 134.883 1300.33 135.2 1298.74 135.2C1297.79 135.2 1296.91 135.15 1296.09 135.05C1295.28 134.95 1294.6 134.817 1294.07 134.65V132.725C1294.6 132.892 1295.25 133.033 1296.02 133.15C1296.8 133.25 1297.6 133.3 1298.42 133.3C1299.45 133.3 1300.16 133.15 1300.54 132.85C1300.93 132.55 1301.12 132.017 1301.12 131.25C1301.12 130.767 1301.01 130.417 1300.79 130.2C1300.58 129.967 1300.19 129.808 1299.62 129.725L1296.44 129.25C1295.64 129.133 1295.04 128.825 1294.64 128.325C1294.26 127.825 1294.06 127.1 1294.04 126.15C1294.04 124.85 1294.43 123.9 1295.19 123.3C1295.98 122.7 1297.18 122.4 1298.79 122.4C1299.46 122.4 1300.06 122.417 1300.59 122.45C1301.14 122.483 1301.72 122.55 1302.32 122.65V124.475C1301.89 124.408 1301.38 124.358 1300.79 124.325C1300.21 124.275 1299.59 124.25 1298.92 124.25ZM1311.98 135H1309.93V122.65H1311.7L1311.8 123.85H1311.88C1312.54 123.35 1313.24 122.983 1313.95 122.75C1314.69 122.517 1315.5 122.4 1316.4 122.4C1317.77 122.4 1318.8 122.742 1319.5 123.425C1320.22 124.108 1320.58 125.117 1320.58 126.45V135H1318.53V126.7C1318.53 125.867 1318.29 125.25 1317.83 124.85C1317.36 124.45 1316.64 124.25 1315.68 124.25C1315.08 124.25 1314.46 124.35 1313.83 124.55C1313.21 124.733 1312.59 125.008 1311.98 125.375V135ZM1333.05 132.6V134.325C1332.61 134.558 1331.97 134.767 1331.12 134.95C1330.29 135.117 1329.44 135.2 1328.57 135.2C1326.64 135.2 1325.25 134.7 1324.42 133.7C1323.59 132.7 1323.17 131.05 1323.17 128.75C1323.17 126.533 1323.6 124.925 1324.47 123.925C1325.34 122.908 1326.72 122.4 1328.62 122.4C1330.39 122.4 1331.65 122.8 1332.42 123.6C1333.19 124.383 1333.57 125.7 1333.57 127.55C1333.57 127.883 1333.56 128.192 1333.55 128.475C1333.53 128.758 1333.5 129.1 1333.45 129.5H1325.25C1325.26 130.867 1325.54 131.842 1326.07 132.425C1326.62 133.008 1327.56 133.3 1328.9 133.3C1329.61 133.3 1330.36 133.233 1331.15 133.1C1331.93 132.967 1332.56 132.8 1333.05 132.6ZM1331.7 127.275C1331.68 126.175 1331.44 125.4 1330.97 124.95C1330.5 124.483 1329.72 124.25 1328.62 124.25C1327.39 124.25 1326.51 124.517 1326 125.05C1325.5 125.567 1325.25 126.483 1325.25 127.8H1331.67C1331.67 127.767 1331.67 127.692 1331.67 127.575C1331.69 127.442 1331.7 127.342 1331.7 127.275ZM1349.52 122.65H1351.75L1348.32 135H1345.92L1343.22 125.375L1340.7 135H1338.3L1334.87 122.65H1337.12L1339.52 133.075L1342.2 122.65H1344.25L1347.1 133.075L1349.52 122.65ZM1359.76 118.375V135H1357.71V118.375H1359.76ZM1372.33 132.6V134.325C1371.89 134.558 1371.25 134.767 1370.4 134.95C1369.57 135.117 1368.72 135.2 1367.85 135.2C1365.92 135.2 1364.54 134.7 1363.7 133.7C1362.87 132.7 1362.45 131.05 1362.45 128.75C1362.45 126.533 1362.89 124.925 1363.75 123.925C1364.62 122.908 1366 122.4 1367.9 122.4C1369.67 122.4 1370.94 122.8 1371.7 123.6C1372.47 124.383 1372.85 125.7 1372.85 127.55C1372.85 127.883 1372.84 128.192 1372.83 128.475C1372.81 128.758 1372.78 129.1 1372.73 129.5H1364.53C1364.54 130.867 1364.82 131.842 1365.35 132.425C1365.9 133.008 1366.84 133.3 1368.18 133.3C1368.89 133.3 1369.64 133.233 1370.43 133.1C1371.21 132.967 1371.84 132.8 1372.33 132.6ZM1370.98 127.275C1370.96 126.175 1370.72 125.4 1370.25 124.95C1369.79 124.483 1369 124.25 1367.9 124.25C1366.67 124.25 1365.79 124.517 1365.28 125.05C1364.78 125.567 1364.53 126.483 1364.53 127.8H1370.95C1370.95 127.767 1370.95 127.692 1370.95 127.575C1370.97 127.442 1370.98 127.342 1370.98 127.275ZM1383.56 122.65H1385.81L1381.06 135H1378.71L1373.96 122.65H1376.23L1379.91 133.125L1383.56 122.65ZM1396.74 132.6V134.325C1396.31 134.558 1395.67 134.767 1394.82 134.95C1393.98 135.117 1393.13 135.2 1392.27 135.2C1390.33 135.2 1388.95 134.7 1388.12 133.7C1387.28 132.7 1386.87 131.05 1386.87 128.75C1386.87 126.533 1387.3 124.925 1388.17 123.925C1389.03 122.908 1390.42 122.4 1392.32 122.4C1394.08 122.4 1395.35 122.8 1396.12 123.6C1396.88 124.383 1397.27 125.7 1397.27 127.55C1397.27 127.883 1397.26 128.192 1397.24 128.475C1397.22 128.758 1397.19 129.1 1397.14 129.5H1388.94C1388.96 130.867 1389.23 131.842 1389.77 132.425C1390.32 133.008 1391.26 133.3 1392.59 133.3C1393.31 133.3 1394.06 133.233 1394.84 133.1C1395.62 132.967 1396.26 132.8 1396.74 132.6ZM1395.39 127.275C1395.37 126.175 1395.13 125.4 1394.67 124.95C1394.2 124.483 1393.42 124.25 1392.32 124.25C1391.08 124.25 1390.21 124.517 1389.69 125.05C1389.19 125.567 1388.94 126.483 1388.94 127.8H1395.37C1395.37 127.767 1395.37 127.692 1395.37 127.575C1395.38 127.442 1395.39 127.342 1395.39 127.275ZM1401.97 118.375V135H1399.92V118.375H1401.97ZM1406.81 135H1404.76V132.925H1406.81V135ZM702.925 165H700.8V149.325H702.925V156.075H711.125V149.325H713.25V165H711.125V158.025H702.925V165ZM719.49 165.2C718.223 165.2 717.29 164.9 716.69 164.3C716.107 163.683 715.815 162.717 715.815 161.4C715.815 160.067 716.173 159.125 716.89 158.575C717.607 158.008 718.823 157.725 720.54 157.725C721.107 157.725 721.665 157.75 722.215 157.8C722.765 157.85 723.282 157.925 723.765 158.025V156.825C723.765 155.908 723.532 155.25 723.065 154.85C722.598 154.45 721.848 154.25 720.815 154.25C720.048 154.25 719.373 154.283 718.79 154.35C718.207 154.4 717.623 154.492 717.04 154.625V152.85C717.707 152.683 718.382 152.567 719.065 152.5C719.765 152.433 720.557 152.4 721.44 152.4C722.923 152.4 724.023 152.75 724.74 153.45C725.457 154.133 725.815 155.2 725.815 156.65V165H723.94L723.84 163.85H723.79C723.29 164.25 722.64 164.575 721.84 164.825C721.057 165.075 720.273 165.2 719.49 165.2ZM720.765 159.4C719.632 159.4 718.84 159.542 718.39 159.825C717.957 160.092 717.74 160.575 717.74 161.275C717.74 162.008 717.923 162.542 718.29 162.875C718.657 163.192 719.257 163.35 720.09 163.35C720.74 163.35 721.407 163.25 722.09 163.05C722.773 162.85 723.332 162.6 723.765 162.3V159.65C723.215 159.567 722.698 159.508 722.215 159.475C721.748 159.425 721.265 159.4 720.765 159.4ZM731.069 168.8H729.019V152.65H730.794L730.919 153.75H730.994C731.511 153.317 732.127 152.983 732.844 152.75C733.561 152.517 734.327 152.4 735.144 152.4C736.827 152.4 738.027 152.9 738.744 153.9C739.477 154.9 739.844 156.533 739.844 158.8C739.844 161.067 739.402 162.7 738.519 163.7C737.636 164.7 736.161 165.2 734.094 165.2C733.477 165.2 732.911 165.158 732.394 165.075C731.894 164.992 731.452 164.867 731.069 164.7V168.8ZM737.794 158.8C737.794 157.1 737.552 155.917 737.069 155.25C736.602 154.583 735.719 154.25 734.419 154.25C733.802 154.25 733.211 154.342 732.644 154.525C732.094 154.692 731.569 154.942 731.069 155.275V162.8C731.486 162.967 731.911 163.092 732.344 163.175C732.794 163.258 733.294 163.3 733.844 163.3C735.394 163.3 736.436 162.983 736.969 162.35C737.519 161.7 737.794 160.517 737.794 158.8ZM744.595 168.8H742.545V152.65H744.32L744.445 153.75H744.52C745.036 153.317 745.653 152.983 746.37 152.75C747.086 152.517 747.853 152.4 748.67 152.4C750.353 152.4 751.553 152.9 752.27 153.9C753.003 154.9 753.37 156.533 753.37 158.8C753.37 161.067 752.928 162.7 752.045 163.7C751.161 164.7 749.686 165.2 747.62 165.2C747.003 165.2 746.436 165.158 745.92 165.075C745.42 164.992 744.978 164.867 744.595 164.7V168.8ZM751.32 158.8C751.32 157.1 751.078 155.917 750.595 155.25C750.128 154.583 749.245 154.25 747.945 154.25C747.328 154.25 746.736 154.342 746.17 154.525C745.62 154.692 745.095 154.942 744.595 155.275V162.8C745.011 162.967 745.436 163.092 745.87 163.175C746.32 163.258 746.82 163.3 747.37 163.3C748.92 163.3 749.961 162.983 750.495 162.35C751.045 161.7 751.32 160.517 751.32 158.8ZM758.195 150.5H755.995V148.375H758.195V150.5ZM758.12 165H756.07V152.65H758.12V165ZM763.467 148.375V165H761.417V148.375H763.467ZM767.888 167.2C768.522 167.2 768.997 167.058 769.313 166.775C769.647 166.508 769.997 165.858 770.363 164.825L765.313 152.65H767.613L771.413 162.775L775.013 152.65H777.213L772.163 165.825C771.713 167.025 771.188 167.858 770.588 168.325C769.988 168.808 769.213 169.05 768.263 169.05C767.98 169.05 767.68 169.033 767.363 169C767.063 168.967 766.763 168.925 766.463 168.875V167.075C766.647 167.125 766.847 167.158 767.063 167.175C767.297 167.192 767.572 167.2 767.888 167.2ZM787.175 154.25C786.109 154.25 785.367 154.375 784.95 154.625C784.55 154.875 784.35 155.383 784.35 156.15C784.35 156.55 784.442 156.858 784.625 157.075C784.825 157.275 785.134 157.408 785.55 157.475L788.725 157.95C789.725 158.1 790.425 158.417 790.825 158.9C791.225 159.367 791.425 160.108 791.425 161.125C791.425 162.558 791.084 163.6 790.4 164.25C789.717 164.883 788.584 165.2 787 165.2C786.05 165.2 785.167 165.15 784.35 165.05C783.534 164.95 782.859 164.817 782.325 164.65V162.725C782.859 162.892 783.509 163.033 784.275 163.15C785.059 163.25 785.859 163.3 786.675 163.3C787.709 163.3 788.417 163.15 788.8 162.85C789.184 162.55 789.375 162.017 789.375 161.25C789.375 160.767 789.267 160.417 789.05 160.2C788.834 159.967 788.442 159.808 787.875 159.725L784.7 159.25C783.9 159.133 783.3 158.825 782.9 158.325C782.517 157.825 782.317 157.1 782.3 156.15C782.3 154.85 782.684 153.9 783.45 153.3C784.234 152.7 785.434 152.4 787.05 152.4C787.717 152.4 788.317 152.417 788.85 152.45C789.4 152.483 789.975 152.55 790.575 152.65V154.475C790.142 154.408 789.634 154.358 789.05 154.325C788.467 154.275 787.842 154.25 787.175 154.25ZM796.712 165.2C795.445 165.2 794.512 164.9 793.912 164.3C793.328 163.683 793.037 162.717 793.037 161.4C793.037 160.067 793.395 159.125 794.112 158.575C794.828 158.008 796.045 157.725 797.762 157.725C798.328 157.725 798.887 157.75 799.437 157.8C799.987 157.85 800.503 157.925 800.987 158.025V156.825C800.987 155.908 800.753 155.25 800.287 154.85C799.82 154.45 799.07 154.25 798.037 154.25C797.27 154.25 796.595 154.283 796.012 154.35C795.428 154.4 794.845 154.492 794.262 154.625V152.85C794.928 152.683 795.603 152.567 796.287 152.5C796.987 152.433 797.778 152.4 798.662 152.4C800.145 152.4 801.245 152.75 801.962 153.45C802.678 154.133 803.037 155.2 803.037 156.65V165H801.162L801.062 163.85H801.012C800.512 164.25 799.862 164.575 799.062 164.825C798.278 165.075 797.495 165.2 796.712 165.2ZM797.987 159.4C796.853 159.4 796.062 159.542 795.612 159.825C795.178 160.092 794.962 160.575 794.962 161.275C794.962 162.008 795.145 162.542 795.512 162.875C795.878 163.192 796.478 163.35 797.312 163.35C797.962 163.35 798.628 163.25 799.312 163.05C799.995 162.85 800.553 162.6 800.987 162.3V159.65C800.437 159.567 799.92 159.508 799.437 159.475C798.97 159.425 798.487 159.4 797.987 159.4ZM813.344 163.075V164.8C813.078 164.917 812.711 165.008 812.244 165.075C811.794 165.158 811.361 165.2 810.944 165.2C809.444 165.2 808.369 164.867 807.719 164.2C807.086 163.533 806.769 162.383 806.769 160.75V154.4H804.919V152.65H806.794L807.119 149.65H808.819V152.65H813.219V154.4H808.819V160.675C808.819 161.692 809.003 162.383 809.369 162.75C809.753 163.117 810.419 163.3 811.369 163.3C811.669 163.3 812.011 163.275 812.394 163.225C812.794 163.175 813.111 163.125 813.344 163.075ZM817.497 150.5H815.297V148.375H817.497V150.5ZM817.422 165H815.372V152.65H817.422V165ZM824.968 154.25C823.902 154.25 823.16 154.375 822.743 154.625C822.343 154.875 822.143 155.383 822.143 156.15C822.143 156.55 822.235 156.858 822.418 157.075C822.618 157.275 822.927 157.408 823.343 157.475L826.518 157.95C827.518 158.1 828.218 158.417 828.618 158.9C829.018 159.367 829.218 160.108 829.218 161.125C829.218 162.558 828.877 163.6 828.193 164.25C827.51 164.883 826.377 165.2 824.793 165.2C823.843 165.2 822.96 165.15 822.143 165.05C821.327 164.95 820.652 164.817 820.118 164.65V162.725C820.652 162.892 821.302 163.033 822.068 163.15C822.852 163.25 823.652 163.3 824.468 163.3C825.502 163.3 826.21 163.15 826.593 162.85C826.977 162.55 827.168 162.017 827.168 161.25C827.168 160.767 827.06 160.417 826.843 160.2C826.627 159.967 826.235 159.808 825.668 159.725L822.493 159.25C821.693 159.133 821.093 158.825 820.693 158.325C820.31 157.825 820.11 157.1 820.093 156.15C820.093 154.85 820.477 153.9 821.243 153.3C822.027 152.7 823.227 152.4 824.843 152.4C825.51 152.4 826.11 152.417 826.643 152.45C827.193 152.483 827.768 152.55 828.368 152.65V154.475C827.935 154.408 827.427 154.358 826.843 154.325C826.26 154.275 825.635 154.25 824.968 154.25ZM832.308 154.4H830.458V152.65H832.308V152.35C832.308 150.917 832.624 149.858 833.258 149.175C833.891 148.475 834.849 148.125 836.133 148.125C836.433 148.125 836.716 148.142 836.983 148.175C837.266 148.192 837.583 148.242 837.933 148.325V150.075C837.749 150.025 837.524 149.992 837.258 149.975C837.008 149.942 836.758 149.925 836.508 149.925C835.724 149.925 835.166 150.1 834.833 150.45C834.516 150.8 834.358 151.417 834.358 152.3V152.65H837.558V154.4H834.358V165H832.308V154.4ZM842.308 150.5H840.108V148.375H842.308V150.5ZM842.233 165H840.183V152.65H842.233V165ZM854.798 162.6V164.325C854.365 164.558 853.723 164.767 852.873 164.95C852.04 165.117 851.19 165.2 850.323 165.2C848.39 165.2 847.006 164.7 846.173 163.7C845.34 162.7 844.923 161.05 844.923 158.75C844.923 156.533 845.356 154.925 846.223 153.925C847.09 152.908 848.473 152.4 850.373 152.4C852.14 152.4 853.406 152.8 854.173 153.6C854.94 154.383 855.323 155.7 855.323 157.55C855.323 157.883 855.315 158.192 855.298 158.475C855.281 158.758 855.248 159.1 855.198 159.5H846.998C847.015 160.867 847.29 161.842 847.823 162.425C848.373 163.008 849.315 163.3 850.648 163.3C851.365 163.3 852.115 163.233 852.898 163.1C853.681 162.967 854.315 162.8 854.798 162.6ZM853.448 157.275C853.431 156.175 853.19 155.4 852.723 154.95C852.256 154.483 851.473 154.25 850.373 154.25C849.14 154.25 848.265 154.517 847.748 155.05C847.248 155.567 846.998 156.483 846.998 157.8H853.423C853.423 157.767 853.423 157.692 853.423 157.575C853.44 157.442 853.448 157.342 853.448 157.275ZM866.149 148.375H868.199V165H866.424L866.274 163.85H866.224C865.741 164.3 865.149 164.642 864.449 164.875C863.766 165.092 862.974 165.2 862.074 165.2C860.391 165.2 859.183 164.7 858.449 163.7C857.733 162.7 857.374 161.067 857.374 158.8C857.374 156.533 857.816 154.9 858.699 153.9C859.583 152.9 861.058 152.4 863.124 152.4C863.708 152.4 864.249 152.45 864.749 152.55C865.266 152.633 865.733 152.758 866.149 152.925V148.375ZM863.374 154.25C861.824 154.25 860.774 154.575 860.224 155.225C859.691 155.875 859.424 157.067 859.424 158.8C859.424 160.483 859.658 161.658 860.124 162.325C860.608 162.975 861.499 163.3 862.799 163.3C863.416 163.3 864.008 163.225 864.574 163.075C865.141 162.908 865.666 162.667 866.149 162.35V154.75C865.749 154.583 865.324 154.458 864.874 154.375C864.424 154.292 863.924 154.25 863.374 154.25ZM888.806 152.65H891.031L887.606 165H885.206L882.506 155.375L879.981 165H877.581L874.156 152.65H876.406L878.806 163.075L881.481 152.65H883.531L886.381 163.075L888.806 152.65ZM895.231 150.5H893.031V148.375H895.231V150.5ZM895.156 165H893.106V152.65H895.156V165ZM905.703 163.075V164.8C905.436 164.917 905.069 165.008 904.603 165.075C904.153 165.158 903.719 165.2 903.303 165.2C901.803 165.2 900.728 164.867 900.078 164.2C899.444 163.533 899.128 162.383 899.128 160.75V154.4H897.278V152.65H899.153L899.478 149.65H901.178V152.65H905.578V154.4H901.178V160.675C901.178 161.692 901.361 162.383 901.728 162.75C902.111 163.117 902.778 163.3 903.728 163.3C904.028 163.3 904.369 163.275 904.753 163.225C905.153 163.175 905.469 163.125 905.703 163.075ZM909.78 165H907.73V148.375H909.78V153.65C910.53 153.233 911.272 152.925 912.005 152.725C912.755 152.508 913.497 152.4 914.23 152.4C915.597 152.4 916.622 152.742 917.305 153.425C918.005 154.108 918.355 155.117 918.355 156.45V165H916.305V156.7C916.305 155.85 916.08 155.233 915.63 154.85C915.197 154.45 914.513 154.25 913.58 154.25C912.963 154.25 912.322 154.333 911.655 154.5C911.005 154.667 910.38 154.9 909.78 155.2V165ZM932.656 163.075V164.8C932.389 164.917 932.023 165.008 931.556 165.075C931.106 165.158 930.673 165.2 930.256 165.2C928.756 165.2 927.681 164.867 927.031 164.2C926.398 163.533 926.081 162.383 926.081 160.75V154.4H924.231V152.65H926.106L926.431 149.65H928.131V152.65H932.531V154.4H928.131V160.675C928.131 161.692 928.314 162.383 928.681 162.75C929.064 163.117 929.731 163.3 930.681 163.3C930.981 163.3 931.323 163.275 931.706 163.225C932.106 163.175 932.423 163.125 932.656 163.075ZM936.733 165H934.683V148.375H936.733V153.65C937.483 153.233 938.225 152.925 938.958 152.725C939.708 152.508 940.45 152.4 941.183 152.4C942.55 152.4 943.575 152.742 944.258 153.425C944.958 154.108 945.308 155.117 945.308 156.45V165H943.258V156.7C943.258 155.85 943.033 155.233 942.583 154.85C942.15 154.45 941.467 154.25 940.533 154.25C939.917 154.25 939.275 154.333 938.608 154.5C937.958 154.667 937.333 154.9 936.733 155.2V165ZM957.777 162.6V164.325C957.343 164.558 956.702 164.767 955.852 164.95C955.018 165.117 954.168 165.2 953.302 165.2C951.368 165.2 949.985 164.7 949.152 163.7C948.318 162.7 947.902 161.05 947.902 158.75C947.902 156.533 948.335 154.925 949.202 153.925C950.068 152.908 951.452 152.4 953.352 152.4C955.118 152.4 956.385 152.8 957.152 153.6C957.918 154.383 958.302 155.7 958.302 157.55C958.302 157.883 958.293 158.192 958.277 158.475C958.26 158.758 958.227 159.1 958.177 159.5H949.977C949.993 160.867 950.268 161.842 950.802 162.425C951.352 163.008 952.293 163.3 953.627 163.3C954.343 163.3 955.093 163.233 955.877 163.1C956.66 162.967 957.293 162.8 957.777 162.6ZM956.427 157.275C956.41 156.175 956.168 155.4 955.702 154.95C955.235 154.483 954.452 154.25 953.352 154.25C952.118 154.25 951.243 154.517 950.727 155.05C950.227 155.567 949.977 156.483 949.977 157.8H956.402C956.402 157.767 956.402 157.692 956.402 157.575C956.418 157.442 956.427 157.342 956.427 157.275ZM969.475 154.25C968.409 154.25 967.667 154.375 967.25 154.625C966.85 154.875 966.65 155.383 966.65 156.15C966.65 156.55 966.742 156.858 966.925 157.075C967.125 157.275 967.434 157.408 967.85 157.475L971.025 157.95C972.025 158.1 972.725 158.417 973.125 158.9C973.525 159.367 973.725 160.108 973.725 161.125C973.725 162.558 973.384 163.6 972.7 164.25C972.017 164.883 970.884 165.2 969.3 165.2C968.35 165.2 967.467 165.15 966.65 165.05C965.834 164.95 965.159 164.817 964.625 164.65V162.725C965.159 162.892 965.809 163.033 966.575 163.15C967.359 163.25 968.159 163.3 968.975 163.3C970.009 163.3 970.717 163.15 971.1 162.85C971.484 162.55 971.675 162.017 971.675 161.25C971.675 160.767 971.567 160.417 971.35 160.2C971.134 159.967 970.742 159.808 970.175 159.725L967 159.25C966.2 159.133 965.6 158.825 965.2 158.325C964.817 157.825 964.617 157.1 964.6 156.15C964.6 154.85 964.984 153.9 965.75 153.3C966.534 152.7 967.734 152.4 969.35 152.4C970.017 152.4 970.617 152.417 971.15 152.45C971.7 152.483 972.275 152.55 972.875 152.65V154.475C972.442 154.408 971.934 154.358 971.35 154.325C970.767 154.275 970.142 154.25 969.475 154.25ZM985.487 162.6V164.325C985.053 164.558 984.412 164.767 983.562 164.95C982.728 165.117 981.878 165.2 981.012 165.2C979.078 165.2 977.695 164.7 976.862 163.7C976.028 162.7 975.612 161.05 975.612 158.75C975.612 156.533 976.045 154.925 976.912 153.925C977.778 152.908 979.162 152.4 981.062 152.4C982.828 152.4 984.095 152.8 984.862 153.6C985.628 154.383 986.012 155.7 986.012 157.55C986.012 157.883 986.003 158.192 985.987 158.475C985.97 158.758 985.937 159.1 985.887 159.5H977.687C977.703 160.867 977.978 161.842 978.512 162.425C979.062 163.008 980.003 163.3 981.337 163.3C982.053 163.3 982.803 163.233 983.587 163.1C984.37 162.967 985.003 162.8 985.487 162.6ZM984.137 157.275C984.12 156.175 983.878 155.4 983.412 154.95C982.945 154.483 982.162 154.25 981.062 154.25C979.828 154.25 978.953 154.517 978.437 155.05C977.937 155.567 977.687 156.483 977.687 157.8H984.112C984.112 157.767 984.112 157.692 984.112 157.575C984.128 157.442 984.137 157.342 984.137 157.275ZM990.713 165H988.663V152.65H990.538L990.638 153.7H990.738C991.388 153.317 992.038 153.033 992.688 152.85C993.338 152.65 993.979 152.55 994.613 152.55C994.879 152.55 995.054 152.55 995.138 152.55C995.238 152.55 995.313 152.558 995.363 152.575V154.55C995.246 154.517 995.096 154.5 994.913 154.5C994.746 154.483 994.479 154.475 994.113 154.475C993.513 154.475 992.921 154.55 992.338 154.7C991.771 154.833 991.229 155.042 990.713 155.325V165ZM1005.68 152.65H1007.93L1003.18 165H1000.83L996.076 152.65H998.351L1002.03 163.125L1005.68 152.65ZM1011.95 150.5H1009.75V148.375H1011.95V150.5ZM1011.88 165H1009.83V152.65H1011.88V165ZM1023.8 162.55V164.275C1023.38 164.542 1022.76 164.767 1021.93 164.95C1021.11 165.117 1020.25 165.2 1019.35 165.2C1017.6 165.2 1016.37 164.725 1015.65 163.775C1014.95 162.825 1014.6 161.167 1014.6 158.8C1014.6 156.483 1015.06 154.842 1015.98 153.875C1016.89 152.892 1018.45 152.4 1020.65 152.4C1021.13 152.4 1021.57 152.417 1021.95 152.45C1022.35 152.467 1022.86 152.517 1023.48 152.6V154.425C1022.86 154.342 1022.35 154.292 1021.95 154.275C1021.57 154.258 1021.13 154.25 1020.65 154.25C1019.08 154.25 1018.03 154.575 1017.48 155.225C1016.93 155.858 1016.65 157.05 1016.65 158.8C1016.65 160.55 1016.87 161.742 1017.3 162.375C1017.73 162.992 1018.57 163.3 1019.8 163.3C1020.48 163.3 1021.19 163.233 1021.93 163.1C1022.66 162.95 1023.28 162.767 1023.8 162.55ZM1035.34 162.6V164.325C1034.91 164.558 1034.27 164.767 1033.42 164.95C1032.58 165.117 1031.73 165.2 1030.87 165.2C1028.93 165.2 1027.55 164.7 1026.72 163.7C1025.88 162.7 1025.47 161.05 1025.47 158.75C1025.47 156.533 1025.9 154.925 1026.77 153.925C1027.63 152.908 1029.02 152.4 1030.92 152.4C1032.68 152.4 1033.95 152.8 1034.72 153.6C1035.48 154.383 1035.87 155.7 1035.87 157.55C1035.87 157.883 1035.86 158.192 1035.84 158.475C1035.82 158.758 1035.79 159.1 1035.74 159.5H1027.54C1027.56 160.867 1027.83 161.842 1028.37 162.425C1028.92 163.008 1029.86 163.3 1031.19 163.3C1031.91 163.3 1032.66 163.233 1033.44 163.1C1034.22 162.967 1034.86 162.8 1035.34 162.6ZM1033.99 157.275C1033.97 156.175 1033.73 155.4 1033.27 154.95C1032.8 154.483 1032.02 154.25 1030.92 154.25C1029.68 154.25 1028.81 154.517 1028.29 155.05C1027.79 155.567 1027.54 156.483 1027.54 157.8H1033.97C1033.97 157.767 1033.97 157.692 1033.97 157.575C1033.98 157.442 1033.99 157.342 1033.99 157.275ZM1040.07 165H1038.02V162.925H1040.07V165ZM1057.33 149.325V151.25H1052.13V165H1050.01V151.25H1044.81V149.325H1057.33ZM1061.42 165H1059.37V148.375H1061.42V153.65C1062.17 153.233 1062.91 152.925 1063.64 152.725C1064.39 152.508 1065.13 152.4 1065.87 152.4C1067.23 152.4 1068.26 152.742 1068.94 153.425C1069.64 154.108 1069.99 155.117 1069.99 156.45V165H1067.94V156.7C1067.94 155.85 1067.72 155.233 1067.27 154.85C1066.83 154.45 1066.15 154.25 1065.22 154.25C1064.6 154.25 1063.96 154.333 1063.29 154.5C1062.64 154.667 1062.02 154.9 1061.42 155.2V165ZM1082.46 162.6V164.325C1082.03 164.558 1081.38 164.767 1080.53 164.95C1079.7 165.117 1078.85 165.2 1077.98 165.2C1076.05 165.2 1074.67 164.7 1073.83 163.7C1073 162.7 1072.58 161.05 1072.58 158.75C1072.58 156.533 1073.02 154.925 1073.88 153.925C1074.75 152.908 1076.13 152.4 1078.03 152.4C1079.8 152.4 1081.07 152.8 1081.83 153.6C1082.6 154.383 1082.98 155.7 1082.98 157.55C1082.98 157.883 1082.98 158.192 1082.96 158.475C1082.94 158.758 1082.91 159.1 1082.86 159.5H1074.66C1074.68 160.867 1074.95 161.842 1075.48 162.425C1076.03 163.008 1076.98 163.3 1078.31 163.3C1079.03 163.3 1079.78 163.233 1080.56 163.1C1081.34 162.967 1081.98 162.8 1082.46 162.6ZM1081.11 157.275C1081.09 156.175 1080.85 155.4 1080.38 154.95C1079.92 154.483 1079.13 154.25 1078.03 154.25C1076.8 154.25 1075.93 154.517 1075.41 155.05C1074.91 155.567 1074.66 156.483 1074.66 157.8H1081.08C1081.08 157.767 1081.08 157.692 1081.08 157.575C1081.1 157.442 1081.11 157.342 1081.11 157.275ZM1099.66 163V165H1090.06V149.325H1092.18V163H1099.66ZM1112.43 158.8C1112.43 161.133 1111.99 162.783 1111.13 163.75C1110.28 164.717 1108.81 165.2 1106.73 165.2C1104.58 165.2 1103.09 164.733 1102.25 163.8C1101.42 162.867 1101 161.2 1101 158.8C1101 156.45 1101.43 154.8 1102.28 153.85C1103.14 152.883 1104.63 152.4 1106.73 152.4C1108.88 152.4 1110.36 152.867 1111.18 153.8C1112.01 154.733 1112.43 156.4 1112.43 158.8ZM1103.05 158.775C1103.05 160.608 1103.29 161.825 1103.78 162.425C1104.26 163.008 1105.24 163.3 1106.73 163.3C1108.16 163.3 1109.13 162.992 1109.63 162.375C1110.13 161.742 1110.38 160.542 1110.38 158.775C1110.38 156.942 1110.14 155.733 1109.65 155.15C1109.19 154.55 1108.21 154.25 1106.73 154.25C1105.28 154.25 1104.3 154.558 1103.8 155.175C1103.3 155.792 1103.05 156.992 1103.05 158.775ZM1120.18 169.05C1119.34 169.05 1118.56 168.992 1117.83 168.875C1117.11 168.775 1116.52 168.633 1116.05 168.45V166.625C1116.44 166.775 1116.99 166.9 1117.73 167C1118.48 167.1 1119.22 167.15 1119.95 167.15C1121.2 167.15 1122.07 166.9 1122.55 166.4C1123.04 165.917 1123.28 165.05 1123.28 163.8V163.025C1122.66 163.392 1122 163.675 1121.3 163.875C1120.6 164.058 1119.89 164.15 1119.18 164.15C1117.53 164.15 1116.34 163.692 1115.63 162.775C1114.93 161.858 1114.58 160.358 1114.58 158.275C1114.58 156.158 1115.03 154.65 1115.93 153.75C1116.84 152.85 1118.39 152.4 1120.58 152.4C1121.36 152.4 1122.2 152.45 1123.1 152.55C1124 152.633 1124.74 152.742 1125.33 152.875V163.225C1125.33 165.392 1124.94 166.9 1124.18 167.75C1123.41 168.617 1122.08 169.05 1120.18 169.05ZM1120.58 154.25C1118.98 154.25 1117.92 154.525 1117.4 155.075C1116.89 155.625 1116.63 156.692 1116.63 158.275C1116.63 159.775 1116.84 160.817 1117.28 161.4C1117.73 161.967 1118.59 162.25 1119.85 162.25C1120.4 162.25 1120.97 162.175 1121.55 162.025C1122.15 161.858 1122.73 161.633 1123.28 161.35V154.525C1122.88 154.442 1122.44 154.375 1121.98 154.325C1121.53 154.275 1121.06 154.25 1120.58 154.25ZM1139.45 158.8C1139.45 161.133 1139.02 162.783 1138.15 163.75C1137.3 164.717 1135.84 165.2 1133.75 165.2C1131.6 165.2 1130.11 164.733 1129.28 163.8C1128.45 162.867 1128.03 161.2 1128.03 158.8C1128.03 156.45 1128.45 154.8 1129.3 153.85C1130.17 152.883 1131.65 152.4 1133.75 152.4C1135.9 152.4 1137.39 152.867 1138.2 153.8C1139.04 154.733 1139.45 156.4 1139.45 158.8ZM1130.08 158.775C1130.08 160.608 1130.32 161.825 1130.8 162.425C1131.29 163.008 1132.27 163.3 1133.75 163.3C1135.19 163.3 1136.15 162.992 1136.65 162.375C1137.15 161.742 1137.4 160.542 1137.4 158.775C1137.4 156.942 1137.16 155.733 1136.68 155.15C1136.21 154.55 1135.24 154.25 1133.75 154.25C1132.3 154.25 1131.33 154.558 1130.83 155.175C1130.33 155.792 1130.08 156.992 1130.08 158.775ZM1159.49 152.65H1161.71L1158.29 165H1155.89L1153.19 155.375L1150.66 165H1148.26L1144.84 152.65H1147.09L1149.49 163.075L1152.16 152.65H1154.21L1157.06 163.075L1159.49 152.65ZM1165.83 165H1163.78V148.375H1165.83V153.65C1166.58 153.233 1167.33 152.925 1168.06 152.725C1168.81 152.508 1169.55 152.4 1170.28 152.4C1171.65 152.4 1172.68 152.742 1173.36 153.425C1174.06 154.108 1174.41 155.117 1174.41 156.45V165H1172.36V156.7C1172.36 155.85 1172.13 155.233 1171.68 154.85C1171.25 154.45 1170.57 154.25 1169.63 154.25C1169.02 154.25 1168.38 154.333 1167.71 154.5C1167.06 154.667 1166.43 154.9 1165.83 155.2V165ZM1179.73 150.5H1177.53V148.375H1179.73V150.5ZM1179.65 165H1177.6V152.65H1179.65V165ZM1191.57 162.55V164.275C1191.16 164.542 1190.53 164.767 1189.7 164.95C1188.88 165.117 1188.02 165.2 1187.12 165.2C1185.37 165.2 1184.14 164.725 1183.42 163.775C1182.72 162.825 1182.37 161.167 1182.37 158.8C1182.37 156.483 1182.83 154.842 1183.75 153.875C1184.67 152.892 1186.22 152.4 1188.42 152.4C1188.91 152.4 1189.34 152.417 1189.72 152.45C1190.12 152.467 1190.63 152.517 1191.25 152.6V154.425C1190.63 154.342 1190.12 154.292 1189.72 154.275C1189.34 154.258 1188.91 154.25 1188.42 154.25C1186.86 154.25 1185.8 154.575 1185.25 155.225C1184.7 155.858 1184.42 157.05 1184.42 158.8C1184.42 160.55 1184.64 161.742 1185.07 162.375C1185.51 162.992 1186.34 163.3 1187.57 163.3C1188.26 163.3 1188.97 163.233 1189.7 163.1C1190.43 162.95 1191.06 162.767 1191.57 162.55ZM1195.99 165H1193.94V148.375H1195.99V153.65C1196.74 153.233 1197.48 152.925 1198.21 152.725C1198.96 152.508 1199.7 152.4 1200.44 152.4C1201.8 152.4 1202.83 152.742 1203.51 153.425C1204.21 154.108 1204.56 155.117 1204.56 156.45V165H1202.51V156.7C1202.51 155.85 1202.29 155.233 1201.84 154.85C1201.4 154.45 1200.72 154.25 1199.79 154.25C1199.17 154.25 1198.53 154.333 1197.86 154.5C1197.21 154.667 1196.59 154.9 1195.99 155.2V165ZM1218.86 163.075V164.8C1218.6 164.917 1218.23 165.008 1217.76 165.075C1217.31 165.158 1216.88 165.2 1216.46 165.2C1214.96 165.2 1213.89 164.867 1213.24 164.2C1212.6 163.533 1212.29 162.383 1212.29 160.75V154.4H1210.44V152.65H1212.31L1212.64 149.65H1214.34V152.65H1218.74V154.4H1214.34V160.675C1214.34 161.692 1214.52 162.383 1214.89 162.75C1215.27 163.117 1215.94 163.3 1216.89 163.3C1217.19 163.3 1217.53 163.275 1217.91 163.225C1218.31 163.175 1218.63 163.125 1218.86 163.075ZM1222.94 165H1220.89V148.375H1222.94V153.65C1223.69 153.233 1224.43 152.925 1225.16 152.725C1225.91 152.508 1226.66 152.4 1227.39 152.4C1228.76 152.4 1229.78 152.742 1230.46 153.425C1231.16 154.108 1231.51 155.117 1231.51 156.45V165H1229.46V156.7C1229.46 155.85 1229.24 155.233 1228.79 154.85C1228.36 154.45 1227.67 154.25 1226.74 154.25C1226.12 154.25 1225.48 154.333 1224.81 154.5C1224.16 154.667 1223.54 154.9 1222.94 155.2V165ZM1243.98 162.6V164.325C1243.55 164.558 1242.91 164.767 1242.06 164.95C1241.22 165.117 1240.37 165.2 1239.51 165.2C1237.57 165.2 1236.19 164.7 1235.36 163.7C1234.52 162.7 1234.11 161.05 1234.11 158.75C1234.11 156.533 1234.54 154.925 1235.41 153.925C1236.27 152.908 1237.66 152.4 1239.56 152.4C1241.32 152.4 1242.59 152.8 1243.36 153.6C1244.12 154.383 1244.51 155.7 1244.51 157.55C1244.51 157.883 1244.5 158.192 1244.48 158.475C1244.47 158.758 1244.43 159.1 1244.38 159.5H1236.18C1236.2 160.867 1236.47 161.842 1237.01 162.425C1237.56 163.008 1238.5 163.3 1239.83 163.3C1240.55 163.3 1241.3 163.233 1242.08 163.1C1242.87 162.967 1243.5 162.8 1243.98 162.6ZM1242.63 157.275C1242.62 156.175 1242.37 155.4 1241.91 154.95C1241.44 154.483 1240.66 154.25 1239.56 154.25C1238.32 154.25 1237.45 154.517 1236.93 155.05C1236.43 155.567 1236.18 156.483 1236.18 157.8H1242.61C1242.61 157.767 1242.61 157.692 1242.61 157.575C1242.62 157.442 1242.63 157.342 1242.63 157.275ZM1251.62 165H1249.37L1255.57 149.325H1257.77L1263.9 165H1261.65L1260.22 161.225H1253.05L1251.62 165ZM1256.62 151.275C1256.45 151.858 1256.25 152.475 1256.02 153.125C1255.8 153.775 1255.58 154.425 1255.35 155.075L1253.75 159.35H1259.52L1257.92 155.075C1257.59 154.158 1257.32 153.417 1257.12 152.85C1256.94 152.283 1256.77 151.758 1256.62 151.275ZM1267.81 148.375V165H1265.76V148.375H1267.81ZM1273.16 168.8H1271.11V152.65H1272.88L1273.01 153.75H1273.08C1273.6 153.317 1274.22 152.983 1274.93 152.75C1275.65 152.517 1276.42 152.4 1277.23 152.4C1278.92 152.4 1280.12 152.9 1280.83 153.9C1281.57 154.9 1281.93 156.533 1281.93 158.8C1281.93 161.067 1281.49 162.7 1280.61 163.7C1279.73 164.7 1278.25 165.2 1276.18 165.2C1275.57 165.2 1275 165.158 1274.48 165.075C1273.98 164.992 1273.54 164.867 1273.16 164.7V168.8ZM1279.88 158.8C1279.88 157.1 1279.64 155.917 1279.16 155.25C1278.69 154.583 1277.81 154.25 1276.51 154.25C1275.89 154.25 1275.3 154.342 1274.73 154.525C1274.18 154.692 1273.66 154.942 1273.16 155.275V162.8C1273.58 162.967 1274 163.092 1274.43 163.175C1274.88 163.258 1275.38 163.3 1275.93 163.3C1277.48 163.3 1278.53 162.983 1279.06 162.35C1279.61 161.7 1279.88 160.517 1279.88 158.8ZM1286.68 165H1284.63V148.375H1286.68V153.65C1287.43 153.233 1288.18 152.925 1288.91 152.725C1289.66 152.508 1290.4 152.4 1291.13 152.4C1292.5 152.4 1293.53 152.742 1294.21 153.425C1294.91 154.108 1295.26 155.117 1295.26 156.45V165H1293.21V156.7C1293.21 155.85 1292.98 155.233 1292.53 154.85C1292.1 154.45 1291.42 154.25 1290.48 154.25C1289.87 154.25 1289.23 154.333 1288.56 154.5C1287.91 154.667 1287.28 154.9 1286.68 155.2V165ZM1301.25 165.2C1299.99 165.2 1299.05 164.9 1298.45 164.3C1297.87 163.683 1297.58 162.717 1297.58 161.4C1297.58 160.067 1297.94 159.125 1298.65 158.575C1299.37 158.008 1300.59 157.725 1302.3 157.725C1302.87 157.725 1303.43 157.75 1303.98 157.8C1304.53 157.85 1305.04 157.925 1305.53 158.025V156.825C1305.53 155.908 1305.29 155.25 1304.83 154.85C1304.36 154.45 1303.61 154.25 1302.58 154.25C1301.81 154.25 1301.14 154.283 1300.55 154.35C1299.97 154.4 1299.39 154.492 1298.8 154.625V152.85C1299.47 152.683 1300.14 152.567 1300.83 152.5C1301.53 152.433 1302.32 152.4 1303.2 152.4C1304.69 152.4 1305.79 152.75 1306.5 153.45C1307.22 154.133 1307.58 155.2 1307.58 156.65V165H1305.7L1305.6 163.85H1305.55C1305.05 164.25 1304.4 164.575 1303.6 164.825C1302.82 165.075 1302.04 165.2 1301.25 165.2ZM1302.53 159.4C1301.39 159.4 1300.6 159.542 1300.15 159.825C1299.72 160.092 1299.5 160.575 1299.5 161.275C1299.5 162.008 1299.69 162.542 1300.05 162.875C1300.42 163.192 1301.02 163.35 1301.85 163.35C1302.5 163.35 1303.17 163.25 1303.85 163.05C1304.54 162.85 1305.09 162.6 1305.53 162.3V159.65C1304.98 159.567 1304.46 159.508 1303.98 159.475C1303.51 159.425 1303.03 159.4 1302.53 159.4ZM1312.83 165H1310.78V152.65H1312.66L1312.76 153.7H1312.86C1313.51 153.317 1314.16 153.033 1314.81 152.85C1315.46 152.65 1316.1 152.55 1316.73 152.55C1317 152.55 1317.17 152.55 1317.26 152.55C1317.36 152.55 1317.43 152.558 1317.48 152.575V154.55C1317.37 154.517 1317.22 154.5 1317.03 154.5C1316.87 154.483 1316.6 154.475 1316.23 154.475C1315.63 154.475 1315.04 154.55 1314.46 154.7C1313.89 154.833 1313.35 155.042 1312.83 155.325V165ZM1323.6 165.2C1322.23 165.2 1321.2 164.858 1320.52 164.175C1319.84 163.492 1319.5 162.467 1319.5 161.1V152.65H1321.55V160.85C1321.55 161.7 1321.76 162.317 1322.2 162.7C1322.63 163.083 1323.31 163.275 1324.25 163.275C1324.81 163.275 1325.38 163.208 1325.95 163.075C1326.53 162.925 1327.11 162.7 1327.7 162.4V152.65H1329.75V165H1327.87L1327.77 163.975H1327.72C1326.85 164.425 1326.1 164.742 1325.47 164.925C1324.84 165.108 1324.21 165.2 1323.6 165.2ZM1335.1 148.375V165H1333.05V148.375H1335.1ZM1347.67 162.6V164.325C1347.24 164.558 1346.59 164.767 1345.74 164.95C1344.91 165.117 1344.06 165.2 1343.19 165.2C1341.26 165.2 1339.88 164.7 1339.04 163.7C1338.21 162.7 1337.79 161.05 1337.79 158.75C1337.79 156.533 1338.23 154.925 1339.09 153.925C1339.96 152.908 1341.34 152.4 1343.24 152.4C1345.01 152.4 1346.28 152.8 1347.04 153.6C1347.81 154.383 1348.19 155.7 1348.19 157.55C1348.19 157.883 1348.19 158.192 1348.17 158.475C1348.15 158.758 1348.12 159.1 1348.07 159.5H1339.87C1339.89 160.867 1340.16 161.842 1340.69 162.425C1341.24 163.008 1342.19 163.3 1343.52 163.3C1344.24 163.3 1344.99 163.233 1345.77 163.1C1346.55 162.967 1347.19 162.8 1347.67 162.6ZM1346.32 157.275C1346.3 156.175 1346.06 155.4 1345.59 154.95C1345.13 154.483 1344.34 154.25 1343.24 154.25C1342.01 154.25 1341.14 154.517 1340.62 155.05C1340.12 155.567 1339.87 156.483 1339.87 157.8H1346.29C1346.29 157.767 1346.29 157.692 1346.29 157.575C1346.31 157.442 1346.32 157.342 1346.32 157.275ZM1357.17 165H1355.12V148.375H1357.17V153.65C1357.92 153.233 1358.66 152.925 1359.39 152.725C1360.14 152.508 1360.88 152.4 1361.62 152.4C1362.98 152.4 1364.01 152.742 1364.69 153.425C1365.39 154.108 1365.74 155.117 1365.74 156.45V165H1363.69V156.7C1363.69 155.85 1363.47 155.233 1363.02 154.85C1362.58 154.45 1361.9 154.25 1360.97 154.25C1360.35 154.25 1359.71 154.333 1359.04 154.5C1358.39 154.667 1357.77 154.9 1357.17 155.2V165ZM1371.74 165.2C1370.47 165.2 1369.54 164.9 1368.94 164.3C1368.35 163.683 1368.06 162.717 1368.06 161.4C1368.06 160.067 1368.42 159.125 1369.14 158.575C1369.85 158.008 1371.07 157.725 1372.79 157.725C1373.35 157.725 1373.91 157.75 1374.46 157.8C1375.01 157.85 1375.53 157.925 1376.01 158.025V156.825C1376.01 155.908 1375.78 155.25 1375.31 154.85C1374.84 154.45 1374.09 154.25 1373.06 154.25C1372.29 154.25 1371.62 154.283 1371.04 154.35C1370.45 154.4 1369.87 154.492 1369.29 154.625V152.85C1369.95 152.683 1370.63 152.567 1371.31 152.5C1372.01 152.433 1372.8 152.4 1373.69 152.4C1375.17 152.4 1376.27 152.75 1376.99 153.45C1377.7 154.133 1378.06 155.2 1378.06 156.65V165H1376.19L1376.09 163.85H1376.04C1375.54 164.25 1374.89 164.575 1374.09 164.825C1373.3 165.075 1372.52 165.2 1371.74 165.2ZM1373.01 159.4C1371.88 159.4 1371.09 159.542 1370.64 159.825C1370.2 160.092 1369.99 160.575 1369.99 161.275C1369.99 162.008 1370.17 162.542 1370.54 162.875C1370.9 163.192 1371.5 163.35 1372.34 163.35C1372.99 163.35 1373.65 163.25 1374.34 163.05C1375.02 162.85 1375.58 162.6 1376.01 162.3V159.65C1375.46 159.567 1374.94 159.508 1374.46 159.475C1373.99 159.425 1373.51 159.4 1373.01 159.4ZM1385.52 154.25C1384.45 154.25 1383.71 154.375 1383.29 154.625C1382.89 154.875 1382.69 155.383 1382.69 156.15C1382.69 156.55 1382.78 156.858 1382.97 157.075C1383.17 157.275 1383.47 157.408 1383.89 157.475L1387.07 157.95C1388.07 158.1 1388.77 158.417 1389.17 158.9C1389.57 159.367 1389.77 160.108 1389.77 161.125C1389.77 162.558 1389.42 163.6 1388.74 164.25C1388.06 164.883 1386.92 165.2 1385.34 165.2C1384.39 165.2 1383.51 165.15 1382.69 165.05C1381.87 164.95 1381.2 164.817 1380.67 164.65V162.725C1381.2 162.892 1381.85 163.033 1382.62 163.15C1383.4 163.25 1384.2 163.3 1385.02 163.3C1386.05 163.3 1386.76 163.15 1387.14 162.85C1387.52 162.55 1387.72 162.017 1387.72 161.25C1387.72 160.767 1387.61 160.417 1387.39 160.2C1387.17 159.967 1386.78 159.808 1386.22 159.725L1383.04 159.25C1382.24 159.133 1381.64 158.825 1381.24 158.325C1380.86 157.825 1380.66 157.1 1380.64 156.15C1380.64 154.85 1381.02 153.9 1381.79 153.3C1382.57 152.7 1383.77 152.4 1385.39 152.4C1386.06 152.4 1386.66 152.417 1387.19 152.45C1387.74 152.483 1388.32 152.55 1388.92 152.65V154.475C1388.48 154.408 1387.97 154.358 1387.39 154.325C1386.81 154.275 1386.18 154.25 1385.52 154.25ZM702.7 195H700.65V182.65H702.525L702.625 183.6H702.7C703.433 183.183 704.1 182.883 704.7 182.7C705.3 182.5 705.9 182.4 706.5 182.4C707.2 182.4 707.8 182.508 708.3 182.725C708.8 182.942 709.192 183.267 709.475 183.7H709.55C710.217 183.283 710.917 182.967 711.65 182.75C712.4 182.517 713.15 182.4 713.9 182.4C715.083 182.4 715.975 182.717 716.575 183.35C717.192 183.967 717.5 184.883 717.5 186.1V195H715.45V186.35C715.45 185.633 715.258 185.108 714.875 184.775C714.492 184.425 713.883 184.25 713.05 184.25C712.583 184.25 712.092 184.325 711.575 184.475C711.058 184.608 710.542 184.808 710.025 185.075C710.058 185.242 710.075 185.408 710.075 185.575C710.092 185.742 710.1 185.917 710.1 186.1V195H708.05V186.35C708.05 185.633 707.858 185.108 707.475 184.775C707.092 184.425 706.483 184.25 705.65 184.25C705.233 184.25 704.792 184.325 704.325 184.475C703.858 184.608 703.317 184.842 702.7 185.175V195ZM723.494 195.2C722.227 195.2 721.294 194.9 720.694 194.3C720.111 193.683 719.819 192.717 719.819 191.4C719.819 190.067 720.177 189.125 720.894 188.575C721.611 188.008 722.827 187.725 724.544 187.725C725.111 187.725 725.669 187.75 726.219 187.8C726.769 187.85 727.286 187.925 727.769 188.025V186.825C727.769 185.908 727.536 185.25 727.069 184.85C726.602 184.45 725.852 184.25 724.819 184.25C724.052 184.25 723.377 184.283 722.794 184.35C722.211 184.4 721.627 184.492 721.044 184.625V182.85C721.711 182.683 722.386 182.567 723.069 182.5C723.769 182.433 724.561 182.4 725.444 182.4C726.927 182.4 728.027 182.75 728.744 183.45C729.461 184.133 729.819 185.2 729.819 186.65V195H727.944L727.844 193.85H727.794C727.294 194.25 726.644 194.575 725.844 194.825C725.061 195.075 724.277 195.2 723.494 195.2ZM724.769 189.4C723.636 189.4 722.844 189.542 722.394 189.825C721.961 190.092 721.744 190.575 721.744 191.275C721.744 192.008 721.927 192.542 722.294 192.875C722.661 193.192 723.261 193.35 724.094 193.35C724.744 193.35 725.411 193.25 726.094 193.05C726.777 192.85 727.336 192.6 727.769 192.3V189.65C727.219 189.567 726.702 189.508 726.219 189.475C725.752 189.425 725.269 189.4 724.769 189.4ZM741.198 178.375H743.248V195H741.473L741.323 193.85H741.273C740.79 194.3 740.198 194.642 739.498 194.875C738.815 195.092 738.023 195.2 737.123 195.2C735.44 195.2 734.231 194.7 733.498 193.7C732.781 192.7 732.423 191.067 732.423 188.8C732.423 186.533 732.865 184.9 733.748 183.9C734.631 182.9 736.106 182.4 738.173 182.4C738.756 182.4 739.298 182.45 739.798 182.55C740.315 182.633 740.781 182.758 741.198 182.925V178.375ZM738.423 184.25C736.873 184.25 735.823 184.575 735.273 185.225C734.74 185.875 734.473 187.067 734.473 188.8C734.473 190.483 734.706 191.658 735.173 192.325C735.656 192.975 736.548 193.3 737.848 193.3C738.465 193.3 739.056 193.225 739.623 193.075C740.19 192.908 740.715 192.667 741.198 192.35V184.75C740.798 184.583 740.373 184.458 739.923 184.375C739.473 184.292 738.973 184.25 738.423 184.25ZM755.823 192.6V194.325C755.39 194.558 754.748 194.767 753.898 194.95C753.065 195.117 752.215 195.2 751.348 195.2C749.415 195.2 748.032 194.7 747.198 193.7C746.365 192.7 745.948 191.05 745.948 188.75C745.948 186.533 746.382 184.925 747.248 183.925C748.115 182.908 749.498 182.4 751.398 182.4C753.165 182.4 754.432 182.8 755.198 183.6C755.965 184.383 756.348 185.7 756.348 187.55C756.348 187.883 756.34 188.192 756.323 188.475C756.307 188.758 756.273 189.1 756.223 189.5H748.023C748.04 190.867 748.315 191.842 748.848 192.425C749.398 193.008 750.34 193.3 751.673 193.3C752.39 193.3 753.14 193.233 753.923 193.1C754.707 192.967 755.34 192.8 755.823 192.6ZM754.473 187.275C754.457 186.175 754.215 185.4 753.748 184.95C753.282 184.483 752.498 184.25 751.398 184.25C750.165 184.25 749.29 184.517 748.773 185.05C748.273 185.567 748.023 186.483 748.023 187.8H754.448C754.448 187.767 754.448 187.692 754.448 187.575C754.465 187.442 754.473 187.342 754.473 187.275ZM765.397 180.5H763.197V178.375H765.397V180.5ZM765.322 195H763.272V182.65H765.322V195ZM772.869 184.25C771.802 184.25 771.06 184.375 770.644 184.625C770.244 184.875 770.044 185.383 770.044 186.15C770.044 186.55 770.135 186.858 770.319 187.075C770.519 187.275 770.827 187.408 771.244 187.475L774.419 187.95C775.419 188.1 776.119 188.417 776.519 188.9C776.919 189.367 777.119 190.108 777.119 191.125C777.119 192.558 776.777 193.6 776.094 194.25C775.41 194.883 774.277 195.2 772.694 195.2C771.744 195.2 770.86 195.15 770.044 195.05C769.227 194.95 768.552 194.817 768.019 194.65V192.725C768.552 192.892 769.202 193.033 769.969 193.15C770.752 193.25 771.552 193.3 772.369 193.3C773.402 193.3 774.11 193.15 774.494 192.85C774.877 192.55 775.069 192.017 775.069 191.25C775.069 190.767 774.96 190.417 774.744 190.2C774.527 189.967 774.135 189.808 773.569 189.725L770.394 189.25C769.594 189.133 768.994 188.825 768.594 188.325C768.21 187.825 768.01 187.1 767.994 186.15C767.994 184.85 768.377 183.9 769.144 183.3C769.927 182.7 771.127 182.4 772.744 182.4C773.41 182.4 774.01 182.417 774.544 182.45C775.094 182.483 775.669 182.55 776.269 182.65V184.475C775.835 184.408 775.327 184.358 774.744 184.325C774.16 184.275 773.535 184.25 772.869 184.25ZM793.153 192.6V194.325C792.719 194.558 792.078 194.767 791.228 194.95C790.394 195.117 789.544 195.2 788.678 195.2C786.744 195.2 785.361 194.7 784.528 193.7C783.694 192.7 783.278 191.05 783.278 188.75C783.278 186.533 783.711 184.925 784.578 183.925C785.444 182.908 786.828 182.4 788.728 182.4C790.494 182.4 791.761 182.8 792.528 183.6C793.294 184.383 793.678 185.7 793.678 187.55C793.678 187.883 793.669 188.192 793.653 188.475C793.636 188.758 793.603 189.1 793.553 189.5H785.353C785.369 190.867 785.644 191.842 786.178 192.425C786.728 193.008 787.669 193.3 789.003 193.3C789.719 193.3 790.469 193.233 791.253 193.1C792.036 192.967 792.669 192.8 793.153 192.6ZM791.803 187.275C791.786 186.175 791.544 185.4 791.078 184.95C790.611 184.483 789.828 184.25 788.728 184.25C787.494 184.25 786.619 184.517 786.103 185.05C785.603 185.567 785.353 186.483 785.353 187.8H791.778C791.778 187.767 791.778 187.692 791.778 187.575C791.794 187.442 791.803 187.342 791.803 187.275ZM801.307 188.575L805.432 195H803.157L800.032 190L796.932 195H794.782L798.907 188.6L794.957 182.65H797.382L800.157 187.225L803.082 182.65H805.257L801.307 188.575ZM810.042 195.2C808.775 195.2 807.842 194.9 807.242 194.3C806.658 193.683 806.367 192.717 806.367 191.4C806.367 190.067 806.725 189.125 807.442 188.575C808.158 188.008 809.375 187.725 811.092 187.725C811.658 187.725 812.217 187.75 812.767 187.8C813.317 187.85 813.833 187.925 814.317 188.025V186.825C814.317 185.908 814.083 185.25 813.617 184.85C813.15 184.45 812.4 184.25 811.367 184.25C810.6 184.25 809.925 184.283 809.342 184.35C808.758 184.4 808.175 184.492 807.592 184.625V182.85C808.258 182.683 808.933 182.567 809.617 182.5C810.317 182.433 811.108 182.4 811.992 182.4C813.475 182.4 814.575 182.75 815.292 183.45C816.008 184.133 816.367 185.2 816.367 186.65V195H814.492L814.392 193.85H814.342C813.842 194.25 813.192 194.575 812.392 194.825C811.608 195.075 810.825 195.2 810.042 195.2ZM811.317 189.4C810.183 189.4 809.392 189.542 808.942 189.825C808.508 190.092 808.292 190.575 808.292 191.275C808.292 192.008 808.475 192.542 808.842 192.875C809.208 193.192 809.808 193.35 810.642 193.35C811.292 193.35 811.958 193.25 812.642 193.05C813.325 192.85 813.883 192.6 814.317 192.3V189.65C813.767 189.567 813.25 189.508 812.767 189.475C812.3 189.425 811.817 189.4 811.317 189.4ZM828.196 192.55V194.275C827.779 194.542 827.154 194.767 826.321 194.95C825.504 195.117 824.646 195.2 823.746 195.2C821.996 195.2 820.763 194.725 820.046 193.775C819.346 192.825 818.996 191.167 818.996 188.8C818.996 186.483 819.454 184.842 820.371 183.875C821.288 182.892 822.846 182.4 825.046 182.4C825.529 182.4 825.963 182.417 826.346 182.45C826.746 182.467 827.254 182.517 827.871 182.6V184.425C827.254 184.342 826.746 184.292 826.346 184.275C825.963 184.258 825.529 184.25 825.046 184.25C823.479 184.25 822.421 184.575 821.871 185.225C821.321 185.858 821.046 187.05 821.046 188.8C821.046 190.55 821.263 191.742 821.696 192.375C822.129 192.992 822.963 193.3 824.196 193.3C824.879 193.3 825.588 193.233 826.321 193.1C827.054 192.95 827.679 192.767 828.196 192.55ZM837.807 193.075V194.8C837.541 194.917 837.174 195.008 836.707 195.075C836.257 195.158 835.824 195.2 835.407 195.2C833.907 195.2 832.832 194.867 832.182 194.2C831.549 193.533 831.232 192.383 831.232 190.75V184.4H829.382V182.65H831.257L831.582 179.65H833.282V182.65H837.682V184.4H833.282V190.675C833.282 191.692 833.466 192.383 833.832 192.75C834.216 193.117 834.882 193.3 835.832 193.3C836.132 193.3 836.474 193.275 836.857 193.225C837.257 193.175 837.574 193.125 837.807 193.075ZM841.885 178.375V195H839.835V178.375H841.885ZM846.306 197.2C846.94 197.2 847.415 197.058 847.731 196.775C848.065 196.508 848.415 195.858 848.781 194.825L843.731 182.65H846.031L849.831 192.775L853.431 182.65H855.631L850.581 195.825C850.131 197.025 849.606 197.858 849.006 198.325C848.406 198.808 847.631 199.05 846.681 199.05C846.398 199.05 846.098 199.033 845.781 199C845.481 198.967 845.181 198.925 844.881 198.875V197.075C845.065 197.125 845.265 197.158 845.481 197.175C845.715 197.192 845.99 197.2 846.306 197.2ZM874.378 182.65H876.603L873.178 195H870.778L868.078 185.375L865.553 195H863.153L859.728 182.65H861.978L864.378 193.075L867.053 182.65H869.103L871.953 193.075L874.378 182.65ZM880.727 195H878.677V178.375H880.727V183.65C881.477 183.233 882.219 182.925 882.952 182.725C883.702 182.508 884.444 182.4 885.177 182.4C886.544 182.4 887.569 182.742 888.252 183.425C888.952 184.108 889.302 185.117 889.302 186.45V195H887.252V186.7C887.252 185.85 887.027 185.233 886.577 184.85C886.144 184.45 885.461 184.25 884.527 184.25C883.911 184.25 883.269 184.333 882.602 184.5C881.952 184.667 881.327 184.9 880.727 185.2V195ZM895.296 195.2C894.029 195.2 893.096 194.9 892.496 194.3C891.912 193.683 891.621 192.717 891.621 191.4C891.621 190.067 891.979 189.125 892.696 188.575C893.412 188.008 894.629 187.725 896.346 187.725C896.912 187.725 897.471 187.75 898.021 187.8C898.571 187.85 899.087 187.925 899.571 188.025V186.825C899.571 185.908 899.337 185.25 898.871 184.85C898.404 184.45 897.654 184.25 896.621 184.25C895.854 184.25 895.179 184.283 894.596 184.35C894.012 184.4 893.429 184.492 892.846 184.625V182.85C893.512 182.683 894.187 182.567 894.871 182.5C895.571 182.433 896.362 182.4 897.246 182.4C898.729 182.4 899.829 182.75 900.546 183.45C901.262 184.133 901.621 185.2 901.621 186.65V195H899.746L899.646 193.85H899.596C899.096 194.25 898.446 194.575 897.646 194.825C896.862 195.075 896.079 195.2 895.296 195.2ZM896.571 189.4C895.437 189.4 894.646 189.542 894.196 189.825C893.762 190.092 893.546 190.575 893.546 191.275C893.546 192.008 893.729 192.542 894.096 192.875C894.462 193.192 895.062 193.35 895.896 193.35C896.546 193.35 897.212 193.25 897.896 193.05C898.579 192.85 899.137 192.6 899.571 192.3V189.65C899.021 189.567 898.504 189.508 898.021 189.475C897.554 189.425 897.071 189.4 896.571 189.4ZM911.928 193.075V194.8C911.662 194.917 911.295 195.008 910.828 195.075C910.378 195.158 909.945 195.2 909.528 195.2C908.028 195.2 906.953 194.867 906.303 194.2C905.67 193.533 905.353 192.383 905.353 190.75V184.4H903.503V182.65H905.378L905.703 179.65H907.403V182.65H911.803V184.4H907.403V190.675C907.403 191.692 907.587 192.383 907.953 192.75C908.337 193.117 909.003 193.3 909.953 193.3C910.253 193.3 910.595 193.275 910.978 193.225C911.378 193.175 911.695 193.125 911.928 193.075ZM929.078 188.8C929.078 191.133 928.645 192.783 927.778 193.75C926.928 194.717 925.461 195.2 923.378 195.2C921.228 195.2 919.736 194.733 918.903 193.8C918.07 192.867 917.653 191.2 917.653 188.8C917.653 186.45 918.078 184.8 918.928 183.85C919.795 182.883 921.278 182.4 923.378 182.4C925.528 182.4 927.011 182.867 927.828 183.8C928.661 184.733 929.078 186.4 929.078 188.8ZM919.703 188.775C919.703 190.608 919.945 191.825 920.428 192.425C920.911 193.008 921.895 193.3 923.378 193.3C924.811 193.3 925.778 192.992 926.278 192.375C926.778 191.742 927.028 190.542 927.028 188.775C927.028 186.942 926.786 185.733 926.303 185.15C925.836 184.55 924.861 184.25 923.378 184.25C921.928 184.25 920.953 184.558 920.453 185.175C919.953 185.792 919.703 186.992 919.703 188.775ZM935.802 195.2C934.436 195.2 933.411 194.858 932.727 194.175C932.044 193.492 931.702 192.467 931.702 191.1V182.65H933.752V190.85C933.752 191.7 933.969 192.317 934.402 192.7C934.836 193.083 935.519 193.275 936.452 193.275C937.019 193.275 937.586 193.208 938.152 193.075C938.736 192.925 939.319 192.7 939.902 192.4V182.65H941.952V195H940.077L939.977 193.975H939.927C939.061 194.425 938.311 194.742 937.677 194.925C937.044 195.108 936.419 195.2 935.802 195.2ZM947.304 195H945.254V182.65H947.129L947.229 183.7H947.329C947.979 183.317 948.629 183.033 949.279 182.85C949.929 182.65 950.571 182.55 951.204 182.55C951.471 182.55 951.646 182.55 951.729 182.55C951.829 182.55 951.904 182.558 951.954 182.575V184.55C951.838 184.517 951.688 184.5 951.504 184.5C951.338 184.483 951.071 184.475 950.704 184.475C950.104 184.475 949.513 184.55 948.929 184.7C948.363 184.833 947.821 185.042 947.304 185.325V195ZM965.539 182.65H967.789L963.039 195H960.689L955.939 182.65H958.214L961.889 193.125L965.539 182.65ZM971.818 180.5H969.618V178.375H971.818V180.5ZM971.743 195H969.693V182.65H971.743V195ZM979.29 184.25C978.223 184.25 977.481 184.375 977.065 184.625C976.665 184.875 976.465 185.383 976.465 186.15C976.465 186.55 976.556 186.858 976.74 187.075C976.94 187.275 977.248 187.408 977.665 187.475L980.84 187.95C981.84 188.1 982.54 188.417 982.94 188.9C983.34 189.367 983.54 190.108 983.54 191.125C983.54 192.558 983.198 193.6 982.515 194.25C981.831 194.883 980.698 195.2 979.115 195.2C978.165 195.2 977.281 195.15 976.465 195.05C975.648 194.95 974.973 194.817 974.44 194.65V192.725C974.973 192.892 975.623 193.033 976.39 193.15C977.173 193.25 977.973 193.3 978.79 193.3C979.823 193.3 980.531 193.15 980.915 192.85C981.298 192.55 981.49 192.017 981.49 191.25C981.49 190.767 981.381 190.417 981.165 190.2C980.948 189.967 980.556 189.808 979.99 189.725L976.815 189.25C976.015 189.133 975.415 188.825 975.015 188.325C974.631 187.825 974.431 187.1 974.415 186.15C974.415 184.85 974.798 183.9 975.565 183.3C976.348 182.7 977.548 182.4 979.165 182.4C979.831 182.4 980.431 182.417 980.965 182.45C981.515 182.483 982.09 182.55 982.69 182.65V184.475C982.256 184.408 981.748 184.358 981.165 184.325C980.581 184.275 979.956 184.25 979.29 184.25ZM988.151 180.5H985.951V178.375H988.151V180.5ZM988.076 195H986.026V182.65H988.076V195ZM1002.22 188.8C1002.22 191.133 1001.79 192.783 1000.92 193.75C1000.07 194.717 998.606 195.2 996.523 195.2C994.373 195.2 992.881 194.733 992.048 193.8C991.214 192.867 990.798 191.2 990.798 188.8C990.798 186.45 991.223 184.8 992.073 183.85C992.939 182.883 994.423 182.4 996.523 182.4C998.673 182.4 1000.16 182.867 1000.97 183.8C1001.81 184.733 1002.22 186.4 1002.22 188.8ZM992.848 188.775C992.848 190.608 993.089 191.825 993.573 192.425C994.056 193.008 995.039 193.3 996.523 193.3C997.956 193.3 998.923 192.992 999.423 192.375C999.923 191.742 1000.17 190.542 1000.17 188.775C1000.17 186.942 999.931 185.733 999.448 185.15C998.981 184.55 998.006 184.25 996.523 184.25C995.073 184.25 994.098 184.558 993.598 185.175C993.098 185.792 992.848 186.992 992.848 188.775ZM1007 195H1004.95V182.65H1006.72L1006.82 183.85H1006.9C1007.56 183.35 1008.26 182.983 1008.97 182.75C1009.71 182.517 1010.52 182.4 1011.42 182.4C1012.79 182.4 1013.82 182.742 1014.52 183.425C1015.24 184.108 1015.6 185.117 1015.6 186.45V195H1013.55V186.7C1013.55 185.867 1013.31 185.25 1012.85 184.85C1012.38 184.45 1011.66 184.25 1010.7 184.25C1010.1 184.25 1009.48 184.35 1008.85 184.55C1008.23 184.733 1007.61 185.008 1007 185.375V195ZM1036.1 182.65H1038.32L1034.9 195H1032.5L1029.8 185.375L1027.27 195H1024.87L1021.45 182.65H1023.7L1026.1 193.075L1028.77 182.65H1030.82L1033.67 193.075L1036.1 182.65ZM1043.05 195.2C1041.78 195.2 1040.85 194.9 1040.25 194.3C1039.67 193.683 1039.37 192.717 1039.37 191.4C1039.37 190.067 1039.73 189.125 1040.45 188.575C1041.17 188.008 1042.38 187.725 1044.1 187.725C1044.67 187.725 1045.22 187.75 1045.77 187.8C1046.32 187.85 1046.84 187.925 1047.32 188.025V186.825C1047.32 185.908 1047.09 185.25 1046.62 184.85C1046.16 184.45 1045.41 184.25 1044.37 184.25C1043.61 184.25 1042.93 184.283 1042.35 184.35C1041.77 184.4 1041.18 184.492 1040.6 184.625V182.85C1041.27 182.683 1041.94 182.567 1042.62 182.5C1043.32 182.433 1044.12 182.4 1045 182.4C1046.48 182.4 1047.58 182.75 1048.3 183.45C1049.02 184.133 1049.37 185.2 1049.37 186.65V195H1047.5L1047.4 193.85H1047.35C1046.85 194.25 1046.2 194.575 1045.4 194.825C1044.62 195.075 1043.83 195.2 1043.05 195.2ZM1044.32 189.4C1043.19 189.4 1042.4 189.542 1041.95 189.825C1041.52 190.092 1041.3 190.575 1041.3 191.275C1041.3 192.008 1041.48 192.542 1041.85 192.875C1042.22 193.192 1042.82 193.35 1043.65 193.35C1044.3 193.35 1044.97 193.25 1045.65 193.05C1046.33 192.85 1046.89 192.6 1047.32 192.3V189.65C1046.77 189.567 1046.26 189.508 1045.77 189.475C1045.31 189.425 1044.82 189.4 1044.32 189.4ZM1056.83 184.25C1055.76 184.25 1055.02 184.375 1054.6 184.625C1054.2 184.875 1054 185.383 1054 186.15C1054 186.55 1054.1 186.858 1054.28 187.075C1054.48 187.275 1054.79 187.408 1055.2 187.475L1058.38 187.95C1059.38 188.1 1060.08 188.417 1060.48 188.9C1060.88 189.367 1061.08 190.108 1061.08 191.125C1061.08 192.558 1060.74 193.6 1060.05 194.25C1059.37 194.883 1058.24 195.2 1056.65 195.2C1055.7 195.2 1054.82 195.15 1054 195.05C1053.19 194.95 1052.51 194.817 1051.98 194.65V192.725C1052.51 192.892 1053.16 193.033 1053.93 193.15C1054.71 193.25 1055.51 193.3 1056.33 193.3C1057.36 193.3 1058.07 193.15 1058.45 192.85C1058.84 192.55 1059.03 192.017 1059.03 191.25C1059.03 190.767 1058.92 190.417 1058.7 190.2C1058.49 189.967 1058.1 189.808 1057.53 189.725L1054.35 189.25C1053.55 189.133 1052.95 188.825 1052.55 188.325C1052.17 187.825 1051.97 187.1 1051.95 186.15C1051.95 184.85 1052.34 183.9 1053.1 183.3C1053.89 182.7 1055.09 182.4 1056.7 182.4C1057.37 182.4 1057.97 182.417 1058.5 182.45C1059.05 182.483 1059.63 182.55 1060.23 182.65V184.475C1059.8 184.408 1059.29 184.358 1058.7 184.325C1058.12 184.275 1057.5 184.25 1056.83 184.25ZM1065.12 195H1063.07V192.925H1065.12V195Z" fill="#8B8E88"/>
<defs>
<filter id="filter0_dd" x="0" y="15" width="1744" height="424.5" filterUnits="userSpaceOnUse" color-interpolation-filters="sRGB">
<feFlood flood-opacity="0" result="BackgroundImageFix"/>
<feColorMatrix in="SourceAlpha" type="matrix" values="0 0 0 0 0 0 0 0 0 0 0 0 0 0 0 0 0 0 127 0"/>
<feOffset dx="10" dy="10"/>
<feGaussianBlur stdDeviation="10"/>
<feColorMatrix type="matrix" values="0 0 0 0 0 0 0 0 0 0 0 0 0 0 0 0 0 0 0.1 0"/>
<feBlend mode="normal" in2="BackgroundImageFix" result="effect1_dropShadow"/>
<feColorMatrix in="SourceAlpha" type="matrix" values="0 0 0 0 0 0 0 0 0 0 0 0 0 0 0 0 0 0 127 0"/>
<feOffset dx="-10" dy="-10"/>
<feGaussianBlur stdDeviation="10"/>
<feColorMatrix type="matrix" values="0 0 0 0 0 0 0 0 0 0 0 0 0 0 0 0 0 0 0.1 0"/>
<feBlend mode="normal" in2="effect1_dropShadow" result="effect2_dropShadow"/>
<feBlend mode="normal" in="SourceGraphic" in2="effect2_dropShadow" result="shape"/>
</filter>
<linearGradient id="paint0_linear" x1="176" y1="166.136" x2="239.634" y2="166.136" gradientUnits="userSpaceOnUse">
<stop stop-color="#F15A29"/>
<stop offset="0.35" stop-color="#F37024"/>
<stop offset="1" stop-color="#F7941D"/>
</linearGradient>
<linearGradient id="paint1_linear" x1="240.972" y1="241.643" x2="187.809" y2="160.029" gradientUnits="userSpaceOnUse">
<stop stop-color="#FBB040"/>
<stop offset="0.07" stop-color="#F99E3B"/>
<stop offset="0.18" stop-color="#F68635"/>
<stop offset="0.31" stop-color="#F4722F"/>
<stop offset="0.47" stop-color="#F2642C"/>
<stop offset="0.65" stop-color="#F15C2A"/>
<stop offset="1" stop-color="#F15A29"/>
</linearGradient>
<linearGradient id="paint2_linear" x1="265.087" y1="194.5" x2="358" y2="194.5" gradientUnits="userSpaceOnUse">
<stop stop-color="#F15A29"/>
<stop offset="0.43" stop-color="#F15C29"/>
<stop offset="0.63" stop-color="#F26427"/>
<stop offset="0.78" stop-color="#F37024"/>
<stop offset="0.9" stop-color="#F58221"/>
<stop offset="0.99" stop-color="#F7941D"/>
</linearGradient>
<linearGradient id="paint3_linear" x1="296.687" y1="191.533" x2="242.133" y2="246.244" gradientUnits="userSpaceOnUse">
<stop stop-color="#F7941D"/>
<stop offset="0.21" stop-color="#F57E22"/>
<stop offset="0.47" stop-color="#F36A26"/>
<stop offset="0.74" stop-color="#F15E28"/>
<stop offset="1" stop-color="#F15A29"/>
</linearGradient>
<clipPath id="clip0">
<rect width="182" height="97" fill="white" transform="translate(176 146)"/>
</clipPath>
</defs>
</svg>
