<svg width="339" height="274" viewBox="0 0 339 274" fill="none" xmlns="http://www.w3.org/2000/svg">
<g filter="url(#filter0_dd)">
<rect width="52.6984" height="166" rx="10" transform="matrix(-1 0 0 1 60.6982 52)" fill="#97ED4C"/>
<g clip-path="url(#clip0)">
<path d="M25.7226 89.0203H28.156V75.0542H25.7226C25.5128 75.0542 25.3427 74.8824 25.3427 74.6703C25.3427 74.4583 25.5128 74.2865 25.7226 74.2865H28.156V72.3253C28.156 72.1132 28.3261 71.9414 28.536 71.9414C28.7459 71.9414 28.9159 72.1132 28.9159 72.3253V74.2864H40.7885V72.3253C40.7885 72.1132 40.9587 71.9414 41.1685 71.9414C41.3783 71.9414 41.5484 72.1132 41.5484 72.3253V74.2864H43.9819C44.1917 74.2864 44.3618 74.4583 44.3618 74.6703C44.3618 74.8823 44.1917 75.0541 43.9819 75.0541H41.5485V89.0202H43.9819C44.1917 89.0202 44.3618 89.1921 44.3618 89.4041C44.3618 89.6162 44.1917 89.788 43.9819 89.788H41.5485V91.7492C41.5485 91.9612 41.3783 92.1331 41.1685 92.1331C40.9587 92.1331 40.7886 91.9612 40.7886 91.7492V89.788H28.916V91.7492C28.916 91.9612 28.7459 92.1331 28.5361 92.1331C28.3262 92.1331 28.1561 91.9612 28.1561 91.7492V89.788H25.7227C25.5129 89.788 25.3428 89.6162 25.3428 89.4041C25.3428 89.1921 25.5128 89.0203 25.7226 89.0203ZM40.7885 89.0203V75.0542H28.916V89.0203H40.7885Z" fill="white"/>
<path d="M28.9265 77.685L34.0788 74.677C34.5541 74.3995 35.1448 74.3993 35.6202 74.6764L40.7748 77.6805C41.2502 77.9576 41.5469 78.4742 41.5471 79.0288V85.0408C41.5473 85.5953 41.2533 86.1122 40.7781 86.3897L35.6258 89.3977C35.388 89.5365 35.1213 89.606 34.8546 89.606C34.5883 89.606 34.322 89.5367 34.0844 89.3983L28.9298 86.3943C28.4544 86.1171 28.1577 85.6005 28.1575 85.046V79.034C28.1573 78.4795 28.4513 77.9626 28.9265 77.685ZM31.3514 80.4524V83.625C31.3515 83.9062 31.5019 84.1682 31.743 84.3086L34.463 85.8938C34.7041 86.0344 35.0036 86.0342 35.2445 85.8935L37.9633 84.3062C38.2043 84.1655 38.3533 83.9034 38.3532 83.6223V80.4497C38.3531 80.1685 38.2026 79.9066 37.9616 79.7661L35.2416 78.1809C35.1211 78.1107 34.9861 78.0756 34.851 78.0756C34.7159 78.0756 34.5806 78.1109 34.4601 78.1812L31.7412 79.7685C31.5003 79.9092 31.3513 80.1713 31.3514 80.4524Z" fill="white"/>
<path d="M28.9264 77.6849L34.0787 74.6769C34.497 74.4327 35.0044 74.4035 35.4443 74.5887C35.384 74.6142 35.3249 74.6434 35.2676 74.6769L30.1153 77.6849C29.64 77.9624 29.346 78.4793 29.3463 79.0339V85.0458C29.3465 85.6004 29.6431 86.1171 30.1186 86.3941L35.2732 89.3982C35.3303 89.4314 35.389 89.4604 35.449 89.4857C35.2592 89.5656 35.0569 89.6058 34.8545 89.6058C34.5882 89.6058 34.3219 89.5366 34.0843 89.3982L28.9298 86.3941C28.4543 86.117 28.1576 85.6004 28.1574 85.0458V79.0339C28.1572 78.4793 28.4511 77.9624 28.9264 77.6849Z" fill="white"/>
</g>
<g clip-path="url(#clip1)">
<path d="M24.6594 107.07H27.0453C27.3695 107.07 27.6319 107.333 27.6319 107.657V108.244H32.4335C32.6765 107.562 33.3216 107.07 34.0854 107.07C34.8493 107.07 35.4944 107.562 35.7374 108.244H40.5389V107.657C40.5389 107.333 40.8013 107.07 41.1256 107.07H43.5115C43.8357 107.07 44.0981 107.333 44.0981 107.657V110.004C44.0981 110.328 43.8357 110.59 43.5115 110.59H41.1256C40.8013 110.59 40.5389 110.328 40.5389 110.004V109.409H38.1295C40.1655 110.681 41.5081 112.915 41.6685 115.417C42.3725 115.648 42.8857 116.303 42.8857 117.083C42.8857 118.054 42.0962 118.843 41.1256 118.843C40.1551 118.843 39.3656 118.054 39.3656 117.083C39.3656 116.334 39.8373 115.698 40.4975 115.444C40.2973 112.654 38.3508 110.303 35.6432 109.632C35.3503 110.198 34.7657 110.59 34.0854 110.59C33.4052 110.59 32.8206 110.198 32.5277 109.632C29.8201 110.303 27.8736 112.654 27.6734 115.444C28.3336 115.698 28.8053 116.334 28.8053 117.083C28.8053 118.054 28.0158 118.843 27.0453 118.843C26.0747 118.843 25.2852 118.054 25.2852 117.083C25.2852 116.303 25.7984 115.648 26.5023 115.417C26.6628 112.915 28.0054 110.689 30.0414 109.417H27.6319V110.004C27.6319 110.328 27.3695 110.59 27.0453 110.59H24.6594C24.3351 110.59 24.0727 110.328 24.0727 110.004V107.657C24.0727 107.333 24.3351 107.07 24.6594 107.07Z" fill="white"/>
<path d="M30.0941 126.369C30.401 125.43 31.2851 124.711 32.3254 124.711H35.8455C36.8859 124.711 37.77 125.43 38.0769 126.369C38.1952 126.731 37.8872 127.097 37.5062 127.097H30.6647C30.2838 127.097 29.9758 126.731 30.0941 126.369Z" fill="white"/>
<path d="M28.9038 119.103L33.4987 112.211V117.777C32.8172 118.02 32.3253 118.665 32.3253 119.429C32.3253 120.399 33.1148 121.189 34.0853 121.189C35.0559 121.189 35.8454 120.399 35.8454 119.429C35.8454 118.665 35.3534 118.02 34.672 117.777V112.211L39.2669 119.103C39.4222 119.336 39.3912 119.646 39.1936 119.844C38.1165 120.921 37.4281 122.308 37.1624 123.796C36.7549 123.631 36.3116 123.535 35.8454 123.535H32.3253C31.8591 123.535 31.4158 123.631 31.0083 123.796C30.7426 122.308 30.0541 120.921 28.9771 119.844C28.7794 119.646 28.7485 119.336 28.9038 119.103Z" fill="white"/>
<path d="M34.0854 118.844C34.4091 118.844 34.6721 119.107 34.6721 119.43C34.6721 119.754 34.4091 120.017 34.0854 120.017C33.7617 120.017 33.4988 119.754 33.4988 119.43C33.4988 119.107 33.7617 118.844 34.0854 118.844Z" fill="white"/>
</g>
<g clip-path="url(#clip2)">
<path d="M30.5661 160.341L30.9675 159.168H38.2575L38.659 160.341H40.6337C40.9665 160.341 41.2358 160.604 41.2358 160.928C41.2358 161.252 40.9665 161.515 40.6337 161.515H28.5913C28.2586 161.515 27.9892 161.252 27.9892 160.928C27.9892 160.604 28.2586 160.341 28.5913 160.341H30.5661Z" fill="white"/>
<path d="M41.2358 148.605H38.8274V149.779H41.2358V148.605Z" fill="white"/>
<path d="M41.2358 146.258H38.8274V147.431H41.2358V146.258Z" fill="white"/>
<path d="M41.2358 150.953H38.8274V152.126H41.2358V150.953Z" fill="white"/>
<path d="M28.5912 147.434C28.9235 147.434 29.1934 147.697 29.1934 148.02C29.1934 148.344 28.9235 148.607 28.5912 148.607C28.259 148.607 27.9891 148.344 27.9891 148.02C27.9891 147.697 28.259 147.434 28.5912 147.434Z" fill="white"/>
<path d="M24.3363 144.498C24.3363 143.528 25.1466 142.738 26.1427 142.738H43.0823C44.0783 142.738 44.8887 143.528 44.8887 144.498V154.472H24.3363V144.498ZM30.9998 145.085C30.6672 145.085 30.3976 145.348 30.3976 145.672C30.3976 145.996 30.6672 146.258 30.9998 146.258C31.3323 146.258 31.6019 145.996 31.6019 145.672C31.6019 145.348 31.3323 145.085 30.9998 145.085ZM33.4082 145.085C33.0757 145.085 32.8061 145.348 32.8061 145.672C32.8061 145.996 33.0757 146.258 33.4082 146.258C33.7408 146.258 34.0104 145.996 34.0104 145.672C34.0104 145.348 33.7408 145.085 33.4082 145.085ZM37.6231 152.712C37.6231 153.036 37.8925 153.299 38.2252 153.299H41.8379C42.1707 153.299 42.44 153.036 42.44 152.712V145.672C42.44 145.347 42.1707 145.085 41.8379 145.085H38.2252C37.8925 145.085 37.6231 145.347 37.6231 145.672V152.712ZM35.8167 145.085C35.4841 145.085 35.2146 145.348 35.2146 145.672C35.2146 145.996 35.4841 146.258 35.8167 146.258C36.1493 146.258 36.4188 145.996 36.4188 145.672C36.4188 145.348 36.1493 145.085 35.8167 145.085ZM28.1656 153.127C28.4008 153.356 28.7818 153.356 29.017 153.127L29.7955 152.368L30.574 153.127C30.7017 153.252 30.874 153.314 31.0592 153.296C31.2386 153.279 31.4009 153.183 31.5007 153.037L33.4082 150.249L35.3157 153.037C35.4972 153.303 35.8691 153.382 36.1507 153.2C36.4276 153.02 36.5024 152.656 36.3177 152.386L33.9092 148.866C33.6858 148.54 33.1307 148.54 32.9073 148.866L30.9063 151.791L30.2212 151.124C29.986 150.895 29.605 150.895 29.3698 151.124L28.1656 152.297C27.9304 152.526 27.9304 152.897 28.1656 153.127ZM28.5913 149.778C29.5873 149.778 30.3976 148.989 30.3976 148.018C30.3976 147.048 29.5873 146.258 28.5913 146.258C27.5953 146.258 26.7849 147.048 26.7849 148.018C26.7849 148.989 27.5953 149.778 28.5913 149.778Z" fill="white"/>
<path d="M43.0823 157.991H26.1427C25.1466 157.991 24.3363 157.202 24.3363 156.231V155.645H44.8887V156.231C44.8887 157.202 44.0783 157.991 43.0823 157.991Z" fill="white"/>
</g>
<g clip-path="url(#clip3)">
<path d="M28.9299 185.629H27.7257V188.037H28.9299V185.629Z" fill="white"/>
<path d="M28.3278 182.017C27.9953 182.017 27.7257 181.747 27.7257 181.415C27.7257 181.082 27.9953 180.812 28.3278 180.812C28.6604 180.812 28.9299 181.082 28.9299 181.415C28.9299 181.747 28.6604 182.017 28.3278 182.017Z" fill="white"/>
<path d="M24.675 177.16H44.0231C44.3559 177.16 44.6252 177.429 44.6252 177.762V187.436C44.6252 187.769 44.3559 188.038 44.0231 188.038H30.1342V185.028C30.1342 184.695 29.8649 184.426 29.5321 184.426H27.1236C26.7908 184.426 26.5215 184.695 26.5215 185.028V188.038H24.675C24.3422 188.038 24.0729 187.769 24.0729 187.436V177.762C24.0729 177.429 24.3422 177.16 24.675 177.16ZM31.9406 182.017H33.1448C34.8053 182.017 36.1554 183.368 36.1554 185.028C36.1554 185.361 36.4247 185.63 36.7575 185.63C37.0903 185.63 37.3597 185.361 37.3597 185.028C37.3597 184.032 38.17 183.222 39.166 183.222C40.1621 183.222 40.9724 184.032 40.9724 185.028C40.9724 185.361 41.2417 185.63 41.5745 185.63C41.9073 185.63 42.1766 185.361 42.1766 185.028C42.1766 183.368 40.8265 182.017 39.166 182.017C38.2419 182.017 37.4243 182.445 36.8717 183.102C36.1691 181.749 34.7711 180.813 33.1448 180.813H31.9406C31.6078 180.813 31.3385 181.082 31.3385 181.415C31.3385 181.748 31.6078 182.017 31.9406 182.017ZM28.3278 183.222C29.3239 183.222 30.1342 182.411 30.1342 181.415C30.1342 180.419 29.3239 179.609 28.3278 179.609C27.3318 179.609 26.5215 180.419 26.5215 181.415C26.5215 182.411 27.3318 183.222 28.3278 183.222Z" fill="white"/>
<path d="M44.0231 196.508H28.93V197.11C28.93 197.443 28.6607 197.712 28.3278 197.712C27.995 197.712 27.7257 197.443 27.7257 197.11V192.502L26.6979 191.474C26.585 191.361 26.5215 191.208 26.5215 191.049V189.844C26.5215 189.511 26.7908 189.242 27.1236 189.242H29.5321C29.8649 189.242 30.1342 189.511 30.1342 189.844V191.049C30.1342 191.208 30.0707 191.361 29.9578 191.474L28.93 192.502V192.855H44.0231C44.3559 192.855 44.6252 193.124 44.6252 193.457V195.906C44.6252 196.238 44.3559 196.508 44.0231 196.508Z" fill="white"/>
<path d="M24.675 192.855H26.5215V196.508H24.675C24.3422 196.508 24.0729 196.239 24.0729 195.906V193.458C24.0729 193.125 24.3422 192.855 24.675 192.855Z" fill="white"/>
</g>
</g>
<g filter="url(#filter1_dd)">
<rect x="106" y="8" width="221" height="254" rx="10" fill="#34C25E"/>
</g>
<path d="M178.01 50H171.44V31.19H178.01C179.93 31.19 181.45 31.35 182.57 31.67C183.71 31.99 184.62 32.5 185.3 33.2C185.98 33.9 186.47 34.85 186.77 36.05C187.09 37.23 187.25 38.74 187.25 40.58C187.25 43.84 186.52 46.23 185.06 47.75C183.6 49.25 181.25 50 178.01 50ZM181.7 36.59C181.42 36.17 181.01 35.87 180.47 35.69C179.93 35.49 179.11 35.39 178.01 35.39H176.09V45.65H178.01C179.09 45.65 179.9 45.56 180.44 45.38C180.98 45.2 181.4 44.91 181.7 44.51C181.96 44.13 182.15 43.63 182.27 43.01C182.39 42.37 182.45 41.56 182.45 40.58C182.45 39.58 182.39 38.77 182.27 38.15C182.15 37.51 181.96 36.99 181.7 36.59ZM202.447 45.65V50H189.487V31.19H202.177V35.39H194.137V38.51H201.067V42.41H194.137V45.65H202.447ZM211.773 42.98L207.963 42.08C206.443 41.72 205.403 41.17 204.843 40.43C204.303 39.69 204.033 38.63 204.033 37.25C204.033 35.07 204.603 33.47 205.743 32.45C206.903 31.41 208.693 30.89 211.113 30.89C212.113 30.89 213.003 30.93 213.783 31.01C214.563 31.09 215.283 31.23 215.943 31.43V35.6C214.423 35.34 213.373 35.19 212.793 35.15C212.233 35.11 211.643 35.09 211.023 35.09C210.183 35.09 209.573 35.23 209.193 35.51C208.813 35.79 208.623 36.26 208.623 36.92C208.623 37.24 208.683 37.49 208.803 37.67C208.923 37.83 209.153 37.95 209.493 38.03L213.093 38.87C214.133 39.11 214.883 39.35 215.343 39.59C215.803 39.81 216.173 40.1 216.453 40.46C216.773 40.84 217.003 41.33 217.143 41.93C217.303 42.53 217.383 43.26 217.383 44.12C217.383 46.3 216.803 47.88 215.643 48.86C214.483 49.82 212.683 50.3 210.243 50.3C209.003 50.3 207.823 50.22 206.703 50.06C205.583 49.92 204.713 49.74 204.093 49.52V45.11C204.893 45.37 205.843 45.58 206.943 45.74C208.043 45.88 209.143 45.95 210.243 45.95C211.123 45.95 211.733 45.84 212.073 45.62C212.413 45.4 212.583 44.96 212.583 44.3C212.583 43.88 212.523 43.58 212.403 43.4C212.303 43.2 212.093 43.06 211.773 42.98ZM223.961 31.19V50H219.311V31.19H223.961ZM237.49 43.01H234.25V39.26H241.84V49.16C241.28 49.42 240.28 49.68 238.84 49.94C237.4 50.18 236.09 50.3 234.91 50.3C231.65 50.3 229.38 49.55 228.1 48.05C226.84 46.55 226.21 44.06 226.21 40.58C226.21 37.22 226.95 34.77 228.43 33.23C229.91 31.67 232.27 30.89 235.51 30.89C236.69 30.89 237.74 30.92 238.66 30.98C239.6 31.02 240.32 31.09 240.82 31.19V35.27C240.16 35.21 239.37 35.17 238.45 35.15C237.55 35.11 236.57 35.09 235.51 35.09C234.37 35.09 233.52 35.19 232.96 35.39C232.42 35.59 232.01 35.94 231.73 36.44C231.47 36.84 231.28 37.38 231.16 38.06C231.06 38.72 231.01 39.56 231.01 40.58C231.01 41.56 231.06 42.38 231.16 43.04C231.26 43.7 231.42 44.23 231.64 44.63C231.92 45.17 232.31 45.55 232.81 45.77C233.33 45.99 234.13 46.1 235.21 46.1C235.57 46.1 235.94 46.09 236.32 46.07C236.72 46.03 237.11 45.98 237.49 45.92V43.01ZM260.414 31.19V50H255.974L248.534 39.14V50H244.184V31.19H248.594L256.064 42.47V31.19H260.414Z" fill="white"/>
<path d="M154.34 92H149.96V79.46H154.34C155.62 79.46 156.633 79.5667 157.38 79.78C158.14 79.9933 158.747 80.3333 159.2 80.8C159.653 81.2667 159.98 81.9 160.18 82.7C160.393 83.4867 160.5 84.4933 160.5 85.72C160.5 87.8933 160.013 89.4867 159.04 90.5C158.067 91.5 156.5 92 154.34 92ZM156.8 83.06C156.613 82.78 156.34 82.58 155.98 82.46C155.62 82.3267 155.073 82.26 154.34 82.26H153.06V89.1H154.34C155.06 89.1 155.6 89.04 155.96 88.92C156.32 88.8 156.6 88.6067 156.8 88.34C156.973 88.0867 157.1 87.7533 157.18 87.34C157.26 86.9133 157.3 86.3733 157.3 85.72C157.3 85.0533 157.26 84.5133 157.18 84.1C157.1 83.6733 156.973 83.3267 156.8 83.06ZM164.891 92H161.891V82.12H164.691L164.791 82.88H164.831C165.311 82.5867 165.798 82.3667 166.291 82.22C166.798 82.06 167.271 81.98 167.711 81.98H167.871V84.88C167.751 84.8533 167.618 84.84 167.471 84.84C167.338 84.8267 167.165 84.82 166.951 84.82C166.565 84.82 166.198 84.8467 165.851 84.9C165.505 84.94 165.185 85.0067 164.891 85.1V92ZM176.985 89.08V91.46C176.665 91.66 176.125 91.8333 175.365 91.98C174.605 92.1267 173.805 92.2 172.965 92.2C171.365 92.2 170.212 91.8 169.505 91C168.799 90.1867 168.445 88.8733 168.445 87.06C168.445 85.2867 168.819 83.9867 169.565 83.16C170.312 82.3333 171.492 81.92 173.105 81.92C174.679 81.92 175.785 82.2333 176.425 82.86C177.079 83.4733 177.405 84.5667 177.405 86.14C177.405 86.5667 177.399 86.9067 177.385 87.16C177.372 87.4133 177.345 87.7067 177.305 88.04H171.465C171.479 88.5867 171.625 88.9667 171.905 89.18C172.185 89.3933 172.699 89.5 173.445 89.5C174.085 89.5 174.739 89.46 175.405 89.38C176.072 89.2867 176.599 89.1867 176.985 89.08ZM173.105 84.48C172.465 84.48 172.032 84.5933 171.805 84.82C171.579 85.0333 171.465 85.46 171.465 86.1H174.685V85.66C174.672 85.1933 174.559 84.88 174.345 84.72C174.145 84.56 173.732 84.48 173.105 84.48ZM181.186 92.2C180.172 92.2 179.426 91.9467 178.946 91.44C178.479 90.9333 178.246 90.1333 178.246 89.04C178.246 87.92 178.526 87.1333 179.086 86.68C179.659 86.2267 180.639 86 182.026 86C182.346 86 182.672 86.02 183.006 86.06C183.352 86.0867 183.652 86.1267 183.906 86.18V85.46C183.906 85.14 183.766 84.9067 183.486 84.76C183.219 84.6 182.806 84.52 182.246 84.52C181.606 84.52 181.032 84.54 180.526 84.58C180.032 84.6067 179.579 84.66 179.166 84.74V82.28C179.659 82.16 180.232 82.0733 180.886 82.02C181.539 81.9533 182.299 81.92 183.166 81.92C184.392 81.92 185.319 82.1933 185.946 82.74C186.586 83.2867 186.906 84.0933 186.906 85.16V92H184.106L184.006 91.16H183.946C183.532 91.48 183.079 91.7333 182.586 91.92C182.092 92.1067 181.626 92.2 181.186 92.2ZM182.426 87.98C181.892 87.98 181.532 88.04 181.346 88.16C181.159 88.2667 181.066 88.5 181.066 88.86C181.066 89.1933 181.139 89.4267 181.286 89.56C181.446 89.68 181.719 89.74 182.106 89.74C182.399 89.74 182.706 89.7 183.026 89.62C183.346 89.54 183.639 89.44 183.906 89.32V88.1C183.746 88.06 183.546 88.0333 183.306 88.02C183.066 87.9933 182.772 87.98 182.426 87.98ZM191.59 92H188.59V82.12H191.39L191.49 82.86H191.55C192.044 82.5533 192.517 82.32 192.97 82.16C193.424 82 193.857 81.92 194.27 81.92C194.817 81.92 195.284 82.0067 195.67 82.18C196.057 82.34 196.364 82.5867 196.59 82.92H196.67C197.124 82.6133 197.63 82.3733 198.19 82.2C198.764 82.0133 199.31 81.92 199.83 81.92C200.804 81.92 201.524 82.1867 201.99 82.72C202.47 83.2533 202.71 84.0667 202.71 85.16V92H199.71V85.56C199.71 85.2267 199.617 84.9867 199.43 84.84C199.244 84.6933 198.95 84.62 198.55 84.62C198.337 84.62 198.11 84.64 197.87 84.68C197.63 84.72 197.39 84.78 197.15 84.86V92H194.15V85.56C194.15 85.2267 194.057 84.9867 193.87 84.84C193.684 84.6933 193.39 84.62 192.99 84.62C192.777 84.62 192.55 84.64 192.31 84.68C192.07 84.72 191.83 84.78 191.59 84.86V92ZM208.1 84.62H206.94V82.12H208.1C208.113 80.92 208.44 80.02 209.08 79.42C209.733 78.8067 210.687 78.5 211.94 78.5C212.233 78.5 212.547 78.52 212.88 78.56C213.227 78.5867 213.553 78.6333 213.86 78.7V81C213.687 80.9733 213.473 80.9533 213.22 80.94C212.967 80.9133 212.74 80.9 212.54 80.9C211.9 80.9 211.5 80.96 211.34 81.08C211.18 81.2 211.1 81.4533 211.1 81.84V82.12H213.56V84.62H211.1V92H208.1V84.62ZM223.869 87.06C223.869 88.9133 223.496 90.2333 222.749 91.02C222.003 91.8067 220.749 92.2 218.989 92.2C217.229 92.2 215.976 91.8067 215.229 91.02C214.483 90.2333 214.109 88.9133 214.109 87.06C214.109 85.2067 214.483 83.8867 215.229 83.1C215.976 82.3133 217.229 81.92 218.989 81.92C220.749 81.92 222.003 82.3133 222.749 83.1C223.496 83.8867 223.869 85.2067 223.869 87.06ZM217.109 87.02C217.109 88.0333 217.216 88.6867 217.429 88.98C217.656 89.2733 218.176 89.42 218.989 89.42C219.803 89.42 220.316 89.2733 220.529 88.98C220.756 88.6867 220.869 88.0333 220.869 87.02C220.869 86.0067 220.756 85.3533 220.529 85.06C220.316 84.7667 219.803 84.62 218.989 84.62C218.176 84.62 217.656 84.7667 217.429 85.06C217.216 85.3533 217.109 86.0067 217.109 87.02ZM228.231 92H225.231V82.12H228.031L228.131 82.88H228.171C228.651 82.5867 229.138 82.3667 229.631 82.22C230.138 82.06 230.611 81.98 231.051 81.98H231.211V84.88C231.091 84.8533 230.958 84.84 230.811 84.84C230.678 84.8267 230.504 84.82 230.291 84.82C229.904 84.82 229.538 84.8467 229.191 84.9C228.844 84.94 228.524 85.0067 228.231 85.1V92ZM237.709 92.2C236.696 92.2 235.949 91.9467 235.469 91.44C235.003 90.9333 234.769 90.1333 234.769 89.04C234.769 87.92 235.049 87.1333 235.609 86.68C236.183 86.2267 237.163 86 238.549 86C238.869 86 239.196 86.02 239.529 86.06C239.876 86.0867 240.176 86.1267 240.429 86.18V85.46C240.429 85.14 240.289 84.9067 240.009 84.76C239.743 84.6 239.329 84.52 238.769 84.52C238.129 84.52 237.556 84.54 237.049 84.58C236.556 84.6067 236.103 84.66 235.689 84.74V82.28C236.183 82.16 236.756 82.0733 237.409 82.02C238.063 81.9533 238.823 81.92 239.689 81.92C240.916 81.92 241.843 82.1933 242.469 82.74C243.109 83.2867 243.429 84.0933 243.429 85.16V92H240.629L240.529 91.16H240.469C240.056 91.48 239.603 91.7333 239.109 91.92C238.616 92.1067 238.149 92.2 237.709 92.2ZM238.949 87.98C238.416 87.98 238.056 88.04 237.869 88.16C237.683 88.2667 237.589 88.5 237.589 88.86C237.589 89.1933 237.663 89.4267 237.809 89.56C237.969 89.68 238.243 89.74 238.629 89.74C238.923 89.74 239.229 89.7 239.549 89.62C239.869 89.54 240.163 89.44 240.429 89.32V88.1C240.269 88.06 240.069 88.0333 239.829 88.02C239.589 87.9933 239.296 87.98 238.949 87.98ZM157.52 110.72V103.46H160.62V110.72C160.62 112.547 160.173 113.92 159.28 114.84C158.387 115.747 157.047 116.2 155.26 116.2C153.38 116.2 152.007 115.767 151.14 114.9C150.287 114.033 149.86 112.64 149.86 110.72V103.46H152.96V110.72C152.96 111.733 153.113 112.42 153.42 112.78C153.74 113.127 154.353 113.3 155.26 113.3C156.153 113.3 156.753 113.127 157.06 112.78C157.367 112.42 157.52 111.733 157.52 110.72ZM165.243 116H162.243V106.12H164.843L164.963 107.16H165.023C165.449 106.72 165.909 106.407 166.403 106.22C166.909 106.02 167.516 105.92 168.223 105.92C169.343 105.92 170.189 106.193 170.763 106.74C171.336 107.287 171.623 108.093 171.623 109.16V116H168.623V109.56C168.623 109.253 168.496 109.02 168.243 108.86C168.003 108.7 167.643 108.62 167.163 108.62C166.803 108.62 166.456 108.66 166.123 108.74C165.789 108.82 165.496 108.933 165.243 109.08V116ZM176.378 105.04H173.218V102.7H176.378V105.04ZM176.298 116H173.298V106.12H176.298V116ZM185.364 112.98V115.46C185.044 115.66 184.524 115.833 183.804 115.98C183.084 116.127 182.344 116.2 181.584 116.2C180.144 116.2 179.131 115.82 178.544 115.06C177.971 114.287 177.684 112.953 177.684 111.06C177.684 109.167 178.057 107.84 178.804 107.08C179.551 106.307 180.857 105.92 182.724 105.92C183.177 105.92 183.584 105.933 183.944 105.96C184.304 105.973 184.691 106.007 185.104 106.06V108.72C184.451 108.667 183.977 108.64 183.684 108.64C183.391 108.627 183.071 108.62 182.724 108.62C181.804 108.62 181.231 108.753 181.004 109.02C180.791 109.273 180.684 109.953 180.684 111.06C180.684 112.06 180.771 112.7 180.944 112.98C181.131 113.26 181.551 113.4 182.204 113.4C182.737 113.4 183.291 113.36 183.864 113.28C184.451 113.2 184.951 113.1 185.364 112.98ZM195.998 111.06C195.998 112.913 195.625 114.233 194.878 115.02C194.132 115.807 192.878 116.2 191.118 116.2C189.358 116.2 188.105 115.807 187.358 115.02C186.612 114.233 186.238 112.913 186.238 111.06C186.238 109.207 186.612 107.887 187.358 107.1C188.105 106.313 189.358 105.92 191.118 105.92C192.878 105.92 194.132 106.313 194.878 107.1C195.625 107.887 195.998 109.207 195.998 111.06ZM189.238 111.02C189.238 112.033 189.345 112.687 189.558 112.98C189.785 113.273 190.305 113.42 191.118 113.42C191.932 113.42 192.445 113.273 192.658 112.98C192.885 112.687 192.998 112.033 192.998 111.02C192.998 110.007 192.885 109.353 192.658 109.06C192.445 108.767 191.932 108.62 191.118 108.62C190.305 108.62 189.785 108.767 189.558 109.06C189.345 109.353 189.238 110.007 189.238 111.02ZM200.36 116H197.36V106.12H200.16L200.26 106.88H200.3C200.78 106.587 201.267 106.367 201.76 106.22C202.267 106.06 202.74 105.98 203.18 105.98H203.34V108.88C203.22 108.853 203.087 108.84 202.94 108.84C202.807 108.827 202.633 108.82 202.42 108.82C202.033 108.82 201.667 108.847 201.32 108.9C200.973 108.94 200.653 109.007 200.36 109.1V116ZM207.469 116H204.469V106.12H207.069L207.189 107.16H207.249C207.676 106.72 208.136 106.407 208.629 106.22C209.136 106.02 209.743 105.92 210.449 105.92C211.569 105.92 212.416 106.193 212.989 106.74C213.563 107.287 213.849 108.093 213.849 109.16V116H210.849V109.56C210.849 109.253 210.723 109.02 210.469 108.86C210.229 108.7 209.869 108.62 209.389 108.62C209.029 108.62 208.683 108.66 208.349 108.74C208.016 108.82 207.723 108.933 207.469 109.08V116ZM221.573 105.04H218.413V102.7H221.573V105.04ZM221.493 116H218.493V106.12H221.493V116ZM226.219 116H223.219V106.12H225.819L225.939 107.16H225.999C226.426 106.72 226.886 106.407 227.379 106.22C227.886 106.02 228.493 105.92 229.199 105.92C230.319 105.92 231.166 106.193 231.739 106.74C232.313 107.287 232.599 108.093 232.599 109.16V116H229.599V109.56C229.599 109.253 229.473 109.02 229.219 108.86C228.979 108.7 228.619 108.62 228.139 108.62C227.779 108.62 227.433 108.66 227.099 108.74C226.766 108.82 226.473 108.933 226.219 109.08V116ZM238.294 108.46C237.734 108.46 237.354 108.507 237.154 108.6C236.967 108.68 236.874 108.873 236.874 109.18C236.874 109.3 236.907 109.4 236.974 109.48C237.054 109.547 237.161 109.587 237.294 109.6L239.674 109.92C240.447 110.027 240.987 110.28 241.294 110.68C241.614 111.067 241.774 111.687 241.774 112.54C241.774 113.82 241.487 114.753 240.914 115.34C240.341 115.913 239.341 116.2 237.914 116.2C237.127 116.2 236.414 116.167 235.774 116.1C235.147 116.047 234.614 115.967 234.174 115.86V113.26C234.507 113.34 234.967 113.413 235.554 113.48C236.154 113.533 236.761 113.56 237.374 113.56C237.921 113.56 238.287 113.507 238.474 113.4C238.674 113.28 238.774 113.06 238.774 112.74C238.774 112.633 238.741 112.547 238.674 112.48C238.607 112.4 238.521 112.353 238.414 112.34L235.954 112.02C235.234 111.927 234.707 111.667 234.374 111.24C234.054 110.8 233.894 110.153 233.894 109.3C233.894 108.18 234.247 107.34 234.954 106.78C235.661 106.207 236.707 105.92 238.094 105.92C238.641 105.92 239.147 105.933 239.614 105.96C240.081 105.987 240.574 106.04 241.094 106.12V108.62C240.761 108.567 240.347 108.527 239.854 108.5C239.361 108.473 238.841 108.46 238.294 108.46ZM243.547 108.62H242.387V106.12H243.647L244.027 103.82H246.547V106.12H249.347V108.62H246.547V112.46C246.547 112.833 246.64 113.087 246.827 113.22C247.027 113.34 247.414 113.4 247.987 113.4C248.187 113.4 248.434 113.387 248.727 113.36C249.02 113.32 249.267 113.28 249.467 113.24V115.8C249.254 115.893 248.92 115.98 248.467 116.06C248.027 116.153 247.634 116.2 247.287 116.2C245.954 116.2 244.994 115.92 244.407 115.36C243.834 114.787 243.547 113.86 243.547 112.58V108.62ZM258.606 113.08V115.46C258.286 115.66 257.746 115.833 256.986 115.98C256.226 116.127 255.426 116.2 254.586 116.2C252.986 116.2 251.833 115.8 251.126 115C250.42 114.187 250.066 112.873 250.066 111.06C250.066 109.287 250.44 107.987 251.186 107.16C251.933 106.333 253.113 105.92 254.726 105.92C256.3 105.92 257.406 106.233 258.046 106.86C258.7 107.473 259.026 108.567 259.026 110.14C259.026 110.567 259.02 110.907 259.006 111.16C258.993 111.413 258.966 111.707 258.926 112.04H253.086C253.1 112.587 253.246 112.967 253.526 113.18C253.806 113.393 254.32 113.5 255.066 113.5C255.706 113.5 256.36 113.46 257.026 113.38C257.693 113.287 258.22 113.187 258.606 113.08ZM254.726 108.48C254.086 108.48 253.653 108.593 253.426 108.82C253.2 109.033 253.086 109.46 253.086 110.1H256.306V109.66C256.293 109.193 256.18 108.88 255.966 108.72C255.766 108.56 255.353 108.48 254.726 108.48ZM262.807 116.2C261.794 116.2 261.047 115.947 260.567 115.44C260.1 114.933 259.867 114.133 259.867 113.04C259.867 111.92 260.147 111.133 260.707 110.68C261.28 110.227 262.26 110 263.647 110C263.967 110 264.294 110.02 264.627 110.06C264.974 110.087 265.274 110.127 265.527 110.18V109.46C265.527 109.14 265.387 108.907 265.107 108.76C264.84 108.6 264.427 108.52 263.867 108.52C263.227 108.52 262.654 108.54 262.147 108.58C261.654 108.607 261.2 108.66 260.787 108.74V106.28C261.28 106.16 261.854 106.073 262.507 106.02C263.16 105.953 263.92 105.92 264.787 105.92C266.014 105.92 266.94 106.193 267.567 106.74C268.207 107.287 268.527 108.093 268.527 109.16V116H265.727L265.627 115.16H265.567C265.154 115.48 264.7 115.733 264.207 115.92C263.714 116.107 263.247 116.2 262.807 116.2ZM264.047 111.98C263.514 111.98 263.154 112.04 262.967 112.16C262.78 112.267 262.687 112.5 262.687 112.86C262.687 113.193 262.76 113.427 262.907 113.56C263.067 113.68 263.34 113.74 263.727 113.74C264.02 113.74 264.327 113.7 264.647 113.62C264.967 113.54 265.26 113.44 265.527 113.32V112.1C265.367 112.06 265.167 112.033 264.927 112.02C264.687 111.993 264.394 111.98 264.047 111.98ZM276.312 102.7H279.312V116H276.652L276.492 115.08H276.432C276.072 115.453 275.645 115.733 275.152 115.92C274.658 116.107 274.098 116.2 273.472 116.2C272.165 116.2 271.232 115.807 270.672 115.02C270.125 114.233 269.852 112.913 269.852 111.06C269.852 109.26 270.198 107.953 270.892 107.14C271.598 106.327 272.738 105.92 274.312 105.92C274.698 105.92 275.058 105.947 275.392 106C275.738 106.04 276.045 106.1 276.312 106.18V102.7ZM274.732 108.62C273.932 108.62 273.418 108.773 273.192 109.08C272.965 109.373 272.852 110.033 272.852 111.06C272.852 112.033 272.952 112.673 273.152 112.98C273.352 113.273 273.818 113.42 274.552 113.42C274.898 113.42 275.218 113.393 275.512 113.34C275.818 113.287 276.085 113.207 276.312 113.1V108.88C276.112 108.787 275.878 108.72 275.612 108.68C275.358 108.64 275.065 108.62 274.732 108.62ZM293.401 111.06C293.401 112.913 293.027 114.233 292.281 115.02C291.534 115.807 290.281 116.2 288.521 116.2C286.761 116.2 285.507 115.807 284.761 115.02C284.014 114.233 283.641 112.913 283.641 111.06C283.641 109.207 284.014 107.887 284.761 107.1C285.507 106.313 286.761 105.92 288.521 105.92C290.281 105.92 291.534 106.313 292.281 107.1C293.027 107.887 293.401 109.207 293.401 111.06ZM286.641 111.02C286.641 112.033 286.747 112.687 286.961 112.98C287.187 113.273 287.707 113.42 288.521 113.42C289.334 113.42 289.847 113.273 290.061 112.98C290.287 112.687 290.401 112.033 290.401 111.02C290.401 110.007 290.287 109.353 290.061 109.06C289.847 108.767 289.334 108.62 288.521 108.62C287.707 108.62 287.187 108.767 286.961 109.06C286.747 109.353 286.641 110.007 286.641 111.02ZM295.307 108.62H294.147V106.12H295.307C295.32 104.92 295.647 104.02 296.287 103.42C296.94 102.807 297.894 102.5 299.147 102.5C299.44 102.5 299.754 102.52 300.087 102.56C300.434 102.587 300.76 102.633 301.067 102.7V105C300.894 104.973 300.68 104.953 300.427 104.94C300.174 104.913 299.947 104.9 299.747 104.9C299.107 104.9 298.707 104.96 298.547 105.08C298.387 105.2 298.307 105.453 298.307 105.84V106.12H300.767V108.62H298.307V116H295.307V108.62ZM152.26 140.2C151.247 140.2 150.5 139.947 150.02 139.44C149.553 138.933 149.32 138.133 149.32 137.04C149.32 135.92 149.6 135.133 150.16 134.68C150.733 134.227 151.713 134 153.1 134C153.42 134 153.747 134.02 154.08 134.06C154.427 134.087 154.727 134.127 154.98 134.18V133.46C154.98 133.14 154.84 132.907 154.56 132.76C154.293 132.6 153.88 132.52 153.32 132.52C152.68 132.52 152.107 132.54 151.6 132.58C151.107 132.607 150.653 132.66 150.24 132.74V130.28C150.733 130.16 151.307 130.073 151.96 130.02C152.613 129.953 153.373 129.92 154.24 129.92C155.467 129.92 156.393 130.193 157.02 130.74C157.66 131.287 157.98 132.093 157.98 133.16V140H155.18L155.08 139.16H155.02C154.607 139.48 154.153 139.733 153.66 139.92C153.167 140.107 152.7 140.2 152.26 140.2ZM153.5 135.98C152.967 135.98 152.607 136.04 152.42 136.16C152.233 136.267 152.14 136.5 152.14 136.86C152.14 137.193 152.213 137.427 152.36 137.56C152.52 137.68 152.793 137.74 153.18 137.74C153.473 137.74 153.78 137.7 154.1 137.62C154.42 137.54 154.713 137.44 154.98 137.32V136.1C154.82 136.06 154.62 136.033 154.38 136.02C154.14 135.993 153.847 135.98 153.5 135.98ZM165.833 140H162.733V127.46H165.833V132.24H170.233V127.46H173.333V140H170.233V135.04H165.833V140ZM184.553 135.06C184.553 136.913 184.18 138.233 183.433 139.02C182.686 139.807 181.433 140.2 179.673 140.2C177.913 140.2 176.66 139.807 175.913 139.02C175.166 138.233 174.793 136.913 174.793 135.06C174.793 133.207 175.166 131.887 175.913 131.1C176.66 130.313 177.913 129.92 179.673 129.92C181.433 129.92 182.686 130.313 183.433 131.1C184.18 131.887 184.553 133.207 184.553 135.06ZM177.793 135.02C177.793 136.033 177.9 136.687 178.113 136.98C178.34 137.273 178.86 137.42 179.673 137.42C180.486 137.42 181 137.273 181.213 136.98C181.44 136.687 181.553 136.033 181.553 135.02C181.553 134.007 181.44 133.353 181.213 133.06C181 132.767 180.486 132.62 179.673 132.62C178.86 132.62 178.34 132.767 178.113 133.06C177.9 133.353 177.793 134.007 177.793 135.02ZM188.915 140H185.915V130.12H188.715L188.815 130.88H188.855C189.335 130.587 189.821 130.367 190.315 130.22C190.821 130.06 191.295 129.98 191.735 129.98H191.895V132.88C191.775 132.853 191.641 132.84 191.495 132.84C191.361 132.827 191.188 132.82 190.975 132.82C190.588 132.82 190.221 132.847 189.875 132.9C189.528 132.94 189.208 133.007 188.915 133.1V140ZM196.966 132.46C196.406 132.46 196.026 132.507 195.826 132.6C195.639 132.68 195.546 132.873 195.546 133.18C195.546 133.3 195.579 133.4 195.646 133.48C195.726 133.547 195.833 133.587 195.966 133.6L198.346 133.92C199.119 134.027 199.659 134.28 199.966 134.68C200.286 135.067 200.446 135.687 200.446 136.54C200.446 137.82 200.159 138.753 199.586 139.34C199.013 139.913 198.013 140.2 196.586 140.2C195.799 140.2 195.086 140.167 194.446 140.1C193.819 140.047 193.286 139.967 192.846 139.86V137.26C193.179 137.34 193.639 137.413 194.226 137.48C194.826 137.533 195.433 137.56 196.046 137.56C196.593 137.56 196.959 137.507 197.146 137.4C197.346 137.28 197.446 137.06 197.446 136.74C197.446 136.633 197.413 136.547 197.346 136.48C197.279 136.4 197.193 136.353 197.086 136.34L194.626 136.02C193.906 135.927 193.379 135.667 193.046 135.24C192.726 134.8 192.566 134.153 192.566 133.3C192.566 132.18 192.919 131.34 193.626 130.78C194.333 130.207 195.379 129.92 196.766 129.92C197.313 129.92 197.819 129.933 198.286 129.96C198.753 129.987 199.246 130.04 199.766 130.12V132.62C199.433 132.567 199.019 132.527 198.526 132.5C198.033 132.473 197.513 132.46 196.966 132.46ZM209.935 137.08V139.46C209.615 139.66 209.075 139.833 208.315 139.98C207.555 140.127 206.755 140.2 205.915 140.2C204.315 140.2 203.161 139.8 202.455 139C201.748 138.187 201.395 136.873 201.395 135.06C201.395 133.287 201.768 131.987 202.515 131.16C203.261 130.333 204.441 129.92 206.055 129.92C207.628 129.92 208.735 130.233 209.375 130.86C210.028 131.473 210.355 132.567 210.355 134.14C210.355 134.567 210.348 134.907 210.335 135.16C210.321 135.413 210.295 135.707 210.255 136.04H204.415C204.428 136.587 204.575 136.967 204.855 137.18C205.135 137.393 205.648 137.5 206.395 137.5C207.035 137.5 207.688 137.46 208.355 137.38C209.021 137.287 209.548 137.187 209.935 137.08ZM206.055 132.48C205.415 132.48 204.981 132.593 204.755 132.82C204.528 133.033 204.415 133.46 204.415 134.1H207.635V133.66C207.621 133.193 207.508 132.88 207.295 132.72C207.095 132.56 206.681 132.48 206.055 132.48ZM215.344 132.62H214.184V130.12H215.444L215.824 127.82H218.344V130.12H221.144V132.62H218.344V136.46C218.344 136.833 218.437 137.087 218.624 137.22C218.824 137.34 219.21 137.4 219.784 137.4C219.984 137.4 220.23 137.387 220.524 137.36C220.817 137.32 221.064 137.28 221.264 137.24V139.8C221.05 139.893 220.717 139.98 220.264 140.06C219.824 140.153 219.43 140.2 219.084 140.2C217.75 140.2 216.79 139.92 216.204 139.36C215.63 138.787 215.344 137.86 215.344 136.58V132.62ZM225.321 140H222.321V126.7H225.321V130.82C225.814 130.54 226.321 130.32 226.841 130.16C227.374 130 227.881 129.92 228.361 129.92C229.481 129.92 230.314 130.187 230.861 130.72C231.421 131.253 231.701 132.067 231.701 133.16V140H228.701V133.56C228.701 133.227 228.601 132.987 228.401 132.84C228.201 132.693 227.881 132.62 227.441 132.62C227.108 132.62 226.754 132.653 226.381 132.72C226.008 132.773 225.654 132.847 225.321 132.94V140ZM235.776 140.2C234.762 140.2 234.016 139.947 233.536 139.44C233.069 138.933 232.836 138.133 232.836 137.04C232.836 135.92 233.116 135.133 233.676 134.68C234.249 134.227 235.229 134 236.616 134C236.936 134 237.262 134.02 237.596 134.06C237.942 134.087 238.242 134.127 238.496 134.18V133.46C238.496 133.14 238.356 132.907 238.076 132.76C237.809 132.6 237.396 132.52 236.836 132.52C236.196 132.52 235.622 132.54 235.116 132.58C234.622 132.607 234.169 132.66 233.756 132.74V130.28C234.249 130.16 234.822 130.073 235.476 130.02C236.129 129.953 236.889 129.92 237.756 129.92C238.982 129.92 239.909 130.193 240.536 130.74C241.176 131.287 241.496 132.093 241.496 133.16V140H238.696L238.596 139.16H238.536C238.122 139.48 237.669 139.733 237.176 139.92C236.682 140.107 236.216 140.2 235.776 140.2ZM237.016 135.98C236.482 135.98 236.122 136.04 235.936 136.16C235.749 136.267 235.656 136.5 235.656 136.86C235.656 137.193 235.729 137.427 235.876 137.56C236.036 137.68 236.309 137.74 236.696 137.74C236.989 137.74 237.296 137.7 237.616 137.62C237.936 137.54 238.229 137.44 238.496 137.32V136.1C238.336 136.06 238.136 136.033 237.896 136.02C237.656 135.993 237.362 135.98 237.016 135.98ZM243.703 132.62H242.543V130.12H243.803L244.183 127.82H246.703V130.12H249.503V132.62H246.703V136.46C246.703 136.833 246.796 137.087 246.983 137.22C247.183 137.34 247.57 137.4 248.143 137.4C248.343 137.4 248.59 137.387 248.883 137.36C249.176 137.32 249.423 137.28 249.623 137.24V139.8C249.41 139.893 249.076 139.98 248.623 140.06C248.183 140.153 247.79 140.2 247.443 140.2C246.11 140.2 245.15 139.92 244.563 139.36C243.99 138.787 243.703 137.86 243.703 136.58V132.62ZM264.329 130.12H267.609L264.969 140H261.449L260.089 134.36L258.929 140H255.489L252.829 130.12H256.129L257.289 137.28L258.829 130.12H261.609L263.169 137.28L264.329 130.12ZM271.612 129.04H268.452V126.7H271.612V129.04ZM271.532 140H268.532V130.12H271.532V140ZM276.258 126.7V140H273.258V126.7H276.258ZM280.985 126.7V140H277.985V126.7H280.985ZM155.96 150.7H158.96V164H156.3L156.14 163.08H156.08C155.72 163.453 155.293 163.733 154.8 163.92C154.307 164.107 153.747 164.2 153.12 164.2C151.813 164.2 150.88 163.807 150.32 163.02C149.773 162.233 149.5 160.913 149.5 159.06C149.5 157.26 149.847 155.953 150.54 155.14C151.247 154.327 152.387 153.92 153.96 153.92C154.347 153.92 154.707 153.947 155.04 154C155.387 154.04 155.693 154.1 155.96 154.18V150.7ZM154.38 156.62C153.58 156.62 153.067 156.773 152.84 157.08C152.613 157.373 152.5 158.033 152.5 159.06C152.5 160.033 152.6 160.673 152.8 160.98C153 161.273 153.467 161.42 154.2 161.42C154.547 161.42 154.867 161.393 155.16 161.34C155.467 161.287 155.733 161.207 155.96 161.1V156.88C155.76 156.787 155.527 156.72 155.26 156.68C155.007 156.64 154.713 156.62 154.38 156.62ZM163.76 153.04H160.6V150.7H163.76V153.04ZM163.68 164H160.68V154.12H163.68V164ZM169.427 156.46C168.867 156.46 168.487 156.507 168.287 156.6C168.1 156.68 168.007 156.873 168.007 157.18C168.007 157.3 168.04 157.4 168.107 157.48C168.187 157.547 168.294 157.587 168.427 157.6L170.807 157.92C171.58 158.027 172.12 158.28 172.427 158.68C172.747 159.067 172.907 159.687 172.907 160.54C172.907 161.82 172.62 162.753 172.047 163.34C171.474 163.913 170.474 164.2 169.047 164.2C168.26 164.2 167.547 164.167 166.907 164.1C166.28 164.047 165.747 163.967 165.307 163.86V161.26C165.64 161.34 166.1 161.413 166.687 161.48C167.287 161.533 167.894 161.56 168.507 161.56C169.054 161.56 169.42 161.507 169.607 161.4C169.807 161.28 169.907 161.06 169.907 160.74C169.907 160.633 169.874 160.547 169.807 160.48C169.74 160.4 169.654 160.353 169.547 160.34L167.087 160.02C166.367 159.927 165.84 159.667 165.507 159.24C165.187 158.8 165.027 158.153 165.027 157.3C165.027 156.18 165.38 155.34 166.087 154.78C166.794 154.207 167.84 153.92 169.227 153.92C169.774 153.92 170.28 153.933 170.747 153.96C171.214 153.987 171.707 154.04 172.227 154.12V156.62C171.894 156.567 171.48 156.527 170.987 156.5C170.494 156.473 169.974 156.46 169.427 156.46ZM181.555 160.98V163.46C181.235 163.66 180.715 163.833 179.995 163.98C179.275 164.127 178.535 164.2 177.775 164.2C176.335 164.2 175.322 163.82 174.735 163.06C174.162 162.287 173.875 160.953 173.875 159.06C173.875 157.167 174.249 155.84 174.995 155.08C175.742 154.307 177.049 153.92 178.915 153.92C179.369 153.92 179.775 153.933 180.135 153.96C180.495 153.973 180.882 154.007 181.295 154.06V156.72C180.642 156.667 180.169 156.64 179.875 156.64C179.582 156.627 179.262 156.62 178.915 156.62C177.995 156.62 177.422 156.753 177.195 157.02C176.982 157.273 176.875 157.953 176.875 159.06C176.875 160.06 176.962 160.7 177.135 160.98C177.322 161.26 177.742 161.4 178.395 161.4C178.929 161.4 179.482 161.36 180.055 161.28C180.642 161.2 181.142 161.1 181.555 160.98ZM185.79 164H182.79V154.12H185.59L185.69 154.88H185.73C186.21 154.587 186.696 154.367 187.19 154.22C187.696 154.06 188.17 153.98 188.61 153.98H188.77V156.88C188.65 156.853 188.516 156.84 188.37 156.84C188.236 156.827 188.063 156.82 187.85 156.82C187.463 156.82 187.096 156.847 186.75 156.9C186.403 156.94 186.083 157.007 185.79 157.1V164ZM197.884 161.08V163.46C197.564 163.66 197.024 163.833 196.264 163.98C195.504 164.127 194.704 164.2 193.864 164.2C192.264 164.2 191.11 163.8 190.404 163C189.697 162.187 189.344 160.873 189.344 159.06C189.344 157.287 189.717 155.987 190.464 155.16C191.21 154.333 192.39 153.92 194.004 153.92C195.577 153.92 196.684 154.233 197.324 154.86C197.977 155.473 198.304 156.567 198.304 158.14C198.304 158.567 198.297 158.907 198.284 159.16C198.27 159.413 198.244 159.707 198.204 160.04H192.364C192.377 160.587 192.524 160.967 192.804 161.18C193.084 161.393 193.597 161.5 194.344 161.5C194.984 161.5 195.637 161.46 196.304 161.38C196.97 161.287 197.497 161.187 197.884 161.08ZM194.004 156.48C193.364 156.48 192.93 156.593 192.704 156.82C192.477 157.033 192.364 157.46 192.364 158.1H195.584V157.66C195.57 157.193 195.457 156.88 195.244 156.72C195.044 156.56 194.63 156.48 194.004 156.48ZM202.684 164H199.684V154.12H202.284L202.404 155.16H202.464C202.891 154.72 203.351 154.407 203.844 154.22C204.351 154.02 204.958 153.92 205.664 153.92C206.784 153.92 207.631 154.193 208.204 154.74C208.778 155.287 209.064 156.093 209.064 157.16V164H206.064V157.56C206.064 157.253 205.938 157.02 205.684 156.86C205.444 156.7 205.084 156.62 204.604 156.62C204.244 156.62 203.898 156.66 203.564 156.74C203.231 156.82 202.938 156.933 202.684 157.08V164ZM214.716 164.68C215.182 164.68 215.522 164.613 215.736 164.48C215.962 164.36 216.116 164.133 216.196 163.8L212.476 154.12H215.816L217.716 160.88L219.516 154.12H222.736L219.216 164.2C218.842 165.28 218.349 166.053 217.736 166.52C217.136 167 216.336 167.24 215.336 167.24C215.056 167.24 214.762 167.227 214.456 167.2C214.162 167.173 213.896 167.133 213.656 167.08V164.64C213.762 164.653 213.882 164.66 214.016 164.66C214.149 164.673 214.382 164.68 214.716 164.68ZM232.639 159.06C232.639 160.913 232.266 162.233 231.519 163.02C230.772 163.807 229.519 164.2 227.759 164.2C225.999 164.2 224.746 163.807 223.999 163.02C223.252 162.233 222.879 160.913 222.879 159.06C222.879 157.207 223.252 155.887 223.999 155.1C224.746 154.313 225.999 153.92 227.759 153.92C229.519 153.92 230.772 154.313 231.519 155.1C232.266 155.887 232.639 157.207 232.639 159.06ZM225.879 159.02C225.879 160.033 225.986 160.687 226.199 160.98C226.426 161.273 226.946 161.42 227.759 161.42C228.572 161.42 229.086 161.273 229.299 160.98C229.526 160.687 229.639 160.033 229.639 159.02C229.639 158.007 229.526 157.353 229.299 157.06C229.086 156.767 228.572 156.62 227.759 156.62C226.946 156.62 226.426 156.767 226.199 157.06C225.986 157.353 225.879 158.007 225.879 159.02ZM237.301 164.2C236.181 164.2 235.341 163.927 234.781 163.38C234.234 162.82 233.961 161.98 233.961 160.86V154.12H236.961V160.46C236.961 160.793 237.061 161.033 237.261 161.18C237.461 161.327 237.781 161.4 238.221 161.4C238.474 161.4 238.741 161.38 239.021 161.34C239.314 161.3 239.607 161.24 239.901 161.16V154.12H242.901V164H240.101L240.021 163.46H239.981C239.514 163.687 239.041 163.867 238.561 164C238.094 164.133 237.674 164.2 237.301 164.2ZM247.626 164H244.626V154.12H247.426L247.526 154.88H247.566C248.046 154.587 248.532 154.367 249.026 154.22C249.532 154.06 250.006 153.98 250.446 153.98H250.606V156.88C250.486 156.853 250.352 156.84 250.206 156.84C250.072 156.827 249.899 156.82 249.686 156.82C249.299 156.82 248.932 156.847 248.586 156.9C248.239 156.94 247.919 157.007 247.626 157.1V164ZM152.86 191.04H149.86V178.12H152.5L152.66 179.04H152.7C153.06 178.667 153.487 178.387 153.98 178.2C154.487 178.013 155.06 177.92 155.7 177.92C157.007 177.92 157.933 178.313 158.48 179.1C159.04 179.887 159.32 181.207 159.32 183.06C159.32 184.86 158.967 186.167 158.26 186.98C157.567 187.793 156.433 188.2 154.86 188.2C154.473 188.2 154.107 188.173 153.76 188.12C153.427 188.08 153.127 188.02 152.86 187.94V191.04ZM156.32 183.06C156.32 182.06 156.213 181.407 156 181.1C155.787 180.78 155.327 180.62 154.62 180.62C154.273 180.62 153.947 180.647 153.64 180.7C153.347 180.753 153.087 180.833 152.86 180.94V185.16C153.06 185.253 153.287 185.32 153.54 185.36C153.807 185.4 154.107 185.42 154.44 185.42C155.253 185.42 155.767 185.28 155.98 185C156.207 184.707 156.32 184.06 156.32 183.06ZM163.68 188H160.68V178.12H163.48L163.58 178.88H163.62C164.1 178.587 164.587 178.367 165.08 178.22C165.587 178.06 166.06 177.98 166.5 177.98H166.66V180.88C166.54 180.853 166.407 180.84 166.26 180.84C166.127 180.827 165.954 180.82 165.74 180.82C165.354 180.82 164.987 180.847 164.64 180.9C164.294 180.94 163.974 181.007 163.68 181.1V188ZM175.774 185.08V187.46C175.454 187.66 174.914 187.833 174.154 187.98C173.394 188.127 172.594 188.2 171.754 188.2C170.154 188.2 169.001 187.8 168.294 187C167.588 186.187 167.234 184.873 167.234 183.06C167.234 181.287 167.608 179.987 168.354 179.16C169.101 178.333 170.281 177.92 171.894 177.92C173.468 177.92 174.574 178.233 175.214 178.86C175.868 179.473 176.194 180.567 176.194 182.14C176.194 182.567 176.188 182.907 176.174 183.16C176.161 183.413 176.134 183.707 176.094 184.04H170.254C170.268 184.587 170.414 184.967 170.694 185.18C170.974 185.393 171.488 185.5 172.234 185.5C172.874 185.5 173.528 185.46 174.194 185.38C174.861 185.287 175.388 185.187 175.774 185.08ZM171.894 180.48C171.254 180.48 170.821 180.593 170.594 180.82C170.368 181.033 170.254 181.46 170.254 182.1H173.474V181.66C173.461 181.193 173.348 180.88 173.134 180.72C172.934 180.56 172.521 180.48 171.894 180.48ZM181.595 180.46C181.035 180.46 180.655 180.507 180.455 180.6C180.268 180.68 180.175 180.873 180.175 181.18C180.175 181.3 180.208 181.4 180.275 181.48C180.355 181.547 180.462 181.587 180.595 181.6L182.975 181.92C183.748 182.027 184.288 182.28 184.595 182.68C184.915 183.067 185.075 183.687 185.075 184.54C185.075 185.82 184.788 186.753 184.215 187.34C183.642 187.913 182.642 188.2 181.215 188.2C180.428 188.2 179.715 188.167 179.075 188.1C178.448 188.047 177.915 187.967 177.475 187.86V185.26C177.808 185.34 178.268 185.413 178.855 185.48C179.455 185.533 180.062 185.56 180.675 185.56C181.222 185.56 181.588 185.507 181.775 185.4C181.975 185.28 182.075 185.06 182.075 184.74C182.075 184.633 182.042 184.547 181.975 184.48C181.908 184.4 181.822 184.353 181.715 184.34L179.255 184.02C178.535 183.927 178.008 183.667 177.675 183.24C177.355 182.8 177.195 182.153 177.195 181.3C177.195 180.18 177.548 179.34 178.255 178.78C178.962 178.207 180.008 177.92 181.395 177.92C181.942 177.92 182.448 177.933 182.915 177.96C183.382 177.987 183.875 178.04 184.395 178.12V180.62C184.062 180.567 183.648 180.527 183.155 180.5C182.662 180.473 182.142 180.46 181.595 180.46ZM194.563 185.08V187.46C194.243 187.66 193.703 187.833 192.943 187.98C192.183 188.127 191.383 188.2 190.543 188.2C188.943 188.2 187.79 187.8 187.083 187C186.377 186.187 186.023 184.873 186.023 183.06C186.023 181.287 186.397 179.987 187.143 179.16C187.89 178.333 189.07 177.92 190.683 177.92C192.257 177.92 193.363 178.233 194.003 178.86C194.657 179.473 194.983 180.567 194.983 182.14C194.983 182.567 194.977 182.907 194.963 183.16C194.95 183.413 194.923 183.707 194.883 184.04H189.043C189.057 184.587 189.203 184.967 189.483 185.18C189.763 185.393 190.277 185.5 191.023 185.5C191.663 185.5 192.317 185.46 192.983 185.38C193.65 185.287 194.177 185.187 194.563 185.08ZM190.683 180.48C190.043 180.48 189.61 180.593 189.383 180.82C189.157 181.033 189.043 181.46 189.043 182.1H192.263V181.66C192.25 181.193 192.137 180.88 191.923 180.72C191.723 180.56 191.31 180.48 190.683 180.48ZM199.364 188H196.364V178.12H198.964L199.084 179.16H199.144C199.571 178.72 200.031 178.407 200.524 178.22C201.031 178.02 201.637 177.92 202.344 177.92C203.464 177.92 204.311 178.193 204.884 178.74C205.457 179.287 205.744 180.093 205.744 181.16V188H202.744V181.56C202.744 181.253 202.617 181.02 202.364 180.86C202.124 180.7 201.764 180.62 201.284 180.62C200.924 180.62 200.577 180.66 200.244 180.74C199.911 180.82 199.617 180.933 199.364 181.08V188ZM214.759 184.98V187.46C214.439 187.66 213.919 187.833 213.199 187.98C212.479 188.127 211.739 188.2 210.979 188.2C209.539 188.2 208.525 187.82 207.939 187.06C207.365 186.287 207.079 184.953 207.079 183.06C207.079 181.167 207.452 179.84 208.199 179.08C208.945 178.307 210.252 177.92 212.119 177.92C212.572 177.92 212.979 177.933 213.339 177.96C213.699 177.973 214.085 178.007 214.499 178.06V180.72C213.845 180.667 213.372 180.64 213.079 180.64C212.785 180.627 212.465 180.62 212.119 180.62C211.199 180.62 210.625 180.753 210.399 181.02C210.185 181.273 210.079 181.953 210.079 183.06C210.079 184.06 210.165 184.7 210.339 184.98C210.525 185.26 210.945 185.4 211.599 185.4C212.132 185.4 212.685 185.36 213.259 185.28C213.845 185.2 214.345 185.1 214.759 184.98ZM224.173 185.08V187.46C223.853 187.66 223.313 187.833 222.553 187.98C221.793 188.127 220.993 188.2 220.153 188.2C218.553 188.2 217.399 187.8 216.693 187C215.986 186.187 215.633 184.873 215.633 183.06C215.633 181.287 216.006 179.987 216.753 179.16C217.499 178.333 218.679 177.92 220.293 177.92C221.866 177.92 222.973 178.233 223.613 178.86C224.266 179.473 224.593 180.567 224.593 182.14C224.593 182.567 224.586 182.907 224.573 183.16C224.559 183.413 224.533 183.707 224.493 184.04H218.653C218.666 184.587 218.813 184.967 219.093 185.18C219.373 185.393 219.886 185.5 220.633 185.5C221.273 185.5 221.926 185.46 222.593 185.38C223.259 185.287 223.786 185.187 224.173 185.08ZM220.293 180.48C219.653 180.48 219.219 180.593 218.993 180.82C218.766 181.033 218.653 181.46 218.653 182.1H221.873V181.66C221.859 181.193 221.746 180.88 221.533 180.72C221.333 180.56 220.919 180.48 220.293 180.48ZM232.022 177.04H228.862V174.7H232.022V177.04ZM231.942 188H228.942V178.12H231.942V188ZM236.669 188H233.669V178.12H236.269L236.389 179.16H236.449C236.875 178.72 237.335 178.407 237.829 178.22C238.335 178.02 238.942 177.92 239.649 177.92C240.769 177.92 241.615 178.193 242.189 178.74C242.762 179.287 243.049 180.093 243.049 181.16V188H240.049V181.56C240.049 181.253 239.922 181.02 239.669 180.86C239.429 180.7 239.069 180.62 238.589 180.62C238.229 180.62 237.882 180.66 237.549 180.74C237.215 180.82 236.922 180.933 236.669 181.08V188ZM248.332 180.62H247.172V178.12H248.432L248.812 175.82H251.332V178.12H254.132V180.62H251.332V184.46C251.332 184.833 251.425 185.087 251.612 185.22C251.812 185.34 252.199 185.4 252.772 185.4C252.972 185.4 253.219 185.387 253.512 185.36C253.805 185.32 254.052 185.28 254.252 185.24V187.8C254.039 187.893 253.705 187.98 253.252 188.06C252.812 188.153 252.419 188.2 252.072 188.2C250.739 188.2 249.779 187.92 249.192 187.36C248.619 186.787 248.332 185.86 248.332 184.58V180.62ZM258.309 188H255.309V174.7H258.309V178.82C258.803 178.54 259.309 178.32 259.829 178.16C260.363 178 260.869 177.92 261.349 177.92C262.469 177.92 263.303 178.187 263.849 178.72C264.409 179.253 264.689 180.067 264.689 181.16V188H261.689V181.56C261.689 181.227 261.589 180.987 261.389 180.84C261.189 180.693 260.869 180.62 260.429 180.62C260.096 180.62 259.743 180.653 259.369 180.72C258.996 180.773 258.643 180.847 258.309 180.94V188ZM274.544 185.08V187.46C274.224 187.66 273.684 187.833 272.924 187.98C272.164 188.127 271.364 188.2 270.524 188.2C268.924 188.2 267.771 187.8 267.064 187C266.357 186.187 266.004 184.873 266.004 183.06C266.004 181.287 266.377 179.987 267.124 179.16C267.871 178.333 269.051 177.92 270.664 177.92C272.237 177.92 273.344 178.233 273.984 178.86C274.637 179.473 274.964 180.567 274.964 182.14C274.964 182.567 274.957 182.907 274.944 183.16C274.931 183.413 274.904 183.707 274.864 184.04H269.024C269.037 184.587 269.184 184.967 269.464 185.18C269.744 185.393 270.257 185.5 271.004 185.5C271.644 185.5 272.297 185.46 272.964 185.38C273.631 185.287 274.157 185.187 274.544 185.08ZM270.664 180.48C270.024 180.48 269.591 180.593 269.364 180.82C269.137 181.033 269.024 181.46 269.024 182.1H272.244V181.66C272.231 181.193 272.117 180.88 271.904 180.72C271.704 180.56 271.291 180.48 270.664 180.48ZM152.86 212H149.86V202.12H152.66L152.76 202.86H152.82C153.313 202.553 153.787 202.32 154.24 202.16C154.693 202 155.127 201.92 155.54 201.92C156.087 201.92 156.553 202.007 156.94 202.18C157.327 202.34 157.633 202.587 157.86 202.92H157.94C158.393 202.613 158.9 202.373 159.46 202.2C160.033 202.013 160.58 201.92 161.1 201.92C162.073 201.92 162.793 202.187 163.26 202.72C163.74 203.253 163.98 204.067 163.98 205.16V212H160.98V205.56C160.98 205.227 160.887 204.987 160.7 204.84C160.513 204.693 160.22 204.62 159.82 204.62C159.607 204.62 159.38 204.64 159.14 204.68C158.9 204.72 158.66 204.78 158.42 204.86V212H155.42V205.56C155.42 205.227 155.327 204.987 155.14 204.84C154.953 204.693 154.66 204.62 154.26 204.62C154.047 204.62 153.82 204.64 153.58 204.68C153.34 204.72 153.1 204.78 152.86 204.86V212ZM168.061 212.2C167.047 212.2 166.301 211.947 165.821 211.44C165.354 210.933 165.121 210.133 165.121 209.04C165.121 207.92 165.401 207.133 165.961 206.68C166.534 206.227 167.514 206 168.901 206C169.221 206 169.547 206.02 169.881 206.06C170.227 206.087 170.527 206.127 170.781 206.18V205.46C170.781 205.14 170.641 204.907 170.361 204.76C170.094 204.6 169.681 204.52 169.121 204.52C168.481 204.52 167.907 204.54 167.401 204.58C166.907 204.607 166.454 204.66 166.041 204.74V202.28C166.534 202.16 167.107 202.073 167.761 202.02C168.414 201.953 169.174 201.92 170.041 201.92C171.267 201.92 172.194 202.193 172.821 202.74C173.461 203.287 173.781 204.093 173.781 205.16V212H170.981L170.881 211.16H170.821C170.407 211.48 169.954 211.733 169.461 211.92C168.967 212.107 168.501 212.2 168.061 212.2ZM169.301 207.98C168.767 207.98 168.407 208.04 168.221 208.16C168.034 208.267 167.941 208.5 167.941 208.86C167.941 209.193 168.014 209.427 168.161 209.56C168.321 209.68 168.594 209.74 168.981 209.74C169.274 209.74 169.581 209.7 169.901 209.62C170.221 209.54 170.514 209.44 170.781 209.32V208.1C170.621 208.06 170.421 208.033 170.181 208.02C169.941 207.993 169.647 207.98 169.301 207.98ZM178.465 212H175.465V202.12H178.265L178.365 202.88H178.405C178.885 202.587 179.372 202.367 179.865 202.22C180.372 202.06 180.845 201.98 181.285 201.98H181.445V204.88C181.325 204.853 181.192 204.84 181.045 204.84C180.912 204.827 180.739 204.82 180.525 204.82C180.139 204.82 179.772 204.847 179.425 204.9C179.079 204.94 178.759 205.007 178.465 205.1V212ZM185.575 208.16V212H182.575V198.7H185.575V205.84H186.035L188.535 202.12H192.095L188.615 206.88L192.295 212H188.635L186.035 208.16H185.575ZM200.501 209.08V211.46C200.181 211.66 199.641 211.833 198.881 211.98C198.121 212.127 197.321 212.2 196.481 212.2C194.881 212.2 193.728 211.8 193.021 211C192.314 210.187 191.961 208.873 191.961 207.06C191.961 205.287 192.334 203.987 193.081 203.16C193.828 202.333 195.008 201.92 196.621 201.92C198.194 201.92 199.301 202.233 199.941 202.86C200.594 203.473 200.921 204.567 200.921 206.14C200.921 206.567 200.914 206.907 200.901 207.16C200.888 207.413 200.861 207.707 200.821 208.04H194.981C194.994 208.587 195.141 208.967 195.421 209.18C195.701 209.393 196.214 209.5 196.961 209.5C197.601 209.5 198.254 209.46 198.921 209.38C199.588 209.287 200.114 209.187 200.501 209.08ZM196.621 204.48C195.981 204.48 195.548 204.593 195.321 204.82C195.094 205.033 194.981 205.46 194.981 206.1H198.201V205.66C198.188 205.193 198.074 204.88 197.861 204.72C197.661 204.56 197.248 204.48 196.621 204.48ZM202.863 204.62H201.703V202.12H202.963L203.343 199.82H205.863V202.12H208.663V204.62H205.863V208.46C205.863 208.833 205.957 209.087 206.143 209.22C206.343 209.34 206.73 209.4 207.303 209.4C207.503 209.4 207.75 209.387 208.043 209.36C208.337 209.32 208.583 209.28 208.783 209.24V211.8C208.57 211.893 208.237 211.98 207.783 212.06C207.343 212.153 206.95 212.2 206.603 212.2C205.27 212.2 204.31 211.92 203.723 211.36C203.15 210.787 202.863 209.86 202.863 208.58V204.62ZM212.46 212H209.56V209.24H212.46V212Z" fill="white"/>
<defs>
<filter id="filter0_dd" x="-0.000244141" y="44" width="72.6984" height="186" filterUnits="userSpaceOnUse" color-interpolation-filters="sRGB">
<feFlood flood-opacity="0" result="BackgroundImageFix"/>
<feColorMatrix in="SourceAlpha" type="matrix" values="0 0 0 0 0 0 0 0 0 0 0 0 0 0 0 0 0 0 127 0"/>
<feOffset dx="4" dy="4"/>
<feGaussianBlur stdDeviation="4"/>
<feColorMatrix type="matrix" values="0 0 0 0 0.631748 0 0 0 0 0.758333 0 0 0 0 0.521354 0 0 0 0.75 0"/>
<feBlend mode="normal" in2="BackgroundImageFix" result="effect1_dropShadow"/>
<feColorMatrix in="SourceAlpha" type="matrix" values="0 0 0 0 0 0 0 0 0 0 0 0 0 0 0 0 0 0 127 0"/>
<feOffset dx="-4" dy="-4"/>
<feGaussianBlur stdDeviation="2"/>
<feColorMatrix type="matrix" values="0 0 0 0 1 0 0 0 0 1 0 0 0 0 1 0 0 0 0.25 0"/>
<feBlend mode="normal" in2="effect1_dropShadow" result="effect2_dropShadow"/>
<feBlend mode="normal" in="SourceGraphic" in2="effect2_dropShadow" result="shape"/>
</filter>
<filter id="filter1_dd" x="98" y="0" width="241" height="274" filterUnits="userSpaceOnUse" color-interpolation-filters="sRGB">
<feFlood flood-opacity="0" result="BackgroundImageFix"/>
<feColorMatrix in="SourceAlpha" type="matrix" values="0 0 0 0 0 0 0 0 0 0 0 0 0 0 0 0 0 0 127 0"/>
<feOffset dx="4" dy="4"/>
<feGaussianBlur stdDeviation="4"/>
<feColorMatrix type="matrix" values="0 0 0 0 0.631748 0 0 0 0 0.758333 0 0 0 0 0.521354 0 0 0 0.75 0"/>
<feBlend mode="normal" in2="BackgroundImageFix" result="effect1_dropShadow"/>
<feColorMatrix in="SourceAlpha" type="matrix" values="0 0 0 0 0 0 0 0 0 0 0 0 0 0 0 0 0 0 127 0"/>
<feOffset dx="-4" dy="-4"/>
<feGaussianBlur stdDeviation="2"/>
<feColorMatrix type="matrix" values="0 0 0 0 1 0 0 0 0 1 0 0 0 0 1 0 0 0 0.25 0"/>
<feBlend mode="normal" in2="effect1_dropShadow" result="effect2_dropShadow"/>
<feBlend mode="normal" in="SourceGraphic" in2="effect2_dropShadow" result="shape"/>
</filter>
<clipPath id="clip0">
<rect width="18.9714" height="20.0254" fill="white" transform="matrix(-1 0 0 1 44.3618 72.0234)"/>
</clipPath>
<clipPath id="clip1">
<rect width="20.0254" height="20.0254" fill="white" transform="matrix(-1 0 0 1 44.0981 107.07)"/>
</clipPath>
<clipPath id="clip2">
<rect width="20.5524" height="20.0254" fill="white" transform="matrix(-1 0 0 1 44.8887 142.113)"/>
</clipPath>
<clipPath id="clip3">
<rect width="20.5524" height="20.5524" fill="white" transform="matrix(-1 0 0 1 44.6252 177.16)"/>
</clipPath>
</defs>
</svg>
