<svg width="340" height="274" viewBox="0 0 340 274" fill="none" xmlns="http://www.w3.org/2000/svg">
<g filter="url(#filter0_dd)">
<rect x="327.333" y="219" width="53.3333" height="168" rx="10" transform="rotate(-180 327.333 219)" fill="#97ED4C"/>
</g>
<g clip-path="url(#clip0)">
<path d="M297.598 80.0016C294.473 79.9845 291.887 73.9082 291.887 70.8138C291.887 65.7589 295.869 64.6523 297.404 64.6523C298.095 64.6523 298.833 64.9109 299.485 65.1398C299.94 65.2994 300.411 65.4642 300.673 65.4642C300.83 65.4642 301.199 65.324 301.526 65.201C302.221 64.9372 303.087 64.6094 304.095 64.6094C304.097 64.6094 304.1 64.6094 304.101 64.6094C304.854 64.6094 307.137 64.7667 308.509 66.7294L308.83 67.1894L308.368 67.5219C307.707 67.9968 306.501 68.8631 306.501 70.5792C306.501 72.6116 307.867 73.3933 308.523 73.7692C308.812 73.9352 309.112 74.1062 309.112 74.4805C309.112 74.7248 307.065 79.9713 304.091 79.9713C303.364 79.9713 302.849 79.763 302.396 79.5794C301.937 79.3934 301.541 79.2332 300.886 79.2332C300.555 79.2332 300.135 79.3825 299.691 79.5411C299.085 79.7567 298.398 80.0016 297.619 80.0016H297.598Z" fill="white"/>
<path d="M304.41 60C304.488 62.6592 302.491 64.5041 300.496 64.3884C300.168 62.2662 302.491 60 304.41 60Z" fill="white"/>
</g>
<g clip-path="url(#clip1)">
<path fill-rule="evenodd" clip-rule="evenodd" d="M304.605 100.752L303.5 101.89C304.775 102.844 305.6 104.384 305.6 106.125H295.4C295.4 104.384 296.224 102.853 297.482 101.899L296.369 100.752C296.199 100.577 296.199 100.306 296.369 100.131C296.539 99.9563 296.802 99.9563 296.972 100.131L298.239 101.426C298.919 101.076 299.684 100.875 300.5 100.875C301.307 100.875 302.072 101.076 302.744 101.426L304.002 100.131C304.172 99.9563 304.435 99.9563 304.605 100.131C304.775 100.306 304.775 100.577 304.605 100.752ZM292 108.312C292 107.586 292.569 107 293.275 107C293.98 107 294.55 107.586 294.55 108.312V114.438C294.55 115.164 293.98 115.75 293.275 115.75C292.569 115.75 292 115.164 292 114.438V108.312ZM296.25 116.625C295.782 116.625 295.4 116.231 295.4 115.75V107H305.6V115.75C305.6 116.231 305.217 116.625 304.75 116.625H303.9V119.688C303.9 120.414 303.33 121 302.625 121C301.919 121 301.35 120.414 301.35 119.688V116.625H299.65V119.688C299.65 120.414 299.08 121 298.375 121C297.669 121 297.1 120.414 297.1 119.688V116.625H296.25ZM307.725 107C307.019 107 306.45 107.586 306.45 108.312V114.438C306.45 115.164 307.019 115.75 307.725 115.75C308.43 115.75 309 115.164 309 114.438V108.312C309 107.586 308.43 107 307.725 107ZM298.8 104.375H297.95V103.5H298.8V104.375ZM302.2 104.375H303.05V103.5H302.2V104.375Z" fill="white"/>
</g>
<path d="M308.165 156.782C308.694 156.782 309.14 156.313 309.14 155.751V145.457C309.14 144.895 308.714 144.426 308.165 144.426H291.834C291.306 144.426 290.859 144.895 290.859 145.457V155.751C290.859 156.313 291.286 156.782 291.834 156.782H308.165Z" fill="#C1BEC2"/>
<path d="M290.859 145.812H309.14V154.831H290.859V145.812Z" fill="white"/>
<path d="M304.611 150.39L302.234 149.302C302.051 149.227 301.848 149.283 301.767 149.452C301.686 149.621 301.746 149.808 301.929 149.883L303.656 150.69L301.909 151.477C301.726 151.552 301.665 151.758 301.746 151.908C301.807 152.021 301.929 152.096 302.071 152.096C302.132 152.096 302.173 152.077 302.234 152.058L304.611 150.971C304.732 150.915 304.814 150.802 304.814 150.671C304.814 150.54 304.732 150.446 304.611 150.39Z" fill="#C1BEC2"/>
<path d="M298.253 149.452C298.171 149.283 297.948 149.227 297.785 149.302L295.409 150.39C295.287 150.446 295.206 150.558 295.206 150.69C295.206 150.821 295.287 150.933 295.409 150.99L297.765 152.077C297.826 152.096 297.867 152.115 297.928 152.115C298.05 152.115 298.192 152.04 298.253 151.927C298.334 151.758 298.273 151.571 298.09 151.496L296.343 150.69L298.09 149.902C298.273 149.808 298.334 149.621 298.253 149.452Z" fill="#C1BEC2"/>
<path d="M301.015 148.513C300.832 148.438 300.629 148.513 300.548 148.682L298.781 152.545C298.7 152.713 298.781 152.901 298.964 152.976C299.004 152.995 299.065 152.995 299.106 152.995C299.248 152.995 299.37 152.92 299.431 152.788L301.218 148.945C301.279 148.776 301.198 148.57 301.015 148.513Z" fill="#C1BEC2"/>
<path d="M298.233 156.781L297.969 159.575H302.031L301.767 156.781H298.233Z" fill="white"/>
<path d="M303.717 159.894C303.92 159.894 304.082 159.744 304.082 159.556C304.082 159.369 303.92 159.219 303.717 159.219H296.282C296.079 159.219 295.917 159.369 295.917 159.556C295.917 159.744 296.079 159.894 296.282 159.894H303.717Z" fill="#BCAFD6"/>
<g clip-path="url(#clip2)">
<path d="M309.969 191.242L308.044 190.472C307.949 190.433 307.878 190.352 307.852 190.253C307.685 189.599 307.425 188.973 307.079 188.394C307.027 188.306 307.02 188.198 307.06 188.103L307.878 186.194C307.72 186.007 307.548 185.82 307.364 185.636C307.181 185.453 306.994 185.281 306.806 185.122L304.896 185.94C304.802 185.98 304.694 185.973 304.605 185.92C304.026 185.575 303.401 185.315 302.747 185.147C302.648 185.122 302.566 185.051 302.528 184.956L301.758 183.031C301.253 182.99 300.746 182.99 300.242 183.031L299.471 184.956C299.433 185.051 299.352 185.122 299.252 185.147C298.599 185.314 297.973 185.575 297.394 185.92C297.306 185.973 297.197 185.98 297.103 185.94L295.194 185.122C295.006 185.281 294.818 185.453 294.636 185.636C294.452 185.82 294.279 186.007 294.122 186.194L294.939 188.103C294.98 188.198 294.973 188.306 294.92 188.394C294.575 188.973 294.314 189.599 294.147 190.253C294.122 190.352 294.05 190.433 293.955 190.472L292.031 191.242C292.01 191.486 292 191.74 292 192C292 192.26 292.01 192.514 292.031 192.758L293.955 193.528C294.05 193.567 294.122 193.648 294.147 193.747C294.314 194.401 294.575 195.027 294.92 195.606C294.973 195.694 294.98 195.802 294.94 195.897L294.122 197.806C294.28 197.993 294.452 198.18 294.636 198.364C294.819 198.547 295.006 198.719 295.194 198.878L297.103 198.06C297.198 198.02 297.306 198.027 297.394 198.08C297.973 198.425 298.599 198.686 299.252 198.853C299.352 198.878 299.433 198.949 299.471 199.044L300.242 200.969C300.746 201.01 301.253 201.01 301.758 200.969L302.528 199.044C302.567 198.949 302.648 198.878 302.747 198.853C303.401 198.686 304.026 198.425 304.606 198.08C304.694 198.027 304.802 198.02 304.897 198.06L306.806 198.878C306.994 198.719 307.181 198.547 307.364 198.364C307.548 198.18 307.72 197.993 307.878 197.806L307.06 195.897C307.02 195.802 307.027 195.694 307.079 195.606C307.425 195.027 307.685 194.401 307.853 193.747C307.878 193.648 307.949 193.567 308.044 193.528L309.969 192.758C309.989 192.514 310 192.26 310 192C310 191.74 309.989 191.486 309.969 191.242ZM301 198.107C297.627 198.107 294.893 195.373 294.893 192C294.893 188.627 297.627 185.893 301 185.893C304.373 185.893 307.107 188.627 307.107 192C307.103 195.371 304.371 198.103 301 198.107Z" fill="white"/>
<path d="M301 186.535C297.982 186.535 295.535 188.982 295.535 191.999C295.535 195.017 297.982 197.464 301 197.464C304.018 197.464 306.464 195.017 306.464 191.999C306.461 188.983 304.016 186.539 301 186.535ZM299.384 193.691C299.354 193.803 299.267 193.89 299.155 193.919C299.044 193.949 298.925 193.916 298.844 193.834L297.237 192.227C297.176 192.166 297.143 192.085 297.143 191.999C297.143 191.914 297.176 191.832 297.237 191.772L298.844 190.165C298.97 190.041 299.172 190.042 299.297 190.167C299.422 190.291 299.423 190.494 299.298 190.62L297.919 191.999L299.298 193.379C299.381 193.46 299.413 193.579 299.384 193.691ZM301.952 189.838L300.666 194.338C300.626 194.476 300.5 194.571 300.357 194.571C300.327 194.571 300.297 194.567 300.268 194.559C300.098 194.51 299.999 194.332 300.048 194.161L301.334 189.661C301.365 189.551 301.453 189.466 301.564 189.438C301.676 189.41 301.794 189.443 301.873 189.526C301.953 189.608 301.983 189.727 301.952 189.838ZM304.763 192.227L303.156 193.834C303.03 193.957 302.828 193.957 302.703 193.832C302.578 193.707 302.577 193.505 302.701 193.379L304.081 191.999L302.701 190.62C302.577 190.494 302.578 190.291 302.702 190.166C302.827 190.042 303.03 190.041 303.156 190.165L304.763 191.772C304.823 191.832 304.857 191.914 304.857 191.999C304.857 192.085 304.823 192.166 304.763 192.227Z" fill="white"/>
</g>
<g filter="url(#filter1_dd)">
<rect x="229" y="262" width="221" height="254" rx="10" transform="rotate(-180 229 262)" fill="#34C25E"/>
</g>
<path d="M47.073 127.203H43.813L48.453 114.663H51.673L56.193 127.203H52.953L52.293 125.103H47.733L47.073 127.203ZM49.993 117.743C49.8864 118.116 49.7664 118.516 49.633 118.943C49.513 119.356 49.3064 120.036 49.013 120.983L48.493 122.643H51.513L50.993 120.983C50.8197 120.476 50.6464 119.943 50.473 119.383C50.2997 118.81 50.1397 118.263 49.993 117.743ZM62.6549 130.243H59.6549V117.323H62.2949L62.4549 118.243H62.4949C62.8549 117.87 63.2816 117.59 63.7749 117.403C64.2816 117.216 64.8549 117.123 65.4949 117.123C66.8016 117.123 67.7283 117.516 68.2749 118.303C68.8349 119.09 69.1149 120.41 69.1149 122.263C69.1149 124.063 68.7616 125.37 68.0549 126.183C67.3616 126.996 66.2283 127.403 64.6549 127.403C64.2683 127.403 63.9016 127.376 63.5549 127.323C63.2216 127.283 62.9216 127.223 62.6549 127.143V130.243ZM66.1149 122.263C66.1149 121.263 66.0083 120.61 65.7949 120.303C65.5816 119.983 65.1216 119.823 64.4149 119.823C64.0683 119.823 63.7416 119.85 63.4349 119.903C63.1416 119.956 62.8816 120.036 62.6549 120.143V124.363C62.8549 124.456 63.0816 124.523 63.3349 124.563C63.6016 124.603 63.9016 124.623 64.2349 124.623C65.0483 124.623 65.5616 124.483 65.7749 124.203C66.0016 123.91 66.1149 123.263 66.1149 122.263ZM79.8752 122.263C79.8752 124.116 79.5019 125.436 78.7552 126.223C78.0086 127.01 76.7552 127.403 74.9952 127.403C73.2352 127.403 71.9819 127.01 71.2352 126.223C70.4886 125.436 70.1152 124.116 70.1152 122.263C70.1152 120.41 70.4886 119.09 71.2352 118.303C71.9819 117.516 73.2352 117.123 74.9952 117.123C76.7552 117.123 78.0086 117.516 78.7552 118.303C79.5019 119.09 79.8752 120.41 79.8752 122.263ZM73.1152 122.223C73.1152 123.236 73.2219 123.89 73.4352 124.183C73.6619 124.476 74.1819 124.623 74.9952 124.623C75.8086 124.623 76.3219 124.476 76.5352 124.183C76.7619 123.89 76.8752 123.236 76.8752 122.223C76.8752 121.21 76.7619 120.556 76.5352 120.263C76.3219 119.97 75.8086 119.823 74.9952 119.823C74.1819 119.823 73.6619 119.97 73.4352 120.263C73.2219 120.556 73.1152 121.21 73.1152 122.223ZM91.7021 117.323H94.9821L92.3421 127.203H88.8221L87.4621 121.563L86.3021 127.203H82.8621L80.2021 117.323H83.5021L84.6621 124.483L86.2021 117.323H88.9821L90.5421 124.483L91.7021 117.323ZM103.87 124.283V126.663C103.55 126.863 103.01 127.036 102.25 127.183C101.49 127.33 100.69 127.403 99.8501 127.403C98.2501 127.403 97.0967 127.003 96.3901 126.203C95.6834 125.39 95.3301 124.076 95.3301 122.263C95.3301 120.49 95.7034 119.19 96.4501 118.363C97.1967 117.536 98.3767 117.123 99.9901 117.123C101.563 117.123 102.67 117.436 103.31 118.063C103.963 118.676 104.29 119.77 104.29 121.343C104.29 121.77 104.283 122.11 104.27 122.363C104.257 122.616 104.23 122.91 104.19 123.243H98.3501C98.3634 123.79 98.5101 124.17 98.7901 124.383C99.0701 124.596 99.5834 124.703 100.33 124.703C100.97 124.703 101.623 124.663 102.29 124.583C102.957 124.49 103.483 124.39 103.87 124.283ZM99.9901 119.683C99.3501 119.683 98.9167 119.796 98.6901 120.023C98.4634 120.236 98.3501 120.663 98.3501 121.303H101.57V120.863C101.557 120.396 101.443 120.083 101.23 119.923C101.03 119.763 100.617 119.683 99.9901 119.683ZM108.671 127.203H105.671V117.323H108.471L108.571 118.083H108.611C109.091 117.79 109.577 117.57 110.071 117.423C110.577 117.263 111.051 117.183 111.491 117.183H111.651V120.083C111.531 120.056 111.397 120.043 111.251 120.043C111.117 120.03 110.944 120.023 110.731 120.023C110.344 120.023 109.977 120.05 109.631 120.103C109.284 120.143 108.964 120.21 108.671 120.303V127.203ZM113.52 119.823H112.36V117.323H113.52C113.533 116.123 113.86 115.223 114.5 114.623C115.153 114.01 116.107 113.703 117.36 113.703C117.653 113.703 117.967 113.723 118.3 113.763C118.647 113.79 118.973 113.836 119.28 113.903V116.203C119.107 116.176 118.893 116.156 118.64 116.143C118.387 116.116 118.16 116.103 117.96 116.103C117.32 116.103 116.92 116.163 116.76 116.283C116.6 116.403 116.52 116.656 116.52 117.043V117.323H118.98V119.823H116.52V127.203H113.52V119.823ZM123.326 127.403C122.206 127.403 121.366 127.13 120.806 126.583C120.259 126.023 119.986 125.183 119.986 124.063V117.323H122.986V123.663C122.986 123.996 123.086 124.236 123.286 124.383C123.486 124.53 123.806 124.603 124.246 124.603C124.499 124.603 124.766 124.583 125.046 124.543C125.339 124.503 125.633 124.443 125.926 124.363V117.323H128.926V127.203H126.126L126.046 126.663H126.006C125.539 126.89 125.066 127.07 124.586 127.203C124.119 127.336 123.699 127.403 123.326 127.403ZM133.651 113.903V127.203H130.651V113.903H133.651ZM145.686 124.183V126.663C145.366 126.863 144.846 127.036 144.126 127.183C143.406 127.33 142.666 127.403 141.906 127.403C140.466 127.403 139.453 127.023 138.866 126.263C138.293 125.49 138.006 124.156 138.006 122.263C138.006 120.37 138.38 119.043 139.126 118.283C139.873 117.51 141.18 117.123 143.046 117.123C143.5 117.123 143.906 117.136 144.266 117.163C144.626 117.176 145.013 117.21 145.426 117.263V119.923C144.773 119.87 144.3 119.843 144.006 119.843C143.713 119.83 143.393 119.823 143.046 119.823C142.126 119.823 141.553 119.956 141.326 120.223C141.113 120.476 141.006 121.156 141.006 122.263C141.006 123.263 141.093 123.903 141.266 124.183C141.453 124.463 141.873 124.603 142.526 124.603C143.06 124.603 143.613 124.563 144.186 124.483C144.773 124.403 145.273 124.303 145.686 124.183ZM156.321 122.263C156.321 124.116 155.947 125.436 155.201 126.223C154.454 127.01 153.201 127.403 151.441 127.403C149.681 127.403 148.427 127.01 147.681 126.223C146.934 125.436 146.561 124.116 146.561 122.263C146.561 120.41 146.934 119.09 147.681 118.303C148.427 117.516 149.681 117.123 151.441 117.123C153.201 117.123 154.454 117.516 155.201 118.303C155.947 119.09 156.321 120.41 156.321 122.263ZM149.561 122.223C149.561 123.236 149.667 123.89 149.881 124.183C150.107 124.476 150.627 124.623 151.441 124.623C152.254 124.623 152.767 124.476 152.981 124.183C153.207 123.89 153.321 123.236 153.321 122.223C153.321 121.21 153.207 120.556 152.981 120.263C152.767 119.97 152.254 119.823 151.441 119.823C150.627 119.823 150.107 119.97 149.881 120.263C149.667 120.556 149.561 121.21 149.561 122.223ZM163.782 113.903H166.782V127.203H164.122L163.962 126.283H163.902C163.542 126.656 163.116 126.936 162.622 127.123C162.129 127.31 161.569 127.403 160.942 127.403C159.636 127.403 158.702 127.01 158.142 126.223C157.596 125.436 157.322 124.116 157.322 122.263C157.322 120.463 157.669 119.156 158.362 118.343C159.069 117.53 160.209 117.123 161.782 117.123C162.169 117.123 162.529 117.15 162.862 117.203C163.209 117.243 163.516 117.303 163.782 117.383V113.903ZM162.202 119.823C161.402 119.823 160.889 119.976 160.662 120.283C160.436 120.576 160.322 121.236 160.322 122.263C160.322 123.236 160.422 123.876 160.622 124.183C160.822 124.476 161.289 124.623 162.022 124.623C162.369 124.623 162.689 124.596 162.982 124.543C163.289 124.49 163.556 124.41 163.782 124.303V120.083C163.582 119.99 163.349 119.923 163.082 119.883C162.829 119.843 162.536 119.823 162.202 119.823ZM176.683 124.283V126.663C176.363 126.863 175.823 127.036 175.063 127.183C174.303 127.33 173.503 127.403 172.663 127.403C171.063 127.403 169.909 127.003 169.203 126.203C168.496 125.39 168.143 124.076 168.143 122.263C168.143 120.49 168.516 119.19 169.263 118.363C170.009 117.536 171.189 117.123 172.803 117.123C174.376 117.123 175.483 117.436 176.123 118.063C176.776 118.676 177.103 119.77 177.103 121.343C177.103 121.77 177.096 122.11 177.083 122.363C177.069 122.616 177.043 122.91 177.003 123.243H171.163C171.176 123.79 171.323 124.17 171.603 124.383C171.883 124.596 172.396 124.703 173.143 124.703C173.783 124.703 174.436 124.663 175.103 124.583C175.769 124.49 176.296 124.39 176.683 124.283ZM172.803 119.683C172.163 119.683 171.729 119.796 171.503 120.023C171.276 120.236 171.163 120.663 171.163 121.303H174.383V120.863C174.369 120.396 174.256 120.083 174.043 119.923C173.843 119.763 173.429 119.683 172.803 119.683ZM184.532 116.243H181.372V113.903H184.532V116.243ZM184.452 127.203H181.452V117.323H184.452V127.203ZM190.198 119.663C189.638 119.663 189.258 119.71 189.058 119.803C188.872 119.883 188.778 120.076 188.778 120.383C188.778 120.503 188.812 120.603 188.878 120.683C188.958 120.75 189.065 120.79 189.198 120.803L191.578 121.123C192.352 121.23 192.892 121.483 193.198 121.883C193.518 122.27 193.678 122.89 193.678 123.743C193.678 125.023 193.392 125.956 192.818 126.543C192.245 127.116 191.245 127.403 189.818 127.403C189.032 127.403 188.318 127.37 187.678 127.303C187.052 127.25 186.518 127.17 186.078 127.063V124.463C186.412 124.543 186.872 124.616 187.458 124.683C188.058 124.736 188.665 124.763 189.278 124.763C189.825 124.763 190.192 124.71 190.378 124.603C190.578 124.483 190.678 124.263 190.678 123.943C190.678 123.836 190.645 123.75 190.578 123.683C190.512 123.603 190.425 123.556 190.318 123.543L187.858 123.223C187.138 123.13 186.612 122.87 186.278 122.443C185.958 122.003 185.798 121.356 185.798 120.503C185.798 119.383 186.152 118.543 186.858 117.983C187.565 117.41 188.612 117.123 189.998 117.123C190.545 117.123 191.052 117.136 191.518 117.163C191.985 117.19 192.478 117.243 192.998 117.323V119.823C192.665 119.77 192.252 119.73 191.758 119.703C191.265 119.676 190.745 119.663 190.198 119.663ZM58.6297 141.123C59.9497 141.123 60.883 141.51 61.4297 142.283C61.9764 143.043 62.2497 144.343 62.2497 146.183C62.2497 148.01 61.883 149.336 61.1497 150.163C60.4164 150.99 59.2297 151.403 57.5897 151.403C56.643 151.403 55.763 151.356 54.9497 151.263C54.1364 151.17 53.4164 151.03 52.7897 150.843V137.903H55.7897V141.843C56.243 141.616 56.7097 141.443 57.1897 141.323C57.683 141.19 58.163 141.123 58.6297 141.123ZM59.2497 146.183C59.2497 145.21 59.1497 144.576 58.9497 144.283C58.7497 143.976 58.283 143.823 57.5497 143.823C57.243 143.823 56.9364 143.85 56.6297 143.903C56.3364 143.956 56.0564 144.03 55.7897 144.123V148.503C55.9897 148.543 56.2164 148.576 56.4697 148.603C56.723 148.616 57.023 148.623 57.3697 148.623C58.1697 148.623 58.683 148.476 58.9097 148.183C59.1364 147.876 59.2497 147.21 59.2497 146.183ZM71.79 148.283V150.663C71.47 150.863 70.93 151.036 70.17 151.183C69.41 151.33 68.61 151.403 67.77 151.403C66.17 151.403 65.0167 151.003 64.31 150.203C63.6033 149.39 63.25 148.076 63.25 146.263C63.25 144.49 63.6233 143.19 64.37 142.363C65.1167 141.536 66.2967 141.123 67.91 141.123C69.4833 141.123 70.59 141.436 71.23 142.063C71.8833 142.676 72.21 143.77 72.21 145.343C72.21 145.77 72.2033 146.11 72.19 146.363C72.1767 146.616 72.15 146.91 72.11 147.243H66.27C66.2833 147.79 66.43 148.17 66.71 148.383C66.99 148.596 67.5033 148.703 68.25 148.703C68.89 148.703 69.5433 148.663 70.21 148.583C70.8767 148.49 71.4033 148.39 71.79 148.283ZM67.91 143.683C67.27 143.683 66.8367 143.796 66.61 144.023C66.3833 144.236 66.27 144.663 66.27 145.303H69.49V144.863C69.4767 144.396 69.3633 144.083 69.15 143.923C68.95 143.763 68.5367 143.683 67.91 143.683ZM74.1523 143.823H72.9923V141.323H74.2523L74.6323 139.023H77.1523V141.323H79.9523V143.823H77.1523V147.663C77.1523 148.036 77.2457 148.29 77.4323 148.423C77.6323 148.543 78.019 148.603 78.5923 148.603C78.7923 148.603 79.039 148.59 79.3323 148.563C79.6257 148.523 79.8723 148.483 80.0723 148.443V151.003C79.859 151.096 79.5257 151.183 79.0723 151.263C78.6323 151.356 78.239 151.403 77.8923 151.403C76.559 151.403 75.599 151.123 75.0123 150.563C74.439 149.99 74.1523 149.063 74.1523 147.783V143.823ZM81.7695 143.823H80.6095V141.323H81.8695L82.2495 139.023H84.7695V141.323H87.5695V143.823H84.7695V147.663C84.7695 148.036 84.8629 148.29 85.0495 148.423C85.2495 148.543 85.6362 148.603 86.2095 148.603C86.4095 148.603 86.6562 148.59 86.9495 148.563C87.2429 148.523 87.4895 148.483 87.6895 148.443V151.003C87.4762 151.096 87.1429 151.183 86.6895 151.263C86.2495 151.356 85.8562 151.403 85.5095 151.403C84.1762 151.403 83.2162 151.123 82.6295 150.563C82.0562 149.99 81.7695 149.063 81.7695 147.783V143.823ZM96.8291 148.283V150.663C96.5091 150.863 95.9691 151.036 95.2091 151.183C94.4491 151.33 93.6491 151.403 92.8091 151.403C91.2091 151.403 90.0557 151.003 89.3491 150.203C88.6424 149.39 88.2891 148.076 88.2891 146.263C88.2891 144.49 88.6624 143.19 89.4091 142.363C90.1557 141.536 91.3357 141.123 92.9491 141.123C94.5224 141.123 95.6291 141.436 96.2691 142.063C96.9224 142.676 97.2491 143.77 97.2491 145.343C97.2491 145.77 97.2424 146.11 97.2291 146.363C97.2157 146.616 97.1891 146.91 97.1491 147.243H91.3091C91.3224 147.79 91.4691 148.17 91.7491 148.383C92.0291 148.596 92.5424 148.703 93.2891 148.703C93.9291 148.703 94.5824 148.663 95.2491 148.583C95.9157 148.49 96.4424 148.39 96.8291 148.283ZM92.9491 143.683C92.3091 143.683 91.8757 143.796 91.6491 144.023C91.4224 144.236 91.3091 144.663 91.3091 145.303H94.5291V144.863C94.5157 144.396 94.4024 144.083 94.1891 143.923C93.9891 143.763 93.5757 143.683 92.9491 143.683ZM101.63 151.203H98.6295V141.323H101.43L101.53 142.083H101.57C102.05 141.79 102.536 141.57 103.03 141.423C103.536 141.263 104.01 141.183 104.45 141.183H104.61V144.083C104.49 144.056 104.356 144.043 104.21 144.043C104.076 144.03 103.903 144.023 103.69 144.023C103.303 144.023 102.936 144.05 102.59 144.103C102.243 144.143 101.923 144.21 101.63 144.303V151.203ZM112.728 143.663C112.168 143.663 111.788 143.71 111.588 143.803C111.401 143.883 111.308 144.076 111.308 144.383C111.308 144.503 111.341 144.603 111.408 144.683C111.488 144.75 111.594 144.79 111.728 144.803L114.108 145.123C114.881 145.23 115.421 145.483 115.728 145.883C116.048 146.27 116.208 146.89 116.208 147.743C116.208 149.023 115.921 149.956 115.348 150.543C114.774 151.116 113.774 151.403 112.348 151.403C111.561 151.403 110.848 151.37 110.208 151.303C109.581 151.25 109.048 151.17 108.608 151.063V148.463C108.941 148.543 109.401 148.616 109.988 148.683C110.588 148.736 111.194 148.763 111.808 148.763C112.354 148.763 112.721 148.71 112.908 148.603C113.108 148.483 113.208 148.263 113.208 147.943C113.208 147.836 113.174 147.75 113.108 147.683C113.041 147.603 112.954 147.556 112.848 147.543L110.388 147.223C109.668 147.13 109.141 146.87 108.808 146.443C108.488 146.003 108.328 145.356 108.328 144.503C108.328 143.383 108.681 142.543 109.388 141.983C110.094 141.41 111.141 141.123 112.528 141.123C113.074 141.123 113.581 141.136 114.048 141.163C114.514 141.19 115.008 141.243 115.528 141.323V143.823C115.194 143.77 114.781 143.73 114.288 143.703C113.794 143.676 113.274 143.663 112.728 143.663ZM125.696 148.283V150.663C125.376 150.863 124.836 151.036 124.076 151.183C123.316 151.33 122.516 151.403 121.676 151.403C120.076 151.403 118.923 151.003 118.216 150.203C117.51 149.39 117.156 148.076 117.156 146.263C117.156 144.49 117.53 143.19 118.276 142.363C119.023 141.536 120.203 141.123 121.816 141.123C123.39 141.123 124.496 141.436 125.136 142.063C125.79 142.676 126.116 143.77 126.116 145.343C126.116 145.77 126.11 146.11 126.096 146.363C126.083 146.616 126.056 146.91 126.016 147.243H120.176C120.19 147.79 120.336 148.17 120.616 148.383C120.896 148.596 121.41 148.703 122.156 148.703C122.796 148.703 123.45 148.663 124.116 148.583C124.783 148.49 125.31 148.39 125.696 148.283ZM121.816 143.683C121.176 143.683 120.743 143.796 120.516 144.023C120.29 144.236 120.176 144.663 120.176 145.303H123.396V144.863C123.383 144.396 123.27 144.083 123.056 143.923C122.856 143.763 122.443 143.683 121.816 143.683ZM130.497 151.203H127.497V141.323H130.297L130.397 142.083H130.437C130.917 141.79 131.403 141.57 131.897 141.423C132.403 141.263 132.877 141.183 133.317 141.183H133.477V144.083C133.357 144.056 133.223 144.043 133.077 144.043C132.943 144.03 132.77 144.023 132.557 144.023C132.17 144.023 131.803 144.05 131.457 144.103C131.11 144.143 130.79 144.21 130.497 144.303V151.203ZM140.746 141.323H144.006L140.606 151.203H137.166L133.746 141.323H137.046L138.906 148.483L140.746 141.323ZM152.728 148.283V150.663C152.408 150.863 151.868 151.036 151.108 151.183C150.348 151.33 149.548 151.403 148.708 151.403C147.108 151.403 145.954 151.003 145.248 150.203C144.541 149.39 144.188 148.076 144.188 146.263C144.188 144.49 144.561 143.19 145.308 142.363C146.054 141.536 147.234 141.123 148.848 141.123C150.421 141.123 151.528 141.436 152.168 142.063C152.821 142.676 153.148 143.77 153.148 145.343C153.148 145.77 153.141 146.11 153.128 146.363C153.114 146.616 153.088 146.91 153.048 147.243H147.208C147.221 147.79 147.368 148.17 147.648 148.383C147.928 148.596 148.441 148.703 149.188 148.703C149.828 148.703 150.481 148.663 151.148 148.583C151.814 148.49 152.341 148.39 152.728 148.283ZM148.848 143.683C148.208 143.683 147.774 143.796 147.548 144.023C147.321 144.236 147.208 144.663 147.208 145.303H150.428V144.863C150.414 144.396 150.301 144.083 150.088 143.923C149.888 143.763 149.474 143.683 148.848 143.683ZM160.628 137.903H163.628V151.203H160.968L160.808 150.283H160.748C160.388 150.656 159.961 150.936 159.468 151.123C158.975 151.31 158.415 151.403 157.788 151.403C156.481 151.403 155.548 151.01 154.988 150.223C154.441 149.436 154.168 148.116 154.168 146.263C154.168 144.463 154.515 143.156 155.208 142.343C155.915 141.53 157.055 141.123 158.628 141.123C159.015 141.123 159.375 141.15 159.708 141.203C160.055 141.243 160.361 141.303 160.628 141.383V137.903ZM159.048 143.823C158.248 143.823 157.735 143.976 157.508 144.283C157.281 144.576 157.168 145.236 157.168 146.263C157.168 147.236 157.268 147.876 157.468 148.183C157.668 148.476 158.135 148.623 158.868 148.623C159.215 148.623 159.535 148.596 159.828 148.543C160.135 148.49 160.401 148.41 160.628 148.303V144.083C160.428 143.99 160.195 143.923 159.928 143.883C159.675 143.843 159.381 143.823 159.048 143.823ZM170.717 151.403C169.704 151.403 168.957 151.15 168.477 150.643C168.01 150.136 167.777 149.336 167.777 148.243C167.777 147.123 168.057 146.336 168.617 145.883C169.19 145.43 170.17 145.203 171.557 145.203C171.877 145.203 172.204 145.223 172.537 145.263C172.884 145.29 173.184 145.33 173.437 145.383V144.663C173.437 144.343 173.297 144.11 173.017 143.963C172.75 143.803 172.337 143.723 171.777 143.723C171.137 143.723 170.564 143.743 170.057 143.783C169.564 143.81 169.11 143.863 168.697 143.943V141.483C169.19 141.363 169.764 141.276 170.417 141.223C171.07 141.156 171.83 141.123 172.697 141.123C173.924 141.123 174.85 141.396 175.477 141.943C176.117 142.49 176.437 143.296 176.437 144.363V151.203H173.637L173.537 150.363H173.477C173.064 150.683 172.61 150.936 172.117 151.123C171.624 151.31 171.157 151.403 170.717 151.403ZM171.957 147.183C171.424 147.183 171.064 147.243 170.877 147.363C170.69 147.47 170.597 147.703 170.597 148.063C170.597 148.396 170.67 148.63 170.817 148.763C170.977 148.883 171.25 148.943 171.637 148.943C171.93 148.943 172.237 148.903 172.557 148.823C172.877 148.743 173.17 148.643 173.437 148.523V147.303C173.277 147.263 173.077 147.236 172.837 147.223C172.597 147.196 172.304 147.183 171.957 147.183ZM182.142 143.663C181.582 143.663 181.202 143.71 181.002 143.803C180.815 143.883 180.722 144.076 180.722 144.383C180.722 144.503 180.755 144.603 180.822 144.683C180.902 144.75 181.008 144.79 181.142 144.803L183.522 145.123C184.295 145.23 184.835 145.483 185.142 145.883C185.462 146.27 185.622 146.89 185.622 147.743C185.622 149.023 185.335 149.956 184.762 150.543C184.188 151.116 183.188 151.403 181.762 151.403C180.975 151.403 180.262 151.37 179.622 151.303C178.995 151.25 178.462 151.17 178.022 151.063V148.463C178.355 148.543 178.815 148.616 179.402 148.683C180.002 148.736 180.608 148.763 181.222 148.763C181.768 148.763 182.135 148.71 182.322 148.603C182.522 148.483 182.622 148.263 182.622 147.943C182.622 147.836 182.588 147.75 182.522 147.683C182.455 147.603 182.368 147.556 182.262 147.543L179.802 147.223C179.082 147.13 178.555 146.87 178.222 146.443C177.902 146.003 177.742 145.356 177.742 144.503C177.742 143.383 178.095 142.543 178.802 141.983C179.508 141.41 180.555 141.123 181.942 141.123C182.488 141.123 182.995 141.136 183.462 141.163C183.928 141.19 184.422 141.243 184.942 141.323V143.823C184.608 143.77 184.195 143.73 183.702 143.703C183.208 143.676 182.688 143.663 182.142 143.663ZM48.2622 169.923V162.663H51.3622V169.923C51.3622 171.75 50.9155 173.123 50.0222 174.043C49.1289 174.95 47.7889 175.403 46.0022 175.403C44.1222 175.403 42.7489 174.97 41.8822 174.103C41.0289 173.236 40.6022 171.843 40.6022 169.923V162.663H43.7022V169.923C43.7022 170.936 43.8555 171.623 44.1622 171.983C44.4822 172.33 45.0955 172.503 46.0022 172.503C46.8955 172.503 47.4955 172.33 47.8022 171.983C48.1089 171.623 48.2622 170.936 48.2622 169.923ZM55.985 175.203H52.985V165.323H55.585L55.705 166.363H55.765C56.1917 165.923 56.6517 165.61 57.145 165.423C57.6517 165.223 58.2583 165.123 58.965 165.123C60.085 165.123 60.9317 165.396 61.505 165.943C62.0783 166.49 62.365 167.296 62.365 168.363V175.203H59.365V168.763C59.365 168.456 59.2383 168.223 58.985 168.063C58.745 167.903 58.385 167.823 57.905 167.823C57.545 167.823 57.1983 167.863 56.865 167.943C56.5317 168.023 56.2383 168.136 55.985 168.283V175.203ZM67.1197 164.243H63.9597V161.903H67.1197V164.243ZM67.0397 175.203H64.0397V165.323H67.0397V175.203ZM76.1063 172.183V174.663C75.7863 174.863 75.2663 175.036 74.5463 175.183C73.8263 175.33 73.0863 175.403 72.3263 175.403C70.8863 175.403 69.8729 175.023 69.2863 174.263C68.7129 173.49 68.4263 172.156 68.4263 170.263C68.4263 168.37 68.7996 167.043 69.5463 166.283C70.2929 165.51 71.5996 165.123 73.4663 165.123C73.9196 165.123 74.3263 165.136 74.6863 165.163C75.0463 165.176 75.4329 165.21 75.8463 165.263V167.923C75.1929 167.87 74.7196 167.843 74.4263 167.843C74.1329 167.83 73.8129 167.823 73.4663 167.823C72.5463 167.823 71.9729 167.956 71.7463 168.223C71.5329 168.476 71.4263 169.156 71.4263 170.263C71.4263 171.263 71.5129 171.903 71.6863 172.183C71.8729 172.463 72.2929 172.603 72.9463 172.603C73.4796 172.603 74.0329 172.563 74.6063 172.483C75.1929 172.403 75.6929 172.303 76.1063 172.183ZM86.7405 170.263C86.7405 172.116 86.3671 173.436 85.6205 174.223C84.8738 175.01 83.6205 175.403 81.8605 175.403C80.1005 175.403 78.8471 175.01 78.1005 174.223C77.3538 173.436 76.9805 172.116 76.9805 170.263C76.9805 168.41 77.3538 167.09 78.1005 166.303C78.8471 165.516 80.1005 165.123 81.8605 165.123C83.6205 165.123 84.8738 165.516 85.6205 166.303C86.3671 167.09 86.7405 168.41 86.7405 170.263ZM79.9805 170.223C79.9805 171.236 80.0871 171.89 80.3005 172.183C80.5271 172.476 81.0471 172.623 81.8605 172.623C82.6738 172.623 83.1871 172.476 83.4005 172.183C83.6271 171.89 83.7405 171.236 83.7405 170.223C83.7405 169.21 83.6271 168.556 83.4005 168.263C83.1871 167.97 82.6738 167.823 81.8605 167.823C81.0471 167.823 80.5271 167.97 80.3005 168.263C80.0871 168.556 79.9805 169.21 79.9805 170.223ZM91.1022 175.203H88.1022V165.323H90.9022L91.0022 166.083H91.0422C91.5222 165.79 92.0089 165.57 92.5022 165.423C93.0089 165.263 93.4822 165.183 93.9222 165.183H94.0822V168.083C93.9622 168.056 93.8289 168.043 93.6822 168.043C93.5489 168.03 93.3755 168.023 93.1622 168.023C92.7755 168.023 92.4089 168.05 92.0622 168.103C91.7155 168.143 91.3955 168.21 91.1022 168.303V175.203ZM98.2116 175.203H95.2116V165.323H97.8116L97.9316 166.363H97.9916C98.4182 165.923 98.8782 165.61 99.3716 165.423C99.8782 165.223 100.485 165.123 101.192 165.123C102.312 165.123 103.158 165.396 103.732 165.943C104.305 166.49 104.592 167.296 104.592 168.363V175.203H101.592V168.763C101.592 168.456 101.465 168.223 101.212 168.063C100.972 167.903 100.612 167.823 100.132 167.823C99.7716 167.823 99.4249 167.863 99.0916 167.943C98.7582 168.023 98.4649 168.136 98.2116 168.283V175.203ZM111.635 175.403C110.622 175.403 109.875 175.15 109.395 174.643C108.928 174.136 108.695 173.336 108.695 172.243C108.695 171.123 108.975 170.336 109.535 169.883C110.108 169.43 111.088 169.203 112.475 169.203C112.795 169.203 113.122 169.223 113.455 169.263C113.802 169.29 114.102 169.33 114.355 169.383V168.663C114.355 168.343 114.215 168.11 113.935 167.963C113.668 167.803 113.255 167.723 112.695 167.723C112.055 167.723 111.482 167.743 110.975 167.783C110.482 167.81 110.028 167.863 109.615 167.943V165.483C110.108 165.363 110.682 165.276 111.335 165.223C111.988 165.156 112.748 165.123 113.615 165.123C114.842 165.123 115.768 165.396 116.395 165.943C117.035 166.49 117.355 167.296 117.355 168.363V175.203H114.555L114.455 174.363H114.395C113.982 174.683 113.528 174.936 113.035 175.123C112.542 175.31 112.075 175.403 111.635 175.403ZM112.875 171.183C112.342 171.183 111.982 171.243 111.795 171.363C111.608 171.47 111.515 171.703 111.515 172.063C111.515 172.396 111.588 172.63 111.735 172.763C111.895 172.883 112.168 172.943 112.555 172.943C112.848 172.943 113.155 172.903 113.475 172.823C113.795 172.743 114.088 172.643 114.355 172.523V171.303C114.195 171.263 113.995 171.236 113.755 171.223C113.515 171.196 113.222 171.183 112.875 171.183ZM122.04 175.203H119.04V165.323H121.84L121.94 166.063H122C122.493 165.756 122.966 165.523 123.42 165.363C123.873 165.203 124.306 165.123 124.72 165.123C125.266 165.123 125.733 165.21 126.12 165.383C126.506 165.543 126.813 165.79 127.04 166.123H127.12C127.573 165.816 128.08 165.576 128.64 165.403C129.213 165.216 129.76 165.123 130.28 165.123C131.253 165.123 131.973 165.39 132.44 165.923C132.92 166.456 133.16 167.27 133.16 168.363V175.203H130.16V168.763C130.16 168.43 130.066 168.19 129.88 168.043C129.693 167.896 129.4 167.823 129 167.823C128.786 167.823 128.56 167.843 128.32 167.883C128.08 167.923 127.84 167.983 127.6 168.063V175.203H124.6V168.763C124.6 168.43 124.506 168.19 124.32 168.043C124.133 167.896 123.84 167.823 123.44 167.823C123.226 167.823 123 167.843 122.76 167.883C122.52 167.923 122.28 167.983 122.04 168.063V175.203ZM144.24 170.263C144.24 172.116 143.867 173.436 143.12 174.223C142.374 175.01 141.12 175.403 139.36 175.403C137.6 175.403 136.347 175.01 135.6 174.223C134.854 173.436 134.48 172.116 134.48 170.263C134.48 168.41 134.854 167.09 135.6 166.303C136.347 165.516 137.6 165.123 139.36 165.123C141.12 165.123 142.374 165.516 143.12 166.303C143.867 167.09 144.24 168.41 144.24 170.263ZM137.48 170.223C137.48 171.236 137.587 171.89 137.8 172.183C138.027 172.476 138.547 172.623 139.36 172.623C140.174 172.623 140.687 172.476 140.9 172.183C141.127 171.89 141.24 171.236 141.24 170.223C141.24 169.21 141.127 168.556 140.9 168.263C140.687 167.97 140.174 167.823 139.36 167.823C138.547 167.823 138.027 167.97 137.8 168.263C137.587 168.556 137.48 169.21 137.48 170.223ZM148.602 175.203H145.602V165.323H148.202L148.322 166.363H148.382C148.809 165.923 149.269 165.61 149.762 165.423C150.269 165.223 150.876 165.123 151.582 165.123C152.702 165.123 153.549 165.396 154.122 165.943C154.696 166.49 154.982 167.296 154.982 168.363V175.203H151.982V168.763C151.982 168.456 151.856 168.223 151.602 168.063C151.362 167.903 151.002 167.823 150.522 167.823C150.162 167.823 149.816 167.863 149.482 167.943C149.149 168.023 148.856 168.136 148.602 168.283V175.203ZM161.117 178.443C160.41 178.443 159.73 178.396 159.077 178.303C158.437 178.21 157.91 178.09 157.497 177.943V175.403C157.817 175.496 158.297 175.576 158.937 175.643C159.59 175.71 160.237 175.743 160.877 175.743C161.597 175.743 162.09 175.636 162.357 175.423C162.624 175.21 162.764 174.816 162.777 174.243V173.763C162.244 174.016 161.73 174.21 161.237 174.343C160.744 174.463 160.264 174.523 159.797 174.523C158.53 174.523 157.63 174.17 157.097 173.463C156.577 172.743 156.317 171.53 156.317 169.823C156.317 168.13 156.69 166.923 157.437 166.203C158.197 165.483 159.47 165.123 161.257 165.123C161.964 165.123 162.777 165.163 163.697 165.243C164.63 165.323 165.324 165.41 165.777 165.503V173.303C165.777 175.21 165.43 176.543 164.737 177.303C164.044 178.063 162.837 178.443 161.117 178.443ZM161.257 167.823C160.364 167.823 159.817 167.923 159.617 168.123C159.417 168.323 159.317 168.89 159.317 169.823C159.317 170.663 159.404 171.196 159.577 171.423C159.75 171.636 160.17 171.743 160.837 171.743C161.09 171.743 161.377 171.716 161.697 171.663C162.03 171.61 162.39 171.536 162.777 171.443V167.943C162.577 167.903 162.35 167.876 162.097 167.863C161.844 167.836 161.564 167.823 161.257 167.823ZM171.105 167.823H169.945V165.323H171.205L171.585 163.023H174.105V165.323H176.905V167.823H174.105V171.663C174.105 172.036 174.199 172.29 174.385 172.423C174.585 172.543 174.972 172.603 175.545 172.603C175.745 172.603 175.992 172.59 176.285 172.563C176.579 172.523 176.825 172.483 177.025 172.443V175.003C176.812 175.096 176.479 175.183 176.025 175.263C175.585 175.356 175.192 175.403 174.845 175.403C173.512 175.403 172.552 175.123 171.965 174.563C171.392 173.99 171.105 173.063 171.105 171.783V167.823ZM181.083 175.203H178.083V161.903H181.083V166.023C181.576 165.743 182.083 165.523 182.603 165.363C183.136 165.203 183.643 165.123 184.123 165.123C185.243 165.123 186.076 165.39 186.623 165.923C187.183 166.456 187.463 167.27 187.463 168.363V175.203H184.463V168.763C184.463 168.43 184.363 168.19 184.163 168.043C183.963 167.896 183.643 167.823 183.203 167.823C182.869 167.823 182.516 167.856 182.143 167.923C181.769 167.976 181.416 168.05 181.083 168.143V175.203ZM197.317 172.283V174.663C196.997 174.863 196.457 175.036 195.697 175.183C194.937 175.33 194.137 175.403 193.297 175.403C191.697 175.403 190.544 175.003 189.837 174.203C189.131 173.39 188.777 172.076 188.777 170.263C188.777 168.49 189.151 167.19 189.897 166.363C190.644 165.536 191.824 165.123 193.437 165.123C195.011 165.123 196.117 165.436 196.757 166.063C197.411 166.676 197.737 167.77 197.737 169.343C197.737 169.77 197.731 170.11 197.717 170.363C197.704 170.616 197.677 170.91 197.637 171.243H191.797C191.811 171.79 191.957 172.17 192.237 172.383C192.517 172.596 193.031 172.703 193.777 172.703C194.417 172.703 195.071 172.663 195.737 172.583C196.404 172.49 196.931 172.39 197.317 172.283ZM193.437 167.683C192.797 167.683 192.364 167.796 192.137 168.023C191.911 168.236 191.797 168.663 191.797 169.303H195.017V168.863C195.004 168.396 194.891 168.083 194.677 167.923C194.477 167.763 194.064 167.683 193.437 167.683ZM92.0737 199.203H88.9737V186.663H92.0737V191.443H96.4737V186.663H99.5737V199.203H96.4737V194.243H92.0737V199.203ZM110.793 194.263C110.793 196.116 110.42 197.436 109.673 198.223C108.927 199.01 107.673 199.403 105.913 199.403C104.153 199.403 102.9 199.01 102.153 198.223C101.407 197.436 101.033 196.116 101.033 194.263C101.033 192.41 101.407 191.09 102.153 190.303C102.9 189.516 104.153 189.123 105.913 189.123C107.673 189.123 108.927 189.516 109.673 190.303C110.42 191.09 110.793 192.41 110.793 194.263ZM104.033 194.223C104.033 195.236 104.14 195.89 104.353 196.183C104.58 196.476 105.1 196.623 105.913 196.623C106.727 196.623 107.24 196.476 107.453 196.183C107.68 195.89 107.793 195.236 107.793 194.223C107.793 193.21 107.68 192.556 107.453 192.263C107.24 191.97 106.727 191.823 105.913 191.823C105.1 191.823 104.58 191.97 104.353 192.263C104.14 192.556 104.033 193.21 104.033 194.223ZM115.155 199.203H112.155V189.323H114.955L115.055 190.083H115.095C115.575 189.79 116.062 189.57 116.555 189.423C117.062 189.263 117.535 189.183 117.975 189.183H118.135V192.083C118.015 192.056 117.882 192.043 117.735 192.043C117.602 192.03 117.428 192.023 117.215 192.023C116.828 192.023 116.462 192.05 116.115 192.103C115.768 192.143 115.448 192.21 115.155 192.303V199.203ZM123.206 191.663C122.646 191.663 122.266 191.71 122.066 191.803C121.88 191.883 121.786 192.076 121.786 192.383C121.786 192.503 121.82 192.603 121.886 192.683C121.966 192.75 122.073 192.79 122.206 192.803L124.586 193.123C125.36 193.23 125.9 193.483 126.206 193.883C126.526 194.27 126.686 194.89 126.686 195.743C126.686 197.023 126.4 197.956 125.826 198.543C125.253 199.116 124.253 199.403 122.826 199.403C122.04 199.403 121.326 199.37 120.686 199.303C120.06 199.25 119.526 199.17 119.086 199.063V196.463C119.42 196.543 119.88 196.616 120.466 196.683C121.066 196.736 121.673 196.763 122.286 196.763C122.833 196.763 123.2 196.71 123.386 196.603C123.586 196.483 123.686 196.263 123.686 195.943C123.686 195.836 123.653 195.75 123.586 195.683C123.52 195.603 123.433 195.556 123.326 195.543L120.866 195.223C120.146 195.13 119.62 194.87 119.286 194.443C118.966 194.003 118.806 193.356 118.806 192.503C118.806 191.383 119.16 190.543 119.866 189.983C120.573 189.41 121.62 189.123 123.006 189.123C123.553 189.123 124.06 189.136 124.526 189.163C124.993 189.19 125.486 189.243 126.006 189.323V191.823C125.673 191.77 125.26 191.73 124.766 191.703C124.273 191.676 123.753 191.663 123.206 191.663ZM136.175 196.283V198.663C135.855 198.863 135.315 199.036 134.555 199.183C133.795 199.33 132.995 199.403 132.155 199.403C130.555 199.403 129.401 199.003 128.695 198.203C127.988 197.39 127.635 196.076 127.635 194.263C127.635 192.49 128.008 191.19 128.755 190.363C129.501 189.536 130.681 189.123 132.295 189.123C133.868 189.123 134.975 189.436 135.615 190.063C136.268 190.676 136.595 191.77 136.595 193.343C136.595 193.77 136.588 194.11 136.575 194.363C136.561 194.616 136.535 194.91 136.495 195.243H130.655C130.668 195.79 130.815 196.17 131.095 196.383C131.375 196.596 131.888 196.703 132.635 196.703C133.275 196.703 133.928 196.663 134.595 196.583C135.261 196.49 135.788 196.39 136.175 196.283ZM132.295 191.683C131.655 191.683 131.221 191.796 130.995 192.023C130.768 192.236 130.655 192.663 130.655 193.303H133.875V192.863C133.861 192.396 133.748 192.083 133.535 191.923C133.335 191.763 132.921 191.683 132.295 191.683ZM141.995 191.663C141.435 191.663 141.055 191.71 140.855 191.803C140.669 191.883 140.575 192.076 140.575 192.383C140.575 192.503 140.609 192.603 140.675 192.683C140.755 192.75 140.862 192.79 140.995 192.803L143.375 193.123C144.149 193.23 144.689 193.483 144.995 193.883C145.315 194.27 145.475 194.89 145.475 195.743C145.475 197.023 145.189 197.956 144.615 198.543C144.042 199.116 143.042 199.403 141.615 199.403C140.829 199.403 140.115 199.37 139.475 199.303C138.849 199.25 138.315 199.17 137.875 199.063V196.463C138.209 196.543 138.669 196.616 139.255 196.683C139.855 196.736 140.462 196.763 141.075 196.763C141.622 196.763 141.989 196.71 142.175 196.603C142.375 196.483 142.475 196.263 142.475 195.943C142.475 195.836 142.442 195.75 142.375 195.683C142.309 195.603 142.222 195.556 142.115 195.543L139.655 195.223C138.935 195.13 138.409 194.87 138.075 194.443C137.755 194.003 137.595 193.356 137.595 192.503C137.595 191.383 137.949 190.543 138.655 189.983C139.362 189.41 140.409 189.123 141.795 189.123C142.342 189.123 142.849 189.136 143.315 189.163C143.782 189.19 144.275 189.243 144.795 189.323V191.823C144.462 191.77 144.049 191.73 143.555 191.703C143.062 191.676 142.542 191.663 141.995 191.663ZM149.404 199.203H146.504V196.443H149.404V199.203Z" fill="white"/>
<path d="M82.01 51H75.44V32.19H82.01C83.93 32.19 85.45 32.35 86.57 32.67C87.71 32.99 88.62 33.5 89.3 34.2C89.98 34.9 90.47 35.85 90.77 37.05C91.09 38.23 91.25 39.74 91.25 41.58C91.25 44.84 90.52 47.23 89.06 48.75C87.6 50.25 85.25 51 82.01 51ZM85.7 37.59C85.42 37.17 85.01 36.87 84.47 36.69C83.93 36.49 83.11 36.39 82.01 36.39H80.09V46.65H82.01C83.09 46.65 83.9 46.56 84.44 46.38C84.98 46.2 85.4 45.91 85.7 45.51C85.96 45.13 86.15 44.63 86.27 44.01C86.39 43.37 86.45 42.56 86.45 41.58C86.45 40.58 86.39 39.77 86.27 39.15C86.15 38.51 85.96 37.99 85.7 37.59ZM105.607 46.62V50.19C105.127 50.49 104.317 50.75 103.177 50.97C102.037 51.19 100.837 51.3 99.5769 51.3C97.1769 51.3 95.4469 50.7 94.3869 49.5C93.3269 48.28 92.7969 46.31 92.7969 43.59C92.7969 40.93 93.3569 38.98 94.4769 37.74C95.5969 36.5 97.3669 35.88 99.7869 35.88C102.147 35.88 103.807 36.35 104.767 37.29C105.747 38.21 106.237 39.85 106.237 42.21C106.237 42.85 106.227 43.36 106.207 43.74C106.187 44.12 106.147 44.56 106.087 45.06H97.3269C97.3469 45.88 97.5669 46.45 97.9869 46.77C98.4069 47.09 99.1769 47.25 100.297 47.25C101.257 47.25 102.237 47.19 103.237 47.07C104.237 46.93 105.027 46.78 105.607 46.62ZM99.7869 39.72C98.8269 39.72 98.1769 39.89 97.8369 40.23C97.4969 40.55 97.3269 41.19 97.3269 42.15H102.157V41.49C102.137 40.79 101.967 40.32 101.647 40.08C101.347 39.84 100.727 39.72 99.7869 39.72ZM117.166 36.18H122.056L116.956 51H111.796L106.666 36.18H111.616L114.406 46.92L117.166 36.18ZM135.138 46.62V50.19C134.658 50.49 133.848 50.75 132.708 50.97C131.568 51.19 130.368 51.3 129.108 51.3C126.708 51.3 124.978 50.7 123.918 49.5C122.858 48.28 122.328 46.31 122.328 43.59C122.328 40.93 122.888 38.98 124.008 37.74C125.128 36.5 126.898 35.88 129.318 35.88C131.678 35.88 133.338 36.35 134.298 37.29C135.278 38.21 135.768 39.85 135.768 42.21C135.768 42.85 135.758 43.36 135.738 43.74C135.718 44.12 135.678 44.56 135.618 45.06H126.858C126.878 45.88 127.098 46.45 127.518 46.77C127.938 47.09 128.708 47.25 129.828 47.25C130.788 47.25 131.768 47.19 132.768 47.07C133.768 46.93 134.558 46.78 135.138 46.62ZM129.318 39.72C128.358 39.72 127.708 39.89 127.368 40.23C127.028 40.55 126.858 41.19 126.858 42.15H131.688V41.49C131.668 40.79 131.498 40.32 131.178 40.08C130.878 39.84 130.258 39.72 129.318 39.72ZM142.339 31.05V51H137.839V31.05H142.339ZM159.029 43.59C159.029 46.37 158.469 48.35 157.349 49.53C156.229 50.71 154.349 51.3 151.709 51.3C149.069 51.3 147.189 50.71 146.069 49.53C144.949 48.35 144.389 46.37 144.389 43.59C144.389 40.81 144.949 38.83 146.069 37.65C147.189 36.47 149.069 35.88 151.709 35.88C154.349 35.88 156.229 36.47 157.349 37.65C158.469 38.83 159.029 40.81 159.029 43.59ZM148.889 43.53C148.889 45.05 149.049 46.03 149.369 46.47C149.709 46.91 150.489 47.13 151.709 47.13C152.929 47.13 153.699 46.91 154.019 46.47C154.359 46.03 154.529 45.05 154.529 43.53C154.529 42.01 154.359 41.03 154.019 40.59C153.699 40.15 152.929 39.93 151.709 39.93C150.489 39.93 149.709 40.15 149.369 40.59C149.049 41.03 148.889 42.01 148.889 43.53ZM165.571 55.56H161.071V36.18H165.031L165.271 37.56H165.331C165.871 37 166.511 36.58 167.251 36.3C168.011 36.02 168.871 35.88 169.831 35.88C171.791 35.88 173.181 36.47 174.001 37.65C174.841 38.83 175.261 40.81 175.261 43.59C175.261 46.29 174.731 48.25 173.671 49.47C172.631 50.69 170.931 51.3 168.571 51.3C167.991 51.3 167.441 51.26 166.921 51.18C166.421 51.12 165.971 51.03 165.571 50.91V55.56ZM170.761 43.59C170.761 42.09 170.601 41.11 170.281 40.65C169.961 40.17 169.271 39.93 168.211 39.93C167.691 39.93 167.201 39.97 166.741 40.05C166.301 40.13 165.911 40.25 165.571 40.41V46.74C165.871 46.88 166.211 46.98 166.591 47.04C166.991 47.1 167.441 47.13 167.941 47.13C169.161 47.13 169.931 46.92 170.251 46.5C170.591 46.06 170.761 45.09 170.761 43.59Z" fill="white"/>
<defs>
<filter id="filter0_dd" x="266" y="43" width="73.3333" height="188" filterUnits="userSpaceOnUse" color-interpolation-filters="sRGB">
<feFlood flood-opacity="0" result="BackgroundImageFix"/>
<feColorMatrix in="SourceAlpha" type="matrix" values="0 0 0 0 0 0 0 0 0 0 0 0 0 0 0 0 0 0 127 0"/>
<feOffset dx="4" dy="4"/>
<feGaussianBlur stdDeviation="4"/>
<feColorMatrix type="matrix" values="0 0 0 0 0.631748 0 0 0 0 0.758333 0 0 0 0 0.521354 0 0 0 0.75 0"/>
<feBlend mode="normal" in2="BackgroundImageFix" result="effect1_dropShadow"/>
<feColorMatrix in="SourceAlpha" type="matrix" values="0 0 0 0 0 0 0 0 0 0 0 0 0 0 0 0 0 0 127 0"/>
<feOffset dx="-4" dy="-4"/>
<feGaussianBlur stdDeviation="2"/>
<feColorMatrix type="matrix" values="0 0 0 0 1 0 0 0 0 1 0 0 0 0 1 0 0 0 0.25 0"/>
<feBlend mode="normal" in2="effect1_dropShadow" result="effect2_dropShadow"/>
<feBlend mode="normal" in="SourceGraphic" in2="effect2_dropShadow" result="shape"/>
</filter>
<filter id="filter1_dd" x="0" y="0" width="241" height="274" filterUnits="userSpaceOnUse" color-interpolation-filters="sRGB">
<feFlood flood-opacity="0" result="BackgroundImageFix"/>
<feColorMatrix in="SourceAlpha" type="matrix" values="0 0 0 0 0 0 0 0 0 0 0 0 0 0 0 0 0 0 127 0"/>
<feOffset dx="4" dy="4"/>
<feGaussianBlur stdDeviation="4"/>
<feColorMatrix type="matrix" values="0 0 0 0 0.631748 0 0 0 0 0.758333 0 0 0 0 0.521354 0 0 0 0.75 0"/>
<feBlend mode="normal" in2="BackgroundImageFix" result="effect1_dropShadow"/>
<feColorMatrix in="SourceAlpha" type="matrix" values="0 0 0 0 0 0 0 0 0 0 0 0 0 0 0 0 0 0 127 0"/>
<feOffset dx="-4" dy="-4"/>
<feGaussianBlur stdDeviation="2"/>
<feColorMatrix type="matrix" values="0 0 0 0 1 0 0 0 0 1 0 0 0 0 1 0 0 0 0.25 0"/>
<feBlend mode="normal" in2="effect1_dropShadow" result="effect2_dropShadow"/>
<feBlend mode="normal" in="SourceGraphic" in2="effect2_dropShadow" result="shape"/>
</filter>
<clipPath id="clip0">
<rect width="21" height="20" fill="white" transform="translate(290 60)"/>
</clipPath>
<clipPath id="clip1">
<rect width="17" height="21" fill="white" transform="translate(292 100)"/>
</clipPath>
<clipPath id="clip2">
<rect width="18" height="18" fill="white" transform="translate(292 183)"/>
</clipPath>
</defs>
</svg>
