<svg width="596" height="497" viewBox="0 0 596 497" fill="none" xmlns="http://www.w3.org/2000/svg">
<path d="M12.528 46H2.88V15.904H12.528C15.6 15.904 18.032 16.16 19.824 16.672C21.648 17.184 23.104 18 24.192 19.12C25.28 20.24 26.064 21.76 26.544 23.68C27.056 25.568 27.312 27.984 27.312 30.928C27.312 36.144 26.144 39.968 23.808 42.4C21.472 44.8 17.712 46 12.528 46ZM19.776 23.296C19.168 22.496 18.32 21.936 17.232 21.616C16.144 21.264 14.576 21.088 12.528 21.088H8.64V40.576H12.528C15.984 40.576 18.32 39.872 19.536 38.464C20.752 37.056 21.36 34.544 21.36 30.928C21.36 29.008 21.232 27.44 20.976 26.224C20.72 25.008 20.32 24.032 19.776 23.296ZM52.2008 40.576V46H31.8488V15.904H51.7688V21.088H37.6088V28.192H49.9928V33.136H37.6088V40.576H52.2008ZM68.025 34.048L61.353 32.464C59.145 31.952 57.593 31.12 56.697 29.968C55.801 28.784 55.353 27.104 55.353 24.928C55.353 21.664 56.249 19.264 58.041 17.728C59.833 16.192 62.617 15.424 66.393 15.424C67.961 15.424 69.353 15.504 70.569 15.664C71.817 15.792 72.969 16 74.025 16.288V21.472C72.201 21.12 70.745 20.896 69.657 20.8C68.569 20.672 67.449 20.608 66.297 20.608C64.377 20.608 63.017 20.912 62.217 21.52C61.417 22.096 61.017 23.104 61.017 24.544C61.017 25.376 61.177 26.016 61.497 26.464C61.849 26.88 62.425 27.184 63.225 27.376L69.705 28.912C71.209 29.264 72.329 29.632 73.065 30.016C73.801 30.368 74.409 30.816 74.889 31.36C75.369 31.968 75.721 32.72 75.945 33.616C76.201 34.512 76.329 35.616 76.329 36.928C76.329 40.32 75.433 42.752 73.641 44.224C71.849 45.696 69.065 46.432 65.289 46.432C63.337 46.432 61.449 46.304 59.625 46.048C57.833 45.792 56.425 45.472 55.401 45.088V39.664C56.777 40.08 58.329 40.416 60.057 40.672C61.817 40.896 63.561 41.008 65.289 41.008C67.177 41.008 68.489 40.752 69.225 40.24C69.993 39.696 70.377 38.656 70.377 37.12C70.377 36.16 70.217 35.472 69.897 35.056C69.609 34.608 68.985 34.272 68.025 34.048ZM86.1244 15.904V46H80.3644V15.904H86.1244ZM109.992 34.24H103.464V29.44H115.368V44.608C114.472 45.024 112.872 45.44 110.568 45.856C108.264 46.24 106.168 46.432 104.28 46.432C99.1916 46.432 95.6556 45.248 93.6716 42.88C91.7196 40.512 90.7436 36.528 90.7436 30.928C90.7436 25.584 91.8956 21.664 94.1996 19.168C96.5356 16.672 100.216 15.424 105.24 15.424C107.128 15.424 108.808 15.472 110.28 15.568C111.784 15.632 112.936 15.744 113.736 15.904V20.944C112.584 20.848 111.256 20.768 109.752 20.704C108.248 20.64 106.744 20.608 105.24 20.608C101.944 20.608 99.6876 21.36 98.4716 22.864C97.2876 24.368 96.6956 27.056 96.6956 30.928C96.6956 32.784 96.7916 34.32 96.9836 35.536C97.2076 36.752 97.5276 37.744 97.9436 38.512C98.4876 39.472 99.2556 40.16 100.248 40.576C101.272 40.992 102.776 41.2 104.76 41.2C105.432 41.2 106.216 41.152 107.112 41.056C108.008 40.96 108.968 40.832 109.992 40.672V34.24ZM145.364 15.904V46H139.748L125.492 25.6V46H120.068V15.904H125.684L139.988 36.784V15.904H145.364Z" fill="#1C8463"/>
<path d="M19.8 189L0 113.76H20.16L28.08 150.96C28.4 152.24 28.72 153.96 29.04 156.12C29.44 158.28 30.08 162.44 30.96 168.6C31.2 167.08 31.64 164.16 32.28 159.84C33 155.52 33.52 152.6 33.84 151.08L41.52 113.76H60.96L68.88 150.96C69.2 152.24 69.52 153.96 69.84 156.12C70.24 158.28 70.88 162.44 71.76 168.6C72 167.08 72.44 164.16 73.08 159.84C73.8 155.52 74.32 152.6 74.64 151.08L82.32 113.76H101.88L82.2 189H60.72L55.92 166.2C55.12 162.36 54.32 158.32 53.52 154.08C52.72 149.84 51.88 145.16 51 140.04C49.72 147.16 48.72 152.52 48 156.12C47.28 159.72 46.6 163.08 45.96 166.2L41.16 189H19.8ZM152.209 171.48V185.76C150.289 186.96 147.049 188 142.489 188.88C137.929 189.76 133.129 190.2 128.089 190.2C118.489 190.2 111.569 187.8 107.329 183C103.089 178.12 100.969 170.24 100.969 159.36C100.969 148.72 103.209 140.92 107.689 135.96C112.169 131 119.249 128.52 128.929 128.52C138.369 128.52 145.009 130.4 148.849 134.16C152.769 137.84 154.729 144.4 154.729 153.84C154.729 156.4 154.689 158.44 154.609 159.96C154.529 161.48 154.369 163.24 154.129 165.24H119.089C119.169 168.52 120.049 170.8 121.729 172.08C123.409 173.36 126.489 174 130.969 174C134.809 174 138.729 173.76 142.729 173.28C146.729 172.72 149.889 172.12 152.209 171.48ZM128.929 143.88C125.089 143.88 122.489 144.56 121.129 145.92C119.769 147.2 119.089 149.76 119.089 153.6H138.409V150.96C138.329 148.16 137.649 146.28 136.369 145.32C135.169 144.36 132.689 143.88 128.929 143.88ZM224.864 170.88V185.76C222.944 186.96 219.824 188 215.504 188.88C211.184 189.76 206.744 190.2 202.184 190.2C193.544 190.2 187.464 187.92 183.944 183.36C180.504 178.72 178.784 170.72 178.784 159.36C178.784 148 181.024 140.04 185.504 135.48C189.984 130.84 197.824 128.52 209.024 128.52C211.744 128.52 214.184 128.6 216.344 128.76C218.504 128.84 220.824 129.04 223.304 129.36V145.32C219.384 145 216.544 144.84 214.784 144.84C213.024 144.76 211.104 144.72 209.024 144.72C203.504 144.72 200.064 145.52 198.704 147.12C197.424 148.64 196.784 152.72 196.784 159.36C196.784 165.36 197.304 169.2 198.344 170.88C199.464 172.56 201.984 173.4 205.904 173.4C209.104 173.4 212.424 173.16 215.864 172.68C219.384 172.2 222.384 171.6 224.864 170.88ZM250.269 189H232.269V129.72H249.069L249.669 134.28H249.909C252.789 132.52 255.709 131.2 258.669 130.32C261.709 129.36 264.549 128.88 267.189 128.88H268.149V146.28C267.429 146.12 266.629 146.04 265.749 146.04C264.949 145.96 263.909 145.92 262.629 145.92C260.309 145.92 258.109 146.08 256.029 146.4C253.949 146.64 252.029 147.04 250.269 147.6V189ZM322.834 171.48V185.76C320.914 186.96 317.674 188 313.114 188.88C308.554 189.76 303.754 190.2 298.714 190.2C289.114 190.2 282.194 187.8 277.954 183C273.714 178.12 271.594 170.24 271.594 159.36C271.594 148.72 273.834 140.92 278.314 135.96C282.794 131 289.874 128.52 299.554 128.52C308.994 128.52 315.634 130.4 319.474 134.16C323.394 137.84 325.354 144.4 325.354 153.84C325.354 156.4 325.314 158.44 325.234 159.96C325.154 161.48 324.994 163.24 324.754 165.24H289.714C289.794 168.52 290.674 170.8 292.354 172.08C294.034 173.36 297.114 174 301.594 174C305.434 174 309.354 173.76 313.354 173.28C317.354 172.72 320.514 172.12 322.834 171.48ZM299.554 143.88C295.714 143.88 293.114 144.56 291.754 145.92C290.394 147.2 289.714 149.76 289.714 153.6H309.034V150.96C308.954 148.16 308.274 146.28 306.994 145.32C305.794 144.36 303.314 143.88 299.554 143.88ZM348.037 190.2C341.957 190.2 337.477 188.68 334.597 185.64C331.797 182.6 330.397 177.8 330.397 171.24C330.397 164.52 332.077 159.8 335.437 157.08C338.877 154.36 344.757 153 353.077 153C354.997 153 356.957 153.12 358.957 153.36C361.037 153.52 362.837 153.76 364.357 154.08V149.76C364.357 147.84 363.517 146.44 361.837 145.56C360.237 144.6 357.757 144.12 354.397 144.12C350.557 144.12 347.117 144.24 344.077 144.48C341.117 144.64 338.397 144.96 335.917 145.44V130.68C338.877 129.96 342.317 129.44 346.237 129.12C350.157 128.72 354.717 128.52 359.917 128.52C367.277 128.52 372.837 130.16 376.597 133.44C380.437 136.72 382.357 141.56 382.357 147.96V189H365.557L364.957 183.96H364.597C362.117 185.88 359.397 187.4 356.437 188.52C353.477 189.64 350.677 190.2 348.037 190.2ZM355.477 164.88C352.277 164.88 350.117 165.24 348.997 165.96C347.877 166.6 347.317 168 347.317 170.16C347.317 172.16 347.757 173.56 348.637 174.36C349.597 175.08 351.237 175.44 353.557 175.44C355.317 175.44 357.157 175.2 359.077 174.72C360.997 174.24 362.757 173.64 364.357 172.92V165.6C363.397 165.36 362.197 165.2 360.757 165.12C359.317 164.96 357.557 164.88 355.477 164.88ZM395.602 144.72H388.642V129.72H396.202L398.482 115.92H413.602V129.72H430.402V144.72H413.602V167.76C413.602 170 414.162 171.52 415.282 172.32C416.482 173.04 418.802 173.4 422.242 173.4C423.442 173.4 424.922 173.32 426.682 173.16C428.442 172.92 429.922 172.68 431.122 172.44V187.8C429.842 188.36 427.842 188.88 425.122 189.36C422.482 189.92 420.122 190.2 418.042 190.2C410.042 190.2 404.282 188.52 400.762 185.16C397.322 181.72 395.602 176.16 395.602 168.48V144.72ZM485.959 171.48V185.76C484.039 186.96 480.799 188 476.239 188.88C471.679 189.76 466.879 190.2 461.839 190.2C452.239 190.2 445.319 187.8 441.079 183C436.839 178.12 434.719 170.24 434.719 159.36C434.719 148.72 436.959 140.92 441.439 135.96C445.919 131 452.999 128.52 462.679 128.52C472.119 128.52 478.759 130.4 482.599 134.16C486.519 137.84 488.479 144.4 488.479 153.84C488.479 156.4 488.439 158.44 488.359 159.96C488.279 161.48 488.119 163.24 487.879 165.24H452.839C452.919 168.52 453.799 170.8 455.479 172.08C457.159 173.36 460.239 174 464.719 174C468.559 174 472.479 173.76 476.479 173.28C480.479 172.72 483.639 172.12 485.959 171.48ZM462.679 143.88C458.839 143.88 456.239 144.56 454.879 145.92C453.519 147.2 452.839 149.76 452.839 153.6H472.159V150.96C472.079 148.16 471.399 146.28 470.119 145.32C468.919 144.36 466.439 143.88 462.679 143.88ZM41.76 253.2H59.76V333H43.8L42.84 327.48H42.48C40.32 329.72 37.76 331.4 34.8 332.52C31.84 333.64 28.48 334.2 24.72 334.2C16.88 334.2 11.28 331.84 7.92 327.12C4.64 322.4 3 314.48 3 303.36C3 292.56 5.08 284.72 9.24 279.84C13.48 274.96 20.32 272.52 29.76 272.52C32.08 272.52 34.24 272.68 36.24 273C38.32 273.24 40.16 273.6 41.76 274.08V253.2ZM32.28 288.72C27.48 288.72 24.4 289.64 23.04 291.48C21.68 293.24 21 297.2 21 303.36C21 309.2 21.6 313.04 22.8 314.88C24 316.64 26.8 317.52 31.2 317.52C33.28 317.52 35.2 317.36 36.96 317.04C38.8 316.72 40.4 316.24 41.76 315.6V290.28C40.56 289.72 39.16 289.32 37.56 289.08C36.04 288.84 34.28 288.72 32.28 288.72ZM88.0819 333H70.0819V273.72H86.8819L87.4819 278.28H87.7219C90.6019 276.52 93.5219 275.2 96.4819 274.32C99.5219 273.36 102.362 272.88 105.002 272.88H105.962V290.28C105.242 290.12 104.442 290.04 103.562 290.04C102.762 289.96 101.722 289.92 100.442 289.92C98.1219 289.92 95.9219 290.08 93.8419 290.4C91.7619 290.64 89.8419 291.04 88.0819 291.6V333ZM160.646 315.48V329.76C158.726 330.96 155.486 332 150.926 332.88C146.366 333.76 141.566 334.2 136.526 334.2C126.926 334.2 120.006 331.8 115.766 327C111.526 322.12 109.406 314.24 109.406 303.36C109.406 292.72 111.646 284.92 116.126 279.96C120.606 275 127.686 272.52 137.366 272.52C146.806 272.52 153.446 274.4 157.286 278.16C161.206 281.84 163.166 288.4 163.166 297.84C163.166 300.4 163.126 302.44 163.046 303.96C162.966 305.48 162.806 307.24 162.566 309.24H127.526C127.606 312.52 128.486 314.8 130.166 316.08C131.846 317.36 134.926 318 139.406 318C143.246 318 147.166 317.76 151.166 317.28C155.166 316.72 158.326 316.12 160.646 315.48ZM137.366 287.88C133.526 287.88 130.926 288.56 129.566 289.92C128.206 291.2 127.526 293.76 127.526 297.6H146.846V294.96C146.766 292.16 146.086 290.28 144.806 289.32C143.606 288.36 141.126 287.88 137.366 287.88ZM185.849 334.2C179.769 334.2 175.289 332.68 172.409 329.64C169.609 326.6 168.209 321.8 168.209 315.24C168.209 308.52 169.889 303.8 173.249 301.08C176.689 298.36 182.569 297 190.889 297C192.809 297 194.769 297.12 196.769 297.36C198.849 297.52 200.649 297.76 202.169 298.08V293.76C202.169 291.84 201.329 290.44 199.649 289.56C198.049 288.6 195.569 288.12 192.209 288.12C188.369 288.12 184.929 288.24 181.889 288.48C178.929 288.64 176.209 288.96 173.729 289.44V274.68C176.689 273.96 180.129 273.44 184.049 273.12C187.969 272.72 192.529 272.52 197.729 272.52C205.089 272.52 210.649 274.16 214.409 277.44C218.249 280.72 220.169 285.56 220.169 291.96V333H203.369L202.769 327.96H202.409C199.929 329.88 197.209 331.4 194.249 332.52C191.289 333.64 188.489 334.2 185.849 334.2ZM193.289 308.88C190.089 308.88 187.929 309.24 186.809 309.96C185.689 310.6 185.129 312 185.129 314.16C185.129 316.16 185.569 317.56 186.449 318.36C187.409 319.08 189.049 319.44 191.369 319.44C193.129 319.44 194.969 319.2 196.889 318.72C198.809 318.24 200.569 317.64 202.169 316.92V309.6C201.209 309.36 200.009 309.2 198.569 309.12C197.129 308.96 195.369 308.88 193.289 308.88ZM248.277 333H230.277V273.72H247.077L247.677 278.16H248.037C250.997 276.32 253.837 274.92 256.557 273.96C259.277 273 261.877 272.52 264.357 272.52C267.637 272.52 270.437 273.04 272.757 274.08C275.077 275.04 276.917 276.52 278.277 278.52H278.757C281.477 276.68 284.517 275.24 287.877 274.2C291.317 273.08 294.597 272.52 297.717 272.52C303.557 272.52 307.877 274.12 310.677 277.32C313.557 280.52 314.997 285.4 314.997 291.96V333H296.997V294.36C296.997 292.36 296.437 290.92 295.317 290.04C294.197 289.16 292.437 288.72 290.037 288.72C288.757 288.72 287.397 288.84 285.957 289.08C284.517 289.32 283.077 289.68 281.637 290.16V333H263.637V294.36C263.637 292.36 263.077 290.92 261.957 290.04C260.837 289.16 259.077 288.72 256.677 288.72C255.397 288.72 254.037 288.84 252.597 289.08C251.157 289.32 249.717 289.68 248.277 290.16V333ZM349.202 287.76C345.842 287.76 343.562 288.04 342.362 288.6C341.242 289.08 340.682 290.24 340.682 292.08C340.682 292.8 340.882 293.4 341.282 293.88C341.762 294.28 342.402 294.52 343.202 294.6L357.482 296.52C362.122 297.16 365.362 298.68 367.202 301.08C369.122 303.4 370.082 307.12 370.082 312.24C370.082 319.92 368.362 325.52 364.922 329.04C361.482 332.48 355.482 334.2 346.922 334.2C342.202 334.2 337.922 334 334.082 333.6C330.322 333.28 327.122 332.8 324.482 332.16V316.56C326.482 317.04 329.242 317.48 332.762 317.88C336.362 318.2 340.002 318.36 343.682 318.36C346.962 318.36 349.162 318.04 350.282 317.4C351.482 316.68 352.082 315.36 352.082 313.44C352.082 312.8 351.882 312.28 351.482 311.88C351.082 311.4 350.562 311.12 349.922 311.04L335.162 309.12C330.842 308.56 327.682 307 325.682 304.44C323.762 301.8 322.802 297.92 322.802 292.8C322.802 286.08 324.922 281.04 329.162 277.68C333.402 274.24 339.682 272.52 348.002 272.52C351.282 272.52 354.322 272.6 357.122 272.76C359.922 272.92 362.882 273.24 366.002 273.72V288.72C364.002 288.4 361.522 288.16 358.562 288C355.602 287.84 352.482 287.76 349.202 287.76ZM414.226 267.24H395.266V253.2H414.226V267.24ZM413.746 333H395.746V273.72H413.746V333ZM442.105 333H424.105V273.72H439.705L440.425 279.96H440.785C443.345 277.32 446.105 275.44 449.065 274.32C452.105 273.12 455.745 272.52 459.985 272.52C466.705 272.52 471.785 274.16 475.225 277.44C478.665 280.72 480.385 285.56 480.385 291.96V333H462.385V294.36C462.385 292.52 461.625 291.12 460.105 290.16C458.665 289.2 456.505 288.72 453.625 288.72C451.465 288.72 449.385 288.96 447.385 289.44C445.385 289.92 443.625 290.6 442.105 291.48V333ZM493.57 288.72H486.61V273.72H494.17L496.45 259.92H511.57V273.72H528.37V288.72H511.57V311.76C511.57 314 512.13 315.52 513.25 316.32C514.45 317.04 516.77 317.4 520.21 317.4C521.41 317.4 522.89 317.32 524.65 317.16C526.41 316.92 527.89 316.68 529.09 316.44V331.8C527.81 332.36 525.81 332.88 523.09 333.36C520.45 333.92 518.09 334.2 516.01 334.2C508.01 334.2 502.25 332.52 498.73 329.16C495.29 325.72 493.57 320.16 493.57 312.48V288.72ZM591.248 303.36C591.248 314.48 589.008 322.4 584.528 327.12C580.048 331.84 572.528 334.2 561.968 334.2C551.408 334.2 543.888 331.84 539.408 327.12C534.928 322.4 532.688 314.48 532.688 303.36C532.688 292.24 534.928 284.32 539.408 279.6C543.888 274.88 551.408 272.52 561.968 272.52C572.528 272.52 580.048 274.88 584.528 279.6C589.008 284.32 591.248 292.24 591.248 303.36ZM550.688 303.12C550.688 309.2 551.328 313.12 552.608 314.88C553.968 316.64 557.088 317.52 561.968 317.52C566.848 317.52 569.928 316.64 571.208 314.88C572.568 313.12 573.248 309.2 573.248 303.12C573.248 297.04 572.568 293.12 571.208 291.36C569.928 289.6 566.848 288.72 561.968 288.72C557.088 288.72 553.968 289.6 552.608 291.36C551.328 293.12 550.688 297.04 550.688 303.12ZM41.76 397.2H59.76V477H43.8L42.84 471.48H42.48C40.32 473.72 37.76 475.4 34.8 476.52C31.84 477.64 28.48 478.2 24.72 478.2C16.88 478.2 11.28 475.84 7.92 471.12C4.64 466.4 3 458.48 3 447.36C3 436.56 5.08 428.72 9.24 423.84C13.48 418.96 20.32 416.52 29.76 416.52C32.08 416.52 34.24 416.68 36.24 417C38.32 417.24 40.16 417.6 41.76 418.08V397.2ZM32.28 432.72C27.48 432.72 24.4 433.64 23.04 435.48C21.68 437.24 21 441.2 21 447.36C21 453.2 21.6 457.04 22.8 458.88C24 460.64 26.8 461.52 31.2 461.52C33.28 461.52 35.2 461.36 36.96 461.04C38.8 460.72 40.4 460.24 41.76 459.6V434.28C40.56 433.72 39.16 433.32 37.56 433.08C36.04 432.84 34.28 432.72 32.28 432.72ZM119.162 459.48V473.76C117.242 474.96 114.002 476 109.442 476.88C104.882 477.76 100.082 478.2 95.0419 478.2C85.4419 478.2 78.5219 475.8 74.2819 471C70.0419 466.12 67.9219 458.24 67.9219 447.36C67.9219 436.72 70.1619 428.92 74.6419 423.96C79.1219 419 86.2019 416.52 95.8819 416.52C105.322 416.52 111.962 418.4 115.802 422.16C119.722 425.84 121.682 432.4 121.682 441.84C121.682 444.4 121.642 446.44 121.562 447.96C121.482 449.48 121.322 451.24 121.082 453.24H86.0419C86.1219 456.52 87.0019 458.8 88.6819 460.08C90.3619 461.36 93.4419 462 97.9219 462C101.762 462 105.682 461.76 109.682 461.28C113.682 460.72 116.842 460.12 119.162 459.48ZM95.8819 431.88C92.0419 431.88 89.4419 432.56 88.0819 433.92C86.7219 435.2 86.0419 437.76 86.0419 441.6H105.362V438.96C105.282 436.16 104.602 434.28 103.322 433.32C102.122 432.36 99.6419 431.88 95.8819 431.88ZM154.085 431.76C150.725 431.76 148.445 432.04 147.245 432.6C146.125 433.08 145.565 434.24 145.565 436.08C145.565 436.8 145.765 437.4 146.165 437.88C146.645 438.28 147.285 438.52 148.085 438.6L162.365 440.52C167.005 441.16 170.245 442.68 172.085 445.08C174.005 447.4 174.965 451.12 174.965 456.24C174.965 463.92 173.245 469.52 169.805 473.04C166.365 476.48 160.365 478.2 151.805 478.2C147.085 478.2 142.805 478 138.965 477.6C135.205 477.28 132.005 476.8 129.365 476.16V460.56C131.365 461.04 134.125 461.48 137.645 461.88C141.245 462.2 144.885 462.36 148.565 462.36C151.845 462.36 154.045 462.04 155.165 461.4C156.365 460.68 156.965 459.36 156.965 457.44C156.965 456.8 156.765 456.28 156.365 455.88C155.965 455.4 155.445 455.12 154.805 455.04L140.045 453.12C135.725 452.56 132.565 451 130.565 448.44C128.645 445.8 127.685 441.92 127.685 436.8C127.685 430.08 129.805 425.04 134.045 421.68C138.285 418.24 144.565 416.52 152.885 416.52C156.165 416.52 159.205 416.6 162.005 416.76C164.805 416.92 167.765 417.24 170.885 417.72V432.72C168.885 432.4 166.405 432.16 163.445 432C160.485 431.84 157.365 431.76 154.085 431.76ZM201.296 411.24H182.336V397.2H201.296V411.24ZM200.816 477H182.816V417.72H200.816V477ZM237.936 496.44C233.696 496.44 229.616 496.16 225.696 495.6C221.856 495.04 218.696 494.32 216.216 493.44V478.2C218.136 478.76 221.016 479.24 224.856 479.64C228.776 480.04 232.656 480.24 236.496 480.24C240.816 480.24 243.776 479.6 245.376 478.32C246.976 477.04 247.816 474.68 247.896 471.24V468.36C244.696 469.88 241.616 471.04 238.656 471.84C235.696 472.56 232.816 472.92 230.016 472.92C222.416 472.92 217.016 470.8 213.816 466.56C210.696 462.24 209.136 454.96 209.136 444.72C209.136 434.56 211.376 427.32 215.856 423C220.416 418.68 228.056 416.52 238.776 416.52C243.016 416.52 247.896 416.76 253.416 417.24C259.016 417.72 263.176 418.24 265.896 418.8V465.6C265.896 477.04 263.816 485.04 259.656 489.6C255.496 494.16 248.256 496.44 237.936 496.44ZM238.776 432.72C233.416 432.72 230.136 433.32 228.936 434.52C227.736 435.72 227.136 439.12 227.136 444.72C227.136 449.76 227.656 452.96 228.696 454.32C229.736 455.6 232.256 456.24 236.256 456.24C237.776 456.24 239.496 456.08 241.416 455.76C243.416 455.44 245.576 455 247.896 454.44V433.44C246.696 433.2 245.336 433.04 243.816 432.96C242.296 432.8 240.616 432.72 238.776 432.72ZM294.215 477H276.215V417.72H291.815L292.535 423.96H292.895C295.455 421.32 298.215 419.44 301.175 418.32C304.215 417.12 307.855 416.52 312.095 416.52C318.815 416.52 323.895 418.16 327.335 421.44C330.775 424.72 332.495 429.56 332.495 435.96V477H314.495V438.36C314.495 436.52 313.735 435.12 312.215 434.16C310.775 433.2 308.615 432.72 305.735 432.72C303.575 432.72 301.495 432.96 299.495 433.44C297.495 433.92 295.735 434.6 294.215 435.48V477ZM358.263 477H340.863V460.44H358.263V477Z" fill="black"/>
</svg>
