<svg width="180" height="190" viewBox="0 0 180 190" fill="none" xmlns="http://www.w3.org/2000/svg">
<path opacity="0.86" d="M146.579 31.5H33.4219V134.467H146.579V31.5Z" fill="#C9C9C9"/>
<path d="M81.4498 122.703L77.1523 160.939H105.817L99.2248 122.703H81.4498Z" fill="#C9C9C9"/>
<path opacity="0.08" d="M88.4609 31.834H94.4999C94.4999 31.834 93.1769 37.6321 91.4714 41.2118C89.7659 44.7915 95.3324 50.0035 95.3324 50.0035L116.311 31.5567L122.836 31.5C122.836 31.5 130.05 50.6779 124.308 58.4486C118.566 66.2193 105.232 61.8077 104.782 67.4798C104.332 73.1518 112.729 84.288 112.729 84.288L139.95 55.4865C139.95 55.4865 145.602 60.604 140.652 65.8286C135.702 71.0532 122.692 103.088 113.899 103.352C105.106 103.617 102.703 98.7391 104.652 110.947H91.1519L87.8534 64.3979L83.3984 50.0035L86.2064 33.4915L88.4609 31.834Z" fill="black"/>
<path opacity="0.45" d="M90.6938 174.271C116.628 174.271 137.651 170.806 137.651 166.532C137.651 162.258 116.628 158.793 90.6938 158.793C64.7599 158.793 43.7363 162.258 43.7363 166.532C43.7363 170.806 64.7599 174.271 90.6938 174.271Z" fill="#E6E6E6"/>
<path opacity="0.58" d="M121.409 158.653C121.409 158.653 117.336 157.096 116.459 151.789C116.459 151.789 122.759 150.006 122.948 159.125L121.409 158.653Z" fill="#68E1FD"/>
<path opacity="0.73" d="M121.909 158.079C121.909 158.079 119.065 151.777 121.567 145.891C121.567 145.891 126.359 150.157 124.231 158.092L121.909 158.079Z" fill="#68E1FD"/>
<path d="M122.639 158.077C122.639 158.077 124.142 151.428 128.687 150.168C128.687 150.168 129.537 154.485 125.744 158.096L122.639 158.077Z" fill="#68E1FD"/>
<path d="M119.686 157.934L120.514 165.837L125.711 165.868L126.476 157.971L119.686 157.934Z" fill="#24285B"/>
<path d="M135.293 56.1718C135.293 56.1718 138.132 51.7602 140.175 52.006C142.218 52.2518 143.325 57.6781 136.958 60.9111L135.293 56.1718Z" fill="#F4A28C"/>
<path d="M161.464 14.0078H134.986V45.8092H161.464V14.0078Z" fill="#C9C9C9"/>
<path d="M104.223 55.0117L113.876 77.6306L134.778 56.4549L138.531 60.4191L117.741 91.6091C117.015 92.6982 116.132 93.561 115.152 94.1416C114.171 94.7221 113.115 95.0073 112.05 94.9788C110.986 94.9503 109.938 94.6086 108.974 93.976C108.01 93.3433 107.152 92.4338 106.455 91.3066L96.1055 74.5047L104.223 55.0117Z" fill="#68E1FD"/>
<path opacity="0.46" d="M104.223 55.0117L113.876 77.6306L134.778 56.4549L138.531 60.4191L117.741 91.6091C117.015 92.6982 116.132 93.561 115.152 94.1416C114.171 94.7221 113.115 95.0073 112.05 94.9788C110.986 94.9503 109.938 94.6086 108.974 93.976C108.01 93.3433 107.152 92.4338 106.455 91.3066L96.1055 74.5047L104.223 55.0117Z" fill="white"/>
<path d="M146.579 110.945H33.4219V134.465H146.579V110.945Z" fill="#E6E6E6"/>
<path d="M90.629 127.664C93.1391 127.664 95.174 124.814 95.174 121.299C95.174 117.783 93.1391 114.934 90.629 114.934C88.1188 114.934 86.084 117.783 86.084 121.299C86.084 124.814 88.1188 127.664 90.629 127.664Z" fill="#A5A5A5"/>
<path d="M110.925 154.242H70.6094V166.532H110.925V154.242Z" fill="#E6E6E6"/>
<path d="M88.3988 30.8096C88.3988 30.8096 88.7543 35.2212 88.2773 38.1454C88.1829 38.7204 87.9294 39.2193 87.5725 39.5325C87.2155 39.8457 86.7843 39.9475 86.3738 39.8156C85.3163 39.4563 83.9663 38.5551 83.5703 36.2296L82.5578 32.4041C82.4118 31.6089 82.446 30.7699 82.6556 30.0032C82.8652 29.2365 83.2399 28.58 83.7278 28.1248C85.4738 26.3035 88.2773 28.1248 88.3988 30.8096Z" fill="#F4A28C"/>
<path d="M83.1368 33.4883L80.5898 47.5109L86.2058 48.9289L85.8053 38.1583L83.1368 33.4883Z" fill="#F4A28C"/>
<path d="M82.2139 35.8402C82.2154 35.9336 82.2393 36.0235 82.2817 36.0955C82.3242 36.1676 82.3827 36.2175 82.4479 36.2373C82.8907 36.3963 83.3586 36.3475 83.7797 36.0981C84.2008 35.8488 84.5518 35.4128 84.7789 34.8571C85.0501 34.2476 85.1878 33.5401 85.175 32.8221C85.1622 32.1041 84.9995 31.4071 84.7069 30.8173C85.6681 31.0472 86.6454 31.117 87.6184 31.0253C87.946 30.9982 88.2683 30.896 88.5724 30.7228L89.3239 27.3763C89.3239 27.3763 90.5614 24.0234 89.1574 23.3491C87.7534 22.6748 87.1279 24.9247 85.9759 23.3491C84.8239 21.7735 84.5584 21.1874 83.3974 22.0886C82.2364 22.9899 83.5864 24.2566 81.6739 24.2944C79.7614 24.3323 79.7344 25.4415 79.7344 26.6578C79.779 27.0737 79.9105 27.4619 80.1124 27.7733C81.4185 30.0723 82.156 32.9034 82.2139 35.8402Z" fill="#24285B"/>
<path d="M85.1169 34.7145C85.1169 34.7145 85.0494 33.0192 84.1494 33.183C83.2494 33.3469 83.3079 35.7985 84.5499 35.9876L85.1169 34.7145Z" fill="#F4A28C"/>
<path d="M88.5198 33.5977L89.4198 35.2615C89.4719 35.3562 89.5059 35.468 89.5188 35.5862C89.5316 35.7045 89.5227 35.8254 89.493 35.9375C89.4633 36.0497 89.4138 36.1494 89.349 36.2274C89.2843 36.3053 89.2064 36.359 89.1228 36.3833L87.9258 36.7488L88.5198 33.5977Z" fill="#F4A28C"/>
<path opacity="0.31" d="M85.8411 39.5909C85.8411 39.5909 85.1166 39.4207 83.8161 37.7695C83.8161 37.7695 83.6271 40.6434 85.9761 42.7609L85.8411 39.5909Z" fill="#CE8172"/>
<path d="M66.1811 60.1614C66.4437 57.2949 67.3634 54.6251 68.8022 52.5533C70.2409 50.4815 72.1209 49.1196 74.1596 48.6724C80.4146 47.2859 90.3596 46.309 99.8096 50.563C115.222 57.4956 96.8846 103.345 96.8846 103.345H74.2946C74.2946 103.345 64.0976 83.3286 66.1811 60.1614Z" fill="#68E1FD"/>
<path d="M74.2949 103.352L76.1714 110.946H99.1214L96.9074 103.352H74.2949Z" fill="#24285B"/>
<path d="M93.8027 55.4277L96.7052 65.8264L99.1307 64.0429L96.7052 55.0117L93.8027 55.4277Z" fill="#FFD200"/>
<path opacity="0.08" d="M75.907 54.9297C75.907 54.9297 84.1195 63.1668 79.8445 78.2481L97.732 58.0052C97.732 58.0052 101.332 63.1101 96.0895 68.259C90.847 73.408 91.342 93.9282 83.3995 103.382H74.296L72.1945 95.9765L70.3945 73.7357L75.907 54.9297Z" fill="black"/>
<path opacity="0.4" d="M93.8027 55.4277L96.7052 65.8264L99.1307 64.0429L96.7052 55.0117L93.8027 55.4277Z" fill="white"/>
<path d="M92.8535 59.6562C92.8535 59.6562 95.6885 55.2446 97.7315 55.4904C99.7745 55.7362 100.882 61.1624 94.5185 64.3955L92.8535 59.6562Z" fill="#F4A28C"/>
<path d="M95.3555 46.2766L115.488 29.418L119.988 55.0116H96.7055L95.3555 46.2766Z" fill="#FFD200"/>
<path d="M95.3549 46.2773L90.252 48.7352L91.827 56.4555L96.7049 55.0123L95.3549 46.2773Z" fill="#FFD200"/>
<path opacity="0.08" d="M95.3549 46.2773L90.252 48.7352L91.827 56.4555L96.7049 55.0123L95.3549 46.2773Z" fill="black"/>
<path d="M157.626 96.1797H127.701V123.525H157.626V96.1797Z" fill="#FFD200"/>
<path d="M50.6786 17.4688H24.8711V51.6839H50.6786V17.4688Z" fill="#24285B"/>
<path d="M138.01 102.5V117.203L148.936 108.916L138.01 102.5Z" fill="white"/>
<path d="M40.167 26.6017C39.471 26.5928 38.794 26.92 38.25 27.5282C37.7884 28.0431 37.4083 28.687 37.134 29.4189C36.8582 28.6884 36.4784 28.0449 36.018 27.5282C35.4761 26.9236 34.8029 26.5968 34.11 26.6017C32.157 26.6017 30.6855 28.8391 30.6855 31.8074C30.6855 35.009 32.5215 37.2022 35.3025 40.5235C35.7525 41.0907 36.3105 41.7272 36.8685 42.4142C36.9411 42.5063 37.0361 42.5559 37.134 42.5528C37.2318 42.5547 37.3265 42.5052 37.3995 42.4142C37.953 41.7335 38.4885 41.097 38.9655 40.5235C41.7465 37.2022 43.5825 35.009 43.5825 31.8074C43.5915 28.8264 42.12 26.6017 40.167 26.6017Z" fill="white"/>
<path opacity="0.72" d="M134.99 39.4156L143.27 21.2461L148.225 37.8085L153.652 24.2523L161.464 40.5878V45.8124H134.99V39.4156Z" fill="white"/>
<path d="M148.753 25.7637C150.008 25.7637 151.025 24.3388 151.025 22.5811C151.025 20.8234 150.008 19.3984 148.753 19.3984C147.498 19.3984 146.48 20.8234 146.48 22.5811C146.48 24.3388 147.498 25.7637 148.753 25.7637Z" fill="white"/>
<path d="M76.257 56.7383C76.1025 55.3867 75.689 54.1191 75.0605 53.0708C74.432 52.0225 73.6121 51.2327 72.6883 50.7857C71.7645 50.3387 70.7714 50.2512 69.8149 50.5326C68.8584 50.814 67.9743 51.4537 67.257 52.3834C66.0801 53.9104 65.1499 55.7722 64.529 57.844C63.9081 59.9158 63.6108 62.1496 63.657 64.3956C63.7695 77.5106 63.432 98.6233 70.9695 102.562C78.507 106.501 94.5 64.3956 94.5 64.3956L92.835 59.6563L73.7505 81.9285C73.7505 81.9285 77.4 67.7295 76.257 56.7383Z" fill="#68E1FD"/>
<path opacity="0.46" d="M76.257 56.7383C76.1025 55.3867 75.689 54.1191 75.0605 53.0708C74.432 52.0225 73.6121 51.2327 72.6883 50.7857C71.7645 50.3387 70.7714 50.2512 69.8149 50.5326C68.8584 50.814 67.9743 51.4537 67.257 52.3834C66.0801 53.9104 65.1499 55.7722 64.529 57.844C63.9081 59.9158 63.6108 62.1496 63.657 64.3956C63.7695 77.5106 63.432 98.6233 70.9695 102.562C78.507 106.501 94.5 64.3956 94.5 64.3956L92.835 59.6563L73.7505 81.9285C73.7505 81.9285 77.4 67.7295 76.257 56.7383Z" fill="white"/>
<path d="M120.324 54.9354C122.324 54.2592 122.954 47.9538 121.73 40.8519C120.506 33.7499 117.892 28.5408 115.892 29.217C113.891 29.8932 113.262 36.1987 114.486 43.3006C115.71 50.4026 118.324 55.6117 120.324 54.9354Z" fill="#FFD200"/>
<path opacity="0.4" d="M120.324 54.9354C122.324 54.2592 122.954 47.9538 121.73 40.8519C120.506 33.7499 117.892 28.5408 115.892 29.217C113.891 29.8932 113.262 36.1987 114.486 43.3006C115.71 50.4026 118.324 55.6117 120.324 54.9354Z" fill="white"/>
<path d="M114.169 37.732C114.068 37.7703 113.97 37.8231 113.877 37.8896C114.02 42.0892 114.759 46.2069 116.05 50.0026C116.126 49.9972 116.202 49.9824 116.275 49.9585C117.558 49.5236 118.125 46.4355 117.544 43.026C116.964 39.6164 115.452 37.2972 114.169 37.732Z" fill="#FFD200"/>
<path opacity="0.08" d="M114.169 37.732C114.068 37.7703 113.97 37.8231 113.877 37.8896C114.02 42.0892 114.759 46.2069 116.05 50.0026C116.126 49.9972 116.202 49.9824 116.275 49.9585C117.558 49.5236 118.125 46.4355 117.544 43.026C116.964 39.6164 115.452 37.2972 114.169 37.732Z" fill="black"/>
<path d="M49.2562 69.1289H19.7812V96.8274H49.2562V69.1289Z" fill="#E6E6E6"/>
<path d="M19.7773 69.1289L34.5148 88.7605L49.2523 69.1289H19.7773Z" fill="#C9C9C9"/>
</svg>
