<svg width="201" height="196" viewBox="0 0 201 196" fill="none" xmlns="http://www.w3.org/2000/svg">
<g clip-path="url(#clip0)">
<path d="M50.2605 196.001C77.9929 196.001 100.5 181.367 100.5 163.335V130.668H50.2605C22.528 130.668 0.0205078 145.303 0.0205078 163.335C0.0205078 181.367 22.528 196.001 50.2605 196.001Z" fill="#0ACF83"/>
<path d="M0.0205078 97.9987C0.0205078 79.9667 22.528 65.332 50.2605 65.332H100.5V130.665H50.2605C22.528 130.665 0.0205078 116.031 0.0205078 97.9987Z" fill="#A259FF"/>
<path d="M0.0205078 32.6667C0.0205078 14.6347 22.528 0 50.2605 0H100.5V65.3333H50.2605C22.528 65.3333 0.0205078 50.6987 0.0205078 32.6667Z" fill="#F24E1E"/>
<path d="M100.5 0H150.74C178.472 0 200.98 14.6347 200.98 32.6667C200.98 50.6987 178.472 65.3333 150.74 65.3333H100.5V0Z" fill="#FF7262"/>
<path d="M200.98 97.9987C200.98 116.031 178.472 130.665 150.74 130.665C123.007 130.665 100.5 116.031 100.5 97.9987C100.5 79.9667 123.007 65.332 150.74 65.332C178.472 65.332 200.98 79.9667 200.98 97.9987Z" fill="#1ABCFE"/>
</g>
<defs>
<clipPath id="clip0">
<rect width="201" height="196" fill="white"/>
</clipPath>
</defs>
</svg>
