<svg width="133" height="200" viewBox="0 0 133 200" fill="none" xmlns="http://www.w3.org/2000/svg">
<path d="M33.257 199.999C51.6074 199.999 66.5004 185.065 66.5004 166.665V133.332H33.257C14.9067 133.332 0.0136719 148.265 0.0136719 166.665C0.0136719 185.065 14.9067 199.999 33.257 199.999Z" fill="#0ACF83"/>
<path d="M0.0136719 100.001C0.0136719 81.6013 14.9067 66.668 33.257 66.668H66.5004V133.335H33.257C14.9067 133.335 0.0136719 118.401 0.0136719 100.001Z" fill="#A259FF"/>
<path d="M0.0136719 33.3333C0.0136719 14.9333 14.9067 0 33.257 0H66.5004V66.6667H33.257C14.9067 66.6667 0.0136719 51.7333 0.0136719 33.3333Z" fill="#F24E1E"/>
<path d="M66.5 0H99.7433C118.094 0 132.987 14.9333 132.987 33.3333C132.987 51.7333 118.094 66.6667 99.7433 66.6667H66.5V0Z" fill="#FF7262"/>
<path d="M132.987 100.001C132.987 118.401 118.094 133.335 99.7433 133.335C81.393 133.335 66.5 118.401 66.5 100.001C66.5 81.6013 81.393 66.668 99.7433 66.668C118.094 66.668 132.987 81.6013 132.987 100.001Z" fill="#1ABCFE"/>
</svg>
