<svg width="881" height="559" viewBox="0 0 881 559" fill="none" xmlns="http://www.w3.org/2000/svg">
<g filter="url(#filter0_di)">
<path d="M849.5 381C871.442 257.325 627.5 18 609 10H10V529H739C739 529 844 412 849.5 381Z" fill="#34C25E"/>
</g>
<path d="M271.852 230.265V321.334H205.103V230.265C205.1 224.825 203.264 219.544 199.893 215.275C196.521 211.007 191.811 208 186.522 206.741C181.233 205.482 175.674 206.043 170.743 208.335C165.812 210.627 161.797 214.515 159.346 219.371C156.895 224.228 156.151 229.77 157.235 235.101C158.318 240.433 161.166 245.243 165.318 248.756C169.47 252.268 174.684 254.278 180.117 254.46C185.551 254.642 190.888 252.986 195.265 249.759V320.005C190.548 320.768 185.778 321.147 181 321.137C163.002 321.137 145.408 315.796 130.443 305.789C115.478 295.782 103.815 281.559 96.927 264.919C90.0394 248.278 88.2373 229.967 91.7486 212.302C95.2598 194.636 103.927 178.41 116.653 165.673C129.38 152.937 145.595 144.264 163.247 140.75C180.899 137.236 199.196 139.039 215.824 145.932C232.452 152.825 246.665 164.497 256.664 179.474C266.663 194.45 272 212.057 272 230.068L271.852 230.265Z" fill="#F5F6F1"/>
<path d="M219.862 296.681V303.623C219.411 303.368 219.001 303.241 218.63 303.241C217.45 303.241 216.86 304.143 216.86 305.948V314.156H210.37V304.699C210.37 302.2 211.053 300.21 212.418 298.729C213.783 297.237 215.605 296.49 217.884 296.49C218.393 296.49 219.053 296.554 219.862 296.681ZM221.789 297.098H228.279V306.868C228.279 307.851 228.69 308.343 229.511 308.343C230.321 308.343 230.726 307.851 230.726 306.868V297.098H237.216V306.746C237.216 308.991 236.47 310.888 234.977 312.438C233.485 313.977 231.657 314.746 229.494 314.746C227.029 314.746 225.045 313.85 223.541 312.056C222.373 310.657 221.789 308.713 221.789 306.226V297.098ZM247.507 290.469V314.156H241.016V290.469H247.507ZM268.331 306.555H258.491C258.341 306.058 258.266 305.601 258.266 305.184C258.266 304.606 258.37 304.039 258.578 303.484H261.875C261.644 302.2 260.921 301.558 259.706 301.558C258.896 301.558 258.237 301.905 257.728 302.599C257.219 303.281 256.964 304.161 256.964 305.237C256.964 306.359 257.207 307.267 257.693 307.961C258.191 308.655 258.838 309.002 259.637 309.002C260.285 309.002 260.909 308.678 261.511 308.03L265.207 312.473C263.483 313.827 261.569 314.503 259.463 314.503C256.895 314.503 254.737 313.641 252.99 311.918C251.243 310.194 250.37 308.059 250.37 305.514C250.37 302.981 251.249 300.84 253.008 299.093C254.778 297.346 256.947 296.473 259.515 296.473C262.026 296.473 264.131 297.329 265.832 299.041C267.544 300.742 268.4 302.842 268.4 305.341C268.4 305.595 268.377 306 268.331 306.555Z" fill="#34C25E"/>
<path d="M304.003 269.068V282.171H299.744V294H284.967V262.408C284.967 256.293 286.629 251.55 289.954 248.177C293.302 244.78 297.997 243.081 304.039 243.081C309.862 243.081 314.169 244.622 316.96 247.704C319.75 250.761 321.145 255.493 321.145 261.898V294H306.368V262.881C306.368 260.94 306.138 259.593 305.677 258.841C305.216 258.089 304.391 257.713 303.202 257.713C300.897 257.713 299.744 259.435 299.744 262.881V269.068H304.003ZM329.08 244.319H343.857V273.836C343.857 276.141 344.221 277.682 344.949 278.459C345.701 279.211 347.169 279.587 349.353 279.587H350.117V294H346.186C340.799 294 336.602 292.435 333.593 289.305C330.584 286.15 329.08 281.783 329.08 276.202V244.319ZM371.3 276.821V263.791C374.284 263.791 375.776 262.65 375.776 260.37C375.776 258.283 374.636 257.24 372.355 257.24C370.05 257.24 368.898 258.671 368.898 261.534V294H354.121V263.063C354.121 259.86 354.436 257.24 355.067 255.201C355.722 253.139 356.826 251.222 358.379 249.451C360.126 247.485 362.31 245.932 364.93 244.792C367.551 243.652 370.256 243.081 373.047 243.081C378.094 243.081 382.328 244.78 385.749 248.177C389.195 251.574 390.917 255.784 390.917 260.806C390.917 265.684 389.377 269.639 386.295 272.672C383.48 275.462 379.234 276.857 373.556 276.857L371.3 276.821ZM415.958 262.08V275.183H411.845V294H397.068V244.319H411.845V262.08H415.958ZM433.246 244.319V294H418.47V244.319H433.246ZM461.235 269.068V282.171H456.977V294H442.2V262.408C442.2 256.293 443.862 251.55 447.186 248.177C450.535 244.78 455.23 243.081 461.272 243.081C467.095 243.081 471.402 244.622 474.193 247.704C476.983 250.761 478.378 255.493 478.378 261.898V294H463.601V262.881C463.601 260.94 463.371 259.593 462.91 258.841C462.449 258.089 461.624 257.713 460.435 257.713C458.13 257.713 456.977 259.435 456.977 262.881V269.068H461.235ZM502.109 257.676V294H487.332V244.319H506.294C512.069 244.319 516.546 245.75 519.725 248.614C523.267 251.816 525.038 255.881 525.038 260.806C525.038 265.829 522.843 270.063 518.451 273.509L526.967 294H511.463L504.292 277.986V265.21H505.457C508.563 265.21 510.116 263.876 510.116 261.207C510.116 258.853 508.32 257.676 504.729 257.676H502.109ZM566.858 244.319V276.53C566.858 282.208 565.159 286.745 561.762 290.142C558.39 293.539 553.889 295.237 548.259 295.237C542.654 295.237 538.36 293.588 535.375 290.288C532.415 286.988 530.935 282.244 530.935 276.057V244.319H545.712V276.02C545.712 279.053 546.791 280.57 548.951 280.57C551.038 280.57 552.081 279.053 552.081 276.02V244.319H566.858ZM574.829 244.319H589.606V273.836C589.606 276.141 589.97 277.682 590.698 278.459C591.45 279.211 592.918 279.587 595.102 279.587H595.866V294H591.935C586.548 294 582.351 292.435 579.342 289.305C576.333 286.15 574.829 281.783 574.829 276.202V244.319ZM627.385 263.645V274.71H617.74C616.43 274.71 615.496 274.904 614.938 275.292C614.404 275.68 614.137 276.336 614.137 277.258C614.137 278.301 614.416 278.993 614.974 279.332C615.532 279.648 616.673 279.805 618.395 279.805H628.332V294H616.721C611.262 294 607.088 292.702 604.201 290.106C601.313 287.485 599.87 283.712 599.87 278.786V259.314C599.87 254.558 601.228 250.87 603.946 248.25C606.688 245.629 610.534 244.319 615.484 244.319H628.332V258.586H618.905C616.357 258.586 615.083 259.411 615.083 261.061C615.083 262.032 615.387 262.711 615.993 263.099C616.6 263.463 617.68 263.645 619.233 263.645H627.385Z" fill="#F5F6F1"/>
<path d="M286.382 325V306.718H288.801V325H286.382ZM297.676 325V306.718H303.974C305.395 306.718 306.48 306.805 307.228 306.98C308.276 307.221 309.17 307.657 309.91 308.289C310.874 309.104 311.593 310.147 312.067 311.419C312.549 312.683 312.79 314.13 312.79 315.759C312.79 317.148 312.628 318.378 312.304 319.451C311.98 320.523 311.564 321.413 311.057 322.119C310.55 322.818 309.993 323.37 309.386 323.778C308.787 324.177 308.06 324.48 307.203 324.688C306.355 324.896 305.379 325 304.273 325H297.676ZM300.095 322.843H303.999C305.204 322.843 306.148 322.73 306.829 322.506C307.519 322.281 308.068 321.965 308.476 321.558C309.049 320.984 309.494 320.215 309.81 319.251C310.134 318.278 310.296 317.102 310.296 315.722C310.296 313.81 309.98 312.342 309.348 311.32C308.725 310.289 307.964 309.599 307.066 309.25C306.418 309 305.374 308.875 303.936 308.875H300.095V322.843ZM320.78 325V306.718H333.999V308.875H323.199V314.475H333.313V316.62H323.199V322.843H334.423V325H320.78ZM340.354 325L347.375 306.718H349.981L357.464 325H354.708L352.575 319.463H344.931L342.923 325H340.354ZM345.629 317.493H351.827L349.919 312.43C349.337 310.891 348.905 309.628 348.622 308.638C348.389 309.811 348.061 310.975 347.637 312.13L345.629 317.493ZM363.171 319.126L365.453 318.927C365.561 319.841 365.811 320.594 366.201 321.184C366.6 321.766 367.216 322.24 368.047 322.606C368.878 322.963 369.814 323.142 370.853 323.142C371.776 323.142 372.591 323.005 373.297 322.73C374.004 322.456 374.528 322.082 374.869 321.608C375.218 321.126 375.392 320.602 375.392 320.037C375.392 319.463 375.226 318.964 374.893 318.54C374.561 318.108 374.012 317.746 373.247 317.455C372.757 317.264 371.672 316.969 369.992 316.57C368.313 316.162 367.137 315.78 366.463 315.422C365.59 314.965 364.938 314.4 364.505 313.726C364.081 313.045 363.869 312.284 363.869 311.444C363.869 310.522 364.131 309.661 364.655 308.863C365.179 308.056 365.944 307.445 366.95 307.03C367.956 306.614 369.074 306.406 370.304 306.406C371.659 306.406 372.852 306.626 373.883 307.067C374.923 307.499 375.721 308.14 376.278 308.988C376.835 309.836 377.134 310.796 377.176 311.868L374.856 312.043C374.731 310.887 374.307 310.014 373.584 309.424C372.869 308.834 371.809 308.539 370.404 308.539C368.941 308.539 367.872 308.809 367.199 309.349C366.534 309.881 366.201 310.526 366.201 311.282C366.201 311.939 366.438 312.479 366.912 312.903C367.378 313.327 368.592 313.764 370.554 314.213C372.524 314.653 373.875 315.04 374.607 315.373C375.671 315.863 376.456 316.487 376.964 317.243C377.471 317.991 377.724 318.856 377.724 319.837C377.724 320.81 377.446 321.729 376.889 322.593C376.332 323.449 375.529 324.119 374.482 324.601C373.443 325.075 372.27 325.312 370.965 325.312C369.311 325.312 367.922 325.071 366.8 324.588C365.686 324.106 364.809 323.383 364.169 322.419C363.537 321.446 363.204 320.348 363.171 319.126ZM405.887 317.829V315.684L413.631 315.672V322.456C412.442 323.404 411.216 324.119 409.952 324.601C408.688 325.075 407.391 325.312 406.061 325.312C404.265 325.312 402.632 324.929 401.16 324.164C399.697 323.391 398.591 322.277 397.843 320.822C397.095 319.367 396.721 317.742 396.721 315.946C396.721 314.167 397.091 312.509 397.831 310.97C398.579 309.424 399.651 308.277 401.048 307.529C402.445 306.78 404.053 306.406 405.874 306.406C407.196 306.406 408.389 306.622 409.453 307.055C410.526 307.479 411.365 308.073 411.972 308.838C412.579 309.603 413.041 310.6 413.357 311.831L411.174 312.43C410.9 311.498 410.559 310.767 410.152 310.235C409.744 309.703 409.162 309.279 408.406 308.963C407.649 308.638 406.809 308.476 405.887 308.476C404.781 308.476 403.825 308.647 403.018 308.988C402.212 309.32 401.559 309.761 401.061 310.31C400.57 310.858 400.188 311.461 399.913 312.118C399.448 313.248 399.215 314.475 399.215 315.797C399.215 317.426 399.493 318.79 400.05 319.887C400.616 320.984 401.435 321.799 402.507 322.331C403.58 322.863 404.719 323.129 405.924 323.129C406.972 323.129 407.994 322.93 408.992 322.531C409.99 322.123 410.746 321.691 411.262 321.234V317.829H405.887ZM421.857 325V306.718H435.076V308.875H424.276V314.475H434.39V316.62H424.276V322.843H435.5V325H421.857ZM448.091 325V308.875H442.068V306.718H456.559V308.875H450.51V325H448.091ZM468.302 325V308.875H462.278V306.718H476.769V308.875H470.721V325H468.302ZM484.272 325V306.718H486.691V325H484.272ZM495.541 325V306.718H498.023L507.625 321.072V306.718H509.945V325H507.463L497.861 310.634V325H495.541ZM527.175 317.829V315.684L534.919 315.672V322.456C533.73 323.404 532.504 324.119 531.24 324.601C529.976 325.075 528.68 325.312 527.349 325.312C525.554 325.312 523.92 324.929 522.448 324.164C520.985 323.391 519.879 322.277 519.131 320.822C518.383 319.367 518.009 317.742 518.009 315.946C518.009 314.167 518.379 312.509 519.119 310.97C519.867 309.424 520.939 308.277 522.336 307.529C523.733 306.78 525.342 306.406 527.162 306.406C528.484 306.406 529.677 306.622 530.741 307.055C531.814 307.479 532.654 308.073 533.26 308.838C533.867 309.603 534.329 310.6 534.645 311.831L532.462 312.43C532.188 311.498 531.847 310.767 531.44 310.235C531.032 309.703 530.45 309.279 529.694 308.963C528.937 308.638 528.098 308.476 527.175 308.476C526.069 308.476 525.113 308.647 524.306 308.988C523.5 309.32 522.847 309.761 522.349 310.31C521.858 310.858 521.476 311.461 521.201 312.118C520.736 313.248 520.503 314.475 520.503 315.797C520.503 317.426 520.781 318.79 521.338 319.887C521.904 320.984 522.723 321.799 523.795 322.331C524.868 322.863 526.007 323.129 527.212 323.129C528.26 323.129 529.282 322.93 530.28 322.531C531.278 322.123 532.034 321.691 532.55 321.234V317.829H527.175ZM554.838 325V306.718H562.944C564.574 306.718 565.812 306.884 566.66 307.217C567.508 307.541 568.186 308.119 568.693 308.95C569.2 309.782 569.454 310.7 569.454 311.706C569.454 313.003 569.034 314.096 568.194 314.986C567.355 315.876 566.058 316.441 564.304 316.682C564.944 316.99 565.43 317.293 565.763 317.592C566.469 318.241 567.139 319.051 567.77 320.024L570.95 325H567.908L565.488 321.196C564.782 320.099 564.2 319.259 563.742 318.677C563.285 318.095 562.874 317.688 562.508 317.455C562.15 317.222 561.784 317.06 561.41 316.969C561.136 316.911 560.687 316.882 560.063 316.882H557.258V325H554.838ZM557.258 314.786H562.458C563.564 314.786 564.428 314.674 565.052 314.45C565.675 314.217 566.149 313.851 566.473 313.352C566.798 312.845 566.96 312.297 566.96 311.706C566.96 310.842 566.644 310.131 566.012 309.574C565.388 309.017 564.399 308.738 563.044 308.738H557.258V314.786ZM577.905 325V306.718H591.124V308.875H580.324V314.475H590.438V316.62H580.324V322.843H591.548V325H577.905ZM597.479 325L604.5 306.718H607.106L614.589 325H611.833L609.7 319.463H602.056L600.048 325H597.479ZM602.754 317.493H608.952L607.044 312.43C606.462 310.891 606.03 309.628 605.747 308.638C605.514 309.811 605.186 310.975 604.762 312.13L602.754 317.493ZM621.019 325V306.718H623.439V322.843H632.442V325H621.019Z" fill="#F5F6F1"/>
<path d="M147.232 350.774C148.441 350.774 149.621 351.086 150.772 351.709C151.923 352.326 152.82 353.214 153.462 354.371C154.105 355.523 154.426 356.725 154.426 357.978C154.426 359.218 154.108 360.411 153.472 361.556C152.842 362.701 151.955 363.591 150.81 364.227C149.671 364.857 148.479 365.172 147.232 365.172C145.985 365.172 144.79 364.857 143.645 364.227C142.506 363.591 141.619 362.701 140.983 361.556C140.347 360.411 140.029 359.218 140.029 357.978C140.029 356.725 140.35 355.523 140.992 354.371C141.641 353.214 142.541 352.326 143.692 351.709C144.844 351.086 146.024 350.774 147.232 350.774ZM147.232 351.967C146.221 351.967 145.235 352.228 144.274 352.749C143.32 353.265 142.573 354.006 142.032 354.972C141.492 355.933 141.221 356.935 141.221 357.978C141.221 359.015 141.485 360.01 142.013 360.964C142.547 361.912 143.292 362.653 144.246 363.187C145.2 363.715 146.195 363.979 147.232 363.979C148.269 363.979 149.264 363.715 150.218 363.187C151.173 362.653 151.914 361.912 152.441 360.964C152.969 360.01 153.233 359.015 153.233 357.978C153.233 356.935 152.963 355.933 152.422 354.972C151.888 354.006 151.141 353.265 150.18 352.749C149.22 352.228 148.237 351.967 147.232 351.967ZM149.541 359.142L150.715 359.485C150.524 360.28 150.117 360.916 149.493 361.393C148.876 361.864 148.126 362.1 147.242 362.1C146.122 362.1 145.213 361.737 144.513 361.012C143.813 360.287 143.463 359.282 143.463 357.997C143.463 357.157 143.622 356.429 143.94 355.812C144.258 355.189 144.71 354.721 145.295 354.409C145.887 354.091 146.561 353.932 147.318 353.932C148.164 353.932 148.867 354.136 149.427 354.543C149.986 354.944 150.368 355.491 150.571 356.184L149.436 356.461C149.245 355.99 148.962 355.631 148.587 355.383C148.218 355.128 147.782 355.001 147.28 355.001C146.548 355.001 145.944 355.262 145.467 355.783C144.996 356.305 144.761 357.052 144.761 358.026C144.761 358.999 144.984 359.737 145.429 360.239C145.88 360.735 146.462 360.983 147.175 360.983C147.747 360.983 148.25 360.818 148.682 360.487C149.115 360.156 149.401 359.708 149.541 359.142ZM167.745 361.289L169.434 361.508C169.25 362.672 168.776 363.585 168.012 364.246C167.256 364.901 166.324 365.229 165.217 365.229C163.83 365.229 162.714 364.777 161.868 363.874C161.028 362.965 160.609 361.664 160.609 359.972C160.609 358.878 160.79 357.921 161.152 357.1C161.515 356.28 162.065 355.666 162.803 355.259C163.547 354.845 164.355 354.638 165.226 354.638C166.327 354.638 167.227 354.918 167.927 355.478C168.626 356.031 169.075 356.82 169.272 357.844L167.602 358.102C167.443 357.421 167.16 356.909 166.753 356.566C166.352 356.222 165.866 356.051 165.293 356.051C164.428 356.051 163.725 356.362 163.185 356.986C162.644 357.603 162.374 358.582 162.374 359.924C162.374 361.285 162.634 362.274 163.156 362.891C163.678 363.508 164.358 363.817 165.198 363.817C165.872 363.817 166.435 363.61 166.887 363.197C167.338 362.783 167.624 362.147 167.745 361.289ZM170.264 359.934C170.264 358.057 170.786 356.668 171.829 355.764C172.7 355.014 173.762 354.638 175.016 354.638C176.409 354.638 177.547 355.096 178.431 356.012C179.315 356.922 179.757 358.181 179.757 359.791C179.757 361.095 179.56 362.122 179.166 362.872C178.778 363.617 178.209 364.195 177.458 364.609C176.714 365.022 175.9 365.229 175.016 365.229C173.597 365.229 172.449 364.774 171.571 363.865C170.7 362.955 170.264 361.645 170.264 359.934ZM172.029 359.934C172.029 361.231 172.312 362.204 172.878 362.853C173.444 363.496 174.157 363.817 175.016 363.817C175.868 363.817 176.577 363.493 177.143 362.844C177.709 362.195 177.992 361.206 177.992 359.876C177.992 358.623 177.706 357.676 177.134 357.033C176.568 356.384 175.861 356.06 175.016 356.06C174.157 356.06 173.444 356.381 172.878 357.024C172.312 357.666 172.029 358.636 172.029 359.934ZM181.78 368.883V354.867H183.345V356.184C183.714 355.669 184.13 355.284 184.595 355.03C185.059 354.769 185.622 354.638 186.283 354.638C187.149 354.638 187.912 354.861 188.573 355.306C189.235 355.752 189.734 356.381 190.071 357.195C190.408 358.003 190.577 358.891 190.577 359.857C190.577 360.894 190.389 361.829 190.014 362.662C189.645 363.489 189.104 364.125 188.392 364.571C187.686 365.01 186.942 365.229 186.159 365.229C185.587 365.229 185.072 365.108 184.614 364.866C184.162 364.625 183.79 364.319 183.497 363.95V368.883H181.78ZM183.335 359.991C183.335 361.295 183.599 362.259 184.127 362.882C184.655 363.505 185.294 363.817 186.045 363.817C186.808 363.817 187.46 363.496 188.001 362.853C188.548 362.204 188.821 361.203 188.821 359.848C188.821 358.557 188.554 357.59 188.02 356.947C187.492 356.305 186.859 355.984 186.121 355.984C185.39 355.984 184.741 356.327 184.175 357.014C183.615 357.695 183.335 358.687 183.335 359.991ZM192.581 368.902L192.39 367.29C192.765 367.392 193.093 367.443 193.372 367.443C193.754 367.443 194.059 367.379 194.288 367.252C194.517 367.124 194.705 366.946 194.851 366.717C194.959 366.546 195.134 366.119 195.376 365.439C195.408 365.343 195.459 365.204 195.529 365.019L191.684 354.867H193.535L195.643 360.735C195.917 361.479 196.162 362.262 196.378 363.082C196.575 362.294 196.81 361.524 197.084 360.773L199.25 354.867H200.967L197.113 365.172C196.699 366.285 196.378 367.051 196.149 367.471C195.844 368.037 195.494 368.451 195.099 368.711C194.705 368.979 194.234 369.112 193.687 369.112C193.357 369.112 192.988 369.042 192.581 368.902ZM202.408 365V354.867H203.953V356.404C204.348 355.685 204.71 355.211 205.041 354.982C205.378 354.753 205.747 354.638 206.148 354.638C206.727 354.638 207.315 354.823 207.913 355.192L207.321 356.785C206.902 356.537 206.482 356.413 206.062 356.413C205.687 356.413 205.35 356.528 205.051 356.757C204.752 356.979 204.539 357.291 204.411 357.692C204.221 358.302 204.125 358.97 204.125 359.695V365H202.408ZM208.943 352.988V351.013H210.661V352.988H208.943ZM208.943 365V354.867H210.661V365H208.943ZM212.97 365.84L214.639 366.088C214.709 366.603 214.903 366.978 215.221 367.214C215.648 367.532 216.23 367.691 216.967 367.691C217.762 367.691 218.376 367.532 218.809 367.214C219.241 366.895 219.534 366.45 219.687 365.878C219.776 365.528 219.817 364.793 219.811 363.674C219.06 364.558 218.125 365 217.006 365C215.613 365 214.534 364.498 213.771 363.493C213.008 362.488 212.626 361.282 212.626 359.876C212.626 358.91 212.801 358.019 213.151 357.205C213.501 356.384 214.006 355.752 214.668 355.306C215.336 354.861 216.118 354.638 217.015 354.638C218.211 354.638 219.197 355.122 219.973 356.089V354.867H221.557V363.626C221.557 365.204 221.394 366.32 221.07 366.975C220.752 367.637 220.243 368.158 219.543 368.54C218.85 368.921 217.995 369.112 216.977 369.112C215.768 369.112 214.792 368.839 214.048 368.292C213.304 367.751 212.944 366.934 212.97 365.84ZM214.391 359.752C214.391 361.082 214.655 362.052 215.183 362.662C215.711 363.273 216.373 363.578 217.168 363.578C217.956 363.578 218.618 363.276 219.152 362.672C219.687 362.061 219.954 361.107 219.954 359.81C219.954 358.569 219.677 357.634 219.124 357.005C218.577 356.375 217.915 356.06 217.139 356.06C216.376 356.06 215.727 356.372 215.193 356.995C214.658 357.612 214.391 358.531 214.391 359.752ZM224.161 365V351.013H225.879V356.031C226.68 355.103 227.691 354.638 228.913 354.638C229.663 354.638 230.315 354.788 230.869 355.087C231.422 355.379 231.816 355.787 232.052 356.308C232.293 356.83 232.414 357.587 232.414 358.579V365H230.697V358.579C230.697 357.72 230.509 357.097 230.134 356.709C229.765 356.314 229.24 356.117 228.56 356.117C228.051 356.117 227.571 356.251 227.119 356.518C226.674 356.779 226.356 357.135 226.165 357.587C225.974 358.038 225.879 358.662 225.879 359.457V365H224.161ZM238.788 363.464L239.036 364.981C238.552 365.083 238.12 365.134 237.738 365.134C237.115 365.134 236.631 365.035 236.288 364.838C235.944 364.641 235.703 364.383 235.563 364.065C235.423 363.741 235.353 363.063 235.353 362.033V356.203H234.093V354.867H235.353V352.358L237.061 351.328V354.867H238.788V356.203H237.061V362.128C237.061 362.618 237.089 362.933 237.147 363.073C237.21 363.213 237.309 363.324 237.442 363.407C237.582 363.489 237.78 363.531 238.034 363.531C238.225 363.531 238.476 363.508 238.788 363.464ZM147.9 385.75C147.264 386.291 146.65 386.672 146.059 386.895C145.473 387.118 144.844 387.229 144.169 387.229C143.056 387.229 142.201 386.959 141.603 386.418C141.005 385.871 140.706 385.174 140.706 384.329C140.706 383.832 140.817 383.381 141.04 382.974C141.269 382.56 141.565 382.229 141.927 381.981C142.296 381.733 142.71 381.546 143.168 381.419C143.505 381.329 144.014 381.244 144.694 381.161C146.081 380.996 147.102 380.798 147.757 380.569C147.763 380.334 147.766 380.185 147.766 380.121C147.766 379.421 147.604 378.928 147.28 378.642C146.841 378.254 146.189 378.06 145.324 378.06C144.516 378.06 143.918 378.203 143.53 378.489C143.149 378.769 142.865 379.269 142.681 379.987L141.002 379.758C141.154 379.04 141.406 378.461 141.756 378.022C142.105 377.577 142.611 377.236 143.273 377.001C143.934 376.759 144.701 376.638 145.572 376.638C146.437 376.638 147.14 376.74 147.681 376.944C148.221 377.147 148.619 377.405 148.873 377.717C149.128 378.022 149.306 378.41 149.407 378.881C149.465 379.173 149.493 379.701 149.493 380.464V382.754C149.493 384.351 149.528 385.362 149.598 385.788C149.675 386.208 149.821 386.612 150.037 387H148.243C148.065 386.644 147.951 386.227 147.9 385.75ZM147.757 381.915C147.133 382.169 146.198 382.385 144.952 382.563C144.246 382.665 143.746 382.78 143.454 382.907C143.161 383.034 142.935 383.222 142.776 383.47C142.617 383.712 142.538 383.982 142.538 384.281C142.538 384.739 142.71 385.12 143.053 385.426C143.403 385.731 143.912 385.884 144.58 385.884C145.241 385.884 145.83 385.741 146.345 385.454C146.86 385.162 147.238 384.764 147.48 384.262C147.665 383.874 147.757 383.301 147.757 382.544V381.915ZM152.127 387V373.013H153.844V387H152.127ZM156.477 387V373.013H158.195V387H156.477ZM166.285 387V376.867H167.831V378.404C168.226 377.685 168.588 377.211 168.919 376.982C169.256 376.753 169.625 376.638 170.026 376.638C170.604 376.638 171.193 376.823 171.791 377.192L171.199 378.785C170.779 378.537 170.36 378.413 169.94 378.413C169.564 378.413 169.227 378.528 168.928 378.757C168.629 378.979 168.416 379.291 168.289 379.692C168.098 380.302 168.003 380.97 168.003 381.695V387H166.285ZM172.821 374.988V373.013H174.538V374.988H172.821ZM172.821 387V376.867H174.538V387H172.821ZM176.847 387.84L178.517 388.088C178.587 388.603 178.781 388.978 179.099 389.214C179.525 389.532 180.107 389.691 180.845 389.691C181.64 389.691 182.254 389.532 182.687 389.214C183.119 388.895 183.412 388.45 183.564 387.878C183.653 387.528 183.695 386.793 183.688 385.674C182.938 386.558 182.003 387 180.883 387C179.49 387 178.412 386.498 177.649 385.493C176.886 384.488 176.504 383.282 176.504 381.876C176.504 380.91 176.679 380.019 177.029 379.205C177.379 378.384 177.884 377.752 178.546 377.306C179.214 376.861 179.996 376.638 180.893 376.638C182.089 376.638 183.075 377.122 183.851 378.089V376.867H185.434V385.626C185.434 387.204 185.272 388.32 184.948 388.975C184.63 389.637 184.121 390.158 183.421 390.54C182.728 390.921 181.872 391.112 180.855 391.112C179.646 391.112 178.67 390.839 177.926 390.292C177.181 389.751 176.822 388.934 176.847 387.84ZM178.269 381.752C178.269 383.082 178.533 384.052 179.061 384.662C179.589 385.273 180.25 385.578 181.045 385.578C181.834 385.578 182.496 385.276 183.03 384.672C183.564 384.061 183.831 383.107 183.831 381.81C183.831 380.569 183.555 379.634 183.001 379.005C182.454 378.375 181.793 378.06 181.017 378.06C180.254 378.06 179.605 378.372 179.07 378.995C178.536 379.612 178.269 380.531 178.269 381.752ZM188.039 387V373.013H189.756V378.031C190.558 377.103 191.569 376.638 192.79 376.638C193.541 376.638 194.193 376.788 194.746 377.087C195.3 377.379 195.694 377.787 195.929 378.308C196.171 378.83 196.292 379.587 196.292 380.579V387H194.575V380.579C194.575 379.72 194.387 379.097 194.012 378.709C193.643 378.314 193.118 378.117 192.437 378.117C191.929 378.117 191.448 378.251 190.997 378.518C190.551 378.779 190.233 379.135 190.043 379.587C189.852 380.038 189.756 380.662 189.756 381.457V387H188.039ZM202.665 385.464L202.913 386.981C202.43 387.083 201.998 387.134 201.616 387.134C200.993 387.134 200.509 387.035 200.166 386.838C199.822 386.641 199.58 386.383 199.441 386.065C199.301 385.741 199.231 385.063 199.231 384.033V378.203H197.971V376.867H199.231V374.358L200.938 373.328V376.867H202.665V378.203H200.938V384.128C200.938 384.618 200.967 384.933 201.024 385.073C201.088 385.213 201.187 385.324 201.32 385.407C201.46 385.489 201.657 385.531 201.912 385.531C202.102 385.531 202.354 385.508 202.665 385.464ZM203.667 383.975L205.366 383.708C205.461 384.389 205.725 384.911 206.157 385.273C206.596 385.636 207.207 385.817 207.989 385.817C208.778 385.817 209.363 385.658 209.745 385.34C210.126 385.015 210.317 384.637 210.317 384.204C210.317 383.816 210.149 383.511 209.812 383.289C209.576 383.136 208.991 382.942 208.056 382.707C206.797 382.389 205.922 382.115 205.432 381.886C204.949 381.651 204.58 381.329 204.326 380.922C204.077 380.509 203.953 380.054 203.953 379.558C203.953 379.106 204.055 378.69 204.259 378.308C204.469 377.92 204.752 377.599 205.108 377.344C205.375 377.147 205.738 376.982 206.196 376.848C206.66 376.708 207.156 376.638 207.684 376.638C208.479 376.638 209.176 376.753 209.773 376.982C210.378 377.211 210.823 377.523 211.109 377.917C211.395 378.305 211.593 378.827 211.701 379.482L210.022 379.711C209.945 379.189 209.723 378.782 209.354 378.489C208.991 378.197 208.476 378.051 207.808 378.051C207.019 378.051 206.456 378.181 206.119 378.442C205.782 378.702 205.614 379.008 205.614 379.358C205.614 379.58 205.684 379.781 205.823 379.959C205.963 380.143 206.183 380.296 206.482 380.417C206.654 380.48 207.159 380.627 207.999 380.856C209.214 381.18 210.06 381.447 210.537 381.657C211.02 381.861 211.399 382.16 211.672 382.554C211.946 382.948 212.082 383.438 212.082 384.023C212.082 384.596 211.914 385.136 211.577 385.645C211.246 386.148 210.766 386.539 210.136 386.819C209.506 387.092 208.794 387.229 207.999 387.229C206.682 387.229 205.677 386.955 204.984 386.408C204.297 385.861 203.858 385.05 203.667 383.975ZM219.543 387V376.867H221.089V378.404C221.483 377.685 221.846 377.211 222.177 376.982C222.514 376.753 222.883 376.638 223.284 376.638C223.862 376.638 224.451 376.823 225.049 377.192L224.457 378.785C224.037 378.537 223.617 378.413 223.198 378.413C222.822 378.413 222.485 378.528 222.186 378.757C221.887 378.979 221.674 379.291 221.547 379.692C221.356 380.302 221.261 380.97 221.261 381.695V387H219.543ZM233.006 383.737L234.78 383.956C234.501 384.993 233.982 385.798 233.225 386.37C232.468 386.943 231.502 387.229 230.325 387.229C228.843 387.229 227.666 386.774 226.795 385.865C225.93 384.949 225.497 383.667 225.497 382.02C225.497 380.315 225.936 378.992 226.814 378.051C227.691 377.109 228.83 376.638 230.229 376.638C231.584 376.638 232.691 377.1 233.55 378.022C234.408 378.944 234.838 380.242 234.838 381.915C234.838 382.016 234.835 382.169 234.828 382.373H227.272C227.335 383.486 227.65 384.338 228.216 384.93C228.782 385.521 229.488 385.817 230.334 385.817C230.964 385.817 231.502 385.652 231.947 385.321C232.392 384.99 232.745 384.462 233.006 383.737ZM227.367 380.961H233.025C232.949 380.108 232.732 379.469 232.376 379.043C231.829 378.381 231.12 378.051 230.248 378.051C229.46 378.051 228.795 378.314 228.254 378.842C227.72 379.37 227.424 380.076 227.367 380.961ZM236.259 383.975L237.958 383.708C238.053 384.389 238.317 384.911 238.75 385.273C239.188 385.636 239.799 385.817 240.581 385.817C241.37 385.817 241.955 385.658 242.337 385.34C242.719 385.015 242.909 384.637 242.909 384.204C242.909 383.816 242.741 383.511 242.404 383.289C242.168 383.136 241.583 382.942 240.648 382.707C239.389 382.389 238.514 382.115 238.024 381.886C237.541 381.651 237.172 381.329 236.918 380.922C236.67 380.509 236.546 380.054 236.546 379.558C236.546 379.106 236.647 378.69 236.851 378.308C237.061 377.92 237.344 377.599 237.7 377.344C237.967 377.147 238.33 376.982 238.788 376.848C239.252 376.708 239.748 376.638 240.276 376.638C241.071 376.638 241.768 376.753 242.366 376.982C242.97 377.211 243.415 377.523 243.701 377.917C243.988 378.305 244.185 378.827 244.293 379.482L242.614 379.711C242.537 379.189 242.315 378.782 241.946 378.489C241.583 378.197 241.068 378.051 240.4 378.051C239.611 378.051 239.048 378.181 238.711 378.442C238.374 378.702 238.206 379.008 238.206 379.358C238.206 379.58 238.276 379.781 238.416 379.959C238.556 380.143 238.775 380.296 239.074 380.417C239.246 380.48 239.751 380.627 240.591 380.856C241.806 381.18 242.652 381.447 243.129 381.657C243.612 381.861 243.991 382.16 244.264 382.554C244.538 382.948 244.674 383.438 244.674 384.023C244.674 384.596 244.506 385.136 244.169 385.645C243.838 386.148 243.358 386.539 242.728 386.819C242.098 387.092 241.386 387.229 240.591 387.229C239.274 387.229 238.269 386.955 237.576 386.408C236.889 385.861 236.45 385.05 236.259 383.975ZM253.653 383.737L255.427 383.956C255.147 384.993 254.629 385.798 253.872 386.37C253.115 386.943 252.148 387.229 250.972 387.229C249.49 387.229 248.313 386.774 247.441 385.865C246.576 384.949 246.144 383.667 246.144 382.02C246.144 380.315 246.583 378.992 247.46 378.051C248.338 377.109 249.477 376.638 250.876 376.638C252.231 376.638 253.338 377.1 254.196 378.022C255.055 378.944 255.484 380.242 255.484 381.915C255.484 382.016 255.481 382.169 255.475 382.373H247.918C247.982 383.486 248.297 384.338 248.863 384.93C249.429 385.521 250.135 385.817 250.981 385.817C251.611 385.817 252.148 385.652 252.594 385.321C253.039 384.99 253.392 384.462 253.653 383.737ZM248.014 380.961H253.672C253.595 380.108 253.379 379.469 253.023 379.043C252.476 378.381 251.767 378.051 250.895 378.051C250.107 378.051 249.442 378.314 248.901 378.842C248.367 379.37 248.071 380.076 248.014 380.961ZM257.574 387V376.867H259.12V378.404C259.514 377.685 259.877 377.211 260.207 376.982C260.544 376.753 260.913 376.638 261.314 376.638C261.893 376.638 262.481 376.823 263.079 377.192L262.488 378.785C262.068 378.537 261.648 378.413 261.228 378.413C260.853 378.413 260.516 378.528 260.217 378.757C259.918 378.979 259.705 379.291 259.578 379.692C259.387 380.302 259.291 380.97 259.291 381.695V387H257.574ZM266.915 387L263.06 376.867H264.873L267.048 382.936C267.284 383.591 267.5 384.271 267.697 384.977C267.85 384.443 268.063 383.801 268.336 383.05L270.588 376.867H272.353L268.517 387H266.915ZM280.806 383.737L282.581 383.956C282.301 384.993 281.783 385.798 281.026 386.37C280.269 386.943 279.302 387.229 278.125 387.229C276.643 387.229 275.467 386.774 274.595 385.865C273.73 384.949 273.298 383.667 273.298 382.02C273.298 380.315 273.736 378.992 274.614 378.051C275.492 377.109 276.631 376.638 278.03 376.638C279.385 376.638 280.491 377.1 281.35 378.022C282.209 378.944 282.638 380.242 282.638 381.915C282.638 382.016 282.635 382.169 282.629 382.373H275.072C275.136 383.486 275.451 384.338 276.017 384.93C276.583 385.521 277.289 385.817 278.135 385.817C278.765 385.817 279.302 385.652 279.747 385.321C280.193 384.99 280.546 384.462 280.806 383.737ZM275.168 380.961H280.825C280.749 380.108 280.533 379.469 280.177 379.043C279.63 378.381 278.92 378.051 278.049 378.051C277.26 378.051 276.596 378.314 276.055 378.842C275.521 379.37 275.225 380.076 275.168 380.961ZM291.321 387V385.722C290.678 386.726 289.734 387.229 288.487 387.229C287.679 387.229 286.935 387.006 286.254 386.561C285.58 386.116 285.055 385.496 284.68 384.701C284.311 383.899 284.127 382.98 284.127 381.943C284.127 380.932 284.295 380.016 284.632 379.195C284.969 378.369 285.475 377.736 286.149 377.297C286.824 376.858 287.577 376.638 288.411 376.638C289.021 376.638 289.565 376.769 290.042 377.03C290.519 377.284 290.907 377.618 291.206 378.031V373.013H292.914V387H291.321ZM285.892 381.943C285.892 383.241 286.165 384.211 286.712 384.853C287.259 385.496 287.905 385.817 288.649 385.817C289.4 385.817 290.036 385.512 290.557 384.901C291.085 384.284 291.349 383.346 291.349 382.086C291.349 380.7 291.082 379.682 290.548 379.033C290.013 378.384 289.355 378.06 288.573 378.06C287.809 378.06 287.17 378.372 286.655 378.995C286.146 379.618 285.892 380.601 285.892 381.943Z" fill="#F5F6F1"/>
<defs>
<filter id="filter0_di" x="0" y="0" width="880.895" height="559" filterUnits="userSpaceOnUse" color-interpolation-filters="sRGB">
<feFlood flood-opacity="0" result="BackgroundImageFix"/>
<feColorMatrix in="SourceAlpha" type="matrix" values="0 0 0 0 0 0 0 0 0 0 0 0 0 0 0 0 0 0 127 0"/>
<feOffset dx="10" dy="10"/>
<feGaussianBlur stdDeviation="10"/>
<feColorMatrix type="matrix" values="0 0 0 0 0.154167 0 0 0 0 0.0192708 0 0 0 0 0.0192708 0 0 0 0.25 0"/>
<feBlend mode="normal" in2="BackgroundImageFix" result="effect1_dropShadow"/>
<feBlend mode="normal" in="SourceGraphic" in2="effect1_dropShadow" result="shape"/>
<feColorMatrix in="SourceAlpha" type="matrix" values="0 0 0 0 0 0 0 0 0 0 0 0 0 0 0 0 0 0 127 0" result="hardAlpha"/>
<feOffset dx="-10" dy="-10"/>
<feGaussianBlur stdDeviation="10"/>
<feComposite in2="hardAlpha" operator="arithmetic" k2="-1" k3="1"/>
<feColorMatrix type="matrix" values="0 0 0 0 0 0 0 0 0 0 0 0 0 0 0 0 0 0 0.31 0"/>
<feBlend mode="normal" in2="shape" result="effect2_innerShadow"/>
</filter>
</defs>
</svg>
