<svg width="237" height="254" viewBox="0 0 237 254" fill="none" xmlns="http://www.w3.org/2000/svg">
<g clip-path="url(#clip0)">
<path d="M82.8193 77.8828H113.402" stroke="#3F3D56" stroke-width="2" stroke-miterlimit="10"/>
<path d="M46.3859 126.367C48.0401 120.15 48.2796 114.506 46.921 113.76C45.5624 113.014 43.12 117.449 41.4658 123.665C39.8117 129.882 39.5721 135.527 40.9307 136.273C42.2894 137.019 44.7317 132.584 46.3859 126.367Z" fill="#2F2E41"/>
<path d="M236.028 155.376C239.355 190.945 234.824 226.553 211.78 240.419C188.736 254.284 162.231 238.69 152.578 205.588C142.926 172.486 165.7 152.68 176.826 120.545C199.418 55.2906 225.696 44.917 236.028 155.376Z" fill="#F2F2F2"/>
<path d="M194.542 249.424C214.483 249.424 230.647 246.265 230.647 242.368C230.647 238.471 214.483 235.312 194.542 235.312C174.602 235.312 158.438 238.471 158.438 242.368C158.438 246.265 174.602 249.424 194.542 249.424Z" fill="#3F3D56"/>
<path d="M170.923 224.411L172.281 231.469L181.084 227.974L179.726 220.916L170.923 224.411Z" fill="#2F2E41"/>
<path d="M171.529 232.715C172.377 232.378 172.558 229.472 171.933 226.224C171.308 222.976 170.114 220.616 169.266 220.953C168.418 221.29 168.237 224.196 168.862 227.444C169.487 230.692 170.681 233.052 171.529 232.715Z" fill="#2F2E41"/>
<path d="M198.706 200.137C199.328 193.542 198.664 187.968 197.223 187.688C195.781 187.407 194.108 192.526 193.486 199.121C192.864 205.716 193.528 211.29 194.969 211.571C196.41 211.851 198.083 206.732 198.706 200.137Z" fill="#2F2E41"/>
<path d="M194.454 246.293C203.72 246.293 211.232 235.502 211.232 222.191C211.232 208.88 203.72 198.09 194.454 198.09C185.188 198.09 177.676 208.88 177.676 222.191C177.676 235.502 185.188 246.293 194.454 246.293Z" fill="#2F2E41"/>
<path d="M170.923 220.138L172.281 227.195L181.084 223.7L179.726 216.643L170.923 220.138Z" fill="#2F2E41"/>
<path d="M171.529 228.442C172.377 228.105 172.558 225.199 171.933 221.951C171.308 218.703 170.114 216.343 169.266 216.679C168.418 217.016 168.237 219.922 168.862 223.17C169.487 226.418 170.681 228.778 171.529 228.442Z" fill="#2F2E41"/>
<path d="M198.859 216.623C202.026 216.623 204.594 212.935 204.594 208.386C204.594 203.836 202.026 200.148 198.859 200.148C195.692 200.148 193.125 203.836 193.125 208.386C193.125 212.935 195.692 216.623 198.859 216.623Z" fill="white"/>
<path d="M200.694 207.491C201.749 207.491 202.605 206.262 202.605 204.746C202.605 203.229 201.749 202 200.694 202C199.638 202 198.782 203.229 198.782 204.746C198.782 206.262 199.638 207.491 200.694 207.491Z" fill="#3F3D56"/>
<path d="M213.83 238.754C220.039 238.308 224.794 229.966 224.451 220.121C224.108 210.277 218.797 202.658 212.588 203.105C206.379 203.551 205.405 210.552 205.748 220.397C206.091 230.241 207.621 239.201 213.83 238.754Z" fill="#00BFA6"/>
<path d="M187.596 211.992C186.586 212.109 185.584 211.645 184.812 210.701C184.04 209.758 183.56 208.412 183.478 206.961C183.397 205.51 183.719 204.071 184.376 202.961C185.032 201.852 185.969 201.162 186.979 201.045C189.084 200.8 189.658 203.2 189.828 206.223C189.998 209.246 189.7 211.747 187.596 211.992Z" fill="white"/>
<path d="M10.5049 110.143H104.482L119.052 120.339L142.267 136.585L157.446 95.7617H200.398" stroke="#3F3D56" stroke-width="2" stroke-miterlimit="10"/>
<path d="M47.3216 118.589C48.9268 118.589 50.2281 116.719 50.2281 114.413C50.2281 112.108 48.9268 110.238 47.3216 110.238C45.7163 110.238 44.415 112.108 44.415 114.413C44.415 116.719 45.7163 118.589 47.3216 118.589Z" fill="#00BFA6"/>
<path d="M74.4485 114.319C76.0537 114.319 77.355 112.45 77.355 110.144C77.355 107.838 76.0537 105.969 74.4485 105.969C72.8433 105.969 71.542 107.838 71.542 110.144C71.542 112.45 72.8433 114.319 74.4485 114.319Z" fill="#00BFA6"/>
<path d="M119.015 124.522C120.62 124.522 121.921 122.653 121.921 120.347C121.921 118.041 120.62 116.172 119.015 116.172C117.41 116.172 116.108 118.041 116.108 120.347C116.108 122.653 117.41 124.522 119.015 124.522Z" fill="#00BFA6"/>
<path d="M181.667 99.9362C183.273 99.9362 184.574 98.067 184.574 95.7611C184.574 93.4552 183.273 91.5859 181.667 91.5859C180.062 91.5859 178.761 93.4552 178.761 95.7611C178.761 98.067 180.062 99.9362 181.667 99.9362Z" fill="#00BFA6"/>
<path d="M151.31 116.175C152.915 116.175 154.216 114.305 154.216 111.999C154.216 109.694 152.915 107.824 151.31 107.824C149.705 107.824 148.403 109.694 148.403 111.999C148.403 114.305 149.705 116.175 151.31 116.175Z" fill="#00BFA6"/>
<path d="M90.8086 181.89C92.5394 181.89 93.9424 179.875 93.9424 177.388C93.9424 174.902 92.5394 172.887 90.8086 172.887C89.0779 172.887 87.6748 174.902 87.6748 177.388C87.6748 179.875 89.0779 181.89 90.8086 181.89Z" stroke="#3F3D56" stroke-width="2" stroke-miterlimit="10"/>
<path d="M36.1049 254.002C56.0451 254.002 72.2099 250.843 72.2099 246.946C72.2099 243.05 56.0451 239.891 36.1049 239.891C16.1647 239.891 0 243.05 0 246.946C0 250.843 16.1647 254.002 36.1049 254.002Z" fill="#3F3D56"/>
<path d="M34.1522 236.57C43.4185 236.57 50.9304 225.78 50.9304 212.469C50.9304 199.158 43.4185 188.367 34.1522 188.367C24.8859 188.367 17.374 199.158 17.374 212.469C17.374 225.78 24.8859 236.57 34.1522 236.57Z" fill="#2F2E41"/>
<path d="M31.603 231.387H26.5059V244.505H31.603V231.387Z" fill="#2F2E41"/>
<path d="M41.7974 231.387H36.7002V244.505H41.7974V231.387Z" fill="#2F2E41"/>
<path d="M30.7535 246.943C33.0994 246.943 35.0011 245.919 35.0011 244.655C35.0011 243.392 33.0994 242.367 30.7535 242.367C28.4076 242.367 26.5059 243.392 26.5059 244.655C26.5059 245.919 28.4076 246.943 30.7535 246.943Z" fill="#2F2E41"/>
<path d="M40.9478 246.643C43.2937 246.643 45.1955 245.618 45.1955 244.355C45.1955 243.091 43.2937 242.066 40.9478 242.066C38.6019 242.066 36.7002 243.091 36.7002 244.355C36.7002 245.618 38.6019 246.643 40.9478 246.643Z" fill="#2F2E41"/>
<path d="M34.5771 214.607C37.7441 214.607 40.3114 210.919 40.3114 206.37C40.3114 201.821 37.7441 198.133 34.5771 198.133C31.4101 198.133 28.8428 201.821 28.8428 206.37C28.8428 210.919 31.4101 214.607 34.5771 214.607Z" fill="white"/>
<path d="M34.5765 209.116C35.6321 209.116 36.4879 207.887 36.4879 206.371C36.4879 204.854 35.6321 203.625 34.5765 203.625C33.5208 203.625 32.665 204.854 32.665 206.371C32.665 207.887 33.5208 209.116 34.5765 209.116Z" fill="#3F3D56"/>
<path d="M17.877 190.056C16.5222 181.341 20.8528 172.534 27.5497 170.386C34.2465 168.238 40.7737 173.562 42.1284 182.278C43.4832 190.993 39.0449 194.207 32.3481 196.355C25.6512 198.503 19.2317 198.772 17.877 190.056Z" fill="#00BFA6"/>
<path d="M28.4178 167.32C37.6842 167.32 45.196 156.53 45.196 143.219C45.196 129.908 37.6842 119.117 28.4178 119.117C19.1515 119.117 11.6396 129.908 11.6396 143.219C11.6396 156.53 19.1515 167.32 28.4178 167.32Z" fill="#2F2E41"/>
<path d="M25.8687 162.133H20.7715V175.251H25.8687V162.133Z" fill="#2F2E41"/>
<path d="M36.063 162.133H30.9658V175.251H36.063V162.133Z" fill="#2F2E41"/>
<path d="M25.0191 177.693C27.365 177.693 29.2668 176.669 29.2668 175.405C29.2668 174.142 27.365 173.117 25.0191 173.117C22.6732 173.117 20.7715 174.142 20.7715 175.405C20.7715 176.669 22.6732 177.693 25.0191 177.693Z" fill="#2F2E41"/>
<path d="M35.2135 177.385C37.5594 177.385 39.4611 176.36 39.4611 175.097C39.4611 173.833 37.5594 172.809 35.2135 172.809C32.8676 172.809 30.9658 173.833 30.9658 175.097C30.9658 176.36 32.8676 177.385 35.2135 177.385Z" fill="#2F2E41"/>
<path d="M28.8427 145.353C32.0097 145.353 34.577 141.665 34.577 137.116C34.577 132.567 32.0097 128.879 28.8427 128.879C25.6757 128.879 23.1084 132.567 23.1084 137.116C23.1084 141.665 25.6757 145.353 28.8427 145.353Z" fill="white"/>
<path d="M28.8421 139.863C29.8978 139.863 30.7535 138.633 30.7535 137.117C30.7535 135.6 29.8978 134.371 28.8421 134.371C27.7864 134.371 26.9307 135.6 26.9307 137.117C26.9307 138.633 27.7864 139.863 28.8421 139.863Z" fill="#3F3D56"/>
<path d="M12.1426 120.802C10.7878 112.087 15.1184 103.28 21.8153 101.132C28.5122 98.9842 35.0393 104.308 36.394 113.024C37.7488 121.739 33.3106 124.954 26.6137 127.102C19.9168 129.25 13.4973 129.518 12.1426 120.802Z" fill="#00BFA6"/>
<path d="M17.0996 137.199C17.7229 135.311 14.8346 131.469 10.6484 128.617C6.46225 125.765 2.56339 124.983 1.9401 126.871C1.3168 128.759 4.20511 132.601 8.3913 135.453C12.5775 138.305 16.4764 139.087 17.0996 137.199Z" fill="#2F2E41"/>
<path d="M20.1768 151.913C20.1768 154.272 24.405 158.93 29.0968 158.93C33.7886 158.93 38.1877 152.289 38.1877 149.93C38.1877 147.571 33.7886 150.388 29.0968 150.388C24.405 150.388 20.1768 149.554 20.1768 151.913Z" fill="white"/>
<path d="M204.227 172.285H177.439V191.86H204.227V172.285Z" fill="#00BFA6"/>
<path d="M202.13 175.461H175.343V195.035H202.13V175.461Z" stroke="#3F3D56" stroke-width="2" stroke-miterlimit="10"/>
<path d="M55.7717 60.7109H48.126V71.6939H55.7717V60.7109Z" fill="#FF6584"/>
<path d="M53.8606 57.0508H46.2148V68.0337H53.8606V57.0508Z" stroke="#3F3D56" stroke-width="2" stroke-miterlimit="10"/>
<path d="M192.43 81.906C201.696 81.906 209.208 71.1155 209.208 57.8046C209.208 44.4937 201.696 33.7031 192.43 33.7031C183.163 33.7031 175.651 44.4937 175.651 57.8046C175.651 71.1155 183.163 81.906 192.43 81.906Z" fill="#2F2E41"/>
<path d="M198.909 88.6715L203.925 87.3672L202.298 74.4584L197.282 75.7627L198.909 88.6715Z" fill="#2F2E41"/>
<path d="M188.878 91.2808L193.894 89.9766L192.267 77.0679L187.251 78.3722L188.878 91.2808Z" fill="#2F2E41"/>
<path d="M191.54 93.9981C193.331 91.8202 194.321 89.273 193.752 88.3087C193.184 87.3443 191.272 88.3281 189.482 90.5059C187.691 92.6837 186.701 95.231 187.27 96.1953C187.838 97.1596 189.75 96.1759 191.54 93.9981Z" fill="#2F2E41"/>
<path d="M201.363 91.4434C203.153 89.2655 204.143 86.7183 203.575 85.754C203.006 84.7896 201.094 85.7734 199.304 87.9512C197.514 90.129 196.523 92.6763 197.092 93.6406C197.66 94.6049 199.573 93.6212 201.363 91.4434Z" fill="#2F2E41"/>
<path d="M191.255 60.1463C194.422 60.1463 196.989 56.4584 196.989 51.9091C196.989 47.3598 194.422 43.6719 191.255 43.6719C188.088 43.6719 185.521 47.3598 185.521 51.9091C185.521 56.4584 188.088 60.1463 191.255 60.1463Z" fill="white"/>
<path d="M188.898 51.7024C189.953 51.7024 190.809 50.4731 190.809 48.9567C190.809 47.4402 189.953 46.2109 188.898 46.2109C187.842 46.2109 186.986 47.4402 186.986 48.9567C186.986 50.4731 187.842 51.7024 188.898 51.7024Z" fill="#3F3D56"/>
<path d="M205.665 31.5844C205.917 22.6617 200.564 15.1041 193.708 14.704C186.852 14.304 181.089 21.213 180.837 30.1357C180.584 39.0584 185.35 41.0857 192.206 41.4858C199.063 41.8858 205.413 40.5071 205.665 31.5844Z" fill="#00BFA6"/>
<path d="M185.113 56.1036C185.438 54.067 182.041 51.2107 177.525 49.7237C173.009 48.2367 169.084 48.6823 168.759 50.7188C168.434 52.7553 171.832 55.6117 176.348 57.0986C180.864 58.5856 184.788 58.1401 185.113 56.1036Z" fill="#2F2E41"/>
<path d="M218.049 63.9747C218.374 61.9381 214.976 59.0818 210.46 57.5948C205.944 56.1078 202.02 56.5533 201.695 58.5899C201.37 60.6264 204.767 63.4828 209.284 64.9697C213.8 66.4567 217.724 66.0112 218.049 63.9747Z" fill="#2F2E41"/>
<path d="M197.037 67.3008C197.127 68.0104 197.118 68.7383 197.012 69.4431C196.905 70.1479 196.703 70.8156 196.417 71.4082C196.131 72.0008 195.766 72.5067 195.344 72.8969C194.922 73.2872 194.451 73.5542 193.957 73.6826C193.463 73.8111 192.956 73.7985 192.465 73.6456C191.975 73.4928 191.51 73.2026 191.097 72.7916C190.685 72.3807 190.332 71.8571 190.061 71.2506C189.789 70.6442 189.603 69.9668 189.514 69.2572C189.138 66.2728 190.744 65.2168 192.822 64.6765C194.899 64.1363 196.661 64.3164 197.037 67.3008Z" fill="white"/>
<path d="M151.344 30.2031L170.671 51.5589" stroke="#3F3D56" stroke-width="2" stroke-miterlimit="10"/>
<path d="M142.212 41.4911C150.188 41.4911 156.654 32.203 156.654 20.7456C156.654 9.2881 150.188 0 142.212 0C134.235 0 127.77 9.2881 127.77 20.7456C127.77 32.203 134.235 41.4911 142.212 41.4911Z" fill="#FF6584"/>
<path d="M192.409 205.868C193.031 199.273 192.367 193.699 190.926 193.418C189.484 193.137 187.812 198.256 187.189 204.851C186.567 211.447 187.231 217.02 188.672 217.301C190.114 217.582 191.786 212.463 192.409 205.868Z" fill="#2F2E41"/>
<path d="M14.6145 243.975C16.2198 243.975 17.5211 242.106 17.5211 239.8C17.5211 237.494 16.2198 235.625 14.6145 235.625C13.0093 235.625 11.708 237.494 11.708 239.8C11.708 242.106 13.0093 243.975 14.6145 243.975Z" fill="#00BFA6"/>
<path d="M62.1438 234.914H54.498V245.897H62.1438V234.914Z" fill="#FF6584"/>
<path d="M54.5423 246.421C56.1475 246.421 57.4488 244.551 57.4488 242.245C57.4488 239.94 56.1475 238.07 54.5423 238.07C52.937 238.07 51.6357 239.94 51.6357 242.245C51.6357 244.551 52.937 246.421 54.5423 246.421Z" fill="#00BFA6"/>
<path d="M98.1116 81.9792C99.7168 81.9792 101.018 80.1099 101.018 77.8041C101.018 75.4982 99.7168 73.6289 98.1116 73.6289C96.5064 73.6289 95.2051 75.4982 95.2051 77.8041C95.2051 80.1099 96.5064 81.9792 98.1116 81.9792Z" fill="#00BFA6"/>
<path d="M154.554 209.222C155.321 209.222 155.942 208.329 155.942 207.228C155.942 206.127 155.321 205.234 154.554 205.234C153.787 205.234 153.166 206.127 153.166 207.228C153.166 208.329 153.787 209.222 154.554 209.222Z" fill="#FF6584"/>
<path d="M161.355 240.323V217.621" stroke="#3F3D56" stroke-width="2" stroke-miterlimit="10"/>
<path d="M161.355 220.827C162.589 220.827 163.59 219.39 163.59 217.617C163.59 215.844 162.589 214.406 161.355 214.406C160.121 214.406 159.12 215.844 159.12 217.617C159.12 219.39 160.121 220.827 161.355 220.827Z" fill="#3F3D56"/>
<path d="M161.355 231.611C161.355 231.611 161.036 221.747 154.491 222.894Z" fill="#3F3D56"/>
</g>
<defs>
<clipPath id="clip0">
<rect width="237" height="254" fill="white"/>
</clipPath>
</defs>
</svg>
