<svg width="2443" height="2237" viewBox="0 0 2443 2237" fill="none" xmlns="http://www.w3.org/2000/svg">
<path d="M50.3984 1628.6L862.498 221.9L1566.2 628.2L754.198 2034.9L50.3984 1628.6Z" fill="#FBBC04"/>
<path d="M2385.1 1623.7L1572.5 216.5C1467.6 18.1002 1221.8 -57.6998 1023.4 47.2002C825 152.1 749.3 397.9 854.1 596.3C858.7 605 863.6 613.5 868.8 621.9L1681.4 2029.1C1791 2224.9 2038.6 2294.8 2234.4 2185.2C2430.2 2075.6 2500.1 1828 2390.5 1632.2C2388.7 1629 2386.9 1625.9 2385.1 1622.8V1623.7Z" fill="#4285F4"/>
<path d="M406.3 2234.9C630.693 2234.9 812.6 2052.99 812.6 1828.6C812.6 1604.21 630.693 1422.3 406.3 1422.3C181.907 1422.3 0 1604.21 0 1828.6C0 2052.99 181.907 2234.9 406.3 2234.9Z" fill="#34A853"/>
</svg>
