<svg width="237" height="254" viewBox="0 0 237 254" fill="none" xmlns="http://www.w3.org/2000/svg">
<g clip-path="url(#clip0)">
<path opacity="0.1" d="M132.767 39.7258C119.776 39.1997 107.405 34.3031 95.597 28.9502C83.7895 23.5972 72.0742 17.658 59.3957 14.8056C51.2401 12.9801 41.915 12.7202 35.3438 17.8259C29.0222 22.7415 26.9765 31.2257 25.8804 39.0982C25.0665 45.0217 24.5673 51.2557 26.8327 56.7988C28.4036 60.6494 31.1954 63.8853 33.1245 67.5744C39.8422 80.4037 35.0942 96.2248 27.8149 108.753C24.4018 114.629 20.4406 120.235 17.8062 126.501C15.1717 132.767 13.9508 139.923 16.257 146.306C18.5414 152.645 23.9867 157.38 29.885 160.723C41.8662 167.509 55.9826 169.451 69.749 170.548C100.223 172.982 130.857 171.93 161.412 170.865C172.718 170.472 184.075 170.076 195.199 168.035C201.376 166.9 207.755 165.1 212.24 160.745C217.937 155.228 219.343 145.888 215.528 138.969C209.128 127.366 191.438 124.482 186.964 112.03C184.504 105.175 187.032 97.54 190.608 91.1856C198.284 77.5576 211.146 65.584 211.825 49.9848C212.291 39.2821 206.105 28.5603 196.544 23.4926C186.522 18.1841 172.623 18.8528 165.229 27.6412C157.616 36.7118 144.235 40.1916 132.767 39.7258Z" fill="#00BFA6"/>
<path opacity="0.1" d="M106.965 254.002C152.513 254.002 189.436 248.167 189.436 240.97C189.436 233.772 152.513 227.938 106.965 227.938C61.4177 227.938 24.4941 233.772 24.4941 240.97C24.4941 248.167 61.4177 254.002 106.965 254.002Z" fill="#00BFA6"/>
<path d="M127.319 66.4291C127.319 66.4291 124.766 60.5437 125.11 58.7942C125.455 57.0448 123.314 53.3082 123.314 53.3082L123.453 47.1091C123.453 47.1091 123.157 47.7429 121.616 48.2975C121.486 48.0979 121.344 47.9014 121.198 47.7144C120.64 47.0355 120.019 46.4307 119.348 45.9111L116.634 39.0717L114.011 34.378C114.011 34.378 109.873 24.5532 105.6 22.3854L104.927 20.8483C104.949 20.833 104.966 20.8086 104.973 20.7798C104.981 20.7511 104.979 20.7201 104.968 20.693L104.284 19.1305C104.272 19.1035 104.252 19.0827 104.227 19.0722C104.203 19.0616 104.176 19.0621 104.151 19.0735L103.497 17.5776C103.248 15.639 102.596 13.8012 101.598 12.2246C101.53 12.1137 101.457 12.0123 101.387 11.9077L102.45 11.8633C103.384 11.8221 104.425 11.727 105.052 10.9125C105.277 10.6089 105.442 10.2521 105.538 9.86666C105.618 9.56457 105.671 9.25326 105.695 8.93806C105.695 8.89052 105.695 8.84298 105.695 8.79861C105.695 8.69085 105.695 8.58521 105.695 8.48168C105.695 8.39611 105.695 8.31371 105.695 8.22814C105.695 8.14256 105.695 8.09186 105.695 8.0253C105.695 7.95875 105.665 7.80662 105.649 7.70837C105.649 7.66717 105.649 7.62597 105.627 7.58477C105.605 7.46062 105.577 7.33791 105.543 7.21713C105.535 7.19345 105.529 7.16907 105.524 7.14424C105.486 7.01747 105.445 6.89069 105.399 6.76709C105.392 6.7508 105.386 6.73384 105.38 6.71638C105.332 6.59278 105.277 6.47235 105.22 6.35508L105.204 6.31705C105.184 6.26786 105.161 6.22022 105.136 6.17443C104.401 4.82431 103.109 4.03516 101.88 3.32207C100.734 2.61769 99.5563 1.98299 98.3534 1.42049C93.8806 -0.538902 88.94 -0.457424 84.5164 1.64868C84.0795 1.84193 83.6656 2.09968 83.2847 2.41565C82.7537 2.94064 82.3 3.56374 81.9417 4.26018L79.839 7.88902C79.5452 8.33046 79.3151 8.82506 79.158 9.35324C78.7646 11.0773 79.9991 12.8046 79.8607 14.5826C79.7901 15.4668 79.3832 16.2781 79.3045 17.1624C79.2041 18.3033 79.6572 19.4031 80.0994 20.4331L83.1083 27.4055C82.9482 28.3215 82.7719 29.2596 82.5792 30.166C81.1928 31.8394 80.7262 32.7521 80.5987 33.2466L80.558 33.2719C80.2834 33.4791 80.0472 33.7485 79.8634 34.0642L77.0038 37.3096C77.0038 37.3096 72.0333 38.8182 70.9996 40.7293C70.9996 40.7293 63.1994 40.3299 63.2672 53.0547C63.2672 53.0547 62.9226 57.8276 62.7246 58.4646C62.5265 59.1017 62.7246 65.5417 62.7246 65.5417L62.6323 78.5865C62.6323 78.5865 62.3339 85.5051 62.6323 87.9708C62.9308 90.4365 63.2753 99.8208 63.2753 99.8208C63.2753 99.8208 65.1393 108.967 64.4501 112.229C63.7881 115.35 64.4501 122.177 65.5354 122.206C65.7416 122.703 65.9776 122.947 66.2354 122.808C66.3475 122.751 66.4626 122.702 66.5799 122.662V130.455C66.5799 130.455 65.2369 141.373 66.7427 143.449C65.7443 145.11 64.5722 147.943 64.2738 148.688L53.7197 148.026L52.3767 148.466L51.1449 148.869L50.3988 168.921L50.6973 168.946L50.6756 169.558L51.381 169.618L50.3988 189.813L65.009 191.217C64.366 192.9 63.6199 194.703 63.3296 194.877C62.787 195.194 61.604 194.244 61.3273 194.637C61.0506 195.03 60.2231 195.511 59.2572 195.27C58.2913 195.03 57.67 196.304 57.67 196.304C57.67 196.304 57.8111 196.449 58.0227 196.719C56.4545 196.497 54.4712 197.479 53.3941 198.113C52.9112 198.399 52.61 198.611 52.61 198.611H49.7612L51.3267 210.277L52.4309 211.158L52.7023 220.349C52.7023 220.349 57.1192 236.256 59.1432 236.151C59.2747 236.146 59.4035 236.107 59.521 236.038C59.6386 235.969 59.742 235.872 59.8242 235.752C60.9095 234.288 60.1579 229.258 60.1579 229.258V220.885C60.1579 220.885 61.813 220.035 61.6285 219.398C61.444 218.761 64.2982 211.792 64.5532 211.158C64.5605 211.153 64.5664 211.145 64.5702 211.136C64.5741 211.127 64.5757 211.117 64.5749 211.107C64.5749 210.391 65.8175 209.596 65.747 209.279C65.6765 208.962 68.7857 206.971 69.0027 205.222C69.2198 203.473 71.2791 204.427 71.2791 204.427L73.8999 200.909C73.9786 205.197 74.1278 208.198 74.3856 208.959C75.6282 212.619 76.1111 218.346 76.1111 218.346C76.1111 218.346 75.3515 222.72 76.1111 224.152C76.5778 225.027 77.6631 225.965 78.4173 226.742C77.6332 229.518 77.7444 235.419 77.7444 235.419V238.81L83.5424 240.712C83.5424 240.712 83.7242 239.016 84.0009 239.016C84.2777 239.016 87.9594 242.303 87.9594 242.303C87.9594 242.303 102.133 242.515 105.72 242.303C107.076 242.224 107.445 241.542 107.236 240.718C106.892 239.346 104.957 237.568 103.237 237.432C100.475 237.219 96.9778 233.828 96.9778 233.828C96.9778 233.828 97.2491 233.083 95.7813 232.025C94.7666 231.296 91.9585 228.345 90.2221 226.618C90.3035 226.488 90.3876 226.358 90.4663 226.219C90.4663 226.219 88.1195 222.415 88.6051 220.729C89.0908 219.043 88.3962 216.609 88.3962 216.609C88.3962 216.609 87.0858 211.916 87.0858 209.529C87.0858 208.017 86.8904 199.419 86.7493 193.321L87.9594 193.439L87.9838 192.83L88.5264 192.887L93.657 193.439L93.4996 187.033C95.9712 185.766 98.0278 184.59 98.8797 183.839C101.777 181.303 104.263 181.135 104.263 181.135C104.263 181.135 110.128 177.478 111.026 175.966C111.924 174.455 111.84 163.479 111.84 163.479L111.357 139.957V139.938C111.357 139.938 110.945 128.566 110.115 126.101C109.811 125.188 109.059 122.145 108.237 118.672C108.71 118.615 109.187 118.638 109.654 118.741C109.683 119.591 109.702 120.174 109.702 120.374C109.702 121.724 111.357 122.871 111.357 122.871L110.185 92.4458V71.7472C113.799 73.0909 122.538 73.5093 122.538 73.5093C128.835 73.1226 127.319 66.4291 127.319 66.4291ZM93.231 40.2887H93.212C93.3403 39.4911 93.5079 38.7027 93.7139 37.9276L93.231 40.2887ZM69.5128 144.644C71.6535 145.056 74.1251 144.936 74.3123 144.451C74.3313 144.403 74.3558 144.318 74.3883 144.207C74.4561 144.346 74.5213 144.489 74.5891 144.635L74.3802 149.224V149.328L67.326 148.885C67.8198 146.428 68.7531 145.23 69.5128 144.644ZM93.0275 167.799L92.8457 160.367C93.1605 158.998 93.4426 157.755 93.6841 156.691C93.7926 157.575 93.8849 158.389 93.9554 159.14C94.6228 166.192 93.638 167.568 93.0275 167.799ZM113.105 56.3729C112.7 56.5536 111.162 55.4221 109.702 54.2495C109.702 54.034 109.716 53.8216 109.724 53.6156C109.93 48.7634 103.166 45.7431 101.096 45.1853C100.594 45.0338 100.107 44.8214 99.6421 44.5514C98.5392 43.9133 97.4668 43.2055 96.4298 42.4312L96.4569 42.3393C96.4569 42.3393 93.7872 40.3648 93.7302 37.9022C94.3386 35.6624 95.1064 33.486 96.0255 31.3957C96.0771 31.2721 96.134 31.1421 96.1883 31.0185C97.45 30.5602 98.6277 29.8315 99.6611 28.8698C100.076 35.2083 107.928 40.6627 107.928 40.6627L108.766 42.2474L108.964 42.6213C108.541 42.9129 108.338 43.1474 108.481 43.2837C109.078 43.8415 110.522 46.9981 111.119 48.3324C111.281 48.6937 111.39 48.9187 111.39 48.9187C111.39 48.9187 112.673 52.9976 113.409 56.4109C113.311 56.3633 113.203 56.3501 113.099 56.3729H113.105Z" fill="url(#paint0_linear)"/>
<path d="M116.138 39.9329L116.046 40.0755L115.731 40.5667L109.694 45.5489L108.414 43.0895L107.6 41.5048C107.6 41.5048 95.5671 33.0745 100.741 24.9484C105.915 16.8224 113.561 35.2486 113.561 35.2486L116.138 39.9329Z" fill="#FFC5D3"/>
<path d="M103.997 20.0813C103.972 20.0219 103.91 19.9979 103.859 20.0279C103.808 20.0578 103.787 20.1302 103.813 20.1896L104.484 21.7464C104.51 21.8058 104.572 21.8297 104.623 21.7998C104.673 21.7699 104.694 21.6975 104.668 21.6381L103.997 20.0813Z" fill="#3A3768"/>
<path d="M97.108 22.2577L97.1056 22.2591C97.0775 22.2757 97.0662 22.3157 97.0803 22.3485L97.2804 22.8127C97.2946 22.8456 97.3288 22.8588 97.3569 22.8422L97.3594 22.8408C97.3875 22.8243 97.3988 22.7843 97.3846 22.7514L97.1845 22.2872C97.1704 22.2544 97.1361 22.2412 97.108 22.2577Z" fill="#3A3768"/>
<path d="M97.6563 23.3589C97.6402 23.3214 97.601 23.3063 97.5689 23.3252C97.5368 23.3441 97.5239 23.3898 97.54 23.4273L97.9195 24.3076C97.9357 24.3451 97.9749 24.3602 98.007 24.3413C98.0391 24.3224 98.052 24.2767 98.0359 24.2392L97.6563 23.3589Z" fill="#3A3768"/>
<path d="M98.2411 24.7261C98.2256 24.6901 98.1881 24.6757 98.1573 24.6938C98.1265 24.7119 98.1141 24.7557 98.1296 24.7917L98.5153 25.6861C98.5308 25.7221 98.5683 25.7366 98.5991 25.7185C98.6299 25.7003 98.6422 25.6565 98.6267 25.6206L98.2411 24.7261Z" fill="#3A3768"/>
<path d="M101.892 17.0227L96.8226 20.0049C96.5228 20.1812 96.4022 20.6081 96.5531 20.9583L102.306 34.3018C102.457 34.652 102.822 34.7929 103.122 34.6165L108.191 31.6344C108.491 31.458 108.612 31.0312 108.461 30.681L102.708 17.3375C102.557 16.9873 102.192 16.8464 101.892 17.0227Z" fill="#3A3768"/>
<path d="M101.244 17.8727C101.215 17.8895 101.189 17.9129 101.167 17.9415C101.146 17.9702 101.13 18.0034 101.12 18.0394C101.11 18.0754 101.106 18.1134 101.109 18.1512C101.111 18.1889 101.12 18.2257 101.135 18.2593L101.157 18.3132C101.172 18.3471 101.181 18.3841 101.183 18.4221C101.186 18.4601 101.182 18.4983 101.172 18.5346C101.162 18.5708 101.146 18.6044 101.125 18.6333C101.103 18.6622 101.077 18.6859 101.048 18.703L98.4383 20.237C98.4095 20.2544 98.378 20.2649 98.3457 20.268C98.3133 20.271 98.2808 20.2665 98.25 20.2547C98.2192 20.2429 98.1907 20.224 98.1662 20.1992C98.1417 20.1744 98.1217 20.1442 98.1073 20.1102L98.0828 20.0563C98.0684 20.0224 98.0484 19.9921 98.024 19.9673C97.9995 19.9424 97.9711 19.9233 97.9404 19.9113C97.9096 19.8992 97.8772 19.8943 97.8448 19.8969C97.8125 19.8995 97.7809 19.9095 97.7518 19.9264L97.2445 20.2275C97.1889 20.2594 97.1393 20.304 97.0986 20.3586C97.0579 20.4132 97.0269 20.4768 97.0075 20.5455C96.988 20.6143 96.9805 20.6868 96.9853 20.759C96.9901 20.8312 97.0072 20.9015 97.0356 20.9659L102.581 33.8238C102.638 33.954 102.737 34.0527 102.856 34.0984C102.975 34.1441 103.104 34.1331 103.216 34.0678L107.769 31.3897C107.88 31.3232 107.965 31.208 108.004 31.0691C108.043 30.9303 108.034 30.7789 107.978 30.6481L102.429 17.7839C102.401 17.7192 102.363 17.6615 102.316 17.6141C102.269 17.5668 102.214 17.5308 102.155 17.5081C102.096 17.4854 102.034 17.4766 101.972 17.482C101.91 17.4875 101.85 17.5072 101.794 17.5399L101.244 17.8727Z" fill="#00BFA6"/>
<path d="M99.7261 18.8461L99.0404 19.2495C98.9922 19.2778 98.9728 19.3464 98.9971 19.4027C99.0213 19.459 99.0801 19.4816 99.1282 19.4533L99.814 19.0499C99.8622 19.0215 99.8816 18.9529 99.8573 18.8966C99.833 18.8404 99.7743 18.8177 99.7261 18.8461Z" fill="#E6E8EC"/>
<path d="M100.082 18.881C100.143 18.881 100.193 18.8228 100.193 18.751C100.193 18.6793 100.143 18.6211 100.082 18.6211C100.021 18.6211 99.9707 18.6793 99.9707 18.751C99.9707 18.8228 100.021 18.881 100.082 18.881Z" fill="#E6E8EC"/>
<path d="M105.15 67.1875L103.455 120.343C103.455 120.343 109.152 118.124 110.034 119.788C110.916 121.452 109.084 93.1662 109.084 93.1662L105.15 67.1875Z" fill="#5F5570"/>
<path opacity="0.15" d="M105.15 67.1875L103.455 120.343C103.455 120.343 109.152 118.124 110.034 119.788C110.916 121.452 109.084 93.1662 109.084 93.1662L105.15 67.1875Z" fill="black"/>
<path d="M105.421 242.396C101.894 242.609 87.9675 242.396 87.9675 242.396C87.9675 242.396 84.3482 239.122 84.0768 239.122C83.8055 239.122 83.6265 240.812 83.6265 240.812L77.9289 238.91V235.532C77.9289 235.532 77.7471 225.913 79.4645 225.495C81.1819 225.076 88.7814 225.495 88.7814 225.495C89.0527 225.39 94.2077 231.095 95.6538 232.15C97.0999 233.205 96.8286 233.947 96.8286 233.947C96.8286 233.947 100.266 237.325 102.979 237.538C104.67 237.671 106.571 239.439 106.911 240.812C107.117 241.639 106.75 242.317 105.421 242.396Z" fill="#BC8487"/>
<path opacity="0.1" d="M105.421 242.396C101.894 242.608 87.9673 242.396 87.9673 242.396C87.9673 242.396 84.348 239.122 84.0767 239.122C83.8054 239.122 83.6263 240.811 83.6263 240.811L77.9287 238.91V235.598L83.2627 237.854L87.5142 240.811H106.91C107.117 241.638 106.75 242.317 105.421 242.396Z" fill="black"/>
<g opacity="0.1">
<path d="M89.5845 237.434C89.5845 237.434 93.9255 232.575 96.8285 233.947Z" fill="black"/>
<path d="M89.5845 237.434C89.5845 237.434 93.9255 232.575 96.8285 233.947" stroke="black" stroke-miterlimit="10"/>
</g>
<path d="M62.101 219.579C62.2828 220.213 60.6549 221.059 60.6549 221.059V229.404C60.6549 229.404 61.3929 234.415 60.3266 235.876C60.2466 235.994 60.1454 236.091 60.0302 236.159C59.915 236.228 59.7884 236.266 59.6592 236.272C57.6705 236.376 53.3295 220.53 53.3295 220.53L53.0582 211.374L51.9729 210.496L50.4346 198.874H53.2399C53.2399 198.874 53.5357 198.662 54.0105 198.376C55.367 197.568 58.2077 196.158 59.7515 197.502L64.9959 211.304C64.9959 211.304 61.922 218.945 62.101 219.579Z" fill="#BC8487"/>
<path opacity="0.1" d="M60.3266 235.874C60.2466 235.993 60.1454 236.089 60.0302 236.158C59.915 236.226 59.7884 236.265 59.6592 236.27C57.6705 236.375 53.3295 220.528 53.3295 220.528L53.0582 211.372L51.9729 210.494L50.4346 198.873H53.2399C53.2399 198.873 53.5357 198.66 54.0105 198.375L54.686 210.282L55.0469 220.528C55.0469 220.528 58.4546 231.684 60.3266 235.874Z" fill="black"/>
<path d="M110.645 176.292C109.763 177.797 103.997 181.442 103.997 181.442C103.997 181.442 101.556 181.6 98.7068 184.136C97.2336 185.448 92.1139 188.05 87.5152 190.259C83.2203 192.322 79.3758 194.04 79.3758 194.04L74.948 200.061L71.5755 204.647C71.5755 204.647 69.5407 203.697 69.3372 205.44C69.1337 207.183 66.0815 209.164 66.1493 209.481C66.2171 209.797 64.9962 210.59 64.9962 211.303C64.9962 212.016 60.4517 206.153 60.5195 202.587C60.5874 199.022 58.2134 196.566 58.2134 196.566C58.2134 196.566 58.8238 195.298 59.7734 195.536C60.723 195.773 61.537 195.298 61.8083 194.902C62.0796 194.506 63.2327 195.456 63.7753 195.139C64.3179 194.823 66.4884 188.563 66.4884 188.563L74.9453 181.936L91.7667 168.765L92.5426 168.156C92.5426 168.156 94.781 169.354 93.8721 159.539C93.6957 157.637 93.4 155.327 92.9496 152.512C90.1686 135.16 100.139 133.18 100.139 133.18L108.889 136.587L110.992 140.39V140.409L111.467 163.843C111.467 163.843 111.526 174.786 110.645 176.292Z" fill="#433A59"/>
<path opacity="0.1" d="M87.4468 187.386C87.4468 187.386 87.474 188.511 87.5147 190.261C83.2198 192.324 79.3753 194.041 79.3753 194.041L74.9475 200.063C74.8742 195.072 74.8905 188.587 74.9475 181.941L91.7689 168.77C89.6879 177.78 87.4468 187.386 87.4468 187.386Z" fill="black"/>
<path opacity="0.1" d="M110.983 140.402V140.421L97.8245 140.718C97.8245 140.718 95.5183 151.256 95.1792 153.475C95.0951 154.02 94.585 156.349 93.8633 159.55C93.687 157.649 93.3913 155.338 92.9409 152.524C90.1599 135.172 100.131 133.191 100.131 133.191L108.881 136.598L110.983 140.402Z" fill="black"/>
<path d="M76.3233 111.637L74.6276 149.668C74.6276 149.668 73.4067 205.527 74.6276 209.172C75.8485 212.816 76.3233 218.521 76.3233 218.521C76.3233 218.521 75.5772 222.879 76.3233 224.305C77.0694 225.731 79.4434 227.316 79.3756 228.108C79.3077 228.901 86.6332 233.179 90.4316 226.365C90.4316 226.365 88.1254 222.562 88.6002 220.898C89.075 219.234 88.3967 216.778 88.3967 216.778C88.3967 216.778 87.108 212.103 87.108 209.717C87.108 207.33 86.6332 187.373 86.6332 187.373C86.6332 187.373 94.0265 155.68 94.3656 153.462C94.7047 151.243 97.0109 140.705 97.0109 140.705L110.984 140.389C110.984 140.389 110.577 129.058 109.763 126.602C108.949 124.146 104.947 106.16 104.947 106.16L76.3233 111.637Z" fill="#433A59"/>
<path d="M53.0038 148.922L51.791 149.328L51.7422 150.728L88.1035 151.277V150.725L53.0038 148.922Z" fill="#7B728F"/>
<path d="M95.8931 32.286C90.6025 44.8206 93.8881 47.4416 94.4117 47.7648C93.2912 47.1563 78.7271 39.1634 80.6426 37.135C81.8879 35.8134 82.9542 30.0643 83.5809 25.9442C83.9526 23.4849 84.1697 21.6055 84.1697 21.6055L99.4527 24.8794C97.9714 27.6683 96.7939 30.1245 95.8931 32.286Z" fill="#FFC5D3"/>
<path opacity="0.1" d="M116.057 40.0777L115.742 40.5689L109.695 45.5511L108.414 43.0917C110.278 41.824 115.867 39.6055 115.867 39.6055L116.057 40.0777Z" fill="black"/>
<path d="M121.633 51.5006C121.09 53.7191 111.933 51.5006 111.933 51.5006L110.983 49.7575C110.983 49.7575 110.889 49.5356 110.728 49.1743C110.142 47.8464 108.723 44.7024 108.137 44.1446C107.391 43.4315 116.141 39.9453 116.141 39.9453L118.822 46.7593C119.482 47.2782 120.092 47.8809 120.64 48.5563C121.318 49.4152 121.879 50.4896 121.633 51.5006Z" fill="#E5E8EF"/>
<path d="M106.439 52.5234C106.439 52.5234 111.865 57.5246 112.679 57.1633C113.493 56.802 126.652 67.1814 126.652 67.1814C126.652 67.1814 128.144 73.8369 121.972 74.2331C121.972 74.2331 108.881 73.5993 108.338 71.3807C107.796 69.1622 106.439 52.5234 106.439 52.5234Z" fill="#5F5570"/>
<path opacity="0.1" d="M91.6525 42.4704L85.7515 49.6014L94.0265 111.086L97.2823 108.867C97.2823 108.867 105.693 113.225 106.371 109.184C107.05 105.143 106.862 89.2175 106.862 89.2175L105.761 60.4467C105.761 60.4467 101.895 50.3842 101.895 50.0672C101.895 49.7503 96.3191 44.8379 96.3191 44.8379L93.6874 42.4609L91.6525 42.4704Z" fill="black"/>
<path d="M91.6525 41.5173L85.7515 48.6482L94.0265 110.133L97.2823 107.914C97.2823 107.914 105.693 112.272 106.371 108.231C107.05 104.19 106.862 88.2644 106.862 88.2644L105.761 59.4936C105.761 59.4936 101.895 49.431 101.895 49.1141C101.895 48.7972 96.3191 43.8848 96.3191 43.8848L93.6874 41.5078L91.6525 41.5173Z" fill="#E5E8EF"/>
<path opacity="0.1" d="M91.9916 42.5479L90.3638 46.4303L91.9916 48.4364C91.9916 48.4364 97.8249 62.1975 96.6718 70.3584L97.8927 97.2182L101.827 101.734L104.947 97.5256L103.455 73.1221C103.455 73.1221 99.4528 52.997 95.2474 46.7377L94.0265 41.1914L91.9916 42.5479Z" fill="black"/>
<path d="M91.9916 41.9151L90.3638 45.7974L91.9916 47.8036C91.9916 47.8036 97.8249 61.5647 96.6718 69.7256L97.8927 96.5854L101.827 101.102L104.947 96.8928L103.455 72.4893C103.455 72.4893 99.4528 52.3642 95.2474 46.1049L94.0265 40.5586L91.9916 41.9151Z" fill="#BC8487"/>
<path opacity="0.1" d="M99.4529 24.8796C97.9715 27.6685 96.8048 30.1248 95.8932 32.2862C94.933 32.617 93.937 32.7845 92.9359 32.7838C89.5825 32.7838 87.6507 30.074 85.7516 27.1963C85.3175 26.5434 83.8904 26.6956 83.5811 25.9286C83.9528 23.4692 84.1698 21.5898 84.1698 21.5898L99.4529 24.8796Z" fill="black"/>
<path d="M103.335 20.3165C103.335 23.2097 102.451 26.0078 100.842 28.2073C99.233 30.4069 97.0049 31.8634 94.5585 32.3149C92.1121 32.7665 89.6081 32.1832 87.4971 30.6702C85.386 29.1573 83.8066 26.8138 83.0429 24.0617C82.2792 21.3095 82.3814 18.3293 83.3312 15.6574C84.281 12.9854 86.0159 10.7972 88.2238 9.48638C90.4317 8.17557 92.9677 7.82828 95.3753 8.50701C97.7829 9.18574 99.904 10.8459 101.357 13.1888C102.643 15.2619 103.335 17.7565 103.335 20.3165V20.3165Z" fill="#FFC5D3"/>
<path opacity="0.1" d="M89.6175 47.3824L81.0711 35.339C81.0711 35.339 80.2816 34.9682 82.9486 31.707C82.9486 31.707 92.743 40.6254 93.3507 42.1404C93.9585 43.6553 89.6175 47.3824 89.6175 47.3824Z" fill="black"/>
<path d="M89.3465 46.7456L80.8001 34.7023C80.8001 34.7023 80.0106 34.3315 82.6776 31.0703C82.6776 31.0703 92.472 39.9887 93.0797 41.5036C93.6875 43.0186 89.3465 46.7456 89.3465 46.7456Z" fill="#E5E8EF"/>
<path d="M110.983 123.397C110.983 123.397 109.355 122.256 109.355 120.909C109.355 119.562 108.541 100.547 108.541 100.547C108.541 100.547 107.348 89.1975 106.1 80.1776C105.367 74.8627 104.615 70.3528 104.084 69.4591L104.062 69.4211C102.638 67.2818 102.909 56.8231 94.0234 41.5312C94.1428 41.6263 97.2059 44.1364 99.4497 45.3978C99.9064 45.6659 100.386 45.8783 100.88 46.0316C102.914 46.5863 109.562 49.5971 109.358 54.4303C109.155 59.2635 109.833 70.356 109.833 70.356V93.0893L110.983 123.397Z" fill="#5F5570"/>
<path d="M110.983 49.7574C110.983 49.7574 113.832 58.9484 113.425 61.2461C113.018 63.5439 120.005 72.5764 120.005 72.5764L126.652 67.1885C126.652 67.1885 124.142 61.3253 124.481 59.5822C124.82 57.8391 122.718 54.1152 122.718 54.1152L122.853 47.9414C122.853 47.9414 121.632 50.6195 110.983 49.7574Z" fill="#5F5570"/>
<path opacity="0.1" d="M101.357 13.1861L96.2021 13.4142C95.6987 13.4104 95.197 13.4839 94.7099 13.6329C92.8677 14.2953 92.0185 16.5835 91.9506 18.6404C91.8828 20.6973 90.8654 23.0014 88.8929 23.182C88.6966 23.221 88.4951 23.1686 88.3313 23.0362C88.2062 22.8808 88.1232 22.6856 88.0926 22.4753C87.8096 21.2767 87.3723 20.1354 86.7957 19.0905C85.9818 19.2616 85.3794 20.1648 85.1678 21.1093C84.9562 22.0537 85.0132 23.0489 85.0159 24.0282C85.0183 25.272 84.9156 26.513 84.7093 27.7331C83.8682 26.4577 83.2526 24.9997 82.8981 23.4439C82.5437 21.888 82.4575 20.2654 82.6446 18.6704C82.8318 17.0753 83.2885 15.5396 83.9882 14.1525C84.6879 12.7655 85.6167 11.5547 86.7205 10.5906C87.8243 9.62656 89.0812 8.92841 90.418 8.53677C91.7549 8.14514 93.145 8.06782 94.5077 8.30932C95.8704 8.55082 97.1783 9.10631 98.3556 9.94351C99.5328 10.7807 100.556 11.8829 101.365 13.1861H101.357Z" fill="black"/>
<path d="M94.4416 13.3173C94.9286 13.1682 95.4304 13.0947 95.9338 13.0986L102.193 12.826C103.11 12.7848 104.133 12.6897 104.749 11.8942C104.97 11.5905 105.133 11.235 105.226 10.8515C105.387 10.239 105.435 9.59325 105.365 8.95759C105.295 8.32193 105.11 7.71099 104.822 7.16566C104.098 5.81871 102.828 5.03589 101.618 4.31329C100.492 3.61045 99.3352 2.97576 98.1532 2.41171C93.7625 0.463977 88.9013 0.545586 84.5604 2.6399C84.1315 2.83221 83.7249 3.08669 83.3503 3.39737C82.8271 3.92106 82.3816 4.54216 82.0318 5.23556L79.9725 8.86123C79.6884 9.30395 79.4692 9.79877 79.324 10.3254C78.9361 12.0464 80.138 13.7673 80.0132 15.5389C79.9426 16.42 79.5438 17.2282 79.4706 18.1092C79.3729 19.247 79.8178 20.3277 80.2547 21.3641L83.874 29.8927C84.4584 27.9039 84.7546 25.8152 84.7503 23.7125C84.7503 22.7332 84.6798 21.7381 84.9023 20.7936C85.1247 19.8492 85.7162 18.9459 86.5301 18.7748C87.1082 19.8193 87.5464 20.9607 87.8297 22.1596C87.8597 22.3702 87.9428 22.5655 88.0685 22.7206C88.2321 22.8533 88.4338 22.9056 88.6301 22.8663C90.6134 22.6857 91.6145 20.4038 91.6878 18.3247C91.761 16.2457 92.5994 13.9796 94.4416 13.3173Z" fill="#8F7080"/>
<path d="M51.791 149.327L54.3251 148.48L92.5341 150.911L88.3287 151.545L51.791 149.327Z" fill="#7B728F"/>
<path opacity="0.1" d="M51.791 149.327L54.3251 148.48L92.5341 150.911L88.3287 151.545L51.791 149.327Z" fill="black"/>
<path d="M93.5731 193.7L88.5321 193.151L86.7632 192.961V160.21L87.2298 152.606L87.3329 150.914H92.534L93.5731 193.7Z" fill="#7B728F"/>
<path opacity="0.1" d="M92.1949 192.536L88.174 192.016L86.7632 191.835V160.783L87.1349 153.576L87.2163 151.969H91.3646L92.1949 192.536Z" fill="black"/>
<path d="M64.6216 149.328C64.6216 149.328 67.1312 142.898 68.1839 142.698C69.2366 142.498 71.1684 142.698 71.1684 142.698L70.9974 144.562C70.9974 144.562 68.42 144.799 67.606 149.829L64.6216 149.328Z" fill="#7B728F"/>
<path opacity="0.1" d="M64.6216 149.328C64.6216 149.328 67.1312 142.898 68.1839 142.698C69.2366 142.498 71.1684 142.698 71.1684 142.698L70.9974 144.562C70.9974 144.562 68.42 144.799 67.606 149.829L64.6216 149.328Z" fill="black"/>
<path d="M74.3561 142.023C74.3561 142.023 81.1037 145.944 80.2219 150.539L76.5592 150.302C76.5592 150.302 74.7957 143.45 73.4065 143.091C72.0174 142.733 74.3561 142.023 74.3561 142.023Z" fill="#7B728F"/>
<path d="M99.4525 79.9451V80.1765L99.3168 106.567C99.3168 106.567 95.8576 128.752 94.908 129.624C93.9584 130.495 73.1351 128.118 73.1351 128.118L63.707 53.8776C63.6392 41.2005 71.3038 41.5966 71.3038 41.5966C72.3212 39.6951 77.2048 38.1896 77.2048 38.1896L79.9179 35.0996L80.0048 34.957C80.185 34.643 80.4176 34.3746 80.6885 34.1678V34.1678C81.2474 33.7907 81.6028 34.2882 81.8063 34.7795C81.8979 35.0101 81.9688 35.2512 82.0179 35.4989C93.0088 44.9149 99.4525 79.9451 99.4525 79.9451Z" fill="#5F5570"/>
<path opacity="0.1" d="M99.1813 80.2617V80.4931C95.7708 73.2037 82.6312 45.5864 79.0363 44.2109L80.42 43.1017C80.42 43.1017 81.3424 42.4678 79.6467 41.834C79.6467 41.834 77.0014 42.2301 76.9336 38.5062L79.7335 35.2735L80.4173 34.4844L81.5351 35.0961C81.6267 35.3267 81.6976 35.5678 81.7467 35.8155C92.7376 45.2315 99.1813 80.2617 99.1813 80.2617Z" fill="black"/>
<path d="M99.4527 79.9453V80.1766C96.0423 72.8873 82.9027 45.27 79.3078 43.8945L80.6915 42.7853C80.6915 42.7853 81.6139 42.1514 79.9182 41.5176C79.9182 41.5176 77.2729 41.9137 77.2051 38.1898L80.005 34.9571L80.6887 34.168L81.8066 34.7796C81.8981 35.0103 81.9691 35.2514 82.0182 35.4991C93.0091 44.915 99.4527 79.9453 99.4527 79.9453Z" fill="#433A59"/>
<path opacity="0.1" d="M104.358 69.7638L104.336 69.7257C102.912 67.5865 103.183 57.1278 94.2979 41.8359C94.4172 41.931 97.4804 44.4411 99.7241 45.7025L99.0974 48.1175L100.454 48.9637L104.358 69.7638Z" fill="black"/>
<path d="M104.087 69.4474L104.065 69.4093C102.641 67.2701 102.912 56.8114 94.0264 41.5195C94.1457 41.6146 97.2089 44.1247 99.4526 45.3861L98.8259 47.8011L100.182 48.6473L104.087 69.4474Z" fill="#433A59"/>
<path opacity="0.1" d="M93.6353 39.0781L93.0791 41.8227C93.0791 41.8227 93.4861 44.5705 95.9252 44.8082L96.3186 43.4993C96.3186 43.4993 93.6868 41.528 93.6353 39.0781Z" fill="black"/>
<path d="M93.6353 38.7617L93.0791 41.5063C93.0791 41.5063 93.4861 44.2541 95.9252 44.4918L96.3186 43.1829C96.3186 43.1829 93.6868 41.2116 93.6353 38.7617Z" fill="#E5E8EF"/>
<path opacity="0.1" d="M90.1274 151.355L88.5321 193.149L86.7632 192.959V160.207L87.2298 152.604L90.1274 151.355Z" fill="black"/>
<path d="M52.1541 167.497L51.0688 190.103L87.9674 193.697L89.5844 151.355L52.1541 167.497Z" fill="#7B728F"/>
<path opacity="0.1" d="M51.3403 169.927L52.062 149.961L89.8559 151.989L88.0571 173.097L51.3403 169.927Z" fill="black"/>
<path d="M51.0688 169.295L51.7905 149.328L89.5844 151.356L87.7856 172.464L51.0688 169.295Z" fill="#7B728F"/>
<path d="M71.5074 169.32H66.9629V175.5H71.5074V169.32Z" fill="#C3BBC8"/>
<path d="M67.6406 128.832L66.9623 130.971C66.9623 130.971 65.5379 142.698 67.3015 144.124C69.065 145.55 74.2878 145.629 74.5591 144.916C74.8304 144.203 76.7296 136.121 76.7296 136.121C76.7296 136.121 78.4253 142.064 79.3071 141.588C80.1888 141.113 77.2722 129.818 77.2722 129.818L67.6406 128.832Z" fill="#FFC5D3"/>
<path opacity="0.1" d="M66.9629 119.959V131.289C66.9629 131.289 74.1527 132.874 77.2728 130.135C77.2728 130.135 74.3562 119.166 75.4414 116.393C76.5267 113.62 66.9629 119.959 66.9629 119.959Z" fill="black"/>
<path d="M66.9629 119.642V130.973C66.9629 130.973 74.1527 132.557 77.2728 129.819C77.2728 129.819 74.3562 118.85 75.4414 116.077C76.5267 113.304 66.9629 119.642 66.9629 119.642Z" fill="#E5E8EF"/>
<path opacity="0.1" d="M66.1487 53.3229L64.2495 54.5114C64.2495 54.5114 63.9103 59.2654 63.7069 59.8992C63.5034 60.5331 63.7069 66.9509 63.7069 66.9509L63.6146 79.945C63.6146 79.945 63.3216 86.8382 63.6146 89.2944C63.9076 91.7506 64.2359 101.1 64.2359 101.1C64.2359 101.1 66.07 110.212 65.3917 113.46C64.7134 116.709 65.4595 123.998 66.6126 123.364C67.7657 122.73 78.4147 120.274 78.9574 119.799C79.5 119.324 79.2287 114.886 78.9574 114.332C78.6861 113.777 77.0582 106.25 77.1938 104.507C77.3295 102.764 76.719 87.4721 76.719 87.4721C76.719 87.4721 77.7365 71.1502 78.1434 67.3471C78.5504 63.5439 77.3295 52.3721 76.2442 52.2137C75.159 52.0552 71.9819 43.4189 66.1487 53.3229Z" fill="black"/>
<path d="M65.6062 52.6901L63.707 53.8786C63.707 53.8786 63.3679 58.6325 63.1644 59.2664C62.9609 59.9003 63.1644 66.3181 63.1644 66.3181L63.0721 79.3122C63.0721 79.3122 62.7791 86.2054 63.0721 88.6616C63.3651 91.1178 63.6934 100.467 63.6934 100.467C63.6934 100.467 65.5275 109.579 64.8492 112.827C64.1709 116.076 64.9171 123.365 66.0701 122.732C67.2232 122.098 77.8722 119.641 78.4149 119.166C78.9575 118.691 78.6862 114.254 78.4149 113.699C78.1436 113.144 76.5157 105.617 76.6513 103.874C76.787 102.131 76.1765 86.8393 76.1765 86.8393C76.1765 86.8393 77.194 70.5174 77.6009 66.7142C78.0079 62.9111 76.787 51.7393 75.7017 51.5809C74.6165 51.4224 71.4394 42.7861 65.6062 52.6901Z" fill="#5F5570"/>
<g opacity="0.1">
<path opacity="0.1" d="M86.1202 17.5859C85.3062 17.7571 84.7039 18.6603 84.4923 19.6048C84.2807 20.5492 84.3377 21.5444 84.3404 22.5237C84.3456 24.6262 84.0503 26.7149 83.4667 28.7038L79.8447 20.1753C79.7742 20.0073 79.7009 19.833 79.6304 19.6587C79.798 20.2456 80.0057 20.8158 80.2517 21.3637L83.8737 29.8923C84.4573 27.9034 84.7525 25.8147 84.7473 23.7122C84.7473 22.7329 84.6795 21.7377 84.8993 20.7933C85.119 19.8488 85.7132 18.9456 86.5271 18.7744C86.7899 19.2551 87.0246 19.756 87.2298 20.2735C86.9542 19.3286 86.5816 18.4262 86.1202 17.5859V17.5859Z" fill="black"/>
<path opacity="0.1" d="M104.887 7.30078C105.046 8.08049 105.024 8.89578 104.822 9.66191C104.727 10.0455 104.563 10.401 104.341 10.7046C103.726 11.5001 102.714 11.5952 101.786 11.6364L95.5293 11.9089C95.0249 11.9051 94.5223 11.9786 94.0343 12.1276C92.1948 12.79 91.3429 15.0782 91.2751 17.1351C91.2072 19.192 90.1898 21.4961 88.2174 21.6767C88.0211 21.7157 87.8195 21.6633 87.6558 21.5309V21.5309C87.7182 21.7369 87.7778 21.9461 87.8294 22.1648C87.8573 22.3755 87.9396 22.5712 88.0654 22.7257C88.2292 22.8582 88.4307 22.9105 88.6271 22.8715C90.6131 22.6909 91.6115 20.409 91.6848 18.3299C91.758 16.2509 92.6045 13.9848 94.444 13.3224C94.932 13.1734 95.4346 13.0999 95.9389 13.1038L102.195 12.8312C103.112 12.79 104.135 12.6949 104.751 11.8994C104.973 11.5959 105.137 11.2403 105.231 10.8567C105.385 10.268 105.434 9.64866 105.375 9.03703C105.315 8.4254 105.149 7.83447 104.887 7.30078V7.30078Z" fill="black"/>
</g>
<path opacity="0.1" d="M94.6992 137.292C94.6992 137.292 97.0488 135.865 97.955 135.945C98.8612 136.024 106.998 148.112 106.998 148.112L94.6992 137.292Z" fill="black"/>
<path opacity="0.1" d="M70.5982 55.4844C70.5982 55.4844 66.3033 57.6268 66.4173 59.1069C66.5312 60.5869 70.5982 55.4844 70.5982 55.4844Z" fill="black"/>
<path opacity="0.1" d="M68.5065 62.4883C68.5065 62.4883 64 69.2199 64.9957 69.4449C65.9914 69.6699 68.5065 62.4883 68.5065 62.4883Z" fill="black"/>
<path opacity="0.1" d="M83.5802 72.5781C83.5802 72.5781 83.9926 87.6323 80.688 89.5339L83.5802 72.5781Z" fill="black"/>
<path opacity="0.1" d="M66.4067 112.772C66.4067 112.772 69.5865 110.661 70.3164 111.083C71.0462 111.505 66.4067 112.772 66.4067 112.772Z" fill="black"/>
<path opacity="0.1" d="M66.9629 115.691C66.9629 115.691 68.9706 115.859 69.9229 115.375C70.8752 114.89 66.9629 115.691 66.9629 115.691Z" fill="black"/>
<path opacity="0.1" d="M114.89 60.2578C114.89 60.2578 117.381 68.6152 118.816 68.6152Z" fill="black"/>
<path opacity="0.1" d="M79.4731 220.322C79.4731 220.322 84.1451 218.842 84.8343 220.322C85.5234 221.802 79.4731 220.322 79.4731 220.322Z" fill="black"/>
<path opacity="0.1" d="M64.6212 198.375C64.6212 198.375 63.4572 200.457 64.9956 201.091C66.5339 201.725 64.6212 198.375 64.6212 198.375Z" fill="black"/>
<path opacity="0.1" d="M95.6543 169.32C95.6543 169.32 99.1814 172.99 100.847 173.098C102.513 173.206 95.6543 169.32 95.6543 169.32Z" fill="black"/>
<path d="M234.577 18.9611C234.577 18.9611 211.735 17.3416 214.427 36.0404C214.427 36.0404 213.884 39.346 216.456 40.8482C216.456 40.8482 216.497 39.4601 218.8 39.9323C219.619 40.0911 220.451 40.1379 221.28 40.0718C222.398 39.9829 223.462 39.4725 224.31 38.6171C224.31 38.6171 230.732 35.5207 233.229 23.2587C233.229 23.2587 235.076 20.5838 235.003 19.896L231.148 21.8198C231.148 21.8198 232.466 25.0683 231.419 27.7686C231.419 27.7686 231.294 21.9371 230.553 22.0638C230.401 22.0924 228.548 23.1889 228.548 23.1889C228.548 23.1889 230.817 28.8493 229.105 32.9599C229.105 32.9599 229.756 25.9874 227.843 23.5978L225.13 25.4486C225.13 25.4486 227.781 31.2928 225.984 36.0626C225.984 36.0626 226.446 28.7479 224.56 25.8987L222.102 28.1394C222.102 28.1394 224.59 33.9011 223.073 37.8564C223.073 37.8564 222.875 29.3405 221.567 28.6972C221.567 28.6972 219.419 30.9157 219.09 31.8221C219.09 31.8221 220.794 36.0056 219.736 38.2114C219.736 38.2114 219.088 32.5384 218.556 32.5067C218.556 32.5067 216.413 36.2654 216.19 38.8453C216.19 38.8453 216.282 35.0104 218.038 32.1485C218.038 32.1485 215.965 32.5637 214.755 34.1357C214.755 34.1357 215.089 31.4766 218.553 31.2453C218.553 31.2453 220.322 28.3929 220.797 28.2186C220.797 28.2186 217.338 27.8827 215.24 28.9666C215.24 28.9666 217.088 26.4596 221.432 27.6006L223.874 25.287C223.874 25.287 219.318 24.5581 217.389 25.3631C217.389 25.3631 219.611 23.1446 224.527 24.7609L227.17 22.9132C227.17 22.9132 223.288 21.9371 220.976 22.2793C220.976 22.2793 223.418 20.7422 227.943 22.4093L229.843 21.4173C229.843 21.4173 226.999 20.7644 226.166 20.663C225.333 20.5616 225.287 20.289 225.287 20.289C227.089 19.9382 228.94 20.1785 230.632 20.9831C230.632 20.9831 234.647 19.2432 234.577 18.9611Z" fill="#00BFA6"/>
<path d="M189.238 15.3789C189.238 15.3789 178.928 14.6531 180.133 23.1025C180.133 23.1025 179.891 24.5952 181.05 25.2734C181.05 25.2734 181.069 24.6396 182.108 24.8582C182.479 24.9327 182.856 24.9539 183.231 24.9216C183.732 24.8778 184.208 24.6467 184.588 24.2624V24.2624C184.588 24.2624 187.488 22.8616 188.617 17.3217C188.617 17.3217 189.452 16.1142 189.43 15.8036L187.683 16.672C187.683 16.672 188.277 18.1393 187.811 19.3595C187.811 19.3595 187.754 16.7258 187.417 16.786C187.35 16.786 186.514 17.2963 186.514 17.2963C186.514 17.2963 187.537 19.8539 186.763 21.7111C186.763 21.7111 187.059 18.5609 186.194 17.4801L184.97 18.3168C184.97 18.3168 186.167 20.9568 185.355 23.112C185.355 23.112 185.564 19.8064 184.712 18.5197L183.603 19.5338C183.603 19.5338 184.726 22.1358 184.039 23.9233C184.039 23.9233 183.95 20.0758 183.361 19.7842C183.361 19.7842 182.39 20.7857 182.241 21.1977C182.241 21.1977 183.011 23.0993 182.534 24.0849C182.534 24.0849 182.241 21.521 181.991 21.5083C181.991 21.5083 181.022 23.207 180.922 24.3607C180.969 23.2847 181.257 22.2421 181.758 21.3372C181.199 21.4601 180.683 21.772 180.274 22.2341C180.274 22.2341 180.426 21.0329 181.996 20.9283C181.996 20.9283 182.797 19.6384 183.011 19.5624C183.011 19.5624 181.448 19.4071 180.499 19.8983C180.499 19.8983 181.334 18.7669 183.296 19.2644L184.381 18.2186C184.381 18.2186 182.322 17.9016 181.451 18.2534C181.451 18.2534 182.455 17.2519 184.674 17.9809L185.871 17.1473C185.871 17.1473 184.115 16.7068 183.071 16.8653C183.071 16.8653 184.172 16.1712 186.221 16.9223L187.073 16.4755C187.073 16.4755 185.789 16.1807 185.412 16.1332C185.035 16.0856 185.016 15.9652 185.016 15.9652C185.831 15.8089 186.666 15.9186 187.431 16.2821C187.431 16.2821 189.27 15.512 189.238 15.3789Z" fill="#00BFA6"/>
<path opacity="0.1" d="M229.694 230.544C233.729 230.544 237 229.899 237 229.102C237 228.306 233.729 227.66 229.694 227.66C225.658 227.66 222.387 228.306 222.387 229.102C222.387 229.899 225.658 230.544 229.694 230.544Z" fill="#00BFA6"/>
<path opacity="0.1" d="M7.30646 209.079C11.3417 209.079 14.6129 208.434 14.6129 207.637C14.6129 206.841 11.3417 206.195 7.30646 206.195C3.27121 206.195 0 206.841 0 207.637C0 208.434 3.27121 209.079 7.30646 209.079Z" fill="#00BFA6"/>
<path opacity="0.1" d="M224.609 202.614C228.644 202.614 231.916 201.969 231.916 201.172C231.916 200.376 228.644 199.73 224.609 199.73C220.574 199.73 217.303 200.376 217.303 201.172C217.303 201.969 220.574 202.614 224.609 202.614Z" fill="#00BFA6"/>
<path opacity="0.1" d="M35.5662 216.814C39.6015 216.814 42.8727 216.168 42.8727 215.372C42.8727 214.575 39.6015 213.93 35.5662 213.93C31.531 213.93 28.2598 214.575 28.2598 215.372C28.2598 216.168 31.531 216.814 35.5662 216.814Z" fill="#00BFA6"/>
<path opacity="0.1" d="M192.041 218.052C196.076 218.052 199.347 217.406 199.347 216.61C199.347 215.814 196.076 215.168 192.041 215.168C188.006 215.168 184.734 215.814 184.734 216.61C184.734 217.406 188.006 218.052 192.041 218.052Z" fill="#00BFA6"/>
<path d="M213.702 246.713C219.728 246.713 224.612 245.748 224.612 244.557C224.612 243.367 219.728 242.402 213.702 242.402C207.677 242.402 202.793 243.367 202.793 244.557C202.793 245.748 207.677 246.713 213.702 246.713Z" fill="#00BFA6"/>
<path d="M218.212 241.029C218.709 240.555 219.071 239.917 219.251 239.197C219.387 238.468 219.121 237.612 218.524 237.33C217.856 237.033 217.143 237.571 216.603 238.116C216.063 238.662 215.442 239.286 214.734 239.172C215.098 238.786 215.371 238.297 215.525 237.751C215.68 237.206 215.711 236.623 215.615 236.06C215.584 235.826 215.498 235.607 215.369 235.426C215 234.963 214.327 235.163 213.884 235.527C212.474 236.687 212.08 238.925 212.072 240.94C211.931 240.211 212.05 239.454 212.045 238.722C212.04 237.99 211.869 237.137 211.329 236.75C210.996 236.541 210.621 236.438 210.243 236.449C209.609 236.424 208.903 236.497 208.472 237.039C207.929 237.711 208.073 238.842 208.54 239.574C209.006 240.306 209.72 240.779 210.376 241.292C210.902 241.657 211.35 242.156 211.687 242.753C211.728 242.835 211.761 242.922 211.784 243.013H215.762C216.651 242.483 217.475 241.816 218.212 241.029V241.029Z" fill="#00BFA6"/>
<path d="M35.9435 179.926C35.9435 179.926 37.4358 182.201 35.2571 185.631C33.0785 189.06 31.2824 191.969 32.0014 194.112C32.0014 194.112 35.2897 187.729 37.9702 187.64C40.6508 187.551 38.8873 183.773 35.9435 179.926Z" fill="#00BFA6"/>
<path opacity="0.1" d="M35.9437 179.926C36.0742 180.145 36.1766 180.385 36.2475 180.639C38.8576 184.22 40.2494 187.564 37.7397 187.649C35.4037 187.725 32.6011 192.606 31.9282 193.839C31.9504 193.935 31.9766 194.029 32.0069 194.121C32.0069 194.121 35.2952 187.738 37.9758 187.649C40.6564 187.561 38.8874 183.773 35.9437 179.926Z" fill="black"/>
<path d="M38.7139 182.835C38.7139 183.637 38.6379 184.287 38.543 184.287C38.448 184.287 38.3721 183.653 38.3721 182.835C38.3721 182.018 38.467 182.411 38.562 182.411C38.6569 182.411 38.7139 182.034 38.7139 182.835Z" fill="#FFD037"/>
<path d="M39.6662 183.794C39.0639 184.178 38.5375 184.409 38.4941 184.314C38.4507 184.219 38.8984 183.826 39.5007 183.442C40.103 183.059 39.867 183.338 39.9104 183.442C39.9538 183.547 40.2685 183.414 39.6662 183.794Z" fill="#FFD037"/>
<path d="M28.0726 179.926C28.0726 179.926 26.5804 182.201 28.759 185.631C30.9377 189.06 32.7337 191.969 32.0148 194.112C32.0148 194.112 28.7292 187.729 26.0459 187.64C23.3626 187.551 25.1289 183.773 28.0726 179.926Z" fill="#00BFA6"/>
<path opacity="0.1" d="M28.0731 179.926C27.9423 180.145 27.839 180.385 27.7665 180.639C25.1565 184.22 23.7674 187.564 26.2743 187.649C28.613 187.725 31.4157 192.606 32.0886 193.839C32.0667 193.935 32.0395 194.029 32.0072 194.121C32.0072 194.121 28.7216 187.738 26.0383 187.649C23.355 187.561 25.1294 183.773 28.0731 179.926Z" fill="black"/>
<path d="M25.2998 182.835C25.2998 183.637 25.3785 184.287 25.4735 184.287C25.5684 184.287 25.6444 183.653 25.6444 182.835C25.6444 182.018 25.5494 182.411 25.4545 182.411C25.3595 182.411 25.2998 182.034 25.2998 182.835Z" fill="#FFD037"/>
<path d="M24.3536 183.794C24.9559 184.178 25.4795 184.409 25.5256 184.314C25.5718 184.219 25.1187 183.826 24.5164 183.442C23.914 183.059 24.1528 183.338 24.1067 183.442C24.0606 183.547 23.7485 183.414 24.3536 183.794Z" fill="#FFD037"/>
<path d="M25.7749 193.833C25.7749 193.833 29.9423 193.684 31.2012 192.638C32.4601 191.593 37.6123 190.347 37.9216 192.024C38.2309 193.7 44.1862 200.356 39.4816 200.4C34.7771 200.444 28.5477 199.544 27.2943 198.651C26.0408 197.757 25.7749 193.833 25.7749 193.833Z" fill="#A8A8A8"/>
<path opacity="0.2" d="M39.563 199.818C34.8585 199.862 28.6291 198.962 27.3757 198.069C26.4233 197.39 26.0408 194.953 25.9133 193.828H25.7749C25.7749 193.828 26.0462 197.755 27.2915 198.645C28.5369 199.536 34.7744 200.439 39.4789 200.395C40.8355 200.395 41.3049 199.818 41.2804 198.981C41.0905 199.492 40.5723 199.809 39.563 199.818Z" fill="black"/>
</g>
<defs>
<linearGradient id="paint0_linear" x1="88.6214" y1="242.398" x2="88.6214" y2="0.000646292" gradientUnits="userSpaceOnUse">
<stop stop-color="#808080" stop-opacity="0.25"/>
<stop offset="0.54" stop-color="#808080" stop-opacity="0.12"/>
<stop offset="1" stop-color="#808080" stop-opacity="0.1"/>
</linearGradient>
<clipPath id="clip0">
<rect width="237" height="254" fill="white"/>
</clipPath>
</defs>
</svg>
