<svg width="764" height="1421" viewBox="0 0 764 1421" fill="none" xmlns="http://www.w3.org/2000/svg">
<path d="M731.814 1120.51H726.463V1117.52H740.875V1120.51H735.555V1135.45H731.814V1120.51ZM760.558 1121.29H760.474L755.168 1135.46H752.741L747.471 1121.29H747.408V1135.46H743.88V1117.52H749.071L753.957 1130.23L758.827 1117.52H764V1135.46H760.556L760.558 1121.29Z" fill="#E76F00"/>
<path d="M252.595 753.768C252.595 753.768 215.35 775.426 279.101 782.754C356.334 791.564 395.807 790.301 480.918 774.194C480.918 774.194 503.295 788.223 534.545 800.374C343.748 882.139 102.734 795.638 252.595 753.768ZM229.28 647.07C229.28 647.07 187.506 677.99 251.305 684.588C333.808 693.099 398.962 693.795 511.704 672.087C511.704 672.087 527.3 687.895 551.82 696.54C321.133 763.989 64.191 701.859 229.28 647.07Z" fill="#5382A1"/>
<path d="M425.827 466.075C472.839 520.196 413.478 568.901 413.478 568.901C413.478 568.901 532.845 507.283 478.025 430.123C426.823 358.163 387.557 322.413 600.124 199.144C600.127 199.141 266.464 282.466 425.827 466.075Z" fill="#E76F00"/>
<path d="M678.171 832.688C678.171 832.688 705.734 855.399 647.817 872.964C537.686 906.323 189.441 916.397 92.7005 874.295C57.9246 859.165 123.139 838.173 143.653 833.768C165.047 829.129 177.273 829.993 177.273 829.993C138.599 802.751 -72.7016 883.481 69.943 906.604C458.956 969.685 779.079 878.199 678.171 832.688ZM270.505 536.519C270.505 536.519 93.3651 578.589 207.775 593.866C256.082 600.333 352.382 598.869 442.08 591.354C515.388 585.171 589.001 572.027 589.001 572.027C589.001 572.027 563.152 583.096 544.451 595.862C364.569 643.169 17.0699 621.16 117.11 572.773C201.715 531.88 270.505 536.519 270.505 536.519ZM588.271 714.123C771.129 619.111 686.586 527.803 627.571 540.107C613.107 543.117 606.657 545.725 606.657 545.725C606.657 545.725 612.029 537.315 622.28 533.674C739.025 492.634 828.81 654.716 584.593 718.914C584.593 718.914 587.428 716.387 588.271 714.123Z" fill="#5382A1"/>
<path d="M478.025 0.0927734C478.025 0.0927734 579.295 101.385 381.975 257.15C223.745 382.096 345.894 453.338 381.91 534.738C289.551 451.41 221.769 378.061 267.242 309.792C333.983 209.58 518.885 160.993 478.025 0.0927734Z" fill="#E76F00"/>
<path d="M288.473 971.581C463.994 982.816 733.527 965.348 739.908 882.307C739.908 882.307 727.64 913.785 594.849 938.789C445.041 966.977 260.267 963.688 150.678 945.621C150.683 945.616 173.115 964.185 288.473 971.581Z" fill="#5382A1"/>
<path d="M259.708 1288.9C243.15 1303.26 225.662 1311.32 209.969 1311.32C187.569 1311.32 175.466 1297.89 175.466 1276.35C175.466 1253.05 188.435 1236.01 240.455 1236.01H259.705L259.708 1288.9ZM305.396 1340.44V1180.89C305.396 1140.13 282.147 1113.24 226.093 1113.24C193.369 1113.24 164.703 1121.32 141.405 1131.62L148.13 1159.86C166.474 1153.13 190.219 1146.86 213.526 1146.86C245.816 1146.86 259.708 1159.86 259.708 1186.74V1206.91H243.591C165.137 1206.91 129.746 1237.36 129.746 1283.06C129.746 1322.51 153.068 1344.93 196.981 1344.93C225.208 1344.93 246.279 1333.28 265.976 1316.23L269.551 1340.45L305.396 1340.44ZM457.874 1340.44H400.892L332.312 1117.28H382.077L424.629 1254.39L434.089 1295.63C455.617 1236 470.846 1175.52 478.461 1117.28H526.868C513.896 1190.76 490.558 1271.42 457.874 1340.44ZM676.474 1288.9C659.885 1303.26 642.369 1311.32 626.672 1311.32C604.312 1311.32 592.178 1297.89 592.178 1276.35C592.178 1253.05 605.173 1236.01 657.19 1236.01H676.474V1288.9ZM722.158 1340.44V1180.89C722.158 1140.13 698.854 1113.24 642.86 1113.24C610.115 1113.24 581.438 1121.32 558.15 1131.62L564.868 1159.86C583.217 1153.13 607.007 1146.86 630.295 1146.86C662.562 1146.86 676.474 1159.86 676.474 1186.74V1206.91H660.329C581.854 1206.91 546.476 1237.36 546.476 1283.06C546.476 1322.51 569.78 1344.93 613.685 1344.93C641.93 1344.93 662.993 1333.28 682.721 1316.23L686.31 1340.45L722.158 1340.44ZM79.6498 1378.34C66.6253 1397.35 45.5885 1412.4 22.5578 1420.91L0 1394.36C17.5298 1385.37 32.564 1370.84 39.5491 1357.32C45.5911 1345.28 48.092 1329.78 48.092 1292.69V1037.91H96.6332V1289.2C96.6306 1338.78 92.6665 1358.81 79.6498 1378.34Z" fill="#E76F00"/>
</svg>
