<svg width="590" height="590" viewBox="0 0 590 590" fill="none" xmlns="http://www.w3.org/2000/svg">
<path d="M447.429 186.335L380.195 139.366C379.33 138.761 378.302 138.438 377.25 138.438C376.198 138.438 375.17 138.761 374.305 139.366L360.693 148.876H271.227C266.426 148.876 261.822 150.8 258.427 154.226C255.032 157.651 253.125 162.297 253.125 167.142C253.125 171.986 255.032 176.632 258.427 180.057C261.822 183.483 266.426 185.407 271.227 185.407H308.399L307.072 186.335C306.384 186.815 305.822 187.456 305.434 188.204C305.046 188.951 304.844 189.782 304.844 190.626V352.407H315.188V193.36L326.572 185.407H362.688C363.908 188.889 366.309 191.824 369.466 193.693C372.623 195.561 376.333 196.244 379.94 195.619C383.547 194.995 386.82 193.103 389.179 190.28C391.538 187.456 392.832 183.882 392.832 180.188C392.832 176.495 391.538 172.921 389.179 170.097C386.82 167.273 383.547 165.382 379.94 164.758C376.333 164.133 372.623 164.815 369.466 166.684C366.309 168.553 363.908 171.488 362.688 174.97H341.513L377.25 150.004L439.312 193.36V399.376H366.906V409.813H444.484C445.856 409.813 447.172 409.264 448.141 408.285C449.111 407.306 449.656 405.979 449.656 404.595V190.626C449.656 189.782 449.453 188.951 449.065 188.204C448.678 187.457 448.116 186.815 447.429 186.335ZM377.25 174.97C378.273 174.97 379.273 175.276 380.123 175.849C380.974 176.423 381.637 177.238 382.028 178.191C382.42 179.145 382.522 180.194 382.322 181.207C382.123 182.219 381.63 183.149 380.907 183.879C380.184 184.608 379.262 185.106 378.259 185.307C377.256 185.508 376.216 185.405 375.271 185.01C374.326 184.615 373.518 183.946 372.95 183.088C372.381 182.23 372.078 181.221 372.078 180.188C372.08 178.805 372.626 177.479 373.595 176.5C374.565 175.522 375.879 174.972 377.25 174.97ZM271.227 174.97C269.169 174.97 267.196 174.145 265.741 172.677C264.286 171.209 263.469 169.218 263.469 167.142C263.469 165.065 264.286 163.074 265.741 161.606C267.196 160.138 269.169 159.313 271.227 159.313H345.753L323.342 174.97H271.227Z" fill="#FF5975"/>
<path d="M428.969 336.75H418.625V378.5H428.969V336.75Z" fill="#FF5975"/>
<path d="M408.281 336.75H397.938V378.5H408.281V336.75Z" fill="#FF5975"/>
<path d="M387.594 336.75H377.25V378.5H387.594V336.75Z" fill="#FF5975"/>
<path d="M327.765 282.488L332.937 286.094L338.816 277.507L336.864 276.146L340.513 265.374C340.884 264.281 340.884 263.094 340.513 262L336.864 251.228L346.524 244.495C347.435 243.859 348.12 242.945 348.478 241.886L352.195 230.911H364.372C365.423 230.911 366.448 230.588 367.312 229.986L377.252 223.061L387.191 229.99C388.056 230.592 389.081 230.915 390.131 230.915H402.308L406.025 241.89C406.383 242.949 407.068 243.863 407.98 244.499L417.639 251.232L413.99 262.003C413.619 263.097 413.619 264.283 413.99 265.377L417.639 276.148L407.98 282.881C407.068 283.517 406.383 284.431 406.025 285.49L402.308 296.465H390.131C389.081 296.465 388.056 296.788 387.191 297.39L381.8 301.149L387.679 309.736L391.745 306.903H406.007C407.086 306.903 408.138 306.562 409.016 305.929C409.894 305.296 410.553 304.401 410.902 303.371L415.263 290.492L426.738 282.493C427.665 281.847 428.357 280.913 428.71 279.834C429.063 278.754 429.057 277.588 428.692 276.512L424.349 263.687L428.692 250.868C429.057 249.792 429.063 248.626 428.71 247.546C428.357 246.467 427.665 245.533 426.738 244.887L415.265 236.888L410.904 224.009C410.555 222.979 409.896 222.084 409.018 221.451C408.14 220.818 407.088 220.477 406.009 220.477H391.745L380.191 212.425C379.327 211.823 378.302 211.5 377.252 211.5C376.201 211.5 375.176 211.823 374.312 212.425L362.759 220.477H348.496C347.417 220.477 346.365 220.818 345.487 221.451C344.61 222.084 343.95 222.979 343.601 224.009L339.238 236.888L327.763 244.887C326.837 245.533 326.144 246.467 325.791 247.546C325.439 248.626 325.445 249.792 325.809 250.868L330.154 263.687L325.811 276.507C325.447 277.583 325.441 278.749 325.793 279.829C326.146 280.908 326.838 281.842 327.765 282.488Z" fill="#FF5975"/>
<path d="M147.893 322.261L165.203 405.138V446.345C165.203 447.729 165.748 449.057 166.718 450.035C167.688 451.014 169.003 451.564 170.375 451.564H346.219C347.59 451.564 348.906 451.014 349.876 450.035C350.846 449.057 351.39 447.729 351.39 446.345V405.138L368.701 322.261C372.079 319.816 374.651 316.403 376.083 312.465C377.515 308.527 377.741 304.246 376.733 300.177C375.724 296.107 373.526 292.438 370.425 289.644C367.324 286.851 363.463 285.062 359.342 284.51C355.221 283.958 351.031 284.669 347.315 286.549C343.599 288.43 340.529 291.394 338.503 295.057C336.478 298.72 335.589 302.913 335.954 307.092C336.319 311.27 337.92 315.242 340.549 318.491L327.203 351.544C323.872 359.846 317.384 365.419 308.962 367.233C296.639 369.804 281.595 363.732 277.984 347.365L272.159 320.825C275.263 317.998 277.445 314.287 278.417 310.183C279.389 306.079 279.107 301.775 277.605 297.836C276.104 293.898 273.456 290.511 270.009 288.122C266.562 285.733 262.478 284.454 258.297 284.454C254.115 284.454 250.031 285.733 246.585 288.122C243.138 290.511 240.489 293.898 238.988 297.836C237.487 301.775 237.204 306.079 238.176 310.183C239.149 314.287 241.331 317.998 244.435 320.825L238.612 347.357C235.561 361.171 224.677 366.922 215.51 367.699C206.31 368.443 194.676 364.633 189.388 351.533L176.045 318.491C179.047 314.814 180.698 310.203 180.719 305.439C180.732 301.862 179.836 298.343 178.114 295.217C176.392 292.091 173.904 289.463 170.887 287.587C167.87 285.71 164.425 284.647 160.884 284.5C157.343 284.352 153.824 285.125 150.664 286.745C147.504 288.364 144.809 290.775 142.838 293.748C140.867 296.72 139.686 300.153 139.408 303.719C139.129 307.284 139.764 310.861 141.249 314.108C142.735 317.355 145.023 320.162 147.893 322.261ZM356.562 295.001C358.608 295.001 360.608 295.613 362.309 296.76C364.01 297.907 365.336 299.537 366.119 301.445C366.902 303.352 367.106 305.45 366.707 307.475C366.308 309.5 365.323 311.359 363.876 312.819C362.43 314.279 360.587 315.273 358.58 315.676C356.574 316.078 354.494 315.872 352.604 315.082C350.714 314.292 349.098 312.954 347.962 311.238C346.825 309.521 346.219 307.503 346.219 305.439C346.221 302.671 347.312 300.018 349.251 298.061C351.19 296.105 353.82 295.004 356.562 295.001ZM258.297 295.001C260.342 295.001 262.342 295.613 264.043 296.76C265.744 297.907 267.07 299.537 267.853 301.445C268.636 303.352 268.841 305.45 268.442 307.475C268.043 309.5 267.057 311.359 265.611 312.819C264.164 314.279 262.321 315.273 260.315 315.676C258.308 316.078 256.228 315.872 254.338 315.082C252.448 314.292 250.833 312.954 249.696 311.238C248.56 309.521 247.953 307.503 247.953 305.439C247.956 302.671 249.046 300.018 250.986 298.061C252.925 296.105 255.554 295.004 258.297 295.001ZM213.138 378.236C214.207 378.236 215.288 378.193 216.371 378.099C232.493 376.735 245.185 365.559 248.708 349.622L253.931 325.826C256.805 326.476 259.785 326.476 262.659 325.826L267.884 349.627C272.073 368.601 288.115 378.216 303.605 378.216C306.121 378.218 308.631 377.96 311.095 377.446C322.83 374.919 332.196 366.905 336.785 355.473L349.145 324.868C351.507 325.81 354.022 326.3 356.562 326.314C356.815 326.314 357.049 326.249 357.299 326.239L342.024 399.376H185.89V409.814H341.047V441.126H175.547V404.595C175.546 404.234 175.509 403.874 175.436 403.52L159.294 326.239C159.544 326.248 159.778 326.314 160.031 326.314C162.571 326.3 165.085 325.809 167.448 324.868L179.807 355.474C185.497 369.564 198.36 378.236 213.138 378.236ZM160.031 295.001C162.077 295.001 164.077 295.613 165.778 296.76C167.479 297.907 168.805 299.537 169.587 301.445C170.37 303.352 170.575 305.45 170.176 307.475C169.777 309.5 168.792 311.359 167.345 312.819C165.899 314.279 164.056 315.273 162.049 315.676C160.043 316.078 157.963 315.872 156.073 315.082C154.183 314.292 152.567 312.954 151.431 311.238C150.294 309.521 149.687 307.503 149.687 305.439C149.69 302.671 150.781 300.018 152.72 298.061C154.659 296.105 157.289 295.004 160.031 295.001Z" fill="#FF5975"/>
<path d="M173.912 268.638C177.963 270.01 181.644 272.311 184.665 275.36C187.686 278.409 189.967 282.123 191.327 286.21C191.67 287.25 192.328 288.154 193.209 288.794C194.09 289.435 195.148 289.78 196.234 289.78C197.319 289.78 198.377 289.435 199.258 288.794C200.139 288.154 200.797 287.25 201.14 286.21C202.501 282.123 204.781 278.409 207.802 275.36C210.824 272.311 214.504 270.01 218.555 268.638C219.585 268.292 220.481 267.627 221.116 266.739C221.751 265.85 222.092 264.782 222.092 263.687C222.092 262.591 221.751 261.523 221.116 260.635C220.481 259.746 219.585 259.082 218.555 258.735C214.504 257.363 210.824 255.062 207.802 252.013C204.781 248.964 202.501 245.251 201.14 241.163C200.797 240.124 200.139 239.22 199.258 238.579C198.377 237.939 197.319 237.594 196.234 237.594C195.148 237.594 194.09 237.939 193.209 238.579C192.328 239.22 191.67 240.124 191.327 241.163C189.967 245.251 187.686 248.964 184.665 252.013C181.644 255.062 177.963 257.363 173.912 258.735C172.882 259.082 171.986 259.746 171.352 260.635C170.717 261.523 170.375 262.591 170.375 263.687C170.375 264.782 170.717 265.85 171.352 266.739C171.986 267.627 172.882 268.292 173.912 268.638ZM196.234 254.273C198.779 257.933 201.936 261.118 205.562 263.687C201.936 266.255 198.779 269.441 196.234 273.1C193.688 269.441 190.531 266.255 186.905 263.687C190.531 261.118 193.688 257.933 196.234 254.273Z" fill="#FF5975"/>
<circle cx="295" cy="295" r="292.5" stroke="#FF5975" stroke-width="5" stroke-dasharray="5 15"/>
</svg>
