<svg width="590" height="590" viewBox="0 0 590 590" fill="none" xmlns="http://www.w3.org/2000/svg">
<path d="M450.332 130H411.66C406.321 130 401.992 134.329 401.992 139.668V149.336H322.341C318.35 138.084 307.604 130 295 130C282.396 130 271.65 138.084 267.659 149.336H188.008V139.668C188.008 134.329 183.679 130 178.34 130H139.668C134.329 130 130 134.329 130 139.668V178.34C130 183.679 134.329 188.008 139.668 188.008H178.34C183.679 188.008 188.008 183.679 188.008 178.34V168.543H228.212C193.332 190.634 172.13 227.953 169.579 267.57C158.191 271.486 149.98 282.299 149.98 295C149.98 310.993 162.992 324.004 178.984 324.004C194.977 324.004 207.988 310.993 207.988 295C207.988 282.509 200.051 271.837 188.955 267.762C192.388 222.228 225.177 183.01 269.023 171.883C273.776 181.43 283.631 188.008 295 188.008C306.369 188.008 316.224 181.43 320.977 171.884C364.824 183.011 397.612 222.229 401.045 267.763C389.949 271.837 382.012 282.509 382.012 295C382.012 310.993 395.023 324.004 411.016 324.004C427.008 324.004 440.02 310.993 440.02 295C440.02 282.299 431.81 271.486 420.421 267.57C417.865 227.873 396.599 190.719 361.788 168.672H401.992V178.34C401.992 183.679 406.321 188.008 411.66 188.008H450.332C455.671 188.008 460 183.679 460 178.34V139.668C460 134.329 455.671 130 450.332 130ZM168.672 168.672H149.336V149.336H168.672V168.672ZM178.984 304.668C173.653 304.668 169.316 300.331 169.316 295C169.316 289.669 173.653 285.332 178.984 285.332C184.315 285.332 188.652 289.669 188.652 295C188.652 300.331 184.315 304.668 178.984 304.668ZM295 168.672C289.669 168.672 285.332 164.335 285.332 159.004C285.332 153.673 289.669 149.336 295 149.336C300.331 149.336 304.668 153.673 304.668 159.004C304.668 164.335 300.331 168.672 295 168.672ZM411.016 285.332C416.347 285.332 420.684 289.669 420.684 295C420.684 300.331 416.347 304.668 411.016 304.668C405.685 304.668 401.348 300.331 401.348 295C401.348 289.669 405.685 285.332 411.016 285.332ZM440.664 168.672H421.328V149.336H440.664V168.672Z" fill="#FF5975"/>
<path d="M380.387 328.308L303.044 212.293C303.041 212.289 303.038 212.285 303.035 212.281C303.008 212.239 302.977 212.2 302.949 212.16C302.816 211.967 302.676 211.781 302.531 211.6C298.457 206.538 290.699 206.88 287.051 212.16C287.023 212.2 286.992 212.239 286.965 212.281C286.962 212.285 286.959 212.288 286.956 212.293L209.612 328.309C207.056 332.143 207.562 337.249 210.82 340.508C230.109 359.796 242.386 385.011 245.731 411.987C244.23 413.2 242.78 414.5 241.406 415.906C232.325 425.195 227.324 437.421 227.324 450.331C227.324 455.67 231.653 459.999 236.992 459.999H353.008C358.347 459.999 362.676 455.67 362.676 450.331C362.676 437.421 357.675 425.195 348.595 415.905C347.22 414.499 345.771 413.2 344.269 411.986C347.613 385.009 359.89 359.795 379.179 340.508C382.438 337.249 382.944 332.142 380.387 328.308ZM295 324.003C300.331 324.003 304.668 328.34 304.668 333.671C304.668 339.002 300.331 343.339 295 343.339C289.669 343.339 285.332 339.002 285.332 333.671C285.332 328.34 289.669 324.003 295 324.003ZM248.309 440.663C252.331 429.169 263.236 420.683 275.664 420.683H314.336C326.764 420.683 337.669 429.169 341.691 440.663H248.309ZM326.095 402.818C322.293 401.848 318.351 401.347 314.336 401.347H275.664C271.649 401.347 267.707 401.848 263.905 402.819C259.38 376.761 247.629 352.403 229.97 332.63L285.332 249.587V306.331C274.079 310.322 265.996 321.068 265.996 333.672C265.996 349.664 279.007 362.676 295 362.676C310.993 362.676 324.004 349.664 324.004 333.672C324.004 321.068 315.921 310.322 304.668 306.331V249.587L360.031 332.63C342.37 352.401 330.619 376.76 326.095 402.818Z" fill="#FF5975"/>
<circle cx="295" cy="295" r="292.5" stroke="#FF5975" stroke-width="5" stroke-dasharray="5 15"/>
</svg>
