<svg width="1290" height="1421" viewBox="0 0 1290 1421" fill="none" xmlns="http://www.w3.org/2000/svg">
<path d="M586.943 18.0397C622.017 -2.04077 667.702 -2.13147 702.746 18.0397C879.049 117.681 1055.41 217.166 1231.68 316.868C1264.84 335.548 1287.01 372.453 1286.68 410.664V1010.14C1286.92 1049.94 1262.55 1087.73 1227.57 1105.98C1051.85 1205.07 876.218 1304.29 700.524 1403.38C664.724 1423.85 618.123 1422.28 583.442 1400.12C530.76 1369.58 477.987 1339.18 425.3 1308.67C414.534 1302.25 402.397 1297.14 394.795 1286.7C401.516 1277.64 413.531 1276.51 423.295 1272.55C445.286 1265.56 465.483 1254.33 485.685 1243.44C490.793 1239.94 497.03 1241.28 501.927 1244.41C546.977 1270.24 591.628 1296.83 636.829 1322.42C646.471 1327.99 656.235 1320.59 664.477 1316C836.917 1218.52 1009.57 1121.41 1181.98 1023.9C1188.36 1020.82 1191.9 1014.04 1191.38 1007.04C1191.5 809.285 1191.41 611.494 1191.44 413.738C1192.17 405.796 1187.57 398.495 1180.39 395.245C1005.28 296.606 830.256 197.816 655.172 99.1526C652.139 97.0667 648.545 95.9475 644.864 95.9421C641.183 95.9367 637.586 97.0454 634.547 99.1224C459.462 197.816 284.469 296.697 109.385 395.33C102.231 398.586 97.4296 405.766 98.281 413.738C98.3112 611.494 98.281 809.285 98.281 1007.07C97.9774 1010.49 98.7273 1013.91 100.43 1016.89C102.132 1019.86 104.705 1022.25 107.803 1023.71C154.525 1050.21 201.307 1076.53 248.06 1102.94C274.398 1117.12 306.737 1125.54 335.755 1114.68C361.363 1105.49 379.314 1079.36 378.825 1052.16C379.067 855.558 378.704 658.926 379.006 462.354C378.366 453.627 386.644 446.416 395.128 447.237C417.577 447.086 440.056 446.935 462.505 447.298C471.876 447.086 478.325 456.484 477.166 465.277C477.075 663.123 477.408 860.975 477.015 1058.82C477.075 1111.55 455.417 1168.92 406.655 1194.72C346.582 1225.85 272.332 1219.25 212.985 1189.4C161.608 1163.75 112.579 1133.48 62.1135 1106.01C27.0442 1087.85 2.79654 1049.91 3.0434 1010.15V410.664C2.67563 371.662 25.7344 334.086 59.922 315.679C235.616 216.506 411.279 117.258 586.943 18.0397Z" fill="#8CC84B"/>
<path d="M740.219 433.305C816.846 428.371 898.879 430.382 967.834 468.139C1021.22 497.073 1050.82 557.798 1051.76 617.123C1050.27 625.125 1041.91 629.539 1034.27 628.989C1012.04 628.959 989.799 629.292 967.567 628.838C958.136 629.201 952.654 620.504 951.471 612.164C945.082 583.779 929.606 555.667 902.895 541.976C861.891 521.442 814.347 522.475 769.635 522.903C736.994 524.637 701.895 527.464 674.242 546.662C653.012 561.205 646.563 590.562 654.14 614.205C661.284 631.181 680.877 636.659 696.907 641.708C789.253 665.865 887.111 663.461 977.693 695.252C1015.2 708.213 1051.88 733.408 1064.72 772.682C1081.51 825.319 1074.15 888.236 1036.71 930.493C1006.34 965.268 962.121 984.194 918.013 994.474C859.336 1007.56 798.442 1007.89 738.853 1002.08C682.821 995.693 624.512 980.969 581.256 942.784C544.267 910.66 526.201 860.607 527.995 812.298C528.423 804.14 536.544 798.451 544.358 799.122C566.747 798.94 589.135 798.88 611.524 799.152C620.466 798.512 627.096 806.242 627.555 814.672C631.686 841.716 641.847 870.101 665.425 886.135C710.928 915.497 768.023 913.487 820.126 914.308C863.291 912.393 911.746 911.814 946.972 883.278C965.557 867.002 971.063 839.771 966.04 816.345C960.599 796.567 939.913 787.35 922.15 781.324C830.988 752.48 732.037 762.946 641.757 730.329C605.106 717.374 569.664 692.879 555.582 655.218C535.934 601.915 544.937 535.984 586.304 495.153C626.638 454.539 684.862 438.898 740.219 433.3V433.305Z" fill="#8CC84B"/>
</svg>
