<svg width="202" height="197" viewBox="0 0 202 197" fill="none" xmlns="http://www.w3.org/2000/svg">
<g clip-path="url(#clip0)">
<path d="M8.4165 8.4375H193.584V188.563H8.4165V8.4375Z" fill="url(#paint0_radial)"/>
<path d="M8.41657 8.43846H193.584V188.564H8.41657V8.43846ZM0 196.982H202V0.0214844H0V196.982ZM136.182 80.8255C129.533 80.8255 127.26 84.1923 127.26 86.9699C127.26 90 128.775 92.1043 137.697 96.7337C150.911 103.131 155.035 109.275 155.035 118.282C155.035 131.749 144.767 138.988 130.879 138.988C123.557 138.988 117.244 137.472 113.625 135.368C113.036 135.116 112.952 134.695 112.952 134.022V121.648C112.952 120.807 113.373 120.554 113.962 120.975C119.265 124.426 125.325 125.941 130.879 125.941C137.529 125.941 140.306 123.164 140.306 119.376C140.306 116.346 138.37 113.652 129.869 109.275C117.917 103.552 112.952 97.744 112.952 88.0643C112.952 77.206 121.453 68.1999 136.182 68.1999C143.42 68.1999 148.47 69.2943 151.248 70.5567C151.921 70.9775 152.089 71.6508 152.089 72.2399V83.7711C152.089 84.4444 151.669 84.8655 150.827 84.6127C147.124 82.2566 141.653 80.8255 136.182 80.8255ZM63.7984 90.8419C65.7343 91.0102 67.2494 91.0102 70.616 91.0102C80.4639 91.0102 89.722 87.5593 89.722 74.1763C89.722 63.4866 83.0727 58.0994 71.8786 58.0994C68.5121 58.0994 65.3135 58.2677 63.7984 58.3519V90.8419ZM48.817 46.147C48.817 45.5579 49.9955 45.1368 50.6684 45.1368C56.0554 44.8843 64.0512 44.716 72.3836 44.716C95.6977 44.716 104.788 57.5099 104.788 73.8393C104.788 95.2185 89.3009 104.393 70.2794 104.393C67.0811 104.393 65.9871 104.225 63.7142 104.225V136.547C63.7142 137.22 63.4617 137.557 62.7043 137.557H49.8268C49.1536 137.557 48.8166 137.304 48.8166 136.547V46.147H48.817Z" fill="#31C5F0"/>
</g>
<defs>
<radialGradient id="paint0_radial" cx="0" cy="0" r="1" gradientUnits="userSpaceOnUse" gradientTransform="translate(69.4016 48.8039) scale(140.727 136.256)">
<stop stop-color="#34364E" stop-opacity="0.98"/>
<stop offset="1" stop-color="#0C0824"/>
</radialGradient>
<clipPath id="clip0">
<rect width="202" height="197" fill="white"/>
</clipPath>
</defs>
</svg>
