<svg width="1421" height="744" viewBox="0 0 1421 744" fill="none" xmlns="http://www.w3.org/2000/svg">
<path d="M710.5 739.662C1102.9 739.662 1421 574.083 1421 369.831C1421 165.579 1102.9 0 710.5 0C318.102 0 0 165.579 0 369.831C0 574.083 318.102 739.662 710.5 739.662Z" fill="#8993BE"/>
<path fill-rule="evenodd" clip-rule="evenodd" d="M199.523 588.81L277.39 194.646H457.441C535.301 199.514 574.234 238.439 574.234 306.572C574.234 423.36 481.775 491.487 399.041 486.62H311.455L291.988 588.81H199.523ZM330.916 413.63L355.251 267.641H418.513C452.578 267.641 476.907 282.239 476.907 311.434C472.045 394.165 433.111 408.763 389.316 413.63H330.922H330.916ZM556.145 486.62L634.005 92.4609H726.47L707.004 194.646H794.595C872.461 199.514 901.658 238.439 891.928 287.106L857.863 486.62H760.535L794.601 306.572C799.463 282.239 799.463 267.641 765.403 267.641H692.405L648.609 486.62H556.145ZM851.629 588.81L929.49 194.646H1109.55C1187.41 199.514 1226.35 238.439 1226.35 306.572C1226.35 423.36 1133.88 491.487 1051.15 486.62H963.555L944.089 588.81H851.629ZM983.016 413.63L1007.35 267.641H1070.62C1104.68 267.641 1129.01 282.239 1129.01 311.434C1124.15 394.165 1085.22 408.763 1041.42 413.63H983.022H983.016Z" fill="#232531"/>
</svg>
