<svg width="590" height="590" viewBox="0 0 590 590" fill="none" xmlns="http://www.w3.org/2000/svg">
<g clip-path="url(#clip0)">
<path d="M468.038 313.36C469.321 301.153 469.321 288.846 468.038 276.64L428.625 260.92C425.353 248.154 420.245 235.927 413.461 224.62L430.249 185.62C426.398 180.88 422.246 176.32 417.913 171.94C413.521 167.62 408.948 163.48 404.194 159.64L365.082 176.38C353.742 169.615 341.48 164.523 328.678 161.259L312.913 121.96C300.671 120.68 288.329 120.68 276.087 121.96L260.322 161.26C247.519 164.523 235.257 169.615 223.918 176.38L184.806 159.64C180.052 163.48 175.479 167.62 171.086 171.94C166.754 176.32 162.602 180.88 158.751 185.62L175.54 224.62C168.755 235.927 163.648 248.154 160.376 260.92L120.963 276.64C119.679 288.846 119.679 301.153 120.963 313.36L160.376 329.08C163.648 341.846 168.755 354.072 175.54 365.38L158.751 404.38C162.603 409.12 166.755 413.68 171.087 418.06C175.48 422.38 180.053 426.52 184.806 430.361L223.918 413.621C235.258 420.386 247.52 425.478 260.323 428.741L276.088 468.041C288.329 469.322 300.672 469.322 312.913 468.041L328.678 428.741C341.481 425.478 353.743 420.386 365.083 413.621L404.195 430.361C408.948 426.52 413.522 422.38 417.914 418.06C422.247 413.68 426.398 409.12 430.25 404.38L413.462 365.38C420.246 354.073 425.353 341.846 428.625 329.08L468.038 313.36ZM294.5 403C234.682 403 186.19 354.647 186.19 294.999C186.19 235.352 234.682 187 294.5 187C354.318 187 402.811 235.354 402.811 295C402.806 354.645 354.316 402.995 294.5 403Z" fill="#FF5975"/>
<path d="M262.652 260.758C261.524 259.632 259.994 259 258.398 259C256.802 259 255.272 259.632 254.144 260.758L224.058 290.758C222.929 291.883 222.295 293.408 222.295 295C222.295 296.591 222.929 298.117 224.058 299.242L254.144 329.242C256.494 331.584 260.303 331.584 262.653 329.242C265.002 326.899 265.002 323.1 262.653 320.757L236.82 295L262.652 269.242C263.781 268.117 264.415 266.591 264.415 265C264.415 263.408 263.78 261.883 262.652 260.758Z" fill="#FF5975"/>
<path d="M364.945 290.758L334.858 260.758C332.503 258.451 328.723 258.468 326.388 260.796C324.054 263.124 324.037 266.893 326.35 269.242L352.182 295L326.35 320.758C324.814 322.271 324.208 324.488 324.763 326.568C325.317 328.647 326.947 330.272 329.033 330.825C331.119 331.378 333.342 330.773 334.858 329.242L364.945 299.242C366.074 298.117 366.707 296.591 366.707 295C366.707 293.409 366.073 291.883 364.945 290.758Z" fill="#FF5975"/>
<path d="M308.19 247.227C304.994 246.33 301.673 248.172 300.75 251.352L276.682 335.352C275.77 338.537 277.619 341.857 280.812 342.77C281.352 342.92 281.909 342.997 282.47 342.998C285.155 342.996 287.514 341.219 288.252 338.645L312.321 254.645C313.232 251.459 311.383 248.14 308.19 247.227Z" fill="#FF5975"/>
</g>
<circle cx="295" cy="295" r="292.5" stroke="#FF5975" stroke-width="5" stroke-dasharray="5 15"/>
<defs>
<clipPath id="clip0">
<rect width="349" height="348" fill="white" transform="translate(120 121)"/>
</clipPath>
</defs>
</svg>
