<svg width="180" height="190" viewBox="0 0 180 190" fill="none" xmlns="http://www.w3.org/2000/svg">
<g clip-path="url(#clip0)">
<path opacity="0.18" d="M23.3062 25.9889C14.0638 41.0575 10.0805 61.0139 7.39396 80.5209C4.62595 100.701 2.97237 121.15 2.44791 141.686C2.13762 153.739 2.64151 167.262 8.89766 175.545C11.2368 178.646 14.1779 180.685 17.1137 182.543C22.3461 185.863 27.7881 188.794 33.498 189.692C42.9604 191.178 52.3619 187.022 61.4186 182.895C77.3733 175.627 93.9618 168.206 110.609 171.147C118.329 172.511 125.765 176.076 133.437 177.9C141.11 179.723 149.419 179.638 156.155 174.186C160.841 170.386 164.376 164.291 167.166 157.791C173.427 143.205 176.384 126.22 177.331 109.243C177.798 100.86 177.79 92.3655 176.631 84.1162C175.305 74.6896 172.515 65.8089 169.699 57.0508C166.251 46.3056 162.679 35.5307 157.749 25.9815C152.818 16.4323 146.385 8.07905 138.558 3.76686C123.662 -4.43038 107.373 2.81974 92.3202 6.11795C84.6293 7.79306 76.6731 8.87389 68.9981 6.44852C65.3039 5.28226 62.3389 2.88288 58.5491 2.69346C54.5525 2.49661 50.2695 3.80772 46.4558 5.34911C37.5529 8.94818 29.3555 16.1203 23.3062 25.9889Z" fill="#68E1FD"/>
<path d="M87.3631 78.8711H74.7129V93.3416H87.3631V78.8711Z" fill="#68E1FD"/>
<path d="M87.3631 78.8711H74.7129V93.3416H87.3631V78.8711Z" fill="url(#paint0_linear)"/>
<path d="M98.0079 49.1836H65.714C63.6078 49.1836 61.9004 51.5749 61.9004 54.5246V79.2352C61.9004 82.185 63.6078 84.5762 65.714 84.5762H98.0079C100.114 84.5762 101.822 82.185 101.822 79.2352V54.5246C101.822 51.5749 100.114 49.1836 98.0079 49.1836Z" fill="white"/>
<path d="M118.64 93.1758H51.4453V96.1731H118.64V93.1758Z" fill="white"/>
<path d="M118.64 94.9219H51.4453V96.1736H118.64V94.9219Z" fill="#D9DBE2"/>
<path opacity="0.18" d="M89.371 165.666C128.988 165.666 161.103 160.485 161.103 154.093C161.103 147.701 128.988 142.52 89.371 142.52C49.7543 142.52 17.6387 147.701 17.6387 154.093C17.6387 160.485 49.7543 165.666 89.371 165.666Z" fill="#68E1FD"/>
<path d="M142.82 118.254C142.82 118.254 150.198 151.585 149.397 152.402C148.597 153.219 148.09 150.998 148.09 150.998L140.648 120.022L142.82 118.254Z" fill="#68E1FD"/>
<path d="M126.962 122.1L126.893 122.342L118.486 152.549C118.359 153.016 118.167 153.443 117.921 153.805C117.873 153.885 117.814 153.951 117.748 153.998C117.681 154.046 117.608 154.073 117.534 154.079C117.459 154.086 117.384 154.071 117.314 154.035C117.244 153.999 117.18 153.943 117.126 153.872C116.367 153.002 124.265 122 124.265 122L126.962 122.1Z" fill="#68E1FD"/>
<path d="M133.255 119.883C133.255 119.883 132.989 154.774 132.053 155.209C131.117 155.643 131.117 153.311 131.117 153.311L130.799 120.626L133.255 119.883Z" fill="#68E1FD"/>
<path d="M141.502 118.656C141.502 118.656 149.533 150.97 148.729 151.772C147.926 152.574 148.09 150.992 148.09 150.992L140.648 120.016L141.502 118.656Z" fill="url(#paint1_linear)"/>
<path d="M126.89 122.341L118.483 152.548C118.356 153.015 118.164 153.442 117.918 153.804C117.947 150.342 125.102 122.285 125.102 122.285L126.89 122.341Z" fill="url(#paint2_linear)"/>
<path d="M133.255 119.883C133.255 119.883 132.99 154.774 132.054 155.209C131.118 155.643 131.696 152.579 131.696 152.579L132.028 120.265L133.255 119.883Z" fill="url(#paint3_linear)"/>
<path d="M149.57 110.28C147.809 115.966 143.847 119.889 139.601 121.649C136.291 123.02 132.804 123.231 129.335 122.953C128.364 122.881 127.392 122.778 126.417 122.644C124.72 122.403 122.999 122.095 121.41 121.226C119.822 120.357 118.342 118.856 117.536 116.735C117.044 115.339 116.773 113.812 116.74 112.256C116.573 108.267 117.475 104.025 119.657 101.485C121.371 99.479 123.606 98.699 125.383 96.8382C127.372 94.7471 129.414 92.8789 131.52 90.9995C133.626 89.1201 135.763 87.2222 138.118 86.0262C140.473 84.8302 143.099 84.3808 145.48 85.4393C146.305 85.8108 147.575 86.7059 148.819 90.9698C150.625 97.0648 151.442 104.229 149.57 110.28Z" fill="#2F3653"/>
<path d="M136.529 69.8905C135.683 71.5136 133.105 73.081 133.105 73.081C132.808 71.4765 133.442 70.8822 133.442 70.8822C134.102 70.9639 134.97 68.7094 134.686 68C134.336 67.116 133.85 67.4317 133.527 67.8106C133.193 67.4466 132.917 66.9897 132.716 66.4687C132.514 65.9477 132.392 65.3739 132.357 64.7835C132.315 64.0889 133.171 62.1278 131.53 61.2773C129.888 60.4267 127.576 61.2773 127.576 61.2773C127.576 61.2773 126.979 59.1342 128.902 58.1091C133.217 55.7988 138.346 59.7396 138.059 66.5106C137.982 68.3454 137.895 70.4291 138.802 71.7551C139.298 72.4756 139.998 72.8247 140.658 73.1887C141.52 73.6567 142.395 74.225 143 75.2093C143.605 76.1935 143.862 77.7015 143.382 78.812C143.154 79.3432 142.759 79.852 142.851 80.4574C142.918 80.7291 143.032 80.973 143.183 81.1668C144.174 82.6557 144.811 84.5388 145.005 86.5562C145.096 87.5603 145.031 88.5802 144.815 89.5462C144.599 90.5122 144.237 91.4015 143.753 92.1535C142.427 94.1034 140.305 94.6123 138.404 94.2111C136.866 93.8843 135.344 92.9929 134.299 91.3772C132.707 88.9147 132.508 85.3379 132.066 82.0917C132.039 81.6911 131.924 81.312 131.737 81.0071C131.273 80.398 130.527 80.892 129.894 80.8697C128.798 80.8363 128.064 79.1537 128.037 77.6235C128.011 76.0932 128.454 74.6521 128.676 73.133C128.899 71.6139 128.83 69.8608 128 68.8617C127.69 68.4903 127.303 68.2563 126.968 67.922C125.489 66.4363 125.576 63.0081 126.838 61.1659C128.101 59.3236 130.127 58.8705 131.922 59.3088C133.365 59.6802 136.622 60.7945 137.29 62.6516C137.958 64.5087 137.38 68.2637 136.529 69.8905Z" fill="#FC682D"/>
<path d="M125.548 79.5664L118.592 89.5948L109.357 82.7755C108.217 81.7919 106.896 81.2974 105.557 81.3529C105.419 81.3529 105.234 81.4644 105.265 81.6501C105.297 81.8358 105.451 81.8506 105.475 82.0215C105.499 82.1923 105.35 82.2963 105.228 82.3335L103.022 83.0206C102.698 83.1246 102.306 83.3363 102.287 83.8006C102.297 83.9552 102.332 84.1045 102.389 84.2372C102.447 84.3698 102.525 84.4822 102.619 84.5657C104.075 86.2631 106.117 86.6345 108.005 86.3894C108.188 86.3523 108.374 86.3523 108.557 86.3894C108.736 86.4522 108.908 86.5537 109.066 86.6902C109.779 87.2437 110.47 87.85 111.137 88.5065C112.948 90.2893 114.569 92.4324 116.407 94.1632C116.776 94.5725 117.218 94.8355 117.685 94.9246C118.1 94.9158 118.509 94.7775 118.881 94.5198C121.533 93.0341 124.251 91.4481 126.269 88.6179C126.449 88.3921 126.594 88.1196 126.699 87.8156C126.772 87.508 126.807 87.1852 126.803 86.8611C126.829 85.5017 126.817 84.1398 126.765 82.7755C126.773 82.1545 126.676 81.5397 126.482 80.9815C126.379 80.7058 126.214 80.4853 126.013 80.3543C125.811 80.2234 125.585 80.1892 125.368 80.2572" fill="#FDBAAC"/>
<path d="M121.149 90.1416C120.922 90.3841 120.678 90.5909 120.419 90.7581C119.857 91.0887 119.223 91.0255 118.613 91.0033C117.689 90.9704 116.765 91.0474 115.85 91.2335C115.621 91.2559 115.399 91.3539 115.203 91.5195C115.107 91.6061 115.033 91.7338 114.993 91.8837C114.953 92.0337 114.948 92.1977 114.98 92.3515C115.042 92.5186 115.133 92.6606 115.245 92.7638C115.985 93.5995 116.781 94.4686 117.725 94.6209C118.855 94.8289 119.937 93.9895 120.907 93.1798L122.939 91.5418C123.243 91.3341 123.508 91.0302 123.713 90.6541C123.997 90.0413 124.063 88.329 123.374 88.1508C122.809 87.9948 121.586 89.6847 121.149 90.1416Z" fill="#DEA095"/>
<path d="M126.573 77.0579C126.706 76.9974 126.844 76.9575 126.984 76.939C127.684 76.8462 128.48 77.0876 129.182 77.1322C130.172 77.1916 131.163 77.225 132.155 77.1805C134.046 77.1025 137.149 76.8091 138.841 79.7061C140.939 83.2829 139.13 89.5711 137.666 94.2881C137.136 96.0486 136.855 101.75 137.136 105.917C137.136 105.917 131.248 108.803 126.069 107.299L124.292 97.9614C124.194 97.4786 123.886 96.966 123.735 96.5055C123.325 95.2565 123.026 93.9417 122.844 92.5907C122.632 91.0307 122.314 88.4345 122.791 86.934C122.863 86.7037 123.109 86.5254 123.13 86.284C123.16 85.9497 122.844 85.3926 122.746 85.0917C122.423 84.1186 122.163 83.1067 121.969 82.0684C121.925 81.9092 121.92 81.7346 121.953 81.5707C121.999 81.4415 122.069 81.3314 122.155 81.2512C122.932 80.3784 123.711 79.5056 124.541 78.7181C125.106 78.1722 125.857 77.3625 126.573 77.0579Z" fill="white"/>
<path d="M133.131 70.4492C132.738 72.1986 131.096 75.2777 129.219 74.5683C129.44 75.1278 129.543 75.7634 129.517 76.4016C129.49 77.0398 129.336 77.6545 129.07 78.1748C129.07 78.1748 129.68 80.355 133.802 77.1311C133.802 77.1311 132.688 77.0011 132.99 73.7883C133.081 72.6869 133.359 71.6321 133.802 70.7129C133.751 70.7817 133.688 70.8307 133.62 70.855C133.552 70.8793 133.48 70.878 133.412 70.8513C133.344 70.8246 133.282 70.7734 133.233 70.7029C133.184 70.6323 133.148 70.5449 133.131 70.4492V70.4492Z" fill="#FDBAAC"/>
<path d="M132.942 71.332C132.942 71.332 132.037 76.7139 130.504 76.4873C128.971 76.2608 129.07 72.9848 129.07 72.9848L132.942 71.332Z" fill="#DEA095"/>
<path d="M140.945 81.6564C141.051 80.0053 140.7 78.3605 139.964 77.0619C139.105 75.658 137.787 75.0265 136.559 74.3431C136.029 74.0534 135.477 73.6783 135.257 72.9577C135.111 72.4823 135.143 71.94 135.084 71.4275C135.026 70.9149 134.819 70.3578 134.443 70.2872C134.328 70.2779 134.214 70.3003 134.106 70.3532C133.998 70.4061 133.899 70.4885 133.814 70.5955C133.034 71.4349 132.785 72.9763 132.963 74.332C133.14 75.6877 133.674 76.8874 134.225 78.0239C134.777 79.1605 135.36 80.297 135.673 81.6007C135.909 82.5924 135.978 83.6472 136.151 84.6649C136.532 86.8934 137.872 88.2305 139.444 86.9603C140.529 86.08 140.868 83.2201 140.945 81.6564Z" fill="#FC682D"/>
<path d="M128.89 58.1172C128.89 58.1172 126.392 58.3215 125.649 63.3914C124.907 68.4612 128.516 68.3758 128.516 68.3758L130.71 59.5806L128.89 58.1172Z" fill="#FC682D"/>
<path d="M130.555 74.8317C128.293 75.0954 126.919 72.1389 126.664 68.2761C126.638 67.8527 126.627 67.4218 126.627 66.9798C126.623 65.7204 126.726 64.4648 126.935 63.2396C127.924 57.2969 133.952 59.6851 133.952 59.6851C138.675 62.6528 134.485 74.3748 130.555 74.8317Z" fill="#FDBAAC"/>
<path d="M128.938 59.5496C129.526 62.4132 130.314 66.484 132.311 68.0551C132.539 68.2334 132.961 68.5342 133.234 68.4562C133.507 68.3782 133.499 68.0291 133.748 67.7134C133.826 67.6053 133.925 67.5333 134.033 67.5074C134.141 67.4815 134.252 67.5028 134.35 67.5685C134.432 67.6546 134.497 67.7674 134.54 67.8969C134.583 68.0264 134.602 68.1687 134.597 68.3113C134.598 68.6627 134.534 69.0084 134.411 69.3149C134.288 69.6214 134.111 69.8783 133.897 70.0607C133.699 70.1875 133.51 70.3392 133.332 70.5139C133.133 70.7884 133.014 71.1562 132.998 71.5464C132.964 72.0716 133.037 72.5996 133.21 73.0681C133.383 73.5367 133.648 73.9262 133.974 74.1909C134.014 74.2267 134.061 74.2472 134.109 74.2504C134.167 74.2338 134.219 74.1907 134.257 74.1278L135.151 72.9838C135.577 72.4777 135.96 71.9058 136.294 71.279C136.705 70.4285 136.926 69.4269 136.931 68.4005C136.931 67.9362 136.798 67.4682 136.803 67.0225C136.859 66.4349 136.971 65.8604 137.135 65.314C137.335 64.6044 137.438 63.8483 137.437 63.0855C137.366 61.5998 136.483 60.4187 135.53 59.7427C134.024 58.699 132.284 58.5801 130.603 58.5541C130.268 58.5241 129.932 58.5872 129.614 58.7399C129.325 58.9664 129.205 59.4121 128.938 59.5496Z" fill="#FC682D"/>
<path d="M132.941 95.6304L134.668 100.942C134.668 100.942 138.381 94.4567 139.794 87.4554C141.03 81.2676 138.84 79.7113 138.84 79.7113C137.163 78.8496 136.026 82.1961 134.379 88.956C133.472 92.659 132.941 95.6304 132.941 95.6304Z" fill="#FDBAAC"/>
<path d="M134.669 100.932C134.669 100.932 134.735 96.6119 133.231 95.7539C131.728 94.896 121.188 92.582 121.188 92.582L120.199 94.1791C120.199 94.1791 130.547 102.536 134.669 100.932Z" fill="#FDBAAC"/>
<path d="M117.589 112.342L117.716 112.156C117.204 112.962 116.862 113.542 116.756 113.72C117.016 113.24 117.293 112.78 117.589 112.342Z" fill="#DC9ED5"/>
<path d="M137.763 113.191C137.455 115.705 136.23 117.867 134.737 119.334C133.244 120.801 131.499 121.663 129.751 122.405C128.72 122.847 128.078 124.701 127.147 125.47C126.808 125.703 126.514 126.047 126.29 126.473C125.951 127.241 126.121 128.237 126.29 129.106C127.081 132.951 127.876 136.796 128.677 140.639C129.072 142.548 129.473 144.572 129.096 146.492C128.72 148.412 127.277 150.065 125.932 149.43C123.303 143.487 120.674 137.545 118.045 131.602C118.045 131.602 116.748 124.426 119.469 118.324C120.644 115.694 129.847 104.841 129.847 104.841C132.199 104.362 134.591 104.139 136.864 103.957C137.132 107.055 138.145 110.115 137.763 113.191Z" fill="#68E1FD"/>
<path d="M129.855 104.83C129.855 104.83 120.464 115.534 119.478 118.312C116.722 126.064 118.053 131.591 118.053 131.591C115.755 136.768 113.457 141.946 111.158 147.124C109.567 147.172 107.421 146.566 107.342 144.33C107.351 143.7 107.458 143.081 107.655 142.514C109.387 136.47 111.119 130.428 112.85 124.389C113.876 120.794 114.94 117.124 116.584 114.041L116.73 113.774V113.751L116.751 113.714C116.857 113.536 117.199 112.971 117.711 112.151V112.128C119.204 109.792 122.119 105.61 124.813 103.957C124.813 103.957 127.94 105.164 129.826 104.841L129.855 104.83Z" fill="#68E1FD"/>
<path d="M129.855 104.83C129.855 104.83 120.464 115.534 119.478 118.312C116.722 126.064 118.053 131.591 118.053 131.591C115.755 136.768 113.457 141.946 111.158 147.124C109.567 147.172 107.421 146.566 107.342 144.33C107.351 143.7 107.458 143.081 107.655 142.514C109.387 136.47 111.119 130.428 112.85 124.389C113.876 120.794 114.94 117.124 116.584 114.041L116.73 113.774V113.751L116.751 113.714C116.857 113.536 117.199 112.971 117.711 112.151V112.128C119.204 109.792 122.119 105.61 124.813 103.957C124.813 103.957 127.94 105.164 129.826 104.841L129.855 104.83Z" fill="url(#paint4_linear)"/>
<path d="M125.033 152.828C124.418 153.623 123.599 154.418 123.628 155.592C123.625 155.708 123.648 155.822 123.694 155.919C123.779 156.037 123.895 156.104 124.015 156.104C125.908 156.398 127.669 154.782 129.141 153.085C129.513 152.658 129.9 152.167 129.987 151.506C130.075 150.845 129.826 150.18 129.611 149.571C129.262 148.581 128.977 147.549 128.759 146.488C128.826 146.804 127.874 147.926 127.712 148.123C127.372 148.539 126.871 148.839 126.606 149.345C126.341 149.85 126.285 150.459 126.076 150.96C125.8 151.655 125.448 152.286 125.033 152.828V152.828Z" fill="#EB9D80"/>
<path d="M105.489 147.861C104.824 148.191 104.052 148.369 103.633 149.161C103.551 149.301 103.502 149.474 103.492 149.655C103.492 150.145 103.898 150.397 104.24 150.509C105.606 150.899 107.017 150.624 108.396 150.345C108.612 150.351 108.822 150.241 108.983 150.04C109.144 149.838 109.245 149.559 109.266 149.257L109.809 146.91C109.832 146.841 109.839 146.765 109.828 146.691C109.805 146.619 109.766 146.559 109.717 146.52C109.344 146.154 108.947 145.84 108.531 145.58C107.971 145.209 107.934 145.242 107.56 145.862C107.006 146.77 106.292 147.458 105.489 147.861V147.861Z" fill="#EB9D80"/>
<path d="M120.057 92.287C118.967 92.0456 117.742 91.8488 116.862 92.7736C116.443 93.277 116.101 93.8918 115.854 94.5824C115.681 94.9947 115.506 95.4887 115.647 95.9195C115.787 96.3504 116.132 96.4841 116.443 96.5918C117.448 96.9335 118.53 97.2529 119.492 96.7255C120.203 96.3541 120.779 95.511 121.524 95.2621C121.65 95.2379 121.771 95.1799 121.882 95.0912C121.984 94.9727 122.055 94.8111 122.086 94.6307C122.534 92.5359 121.054 92.4839 120.057 92.287Z" fill="#FDBAAC"/>
<path d="M108.382 152.128C108.344 152.237 108.286 152.329 108.213 152.395C108.103 152.449 107.983 152.449 107.873 152.395C107.258 152.279 106.636 152.249 106.017 152.306C104.747 152.278 103.48 152.117 102.227 151.823C101.681 151.712 101.073 151.552 100.758 150.921C100.717 150.849 100.691 150.763 100.684 150.672C100.687 150.534 100.726 150.402 100.792 150.3C101.342 149.379 102.064 148.69 102.877 148.31C103.178 148.131 103.5 148.033 103.826 148.02C103.99 148.015 104.152 148.061 104.301 148.154C104.451 148.248 104.584 148.385 104.691 148.558C104.916 148.96 104.956 149.535 105.203 149.895C105.449 150.256 105.874 150.3 106.245 150.267C106.676 150.245 107.105 150.177 107.528 150.063C107.849 149.977 108.324 149.669 108.642 149.784C109.388 150.07 108.592 151.604 108.382 152.128Z" fill="#68E1FD"/>
<path d="M130.462 152.864C130.477 153.001 130.464 153.141 130.425 153.269C130.346 153.419 130.233 153.528 130.104 153.577C129.463 154.014 128.856 154.543 128.293 155.155C127.083 156.254 125.817 157.224 124.503 158.056C123.936 158.428 123.286 158.825 122.7 158.509C122.629 158.478 122.566 158.42 122.517 158.342C122.458 158.209 122.436 158.051 122.453 157.896C122.552 156.535 122.919 155.239 123.514 154.153C123.719 153.716 123.981 153.338 124.286 153.038C124.438 152.889 124.612 152.788 124.795 152.743C124.979 152.699 125.167 152.71 125.346 152.778C125.742 152.957 126.033 153.473 126.439 153.588C126.845 153.703 127.261 153.376 127.603 153.027C128.002 152.621 128.378 152.173 128.728 151.686C128.993 151.315 129.298 150.609 129.656 150.431C130.478 150.019 130.433 152.173 130.462 152.864Z" fill="#68E1FD"/>
<path d="M140.465 81.8161C140.726 82.9504 140.904 84.119 140.996 85.3037L141.158 86.9008C141.215 87.2318 141.202 87.579 141.12 87.8999C140.932 88.4608 140.171 88.2305 139.794 88.3159C139.121 88.4682 138.45 88.6168 137.776 88.7616C136.429 89.0513 135.082 89.3287 133.734 89.5936C133.663 88.635 133.68 87.6676 133.785 86.7151C133.909 85.8088 134.188 84.9583 134.347 84.0632C134.477 83.3203 134.525 82.5775 134.66 81.8346C134.945 80.3083 135.594 78.9647 136.501 78.0276C137.919 76.5753 140.001 80.0927 140.436 81.6749L140.465 81.8161Z" fill="white"/>
<path d="M149.571 110.277C147.81 115.964 143.848 119.886 139.602 121.647C136.292 123.017 132.805 123.229 129.336 122.95C129.336 122.62 129.474 122.419 129.763 122.401C133.086 122.167 134.462 116.049 135.459 112.937C136.457 109.824 137.138 105.913 143.628 102.307C149.95 98.8006 149.178 92.2041 149.494 93.5338C150.987 99.7885 151.443 104.227 149.571 110.277Z" fill="#2F3653"/>
<path d="M150.024 110.536C148.264 116.219 144.301 120.141 140.055 121.906C136.746 123.272 132.301 123.506 128.832 123.224C128.832 122.897 129.474 122.418 129.763 122.4C133.086 122.166 134.537 114.901 135.534 111.788C136.531 108.676 137.446 106.848 143.628 102.306C152.865 95.5237 146.182 86.2976 146.065 85.707C148.279 86.7062 149.513 93.0091 149.826 94.3388C151.319 100.594 151.897 104.482 150.024 110.536Z" fill="white"/>
<path opacity="0.23" d="M137.477 120.911C134.668 121.913 131.695 121.951 128.961 123.306C129.828 122.875 131.645 123.544 132.61 123.503C133.937 123.447 135.258 123.252 136.564 122.92C138.874 122.333 141.935 121.434 143.839 119.44C142.598 117.962 138.85 120.42 137.477 120.911Z" fill="#68E1FD"/>
<path d="M139.16 155.607C139.117 155.645 139.07 155.674 139.022 155.693C138.935 155.725 138.845 155.732 138.757 155.711C137.773 155.54 132.943 123.335 132.943 123.335L133.604 122.796C133.651 122.759 133.707 122.718 133.755 122.688C133.923 122.589 134.104 122.538 134.286 122.539C134.469 122.54 134.649 122.592 134.817 122.693C134.985 122.794 135.136 122.942 135.262 123.126C135.388 123.311 135.486 123.53 135.55 123.769V123.806C135.578 123.904 135.598 124.004 135.611 124.107L139.409 153.602C139.409 153.602 139.634 155.154 139.16 155.607Z" fill="#68E1FD"/>
<path d="M139.27 152.956C139.27 152.956 139.23 154.813 139.161 155.608C139.119 155.979 139.079 156.128 139.024 155.693C138.549 151.797 134.605 127.881 133.754 122.696C133.922 122.597 134.103 122.546 134.285 122.547C134.468 122.548 134.648 122.6 134.816 122.701C134.984 122.802 135.135 122.949 135.261 123.134C135.387 123.319 135.485 123.538 135.549 123.777V123.814L139.27 152.956Z" fill="url(#paint5_linear)"/>
<path d="M37.4554 118.254C37.4554 118.254 30.0907 151.585 30.8863 152.402C31.6819 153.219 32.1911 150.998 32.1911 150.998L39.638 120.022L37.4554 118.254Z" fill="#68E1FD"/>
<path d="M53.3145 122.101L53.3834 122.342L61.7904 152.55C61.9175 153.017 62.1095 153.443 62.3552 153.805C62.403 153.886 62.462 153.952 62.5286 153.999C62.5953 154.046 62.6681 154.074 62.7427 154.08C62.8173 154.087 62.892 154.071 62.9622 154.036C63.0324 154 63.0966 153.944 63.1509 153.872C63.92 153.003 56.0222 122.016 56.0222 122.016L53.3145 122.101Z" fill="#68E1FD"/>
<path d="M47.0371 119.883C47.0371 119.883 47.3023 154.774 48.2358 155.209C49.1693 155.643 49.1853 153.311 49.1853 153.311L49.5035 120.626L47.0371 119.883Z" fill="#68E1FD"/>
<path d="M38.7736 118.656C38.7736 118.656 30.7432 150.97 31.5468 151.772C32.3503 152.574 32.1859 150.992 32.1859 150.992L39.6381 120.019L38.7736 118.656Z" fill="url(#paint6_linear)"/>
<path d="M53.3828 122.341L61.7898 152.548C61.917 153.015 62.109 153.442 62.3547 153.804C62.3281 150.342 55.1703 122.285 55.1703 122.285L53.3828 122.341Z" fill="url(#paint7_linear)"/>
<path d="M47.0371 119.883C47.0371 119.883 47.3023 154.774 48.2358 155.209C49.1693 155.643 48.5939 152.579 48.5939 152.579L48.2624 120.265L47.0371 119.883Z" fill="url(#paint8_linear)"/>
<path d="M30.7055 110.28C32.4665 115.966 36.4286 119.889 40.6745 121.649C43.9843 123.02 47.4717 123.231 50.9406 122.953C51.9112 122.881 52.8792 122.777 53.8446 122.641C55.5419 122.403 57.263 122.095 58.8516 121.226C60.4402 120.357 61.92 118.856 62.7262 116.735C63.2185 115.34 63.4899 113.812 63.5219 112.256C63.6889 108.267 62.7872 104.025 60.6046 101.485C58.8914 99.479 56.6557 98.699 54.8789 96.8382C52.8898 94.7471 50.8478 92.8789 48.742 90.9995C46.6363 89.1201 44.4988 87.2222 42.1438 86.0262C39.7888 84.8302 37.1632 84.3808 34.7817 85.4393C33.9569 85.8108 32.6866 86.7059 31.4428 90.9698C29.6527 97.0648 28.8332 104.229 30.7055 110.28Z" fill="#2F3653"/>
<path d="M37.0153 89.576C37.3328 90.5286 37.5798 91.5242 37.7526 92.5473C37.9117 93.7953 38.1849 95.021 38.3413 96.2801C38.6563 98.8049 38.8063 101.365 38.7895 103.928C38.7895 104.942 38.7895 106.086 39.3067 106.788C39.6567 107.259 40.158 107.412 40.6327 107.53C41.5689 107.794 42.4149 108.314 43.351 108.537C44.3713 108.744 45.4021 108.831 46.4327 108.797C49.4719 108.797 55.1261 108.322 54.9378 102.386C54.7564 95.6852 54.335 89.0012 53.6754 82.3592C53.4473 80.1084 53.4102 77.5122 52.9143 75.3468C52.5059 73.5232 50.9889 73.5083 49.7318 73.694L49.4932 73.7312C49.2492 73.7646 49.0052 73.8092 48.7691 73.85C47.0955 74.0939 45.4113 74.1634 43.7303 74.058C41.8394 73.9763 38.8107 73.7126 36.9517 76.2085C36.8224 76.3796 36.7011 76.562 36.5883 76.7545C34.7399 79.9153 35.7317 85.0446 37.0153 89.576Z" fill="white"/>
<path opacity="0.43" d="M44.0649 88.9197C44.2267 91.891 43.6247 95.0592 44.7386 97.544C44.7896 97.6837 44.8702 97.7978 44.9693 97.8709C45.1292 97.9148 45.2949 97.8889 45.444 97.7966C45.6156 97.7486 45.7925 97.7521 45.9631 97.8071C46.1337 97.862 46.2939 97.967 46.4333 98.1152C46.5727 98.2634 46.6881 98.4513 46.7717 98.6666C46.8554 98.8819 46.9054 99.1196 46.9185 99.364C47.1828 99.085 47.4015 98.7304 47.5602 98.3237C47.7189 97.917 47.8139 97.4676 47.8388 97.0055C47.8627 96.4892 47.8388 95.8615 48.1464 95.5792C48.5442 95.2078 49.0587 95.8652 49.1436 96.5189C49.2285 97.1726 49.0959 97.8635 49.2285 98.5023C49.3982 99.338 49.9949 99.884 50.5996 100.062C51.215 100.189 51.8405 100.189 52.456 100.062C52.9028 99.9686 53.3592 100.036 53.782 100.259C54.1904 100.53 54.506 101.18 54.3814 101.789C54.2329 102.514 53.607 102.766 53.0766 102.904L45.7941 104.805L42.0467 105.786C41.2273 105.998 39.7792 107.012 39.7527 105.314C39.7143 102.775 39.4306 100.255 38.9094 97.8226C38.6999 96.842 38.676 95.8392 38.4718 94.8884C38.2225 93.7333 37.7637 92.6264 37.4826 91.4713C36.9161 89.149 36.5345 86.7462 36.3449 84.3066C36.2123 82.5907 36.2971 80.5218 37.3473 79.6267C38.1058 78.9842 39.1268 79.2553 39.8402 79.9981C40.7101 80.9007 41.1106 82.3195 41.9141 83.2704C42.8477 84.3846 43.5743 85.64 43.8873 87.3374C43.9789 87.8567 44.0384 88.3861 44.0649 88.9197V88.9197Z" fill="#D9DBE2"/>
<path d="M47.7764 78.3271C47.7163 78.439 47.6706 78.5647 47.6412 78.6985C47.6351 78.8447 47.6562 78.9905 47.7022 79.1219C48.7259 82.7173 49.3677 86.4984 50.0041 90.2646C50.5664 93.5776 51.1313 96.9167 51.248 100.319C51.2654 100.568 51.252 100.819 51.2082 101.062C51.0225 101.901 50.2402 102.176 49.8981 102.9L48.7603 101.08C48.6859 100.973 48.6265 100.847 48.5853 100.709C48.5508 100.516 48.5508 100.315 48.5853 100.122C48.9698 96.4858 48.5429 92.7754 47.9355 89.1949C47.4051 86.1195 46.7501 83.0404 46.7899 79.8796C46.7899 79.5082 46.7899 79.0551 46.5857 78.8062C46.4698 78.6964 46.3429 78.6112 46.2091 78.5537C46.0572 78.4495 45.9217 78.304 45.8104 78.1256C45.6992 77.9472 45.6144 77.7396 45.5611 77.5148C45.5077 77.2901 45.4869 77.0527 45.4998 76.8165C45.5127 76.5804 45.5591 76.3502 45.6362 76.1394C45.8777 76.1335 46.1148 76.0482 46.3284 75.8906C46.5446 75.7333 46.7933 75.6873 47.0312 75.7606C47.5563 76.0132 48.0761 77.6363 47.7764 78.3271Z" fill="#68E1FD"/>
<path d="M36.9531 76.2142C38.8096 73.7183 41.8408 73.9857 43.7317 74.0637C45.4127 74.1691 47.097 74.0996 48.7706 73.8557C49.0066 73.8148 49.2506 73.7703 49.4946 73.7368C48.4948 73.1648 47.076 73.5474 46.0098 73.5957C44.3939 73.67 42.7788 73.8074 41.1646 74.008C39.637 74.2048 37.945 74.5725 36.9531 76.2142Z" fill="white"/>
<path d="M42.6887 66.8789C43.113 68.736 44.8262 70.5263 46.8312 69.7537C46.8312 69.7537 46.0356 73.0965 47.0301 75.1356C47.0301 75.1356 46.3803 77.4644 41.9727 74.0213C41.9727 74.0213 43.1634 73.8839 42.8399 70.4594C42.7444 69.2818 42.4468 68.154 41.9727 67.1723C42.0272 67.246 42.0946 67.2981 42.1682 67.3234C42.2418 67.3488 42.3188 67.3464 42.3915 67.3166C42.4642 67.2868 42.53 67.2307 42.5822 67.1538C42.6344 67.0769 42.6711 66.9821 42.6887 66.8789V66.8789Z" fill="#D5846C"/>
<path d="M44.8493 71.197C47.1725 72.1553 49.0661 69.4736 49.928 65.5069C50.0208 65.076 50.1004 64.6229 50.1667 64.1623C50.3666 62.8456 50.4556 61.5005 50.4319 60.1547C50.2966 53.6586 43.6161 54.3197 43.6161 54.3197C38.2219 56.0022 40.805 69.5331 44.8493 71.197Z" fill="#EB9D80"/>
<path d="M59.2981 111.638L59.1602 111.438C59.7065 112.299 60.0751 112.923 60.1865 113.109C59.9107 112.604 59.611 112.11 59.2981 111.638Z" fill="#DC9ED5"/>
<path d="M39.4015 54.7745C39.8037 53.5994 40.4748 52.6463 41.3083 52.0668C42.0721 51.5023 43.1859 51.6137 43.8118 50.7334C44.1486 50.2617 44.2149 49.5449 44.4085 48.9358C44.607 48.3229 44.9395 47.8143 45.3579 47.4835C45.6308 47.266 45.9356 47.139 46.249 47.1121C47.217 47.0489 48.0895 48.0964 48.4635 49.3406C48.7287 48.7278 49.2777 48.4901 49.7895 48.5049C50.967 48.5383 52.0464 49.7046 52.5317 51.2089C52.731 51.797 52.8221 52.4456 52.7969 53.0957C52.7702 53.7511 52.5675 54.3681 52.2294 54.8228C52.1583 54.9272 52.0655 54.9974 51.9642 55.0233C51.9149 55.0353 51.8642 55.0224 51.821 54.9871C51.7778 54.9518 51.7449 54.8962 51.7281 54.8302C51.394 55.8161 50.9783 56.7435 50.4896 57.5936C50.3251 57.9103 50.1074 58.1655 49.8558 58.3364C49.6056 58.4614 49.335 58.4833 49.0761 58.3996C48.7208 58.3073 48.3809 58.1234 48.0736 57.8573C48.0193 57.7953 47.9497 57.7659 47.88 57.7756C47.8111 57.8016 47.774 57.8981 47.7395 57.9873C47.6443 58.2483 47.5115 58.4788 47.3495 58.6642C47.1874 58.8496 46.9996 58.9859 46.798 59.0644C46.4447 59.1312 46.0859 59.1124 45.7372 59.0087C45.259 58.9251 44.7753 58.9251 44.2971 59.0087C44.0049 59.0438 43.7221 59.1708 43.4697 59.3801C43.3165 59.541 43.1922 59.7496 43.1066 59.9894C43.021 60.2292 42.9764 60.4937 42.9764 60.7618C42.9764 60.9735 43.1249 62.7192 42.9419 62.76C42.6476 62.8306 42.5892 62.1472 42.332 61.9355C42.0747 61.7238 41.8254 61.9986 41.6928 62.3069C41.584 62.574 41.5371 62.8817 41.5585 63.1877C41.5798 63.4938 41.6685 63.783 41.8122 64.0154C41.9012 64.1217 41.9704 64.2569 42.0137 64.4091C42.0289 64.563 42.0104 64.7197 41.9607 64.8585L41.5072 66.4557C40.8998 64.4462 40.1714 62.5128 39.3299 60.6764C38.9718 59.9335 38.5555 59.1053 38.7146 58.2473C38.8737 57.3893 39.5367 56.7616 39.3988 55.9259C39.3723 55.7662 39.3166 55.6176 39.3007 55.4542C39.2881 55.2189 39.3231 54.9834 39.4015 54.7745Z" fill="#FC682D"/>
<path d="M43.2305 104.079C43.2305 104.079 46.0602 113.97 48.3303 115.006C50.6005 116.042 64.6934 122 64.6934 122L70.6844 150.429L72.2332 149.099C72.8193 148.594 74.2195 147.866 74.5749 147.045C75.047 145.964 74.3362 143.126 74.201 141.897L73.5883 136.326C72.7644 128.793 71.9379 121.26 71.1087 113.725C71.1091 113.352 71.0273 112.988 70.8745 112.683C70.7216 112.378 70.5052 112.146 70.2547 112.02C67.4824 109.941 64.6347 108.065 61.7231 106.4C60.2963 105.583 58.8563 104.826 57.4056 104.105C57.1192 103.964 54.9949 102.337 54.9366 102.4C54.918 102.411 53.4116 103.997 43.2305 104.079Z" fill="#2F3653"/>
<path d="M69.0033 151.474C68.3509 149.453 68.2952 147.176 68.1042 144.977C67.9637 143.321 67.7383 141.683 67.5128 140.045L64.4312 117.507C64.4187 117.028 64.2999 116.565 64.0913 116.185C63.8826 115.804 63.5945 115.524 63.2669 115.383C58.3182 111.999 53.4544 108.448 48.5481 104.931C48.5481 104.931 43.244 102.234 39.3057 106.001C39.3057 106.001 38.7753 115.022 41.0455 116.059C46.0614 118.349 51.117 120.441 56.2125 122.336C56.4519 122.404 56.678 122.543 56.8755 122.744C57.0983 123.056 57.2529 123.45 57.321 123.881C59.1775 131.796 61.0339 139.714 62.7286 147.693C62.9301 148.634 63.129 149.573 63.3253 150.512C63.4764 151.228 63.5905 153.112 63.9644 153.609C64.4603 154.311 65.1154 153.609 65.7784 153.238L69.3958 151.195L57.695 111.498L55.9924 110.272" fill="#4C516C"/>
<path d="M77.1545 147.654C77.754 147.674 78.3515 147.757 78.942 147.903C79.494 147.988 80.0183 148.287 80.4563 148.765C80.7044 149.069 80.8702 149.483 80.9257 149.938C80.95 150.165 80.9377 150.397 80.8895 150.616C80.8413 150.835 80.7585 151.037 80.6472 151.205C80.434 151.462 80.1833 151.651 79.9126 151.758C79.2814 152.07 78.6494 152.379 78.0164 152.683C76.6612 153.337 75.2848 153.998 73.8527 154.106C73.7678 154.122 73.6814 154.109 73.6008 154.069C73.5389 154.025 73.4832 153.966 73.4364 153.894C72.5771 152.717 71.7656 151.335 71.5587 149.675C71.5481 149.619 71.5481 149.56 71.5587 149.504C71.5817 149.442 71.6166 149.391 71.6595 149.355C72.5241 148.536 73.4742 147.91 74.4759 147.498C75.3829 147.13 76.2369 147.628 77.1545 147.654Z" fill="#2F3653"/>
<path d="M70.2967 151.463C70.8961 151.483 71.4936 151.566 72.0841 151.712C72.6362 151.797 73.1604 152.096 73.5985 152.574C73.8466 152.878 74.0123 153.292 74.0679 153.748C74.0922 153.974 74.0798 154.206 74.0316 154.425C73.9834 154.644 73.9006 154.846 73.7894 155.014C73.5762 155.271 73.3255 155.46 73.0548 155.568C72.4236 155.88 71.7915 156.188 71.1586 156.492C69.8034 157.146 68.427 157.807 66.9949 157.915C66.9057 157.934 66.8144 157.922 66.7297 157.878C66.6678 157.834 66.6121 157.775 66.5653 157.703C65.706 156.526 64.8945 155.144 64.6876 153.484C64.677 153.428 64.677 153.369 64.6876 153.313C64.7106 153.251 64.7455 153.2 64.7884 153.164C65.653 152.345 66.6031 151.719 67.6049 151.307C68.5251 150.94 69.3658 151.434 70.2967 151.463Z" fill="#2F3653"/>
<path d="M30.7062 110.277C32.4671 115.964 36.4293 119.886 40.6752 121.647C43.9849 123.017 47.4724 123.229 50.9412 122.95C50.9412 122.62 50.8033 122.419 50.5142 122.401C47.1912 122.167 45.8148 116.049 44.8177 112.937C43.8205 109.824 43.1389 105.913 36.6494 102.307C30.3269 98.8006 31.0987 92.2041 30.7831 93.5338C29.2953 99.7885 28.8338 104.227 30.7062 110.277Z" fill="#2F3653"/>
<path d="M30.2514 110.537C32.0123 116.22 35.9745 120.142 40.2204 121.906C43.5301 123.273 47.975 123.507 51.4438 123.225C51.4438 122.898 50.802 122.419 50.513 122.4C47.19 122.166 45.7393 114.901 44.7421 111.789C43.745 108.676 42.8194 106.849 36.6481 102.314C27.4111 95.5315 34.0942 86.3054 34.2109 85.7148C31.9964 86.714 30.7632 93.017 30.4503 94.3466C28.9572 100.594 28.379 104.483 30.2514 110.537Z" fill="white"/>
<path opacity="0.23" d="M42.7997 120.911C45.6083 121.913 48.5812 121.951 51.3154 123.306C50.4482 122.875 48.6316 123.544 47.6662 123.503C46.3405 123.447 45.0197 123.252 43.7147 122.92C41.4021 122.333 38.3443 121.434 36.4375 119.44C37.6787 117.962 41.426 120.42 42.7997 120.911Z" fill="#68E1FD"/>
<path d="M41.1147 155.607C41.1575 155.645 41.204 155.674 41.2526 155.693C41.3391 155.725 41.4295 155.732 41.5178 155.711C42.5017 155.541 47.3311 123.335 47.3311 123.335L46.6707 122.796C46.623 122.759 46.5673 122.718 46.5196 122.688C46.3514 122.589 46.1707 122.538 45.9882 122.539C45.8057 122.54 45.6252 122.592 45.4575 122.693C45.2898 122.794 45.1384 122.942 45.0124 123.126C44.8864 123.311 44.7883 123.53 44.7241 123.769V123.806C44.6946 123.903 44.6732 124.004 44.6605 124.107L40.8628 153.602C40.8628 153.602 40.64 155.154 41.1147 155.607Z" fill="#68E1FD"/>
<path d="M41.0059 152.956C41.0059 152.956 41.0456 154.813 41.1146 155.608C41.157 155.979 41.1968 156.128 41.2525 155.693C41.7272 151.797 45.6708 127.881 46.5221 122.696C46.354 122.597 46.1732 122.546 45.9907 122.547C45.8082 122.548 45.6277 122.6 45.46 122.701C45.2924 122.802 45.141 122.949 45.015 123.134C44.8889 123.319 44.7909 123.538 44.7267 123.777V123.814L41.0059 152.956Z" fill="url(#paint9_linear)"/>
<path d="M46.4109 107.645C46.3524 108.131 46.1696 108.571 45.8964 108.882C45.6022 109.222 45.2491 109.448 44.8727 109.536C44.154 109.695 43.4194 109.417 42.7246 109.112C40.4993 108.146 38.3357 106.921 36.2563 105.45C35.572 104.967 34.8692 104.425 34.4582 103.519C34.0047 102.501 33.9994 101.22 34.0232 100.024C34.126 95.0146 34.4351 90.0181 34.9488 85.059C35.1716 82.8639 35.153 79.4654 36.0918 77.3706C36.3217 76.8205 36.6478 76.3613 37.0394 76.0364C37.431 75.7115 37.8752 75.5316 38.3301 75.5135C39.8206 75.3873 41.0538 77.3706 41.3269 79.4209C41.6001 81.4711 41.1758 83.5734 40.7965 85.5939C40.2661 88.5058 39.8047 91.4586 39.4705 94.43C39.314 95.7522 39.1921 97.1859 39.6456 98.3707C39.8599 98.8822 40.1281 99.3455 40.4412 99.745C41.7024 101.465 43.0921 102.991 44.5863 104.295C45.4906 105.093 46.5674 106.171 46.4109 107.645Z" fill="white"/>
<path d="M67.4212 90.2902C67.3484 90.8122 67.1948 91.3056 66.9712 91.7355C66.7476 92.1655 66.4595 92.5216 66.127 92.7787C65.4616 93.2864 64.7469 93.6556 64.0054 93.8744L60.9609 94.9887C59.3696 95.5755 57.4522 96.0398 56.272 94.4315C56.0616 94.1605 55.9029 93.8201 55.8102 93.4413C55.7176 93.0625 55.694 92.6573 55.7416 92.2624C55.7747 92.0622 55.837 91.8738 55.9246 91.709C56.1489 91.3632 56.4192 91.0819 56.7202 90.8808C57.5981 90.1523 58.3621 89.1834 58.9665 88.032C57.1631 87.0886 55.2855 86.1266 53.7765 84.4886C53.4955 84.1931 53.2297 83.8704 52.9809 83.5229C51.8712 81.9582 51.1181 79.9676 50.8168 77.8031C50.6842 76.8968 50.4588 75.3814 50.6948 74.4826C51.0157 73.2532 51.6204 73.8214 52.4796 74.1669C55.7655 75.4891 58.8047 77.8476 61.5204 80.7187C63.0859 82.3958 64.5666 84.2226 65.952 86.186C66.7503 87.304 67.5777 88.7117 67.4212 90.2902Z" fill="white"/>
<path opacity="0.38" d="M60.1826 89.4371C59.1217 90.466 58.0291 91.4577 56.9258 92.4085C56.6049 92.6871 56.1594 92.9582 55.8862 92.5868C55.8106 92.4889 55.7611 92.3579 55.7457 92.2154C55.7787 92.0151 55.841 91.8267 55.9287 91.6619C56.153 91.3162 56.4232 91.0348 56.7243 90.8337C57.6022 90.1052 58.3661 89.1363 58.9706 87.9849C57.1619 87.086 55.2842 86.1241 53.7752 84.4861C53.7752 84.3858 53.7752 84.2855 53.7752 84.1741C53.7752 83.8027 53.7195 81.0987 53.5684 80.9688L60.347 86.8446C60.6104 87.0183 60.8223 87.3151 60.9463 87.684C61.1187 88.3712 60.6254 89.0137 60.1826 89.4371Z" fill="#D9DBE2"/>
<path d="M53.6133 94.9667C53.4191 95.662 53.3158 96.4005 53.3083 97.147C53.2312 98.1617 53.3474 99.1869 53.6451 100.118C53.9793 101.021 54.6715 101.723 55.3928 101.604C55.6395 101.553 55.8751 101.427 56.0832 101.234C56.2912 101.042 56.4665 100.787 56.5969 100.49C56.8559 99.8901 56.9942 99.2035 56.9973 98.5027C57.3288 98.3838 57.5118 97.8861 57.594 97.4181C57.638 96.942 57.7441 96.4812 57.907 96.0587C58.1085 95.6613 58.4559 95.4384 58.6257 95.0113C58.6956 94.8092 58.7294 94.5863 58.7243 94.3619C58.7192 94.1374 58.6754 93.918 58.5965 93.7225C58.1616 92.5451 56.8011 91.5274 55.91 92.0734C55.0189 92.6194 54.027 93.6408 53.6133 94.9667Z" fill="#EB9D80"/>
<path d="M45.0636 108.758C45.6232 109.925 46.806 110.081 47.7979 109.873C48.81 109.668 49.7885 109.215 50.6886 108.536C50.9277 108.396 51.1233 108.142 51.2402 107.819C51.2906 107.591 51.2906 107.348 51.2402 107.12C51.1586 106.741 51.0224 106.389 50.8399 106.086C50.6575 105.784 50.4327 105.536 50.1794 105.36C49.6712 105.011 49.1314 104.761 48.5749 104.617C47.6759 104.331 46.7185 104.045 45.8513 104.469C44.9841 104.892 44.8223 104.84 44.7268 106.058C44.6764 106.942 44.7003 108.012 45.0636 108.758Z" fill="#EB9D80"/>
<path d="M42.346 72.4688L44.1468 73.7761C44.7817 74.1899 45.3769 74.714 45.9183 75.3361C45.5901 76.3575 45.3764 77.4437 45.2845 78.5563C44.8108 77.7297 44.2605 76.9953 43.6482 76.3724C43.078 75.845 42.415 75.5181 41.8819 74.9127C41.2534 74.1996 42.0251 73.1967 42.346 72.4688Z" fill="white"/>
<path d="M47.9931 74.9482L48.8338 76.5155C48.891 76.6054 48.9311 76.714 48.9505 76.8313C48.3031 76.4062 47.6208 76.0944 46.919 75.9027C46.8805 75.9008 46.8428 75.8872 46.8084 75.8628C46.7741 75.8385 46.744 75.8039 46.7201 75.7616C46.6953 75.6832 46.6906 75.5953 46.7068 75.5127C46.7594 74.9239 46.6884 74.3263 46.5026 73.793C46.4263 73.6266 46.3766 73.4391 46.3568 73.2433C46.3223 72.3742 46.9827 73.2879 47.1365 73.4996C47.447 73.9524 47.7333 74.4365 47.9931 74.9482V74.9482Z" fill="white"/>
<path opacity="0.41" d="M101.822 75.9018V79.2446C101.822 79.9458 101.724 80.6402 101.533 81.2882C101.341 81.9362 101.061 82.525 100.707 83.021C100.353 83.517 99.9325 83.9105 99.47 84.1789C99.0074 84.4474 98.5116 84.5856 98.011 84.5856H65.7144C64.7039 84.5807 63.7361 84.0142 63.0236 83.0107C62.311 82.0072 61.912 80.6486 61.9141 79.2334V75.8906L101.822 75.9018Z" fill="#68E1FD"/>
<path opacity="0.43" d="M45.8964 108.882C45.6022 109.223 45.2491 109.448 44.8727 109.536C44.154 109.696 43.4194 109.417 42.7246 109.113C40.4993 108.147 38.3357 106.922 36.2563 105.45C35.572 104.968 34.8692 104.425 34.4582 103.519C34.0047 102.501 33.9994 101.22 34.0232 100.024C34.126 95.0151 34.4351 90.0186 34.9488 85.0595C35.1716 82.8644 35.153 79.4659 36.0918 77.3711C36.3683 77.4829 36.6393 77.6194 36.9033 77.7797C37.2634 77.9489 37.5725 78.2824 37.7812 78.7268C38.0092 79.3136 37.9138 80.0416 37.805 80.7027C36.8166 87.013 36.1352 93.4099 35.7656 99.8494C35.7164 100.15 35.734 100.464 35.816 100.751C35.898 101.037 36.0405 101.281 36.2244 101.45C37.1276 102.593 38.0913 103.639 39.1072 104.578C40.6984 106.063 42.6291 107.764 44.5227 108.255C45.061 108.4 45.5013 108.407 45.8964 108.882Z" fill="#D9DBE2"/>
<path d="M129.931 22.3477H99.6319C96.2529 22.3477 93.5137 26.184 93.5137 30.9163V34.4968C93.5137 39.2292 96.2529 43.0655 99.6319 43.0655H129.931C133.31 43.0655 136.05 39.2292 136.05 34.4968V30.9163C136.05 26.184 133.31 22.3477 129.931 22.3477Z" fill="white"/>
<path d="M119.432 49.9065L115.598 42.2812H119.432V49.9065Z" fill="white"/>
</g>
<defs>
<linearGradient id="paint0_linear" x1="81.1043" y1="73.4892" x2="80.7714" y2="106.18" gradientUnits="userSpaceOnUse">
<stop offset="0.01"/>
<stop offset="0.08" stop-opacity="0.69"/>
<stop offset="0.21" stop-opacity="0.32"/>
<stop offset="1" stop-opacity="0"/>
</linearGradient>
<linearGradient id="paint1_linear" x1="4509.38" y1="13785.9" x2="4759.11" y2="13785.9" gradientUnits="userSpaceOnUse">
<stop offset="0.01"/>
<stop offset="0.08" stop-opacity="0.69"/>
<stop offset="0.21" stop-opacity="0.32"/>
<stop offset="1" stop-opacity="0"/>
</linearGradient>
<linearGradient id="paint2_linear" x1="4316.21" y1="11591" x2="4369.36" y2="16690.2" gradientUnits="userSpaceOnUse">
<stop offset="0.01"/>
<stop offset="0.08" stop-opacity="0.69"/>
<stop offset="0.21" stop-opacity="0.32"/>
<stop offset="1" stop-opacity="0"/>
</linearGradient>
<linearGradient id="paint3_linear" x1="1065.6" y1="14629.6" x2="841.401" y2="14631.6" gradientUnits="userSpaceOnUse">
<stop offset="0.01"/>
<stop offset="0.08" stop-opacity="0.69"/>
<stop offset="0.21" stop-opacity="0.32"/>
<stop offset="1" stop-opacity="0"/>
</linearGradient>
<linearGradient id="paint4_linear" x1="-85547.6" y1="16864.4" x2="-92749.1" y2="16697.9" gradientUnits="userSpaceOnUse">
<stop offset="0.01"/>
<stop offset="0.08" stop-opacity="0.69"/>
<stop offset="0.21" stop-opacity="0.32"/>
<stop offset="1" stop-opacity="0"/>
</linearGradient>
<linearGradient id="paint5_linear" x1="3205.41" y1="13453.6" x2="2579.55" y2="13516" gradientUnits="userSpaceOnUse">
<stop offset="0.01"/>
<stop offset="0.08" stop-opacity="0.69"/>
<stop offset="0.21" stop-opacity="0.32"/>
<stop offset="1" stop-opacity="0"/>
</linearGradient>
<linearGradient id="paint6_linear" x1="-31079.7" y1="13785.9" x2="-31329.8" y2="13785.9" gradientUnits="userSpaceOnUse">
<stop offset="0.01"/>
<stop offset="0.08" stop-opacity="0.69"/>
<stop offset="0.21" stop-opacity="0.32"/>
<stop offset="1" stop-opacity="0"/>
</linearGradient>
<linearGradient id="paint7_linear" x1="-33732.4" y1="11591" x2="-33785.6" y2="16690.2" gradientUnits="userSpaceOnUse">
<stop offset="0.01"/>
<stop offset="0.08" stop-opacity="0.69"/>
<stop offset="0.21" stop-opacity="0.32"/>
<stop offset="1" stop-opacity="0"/>
</linearGradient>
<linearGradient id="paint8_linear" x1="-5796.47" y1="14629.6" x2="-5572.76" y2="14631.6" gradientUnits="userSpaceOnUse">
<stop offset="0.01"/>
<stop offset="0.08" stop-opacity="0.69"/>
<stop offset="0.21" stop-opacity="0.32"/>
<stop offset="1" stop-opacity="0"/>
</linearGradient>
<linearGradient id="paint9_linear" x1="-20821.2" y1="13453.6" x2="-20195.3" y2="13516" gradientUnits="userSpaceOnUse">
<stop offset="0.01"/>
<stop offset="0.08" stop-opacity="0.69"/>
<stop offset="0.21" stop-opacity="0.32"/>
<stop offset="1" stop-opacity="0"/>
</linearGradient>
<clipPath id="clip0">
<rect width="180" height="190" fill="white"/>
</clipPath>
</defs>
</svg>
