<svg width="1421" height="1421" viewBox="0 0 1007 1421" fill="none" xmlns="http://www.w3.org/2000/svg">
<path d="M91.6416 1306.81L0 279.297H1007L915.258 1306.65L502.882 1420.93L91.6416 1306.81Z" fill="#E44D26"/>
<path d="M503.5 1333.58L836.716 1241.23L915.12 363.314H503.5V1333.58Z" fill="#F16529"/>
<path d="M503.5 744.404H336.686L325.163 615.358H503.5V489.336H187.385L190.406 523.145L221.389 870.421H503.5V744.404ZM503.5 1071.69L502.947 1071.84L362.548 1033.94L353.572 933.437H227.024L244.688 1131.31L502.924 1202.97L503.5 1202.81V1071.69Z" fill="#EBEBEB"/>
<path d="M93.6914 0.0654297H157.755V63.3371H216.358V0.0654297H280.424V191.67H216.358V127.51H157.755V191.67H93.696L93.6914 0.0654297ZM364.675 63.6071H308.279V0.0654297H485.174V63.6071H428.75V191.67H364.677V63.6071H364.675ZM513.244 0.0654297H580.05L621.142 67.3911L662.196 0.0654297H729.024V191.67H665.212V96.6979L621.135 164.824H620.034L575.928 96.6979V191.67H513.242V0.0654297H513.244ZM760.902 0.0654297H824.984V128.338H915.083V191.67H760.902V0.0654297Z" fill="black"/>
<path d="M503.066 744.404V870.421H658.305L643.669 1033.86L503.066 1071.79V1202.9L761.508 1131.31L763.399 1110.01L793.027 778.245L796.103 744.404H762.135H503.066ZM503.066 489.336V615.358H807.576L810.101 587.03L815.845 523.145L818.862 489.336H503.066Z" fill="white"/>
</svg>
