<svg width="1421" height="1421" viewBox="0 0 1421 1421" fill="none" xmlns="http://www.w3.org/2000/svg">
<path fill-rule="evenodd" clip-rule="evenodd" d="M0 0H1421V1421H0V0Z" fill="white"/>
<path fill-rule="evenodd" clip-rule="evenodd" d="M62.6914 945.292H105.781V775.566L172.225 923.581C180.113 941.333 190.647 947.584 211.695 947.584C232.749 947.584 243.276 941.333 251.164 923.581L317.608 775.566V945.292H360.366V775.89C360.366 759.451 353.783 751.54 340.299 747.265C307.737 737.069 285.695 745.952 275.831 767.995L210.707 913.71L147.558 767.995C138.019 745.952 115.652 737.069 83.0898 747.265C69.2746 751.54 62.6988 759.443 62.6988 775.89V945.292H62.6914ZM396.216 807.133H438.974V900.551C438.649 905.807 440.618 917.654 464.304 917.986C476.143 918.303 556.727 917.986 557.383 917.986V806.801H600.472C600.797 806.801 600.472 958.429 600.472 959.092C600.797 996.586 554.095 1004.47 532.716 1005.14H397.204V976.195C397.204 976.195 532.392 976.527 532.716 976.195C560.347 973.563 557.059 959.756 557.059 955.148V943.957H465.948C423.515 943.309 396.54 924.879 396.216 903.5C396.216 901.531 397.204 808.128 396.216 807.133ZM1320.15 699.575C1293.85 698.919 1273.77 701.219 1256.34 708.783C1251.41 710.758 1243.84 710.759 1242.86 717.01C1245.49 719.627 1246.14 723.91 1248.12 727.537C1252.39 734.12 1259.31 742.989 1265.55 747.596C1272.14 752.867 1279.04 758.124 1286.28 762.731C1299.44 770.619 1313.91 774.895 1326.07 782.805C1333.64 787.398 1340.87 793.332 1348.11 798.589C1351.39 801.22 1354.03 805.172 1358.31 806.808V806.16C1356.01 803.196 1355.34 798.92 1353.37 795.618L1343.51 785.754C1333.97 773.258 1321.79 762.068 1308.96 752.867C1298.76 745.628 1275.74 735.433 1271.47 723.593C1271.13 723.261 1270.8 723.261 1270.8 722.93C1278.04 721.934 1286.6 719.317 1293.18 717.659C1304.37 714.71 1314.56 715.359 1326.06 712.402C1331.33 710.751 1336.59 709.439 1341.86 707.795V704.831C1335.94 698.912 1332 690.692 1325.42 685.428C1308.65 670.957 1290.22 656.81 1271.47 644.971C1260.95 638.063 1248.12 633.787 1236.94 628.199C1233.32 626.555 1226.73 625.568 1224.12 622.28C1218.18 615.04 1215.23 605.501 1210.62 596.949C1200.97 578.189 1191.98 559.099 1183.66 539.713C1178.07 526.886 1174.11 514.058 1167.22 502.212C1133 446.295 1096.49 412.42 1039.59 379.195C1027.43 372.287 1012.96 369.331 997.492 365.711C989.272 365.048 981.053 364.723 972.826 364.06C967.886 362.084 962.63 355.84 957.691 352.877C938.944 341.037 890.591 315.051 876.768 349.257C867.885 370.636 889.927 391.69 897.815 402.549C903.418 410.113 910.311 418.672 914.27 427.216C916.887 432.804 917.218 438.399 919.526 444.319C925.114 459.122 929.721 475.237 936.629 488.721C940.241 495.628 944.185 502.868 948.793 509.119C951.425 512.739 956.364 514.383 957.013 520.303C952.405 526.878 952.088 536.749 949.456 544.969C937.941 582.139 942.217 627.86 959.32 655.483C964.591 663.703 976.755 681.794 993.865 674.894C1008.67 668.642 1005.37 650.22 1009.65 633.448C1010.64 629.829 1009.98 627.197 1011.95 624.565V625.221C1016.22 634.429 1020.83 643.312 1025.44 652.188C1035.3 668.31 1053.07 685.413 1068.2 696.589C1075.76 702.509 1082.01 712.712 1092.21 715.993V715.329H1091.23C1089.25 712.38 1086.29 711.061 1083.99 708.753C1078.07 702.834 1071.49 695.594 1066.55 689.018C1053.08 670.596 1040.91 650.205 1029.72 629.15C1024.45 618.955 1019.84 607.771 1015.58 597.576C1013.92 593.632 1013.92 587.712 1010.31 585.405C1005.37 592.968 998.48 599.22 994.514 608.103C988.594 622.25 987.614 639.678 985.646 657.444C984.319 658.1 984.65 657.768 983.987 658.432C973.474 655.8 969.847 644.941 965.903 635.733C956.371 612.379 954.388 574.885 962.94 547.911C965.24 541.003 975.45 519.293 971.174 512.717C969.184 506.465 962.94 502.521 959.327 497.589C954.72 491.67 950.444 483.774 947.164 476.867C939.276 458.444 935.648 438.053 927.09 419.638C922.814 410.754 916.245 401.871 910.65 394.307C904.398 385.424 897.491 379.18 892.566 368.653C890.922 365.033 888.622 359.113 890.922 355.162C891.903 352.53 892.898 351.542 895.515 350.554C899.791 347.267 911.97 351.874 916.562 353.511C928.409 358.774 938.605 363.382 948.8 370.289C953.739 373.577 958.679 379.821 964.598 381.473H971.182C981.709 383.773 993.541 382.129 1003.4 385.092C1020.84 390.349 1036.62 398.576 1050.78 407.791C1094.19 435.089 1129.39 473.903 1153.73 520.28C1157.67 527.844 1159.32 534.752 1162.61 542.647C1169.53 558.77 1178.39 575.209 1185.3 590.668C1191.88 606.459 1198.79 622.25 1208.32 635.07C1213.6 641.978 1233.32 645.597 1242.21 649.21C1248.46 651.841 1258.65 654.798 1264.58 658.425C1276.09 665 1286.94 673.228 1297.8 680.791C1303.05 684.448 1319.49 692.668 1320.15 699.575Z" fill="#00678C"/>
<path fill-rule="evenodd" clip-rule="evenodd" d="M984.65 413.747C980.107 413.748 975.582 414.303 971.174 415.398V416.055H972.154C974.786 421.318 979.394 424.938 982.681 429.538C984.982 434.802 987.621 440.065 989.921 445.329L990.901 444.341C995.509 441.385 997.485 436.121 997.485 427.901C995.841 425.926 995.509 423.626 993.872 421.318C991.565 418.023 987.621 416.379 984.65 413.747Z" fill="#00678C"/>
<path fill-rule="evenodd" clip-rule="evenodd" d="M633.699 945.291H757.04C771.512 945.291 785.651 942.328 796.835 937.057C815.25 928.52 824.465 916.998 824.465 901.87V870.296C824.465 858.132 813.938 846.293 793.886 838.722C783.027 834.446 769.868 832.47 757.04 832.47H705.075C687.64 832.47 679.42 827.199 677.445 815.699C677.113 814.386 677.113 813.067 677.113 811.755V792.344C677.113 791.032 677.113 790.044 677.445 788.732C679.42 779.849 684.021 777.217 699.155 775.905C700.468 775.905 702.112 775.573 703.431 775.573H826.116V746.962H705.407C687.972 746.962 679.089 748.274 670.869 750.574C645.214 758.794 634.031 771.297 634.031 793.339V818.338C634.031 837.748 656.066 854.188 692.579 858.132C696.855 858.132 700.799 858.464 705.075 858.464H749.484C751.128 858.464 752.765 858.464 754.077 858.796C767.899 860.108 773.487 862.408 777.763 867.332C780.063 869.964 781.058 872.272 781.058 875.235V900.234C781.058 903.197 779.083 907.149 774.807 910.429C771.18 913.724 764.928 915.7 756.709 916.349C755.065 916.349 753.76 916.681 752.101 916.681H633.699V945.291ZM1092.21 895.28C1092.21 924.886 1113.92 941.325 1158.33 944.62C1162.27 944.952 1166.55 945.284 1170.49 945.284H1282.33V916.658H1169.83C1144.5 916.658 1134.97 910.407 1134.97 895.28V746.947H1092.2V895.28H1092.21ZM851.771 896.924V794.969C851.771 768.982 869.854 753.199 906.036 748.259C909.663 747.596 913.939 747.596 917.551 747.596H999.115C1003.06 747.596 1006.69 747.596 1010.96 748.259C1046.81 753.199 1065.23 768.982 1065.23 794.969V896.924C1065.23 917.985 1057.34 929.161 1039.57 936.401L1082.01 974.558H1032.02L997.803 943.964L963.258 945.94H917.544C909.656 945.94 901.429 944.96 892.214 942.328C864.93 935.081 851.771 920.61 851.771 896.924ZM898.148 894.306C898.148 895.95 898.48 897.255 898.812 898.914C901.443 910.746 912.619 917.329 929.391 917.329H968.543L932.693 885.091H982.683L1013.93 913.053C1019.53 910.09 1023.47 905.482 1024.78 899.563C1025.12 897.919 1025.12 896.614 1025.12 895.287V797.276C1025.12 796.281 1025.12 794.976 1024.78 793.649C1022.15 782.473 1010.98 776.229 994.522 776.229H929.398C910.319 776.229 898.156 784.449 898.156 797.276V894.306H898.148ZM1302.07 945.291H1308.32V921.605H1316.87V916.666H1293.52V921.605H1302.07V945.291ZM1350.09 945.291H1355.68V916.666H1347.13L1339.57 936.408L1332.01 916.666H1323.13V945.291H1329.05V923.581L1337.27 945.291H1341.55L1349.77 923.581H1350.1V945.291H1350.09Z" fill="#CE8B2C"/>
<path fill-rule="evenodd" clip-rule="evenodd" d="M88.6782 679.184L64.6602 568.006H76.8314L90.6465 641.026C92.2905 648.59 93.6101 656.153 94.5979 663.717L98.8737 642.994L116.308 567.999H130.448L143.607 624.247C146.895 638.063 149.195 651.214 150.839 663.717C151.827 656.485 153.471 648.258 155.447 639.382L169.586 568.006H182.089L156.766 679.184H145.251L125.848 594.649L122.884 581.49C122.228 586.422 121.24 590.705 120.253 594.649L100.842 679.184H88.6782ZM189.66 625.243C189.66 606.164 193.936 591.693 202.156 581.49C210.383 571.294 220.903 566.362 233.406 566.362C241.294 566.362 248.865 568.338 255.441 572.938C262.016 577.538 267.28 584.121 271.231 592.673C274.851 601.549 276.827 611.744 276.827 623.916C276.827 640.363 273.207 653.522 265.636 664.042C257.416 675.557 246.565 681.145 233.406 681.145C219.915 681.145 209.063 675.225 200.843 663.71C193.272 652.873 189.66 640.046 189.66 625.243ZM202.156 625.243C202.156 639.058 205.112 649.585 211.039 657.149C217.29 664.712 224.522 668.664 233.074 668.664C241.957 668.664 249.521 664.712 255.441 657.149C261.36 649.585 264.324 638.402 264.324 623.599C264.324 613.735 263.012 605.508 259.716 597.951C257.416 592.032 253.797 587.424 249.189 584.136C244.644 580.7 239.096 578.851 233.398 578.873C224.183 578.873 216.619 582.485 211.031 590.056C205.112 597.612 202.156 609.452 202.156 625.243ZM291.947 679.184V568.006H332.404C340.624 568.006 346.876 568.994 350.827 571.294C355.103 573.27 358.391 576.558 360.691 581.49C363.323 586.422 364.642 592.017 364.642 598.261C364.642 606.82 362.666 613.396 358.066 618.659C353.783 623.923 347.539 627.211 338.988 628.855C342.607 630.831 344.907 632.806 346.883 634.775C350.503 639.05 353.466 643.658 356.422 648.914L372.206 679.176H357.078L344.907 656.146C339.975 647.263 336.688 641.019 334.056 638.055C331.756 634.767 329.448 632.46 327.148 631.472C324.848 630.484 321.884 629.828 317.94 629.828H304.125V679.169H291.947V679.184ZM304.118 617.015H329.773C335.361 617.015 339.636 616.359 342.6 615.04C345.556 613.728 347.856 611.42 349.832 608.788C351.476 605.825 352.132 602.205 352.132 598.261C352.132 592.673 350.488 588.397 347.2 585.109C343.912 581.821 339.305 580.177 332.729 580.177H304.111V617.015H304.118ZM383.389 679.184V568.006H395.56V623.267L440.626 568.006H457.065L418.583 613.071L458.709 679.184H442.594L410.363 623.267L395.56 640.702V679.184H383.389ZM464.304 643.334L475.82 642.346C476.476 648.265 477.795 653.197 480.095 656.485C482.071 660.105 485.359 662.737 489.303 664.705C493.254 667.005 497.854 667.993 502.794 667.993C510.026 667.993 515.289 666.017 519.241 662.737C523.185 659.117 525.16 654.51 525.16 648.922C525.16 645.634 524.504 643.002 523.185 640.37C521.872 638.07 519.565 636.094 516.601 634.45C513.645 632.806 507.394 630.506 497.854 627.874C489.303 625.243 483.051 622.611 479.432 619.979C475.77 617.633 472.814 614.335 470.88 610.44C468.905 606.488 467.917 601.888 467.917 596.956C467.917 587.741 470.88 580.509 476.468 574.914C482.388 568.994 490.283 566.362 500.147 566.362C506.723 566.362 512.643 567.675 517.906 570.306C522.838 572.938 526.79 576.882 529.746 581.821C532.621 587.295 534.09 593.398 534.022 599.581L522.506 600.569C522.175 593.337 519.875 588.073 516.255 584.453C512.304 580.834 507.372 579.19 500.472 579.19C493.557 579.19 488.3 580.834 485.005 583.797C483.22 585.203 481.787 587.004 480.817 589.059C479.847 591.114 479.368 593.365 479.417 595.637C479.417 600.244 480.737 603.532 483.368 606.164C485.993 608.464 491.92 611.096 501.128 613.728C510.335 616.028 516.587 618.335 520.206 619.979C525.802 622.935 530.07 626.555 532.702 631.162C535.666 635.77 536.978 641.358 536.978 647.609C537.017 653.725 535.427 659.74 532.37 665.037C529.407 670.3 525.463 674.252 520.199 676.876C515.267 679.832 509.016 681.152 501.776 681.152C490.593 681.152 481.385 677.864 474.81 670.957C468.234 664.049 464.629 654.841 464.304 643.334ZM608.368 679.184L584.358 568.006H596.529L610.344 641.026C611.988 648.59 613.3 656.153 614.295 663.717L618.571 642.994L635.999 567.999H650.146L663.297 624.247C666.388 637.271 668.805 650.445 670.537 663.717C671.524 656.485 673.168 648.258 674.812 639.382L689.284 568.006H701.779L676.456 679.184H664.941L645.531 594.649L642.575 581.49C641.918 586.422 640.93 590.705 639.943 594.649L620.54 679.184H608.368ZM714.938 679.184V568.006H727.109V679.184H714.938ZM771.511 679.184V581.165H741.581V568.006H813.613V581.165H783.365V679.184H771.511ZM825.467 679.184V568.006H837.631V613.728H884.988V568.006H897.167V679.184H884.988V626.887H837.631V679.184H825.467Z" fill="#00678C"/>
</svg>
