<svg width="1420" height="1415" viewBox="0 0 1420 1415" fill="none" xmlns="http://www.w3.org/2000/svg">
<path d="M703.921 0.399414C344.34 0.399414 366.792 156.41 366.792 156.41L367.191 318.042H710.333V366.568H230.901C230.901 366.568 0.804688 340.46 0.804688 703.449C0.804688 1066.45 201.638 1053.58 201.638 1053.58H321.495V885.129C321.495 885.129 315.033 684.199 519.122 684.199H859.458C859.458 684.199 1050.67 687.29 1050.67 499.312V188.5C1050.67 188.5 1079.71 0.399414 703.921 0.399414ZM514.713 109.094C522.822 109.086 530.852 110.679 538.345 113.78C545.838 116.881 552.646 121.43 558.38 127.167C564.113 132.903 568.66 139.714 571.76 147.211C574.86 154.707 576.451 162.742 576.444 170.854C576.451 178.967 574.86 187.001 571.76 194.498C568.66 201.994 564.113 208.805 558.38 214.542C552.646 220.278 545.838 224.827 538.345 227.928C530.852 231.03 522.822 232.622 514.713 232.615C506.604 232.622 498.574 231.03 491.081 227.928C483.588 224.827 476.78 220.278 471.047 214.542C465.313 208.805 460.766 201.994 457.666 194.498C454.567 187.001 452.975 178.967 452.982 170.854C452.975 162.742 454.567 154.707 457.666 147.211C460.766 139.714 465.313 132.903 471.047 127.167C476.78 121.43 483.588 116.881 491.081 113.78C498.574 110.679 506.604 109.086 514.713 109.094Z" fill="url(#paint0_linear)"/>
<path d="M714.132 1410.15C1073.71 1410.15 1051.26 1254.14 1051.26 1254.14L1050.86 1092.51H707.715V1043.99H1187.15C1187.15 1043.99 1417.24 1070.1 1417.24 707.095C1417.24 344.1 1216.41 356.974 1216.41 356.974H1096.55V525.414C1096.55 525.414 1103.01 726.344 898.925 726.344H558.59C558.59 726.344 367.38 723.254 367.38 911.238V1222.05C367.38 1222.05 338.344 1410.15 714.126 1410.15H714.132ZM903.34 1301.47C895.232 1301.47 887.201 1299.88 879.708 1296.78C872.215 1293.68 865.407 1289.13 859.674 1283.39C853.94 1277.66 849.393 1270.85 846.293 1263.35C843.194 1255.85 841.602 1247.82 841.609 1239.71C841.601 1231.59 843.192 1223.56 846.292 1216.06C849.391 1208.56 853.938 1201.75 859.672 1196.02C865.405 1190.28 872.214 1185.73 879.707 1182.63C887.2 1179.53 895.231 1177.93 903.34 1177.94C911.449 1177.93 919.479 1179.53 926.972 1182.63C934.465 1185.73 941.273 1190.28 947.007 1196.01C952.741 1201.75 957.287 1208.56 960.387 1216.06C963.487 1223.55 965.078 1231.59 965.071 1239.7C965.078 1247.81 963.487 1255.85 960.387 1263.34C957.287 1270.84 952.741 1277.65 947.007 1283.39C941.273 1289.12 934.465 1293.67 926.972 1296.78C919.479 1299.88 911.449 1301.47 903.34 1301.46V1301.47Z" fill="url(#paint1_linear)"/>
<defs>
<linearGradient id="paint0_linear" x1="136.924" y1="127.198" x2="839.202" y2="822.136" gradientUnits="userSpaceOnUse">
<stop stop-color="#387EB8"/>
<stop offset="1" stop-color="#366994"/>
</linearGradient>
<linearGradient id="paint1_linear" x1="567.777" y1="573.662" x2="1321.93" y2="1286.24" gradientUnits="userSpaceOnUse">
<stop stop-color="#FFE052"/>
<stop offset="1" stop-color="#FFC331"/>
</linearGradient>
</defs>
</svg>
