<svg width="1247" height="1421" viewBox="0 0 1247 1421" fill="none" xmlns="http://www.w3.org/2000/svg">
<path d="M1247 710.627C1247 628.014 1143.55 549.723 984.942 501.172C1021.54 339.506 1005.28 210.884 933.598 169.705C917.076 160.045 897.759 155.47 876.662 155.47V212.155C888.354 212.155 897.759 214.443 905.638 218.764C940.206 238.591 955.203 314.086 943.511 411.188C940.715 435.082 936.14 460.247 930.548 485.921C880.729 473.719 826.334 464.314 769.144 458.214C734.83 411.188 699.245 368.484 663.406 331.117C746.268 254.097 824.047 211.901 876.916 211.901V155.216C807.017 155.216 715.513 205.038 622.992 291.463C530.471 205.546 438.966 156.233 369.067 156.233V212.918C421.682 212.918 499.715 254.859 582.577 331.371C546.992 368.738 511.407 411.188 477.602 458.214C420.157 464.314 365.763 473.719 315.944 486.175C310.098 460.755 305.777 436.099 302.727 412.459C290.78 315.357 305.523 239.862 339.837 219.781C347.462 215.205 357.375 213.172 369.067 213.172V156.487C347.716 156.487 328.399 161.062 311.623 170.722C240.199 211.901 224.185 340.268 261.041 501.426C102.942 550.231 0 628.268 0 710.627C0 793.24 103.451 871.531 262.058 920.082C225.456 1081.75 241.724 1210.37 313.402 1251.55C329.924 1261.21 349.241 1265.78 370.592 1265.78C440.491 1265.78 531.996 1215.96 624.517 1129.54C717.038 1215.45 808.542 1264.77 878.441 1264.77C899.792 1264.77 919.11 1260.19 935.886 1250.53C1007.31 1209.35 1023.32 1080.99 986.467 919.828C1144.06 871.277 1247 792.985 1247 710.627ZM916.06 541.08C906.655 573.871 894.963 607.679 881.745 641.486C871.324 621.151 860.394 600.816 848.448 580.48C836.756 560.145 824.301 540.318 811.846 520.999C847.94 526.337 882.762 532.946 916.06 541.08ZM799.646 811.796C779.82 846.112 759.486 878.648 738.389 908.897C700.516 912.202 662.135 913.981 623.5 913.981C585.119 913.981 546.738 912.202 509.12 909.151C488.023 878.903 467.434 846.62 447.608 812.558C428.291 779.259 410.753 745.451 394.739 711.389C410.498 677.328 428.291 643.266 447.354 609.967C467.18 575.651 487.514 543.114 508.611 512.865C546.484 509.56 584.865 507.781 623.5 507.781C661.881 507.781 700.262 509.561 737.88 512.611C758.977 542.86 779.566 575.142 799.392 609.204C818.709 642.503 836.247 676.311 852.261 710.373C836.247 744.435 818.709 778.496 799.646 811.796ZM881.745 778.751C895.471 812.812 907.163 846.874 916.822 879.919C883.525 888.053 848.448 894.917 812.101 900.255C824.555 880.682 837.01 860.601 848.702 840.011C860.395 819.676 871.324 799.086 881.745 778.751ZM624.008 1049.97C600.37 1025.57 576.731 998.373 553.347 968.633C576.223 969.649 599.607 970.412 623.246 970.412C647.139 970.412 670.777 969.904 693.907 968.633C671.031 998.373 647.393 1025.57 624.008 1049.97ZM434.9 900.255C398.806 894.917 363.984 888.308 330.686 880.174C340.091 847.383 351.783 813.575 365 779.767C375.422 800.103 386.351 820.438 398.298 840.774C410.244 861.109 422.445 880.936 434.9 900.255ZM622.738 371.28C646.376 395.682 670.015 422.881 693.399 452.621C670.523 451.605 647.139 450.842 623.5 450.842C599.607 450.842 575.969 451.35 552.838 452.621C575.714 422.881 599.353 395.682 622.738 371.28ZM434.645 520.999C422.191 540.572 409.736 560.653 398.044 581.243C386.351 601.578 375.422 621.914 365 642.249C351.275 608.187 339.583 574.125 329.924 541.08C363.221 533.2 398.298 526.337 434.645 520.999ZM204.614 839.248C114.635 800.865 56.4276 750.535 56.4276 710.627C56.4276 670.719 114.635 620.134 204.614 582.005C226.473 572.6 250.366 564.212 275.021 556.332C289.509 606.154 308.573 658.009 332.211 711.135C308.827 764.007 290.018 815.609 275.784 865.176C250.62 857.296 226.727 848.654 204.614 839.248ZM341.362 1202.49C306.794 1182.66 291.797 1107.17 303.489 1010.07C306.285 986.172 310.86 961.007 316.452 935.333C366.271 947.535 420.666 956.94 477.856 963.04C512.17 1010.07 547.755 1052.77 583.594 1090.14C500.732 1167.16 422.953 1209.35 370.084 1209.35C358.646 1209.1 348.987 1206.81 341.362 1202.49ZM944.273 1008.79C956.22 1105.9 941.477 1181.39 907.163 1201.47C899.538 1206.05 889.625 1208.08 877.933 1208.08C825.318 1208.08 747.285 1166.14 664.423 1089.63C700.008 1052.26 735.593 1009.81 769.399 962.786C826.843 956.686 881.237 947.28 931.056 934.825C936.902 960.498 941.477 985.155 944.273 1008.79ZM1042.13 839.248C1020.27 848.654 996.38 857.042 971.725 864.922C957.236 815.1 938.173 763.245 914.534 710.119C937.919 657.246 956.728 605.645 970.962 556.078C996.126 563.958 1020.02 572.6 1042.39 582.005C1132.37 620.389 1190.57 670.719 1190.57 710.627C1190.32 750.535 1132.11 801.12 1042.13 839.248Z" fill="#61DAFB"/>
<path d="M623.246 826.793C687.399 826.793 739.405 774.784 739.405 710.627C739.405 646.47 687.399 594.461 623.246 594.461C559.092 594.461 507.086 646.47 507.086 710.627C507.086 774.784 559.092 826.793 623.246 826.793Z" fill="#61DAFB"/>
</svg>
